<?xml version="1.0" encoding="UTF-8"?>
<!DOCTYPE svg PUBLIC "-//W3C//DTD SVG 1.1//EN" "http://www.w3.org/Graphics/SVG/1.1/DTD/svg11.dtd">
<!-- Creator: CorelDRAW 2021 (64 Bit) -->
<svg xmlns="http://www.w3.org/2000/svg" xml:space="preserve" width="101.6mm" height="101.6mm" version="1.1" style="shape-rendering:geometricPrecision; text-rendering:geometricPrecision; image-rendering:optimizeQuality; fill-rule:evenodd; clip-rule:evenodd"
viewBox="0 0 10159.98 10159.98"
 xmlns:xlink="http://www.w3.org/1999/xlink"
 xmlns:xodm="http://www.corel.com/coreldraw/odm/2003">
 <defs>
  <style type="text/css">
   <![CDATA[
    .fil1 {fill:black}
    .fil0 {fill:black;fill-rule:nonzero}
   ]]>
  </style>
 </defs>
 <g id="Camada_x0020_1">
  <metadata id="CorelCorpID_0Corel-Layer"/>
  <g id="_2188938233152">
   <g>
    <path class="fil0" d="M2771.11 6402.37l-426.01 -3471.42 -451.33 0 -451.32 3471.42 379.62 0c21.08,-181.37 37.95,-354.31 67.49,-535.7l426 0 63.27 535.7 392.28 0zm-843.6 -894.22c67.5,-510.38 126.55,-1037.62 177.17,-1577.53 50.6,539.91 105.43,1050.29 168.72,1577.53l-345.89 0z"/>
    <polygon class="fil0" points="3471.12,6402.37 3471.12,3323.22 3833.87,3323.22 3833.87,2930.95 2720.32,2930.95 2720.32,3323.22 3083.06,3323.22 3083.06,6402.37 "/>
    <polygon class="fil0" points="4564.33,6402.37 4564.33,3323.22 4927.08,3323.22 4927.08,2930.95 3813.53,2930.95 3813.53,3323.22 4176.27,3323.22 4176.27,6402.37 "/>
    <polygon class="fil0" points="6107.95,6402.37 6107.95,6014.31 5538.53,6014.31 5538.53,2930.95 5150.47,2930.95 5150.47,6402.37 "/>
    <path class="fil0" d="M7516.76 6402.37l-426 -3471.42 -451.33 0 -451.32 3471.42 379.62 0c21.08,-181.37 37.95,-354.31 67.48,-535.7l426.01 0 63.27 535.7 392.27 0zm-843.6 -894.22c67.51,-510.38 126.56,-1037.62 177.18,-1577.53 50.6,539.91 105.43,1050.29 168.71,1577.53l-345.89 0z"/>
    <path class="fil0" d="M8335.08 5866.67c0,122.34 -59.05,185.61 -168.72,185.61 -118.12,0 -168.72,-71.72 -168.72,-185.61l0 -738.15 -375.41 0 0 738.15c0,371.19 164.51,573.66 552.56,573.66 388.06,0 548.33,-202.47 548.33,-573.66l0 -497.71c0,-269.95 -37.95,-392.27 -147.62,-552.56 -130.75,-189.82 -404.92,-480.86 -489.29,-598.96 -54.84,-71.7 -67.49,-139.18 -67.49,-236.2l0 -514.6c0,-122.31 54.84,-181.37 164.51,-181.37 118.1,0 164.5,71.71 164.5,185.59l0 628.48 362.74 0 0 -632.7c0,-383.84 -147.62,-573.64 -527.24,-573.64 -375.41,0 -561,185.59 -561,573.64l0 518.81c0,202.47 25.3,316.36 105.45,438.68 101.24,156.07 371.18,451.32 485.06,598.94 97.02,122.34 122.34,194.04 122.34,350.11l0 493.49z"/>
   </g>
   <polygon class="fil1" points="1440.52,6669.08 8712.12,6669.08 8712.12,6593.04 1440.52,6593.04 "/>
   <g>
    <path class="fil1" d="M1737.08 7234.15c-3.21,2.44 -6.53,4.74 -9.98,6.93 -13.71,8.65 -28.66,15.01 -44.26,19.32 -16.42,4.53 -33.32,6.58 -50.32,6.58 -26.98,0 -53.15,-5.27 -77.77,-16.45 -23.55,-10.7 -44.38,-25.48 -62,-44.4 -17.76,-19.08 -31.35,-41.14 -40.98,-65.35 -10.18,-25.57 -14.9,-52.41 -14.9,-79.9 0,-27.45 4.74,-54.24 14.7,-79.83 9.51,-24.39 23,-46.59 40.69,-65.86 17.6,-19.16 38.57,-34.13 62.26,-44.9 24.73,-11.24 51.09,-16.43 78.23,-16.43 17.43,0 34.73,2.18 51.5,6.99 15.87,4.53 30.97,11.14 44.89,20.07 3.14,2.02 6.19,4.14 9.15,6.37 1.58,-4.86 3.95,-9.31 7.24,-13.12 7.31,-9.11 18.55,-13.17 30.41,-13.17l10.08 0c10.53,0 20.36,3.43 28.16,10.55 8.63,7.89 12.6,18.78 12.6,30.32l0 318.26c0,11.35 -4.41,21.82 -13.04,29.28 -7.81,6.74 -17.47,9.83 -27.72,9.83l-11.14 0c-18.38,0 -32.27,-9.75 -37.8,-25.09zm770.64 -273.55c-3.83,-3.89 -8.18,-7.29 -13,-10.21 -9.08,-5.51 -18.99,-7.78 -29.57,-7.78 -6.55,0 -13.19,0.79 -19.42,2.87 -4.74,1.58 -9.26,3.82 -13.09,7.06 -3.21,2.72 -5.59,5.93 -7.41,9.71 -1.88,3.95 -2.58,8.1 -2.58,12.45 0,2.79 0.5,5.19 2.06,7.51 2.56,3.81 5.68,6.97 9.46,9.59 5.01,3.5 10.47,6.33 16.16,8.55 6.37,2.47 12.87,4.72 19.49,6.49l10.57 2.8c17.64,4.69 34.89,10.99 51.25,19.09 14.85,7.36 28.83,16.44 41.08,27.65 11.67,10.68 21.32,23.23 28.15,37.53 6.96,14.55 10.34,30.12 10.34,46.25 0,19.19 -3.94,37.8 -12.89,54.85 -8.33,15.88 -19.66,29.37 -33.94,40.2 -14.16,10.75 -30.15,18.38 -47.17,23.4 -17.49,5.18 -35.58,7.67 -53.83,7.67 -15.15,0 -30.22,-1.68 -44.92,-5.4 -14.34,-3.61 -28.07,-9.04 -40.89,-16.46 -12.93,-7.48 -24.43,-17.04 -34.07,-28.46 -9.78,-11.57 -17.03,-24.83 -21.77,-39.19 -1.68,-4.35 -2.64,-8.94 -2.64,-13.63 0,-7.69 2.67,-14.9 7.01,-21.18 4.31,-6.3 10.13,-11.09 17.08,-14.22l14.55 -6.5 1.21 -0.4c4.42,-1.5 9.01,-2.44 13.69,-2.44 8.55,0 16.68,2.89 23.19,8.45 4.11,3.55 7.49,7.82 10.38,13.02l2.12 4.19c2.35,4.87 5.52,8.95 9.3,12.51 4.45,4.2 9.39,7.85 14.77,10.77 5.26,2.86 10.78,5.06 16.58,6.57 4.5,1.18 9.49,2.18 14.18,2.18 6.87,0 13.89,-1.21 20.53,-2.92 6.8,-1.73 13.29,-4.42 19.25,-8.11 5.01,-3.11 9.27,-6.92 12.65,-11.76 2.59,-3.73 3.34,-8.34 3.34,-12.8 0,-4.19 -0.82,-7.82 -3.24,-11.23 -3.71,-5.24 -8.4,-9.49 -13.74,-13.02 -7.01,-4.62 -14.73,-8.18 -22.61,-11.05 -8.96,-3.26 -18.08,-6.07 -27.94,-8.43 -14.57,-4.19 -28.11,-9.5 -41.19,-15.85 -13.63,-6.62 -26.41,-14.83 -37.95,-24.66 -11.58,-9.86 -21.42,-21.5 -28.93,-34.72 -8.2,-14.43 -12.27,-30.26 -12.27,-46.84 0,-17.14 3.08,-33.92 9.97,-49.66 6.58,-15.04 15.97,-28.27 28.1,-39.31 12.45,-11.36 27.08,-19.42 42.96,-24.92 16.97,-5.86 34.79,-8.36 52.72,-8.36 26.64,0 52.43,5.64 76,18.24 24.64,13.16 43.31,33.37 57.07,57.46l0.85 1.49 0.66 1.58c2.23,5.46 3.73,11.16 3.73,17.09 0,6.13 -1.6,12.11 -4.45,17.52 -3.2,6.03 -7.95,10.9 -13.88,14.56l-12.08 7.24c-6.5,4.2 -14.13,7.18 -22.41,7.18 -10.05,0 -19.5,-3.93 -26.31,-12.23 -2.08,-2.76 -3.78,-5.04 -5.09,-6.97l-11.17 -15.01zm765.45 0c-3.83,-3.89 -8.19,-7.29 -13.01,-10.21 -9.07,-5.51 -18.98,-7.78 -29.56,-7.78 -6.56,0 -13.19,0.79 -19.43,2.87 -4.73,1.58 -9.25,3.82 -13.08,7.06 -3.21,2.72 -5.6,5.93 -7.41,9.71 -1.88,3.95 -2.59,8.1 -2.59,12.45 0,2.79 0.51,5.19 2.07,7.51 2.55,3.81 5.68,6.97 9.46,9.59 5,3.5 10.46,6.33 16.16,8.55 6.37,2.47 12.87,4.72 19.49,6.49l10.56 2.8c17.64,4.69 34.9,10.99 51.26,19.09 14.85,7.36 28.83,16.44 41.07,27.65 11.68,10.68 21.32,23.23 28.16,37.53 6.96,14.55 10.33,30.12 10.33,46.25 0,19.19 -3.93,37.8 -12.88,54.85 -8.34,15.88 -19.66,29.37 -33.94,40.2 -14.16,10.75 -30.15,18.38 -47.17,23.4 -17.49,5.18 -35.58,7.67 -53.83,7.67 -15.15,0 -30.22,-1.68 -44.92,-5.4 -14.35,-3.61 -28.07,-9.04 -40.89,-16.46 -12.94,-7.48 -24.43,-17.04 -34.07,-28.46 -9.78,-11.57 -17.04,-24.83 -21.77,-39.19 -1.68,-4.35 -2.64,-8.94 -2.64,-13.63 0,-7.69 2.67,-14.9 7,-21.18 4.32,-6.3 10.13,-11.09 17.09,-14.22l14.55 -6.5 1.21 -0.4c4.42,-1.5 9,-2.44 13.69,-2.44 8.55,0 16.68,2.89 23.18,8.45 4.12,3.55 7.5,7.82 10.39,13.02l2.11 4.19c2.35,4.87 5.53,8.95 9.31,12.51 4.45,4.2 9.39,7.85 14.77,10.77 5.25,2.86 10.78,5.06 16.58,6.57 4.5,1.18 9.49,2.18 14.18,2.18 6.87,0 13.89,-1.21 20.53,-2.92 6.8,-1.73 13.28,-4.42 19.25,-8.11 5,-3.11 9.27,-6.92 12.65,-11.76 2.59,-3.73 3.34,-8.34 3.34,-12.8 0,-4.19 -0.82,-7.82 -3.24,-11.23 -3.71,-5.24 -8.4,-9.49 -13.74,-13.02 -7.01,-4.62 -14.74,-8.18 -22.62,-11.05 -8.95,-3.26 -18.07,-6.07 -27.93,-8.43 -14.57,-4.19 -28.11,-9.5 -41.2,-15.85 -13.62,-6.62 -26.41,-14.83 -37.95,-24.66 -11.57,-9.86 -21.42,-21.5 -28.93,-34.72 -8.19,-14.43 -12.26,-30.26 -12.26,-46.84 0,-17.14 3.07,-33.92 9.96,-49.66 6.59,-15.04 15.98,-28.27 28.11,-39.31 12.45,-11.36 27.08,-19.42 42.95,-24.92 16.97,-5.86 34.8,-8.36 52.72,-8.36 26.65,0 52.43,5.64 76,18.24 24.65,13.16 43.31,33.37 57.07,57.46l0.86 1.49 0.66 1.58c2.23,5.46 3.72,11.16 3.72,17.09 0,6.13 -1.59,12.11 -4.45,17.52 -3.19,6.03 -7.94,10.9 -13.87,14.56l-12.08 7.24c-6.5,4.2 -14.13,7.18 -22.41,7.18 -10.05,0 -19.51,-3.93 -26.31,-12.23 -2.09,-2.76 -3.78,-5.04 -5.09,-6.97l-11.17 -15.01zm605.66 -60.26c0,-10.92 4.05,-21.1 11.98,-28.64 7.59,-7.24 17.5,-10.82 27.95,-10.82l12.79 0c10.93,0 21.28,3.75 28.89,11.76 7.18,7.54 10.69,17.35 10.69,27.7l0 319.08c0,23.32 -16.4,39.11 -39.58,39.11l-12.43 0c-23.29,0 -40.29,-15.44 -40.29,-39.11l0 -319.08zm-10.55 -116.44c0,-15.54 5.78,-29.53 16.72,-40.55 10.92,-10.99 24.84,-16.85 40.33,-16.85 15.51,0 29.54,5.85 40.46,16.85 10.95,11.04 16.59,25.03 16.59,40.55 0,15.51 -5.64,29.5 -16.58,40.54 -10.9,11.02 -24.96,16.87 -40.47,16.87 -15.5,0 -29.45,-5.86 -40.35,-16.87 -10.92,-11.04 -16.7,-25.01 -16.7,-40.54zm788.36 176.7c-3.83,-3.89 -8.18,-7.29 -13,-10.21 -9.07,-5.51 -18.99,-7.78 -29.57,-7.78 -6.55,0 -13.19,0.79 -19.42,2.87 -4.74,1.58 -9.26,3.82 -13.09,7.06 -3.21,2.72 -5.59,5.93 -7.41,9.71 -1.88,3.95 -2.58,8.1 -2.58,12.45 0,2.79 0.5,5.19 2.06,7.51 2.56,3.81 5.68,6.97 9.46,9.59 5.01,3.5 10.47,6.33 16.16,8.55 6.37,2.47 12.87,4.72 19.49,6.49l10.57 2.8c17.64,4.69 34.89,10.99 51.25,19.09 14.86,7.36 28.83,16.44 41.08,27.65 11.68,10.68 21.32,23.23 28.16,37.53 6.95,14.55 10.33,30.12 10.33,46.25 0,19.19 -3.93,37.8 -12.89,54.85 -8.33,15.88 -19.65,29.37 -33.93,40.2 -14.17,10.75 -30.16,18.38 -47.18,23.4 -17.49,5.18 -35.58,7.67 -53.82,7.67 -15.16,0 -30.23,-1.68 -44.93,-5.4 -14.34,-3.61 -28.07,-9.04 -40.89,-16.46 -12.93,-7.48 -24.42,-17.04 -34.07,-28.46 -9.77,-11.57 -17.03,-24.83 -21.77,-39.19 -1.68,-4.35 -2.64,-8.94 -2.64,-13.63 0,-7.69 2.68,-14.9 7.01,-21.18 4.32,-6.3 10.13,-11.09 17.08,-14.22l14.55 -6.5 1.21 -0.4c4.42,-1.5 9.01,-2.44 13.69,-2.44 8.56,0 16.69,2.89 23.19,8.45 4.11,3.55 7.49,7.82 10.38,13.02l2.12 4.19c2.35,4.87 5.52,8.95 9.3,12.51 4.46,4.2 9.4,7.85 14.77,10.77 5.26,2.86 10.79,5.06 16.58,6.57 4.51,1.18 9.49,2.18 14.18,2.18 6.87,0 13.9,-1.21 20.53,-2.92 6.8,-1.73 13.29,-4.42 19.25,-8.11 5.01,-3.11 9.28,-6.92 12.65,-11.76 2.59,-3.73 3.35,-8.34 3.35,-12.8 0,-4.19 -0.83,-7.82 -3.25,-11.23 -3.71,-5.24 -8.4,-9.49 -13.74,-13.02 -7,-4.62 -14.73,-8.18 -22.61,-11.05 -8.95,-3.26 -18.08,-6.07 -27.94,-8.43 -14.56,-4.19 -28.1,-9.5 -41.19,-15.85 -13.63,-6.62 -26.41,-14.83 -37.95,-24.66 -11.58,-9.86 -21.42,-21.5 -28.93,-34.72 -8.2,-14.43 -12.26,-30.26 -12.26,-46.84 0,-17.14 3.07,-33.92 9.96,-49.66 6.58,-15.04 15.97,-28.27 28.1,-39.31 12.45,-11.36 27.08,-19.42 42.96,-24.92 16.97,-5.86 34.79,-8.36 52.72,-8.36 26.64,0 52.43,5.64 76,18.24 24.65,13.16 43.31,33.37 57.07,57.46l0.86 1.49 0.65 1.58c2.24,5.46 3.73,11.16 3.73,17.09 0,6.13 -1.6,12.11 -4.45,17.52 -3.19,6.03 -7.95,10.9 -13.88,14.56l-12.08 7.24c-6.5,4.2 -14.13,7.18 -22.41,7.18 -10.04,0 -19.5,-3.93 -26.31,-12.23 -2.08,-2.76 -3.78,-5.04 -5.09,-6.97l-11.17 -15.01zm630.29 -8.83l-22.09 0c-9.98,0 -19.59,-2.51 -27.35,-9.04 -9.02,-7.58 -12.82,-18.68 -12.82,-30.19l0 -13.14c0,-11.49 3.78,-22.56 12.77,-30.15 7.76,-6.57 17.41,-9.07 27.4,-9.07l22.18 0 0.27 -77.07c0.06,-20.61 13.97,-35.31 34.22,-38.38l19.57 -2.76 1.85 0c13.3,0 25.53,5.65 32.35,17.37 4.25,7.29 6.05,15.49 6.05,23.86l0 76.98 34.42 0c10.02,0 19.66,2.97 27.32,9.57 8.99,7.71 12.85,18.75 12.85,30.36l0 11.72c0,11.63 -3.88,22.68 -12.88,30.4 -7.66,6.56 -17.29,9.54 -27.29,9.54l-34.42 0 0 190.49c0,7.02 0.12,16.11 1.75,22.96 0.22,0.9 0.65,2.59 0.49,2.71 5,0.99 10.09,1.68 15.17,2.18l11.74 0c9.59,0 18.76,2.84 26.43,8.66 10.01,7.61 14.78,19.1 14.78,31.51l0 11.61c0,13.74 -5.65,26.46 -17.74,33.63 -7.7,4.57 -16.33,6.52 -25.23,6.52l-10.67 0c-12.5,0 -25.02,-0.79 -37.38,-2.62 -14.08,-2.07 -27.23,-7.09 -38.67,-15.61 -12.59,-9.35 -21.07,-22.37 -26.7,-36.84 -6.64,-17.08 -8.37,-37.01 -8.37,-55.2l0 -200zm724.76 148.46c1.46,4.05 3.16,8.03 5.14,11.92 6.25,12.37 14.43,23.36 24.72,32.65 10.46,9.44 22.36,16.68 35.43,21.95 13.44,5.43 27.46,7.93 41.94,7.93 12.49,0 24.73,-1.86 36.63,-5.66 11.41,-3.64 22.01,-8.95 31.6,-16.14 3.41,-2.56 6.79,-5.18 10.2,-7.75 6.16,-4.62 12.98,-8.38 20.63,-9.77l2.35 -0.42 2.38 0c8.91,0 16.97,3.62 23.54,9.47 3.83,3.41 7.22,7.29 10.15,11.49 3.1,4.49 5.68,9.36 7.69,14.43 2.35,6.02 3.71,12.37 3.71,18.83l0 7.33 -3.76 6.28c-3.58,5.97 -8.05,11.28 -13.22,15.93 -4.02,3.61 -8.23,7.05 -12.68,10.13 -16.8,11.66 -35.07,20.8 -54.44,27.37 -20.66,7 -42.28,10.08 -64.07,10.08 -27.85,0 -54.9,-5.26 -80.52,-16.22 -24.53,-10.48 -46.74,-25.06 -65.69,-43.88 -18.91,-18.8 -33.66,-40.75 -44.32,-65.21 -11.13,-25.57 -16.38,-52.67 -16.38,-80.56 0,-27.79 5.09,-54.92 15.91,-80.54 10.3,-24.34 24.5,-46.41 42.89,-65.41 18.18,-18.8 39.45,-33.57 63.34,-44.24 24.74,-11.05 50.97,-16.36 78.08,-16.36 26.18,0 51.65,5.06 75.6,15.59 23.27,10.21 43.88,24.51 61.57,42.74 18.01,18.53 31.79,40.13 41.7,63.97 10.53,25.39 15.39,52.25 15.39,79.68 0,16.01 -6.5,30.78 -21.3,38.19 -8.92,4.45 -18.8,6.2 -28.71,6.2l-245.5 0zm885.13 -218.94c3.51,-2.38 7.12,-4.65 10.8,-6.77 11.54,-6.65 23.87,-11.77 36.66,-15.5 13.52,-3.95 27.55,-5.87 41.65,-5.87 22.99,0 45.52,4.25 66.64,13.46 20.08,8.77 38.1,21.07 53.27,36.87 15.21,15.81 26.85,34.34 35.18,54.6 8.75,21.32 12.89,43.89 12.89,66.92l0 193.01c0,11.22 -3.58,21.86 -11.85,29.72 -7.71,7.36 -17.74,10.8 -28.32,10.8l-14.42 0c-11.49,0 -22.49,-3.81 -30.07,-12.82 -6.53,-7.76 -9.04,-17.37 -9.04,-27.35l0 -193.61c-0.16,-10.39 -2.21,-20.6 -6.51,-30.28 -4.17,-9.37 -9.75,-17.79 -17.06,-25 -7.25,-7.15 -15.69,-12.66 -25.08,-16.66 -9.59,-4.08 -19.65,-5.96 -30.09,-5.96 -10.5,0 -20.58,1.86 -30.3,5.79 -9.63,3.9 -18.42,9.21 -26.08,16.21 -7.47,6.87 -13.32,14.94 -17.75,24.08 -4.56,9.35 -6.94,19.35 -7.45,29.09l0.02 197.4c0,23.25 -16.33,39.11 -39.46,39.11l-14.42 0c-23.2,0 -39.81,-15.69 -39.81,-39.11l0 -322.47c0,-9.51 3.12,-18.48 9.44,-25.62 7.17,-8.1 17.3,-12.08 28.02,-12.08l20.88 0c8.82,0 17.04,3.16 23.51,9.16 3.91,3.64 6.85,8.03 8.75,12.88zm790.58 70.48l-22.09 0c-9.98,0 -19.59,-2.51 -27.35,-9.04 -9.02,-7.58 -12.82,-18.68 -12.82,-30.19l0 -13.14c0,-11.49 3.78,-22.56 12.77,-30.15 7.76,-6.57 17.4,-9.07 27.4,-9.07l22.17 0 0.27 -77.07c0.07,-20.61 13.98,-35.31 34.22,-38.38l19.57 -2.76 1.85 0c13.31,0 25.54,5.65 32.36,17.37 4.25,7.29 6.05,15.49 6.05,23.86l0 76.98 34.42 0c10.01,0 19.66,2.97 27.32,9.57 8.98,7.71 12.85,18.75 12.85,30.36l0 11.72c0,11.63 -3.88,22.68 -12.89,30.4 -7.66,6.56 -17.28,9.54 -27.28,9.54l-34.42 0 0 190.49c0,7.02 0.11,16.11 1.74,22.96 0.22,0.9 0.66,2.59 0.49,2.71 5.01,0.99 10.1,1.68 15.17,2.18l11.74 0c9.6,0 18.77,2.84 26.43,8.66 10.01,7.61 14.78,19.1 14.78,31.51l0 11.61c0,13.74 -5.64,26.46 -17.74,33.63 -7.69,4.57 -16.33,6.52 -25.23,6.52l-10.67 0c-12.5,0 -25.01,-0.79 -37.38,-2.62 -14.08,-2.07 -27.23,-7.09 -38.67,-15.61 -12.58,-9.35 -21.07,-22.37 -26.69,-36.84 -6.64,-17.08 -8.37,-37.01 -8.37,-55.2l0 -200zm724.76 148.46c1.46,4.05 3.16,8.03 5.14,11.92 6.25,12.37 14.43,23.36 24.71,32.65 10.47,9.44 22.36,16.68 35.43,21.95 13.44,5.43 27.47,7.93 41.95,7.93 12.48,0 24.73,-1.86 36.62,-5.66 11.41,-3.64 22.01,-8.95 31.6,-16.14 3.41,-2.56 6.79,-5.18 10.2,-7.75 6.17,-4.62 12.99,-8.38 20.63,-9.77l2.35 -0.42 2.39 0c8.9,0 16.97,3.62 23.53,9.47 3.84,3.41 7.23,7.29 10.15,11.49 3.11,4.49 5.68,9.36 7.7,14.43 2.35,6.02 3.71,12.37 3.71,18.83l0 7.33 -3.76 6.28c-3.58,5.97 -8.05,11.28 -13.23,15.93 -4.01,3.61 -8.23,7.05 -12.68,10.13 -16.8,11.66 -35.06,20.8 -54.43,27.37 -20.66,7 -42.29,10.08 -64.07,10.08 -27.86,0 -54.91,-5.26 -80.53,-16.22 -24.52,-10.48 -46.73,-25.06 -65.68,-43.88 -18.92,-18.8 -33.67,-40.75 -44.32,-65.21 -11.14,-25.57 -16.38,-52.67 -16.38,-80.56 0,-27.79 5.09,-54.92 15.91,-80.54 10.3,-24.34 24.49,-46.41 42.89,-65.41 18.18,-18.8 39.44,-33.57 63.33,-44.24 24.75,-11.05 50.97,-16.36 78.09,-16.36 26.17,0 51.64,5.06 75.6,15.59 23.27,10.21 43.88,24.51 61.57,42.74 18.01,18.53 31.78,40.13 41.7,63.97 10.53,25.39 15.38,52.25 15.38,79.68 0,16.01 -6.5,30.78 -21.3,38.19 -8.92,4.45 -18.8,6.2 -28.71,6.2l-245.49 0zm-6678.37 -39c0,-15.57 -2.37,-30.86 -7.68,-45.51 -4.94,-13.55 -11.98,-25.93 -21.42,-36.87 -8.87,-10.27 -19.52,-18.2 -31.75,-24.04 -12.65,-6.05 -26.19,-8.67 -40.19,-8.67 -14.16,0 -27.97,2.57 -40.8,8.68 -12.42,5.92 -23.29,13.93 -32.43,24.2 -9.57,10.77 -16.68,23.18 -21.75,36.64 -5.46,14.53 -7.91,29.72 -7.91,45.22 0,15.54 2.42,30.64 7.89,45.19 5.08,13.43 12.33,25.54 21.93,36.22 9.12,10.17 20.12,17.96 32.47,23.76 12.8,6 26.49,8.63 40.6,8.63 13.97,0 27.47,-2.58 40.16,-8.45 12.16,-5.62 22.79,-13.4 31.71,-23.4 9.41,-10.55 16.4,-22.66 21.31,-35.92 5.47,-14.71 7.86,-30 7.86,-45.68zm4474.66 -49.07c-1.16,-2.84 -2.42,-5.64 -3.81,-8.4 -5.87,-11.56 -13.41,-21.87 -22.9,-30.69 -9.41,-8.74 -20.11,-15.47 -31.95,-20.41 -11.88,-4.96 -24.35,-7.23 -37.2,-7.23 -12.99,0 -25.52,2.31 -37.55,7.19 -11.99,4.88 -22.78,11.56 -32.35,20.28 -9.9,9.01 -17.98,19.51 -24.4,31.23 -1.42,2.64 -2.75,5.31 -3.98,8.03l194.14 0zm2400.47 0c-1.16,-2.84 -2.42,-5.64 -3.82,-8.4 -5.86,-11.56 -13.4,-21.87 -22.9,-30.69 -9.4,-8.74 -20.11,-15.47 -31.95,-20.41 -11.88,-4.96 -24.34,-7.23 -37.19,-7.23 -12.99,0 -25.52,2.31 -37.55,7.19 -12,4.88 -22.78,11.56 -32.36,20.28 -9.89,9.01 -17.97,19.51 -24.39,31.23 -1.43,2.64 -2.76,5.31 -3.98,8.03l194.14 0z"/>
    <path class="fil0" d="M1800.33 7220.13c0,3.98 -1.29,7.04 -3.86,9.25 -2.59,2.24 -5.98,3.41 -10.45,3.41l-11.14 0c-9.26,0 -13.94,-4.68 -13.94,-14.07l-0.36 -60.97c-4.23,13.12 -10.45,24.85 -18.64,35.06 -8.22,10.2 -17.83,18.87 -28.97,25.91 -11.13,7.03 -23.57,12.43 -37.17,16.19 -13.61,3.75 -28.03,5.63 -43.28,5.63 -23.92,0 -46.2,-4.71 -66.83,-14.08 -20.65,-9.37 -38.47,-22.16 -53.59,-38.35 -15.14,-16.3 -27.1,-35.3 -35.77,-57.11 -8.68,-21.8 -13.02,-45.14 -13.02,-70.12 0,-24.86 4.34,-48.2 12.9,-70.24 8.56,-21.92 20.4,-41.04 35.54,-57.57 15.12,-16.43 33.06,-29.32 53.71,-38.71 20.63,-9.37 43.02,-14.06 67.29,-14.06 15.49,0 30.26,1.98 44.22,5.97 13.95,3.99 26.5,9.62 37.87,16.9 11.25,7.25 20.88,15.94 28.84,25.9 7.98,9.98 13.73,21 17.26,32.96l1.39 -60.16c0.24,-4.68 1.41,-8.33 3.53,-10.78 1.98,-2.47 5.39,-3.65 10.08,-3.65l10.08 0c4.23,0 7.63,1.18 10.33,3.65 2.69,2.45 3.98,6.1 3.98,10.78l0 318.26zm-40.1 -158.9c0,-19.23 -3.06,-37.41 -9.27,-54.53 -6.22,-17.12 -15,-32.12 -26.26,-45.14 -11.14,-12.9 -24.63,-23.1 -40.35,-30.61 -15.71,-7.51 -32.95,-11.25 -51.6,-11.25 -19,0 -36.47,3.74 -52.18,11.25 -15.82,7.51 -29.43,17.71 -40.8,30.49 -11.38,12.79 -20.3,27.79 -26.75,44.91 -6.43,17.12 -9.61,35.3 -9.61,54.53 0,19.36 3.18,37.41 9.61,54.53 6.45,17.01 15.49,31.77 26.98,44.56 11.38,12.66 25.1,22.63 40.93,30.02 15.71,7.39 33.06,11.14 51.82,11.14 18.42,0 35.54,-3.63 51.26,-10.91 15.71,-7.27 29.2,-17.23 40.34,-29.78 11.25,-12.55 20.04,-27.32 26.37,-44.32 6.34,-17.12 9.51,-35.3 9.51,-54.89zm778.45 -103.78c-7.51,-12.08 -17.59,-22.05 -30.26,-29.67 -12.66,-7.73 -27.09,-11.61 -43.27,-11.61 -10.08,0 -19.35,1.41 -27.79,4.23 -8.45,2.81 -15.72,6.81 -21.8,11.96 -6.1,5.16 -10.81,11.38 -14.2,18.53 -3.41,7.14 -5.16,15.01 -5.16,23.81 0,8.43 2.22,15.82 6.57,22.28 4.34,6.45 9.73,11.96 16.3,16.53 6.57,4.57 13.84,8.45 21.69,11.49 7.86,3.06 15.25,5.51 22.27,7.39l10.57 2.8c17.12,4.71 32.59,10.45 46.32,17.24 13.72,6.81 25.33,14.67 34.94,23.45 9.61,8.81 17,18.65 22.16,29.44 5.16,10.8 7.74,22.41 7.74,34.84 0,15.94 -3.29,30.12 -9.84,42.55 -6.57,12.55 -15.37,22.99 -26.51,31.44 -11.14,8.45 -24.04,14.78 -38.69,19.11 -14.67,4.34 -30.14,6.57 -46.34,6.57 -13.35,0 -26.14,-1.53 -38.45,-4.58 -12.31,-3.16 -23.69,-7.61 -34.12,-13.71 -10.45,-5.98 -19.47,-13.61 -27.1,-22.63 -7.61,-9.04 -13.35,-19.47 -17.12,-31.2 -0.7,-1.65 -1.06,-3.17 -1.06,-4.57 0,-1.88 0.83,-4 2.36,-6.21 1.53,-2.24 3.51,-3.88 6.09,-5.04l13.38 -5.98c2.1,-0.71 3.86,-1.06 5.27,-1.06 2.34,0 4.34,0.7 5.98,2.1 1.63,1.41 3.04,3.17 4.22,5.29l1.76 3.51c3.63,7.51 8.67,14.2 14.89,20.06 6.21,5.86 13.02,10.78 20.29,14.77 7.39,3.98 14.89,6.92 22.51,8.92 7.63,1.98 14.55,3.04 20.87,3.04 8.45,0 17.49,-1.3 27.1,-3.75 9.61,-2.47 18.53,-6.22 26.61,-11.25 8.21,-5.06 15.02,-11.4 20.41,-19.12 5.39,-7.75 8.1,-17.12 8.1,-27.92 0,-10.08 -2.71,-18.87 -8.1,-26.5 -5.39,-7.62 -12.31,-14.19 -20.76,-19.82 -8.44,-5.51 -17.83,-10.08 -28.14,-13.83 -10.32,-3.76 -20.4,-6.8 -30.26,-9.15 -12.2,-3.51 -24.28,-8.2 -36.36,-14.06 -12.06,-5.87 -22.86,-12.91 -32.35,-21 -9.49,-8.08 -17.24,-17.36 -23.1,-27.67 -5.86,-10.32 -8.8,-21.59 -8.8,-33.77 0,-14.31 2.58,-27.33 7.74,-39.06 5.16,-11.84 12.43,-21.92 21.69,-30.37 9.27,-8.44 20.53,-14.89 33.78,-19.46 13.24,-4.58 27.91,-6.92 44.09,-6.92 23.45,0 44.68,5.04 63.55,15.12 18.88,10.08 34.37,25.92 46.57,47.26 1.16,2.82 1.75,5.16 1.75,7.04 0,1.64 -0.48,3.39 -1.4,5.15 -0.94,1.77 -2.35,3.18 -4.23,4.34l-12.32 7.39c-3.27,2.12 -6.1,3.18 -8.43,3.18 -2.47,0 -4.35,-0.71 -5.51,-2.12 -1.06,-1.41 -2.59,-3.39 -4.35,-5.98l-2.1 -2.82 0.35 0zm765.45 0c-7.51,-12.08 -17.59,-22.05 -30.26,-29.67 -12.67,-7.73 -27.1,-11.61 -43.27,-11.61 -10.08,0 -19.36,1.41 -27.79,4.23 -8.45,2.81 -15.73,6.81 -21.81,11.96 -6.1,5.16 -10.8,11.38 -14.19,18.53 -3.41,7.14 -5.16,15.01 -5.16,23.81 0,8.43 2.22,15.82 6.57,22.28 4.33,6.45 9.72,11.96 16.29,16.53 6.57,4.57 13.85,8.45 21.69,11.49 7.86,3.06 15.26,5.51 22.28,7.39l10.57 2.8c17.11,4.71 32.59,10.45 46.31,17.24 13.73,6.81 25.34,14.67 34.95,23.45 9.61,8.81 17,18.65 22.15,29.44 5.16,10.8 7.75,22.41 7.75,34.84 0,15.94 -3.29,30.12 -9.85,42.55 -6.56,12.55 -15.37,22.99 -26.51,31.44 -11.13,8.45 -24.04,14.78 -38.68,19.11 -14.67,4.34 -30.14,6.57 -46.34,6.57 -13.35,0 -26.14,-1.53 -38.45,-4.58 -12.32,-3.16 -23.69,-7.61 -34.12,-13.71 -10.45,-5.98 -19.47,-13.61 -27.1,-22.63 -7.61,-9.04 -13.36,-19.47 -17.12,-31.2 -0.71,-1.65 -1.06,-3.17 -1.06,-4.57 0,-1.88 0.82,-4 2.35,-6.21 1.53,-2.24 3.51,-3.88 6.1,-5.04l13.37 -5.98c2.1,-0.71 3.87,-1.06 5.28,-1.06 2.33,0 4.33,0.7 5.98,2.1 1.63,1.41 3.04,3.17 4.22,5.29l1.76 3.51c3.63,7.51 8.67,14.2 14.89,20.06 6.21,5.86 13.01,10.78 20.29,14.77 7.39,3.98 14.88,6.92 22.51,8.92 7.63,1.98 14.55,3.04 20.87,3.04 8.45,0 17.48,-1.3 27.09,-3.75 9.61,-2.47 18.53,-6.22 26.61,-11.25 8.22,-5.06 15.02,-11.4 20.42,-19.12 5.39,-7.75 8.09,-17.12 8.09,-27.92 0,-10.08 -2.7,-18.87 -8.09,-26.5 -5.4,-7.62 -12.32,-14.19 -20.77,-19.82 -8.43,-5.51 -17.82,-10.08 -28.14,-13.83 -10.31,-3.76 -20.39,-6.8 -30.25,-9.15 -12.2,-3.51 -24.28,-8.2 -36.36,-14.06 -12.06,-5.87 -22.86,-12.91 -32.35,-21 -9.5,-8.08 -17.24,-17.36 -23.1,-27.67 -5.87,-10.32 -8.81,-21.59 -8.81,-33.77 0,-14.31 2.59,-27.33 7.75,-39.06 5.15,-11.84 12.43,-21.92 21.69,-30.37 9.27,-8.44 20.53,-14.89 33.78,-19.46 13.24,-4.58 27.9,-6.92 44.08,-6.92 23.45,0 44.69,5.04 63.56,15.12 18.88,10.08 34.37,25.92 46.56,47.26 1.16,2.82 1.75,5.16 1.75,7.04 0,1.64 -0.47,3.39 -1.39,5.15 -0.94,1.77 -2.35,3.18 -4.24,4.34l-12.31 7.39c-3.28,2.12 -6.1,3.18 -8.43,3.18 -2.47,0 -4.35,-0.71 -5.51,-2.12 -1.06,-1.41 -2.59,-3.39 -4.36,-5.98l-2.09 -2.82 0.35 0zm601.14 -57.11c0,-3.98 1.3,-7.15 3.77,-9.49 2.45,-2.35 5.74,-3.53 9.72,-3.53l12.79 0c4.21,0 7.51,1.18 9.72,3.53 2.24,2.34 3.42,5.51 3.42,9.49l0 319.08c0,8.45 -4.34,12.67 -13.14,12.67l-12.43 0c-9.26,0 -13.85,-4.22 -13.85,-12.67l0 -319.08zm-10.55 -116.44c0,-8.56 3.06,-15.84 9.04,-21.92 5.98,-5.98 13.14,-9.04 21.57,-9.04 8.45,0 15.71,3.06 21.69,9.04 5.98,6.08 8.92,13.36 8.92,21.92 0,8.56 -2.94,15.83 -8.92,21.93 -5.98,5.98 -13.24,9.04 -21.69,9.04 -8.43,0 -15.59,-3.06 -21.57,-9.04 -5.98,-6.1 -9.04,-13.37 -9.04,-21.93zm792.88 173.55c-7.51,-12.08 -17.59,-22.05 -30.25,-29.67 -12.67,-7.73 -27.1,-11.61 -43.28,-11.61 -10.08,0 -19.35,1.41 -27.79,4.23 -8.45,2.81 -15.72,6.81 -21.8,11.96 -6.1,5.16 -10.8,11.38 -14.2,18.53 -3.41,7.14 -5.16,15.01 -5.16,23.81 0,8.43 2.22,15.82 6.57,22.28 4.34,6.45 9.73,11.96 16.3,16.53 6.57,4.57 13.84,8.45 21.69,11.49 7.86,3.06 15.25,5.51 22.27,7.39l10.57 2.8c17.12,4.71 32.59,10.45 46.32,17.24 13.72,6.81 25.33,14.67 34.94,23.45 9.61,8.81 17,18.65 22.16,29.44 5.16,10.8 7.75,22.41 7.75,34.84 0,15.94 -3.3,30.12 -9.85,42.55 -6.57,12.55 -15.37,22.99 -26.51,31.44 -11.14,8.45 -24.04,14.78 -38.69,19.11 -14.67,4.34 -30.14,6.57 -46.33,6.57 -13.36,0 -26.14,-1.53 -38.46,-4.58 -12.31,-3.16 -23.69,-7.61 -34.12,-13.71 -10.45,-5.98 -19.47,-13.61 -27.1,-22.63 -7.61,-9.04 -13.35,-19.47 -17.11,-31.2 -0.71,-1.65 -1.06,-3.17 -1.06,-4.57 0,-1.88 0.82,-4 2.35,-6.21 1.53,-2.24 3.51,-3.88 6.1,-5.04l13.37 -5.98c2.1,-0.71 3.86,-1.06 5.27,-1.06 2.34,0 4.34,0.7 5.99,2.1 1.63,1.41 3.04,3.17 4.21,5.29l1.77 3.51c3.62,7.51 8.66,14.2 14.88,20.06 6.22,5.86 13.02,10.78 20.29,14.77 7.4,3.98 14.89,6.92 22.52,8.92 7.62,1.98 14.55,3.04 20.86,3.04 8.45,0 17.49,-1.3 27.1,-3.75 9.61,-2.47 18.53,-6.22 26.61,-11.25 8.22,-5.06 15.02,-11.4 20.41,-19.12 5.39,-7.75 8.1,-17.12 8.1,-27.92 0,-10.08 -2.71,-18.87 -8.1,-26.5 -5.39,-7.62 -12.31,-14.19 -20.76,-19.82 -8.44,-5.51 -17.83,-10.08 -28.14,-13.83 -10.32,-3.76 -20.4,-6.8 -30.26,-9.15 -12.19,-3.51 -24.27,-8.2 -36.35,-14.06 -12.07,-5.87 -22.87,-12.91 -32.36,-21 -9.49,-8.08 -17.24,-17.36 -23.1,-27.67 -5.86,-10.32 -8.8,-21.59 -8.8,-33.77 0,-14.31 2.59,-27.33 7.74,-39.06 5.16,-11.84 12.43,-21.92 21.69,-30.37 9.27,-8.44 20.53,-14.89 33.79,-19.46 13.23,-4.58 27.9,-6.92 44.08,-6.92 23.45,0 44.69,5.04 63.55,15.12 18.88,10.08 34.37,25.92 46.57,47.26 1.16,2.82 1.75,5.16 1.75,7.04 0,1.64 -0.47,3.39 -1.4,5.15 -0.94,1.77 -2.35,3.18 -4.23,4.34l-12.31 7.39c-3.28,2.12 -6.1,3.18 -8.44,3.18 -2.47,0 -4.35,-0.71 -5.51,-2.12 -1.06,-1.41 -2.59,-3.39 -4.35,-5.98l-2.1 -2.82 0.35 0zm722.88 239.11c3.98,0 7.51,1.05 10.43,3.27 2.94,2.24 4.34,5.75 4.34,10.45l0 11.61c0,5.39 -1.63,9.02 -4.81,10.9 -3.16,1.89 -7.04,2.81 -11.72,2.81l-10.67 0c-11.96,0 -23.1,-0.81 -33.53,-2.34 -10.34,-1.52 -19.24,-5.04 -26.75,-10.66 -7.63,-5.63 -13.49,-14.08 -17.82,-25.22 -4.34,-11.14 -6.57,-26.39 -6.57,-45.61l0 -226.45 -48.54 0c-4.7,0 -8.09,-0.94 -10.33,-2.82 -2.22,-1.86 -3.39,-5.27 -3.39,-9.96l0 -13.14c0,-4.68 1.17,-8.08 3.39,-9.96 2.24,-1.88 5.63,-2.82 10.33,-2.82l48.54 0 0.35 -103.42c0,-7.04 3.88,-11.14 11.61,-12.32l17.59 -2.46c4.7,0 7.86,1.41 9.51,4.23 1.63,2.8 2.45,6.33 2.45,10.55l0 103.42 60.86 0c4.22,0 7.63,1.06 10.08,3.17 2.47,2.12 3.65,5.63 3.65,10.32l0 11.72c0,4.69 -1.18,8.22 -3.65,10.32 -2.45,2.12 -5.86,3.17 -10.08,3.17l-60.86 0 0 216.94c0,12.43 0.82,22.16 2.47,29.08 1.65,6.92 4.22,12.08 7.74,15.72 3.51,3.52 7.97,5.75 13.24,6.79 5.28,1.06 11.61,2 19.12,2.71l13.02 0zm708.44 4.57c15.49,0 30.38,-2.34 44.69,-6.93 14.3,-4.57 27.44,-11.25 39.4,-20.16 3.05,-2.35 6.45,-4.92 10.19,-7.74 3.77,-2.81 6.93,-4.45 9.51,-4.92 1.87,0 3.87,0.94 5.98,2.8 2.1,1.88 4.1,4.12 5.98,6.81 1.87,2.7 3.52,5.74 4.81,9.04 1.29,3.27 1.88,6.33 1.88,9.13 -2.12,3.53 -4.82,6.81 -8.21,9.87 -3.4,3.04 -6.81,5.74 -10.08,8.08 -14.79,10.19 -30.73,18.17 -47.85,24.04 -17.12,5.74 -35.65,8.68 -55.59,8.68 -24.86,0 -48.2,-4.7 -70.12,-14.08 -21.93,-9.37 -41.16,-22.15 -57.46,-38.33 -16.29,-16.2 -29.19,-35.18 -38.7,-57 -9.5,-21.81 -14.18,-45.15 -14.18,-70.01 0,-24.86 4.57,-48.31 13.82,-70.24 9.28,-21.92 21.71,-41.04 37.53,-57.34 15.71,-16.31 34.12,-29.08 55.12,-38.47 20.99,-9.37 43.38,-14.06 67.3,-14.06 22.99,0 44.69,4.45 64.97,13.36 20.29,8.92 38,21.23 53.24,36.94 15.25,15.71 27.33,34.24 36.23,55.71 8.92,21.45 13.38,44.67 13.38,69.53 0,7.51 -2.24,12.32 -6.69,14.53 -4.45,2.24 -10.08,3.41 -16.88,3.41l-277.92 0c1.41,18.06 6.1,34.83 13.96,50.3 7.84,15.61 18.06,29.08 30.59,40.34 12.55,11.39 26.98,20.29 43.28,26.86 16.29,6.57 33.53,9.85 51.82,9.85zm123.15 -162.52c-1.88,-16.65 -6.45,-32.26 -13.85,-46.79 -7.39,-14.67 -16.88,-27.34 -28.49,-38.12 -11.61,-10.79 -24.86,-19.24 -39.76,-25.45 -14.89,-6.22 -30.71,-9.26 -47.38,-9.26 -16.65,0 -32.47,3.04 -47.49,9.14 -15,6.1 -28.38,14.43 -40.22,25.22 -11.84,10.78 -21.81,23.45 -29.79,38.12 -7.96,14.53 -13.23,30.25 -15.82,47.14l262.8 0zm631.4 180.81c0,8.45 -4.34,12.67 -13.02,12.67l-14.42 0c-8.92,0 -13.37,-4.22 -13.37,-12.67l0 -322.47c0,-3.29 0.94,-5.98 2.81,-8.1 1.88,-2.11 4.7,-3.16 8.21,-3.16l20.88 0c2.22,0 3.99,0.69 5.51,2.1 1.52,1.42 2.46,3.3 2.69,5.63l1.06 47.85c5.86,-8.79 12.79,-16.89 20.75,-24.4 7.98,-7.49 16.78,-13.94 26.27,-19.45 9.61,-5.51 19.94,-9.86 30.85,-13.02 10.78,-3.17 22.27,-4.8 34.24,-4.8 20.05,0 38.8,3.74 56.06,11.25 17.12,7.49 32.12,17.83 44.78,30.95 12.55,13.13 22.52,28.62 29.79,46.33 7.27,17.71 10.9,36.69 10.9,56.87l0 193.01c0,4.7 -1.17,8.21 -3.63,10.57 -2.46,2.33 -5.86,3.51 -10.09,3.51l-14.42 0c-4.68,0 -7.98,-1.18 -9.84,-3.4 -1.88,-2.23 -2.82,-5.62 -2.82,-10.33l0 -193.83c-0.24,-14.53 -3.16,-28.14 -8.81,-40.81 -5.62,-12.67 -13.12,-23.69 -22.63,-33.06 -9.49,-9.39 -20.63,-16.78 -33.29,-22.18 -12.67,-5.39 -26.16,-8.08 -40.46,-8.08 -14.07,0 -27.45,2.57 -40.21,7.73 -12.79,5.17 -24.16,12.2 -34.02,21.24 -9.85,9.02 -17.71,19.68 -23.69,32 -5.98,12.31 -9.38,25.69 -10.08,40l0 198.05zm937.47 -22.86c3.99,0 7.51,1.05 10.44,3.27 2.94,2.24 4.33,5.75 4.33,10.45l0 11.61c0,5.39 -1.63,9.02 -4.8,10.9 -3.16,1.89 -7.04,2.81 -11.73,2.81l-10.67 0c-11.96,0 -23.1,-0.81 -33.53,-2.34 -10.33,-1.52 -19.24,-5.04 -26.74,-10.66 -7.63,-5.63 -13.5,-14.08 -17.83,-25.22 -4.33,-11.14 -6.57,-26.39 -6.57,-45.61l0 -226.45 -48.53 0c-4.71,0 -8.1,-0.94 -10.33,-2.82 -2.22,-1.86 -3.4,-5.27 -3.4,-9.96l0 -13.14c0,-4.68 1.18,-8.08 3.4,-9.96 2.23,-1.88 5.62,-2.82 10.33,-2.82l48.53 0 0.35 -103.42c0,-7.04 3.89,-11.14 11.61,-12.32l17.59 -2.46c4.71,0 7.86,1.41 9.51,4.23 1.63,2.8 2.45,6.33 2.45,10.55l0 103.42 60.87 0c4.22,0 7.63,1.06 10.08,3.17 2.47,2.12 3.64,5.63 3.64,10.32l0 11.72c0,4.69 -1.17,8.22 -3.64,10.32 -2.45,2.12 -5.86,3.17 -10.08,3.17l-60.87 0 0 216.94c0,12.43 0.83,22.16 2.47,29.08 1.65,6.92 4.22,12.08 7.75,15.72 3.51,3.52 7.96,5.75 13.24,6.79 5.27,1.06 11.61,2 19.11,2.71l13.02 0zm708.45 4.57c15.49,0 30.37,-2.34 44.69,-6.93 14.29,-4.57 27.43,-11.25 39.39,-20.16 3.06,-2.35 6.45,-4.92 10.2,-7.74 3.76,-2.81 6.92,-4.45 9.51,-4.92 1.86,0 3.86,0.94 5.98,2.8 2.1,1.88 4.1,4.12 5.98,6.81 1.86,2.7 3.51,5.74 4.8,9.04 1.3,3.27 1.89,6.33 1.89,9.13 -2.12,3.53 -4.83,6.81 -8.22,9.87 -3.39,3.04 -6.8,5.74 -10.08,8.08 -14.78,10.19 -30.73,18.17 -47.84,24.04 -17.12,5.74 -35.65,8.68 -55.59,8.68 -24.87,0 -48.2,-4.7 -70.13,-14.08 -21.92,-9.37 -41.16,-22.15 -57.45,-38.33 -16.3,-16.2 -29.2,-35.18 -38.71,-57 -9.49,-21.81 -14.18,-45.15 -14.18,-70.01 0,-24.86 4.57,-48.31 13.83,-70.24 9.27,-21.92 21.7,-41.04 37.53,-57.34 15.71,-16.31 34.12,-29.08 55.12,-38.47 20.98,-9.37 43.38,-14.06 67.3,-14.06 22.98,0 44.69,4.45 64.96,13.36 20.3,8.92 38,21.23 53.24,36.94 15.26,15.71 27.33,34.24 36.24,55.71 8.92,21.45 13.37,44.67 13.37,69.53 0,7.51 -2.23,12.32 -6.68,14.53 -4.46,2.24 -10.08,3.41 -16.89,3.41l-277.92 0c1.41,18.06 6.1,34.83 13.96,50.3 7.85,15.61 18.06,29.08 30.6,40.34 12.55,11.39 26.98,20.29 43.27,26.86 16.3,6.57 33.53,9.85 51.83,9.85zm123.14 -162.52c-1.88,-16.65 -6.45,-32.26 -13.84,-46.79 -7.39,-14.67 -16.89,-27.34 -28.49,-38.12 -11.61,-10.79 -24.87,-19.24 -39.77,-25.45 -14.88,-6.22 -30.71,-9.26 -47.37,-9.26 -16.65,0 -32.48,3.04 -47.5,9.14 -15,6.1 -28.37,14.43 -40.22,25.22 -11.84,10.78 -21.8,23.45 -29.78,38.12 -7.96,14.53 -13.24,30.25 -15.83,47.14l262.8 0z"/>
   </g>
  </g>
 </g>
</svg>
