<?xml version="1.0" encoding="UTF-8"?>
<!DOCTYPE svg PUBLIC "-//W3C//DTD SVG 1.0//EN" "http://www.w3.org/TR/2001/REC-SVG-20010904/DTD/svg10.dtd">
<!-- Creator: CorelDRAW 2021 (64 Bit) -->
<svg xmlns="http://www.w3.org/2000/svg" xml:space="preserve" width="50.8mm" height="50.8mm" version="1.0" style="shape-rendering:geometricPrecision; text-rendering:geometricPrecision; image-rendering:optimizeQuality; fill-rule:evenodd; clip-rule:evenodd"
viewBox="0 0 5080 5080"
 xmlns:xlink="http://www.w3.org/1999/xlink"
 xmlns:xodm="http://www.corel.com/coreldraw/odm/2003">
 <defs>
  <style type="text/css">
   <![CDATA[
    .fil4 {fill:black}
    .fil1 {fill:#14B5FF}
    .fil3 {fill:#30C9FE}
    .fil2 {fill:#32CD5A}
    .fil0 {fill:#F8BA97}
    .fil5 {fill:#FDFDFF}
   ]]>
  </style>
 </defs>
 <g id="Camada_x0020_1">
  <metadata id="CorelCorpID_0Corel-Layer"/>
  <path class="fil0" d="M1502.9 1924.67c-55.49,110.35 -53.62,155.29 -137.14,238.76 -32.37,32.34 -162.15,145.83 -235.87,108.81 -63.49,-61.82 87.45,-70.1 184.06,-171.13 56.46,-59.04 98.47,-147.61 120.04,-246.62 -81.1,40.4 -400.83,287.76 -468.95,347.12l-146.14 125.52c-83.51,76.54 -240.62,278.8 -294.96,384.19 -121.25,235.19 -138.74,206.85 -165.24,250.7l2.2 22.45c106.39,301.18 524.16,663.76 856.39,748.04l-12.82 13.23c-1.39,1.26 -9.17,8.2 -11.9,10.38 55.2,-4.6 266.81,-90.67 311.27,-114.95l-11.56 -188.56 -27.97 -860.96c-25.78,13.47 -45.21,17.34 -76.67,7.99 -19.2,-84.75 121.64,-152.79 228.7,-352.84 62.18,-116.18 124.42,-363.33 14.07,-465.71 -0.45,55.9 -19.01,135.81 -51.9,174.82l-75.61 -31.24z"/>
  <path class="fil0" d="M3794.92 2779.52c-13.53,190.93 6.02,422.27 1.99,621.34 -1.83,90.97 18.96,233.07 -50.09,266.35 -74.49,35.9 -203.25,2.42 -274.22,36.65 1.6,1.67 4.5,1.6 5.27,4.5 4.85,18.16 245.14,146.83 257.64,152.23 75.71,-48.4 403.35,-22.63 822.43,-427.41 47.55,-45.92 163.79,-163.93 190.18,-241.28 -66.3,-77.23 -114.71,-251.09 -171.55,-385.27 -13.53,-31.94 -30.23,-53.39 -47.52,-88.32 -73.92,-149.24 -182.31,-278.76 -283.96,-405.64l-417.87 -426.83c21.93,331.31 234.51,388.51 247.55,400.82 71.55,67.64 -84.66,114.59 -214.47,-80.15 -59.41,-89.11 -76.01,-165.67 -101.57,-270.46l-98.46 29.53c-26.53,-48.5 -41.35,-124.05 -27.94,-192.72 -80.27,44.21 -92.26,225.97 -79.86,332.72 27.83,239.38 193.35,489.26 357.1,647.06 40.32,38.86 80.88,47 81.3,116.8 -52.54,36.2 -60,27.17 -105.83,-8.34 -37.76,-29.25 -54.36,-63.26 -90.12,-81.58z"/>
  <path class="fil1" d="M2622.38 2983.61l-16.35 29.22 245.1 148.7 -158.37 141.03c-46.45,45.19 -105.61,103.99 -129.97,171.45 67.64,41.94 153.11,48.74 234.41,107.9 -23.12,33.95 -77.12,105.63 -94.02,153.3 67.5,0 136.03,1.26 203.37,0.42 65.41,-0.8 108.73,-11.39 187.72,-10.81 129.32,0.96 246.04,-20.96 378.33,-20.96 70.97,-34.23 199.73,-0.75 274.22,-36.65 69.05,-33.28 48.26,-175.38 50.09,-266.35 4.03,-199.07 -15.52,-430.41 -1.99,-621.34 -36.84,-62.85 -167.58,-167.84 -253.19,-380.94 -129.69,71.6 -431.83,291.64 -523.18,331.75 20.28,61.38 169.79,268.43 224.03,334.07 21.52,26.05 24.64,31.99 40.91,53.33l215.01 234.08c43.66,41.64 177.89,130.27 154.48,200.13 -37.92,49.43 -158.33,-92.88 -204.28,-139.88 -33.61,-34.36 -56.12,-62.63 -92.91,-95.1 -149.11,-131.6 -364.9,-484.76 -407.86,-530.52 -87.64,28.79 -243.39,183 -325.55,197.17z"/>
  <path class="fil1" d="M1878.12 3274.07c-46.59,56.51 -217.72,293.79 -267.59,313.64 -92.08,-42 15.61,-91.68 73.36,-207.69 -49.64,30.52 -132.14,61.33 -191.61,72.59l11.56 188.56c25.08,38.35 -2.8,21 37.97,37.54 116.73,47.38 1006.21,56.5 1072.61,56.5l67.45 -127.46c-19.59,-5.35 -235.18,-66.12 -245.17,-71.05 63.67,-184.86 236.21,-321.21 269.23,-365.7l-206.86 -123.81c9.65,-28.76 -0.09,-2.38 10.06,-22.81l44.16 -83.52 -50.14 -20.04c-4.36,28.69 14.55,4.84 -23.27,32.55 -12.31,9.04 -22.18,12.41 -40.04,23.07 -65.2,38.95 -515.07,324.36 -561.72,297.63z"/>
  <path class="fil2" d="M4762.42 3202.35c-87.35,179.43 -174.33,320.51 -283.27,465.41 -63.21,84.06 -284.95,350.26 -371.43,372.53 -8.43,28.5 -145.81,95.91 1,205.89 157.39,117.92 407.33,30.51 536.17,-99.17l131.46 -161.1c134.54,-191.7 147.07,-240.1 240.24,-449.39 50.52,-113.46 25.01,-116.1 -56.57,-225.23 -79.86,-106.81 -104.65,-159.97 -197.6,-108.94z"/>
  <path class="fil2" d="M931.38 3830.6c-109.56,25.44 -88.39,55.59 -215.93,-119.87 -51.95,-71.47 -98.23,-138.33 -144.43,-221.05 -50.43,-90.27 -203.95,-394.08 -210.12,-505.21l-2.2 -22.45c-114.78,-54.54 -95.41,-39.45 -203,60.22 -59.62,55.22 -139.01,90.43 -113.25,190.49 48.09,186.9 89.84,335.44 167.86,491.26 18.27,36.49 34.6,62.78 56.89,99.85 70.72,117.6 115.14,175.52 259.91,241.6 120.32,54.95 287.59,35.21 347.94,-75.01 28.98,-52.91 -15.1,-64.29 -27.27,-109.84 44.84,-1 59.45,-1.33 83.6,-29.99z"/>
  <path class="fil3" d="M1464.31 2591.65l27.97 860.96c59.47,-11.26 141.97,-42.07 191.61,-72.59 21.7,-5.06 40.65,-40.97 64.25,-71.52 74.03,-95.82 428.75,-516.98 455.89,-577.94 -88.95,-55.24 -504.77,-337.67 -562.16,-356.29 -30.9,40.23 -56.44,73.08 -88.54,112.35l-67.57 79.32c-20.26,21.12 -10.96,6.6 -21.45,25.71z"/>
  <path class="fil3" d="M1753.62 2105.25c-13.18,81.68 -46.42,130.16 -69.3,198.48l884.32 558.25c16.55,14.93 4.34,1.22 16.81,18.99 45.08,-76.49 84.9,-161.28 138.16,-211.5 -58.36,-70.83 -257.96,-205.19 -303.16,-261.21 14.91,-30.4 131.29,-137.89 163.58,-189.72 -60.6,-27 -150.3,-118.74 -210.77,-158.27 -52.93,6.26 -104,1.27 -157.06,2.84 -54.34,1.62 -89.88,8.89 -156.67,10.53 -39.91,0.97 -284.96,23.06 -305.91,31.61z"/>
  <path class="fil4" d="M3460.12 2094.8c7.52,94.27 31.34,148.21 49.95,229.96 -58.5,33 -128.13,84.05 -188.79,122.25l-567.86 357.34c-16.14,25.99 -45.15,55.83 -66.48,84.79 -24.34,33.05 -42.54,58.15 -64.56,94.47 82.16,-14.17 237.91,-168.38 325.55,-197.17 42.96,45.76 258.75,398.92 407.86,530.52 36.79,32.47 59.3,60.74 92.91,95.1 45.95,47 166.36,189.31 204.28,139.88 23.41,-69.86 -110.82,-158.49 -154.48,-200.13l-215.01 -234.08c-16.27,-21.34 -19.39,-27.28 -40.91,-53.33 -54.24,-65.64 -203.75,-272.69 -224.03,-334.07 91.35,-40.11 393.49,-260.15 523.18,-331.75 85.61,213.1 216.35,318.09 253.19,380.94 35.76,18.32 52.36,52.33 90.12,81.58 45.83,35.51 53.29,44.54 105.83,8.34 -0.42,-69.8 -40.98,-77.94 -81.3,-116.8 -163.75,-157.8 -329.27,-407.68 -357.1,-647.06 -12.4,-106.75 -0.41,-288.51 79.86,-332.72 20.28,-43.63 84.06,-57.61 104.57,3 11.22,33.13 18.23,121.74 21.83,160.19 25.56,104.79 42.16,181.35 101.57,270.46 129.81,194.74 286.02,147.79 214.47,80.15 -13.04,-12.31 -225.62,-69.51 -247.55,-400.82 -23.37,-388.15 -407.37,-229.39 -367.1,208.96z"/>
  <path class="fil3" d="M2753.42 2804.35l567.86 -357.34c60.66,-38.2 130.29,-89.25 188.79,-122.25 -18.61,-81.75 -42.43,-135.69 -49.95,-229.96l-693.66 -41.8c19.99,24.66 34.04,55.3 49.66,91.84 18.88,44.17 -1.11,56.61 -25.51,85.16 -46.82,54.76 -89.3,108.54 -134.44,157.36l176.96 208.66c23.96,24.63 36.33,47.79 58.17,69.67 -59.78,49.11 -84.56,81.36 -137.88,138.66z"/>
  <path class="fil4" d="M1433.99 1854.49c-21.57,99.01 -63.58,187.58 -120.04,246.62 -96.61,101.03 -247.55,109.31 -184.06,171.13 73.72,37.02 203.5,-76.47 235.87,-108.81 83.52,-83.47 81.65,-128.41 137.14,-238.76 11.58,-58.94 55.66,-244.8 127.51,-143.58 110.35,102.38 48.11,349.53 -14.07,465.71 -107.06,200.05 -247.9,268.09 -228.7,352.84 31.46,9.35 50.89,5.48 76.67,-7.99 10.49,-19.11 1.19,-4.59 21.45,-25.71l67.57 -79.32c32.1,-39.27 57.64,-72.12 88.54,-112.35 57.39,18.62 473.21,301.05 562.16,356.29 -27.14,60.96 -381.86,482.12 -455.89,577.94 -23.6,30.55 -42.55,66.46 -64.25,71.52 -57.75,116.01 -165.44,165.69 -73.36,207.69 49.87,-19.85 221,-257.13 267.59,-313.64 32.67,-44.44 65.72,-83.64 98.05,-124.19l301.39 -372.07c53.1,38.48 186.52,103.86 225.59,143.01l50.14 20.04 32.16 -59.89c-12.47,-17.77 -0.26,-4.06 -16.81,-18.99l-884.32 -558.25c22.88,-68.32 56.12,-116.8 69.3,-198.48 50.2,-132.51 -2.41,-311.77 -66.78,-379.33 -47.35,-49.7 -99.7,-68.39 -170.37,-28.21 -45.44,25.85 -79.91,91.31 -82.48,156.78z"/>
  <path class="fil5" d="M2585.45 2880.97l-32.16 59.89 -44.16 83.52c-10.15,20.43 -0.41,-5.95 -10.06,22.81l206.86 123.81c-33.02,44.49 -205.56,180.84 -269.23,365.7 9.99,4.93 225.58,65.7 245.17,71.05l-67.45 127.46c20.07,13.43 59.34,18.68 88.76,0 16.9,-47.67 70.9,-119.35 94.02,-153.3 -81.3,-59.16 -166.77,-65.96 -234.41,-107.9 24.36,-67.46 83.52,-126.26 129.97,-171.45l158.37 -141.03 -245.1 -148.7 16.35 -29.22c22.02,-36.32 40.22,-61.42 64.56,-94.47 21.33,-28.96 50.34,-58.8 66.48,-84.79 53.32,-57.3 78.1,-89.55 137.88,-138.66 -21.84,-21.88 -34.21,-45.04 -58.17,-69.67l-176.96 -208.66c45.14,-48.82 87.62,-102.6 134.44,-157.36 24.4,-28.55 44.39,-40.99 25.51,-85.16 -15.62,-36.54 -29.67,-67.18 -49.66,-91.84 -85.96,0 -334.8,-18.49 -393.2,7.27 60.47,39.53 150.17,131.27 210.77,158.27 -32.29,51.83 -148.67,159.32 -163.58,189.72 45.2,56.02 244.8,190.38 303.16,261.21 -53.26,50.22 -93.08,135.01 -138.16,211.5z"/>
  <path class="fil4" d="M3735.51 3860.59c7.72,9.25 -1.19,2.21 14.86,13.34l249.36 125.99c29.51,14.24 73.46,34.63 107.99,40.37 86.48,-22.27 308.22,-288.47 371.43,-372.53 108.94,-144.9 195.92,-285.98 283.27,-465.41l-14.3 -10.45c-26.39,77.35 -142.63,195.36 -190.18,241.28 -419.08,404.78 -746.72,379.01 -822.43,427.41z"/>
  <path class="fil4" d="M931.38 3830.6c46.18,14.92 184.71,-37.61 240.88,-63.48 20.37,-9.38 8.65,-2.9 20.31,-11 2.73,-2.18 10.51,-9.12 11.9,-10.38l12.82 -13.23c-332.23,-84.28 -750,-446.86 -856.39,-748.04 6.17,111.13 159.69,414.94 210.12,505.21 46.2,82.72 92.48,149.58 144.43,221.05 127.54,175.46 106.37,145.31 215.93,119.87z"/>
  <path class="fil3" d="M1878.12 3274.07c46.65,26.73 496.52,-258.68 561.72,-297.63 17.86,-10.66 27.73,-14.03 40.04,-23.07 37.82,-27.71 18.91,-3.86 23.27,-32.55 -39.07,-39.15 -172.49,-104.53 -225.59,-143.01l-301.39 372.07c-32.33,40.55 -65.38,79.75 -98.05,124.19z"/>
  <path class="fil4" d="M2456.86 1478.34c30.34,20.33 14.02,21.14 52.23,31.35 1.88,-1.63 5.15,-6.26 5.9,-4.54 1.82,4.07 25.75,-22.63 32.41,-61.64 5.54,-32.45 3.23,-62.77 7.94,-96.55l37.65 -401.18c2.76,-49.4 39.08,-167.49 -31.66,-167.49 -50.94,0 -45.15,72.27 -51.33,147.19l-33.15 363.89c-4.41,52.62 -19.99,134.96 -19.99,188.97z"/>
  <path class="fil4" d="M2007.57 1206.69c0,23.54 278.81,335.25 307.49,341.54 38.23,8.38 47.76,-18.98 47.76,-48.99 0,-30.36 -50.91,-66.01 -70.74,-85.99l-154.73 -169.18c-86.62,-112.32 -129.78,-84.77 -129.78,-37.38z"/>
  <path class="fil4" d="M2812.1 1603.73c0,24.46 17.34,41.79 41.8,41.79 42.74,0 278.59,-344.35 279.01,-347.18 1.12,-7.51 -7.6,-124.41 -119.34,26.23 -25.93,34.96 -201.47,259.42 -201.47,279.16z"/>
  <path class="fil5" d="M3632.33 1772.86c-13.41,68.67 1.41,144.22 27.94,192.72l98.46 -29.53c-3.6,-38.45 -10.61,-127.06 -21.83,-160.19 -20.51,-60.61 -84.29,-46.63 -104.57,-3z"/>
  <path class="fil5" d="M499.38 3792.82c-99.26,41.73 -44.45,201.52 71.13,156.97 95.07,-36.64 43.55,-205.18 -71.13,-156.97z"/>
  <path class="fil5" d="M4191.7 4066.09c-24.19,143.93 116.95,145 143.1,72.29 17.56,-48.83 -4.42,-89.94 -36.91,-102.91 -47.64,-19.01 -75.69,8.97 -106.19,30.62z"/>
  <path class="fil5" d="M1502.9 1924.67l75.61 31.24c32.89,-39.01 51.45,-118.92 51.9,-174.82 -71.85,-101.22 -115.93,84.64 -127.51,143.58z"/>
 </g>
</svg>
