<?xml version="1.0" encoding="UTF-8"?>
<!DOCTYPE svg PUBLIC "-//W3C//DTD SVG 1.0//EN" "http://www.w3.org/TR/2001/REC-SVG-20010904/DTD/svg10.dtd">
<!-- Creator: CorelDRAW 2021 (64 Bit) -->
<svg xmlns="http://www.w3.org/2000/svg" xml:space="preserve" width="86.6986mm" height="86.6986mm" version="1.0" style="shape-rendering:geometricPrecision; text-rendering:geometricPrecision; image-rendering:optimizeQuality; fill-rule:evenodd; clip-rule:evenodd"
viewBox="0 0 8669.86 8669.86"
 xmlns:xlink="http://www.w3.org/1999/xlink"
 xmlns:xodm="http://www.corel.com/coreldraw/odm/2003">
 <defs>
  <style type="text/css">
   <![CDATA[
    .fil0 {fill:none}
    .fil6 {fill:#0C2438}
    .fil1 {fill:#537E87}
    .fil7 {fill:#E65C25}
    .fil2 {fill:#FEFEFE}
    .fil3 {fill:#6C868B;fill-rule:nonzero}
    .fil5 {fill:#E65C25;fill-rule:nonzero}
    .fil4 {fill:#FEFEFE;fill-rule:nonzero}
   ]]>
  </style>
 </defs>
 <g id="Camada_x0020_1">
  <metadata id="CorelCorpID_0Corel-Layer"/>
  <line class="fil0" x1="6507.87" y1="5556.67" x2="6498.01" y2= "5554.23" />
  <path class="fil1" d="M2818.91 3270.28c28.19,-108.18 99.9,-214.58 232.01,-219.71 125.11,-4.89 222.03,76.75 242.73,187.34 24.64,131.48 -60.11,235.98 -157.24,267.73 -77.46,27.08 -140.88,-12.13 -196.77,12.05 -61.77,26.7 -48.65,53.74 -80.4,125.11l-72.58 -120.68c-226.38,101.35 -418.56,210.27 -511.54,403.28 -100.15,207.87 -134.56,522.39 -44.51,759.58 4.26,-5.18 7.2,-8.07 17.55,-28.24 164.49,-104.24 93.49,-426.84 497.02,-599.52 176.41,-34.2 362.83,71.71 477.02,53.95 157.4,-24.47 256.31,-94.11 315.68,-296.19 89.34,-304.21 35.64,-708.27 -165.94,-842.21 -23.06,-15.32 -48.23,-29.72 -75.02,-42.35 -34.69,22.36 -112.31,48.4 -202.61,48.4 -82.97,0 -155.34,-21.99 -193.55,-42.89 -93.64,55.39 -175.41,150.65 -204.85,255.32 55.94,18.13 89.14,31.71 123,78.99l0 0.04zm314.23 -386.35c-25.38,-2.4 -51.21,-2.52 -77.21,0.08l32.29 10.97c1.99,0.71 4.1,1.04 6.17,1.04 2.07,0 4.18,-0.33 6.17,-1.04l32.58 -11.05 0 0z"/>
  <path class="fil2" d="M2904.82 3313.05c0,74.81 50.63,135.38 113.07,135.38 62.47,0 113.1,-60.61 113.1,-135.38 0,-74.81 -50.63,-135.46 -113.1,-135.46 -62.48,0 -113.07,60.69 -113.07,135.46zm127.72 -49.77c0,17.81 12.05,32.21 26.87,32.21 9.02,0 17,-5.31 21.87,-13.47 3.27,9.58 5.08,20.05 5.08,31.03 0,45.25 -30.64,81.93 -68.43,81.93 -37.81,0 -68.44,-36.68 -68.44,-81.93 0,-45.25 30.64,-81.97 68.44,-81.97 9.13,0 17.84,2.14 25.8,6.03 -6.78,5.85 -11.19,15.39 -11.19,26.17z"/>
  <path class="fil2" d="M2645.73 3365.63c4.31,57.13 38.84,101.14 77.13,98.24 38.3,-2.9 65.87,-51.54 61.56,-108.68 -4.3,-57.13 -38.83,-101.18 -77.12,-98.28 -38.3,2.9 -65.87,51.58 -61.57,108.76l0 -0.04zm68.27 -40.62c0,13.62 9.23,24.68 20.62,24.68 8.01,0 14.95,-5.48 18.36,-13.48 2.1,6.51 3.52,13.6 4.08,21.05 2.6,34.57 -14.08,64.01 -37.26,65.75 -23.19,1.73 -44.05,-24.88 -46.66,-59.45 -2.57,-34.57 14.08,-64.05 37.26,-65.79 6,-0.45 11.84,1.02 17.26,4.02 -7.96,3.42 -13.66,12.52 -13.66,23.22z"/>
  <path class="fil3" d="M1318.6 5404.85l-487.66 0 142.54 -1719.03 487.66 0c-293.78,382.13 -367.68,1333.05 -142.54,1719.03z"/>
  <path class="fil3" d="M2905.65 4239.34c80.69,0 213.04,-26.25 286.66,0.38 73.65,26.62 137.24,67.35 190.77,122.21 53.53,54.86 -62.76,-10.47 -34.82,71 27.95,81.48 37.34,177.11 28.28,286.83 -9.11,109.71 24.3,183.48 -17.22,265.79 -41.53,82.3 -93.57,150.49 -156.13,204.52 -62.55,54.07 -132.93,94.8 -211.01,122.21 -78.13,27.45 -66.66,-10.76 -147.35,-10.76 -82.3,0 -159.8,-13.71 -232.59,-41.16 -72.74,-27.44 -135.96,-68.18 -189.53,-122.21 -53.61,-54.07 113.36,-33.25 85.49,-115.51 -27.86,-82.3 -37.26,-178.31 -28.15,-288.02 9.11,-109.71 34.36,-205.35 75.81,-286.83 41.44,-81.47 -106.73,-31 -44.1,-85.86 62.64,-54.86 132.61,-95.6 209.82,-122.22 77.26,-26.62 101.81,-0.37 184.11,-0.37l-0.04 0zm-55.73 761.4c45.17,0 87.97,-24.59 128.34,-73.82 40.41,-49.22 64.13,-116.58 71.21,-202.11 6.96,-83.92 -5.67,-150.45 -37.92,-199.68 -32.21,-49.23 -70.92,-73.82 -116.13,-73.82 -45.17,0 -88.35,24.59 -129.54,73.82 -41.2,49.22 -65.29,115.8 -72.25,199.68 -7.08,85.53 5.88,152.89 38.92,202.11 33.04,49.23 72.12,73.82 117.33,73.82l0.04 0z"/>
  <path class="fil4" d="M1298.03 4616.79c33.65,-9.86 69.63,-18.06 107.94,-24.63 33.38,-6.57 70.39,-12.32 111.02,-17.24 40.64,-4.92 82.29,-7.39 124.99,-7.39 36.11,0 72.03,2.47 107.74,7.39 35.72,4.92 68.25,13.54 97.6,25.86 29.36,12.31 55.46,29.14 78.31,50.49 22.87,21.34 39.5,48.43 49.91,81.27 1.37,3.28 5.28,15.6 11.72,36.93 6.44,21.35 14.89,48.03 25.37,80.05 10.48,32.01 22.27,68.13 35.36,108.36 13.07,40.23 26.13,80.86 39.14,121.91 31.23,98.51 66.44,208.51 105.63,330.01l-524.57 0 -257.88 -751.15 -61.87 746.22 -487.63 0 142.53 -1719.01 487.63 0 -65.96 795.47 386.12 -795.47 524.57 0 -274.57 578.75 -426.16 238.89 -349.07 81.27 12.13 32.02z"/>
  <path class="fil4" d="M2921.46 4100.33c80.68,0 157.84,13.32 231.47,39.95 73.63,26.61 137.21,67.36 190.75,122.23 53.55,54.86 94.28,123.03 122.22,204.51 27.93,81.49 37.36,177.1 28.26,286.83 -9.1,109.72 -34.41,205.73 -75.92,288.02 -41.52,82.3 -93.56,150.48 -156.13,204.53 -62.58,54.05 -132.92,94.8 -211.03,122.23 -78.11,27.44 -157.51,41.15 -238.2,41.15 -82.29,0 -159.82,-13.71 -232.57,-41.15 -72.76,-27.43 -135.95,-68.18 -189.55,-122.23 -53.61,-54.05 -94.35,-122.23 -122.22,-204.53 -27.87,-82.29 -37.26,-178.3 -28.16,-288.02 9.1,-109.73 34.38,-205.34 75.82,-286.83 41.45,-81.48 93.5,-149.65 156.13,-204.51 62.64,-54.87 132.58,-95.62 209.82,-122.23 77.24,-26.63 157.01,-39.95 239.31,-39.95zm-76.87 927.02c45.19,0 87.97,-24.6 128.35,-73.82 40.39,-49.22 64.13,-116.59 71.22,-202.1 6.96,-83.91 -5.68,-150.48 -37.9,-199.69 -32.23,-49.22 -70.93,-73.82 -116.11,-73.82 -45.19,0 -88.37,24.6 -129.56,73.82 -41.19,49.21 -65.27,115.78 -72.22,199.69 -7.1,85.51 5.88,152.88 38.91,202.1 33.03,49.22 72.13,73.82 117.31,73.82z"/>
  <path class="fil3" d="M4412.09 4192.69c69.39,0 123.45,9.68 162.16,29.06 38.75,19.38 67.65,45.17 86.78,77.46 19.13,32.25 30.18,68.97 33.24,110.13 3.07,41.15 48.11,-25.51 44.51,18.09l-358.57 101.39c1.32,-16.15 0.37,-38.75 -2.86,-67.78 -3.23,-29.06 -14.4,-54.85 -33.53,-77.46 -19.09,-22.6 -135.55,58.34 -177.49,58.34 -20.99,0 -40.49,6.46 -58.5,19.37 -18.01,12.92 -31.92,29.85 -41.73,50.84l-71.83 866.52 -479.25 0 106.98 -1290.09 479.25 0 -15.07 181.54 -136.21 329.18 36.39 99.86c53.45,-199.72 229.03,-392.11 237.31,-303.34 3.31,35.52 -5.46,-16.23 18.84,-46.87 24.3,-30.63 2.48,-4.97 32.75,-29.19 30.26,-24.21 -11.6,-88.68 23.55,-104 35.15,-15.31 72.91,-22.97 113.23,-22.97l0.05 -0.08z"/>
  <path class="fil3" d="M6010.36 4160.93l-103.34 1246.12 -479.25 0 13.82 -137.58 133.81 -329.17 -73.53 -127.39c-30.63,96.83 -46.57,230.8 -102.05,300.9 -92.86,117.32 -100.31,177.03 -311.33,236.89 -83.63,23.72 -231.26,-18.96 -271.38,-86.69 -19.09,-32.25 -28.53,18.83 -31.59,-22.32 -3.02,-41.15 -2.77,-83.5 0.87,-127.05l79.08 -953.67 375.21 2.07 -70.42 849.58c-1.99,24.22 109.58,42.69 126.77,59.66 17.13,16.94 37.84,25.42 62.01,25.42 22.61,0 42.48,-6.46 59.7,-19.37 17.22,-12.92 30.64,-29.07 40.33,-48.4l72.03 -868.95 479.26 0 0 -0.05z"/>
  <path class="fil4" d="M4479.24 4114.85c69.4,0 123.45,9.69 162.19,29.05 38.73,19.37 67.65,45.19 86.76,77.46 19.11,32.27 30.18,68.98 33.22,110.13 3.05,41.14 2.76,83.5 -0.85,127.06l-444.46 193.64c1.34,-16.14 0.38,-38.73 -2.86,-67.77 -3.24,-29.05 -14.41,-54.86 -33.52,-77.45 -19.1,-22.59 -49.63,-33.89 -91.58,-33.89 -20.98,0 -40.47,6.45 -58.48,19.37 -18.02,12.9 -31.93,29.84 -41.74,50.82l-71.84 866.51 -479.25 0 106.97 -1290.08 479.24 0 -15.05 181.53 -136.21 329.17 35.91 4.85c30.62,-96.82 68.49,-183.95 113.64,-261.41 18.82,-32.27 40.39,-63.74 64.72,-94.39 24.31,-30.67 51.6,-58.09 81.85,-82.3 30.24,-24.21 62.94,-43.97 98.1,-59.3 35.15,-15.32 72.9,-23 113.24,-23z"/>
  <path class="fil4" d="M5989.04 4119.7l-106.96 1290.08 -479.24 0 17.47 -181.53 133.79 -329.18 -35.9 -4.84c-30.62,96.82 -67.69,183.96 -111.24,261.4 -24.58,43.57 -54.29,85.53 -89.09,125.87 -34.81,40.34 -74.63,73.01 -119.47,98.02 -44.84,25.02 -94.68,37.52 -149.55,37.52 -69.38,0 -123.85,-9.68 -163.38,-29.05 -39.54,-19.36 -68.87,-45.17 -87.97,-77.45 -19.11,-32.27 -30.19,-68.98 -33.24,-110.12 -3.03,-41.15 -2.75,-83.52 0.86,-127.08l79.07 -953.64 479.24 0 -70.44 849.56c-2.01,24.21 5.56,44.78 22.71,61.73 17.17,16.94 37.84,25.41 62.05,25.41 22.58,0 42.48,-6.46 59.69,-19.36 17.21,-12.92 30.64,-29.05 40.32,-48.42l72.05 -868.92 479.23 0z"/>
  <path class="fil3" d="M6752.96 4217.03c44.63,-12.92 93.19,-24.22 145.61,-33.91 44.21,-8.07 94.89,-15.73 151.98,-22.97 57.09,-7.25 116.29,-10.89 177.6,-10.89 77.47,0 154.64,8.07 231.56,24.21 76.92,16.15 144.65,46 203.15,89.55 58.5,43.56 104.37,103.26 137.62,179.1 33.24,75.85 44.92,173.47 35.02,292.87l-58.79 709.19 -481.65 0 17.26 -179.1 150.24 -369.99 -83 -35.11c-8.66,162.54 -148.47,294.32 -228.25,264.63 -44.09,-16.43 -13.62,66 -71.62,150.74 -30.02,43.84 -22.77,-91.78 -67.57,-66.78 -44.83,25.01 -60.23,-101.22 -115.09,-101.22 -54.86,0 -23.43,194.13 -62.68,171.56 -39.29,-22.6 -71.09,-52.45 -95.43,-89.55 -24.34,-37.09 -75.47,59.25 -84.41,11.64 -8.94,-47.61 -11.39,-96.43 -7.21,-146.44 5.76,-69.39 21.78,-131.11 48.03,-185.14 26.25,-54.07 59.53,-100.07 99.77,-137.99 40.24,-37.92 87.03,-66.57 140.27,-85.9 53.24,-19.38 108.92,-29.07 167.01,-29.07 46.78,0 86.73,4.85 119.81,14.53 33.08,9.69 59.66,20.16 79.7,31.47 24.63,14.53 44.25,30.63 58.91,48.39 2.15,-25.83 -3.6,-48.81 -17.26,-68.97 -13.67,-20.16 -33.21,-37.51 -58.63,-52.04 -25.42,-14.53 -55.19,-25.42 -89.26,-32.67 -34.07,-7.24 -70.5,-10.88 -109.21,-10.88 -56.47,0 -114.89,8.86 -175.29,26.62 -60.36,17.76 -115.51,45.16 -165.36,82.3l7.29 -438.1 -0.12 -0.08zm491.3 876.2c22.6,0 40.03,-6.05 52.33,-18.13 12.3,-12.09 23.43,-29.44 33.37,-52.04 6.04,-14.54 12.83,-33.08 20.33,-55.69 7.53,-22.6 12.58,-44.79 15.19,-66.57 2.61,-21.78 1.37,-40.74 -3.77,-56.88 -5.13,-16.15 -40.41,-100.57 -58.16,-100.57 -17.77,0 -37.18,5.63 -58.3,16.94 -21.11,11.3 -40.44,25.83 -58.08,43.55 -17.59,17.76 -141.22,105.94 -153.35,126.11 -12.17,20.16 -18.96,39.12 -20.45,56.88 -2.28,27.45 138.03,57.92 155.79,77.3 17.76,19.37 42.77,29.06 75.06,29.06l0.04 0.04z"/>
  <path class="fil5" d="M6372.16 4054.32c-35.48,0 -68.4,-6.87 -98.74,-20.57 -30.31,-13.71 -56.22,-32.3 -77.67,-55.69 -21.45,-23.39 -37.72,-51.25 -48.73,-83.5 -11.05,-32.3 -15.07,-66.16 -12.13,-101.68 2.94,-35.48 12.59,-68.97 28.9,-100.44 16.31,-31.46 37.14,-58.91 62.47,-82.3 25.34,-23.39 54.32,-41.94 86.9,-55.69 32.63,-13.7 66.66,-20.57 102.14,-20.57 37.13,0 70.83,6.87 101.18,20.57 30.35,13.71 56.22,32.3 77.67,55.69 21.44,23.39 37.76,50.84 48.85,82.3 11.1,31.47 15.19,64.96 12.26,100.44 -2.94,35.52 -12.63,69.39 -29.03,101.68 -16.39,32.29 -37.26,60.11 -62.59,83.5 -25.34,23.39 -54.32,41.94 -86.9,55.69 -32.63,13.7 -67.44,20.57 -104.58,20.57l0 0zm-245.05 65.34l479.25 0 -104.58 1261.06c-10.72,129.08 -38.13,235.98 -82.26,320.72 -44.14,84.71 -98.58,152.48 -163.29,203.32 -64.71,50.84 -135.87,86.74 -213.46,107.73 -77.58,20.99 -155.08,31.46 -232.54,31.46 -53.25,0 -104.54,-4.01 -153.89,-12.09 -49.35,-8.07 -94.85,-18.96 -136.46,-32.66 -41.61,-13.71 -78.66,-29.07 -111.16,-46 -32.5,-16.93 -57.59,-35.11 -75.35,-54.44l67.78 -438.1c46.53,41.94 100.85,73.03 162.91,93.19 62.06,20.16 122.96,30.26 182.66,30.26 72.61,0 135.13,-14.53 187.58,-43.55 52.42,-29.06 81.19,-74.23 86.28,-135.54l106.57 -1285.24 -0.04 -0.12z"/>
  <path class="fil4" d="M6739 4182.63c44.64,-12.9 93.18,-24.21 145.62,-33.88 44.23,-8.08 94.89,-15.74 151.97,-23 57.08,-7.26 116.28,-10.9 177.59,-10.9 77.45,0 154.65,8.08 231.57,24.21 76.91,16.13 144.64,45.99 203.14,89.55 58.52,43.57 104.39,103.28 137.64,179.12 33.24,75.84 44.92,173.46 35.02,292.87l-58.8 709.18 -481.67 0 17.28 -179.12 136.21 -329.17 -35.91 -4.84c-30.62,96.82 -68.43,183.14 -113.45,258.98 -24.59,43.57 -54.28,85.53 -89.09,125.87 -34.82,40.34 -74.64,73.01 -119.47,98.02 -44.83,25.02 -94.68,37.52 -149.55,37.52 -54.86,0 -101.93,-11.3 -141.2,-33.89 -39.28,-22.58 -71.08,-52.44 -95.44,-89.55 -24.36,-37.12 -41.01,-79.47 -49.98,-127.08 -8.96,-47.59 -11.37,-96.41 -7.22,-146.42 5.75,-69.4 21.76,-131.11 48.03,-185.17 26.27,-54.05 59.53,-100.04 99.79,-137.96 40.25,-37.92 86.99,-66.57 140.24,-85.93 53.24,-19.36 108.91,-29.04 167,-29.04 46.8,0 86.73,4.84 119.82,14.52 33.08,9.68 59.63,20.17 79.68,31.46 24.61,14.53 44.25,30.67 58.92,48.42 2.14,-25.83 -3.62,-48.82 -17.28,-68.99 -13.65,-20.17 -33.19,-37.52 -58.62,-52.04 -25.42,-14.52 -55.17,-25.41 -89.26,-32.68 -34.09,-7.25 -70.5,-10.89 -109.23,-10.89 -56.47,0 -114.89,8.88 -175.26,26.63 -60.37,17.75 -115.5,45.18 -165.36,82.3l7.27 -438.1zm491.31 876.19c22.59,0 40.03,-6.06 52.34,-18.15 12.29,-12.1 23.42,-29.45 33.35,-52.05 6.05,-14.52 12.83,-33.07 20.36,-55.66 7.52,-22.6 12.58,-44.78 15.19,-66.57 2.61,-21.78 1.37,-40.74 -3.75,-56.87 -5.11,-16.14 -16.55,-24.21 -34.3,-24.21 -17.75,0 -37.17,5.65 -58.28,16.94 -21.11,11.31 -40.47,25.83 -58.08,43.57 -17.6,17.75 -32.49,36.71 -44.65,56.88 -12.16,20.17 -18.98,39.13 -20.45,56.88 -2.27,27.43 5.47,50.83 23.23,70.19 17.76,19.37 42.77,29.05 75.04,29.05z"/>
  <path class="fil6" d="M3448.9 4002.78l85.83 24.35c12.91,-26.92 23.88,-57.72 33.12,-92.95 42.35,-301.48 0.33,-570.21 -174.13,-708.16 113.27,155.67 164.11,395.88 128.71,597.12 -13.87,78.92 -38.09,137 -73.48,179.64l-0.05 0z"/>
  <path class="fil7" d="M2292.63 4514.41c0.33,-0.62 0.7,-1.24 1.03,-1.86 69.06,-122.96 212.06,-330.01 436.03,-383.54 173.22,-43.06 337.79,51.88 448.99,39.5 154.34,-17.14 266,-80.65 323.92,-257.97 81.36,-248.98 25.46,-576.05 -139.97,-714.03 103.08,155.66 134.67,399.8 86.07,601.05 -43.59,180.63 -134.01,252.04 -286.57,279.12 -109.92,19.5 -281.65,-64.54 -451.02,-10.39 -308.1,142.87 -347.27,318.49 -420.8,445.26 -0.49,0.87 -3.39,5.46 -0.74,3.73 0.91,-0.62 3.02,-0.91 3.02,-0.91l0.04 0.04z"/>
  <polygon class="fil7" points="2871.24,3469.58 2846.73,3529.66 2812.58,3474.47 2838.66,3432.78 "/>
  <path class="fil1" d="M3432.47 2810.82l0 -68.81 -19.29 6.54 0 62.31 -9.49 0 0 12.67c-2.31,3.56 -3.64,7.78 -3.64,12.34l0 73.69c0,12.59 10.19,22.77 22.77,22.77 12.59,0 22.77,-10.18 22.77,-22.77l0 -73.69c0,-4.56 -1.36,-8.82 -3.68,-12.38l0 -12.63 -9.48 0 0.04 -0.04z"/>
  <path class="fil1" d="M3316.55 2807.84l-215.99 73.24c-1.99,0.7 -4.06,1.03 -6.17,1.03 -2.07,0 -4.18,-0.33 -6.17,-1.03l-215.95 -73.24 0 84.99 0.25 0 -0.5 2.49c0,21.53 99.57,69.63 222.28,69.63 122.67,0 221.99,-48.1 221.99,-69.63l-0.49 -2.49 0.74 0 0 -84.99 0.01 0z"/>
  <polygon class="fil1" points="2872.28,2785.94 3094.39,2861.28 3316.55,2785.94 3413.18,2753.15 3432.47,2746.65 3442.61,2743.17 3094.39,2625.92 2746.21,2743.17 "/>
 </g>
</svg>
