<?xml version="1.0" encoding="UTF-8"?>
<!DOCTYPE svg PUBLIC "-//W3C//DTD SVG 1.1//EN" "http://www.w3.org/Graphics/SVG/1.1/DTD/svg11.dtd">
<!-- Creator: CorelDRAW 2021 (64 Bit) -->
<svg xmlns="http://www.w3.org/2000/svg" xml:space="preserve" width="297mm" height="210mm" version="1.1" style="shape-rendering:geometricPrecision; text-rendering:geometricPrecision; image-rendering:optimizeQuality; fill-rule:evenodd; clip-rule:evenodd"
viewBox="0 0 29700 21000"
 xmlns:xlink="http://www.w3.org/1999/xlink"
 xmlns:xodm="http://www.corel.com/coreldraw/odm/2003">
 <defs>
  <style type="text/css">
   <![CDATA[
    .fil0 {fill:none}
    .fil5 {fill:#333333}
    .fil7 {fill:#666666}
    .fil6 {fill:gray}
    .fil4 {fill:#B3B3B3}
    .fil1 {fill:#CCCCCC}
    .fil3 {fill:#FDFDFD}
    .fil2 {fill:white}
    .fil8 {fill:#666666;fill-rule:nonzero}
   ]]>
  </style>
 </defs>
 <g id="Camada_x0020_1">
  <metadata id="CorelCorpID_0Corel-Layer"/>
  <rect class="fil0" x="-0.53" y="7.13" width="29700" height="21000"/>
  <path class="fil1" d="M13482.67 12558.07c-81.97,59.52 -635.03,374.36 -713.82,409.92l-7.02 42.44c118.4,311.5 152.09,512.53 170.01,886.21 -164.68,62.03 -196.75,103.17 -303.8,196.86 -130.25,-41.83 -502.87,-238.7 -576.26,-299.56 -455.29,610.35 -350.75,2072.82 -1222.27,3548.83 -574.53,973.04 -1348.08,1833.35 -2896.55,1919.95 250.91,88.33 6034.3,670.48 6451.86,714.72 1311.6,139.01 1892.45,308.26 2839.15,-426.99 292.72,-227.35 604.57,-603.33 818.31,-991.43 359.37,-652.48 342.1,-1035.59 492.81,-1322.64l347.1 9.42 -352.99 -53.94 96.45 -434.84 48.24 -677.78c50.59,-742.37 216.62,-1543.75 526.72,-2123.08 316.93,-592.11 713.1,-992.04 1301.3,-1292.44 -362.85,-62.61 -2970.37,-123.24 -3577.26,-148.12 -591.19,-24.23 -1180.76,-42.73 -1771.29,-65.71 -296.65,-11.54 -589.91,-17.49 -885.17,-31.08 -470,-21.62 -415,57.28 -785.52,139.26z"/>
  <path class="fil2" d="M15594.95 11308.04c412.52,-195.35 669.95,424.83 273.51,610.4 -431.99,202.22 -670.4,-422.42 -273.51,-610.4zm-1169.6 -39.93c396.82,-207.66 680.08,418.04 301.22,598.33 -413.74,196.87 -713.13,-382.76 -301.22,-598.33zm-942.68 1289.96c370.52,-81.98 315.52,-160.88 785.52,-139.26 295.26,13.59 588.52,19.54 885.17,31.08 590.53,22.98 1180.1,41.48 1771.29,65.71 606.89,24.88 3214.41,85.51 3577.26,148.12 -588.2,300.4 -984.37,700.33 -1301.3,1292.44 -310.1,579.33 -476.13,1380.71 -526.72,2123.08 794.11,-129.09 1852.62,382.06 1976.55,-267 70.25,-367.82 686.84,-10283.1 767.03,-11476.69 175.62,-2614.02 464.33,-2672.72 -708.33,-2684.92 -415.99,-4.32 -832.1,-10.36 -1248.06,-13.78 -114.78,71.9 -70.67,29.07 -122.44,183.68 -211.76,632.35 -48.25,521.53 -1549.58,499.44 -380.94,-5.6 -768.56,-3.46 -1148.58,-14.81 -674.54,-20.14 -367.93,-439.17 -538.4,-662.08 -60.5,-65.36 -30.57,-48.39 -343.68,-48.32 -275.38,0.08 -1103.08,-39.92 -1251.41,22.69 -359.65,151.79 -283,972.3 -313.05,1380.04 -78.08,1059.76 -157.54,2120.15 -236.41,3178.75 -158.67,2129.62 -321.19,4250.73 -474.86,6381.83z"/>
  <path class="fil3" d="M18882.19 17245.8l-347.1 -9.42c-150.71,287.05 -133.44,670.16 -492.81,1322.64 -213.74,388.1 -525.59,764.08 -818.31,991.43 -946.7,735.25 -1527.55,566 -2839.15,426.99 -417.56,-44.24 -6200.95,-626.39 -6451.86,-714.72 1548.47,-86.6 2322.02,-946.91 2896.55,-1919.95 871.52,-1476.01 766.98,-2938.48 1222.27,-3548.83l-3737.35 -6778.68c-205.59,-239.64 -833.05,-1189.35 -213.69,-1458.52 570.3,-247.84 751.12,497.74 1095.63,1036.1 274.6,550.53 601.39,1073.85 890.18,1622.12 286.88,544.67 585.38,1084.61 890.73,1605.26 615.83,1050.03 1188.43,2149.75 1784.55,3190.21l7.02 -42.44c296.81,-3342.67 495.54,-6724.46 751.22,-10071.51 71,-929.5 11.58,-1682.53 811.29,-1939.94 352.38,-113.44 5627.09,7.94 6619.57,16.55 514.64,4.46 697.06,56.87 1008.72,320.66 759.12,507.59 796.08,1091.14 745.66,1833.79 -55.11,811.75 -106.88,1622.78 -162.23,2434.8 -109.47,1606.17 -212.14,3219.29 -321.12,4828.86 -109.24,1613.46 -213.17,3237.12 -322.15,4849.49 -60.96,902.1 33.52,1579.96 -625.24,1959.5 -492.38,283.7 -1741.88,0.04 -2392.38,45.61zm-6466.64 -5844.46c-87.63,-64.19 -813.02,-1401.9 -952.85,-1664.04l-931.61 -1685.32c-459.23,-755.85 -983.15,-1851.43 -1407.88,-2537.61 -337.28,-544.86 -1065.97,-631.49 -1501.32,-195.02 -581.07,582.56 -139.14,1184.16 150.92,1706.45l2763.9 4966.07c164.81,308.97 1004.43,1674.15 966.27,1838.19 -13.57,58.33 -123.89,266.14 -191.33,533.64 -100.58,398.89 -153.63,792.41 -256.07,1153.05 -100.08,352.36 -194.69,716.95 -357.11,1052 -451.6,931.54 -963.77,1789.7 -2101.74,2125.57 -688.75,203.28 -423.69,-76.1 -1702.59,431.19 -276.63,109.73 -396.82,94.38 -396.82,327.86 0,236.64 632.2,203.79 1029.36,258.96 406.69,56.5 829.36,86.37 1196.36,132.23l2365.34 251.57c791.87,53.02 1564.43,179.62 2370.45,246.44 674.32,55.91 1772.67,238.09 2378.84,238.09 766.45,0 1512.73,-490 2003.02,-976.23 382.8,-379.61 657.86,-858.13 855.96,-1358.35 67.96,-171.62 124.82,-405.83 200.78,-564.16l1892.16 121.79c1038.98,-55.43 1532.39,-837.44 1529.52,-1893.67 -0.7,-254.98 40.98,-334.94 40.25,-603.9l159.33 -2216.03c21.4,-267.34 2.81,-587.59 48.32,-998.45 19.02,-171.77 18.33,-440.69 45.37,-639.05 23.5,-172.52 15.45,-434.22 46.23,-638.18l133.05 -1879.96c65.68,-482.06 67.78,-1125.04 91.46,-1599.48 8.74,-175.31 31.66,-146.61 40.41,-321.92l161.39 -2536.03c-3.84,-1413.94 498.95,-2265.5 -553.79,-3312.05 -655.49,-651.63 -1106.99,-674.15 -2023.29,-674.15l-2731.81 -5.87c-801.55,-89.99 -1792.59,-34.39 -2663.05,-34.39 -738.69,0 -1483.5,31.85 -1847.74,889.95 -205.04,483.06 -349.38,3042.38 -366.19,3700.09l-483.5 6360.72z"/>
  <path class="fil4" d="M12768.85 12967.99c78.79,-35.56 631.85,-350.4 713.82,-409.92 153.67,-2131.1 316.19,-4252.21 474.86,-6381.83 78.87,-1058.6 158.33,-2118.99 236.41,-3178.75 30.05,-407.74 -46.6,-1228.25 313.05,-1380.04 148.33,-62.61 976.03,-22.61 1251.41,-22.69 313.11,-0.07 283.18,-17.04 343.68,48.32 170.47,222.91 -136.14,641.94 538.4,662.08 380.02,11.35 767.64,9.21 1148.58,14.81 1501.33,22.09 1337.82,132.91 1549.58,-499.44 51.77,-154.61 7.66,-111.78 122.44,-183.68 415.96,3.42 832.07,9.46 1248.06,13.78 1172.66,12.2 883.95,70.9 708.33,2684.92 -80.19,1193.59 -696.78,11108.87 -767.03,11476.69 -123.93,649.06 -1182.44,137.91 -1976.55,267l-48.24 677.78c659.92,-101.77 1579.01,253.75 2172.59,-72.62 619.3,-340.51 547.64,-1016.37 602.77,-1859.78l836.44 -12562.15c36.51,-569.42 -69.56,-618.69 -277.8,-968.72 -311.66,-263.79 -494.08,-316.2 -1008.72,-320.66 -992.48,-8.61 -6267.19,-129.99 -6619.57,-16.55 -799.71,257.41 -740.29,1010.44 -811.29,1939.94 -255.68,3347.05 -454.41,6728.84 -751.22,10071.51z"/>
  <path class="fil5" d="M18625.65 16757.02l-96.45 434.84 352.99 53.94c650.5,-45.57 1900,238.09 2392.38,-45.61 658.76,-379.54 564.28,-1057.4 625.24,-1959.5 108.98,-1612.37 212.91,-3236.03 322.15,-4849.49 108.98,-1609.57 211.65,-3222.69 321.12,-4828.86 55.35,-812.02 107.12,-1623.05 162.23,-2434.8 50.42,-742.65 13.46,-1326.2 -745.66,-1833.79 208.24,350.03 314.31,399.3 277.8,968.72l-836.44 12562.15c-55.13,843.41 16.53,1519.27 -602.77,1859.78 -593.58,326.37 -1512.67,-29.15 -2172.59,72.62z"/>
  <path class="fil4" d="M8314.43 7015.26l3737.35 6778.68c73.39,60.86 446.01,257.73 576.26,299.56 107.05,-93.69 139.12,-134.83 303.8,-196.86 -17.92,-373.68 -51.61,-574.71 -170.01,-886.21 -596.12,-1040.46 -1168.72,-2140.18 -1784.55,-3190.21 -305.35,-520.65 -603.85,-1060.59 -890.73,-1605.26 -288.79,-548.27 -615.58,-1071.59 -890.18,-1622.12 -427.73,113.1 -571.54,264.44 -881.94,422.42z"/>
  <path class="fil6" d="M8314.43 7015.26c310.4,-157.98 454.21,-309.32 881.94,-422.42 -344.51,-538.36 -525.33,-1283.94 -1095.63,-1036.1 -619.36,269.17 8.1,1218.88 213.69,1458.52z"/>
  <path class="fil3" d="M15013.8 5322.06c451.33,270.07 278.89,160.48 543.85,572.62 122.38,-342.31 209.27,-441.23 538.71,-551.95 -243.02,-221.18 -275.15,-24.2 -540.52,-580.65 -5.91,7.21 -13.41,10.44 -15.46,23.31 -2.94,18.53 -24.6,39.43 -29.46,48.53 -78.03,146.03 -99.62,251.02 -305.67,377.5l-163.99 92.58c-6.42,3.94 -18.76,11.41 -27.46,18.06z"/>
  <path class="fil3" d="M18761.18 7299.3c493.49,150.97 441.12,335.17 579.11,549.31 197.53,-346.75 155.84,-419.79 577.33,-551.05 -340.07,-226.63 -197.71,42.95 -577.33,-546.24l-95.59 167.62c-72.62,125.23 -151.87,206.12 -284.45,276.64l-199.07 103.72z"/>
  <path class="fil3" d="M15594.95 11308.04c-396.89,187.98 -158.48,812.62 273.51,610.4 396.44,-185.57 139.01,-805.75 -273.51,-610.4z"/>
  <path class="fil7" d="M17558.04 18153.61c-5.73,-219.55 -110.93,-153.64 -640.49,-185.54l-2501.05 -146.49c-537.17,-32.34 -1073.66,-61.84 -1611.06,-94.37 -242.12,-14.65 -1547.36,-148.19 -1619.66,-25.3 -110.79,188.34 469.96,161.25 611.89,169.27 283.15,16.01 562.37,33.14 846.6,49.31 740.44,42.12 4750.22,340.3 4913.77,233.12z"/>
  <path class="fil7" d="M11987.1 15974.9c43.61,209.53 183.64,144.93 695.65,172.55l5209.14 303.2c207.46,11.58 242.26,47.99 298.76,-112.63 -133.96,-153.15 -1220.96,-148.89 -1475.57,-163.72l-4517.24 -261.26c-182.63,5.93 -92,-28.73 -210.74,61.86z"/>
  <path class="fil7" d="M12520.88 14401.37c12.34,150.84 5.95,143.16 199.59,158.84l2666.02 140.38c447.81,25.02 2721.06,212.21 2939.6,114.05 -19.17,-158.15 -28.54,-156.98 -196.67,-174.72l-2627.96 -137.13c-438.66,-23.7 -2770.82,-243.53 -2980.58,-101.42z"/>
  <path class="fil7" d="M13522.73 12989.26c41.34,187.35 80.03,140.3 491.61,160.07 216.57,10.39 427.61,21.87 643.41,34.93 636.96,38.57 3671.43,251.06 3869.38,175.65 -11.67,-209.76 -21.8,-169.89 -467.67,-191.64l-3240.97 -177.95c-286.84,-15.72 -1117.07,-140.21 -1295.76,-1.06z"/>
  <g id="_2491301286640">
   <g id="_2188938233152">
    <g>
     <path class="fil8" d="M15465.34 8030.65l91.75 -2969.87 -386.12 0 -842.32 2969.87 324.77 0c41.87,-155.16 79.03,-303.12 128.14,-458.3l364.45 0 -16.27 458.3 335.6 0zm-604.2 -765.02c124.82,-436.64 244.62,-887.7 358.89,-1349.61 -27.67,461.91 -47.84,898.55 -62.98,1349.61l-295.91 0z"/>
     <polygon class="fil8" points="16064.21,8030.65 16468.87,5396.38 16779.21,5396.38 16830.76,5060.79 15878.1,5060.79 15826.55,5396.38 16136.88,5396.38 15732.22,8030.65 "/>
     <polygon class="fil8" points="16999.47,8030.65 17404.13,5396.38 17714.47,5396.38 17766.02,5060.79 16813.36,5060.79 16761.81,5396.38 17072.14,5396.38 16667.48,8030.65 "/>
     <polygon class="fil8" points="18320.07,8030.65 18371.07,7698.66 17883.92,7698.66 18289.13,5060.79 17957.14,5060.79 17500.93,8030.65 "/>
     <path class="fil8" d="M19525.33 8030.65l91.76 -2969.87 -386.12 0 -842.32 2969.87 324.77 0c41.87,-155.16 79.03,-303.12 128.13,-458.3l364.46 0 -16.27 458.3 335.59 0zm-604.2 -765.02c124.83,-436.64 244.64,-887.7 358.9,-1349.61 -27.66,461.91 -47.83,898.55 -62.98,1349.61l-295.92 0z"/>
     <path class="fil8" d="M20295.83 7572.35c-16.08,104.66 -74.91,158.79 -168.74,158.79 -101.05,0 -134.91,-61.36 -119.95,-158.79l97.01 -631.5 -321.17 0 -97.01 631.5c-48.78,317.56 65.35,490.78 397.34,490.78 331.99,0 495.71,-173.22 544.49,-490.78l65.41 -425.8c35.48,-230.95 19.09,-335.59 -53.67,-472.73 -86.91,-162.39 -283.22,-411.38 -339.88,-512.42 -37.5,-61.34 -39.45,-119.07 -26.7,-202.07l67.63 -440.25c16.07,-104.64 70.75,-155.17 164.57,-155.17 101.04,0 131.31,61.35 116.35,158.78l-82.6 537.68 310.33 0 83.15 -541.29c50.45,-328.38 -50.9,-490.76 -375.67,-490.76 -321.17,0 -504.34,158.78 -555.34,490.76l-68.18 443.85c-26.61,173.22 -19.93,270.65 32.57,375.3 66.1,133.52 258.23,386.11 336.26,512.4 66.93,104.67 79.16,166.01 58.65,299.53l-64.85 422.19z"/>
    </g>
    <polygon class="fil7" points="14291.94,8258.83 20512.94,8258.83 20522.94,8193.77 14301.93,8193.77 "/>
    <g>
     <path class="fil7" d="M14471.39 8742.25c-3.07,2.09 -6.21,4.06 -9.45,5.93 -12.87,7.4 -26.49,12.84 -40.4,16.53 -14.65,3.88 -29.37,5.63 -43.92,5.63 -23.08,0 -44.78,-4.51 -64.37,-14.07 -18.74,-9.16 -34.62,-21.8 -47.21,-37.99 -12.68,-16.32 -21.41,-35.19 -26.47,-55.91 -5.35,-21.87 -5.86,-44.83 -2.25,-68.35 3.61,-23.49 11.19,-46.41 23.07,-68.3 11.34,-20.86 25.8,-39.86 43.47,-56.34 17.57,-16.39 37.48,-29.2 59.16,-38.42 22.64,-9.61 45.87,-14.05 69.09,-14.05 14.91,0 29.43,1.86 43.14,5.98 12.98,3.87 25.03,9.53 35.77,17.17 2.42,1.73 4.75,3.54 6.99,5.45 1.99,-4.16 4.6,-7.97 7.92,-11.23 7.45,-7.79 17.6,-11.26 27.74,-11.26l8.63 0c9.01,0 16.96,2.93 22.7,9.02 6.35,6.75 8.31,16.07 6.8,25.94l-41.83 272.28c-1.49,9.71 -6.64,18.67 -15,25.05 -7.57,5.76 -16.24,8.41 -25.01,8.41l-9.53 0c-15.72,0 -26.33,-8.34 -29.04,-21.47zm695.25 -234.02c-2.77,-3.33 -6.04,-6.24 -9.78,-8.74 -7.05,-4.71 -15.23,-6.65 -24.28,-6.65 -5.6,0 -11.39,0.67 -16.99,2.45 -4.26,1.35 -8.43,3.27 -12.13,6.04 -3.1,2.33 -5.56,5.07 -7.61,8.31 -2.13,3.38 -3.27,6.93 -3.85,10.65 -0.36,2.39 -0.25,4.44 0.78,6.42 1.69,3.26 3.94,5.97 6.83,8.21 3.83,2.99 8.13,5.41 12.7,7.31 5.13,2.12 10.39,4.04 15.82,5.56l8.68 2.39c14.47,4.01 28.4,9.4 41.34,16.33 11.73,6.3 22.5,14.07 31.51,23.66 8.58,9.13 15.18,19.87 19.15,32.11 4.04,12.44 4.89,25.76 2.77,39.56 -2.53,16.42 -8.34,32.34 -18.24,46.93 -9.21,13.58 -20.68,25.13 -34.32,34.39 -13.53,9.2 -28.21,15.72 -43.43,20.02 -15.64,4.43 -31.45,6.56 -47.06,6.56 -12.96,0 -25.63,-1.44 -37.72,-4.62 -11.79,-3.09 -22.83,-7.73 -32.82,-14.08 -10.08,-6.4 -18.66,-14.58 -25.41,-24.35 -6.84,-9.9 -11.3,-21.24 -13.47,-33.53 -0.87,-3.72 -1.08,-7.64 -0.47,-11.66 1.01,-6.58 4.24,-12.74 8.78,-18.12 4.52,-5.39 10.13,-9.48 16.48,-12.16l13.31 -5.56 1.08 -0.35c3.98,-1.28 8.03,-2.08 12.04,-2.08 7.31,0 13.89,2.47 18.72,7.23 3.05,3.03 5.38,6.69 7.17,11.14l1.27 3.58c1.37,4.17 3.54,7.66 6.31,10.7 3.25,3.6 7,6.72 11.22,9.22 4.12,2.44 8.56,4.33 13.32,5.62 3.7,1.01 7.83,1.86 11.85,1.86 5.87,0 12.04,-1.03 17.94,-2.5 6.05,-1.48 11.95,-3.78 17.54,-6.93 4.69,-2.66 8.84,-5.92 12.37,-10.07 2.7,-3.19 3.95,-7.13 4.54,-10.95 0.55,-3.58 0.32,-6.69 -1.3,-9.6 -2.49,-4.49 -5.94,-8.12 -10.04,-11.14 -5.39,-3.95 -11.53,-7 -17.9,-9.46 -7.23,-2.78 -14.67,-5.19 -22.79,-7.21 -11.92,-3.58 -22.8,-8.13 -33.16,-13.56 -10.79,-5.66 -20.64,-12.68 -29.22,-21.09 -8.61,-8.44 -15.5,-18.4 -20.19,-29.71 -5.12,-12.34 -6.52,-25.89 -4.34,-40.07 2.25,-14.66 7.09,-29.02 15.05,-42.49 7.61,-12.86 17.38,-24.18 29.21,-33.63 12.14,-9.71 25.72,-16.61 40.03,-21.32 15.29,-5.01 30.86,-7.15 46.2,-7.15 22.79,0 44.11,4.83 62.62,15.61 19.35,11.26 32.67,28.55 41.28,49.15l0.53 1.28 0.35 1.35c1.19,4.67 1.73,9.55 0.95,14.62 -0.81,5.25 -2.96,10.36 -6.11,14.99 -3.53,5.16 -8.23,9.33 -13.79,12.46l-11.29 6.19c-6.11,3.59 -13.03,6.14 -20.11,6.14 -8.6,0 -16.17,-3.36 -20.9,-10.46 -1.42,-2.36 -2.57,-4.31 -3.44,-5.96l-7.58 -12.84zm654.86 0c-2.76,-3.33 -6.05,-6.24 -9.79,-8.74 -7.03,-4.71 -15.21,-6.65 -24.26,-6.65 -5.62,0 -11.39,0.67 -17,2.45 -4.26,1.35 -8.42,3.27 -12.12,6.04 -3.11,2.33 -5.57,5.07 -7.62,8.31 -2.13,3.38 -3.28,6.93 -3.85,10.65 -0.37,2.39 -0.25,4.44 0.78,6.42 1.68,3.26 3.95,5.97 6.84,8.21 3.81,2.99 8.11,5.41 12.7,7.31 5.12,2.12 10.39,4.04 15.82,5.56l8.67 2.39c14.47,4.01 28.41,9.4 41.34,16.33 11.74,6.3 22.51,14.07 31.5,23.66 8.59,9.13 15.19,19.87 19.16,32.11 4.04,12.44 4.88,25.76 2.76,39.56 -2.52,16.42 -8.33,32.34 -18.23,46.93 -9.22,13.58 -20.67,25.13 -34.31,34.39 -13.53,9.2 -28.21,15.72 -43.43,20.02 -15.65,4.43 -31.45,6.56 -47.07,6.56 -12.96,0 -25.63,-1.44 -37.72,-4.62 -11.8,-3.09 -22.82,-7.73 -32.81,-14.08 -10.09,-6.4 -18.67,-14.58 -25.41,-24.35 -6.85,-9.9 -11.32,-21.24 -13.48,-33.53 -0.86,-3.72 -1.08,-7.64 -0.46,-11.66 1.01,-6.58 4.24,-12.74 8.77,-18.12 4.52,-5.39 10.12,-9.48 16.49,-12.16l13.3 -5.56 1.09 -0.35c3.98,-1.28 8.02,-2.08 12.03,-2.08 7.32,0 13.89,2.47 18.72,7.23 3.06,3.03 5.39,6.69 7.18,11.14l1.25 3.58c1.37,4.17 3.56,7.66 6.32,10.7 3.26,3.6 7.01,6.72 11.22,9.22 4.12,2.44 8.56,4.33 13.33,5.62 3.69,1.01 7.83,1.86 11.84,1.86 5.88,0 12.04,-1.03 17.95,-2.5 6.04,-1.48 11.94,-3.78 17.53,-6.93 4.69,-2.66 8.84,-5.92 12.37,-10.07 2.71,-3.19 3.95,-7.13 4.54,-10.95 0.55,-3.58 0.33,-6.69 -1.3,-9.6 -2.48,-4.49 -5.94,-8.12 -10.04,-11.14 -5.39,-3.95 -11.54,-7 -17.9,-9.46 -7.23,-2.78 -14.66,-5.19 -22.79,-7.21 -11.91,-3.58 -22.8,-8.13 -33.16,-13.56 -10.78,-5.66 -20.65,-12.68 -29.23,-21.09 -8.6,-8.44 -15.5,-18.4 -20.18,-29.71 -5.11,-12.34 -6.52,-25.89 -4.34,-40.07 2.26,-14.66 7.09,-29.02 15.05,-42.49 7.61,-12.86 17.39,-24.18 29.22,-33.63 12.14,-9.71 25.71,-16.61 40.01,-21.32 15.29,-5.01 30.88,-7.15 46.21,-7.15 22.8,0 44.11,4.83 62.62,15.61 19.36,11.26 32.67,28.55 41.27,49.15l0.54 1.28 0.36 1.35c1.19,4.67 1.71,9.55 0.94,14.62 -0.81,5.25 -2.96,10.36 -6.11,14.99 -3.53,5.16 -8.23,9.33 -13.78,12.46l-11.29 6.19c-6.11,3.59 -13.03,6.14 -20.12,6.14 -8.59,0 -16.17,-3.36 -20.9,-10.46 -1.42,-2.36 -2.57,-4.31 -3.44,-5.96l-7.58 -12.84zm526.07 -51.56c1.44,-9.34 6.24,-18.05 14.02,-24.5 7.44,-6.19 16.39,-9.26 25.33,-9.26l10.94 0c9.35,0 17.71,3.21 23.17,10.07 5.15,6.45 6.87,14.84 5.51,23.69l-41.94 272.98c-3.06,19.95 -19.17,33.46 -39,33.46l-10.63 0c-19.93,0 -32.44,-13.21 -29.33,-33.46l41.93 -272.98zm6.28 -99.61c2.04,-13.3 8.83,-25.27 19.63,-34.69 10.79,-9.41 23.47,-14.42 36.72,-14.42 13.27,0 24.5,5 32.4,14.42 7.92,9.44 10.9,21.41 8.86,34.69 -2.03,13.27 -8.7,25.23 -19.51,34.68 -10.77,9.43 -23.57,14.43 -36.84,14.43 -13.26,0 -24.42,-5.01 -32.3,-14.43 -7.89,-9.45 -11,-21.4 -8.96,-34.68zm651.23 151.17c-2.76,-3.33 -6.04,-6.24 -9.78,-8.74 -7.03,-4.71 -15.22,-6.65 -24.27,-6.65 -5.6,0 -11.39,0.67 -16.99,2.45 -4.26,1.35 -8.43,3.27 -12.13,6.04 -3.1,2.33 -5.56,5.07 -7.61,8.31 -2.13,3.38 -3.28,6.93 -3.85,10.65 -0.36,2.39 -0.25,4.44 0.78,6.42 1.69,3.26 3.94,5.97 6.83,8.21 3.83,2.99 8.13,5.41 12.7,7.31 5.13,2.12 10.39,4.04 15.82,5.56l8.68 2.39c14.47,4.01 28.4,9.4 41.34,16.33 11.74,6.3 22.5,14.07 31.51,23.66 8.58,9.13 15.18,19.87 19.16,32.11 4.03,12.44 4.87,25.76 2.75,39.56 -2.52,16.42 -8.33,32.34 -18.23,46.93 -9.21,13.58 -20.67,25.13 -34.31,34.39 -13.54,9.2 -28.22,15.72 -43.44,20.02 -15.64,4.43 -31.45,6.56 -47.05,6.56 -12.97,0 -25.64,-1.44 -37.73,-4.62 -11.8,-3.09 -22.83,-7.73 -32.82,-14.08 -10.08,-6.4 -18.65,-14.58 -25.41,-24.35 -6.84,-9.9 -11.3,-21.24 -13.47,-33.53 -0.87,-3.72 -1.09,-7.64 -0.47,-11.66 1.01,-6.58 4.25,-12.74 8.78,-18.12 4.52,-5.39 10.13,-9.48 16.48,-12.16l13.3 -5.56 1.09 -0.35c3.98,-1.28 8.03,-2.08 12.03,-2.08 7.33,0 13.9,2.47 18.73,7.23 3.05,3.03 5.38,6.69 7.17,11.14l1.27 3.58c1.37,4.17 3.54,7.66 6.31,10.7 3.26,3.6 7.01,6.72 11.22,9.22 4.12,2.44 8.56,4.33 13.32,5.62 3.7,1.01 7.83,1.86 11.84,1.86 5.88,0 12.06,-1.03 17.95,-2.5 6.05,-1.48 11.95,-3.78 17.54,-6.93 4.69,-2.66 8.85,-5.92 12.36,-10.07 2.71,-3.19 3.97,-7.13 4.55,-10.95 0.55,-3.58 0.32,-6.69 -1.3,-9.6 -2.49,-4.49 -5.94,-8.12 -10.05,-11.14 -5.38,-3.95 -11.52,-7 -17.89,-9.46 -7.23,-2.78 -14.67,-5.19 -22.79,-7.21 -11.91,-3.58 -22.79,-8.13 -33.16,-13.56 -10.79,-5.66 -20.64,-12.68 -29.22,-21.09 -8.62,-8.44 -15.5,-18.4 -20.19,-29.71 -5.12,-12.34 -6.51,-25.89 -4.33,-40.07 2.25,-14.66 7.08,-29.02 15.04,-42.49 7.61,-12.86 17.38,-24.18 29.21,-33.63 12.14,-9.71 25.72,-16.61 40.03,-21.32 15.29,-5.01 30.86,-7.15 46.2,-7.15 22.79,0 44.11,4.83 62.62,15.61 19.36,11.26 32.67,28.55 41.27,49.15l0.54 1.28 0.35 1.35c1.2,4.67 1.73,9.55 0.95,14.62 -0.81,5.25 -2.96,10.36 -6.11,14.99 -3.52,5.16 -8.24,9.33 -13.79,12.46l-11.29 6.19c-6.11,3.59 -13.03,6.14 -20.11,6.14 -8.59,0 -16.17,-3.36 -20.9,-10.46 -1.42,-2.36 -2.57,-4.31 -3.44,-5.96l-7.59 -12.84zm540.39 -7.56l-18.9 0c-8.54,0 -16.43,-2.15 -22.21,-7.73 -6.72,-6.49 -8.51,-15.98 -7,-25.83l1.73 -11.24c1.51,-9.83 6.2,-19.3 14.88,-25.8 7.51,-5.62 16.09,-7.75 24.64,-7.75l18.97 0 10.36 -65.94c2.76,-17.63 16.59,-30.21 34.32,-32.83l17.11 -2.37 1.58 0c11.38,0 21.1,4.84 25.39,14.86 2.68,6.24 3.14,13.26 2.04,20.42l-10.11 65.86 29.44 0c8.58,0 16.43,2.54 22.12,8.18 6.68,6.6 8.53,16.04 7,25.98l-1.54 10.02c-1.53,9.95 -6.3,19.41 -15.01,26.01 -7.42,5.61 -16.05,8.16 -24.6,8.16l-29.45 0 -25.03 162.97c-0.93,6.01 -2.02,13.78 -1.52,19.64 0.07,0.77 0.21,2.22 0.06,2.32 4.15,0.85 8.41,1.44 12.69,1.87l10.04 0c8.21,0 15.68,2.43 21.48,7.4 7.56,6.52 10.13,16.35 8.5,26.96l-1.52 9.93c-1.81,11.76 -8.32,22.64 -19.6,28.78 -7.19,3.91 -14.83,5.57 -22.44,5.57l-9.13 0c-10.69,0 -21.3,-0.67 -31.64,-2.24 -11.77,-1.77 -22.36,-6.06 -31.03,-13.35 -9.54,-8 -15.08,-19.14 -18,-31.52 -3.43,-14.61 -2.29,-31.66 0.1,-47.22l26.28 -171.11zm600.53 127.01c0.72,3.47 1.65,6.87 2.84,10.2 3.72,10.58 9.27,19.99 16.85,27.93 7.71,8.08 16.94,14.27 27.43,18.78 10.78,4.65 22.45,6.79 34.84,6.79 10.68,0 21.4,-1.6 32.08,-4.85 10.24,-3.11 20.01,-7.65 29.15,-13.8 3.26,-2.19 6.49,-4.44 9.75,-6.63 5.88,-3.96 12.21,-7.17 18.93,-8.36l2.07 -0.36 2.03 0c7.63,0 14.05,3.09 18.9,8.1 2.83,2.92 5.22,6.24 7.17,9.83 2.06,3.84 3.63,8.01 4.69,12.34 1.21,5.15 1.54,10.59 0.69,16.11l-0.96 6.27 -4.04 5.38c-3.85,5.1 -8.37,9.65 -13.4,13.63 -3.92,3.08 -7.97,6.03 -12.18,8.66 -15.91,9.98 -32.74,17.8 -50.18,23.42 -18.59,5.99 -37.49,8.62 -56.13,8.62 -23.83,0 -46.28,-4.5 -66.76,-13.88 -19.61,-8.96 -36.69,-21.43 -50.43,-37.54 -13.71,-16.08 -23.44,-34.86 -29.35,-55.78 -6.16,-21.88 -7.09,-45.06 -3.42,-68.92 3.65,-23.78 11.57,-46.99 24.19,-68.91 12.01,-20.82 27.06,-39.7 45.29,-55.96 18.03,-16.08 38.16,-28.72 60,-37.85 22.62,-9.45 45.76,-13.99 68.95,-13.99 22.4,0 43.53,4.33 62.63,13.34 18.57,8.73 34.32,20.96 47.06,36.56 12.97,15.85 21.92,34.33 27.27,54.73 5.67,21.72 6.3,44.7 2.69,68.17 -2.1,13.69 -9.6,26.33 -23.24,32.67 -8.21,3.81 -16.9,5.3 -25.38,5.3l-210.03 0zm786.02 -187.3c3.32,-2.04 6.7,-3.98 10.13,-5.8 10.75,-5.69 21.97,-10.07 33.4,-13.26 12.09,-3.38 24.34,-5.02 36.41,-5.02 19.66,0 38.38,3.64 55.24,11.52 16.03,7.5 29.83,18.02 40.73,31.54 10.93,13.52 18.45,29.38 22.92,46.71 4.68,18.24 5.26,37.55 2.23,57.25l-25.36 165.13c-1.48,9.59 -5.94,18.7 -14.05,25.42 -7.56,6.3 -16.59,9.24 -25.64,9.24l-12.34 0c-9.83,0 -18.74,-3.26 -24.04,-10.97 -4.57,-6.64 -5.45,-14.86 -4.14,-23.4l25.44 -165.63c1.23,-8.89 0.82,-17.63 -1.59,-25.91 -2.33,-8.01 -6,-15.22 -11.31,-21.39 -5.26,-6.11 -11.76,-10.83 -19.26,-14.25 -7.67,-3.49 -16.03,-5.1 -24.96,-5.1 -8.99,0 -17.85,1.59 -26.69,4.96 -8.75,3.33 -16.97,7.88 -24.44,13.86 -7.29,5.88 -13.36,12.79 -18.35,20.61 -5.13,7.99 -8.48,16.55 -10.2,24.88l-25.92 168.88c-3.06,19.89 -19.11,33.46 -38.9,33.46l-12.34 0c-19.84,0 -31.99,-13.42 -28.91,-33.46l42.37 -275.88c1.25,-8.13 5.1,-15.81 11.45,-21.92 7.2,-6.93 16.39,-10.33 25.56,-10.33l17.86 0c7.55,0 14.16,2.7 18.91,7.84 2.87,3.11 4.8,6.87 5.79,11.02zm667.1 60.29l-18.9 0c-8.54,0 -16.43,-2.15 -22.21,-7.73 -6.72,-6.49 -8.52,-15.98 -7,-25.83l1.72 -11.24c1.51,-9.83 6.2,-19.3 14.89,-25.8 7.5,-5.62 16.08,-7.75 24.63,-7.75l18.97 0 10.36 -65.94c2.77,-17.63 16.6,-30.21 34.32,-32.83l17.11 -2.37 1.58 0c11.39,0 21.11,4.84 25.4,14.86 2.68,6.24 3.14,13.26 2.04,20.42l-10.12 65.86 29.45 0c8.56,0 16.43,2.54 22.12,8.18 6.66,6.6 8.52,16.04 7,25.98l-1.54 10.02c-1.53,9.95 -6.3,19.41 -15.02,26.01 -7.42,5.61 -16.04,8.16 -24.6,8.16l-29.44 0 -25.04 162.97c-0.92,6.01 -2.02,13.78 -1.53,19.64 0.07,0.77 0.23,2.22 0.07,2.32 4.15,0.85 8.42,1.44 12.69,1.87l10.04 0c8.22,0 15.69,2.43 21.48,7.4 7.56,6.52 10.13,16.35 8.5,26.96l-1.53 9.93c-1.8,11.76 -8.3,22.64 -19.59,28.78 -7.18,3.91 -14.83,5.57 -22.44,5.57l-9.13 0c-10.7,0 -21.3,-0.67 -31.64,-2.24 -11.77,-1.77 -22.36,-6.06 -31.03,-13.35 -9.53,-8 -15.09,-19.14 -17.99,-31.52 -3.44,-14.61 -2.3,-31.66 0.09,-47.22l26.29 -171.11zm600.54 127.01c0.72,3.47 1.65,6.87 2.83,10.2 3.72,10.58 9.28,19.99 16.85,27.93 7.72,8.08 16.94,14.27 27.43,18.78 10.78,4.65 22.45,6.79 34.84,6.79 10.68,0 21.4,-1.6 32.08,-4.85 10.24,-3.11 20,-7.65 29.15,-13.8 3.25,-2.19 6.49,-4.44 9.75,-6.63 5.88,-3.96 12.21,-7.17 18.93,-8.36l2.06 -0.36 2.05 0c7.61,0 14.04,3.09 18.89,8.1 2.83,2.92 5.22,6.24 7.17,9.83 2.07,3.84 3.63,8.01 4.69,12.34 1.22,5.15 1.55,10.59 0.7,16.11l-0.96 6.27 -4.05 5.38c-3.84,5.1 -8.37,9.65 -13.41,13.63 -3.9,3.08 -7.97,6.03 -12.18,8.66 -15.9,9.98 -32.73,17.8 -50.16,23.42 -18.6,5.99 -37.5,8.62 -56.14,8.62 -23.83,0 -46.28,-4.5 -66.76,-13.88 -19.6,-8.96 -36.69,-21.43 -50.43,-37.54 -13.71,-16.08 -23.45,-34.86 -29.34,-55.78 -6.17,-21.88 -7.09,-45.06 -3.43,-68.92 3.65,-23.78 11.57,-46.99 24.2,-68.91 12.01,-20.82 27.05,-39.7 45.29,-55.96 18.02,-16.08 38.15,-28.72 59.99,-37.85 22.63,-9.45 45.76,-13.99 68.96,-13.99 22.39,0 43.51,4.33 62.63,13.34 18.56,8.73 34.32,20.96 47.05,36.56 12.98,15.85 21.92,34.33 27.27,54.73 5.67,21.72 6.29,44.7 2.69,68.17 -2.11,13.69 -9.61,26.33 -23.24,32.67 -8.22,3.81 -16.9,5.3 -25.38,5.3l-210.02 0zm-5708.36 -33.36c2.05,-13.32 2.03,-26.4 -0.59,-38.94 -2.45,-11.59 -6.84,-22.18 -13.48,-31.54 -6.24,-8.79 -14.31,-15.57 -24,-20.57 -10.03,-5.17 -21.27,-7.41 -33.25,-7.41 -12.11,0 -24.26,2.19 -36.04,7.42 -11.41,5.07 -21.76,11.92 -30.93,20.71 -9.6,9.21 -17.31,19.83 -23.42,31.34 -6.58,12.43 -10.67,25.43 -12.71,38.69 -2.04,13.29 -1.96,26.21 0.81,38.66 2.58,11.49 7.19,21.85 14,30.99 6.47,8.7 14.86,15.36 24.66,20.32 10.16,5.14 21.53,7.39 33.6,7.39 11.95,0 23.84,-2.21 35.47,-7.23 11.14,-4.81 21.25,-11.47 30.2,-20.02 9.44,-9.03 17.01,-19.39 22.95,-30.73 6.61,-12.59 10.67,-25.67 12.73,-39.08zm3834.61 -41.98c-0.62,-2.43 -1.33,-4.83 -2.16,-7.19 -3.5,-9.89 -8.59,-18.71 -15.55,-26.26 -6.9,-7.47 -15.17,-13.23 -24.65,-17.46 -9.52,-4.24 -19.89,-6.18 -30.88,-6.18 -11.11,0 -22.14,1.97 -33.07,6.15 -10.9,4.17 -21.01,9.89 -30.34,17.35 -9.65,7.71 -17.95,16.69 -24.98,26.72 -1.56,2.26 -3.05,4.54 -4.46,6.87l166.09 0zm2053.66 0c-0.62,-2.43 -1.33,-4.83 -2.17,-7.19 -3.49,-9.89 -8.59,-18.71 -15.56,-26.26 -6.89,-7.47 -15.17,-13.23 -24.65,-17.46 -9.51,-4.24 -19.87,-6.18 -30.87,-6.18 -11.11,0 -22.13,1.97 -33.06,6.15 -10.91,4.17 -21.01,9.89 -30.35,17.35 -9.65,7.71 -17.94,16.69 -24.97,26.72 -1.58,2.26 -3.06,4.54 -4.47,6.87l166.1 0z"/>
     <path class="fil8" d="M14527.34 8730.26c-0.52,3.4 -2.03,6.02 -4.51,7.91 -2.51,1.92 -5.57,2.92 -9.39,2.92l-9.53 0c-7.93,0 -11.31,-4 -10.08,-12.04l7.7 -52.16c-5.34,11.23 -12.2,21.26 -20.55,30 -8.37,8.72 -17.73,16.14 -28.19,22.16 -10.45,6.02 -21.8,10.64 -33.93,13.85 -12.13,3.21 -24.72,4.82 -37.76,4.82 -20.47,0 -38.91,-4.03 -55.33,-12.05 -16.43,-8.01 -30,-18.95 -40.8,-32.8 -10.82,-13.95 -18.55,-30.2 -23.1,-48.86 -4.56,-18.65 -5.21,-38.62 -1.93,-59.99 3.27,-21.27 10.05,-41.24 20.27,-60.09 10.21,-18.76 22.85,-35.11 37.97,-49.26 15.1,-14.05 32.14,-25.08 51.04,-33.11 18.88,-8.02 38.65,-12.03 59.42,-12.03 13.25,0 25.62,1.69 37.04,5.11 11.41,3.41 21.41,8.23 30.18,14.45 8.67,6.21 15.77,13.64 21.27,22.16 5.51,8.54 8.99,17.97 10.43,28.2l9.1 -51.47c0.82,-4 2.3,-7.12 4.44,-9.22 2.01,-2.11 5.09,-3.12 9.1,-3.12l8.62 0c3.62,0 6.38,1.01 8.36,3.12 1.98,2.1 2.6,5.22 1.99,9.22l-41.83 272.28zm-13.42 -135.94c2.53,-16.45 2.3,-32.01 -0.76,-46.65 -3.08,-14.65 -8.62,-27.48 -16.54,-38.62 -7.83,-11.04 -18.03,-19.76 -30.5,-26.19 -12.45,-6.42 -26.71,-9.62 -42.66,-9.62 -16.26,0 -31.69,3.2 -46.12,9.62 -14.52,6.43 -27.51,15.15 -38.91,26.09 -11.42,10.94 -21.02,23.77 -28.79,38.42 -7.75,14.64 -12.86,30.2 -15.39,46.65 -2.54,16.56 -2.19,32 1.06,46.65 3.28,14.55 9.07,27.18 17.22,38.12 8.07,10.83 18.5,19.36 31.07,25.68 12.47,6.33 26.82,9.53 42.87,9.53 15.76,0 30.88,-3.1 45.29,-9.33 14.4,-6.22 27.25,-14.74 38.43,-25.48 11.27,-10.73 20.73,-23.37 28.38,-37.91 7.67,-14.65 12.77,-30.2 15.35,-46.96zm679.62 -88.79c-4.84,-10.33 -12.15,-18.86 -21.99,-25.38 -9.82,-6.61 -21.65,-9.93 -35.49,-9.93 -8.63,0 -16.74,1.2 -24.34,3.61 -7.59,2.41 -14.34,5.83 -20.22,10.24 -5.89,4.41 -10.74,9.73 -14.58,15.85 -3.86,6.11 -6.39,12.84 -7.54,20.37 -1.11,7.21 -0.18,13.53 2.69,19.06 2.86,5.52 6.75,10.23 11.77,14.14 5.02,3.91 10.73,7.23 17.05,9.83 6.32,2.62 12.32,4.72 18.08,6.32l8.67 2.4c14.03,4.03 26.51,8.94 37.36,14.75 10.85,5.82 19.75,12.55 26.81,20.06 7.07,7.54 12.1,15.96 15.09,25.19 3,9.24 3.68,19.17 2.05,29.8 -2.1,13.64 -6.78,25.77 -14.01,36.41 -7.27,10.73 -16.17,19.66 -26.81,26.89 -10.65,7.23 -22.51,12.65 -35.62,16.35 -13.12,3.72 -26.64,5.62 -40.5,5.62 -11.43,0 -22.17,-1.31 -32.3,-3.92 -10.11,-2.7 -19.26,-6.51 -27.39,-11.72 -8.15,-5.12 -14.86,-11.65 -20.21,-19.36 -5.32,-7.74 -8.86,-16.66 -10.54,-26.7 -0.38,-1.41 -0.49,-2.71 -0.31,-3.91 0.25,-1.61 1.24,-3.42 2.84,-5.31 1.6,-1.92 3.51,-3.32 5.87,-4.31l12.23 -5.12c1.89,-0.6 3.44,-0.9 4.65,-0.9 2,0 3.62,0.59 4.84,1.79 1.21,1.21 2.18,2.71 2.91,4.53l1.05 3c2.12,6.43 5.55,12.15 10.1,17.16 4.54,5.02 9.72,9.23 15.42,12.64 5.8,3.4 11.83,5.92 18.08,7.63 6.27,1.69 12.05,2.6 17.46,2.6 7.23,0 15.13,-1.11 23.68,-3.21 8.54,-2.11 16.67,-5.32 24.24,-9.62 7.69,-4.33 14.35,-9.76 19.97,-16.36 5.63,-6.63 9.18,-14.65 10.6,-23.89 1.33,-8.62 0.16,-16.14 -3.44,-22.67 -3.61,-6.52 -8.67,-12.14 -15.16,-16.95 -6.5,-4.72 -13.93,-8.63 -22.26,-11.84 -8.33,-3.21 -16.56,-5.81 -24.68,-7.82 -9.98,-3.01 -19.7,-7.02 -29.26,-12.03 -9.55,-5.02 -17.86,-11.05 -24.92,-17.97 -7.05,-6.91 -12.46,-14.85 -16.12,-23.67 -3.66,-8.83 -4.69,-18.47 -3.09,-28.89 1.88,-12.24 5.8,-23.38 11.75,-33.42 5.97,-10.13 13.52,-18.75 22.55,-25.98 9.04,-7.22 19.52,-12.74 31.46,-16.65 11.92,-3.92 24.78,-5.92 38.62,-5.92 20.07,0 37.57,4.31 52.39,12.94 14.82,8.62 25.99,22.17 33.63,40.43 0.62,2.41 0.82,4.41 0.57,6.02 -0.22,1.41 -0.86,2.9 -1.88,4.41 -1.03,1.51 -2.42,2.72 -4.19,3.71l-11.51 6.32c-3.07,1.82 -5.63,2.72 -7.63,2.72 -2.11,0 -3.62,-0.6 -4.43,-1.81 -0.72,-1.21 -1.77,-2.9 -2.94,-5.12l-1.42 -2.41 0.3 0zm654.86 0c-4.84,-10.33 -12.15,-18.86 -21.99,-25.38 -9.82,-6.61 -21.66,-9.93 -35.49,-9.93 -8.62,0 -16.75,1.2 -24.33,3.61 -7.6,2.41 -14.35,5.83 -20.23,10.24 -5.9,4.41 -10.74,9.73 -14.58,15.85 -3.85,6.11 -6.38,12.84 -7.54,20.37 -1.11,7.21 -0.18,13.53 2.69,19.06 2.86,5.52 6.75,10.23 11.77,14.14 5.02,3.91 10.74,7.23 17.04,9.83 6.33,2.62 12.33,4.72 18.09,6.32l8.68 2.4c14.02,4.03 26.51,8.94 37.35,14.75 10.85,5.82 19.75,12.55 26.82,20.06 7.06,7.54 12.09,15.96 15.08,25.19 3,9.24 3.69,19.17 2.05,29.8 -2.09,13.64 -6.77,25.77 -14.02,36.41 -7.26,10.73 -16.17,19.66 -26.81,26.89 -10.63,7.23 -22.51,12.65 -35.6,16.35 -13.12,3.72 -26.65,5.62 -40.51,5.62 -11.42,0 -22.16,-1.31 -32.29,-3.92 -10.13,-2.7 -19.27,-6.51 -27.39,-11.72 -8.15,-5.12 -14.87,-11.65 -20.21,-19.36 -5.32,-7.74 -8.87,-16.66 -10.55,-26.7 -0.39,-1.41 -0.49,-2.71 -0.3,-3.91 0.24,-1.61 1.22,-3.42 2.82,-5.31 1.61,-1.92 3.52,-3.32 5.88,-4.31l12.23 -5.12c1.89,-0.6 3.45,-0.9 4.65,-0.9 2,0 3.62,0.59 4.84,1.79 1.21,1.21 2.19,2.71 2.92,4.53l1.04 3c2.12,6.43 5.56,12.15 10.11,17.16 4.54,5.02 9.71,9.23 15.41,12.64 5.8,3.4 11.82,5.92 18.09,7.63 6.27,1.69 12.05,2.6 17.45,2.6 7.23,0 15.13,-1.11 23.67,-3.21 8.55,-2.11 16.67,-5.32 24.25,-9.62 7.69,-4.33 14.35,-9.76 19.98,-16.36 5.63,-6.63 9.17,-14.65 10.59,-23.89 1.32,-8.62 0.17,-16.14 -3.44,-22.67 -3.62,-6.52 -8.67,-12.14 -15.16,-16.95 -6.49,-4.72 -13.92,-8.63 -22.26,-11.84 -8.33,-3.21 -16.55,-5.81 -24.68,-7.82 -9.97,-3.01 -19.69,-7.02 -29.26,-12.03 -9.54,-5.02 -17.86,-11.05 -24.91,-17.97 -7.07,-6.91 -12.47,-14.85 -16.13,-23.67 -3.66,-8.83 -4.7,-18.47 -3.1,-28.89 1.88,-12.24 5.81,-23.38 11.77,-33.42 5.96,-10.13 13.51,-18.75 22.54,-25.98 9.04,-7.22 19.52,-12.74 31.46,-16.65 11.93,-3.92 24.78,-5.92 38.62,-5.92 20.06,0 37.57,4.31 52.39,12.94 14.83,8.62 26,22.17 33.62,40.43 0.63,2.41 0.82,4.41 0.58,6.02 -0.22,1.41 -0.85,2.9 -1.87,4.41 -1.04,1.51 -2.43,2.72 -4.2,3.71l-11.5 6.32c-3.09,1.82 -5.64,2.72 -7.63,2.72 -2.11,0 -3.63,-0.6 -4.44,-1.81 -0.72,-1.21 -1.77,-2.9 -2.94,-5.12l-1.42 -2.41 0.3 0zm521.79 -48.86c0.53,-3.4 2.05,-6.11 4.48,-8.12 2.4,-2.01 5.37,-3.02 8.78,-3.02l10.94 0c3.6,0 6.27,1.01 7.85,3.02 1.61,2.01 2.2,4.72 1.68,8.12l-41.94 272.98c-1.11,7.23 -5.37,10.84 -12.9,10.84l-10.64 0c-7.92,0 -11.29,-3.61 -10.18,-10.84l41.93 -272.98zm6.28 -99.61c1.12,-7.33 4.7,-13.56 10.61,-18.76 5.91,-5.11 12.43,-7.73 19.65,-7.73 7.23,0 13.03,2.62 17.36,7.73 4.32,5.2 5.88,11.43 4.75,18.76 -1.12,7.32 -4.59,13.54 -10.51,18.76 -5.9,5.11 -12.51,7.73 -19.74,7.73 -7.21,0 -12.94,-2.62 -17.27,-7.73 -4.31,-5.22 -5.98,-11.44 -4.85,-18.76zm655.52 148.47c-4.84,-10.33 -12.16,-18.86 -21.98,-25.38 -9.83,-6.61 -21.66,-9.93 -35.51,-9.93 -8.62,0 -16.74,1.2 -24.33,3.61 -7.6,2.41 -14.34,5.83 -20.22,10.24 -5.9,4.41 -10.73,9.73 -14.58,15.85 -3.86,6.11 -6.39,12.84 -7.55,20.37 -1.1,7.21 -0.18,13.53 2.7,19.06 2.86,5.52 6.75,10.23 11.77,14.14 5.02,3.91 10.73,7.23 17.05,9.83 6.32,2.62 12.32,4.72 18.08,6.32l8.67 2.4c14.03,4.03 26.51,8.94 37.36,14.75 10.85,5.82 19.75,12.55 26.81,20.06 7.07,7.54 12.1,15.96 15.09,25.19 3,9.24 3.69,19.17 2.05,29.8 -2.09,13.64 -6.78,25.77 -14.01,36.41 -7.27,10.73 -16.17,19.66 -26.82,26.89 -10.64,7.23 -22.5,12.65 -35.61,16.35 -13.12,3.72 -26.65,5.62 -40.5,5.62 -11.43,0 -22.16,-1.31 -32.3,-3.92 -10.11,-2.7 -19.27,-6.51 -27.39,-11.72 -8.15,-5.12 -14.86,-11.65 -20.21,-19.36 -5.32,-7.74 -8.86,-16.66 -10.53,-26.7 -0.4,-1.41 -0.5,-2.71 -0.31,-3.91 0.25,-1.61 1.23,-3.42 2.83,-5.31 1.6,-1.92 3.51,-3.32 5.88,-4.31l12.22 -5.12c1.89,-0.6 3.44,-0.9 4.65,-0.9 2,0 3.62,0.59 4.85,1.79 1.21,1.21 2.18,2.71 2.9,4.53l1.06 3c2.11,6.43 5.54,12.15 10.09,17.16 4.55,5.02 9.72,9.23 15.42,12.64 5.81,3.4 11.83,5.92 18.09,7.63 6.26,1.69 12.05,2.6 17.45,2.6 7.23,0 15.13,-1.11 23.68,-3.21 8.54,-2.11 16.67,-5.32 24.24,-9.62 7.7,-4.33 14.35,-9.76 19.97,-16.36 5.63,-6.63 9.18,-14.65 10.6,-23.89 1.33,-8.62 0.16,-16.14 -3.44,-22.67 -3.61,-6.52 -8.67,-12.14 -15.16,-16.95 -6.5,-4.72 -13.93,-8.63 -22.26,-11.84 -8.33,-3.21 -16.56,-5.81 -24.68,-7.82 -9.97,-3.01 -19.69,-7.02 -29.25,-12.03 -9.56,-5.02 -17.87,-11.05 -24.93,-17.97 -7.05,-6.91 -12.47,-14.85 -16.12,-23.67 -3.66,-8.83 -4.7,-18.47 -3.09,-28.89 1.88,-12.24 5.8,-23.38 11.75,-33.42 5.97,-10.13 13.52,-18.75 22.55,-25.98 9.04,-7.22 19.52,-12.74 31.46,-16.65 11.92,-3.92 24.78,-5.92 38.62,-5.92 20.07,0 37.57,4.31 52.39,12.94 14.82,8.62 25.99,22.17 33.63,40.43 0.62,2.41 0.81,4.41 0.57,6.02 -0.22,1.41 -0.85,2.9 -1.88,4.41 -1.03,1.51 -2.43,2.72 -4.19,3.71l-11.5 6.32c-3.08,1.82 -5.64,2.72 -7.64,2.72 -2.11,0 -3.63,-0.6 -4.43,-1.81 -0.72,-1.21 -1.77,-2.9 -2.94,-5.12l-1.42 -2.41 0.3 0zm587.01 204.56c3.4,0 6.29,0.9 8.49,2.8 2.22,1.92 2.96,4.92 2.34,8.94l-1.52 9.93c-0.71,4.62 -2.58,7.72 -5.55,9.33 -2.95,1.62 -6.39,2.4 -10.4,2.4l-9.13 0c-10.23,0 -19.65,-0.69 -28.37,-2 -8.65,-1.3 -15.8,-4.31 -21.49,-9.12 -5.79,-4.81 -9.69,-12.04 -11.93,-21.57 -2.25,-9.53 -2.15,-22.58 0.37,-39.02l29.76 -193.74 -41.52 0c-4.02,0 -6.8,-0.8 -8.47,-2.41 -1.65,-1.59 -2.21,-4.51 -1.59,-8.52l1.73 -11.24c0.61,-4.01 2.06,-6.91 4.21,-8.52 2.16,-1.61 5.18,-2.41 9.2,-2.41l41.53 0 13.89 -88.48c0.93,-6.03 4.78,-9.53 11.55,-10.54l15.37 -2.11c4.03,0 6.54,1.21 7.58,3.62 1.03,2.4 1.27,5.42 0.71,9.03l-13.59 88.48 52.07 0c3.61,0 6.39,0.9 8.21,2.71 1.83,1.81 2.38,4.81 1.76,8.83l-1.54 10.02c-0.61,4.02 -2.09,7.04 -4.48,8.83 -2.37,1.82 -5.43,2.71 -9.04,2.71l-52.06 0 -28.51 185.6c-1.64,10.63 -2.21,18.96 -1.71,24.88 0.5,5.92 2.02,10.33 4.55,13.45 2.54,3.01 6.07,4.92 10.44,5.81 4.38,0.9 9.67,1.71 16,2.31l11.14 0zm605.48 3.91c13.25,0 26.3,-2 39.15,-5.92 12.83,-3.91 24.95,-9.63 36.35,-17.25 2.92,-2.01 6.17,-4.21 9.74,-6.62 3.59,-2.41 6.51,-3.81 8.78,-4.21 1.6,0 3.19,0.8 4.75,2.39 1.55,1.61 2.96,3.53 4.22,5.83 1.24,2.31 2.26,4.91 2.93,7.73 0.67,2.8 0.77,5.42 0.4,7.81 -2.27,3.02 -5.01,5.83 -8.32,8.45 -3.3,2.6 -6.58,4.91 -9.68,6.91 -13.99,8.72 -28.68,15.55 -44.1,20.57 -15.4,4.91 -31.64,7.42 -48.7,7.42 -21.26,0 -40.62,-4.02 -58.14,-12.04 -17.53,-8.02 -32.3,-18.95 -44.12,-32.79 -11.8,-13.86 -20.35,-30.1 -25.61,-48.77 -5.26,-18.66 -6.2,-38.63 -2.93,-59.89 3.26,-21.27 10.25,-41.33 21.05,-60.1 10.82,-18.75 23.97,-35.11 39.64,-49.05 15.59,-13.95 33.01,-24.88 52.21,-32.91 19.19,-8.02 38.96,-12.03 59.43,-12.03 19.67,0 37.65,3.81 53.83,11.43 16.18,7.63 29.72,18.16 40.69,31.6 10.98,13.44 18.88,29.29 23.67,47.66 4.82,18.35 5.58,38.22 2.31,59.49 -0.98,6.42 -3.53,10.54 -7.63,12.43 -4.1,1.91 -9.07,2.91 -14.89,2.91l-237.77 0c-1.16,15.45 0.65,29.8 5.34,43.04 4.65,13.35 11.63,24.88 20.87,34.51 9.24,9.74 20.41,17.36 33.49,22.98 13.08,5.62 27.39,8.42 43.04,8.42zm126.72 -139.03c0.58,-14.25 -1.28,-27.6 -5.7,-40.03 -4.4,-12.55 -10.85,-23.39 -19.37,-32.62 -8.51,-9.23 -18.74,-16.46 -30.67,-21.77 -11.92,-5.32 -25.05,-7.92 -39.32,-7.92 -14.24,0 -28.17,2.6 -41.82,7.82 -13.64,5.22 -26.18,12.34 -37.73,21.57 -11.54,9.23 -21.74,20.07 -30.49,32.62 -8.72,12.43 -15.3,25.88 -19.73,40.33l224.83 0zm516.41 154.68c-1.11,7.23 -5.38,10.84 -12.8,10.84l-12.34 0c-7.63,0 -10.88,-3.61 -9.77,-10.84l42.37 -275.88c0.44,-2.81 1.59,-5.11 3.47,-6.93 1.89,-1.8 4.44,-2.7 7.44,-2.7l17.87 0c1.89,0 3.32,0.59 4.43,1.8 1.12,1.21 1.67,2.82 1.56,4.81l-5.38 40.94c6.17,-7.52 13.16,-14.45 20.96,-20.88 7.81,-6.4 16.19,-11.92 25.03,-16.64 8.95,-4.71 18.36,-8.43 28.11,-11.13 9.64,-2.72 19.68,-4.11 29.92,-4.11 17.15,0 32.7,3.2 46.48,9.62 13.66,6.41 25.14,15.26 34.24,26.48 9.02,11.24 15.51,24.49 19.4,39.64 3.89,15.15 4.51,31.39 1.85,48.65l-25.36 165.13c-0.62,4.02 -2.08,7.02 -4.5,9.04 -2.41,1.99 -5.47,3 -9.09,3l-12.34 0c-4,0 -6.67,-1.01 -7.97,-2.91 -1.31,-1.91 -1.67,-4.81 -1.05,-8.84l25.47 -165.82c1.7,-12.43 0.99,-24.07 -2.17,-34.91 -3.15,-10.84 -8.12,-20.27 -15.02,-28.29 -6.88,-8.03 -15.44,-14.35 -25.57,-18.97 -10.13,-4.61 -21.31,-6.92 -33.55,-6.92 -12.03,0 -23.82,2.2 -35.41,6.62 -11.63,4.42 -22.28,10.44 -31.9,18.17 -9.61,7.72 -17.74,16.84 -24.47,27.38 -6.74,10.53 -11.4,21.97 -13.88,34.22l-26.03 169.43zm805.03 -19.56c3.41,0 6.28,0.9 8.5,2.8 2.22,1.92 2.95,4.92 2.33,8.94l-1.53 9.93c-0.7,4.62 -2.58,7.72 -5.54,9.33 -2.95,1.62 -6.39,2.4 -10.4,2.4l-9.13 0c-10.23,0 -19.65,-0.69 -28.38,-2 -8.63,-1.3 -15.79,-4.31 -21.47,-9.12 -5.79,-4.81 -9.7,-12.04 -11.94,-21.57 -2.24,-9.53 -2.15,-22.58 0.37,-39.02l29.76 -193.74 -41.52 0c-4.03,0 -6.8,-0.8 -8.46,-2.41 -1.66,-1.59 -2.22,-4.51 -1.6,-8.52l1.72 -11.24c0.62,-4.01 2.07,-6.91 4.22,-8.52 2.16,-1.61 5.18,-2.41 9.21,-2.41l41.52 0 13.89 -88.48c0.92,-6.03 4.79,-9.53 11.55,-10.54l15.37 -2.11c4.03,0 6.54,1.21 7.58,3.62 1.03,2.4 1.27,5.42 0.71,9.03l-13.59 88.48 52.08 0c3.61,0 6.38,0.9 8.2,2.71 1.84,1.81 2.38,4.81 1.76,8.83l-1.54 10.02c-0.62,4.02 -2.08,7.04 -4.47,8.83 -2.37,1.82 -5.43,2.71 -9.04,2.71l-52.08 0 -28.51 185.6c-1.63,10.63 -2.2,18.96 -1.7,24.88 0.5,5.92 2.02,10.33 4.56,13.45 2.54,3.01 6.05,4.92 10.43,5.81 4.37,0.9 9.67,1.71 16,2.31l11.14 0zm605.5 3.91c13.25,0 26.29,-2 39.14,-5.92 12.83,-3.91 24.95,-9.63 36.35,-17.25 2.93,-2.01 6.16,-4.21 9.74,-6.62 3.59,-2.41 6.51,-3.81 8.78,-4.21 1.6,0 3.18,0.8 4.75,2.39 1.55,1.61 2.97,3.53 4.22,5.83 1.24,2.31 2.25,4.91 2.92,7.73 0.68,2.8 0.79,5.42 0.42,7.81 -2.28,3.02 -5.03,5.83 -8.33,8.45 -3.3,2.6 -6.57,4.91 -9.69,6.91 -13.98,8.72 -28.67,15.55 -44.08,20.57 -15.4,4.91 -31.64,7.42 -48.7,7.42 -21.28,0 -40.62,-4.02 -58.15,-12.04 -17.52,-8.02 -32.3,-18.95 -44.11,-32.79 -11.82,-13.86 -20.36,-30.1 -25.63,-48.77 -5.25,-18.66 -6.2,-38.63 -2.93,-59.89 3.27,-21.27 10.26,-41.33 21.06,-60.1 10.82,-18.75 23.96,-35.11 39.65,-49.05 15.58,-13.95 33.01,-24.88 52.21,-32.91 19.18,-8.02 38.96,-12.03 59.42,-12.03 19.66,0 37.65,3.81 53.82,11.43 16.2,7.63 29.72,18.16 40.7,31.6 10.99,13.44 18.88,29.29 23.68,47.66 4.81,18.35 5.57,38.22 2.3,59.49 -0.99,6.42 -3.53,10.54 -7.63,12.43 -4.11,1.91 -9.07,2.91 -14.89,2.91l-237.77 0c-1.17,15.45 0.64,29.8 5.33,43.04 4.67,13.35 11.63,24.88 20.88,34.51 9.24,9.74 20.42,17.36 33.49,22.98 13.08,5.62 27.39,8.42 43.05,8.42zm126.7 -139.03c0.58,-14.25 -1.28,-27.6 -5.69,-40.03 -4.39,-12.55 -10.85,-23.39 -19.36,-32.62 -8.52,-9.23 -18.75,-16.46 -30.68,-21.77 -11.91,-5.32 -25.06,-7.92 -39.31,-7.92 -14.24,0 -28.19,2.6 -41.84,7.82 -13.63,5.22 -26.17,12.34 -37.72,21.57 -11.55,9.23 -21.73,20.07 -30.49,32.62 -8.72,12.43 -15.3,25.88 -19.74,40.33l224.83 0z"/>
    </g>
   </g>
  </g>
 </g>
</svg>
