<?xml version="1.0" encoding="UTF-8"?>
<!DOCTYPE svg PUBLIC "-//W3C//DTD SVG 1.1//EN" "http://www.w3.org/Graphics/SVG/1.1/DTD/svg11.dtd">
<!-- Creator: CorelDRAW 2021 (64 Bit) -->
<svg xmlns="http://www.w3.org/2000/svg" xml:space="preserve" width="297mm" height="210mm" version="1.1" style="shape-rendering:geometricPrecision; text-rendering:geometricPrecision; image-rendering:optimizeQuality; fill-rule:evenodd; clip-rule:evenodd"
viewBox="0 0 29700 21000"
 xmlns:xlink="http://www.w3.org/1999/xlink"
 xmlns:xodm="http://www.corel.com/coreldraw/odm/2003">
 <defs>
  <style type="text/css">
   <![CDATA[
    .str0 {stroke:white;stroke-width:20;stroke-miterlimit:22.9256}
    .fil1 {fill:none}
    .fil7 {fill:#194E96}
    .fil15 {fill:#1B181B}
    .fil0 {fill:#339966}
    .fil22 {fill:#502919}
    .fil4 {fill:#5AA2D5}
    .fil21 {fill:#7BA1A4}
    .fil17 {fill:#B25533}
    .fil20 {fill:#B32727}
    .fil16 {fill:#D76776}
    .fil18 {fill:#D9BC4E}
    .fil11 {fill:#DA1E1C}
    .fil19 {fill:#DFA280}
    .fil14 {fill:#E1764A}
    .fil10 {fill:#E397A7}
    .fil5 {fill:#E68E68}
    .fil8 {fill:#E8EDF0}
    .fil9 {fill:#F38530}
    .fil6 {fill:#F8BB95}
    .fil3 {fill:#FE5E59}
    .fil2 {fill:#FEC0C3}
    .fil12 {fill:white}
    .fil13 {fill:white}
   ]]>
  </style>
 </defs>
 <g id="Camada_x0020_1">
  <metadata id="CorelCorpID_0Corel-Layer"/>
  <g id="_1915027030672">
   <path class="fil0" d="M20283.6 16366.15c-507.13,-207.14 -1064.26,-578.55 -1378.54,-1107.11 -314.28,-528.56 -385.7,-1214.25 -321.42,-1949.95 64.28,-735.7 264.28,-1521.39 428.56,-1899.95 164.28,-378.57 292.85,-350 392.85,-885.7 100,-535.7 171.42,-1635.67 292.85,-2528.5 121.42,-892.84 292.85,-1578.53 599.99,-2099.95 307.13,-521.42 749.97,-878.55 1499.96,-978.55 749.98,-100 1807.09,57.14 2492.79,599.99 685.7,542.84 999.97,1471.38 1099.97,2478.5 100,1007.12 -14.28,2092.81 -21.42,3035.65 -7.14,942.83 92.85,1742.81 178.57,2392.8 85.71,649.98 157.13,1149.96 -78.57,1657.09 -235.71,507.13 -778.56,1021.41 -1457.11,1285.68 -678.56,264.28 -1492.82,278.57 -2128.52,264.28 -635.7,-14.29 -1092.83,-57.14 -1599.96,-264.28z"/>
   <path class="fil0" d="M11405.24 12330.54c-157.14,514.27 -414.27,1371.39 -507.12,1999.95 -92.86,628.55 -21.44,1028.54 471.41,1449.96 492.84,421.42 1407.11,864.26 2235.66,1057.11 828.55,192.86 1571.39,135.72 2299.95,-49.99 728.55,-185.71 1442.81,-499.98 1792.81,-1135.68 349.99,-635.7 335.7,-1592.82 178.57,-2299.94 -157.14,-707.13 -457.14,-1164.27 -578.56,-1649.97 -121.43,-485.7 -64.29,-999.97 64.28,-1549.95 128.57,-549.99 328.56,-1135.69 449.99,-1771.39 121.43,-635.7 164.28,-1321.39 14.29,-1985.66 -150,-664.27 -492.85,-1307.12 -921.41,-1699.96 -428.56,-392.85 -942.84,-535.71 -1585.68,-599.99 -642.84,-64.28 -1414.25,-50 -1992.8,64.29 -578.56,114.28 -964.27,328.56 -1421.4,878.55 -457.13,549.98 -985.69,1435.68 -1092.83,2321.37 -107.14,885.69 207.14,1771.38 421.42,2457.08 214.28,685.69 328.57,1171.4 357.14,1499.96 28.57,328.56 -28.58,499.99 -185.72,1014.26z"/>
   <path class="fil0" d="M4148.28 7144.95c-171.43,799.98 -28.57,1771.39 114.29,2721.37 142.85,949.97 285.7,1878.52 414.27,2871.36 128.57,992.83 242.85,2049.94 778.55,2635.64 535.7,585.7 1492.82,699.99 2314.23,557.13 821.41,-142.85 1507.1,-542.84 1949.95,-1164.26 442.85,-621.41 642.84,-1464.24 664.27,-2257.08 21.43,-792.84 -135.71,-1535.68 -214.28,-2249.95 -78.57,-714.27 -78.57,-1399.96 -7.14,-1942.8 71.42,-542.85 214.28,-942.84 249.99,-1485.68 35.71,-542.85 -35.71,-1228.54 -564.27,-1699.96 -528.56,-471.42 -1514.25,-728.55 -2349.94,-699.98 -835.7,28.57 -1521.39,342.84 -2107.09,814.26 -585.7,471.42 -1071.41,1099.97 -1242.83,1899.95z"/>
  </g>
  <rect class="fil1" x="111.27" y="-291" width="29700" height="21000"/>
  <path class="fil2" d="M17565.54 14081.57c31.25,-206.58 -168.71,-253.23 -390.08,-492.97 -136.38,-147.7 -267.49,-305.27 -415.28,-452.49 -99.5,-99.11 -265.97,-124.12 -139.95,49.5l235.09 272.25c2.64,2.59 6.71,6.09 9.38,8.63 2.65,2.53 6.78,5.95 9.42,8.47 92.37,88.05 120.89,150.83 267.2,274.71 19.73,16.7 44.93,32.85 60.14,48.22 60.57,61.19 30.76,3.73 36.47,72.8 -128.55,-26.22 -327.59,-296.39 -424.17,-391.55l-74.43 -86.65c-115.16,-171.63 -214.63,-220.48 -194.36,-358.41 189.56,-38.91 255.11,93.34 344.4,190.13 93.87,101.74 168.5,189.3 253.62,288.82 102.77,120.18 167.26,168.13 294.81,264.35 84.76,63.95 216.95,165.98 155.13,339.33 -97.52,1.76 -141.73,-47.73 -199.11,-94.69 -98.74,-80.81 -146.53,-71.33 -155.89,-151.33 46.82,10.74 15.05,1.04 48.6,22.48 73.39,46.91 191.63,169.84 279.01,188.4zm-3182.27 -794.29c42.37,-14.73 248.72,32.01 -36,313.51 -101.78,100.62 -189.98,186.46 -291.59,286.95 -94.59,93.55 -535.05,513.55 -645.24,529.4 -89.83,12.93 -125.6,-61.21 -95.64,-150.76 19.67,-58.83 93.47,-119.95 130.51,-157.15 52.92,-53.14 90.76,-93.06 145.07,-144.46 49.73,-47.07 91.34,-99.14 144.16,-145.3 94.73,-82.76 554.36,-499.38 648.73,-532.19zm1255.43 -4179.13l-28.77 6.99 -30.54 23.72 -37.23 17.47 -39.22 14.69 39.22 -14.69 37.23 -17.47 30.54 -23.72 28.77 -6.99c46.68,-31.72 9.62,-13.75 60.62,-29.84 33.22,320.41 -577.71,214.27 -756.74,112.62 0.02,-93.78 0.01,-47.13 22.73,-74.3 -40.13,-56.04 -67.38,-254.15 -252.75,-459.43 -43.07,-47.7 -75.73,-62.95 -110.12,-113.59 -35.59,12.52 -40.19,18.93 -28.8,0.78l-78.56 3.25c-24.88,92.86 -2.23,316.84 24.54,408.07 62.3,212.29 103.84,219.88 139.45,322.31 43.23,26.73 83.49,59.02 137.92,90.49 20.32,11.74 53.09,24.83 73.06,36.15 76.55,43.36 35.51,13.91 48.88,47.5 -97.77,6.35 -323.93,-182.02 -381.77,-239.3 -133.61,-132.36 -208.59,-189.08 -267.23,-362.9 -32.03,-55.84 -21.3,-28.65 -22.57,-100.58l-320.68 199.08c-140.17,72.08 -187.13,140.09 -318.87,185.24 -24.65,8.44 -51.85,16.68 -67.1,26.87l-18.32 16.68c-2.64,2.34 -6.05,6.42 -8.64,8.84 -91.98,86.17 -190.09,131.19 -307.94,216.26 -50.12,36.18 -83.88,42.38 -129.66,89.67l-64.91 59.22c-78.75,56.95 -184.73,283.52 -210.25,397.85 -34.03,152.49 -7.25,17.3 -48.26,107.87l-63.92 188.09c-51.82,146.77 -96.02,394.94 -132.55,554.01 -11.47,49.96 -3.37,103.15 -14.76,152.16 -7.83,33.7 -24.71,53.01 -35.38,124.38 -28.97,193.83 -57.4,406.23 -97.5,589.42 -41.81,190.93 -49.25,410.19 -83.13,594.99 -18.63,101.7 -27.92,47.72 -46.46,127.07 -12.99,55.61 -10,92.77 -27.33,134.98 -13.26,32.29 -13.14,21.37 -26.84,63.1 -11.69,35.58 -11.11,45.02 -18.8,73.73 -79.33,296.3 -210.35,408.91 -366.91,639.12 -26.69,39.25 -30.03,68.81 -56.47,107.8 -47.38,69.84 -89.43,128.58 -136.21,206.28 -280.17,465.34 -481.55,871.68 -609.98,1415.66 -74.1,313.86 -58.87,447.52 -89.52,595.02 -19.27,92.74 -98.44,83.45 -150.87,191.95 -67.15,138.97 -4.3,146.23 28.82,248.78l-26.92 26.65c-28.71,-1.46 -20.41,-7.61 -20.41,23.02 31.64,-1.03 25.69,7.36 20.41,-23.02l26.92 -26.65c47.98,-22.68 88.32,27.19 151.35,69.07l21.84 17.05 34.56 20.26c67.67,-7.02 94.02,-23.49 113.56,-98.08 15.47,-59.08 5.87,-146.76 0.97,-179.75 -17.1,-115.14 -54.82,-78.22 -149.9,-133.35l-57.87 -49.37c-3.06,-3.25 -7.65,-8.66 -10.96,-13.39 5.7,-3.44 14.81,-13.54 18.47,-7.6l544.83 290.82c20.3,13.43 62.85,39.17 88.55,57.43 7.73,5.48 31.79,24.32 38.58,34.42 22.99,34.23 16.79,3.84 21.24,56.58 54.65,-52.6 109.02,-91.63 174.17,-142.48l163.55 -143.8c30.55,6.47 21.08,11.14 21.08,-22.58 -31.49,0.57 -25.33,-7.71 -21.08,22.58 -46.27,-23.1 -40.05,-18.05 -46.11,-90.05 -21.34,-253.48 1.65,-591.74 75.49,-824.89 293.76,-927.48 384.67,-1003.75 857.69,-1761.81 134.21,-215.08 265.18,-1035.74 310.79,-1266.65l152.33 -894.69c56.28,-265.65 88.84,-700.85 131.76,-916.15 35.2,-176.57 44.22,-592.03 68.05,-815.82 3.69,-34.74 0.3,-34.88 15.31,-65.75 30.15,-61.99 -32.4,8.29 42.65,-53.85 0,516.52 -74.56,1010.66 -90.37,1521.81 -14.41,466.23 -85.97,974.46 -128.7,1446.77 -42.64,471.52 -156.59,893.12 -226.07,1350.34l-138.09 1051.87c-16.48,136.99 -1.29,283.51 -79,320.29 19.9,81.49 26.1,276.57 50.39,354.78 82.67,266.12 254.96,248.31 377,263.33 0.08,35.32 -2.17,75.76 -0.76,109.91 5.96,144.15 44.85,144.65 96.68,163.95l270.93 30.37c254.98,10.84 498.89,10.25 753.84,0.69 101.82,-3.83 226.76,-14.51 324.58,-34.99 175.21,-36.68 126.12,-89.75 206.57,-159.81 -4.97,-43.95 14.96,-137.34 20.62,-209.52 277.47,-85.58 392.45,-143.91 373.02,-476.71 -14.96,-256.37 -37.86,-531.39 -60.75,-784.59 -92.16,-1019.91 -209.4,-2064.49 -295.21,-3087.08 -28.27,-336.91 -129.25,-1288.94 -121.57,-1560.9l24.63 -211.91c119.53,5.06 219.36,76.53 396.34,80.98 227.28,5.7 242.53,-67.33 389.48,-105.94 91.23,204.81 145.52,199.91 156.02,278.82l-50.05 1217.63c-43.99,764.95 -35.43,1700.13 -87.89,2467.95 -28.29,414.11 -88.1,1208.8 -96.39,1594.25 -9.11,423.76 -17.47,388.84 314.15,529.28 13.26,82.41 18.07,114.28 51.61,175.78 -18.63,24.79 15.43,23.35 -32.17,33.88 75.3,17.46 33.48,64.8 107.92,118.71 157.29,66.9 1407.2,-54.96 1646.77,-89.44l-11.95 67.3c70.64,-148.16 160.63,-90.14 81.9,-383.54 186.39,-90.26 239.49,-88.13 222.31,-488.72 -9.04,-210.94 -20.14,-445.46 -35.25,-661.2 -47.02,-671.56 -53.83,-1405.17 -109.56,-2050.22 -9.79,-113.28 5.6,-245.22 -7.39,-355.71 -12.54,-106.62 -27.8,-181.61 -31.73,-313.04l-83.05 -1317.38c-95.18,-126.84 -113.25,-270.15 -197.49,-427.3 -232.15,-433.06 -292.91,-527.27 -555.09,-943.13 -120.43,-191.03 -95.41,-45.07 -118.99,-181.93 -87.61,-6.28 8.73,7.96 -71.56,-25.39 -220.12,-91.44 -471.02,54.88 -599.88,49.02 4.31,3.11 9.8,6.91 13.18,8.98 3.52,2.15 10.07,6.53 14.03,8.91l48.75 26.17c-9.27,131.38 -96.2,352.26 -149.25,496.18 -27.35,74.2 -159.7,359.28 -248.39,407.65 -8.08,-13.8 -87.5,19.07 24.68,-134.35 152.75,-208.91 293.62,-520.79 155.25,-768.1 -24.05,-42.98 -4.65,-15.93 -34.48,-53.49 -16.59,-20.89 -15.75,-19.3 -27.66,-26.65 52.75,-10.31 99.95,7.03 145.56,12.96 16.72,24.61 -36.36,25.86 40.97,18.61 -11.68,-25.74 24.95,-20.77 -40.97,-18.61 -69.33,-85.55 -222.24,-24.95 -281.43,-51.39 -29.59,51.14 -17.65,34.23 -57.22,77.29l-98.95 67.7 6.29 -271.89c83.32,-20.6 112.56,-56.35 134.16,-155.89 -70.8,65.93 -53.44,84.62 -147.34,135.85 -6.12,81.94 -21.94,165.65 -13.96,247.19 10.66,108.76 39.78,105.39 22.83,201.9 -14.13,80.48 -26.61,126.53 -31.78,213.53 -8.82,148.27 -4.86,63.21 -57.19,154.69z"/>
  <path class="fil3 str0" d="M4148.97 12879.85c78.07,86.49 84.32,300.57 348.48,499.14 58.71,44.12 130.24,52.04 192.55,93.31 -27.96,12.29 42.85,22.22 -42.06,6.04 -13.86,-2.63 -37.74,-12.9 -52.34,-19.77 -105.87,-49.79 -184.15,-117.86 -250.24,-201.08 -30.03,-37.82 -233.03,-318.31 -196.39,-377.64zm3737.27 1770.9c-309.44,15.18 -604.71,25.96 -914.91,-5.97 -432.89,-44.56 -440.9,-61.1 -517.64,-421.72 -66.32,-311.64 60.78,-505.05 156.43,-765.6l186.22 -517.08c28.08,-84.01 37.94,-90.27 120.59,-119.47 270.13,-95.43 1064.59,5.59 1228.91,106.36 46.06,28.23 45.76,10.84 72.43,164.52 11.19,64.4 24.55,132.65 36.22,199.87 30.69,176.66 179.86,1144.16 34.03,1267.09 -81.36,68.57 -313.33,101.25 -417.83,69.87 205.22,-143.93 471.66,154.78 438.47,-469.38 -15.23,-286.35 -46.65,-546.97 -84.66,-820.32 -52.47,-377.23 -54.45,-398.61 -438.65,-463.69 -221.2,-37.46 -628.74,-94.62 -837.13,-17.24 -124.09,46.08 -124.6,144.87 -172.57,273.51 -133.58,358.21 -344.88,772.51 -282.8,1074.85 71.51,348.27 85.15,357.45 494.78,402.45 401.86,44.15 471.85,8.14 776.75,4.76 100.49,-1.11 58.15,-15.87 121.36,37.19zm521.49 -2325.72c-5.02,-3.69 -11.53,-7.51 -15.38,-10.63 -127.59,-103.34 -186.62,-603.59 -103.42,-696.85 27.29,44.31 11.5,297.64 29.38,388.87 24.51,125.07 64.69,199.67 89.42,318.61zm-191.12 -273.92c11.44,16.68 121.54,327.79 121.88,330.98 -63.36,-15.77 -79.15,-59.33 -107.44,-135.65l-37.11 -148.15c7.04,-88.51 3.25,-27.9 22.67,-47.18zm-2254.17 3085.19c164.06,-19.52 587.33,65.01 791.87,89.84 652.18,79.16 2029.21,98 2583.17,-73.84 111.95,-242.41 61.34,-934.96 4.49,-1195.92 -196.97,-904.09 -683.51,-1351.16 -805.09,-1872.08 -116.99,-501.26 -7.57,-1114.4 -36.74,-1280.95 -218.67,-0.05 -553.02,-245.23 -714.51,-371.49l-502.33 -420.29c-45.39,-46.58 -45.91,-45.01 -94.7,-84.93 -104.58,-85.56 -287.9,-303.94 -406.78,-339.85 -543.36,100.17 -995.29,489.7 -1213.52,822.13 -2.18,3.33 -4.97,7.84 -7.14,11.18l-177.62 291.38c-62.51,118.91 -110.3,226.2 -157.72,347.83 -74.86,191.98 -198.72,585.66 -204.64,819.92 61.81,42.93 102.54,108.33 148.34,163.72l98.72 132.31c50.39,80.69 238.24,353.55 164.3,457.68 -21.36,-64.1 -14.33,-121.2 -44.26,-198.31 -120.03,-309.29 -349.18,-474.12 -384.8,-606.38 -53.56,-198.9 -240.47,-727.86 -358.4,-858.73 -152.02,-168.7 -217.04,-137.86 -304.85,-92.24 -175.89,91.38 -518.84,189.36 -750.1,225.24 -49.83,211.74 -22.97,478.79 8.45,698.87 96.01,672.43 373.84,1809.88 1075.67,2068.56 454.62,167.55 978.88,-127.76 1078.72,-278.02 375.48,-565.09 406.56,-1785.85 475.02,-1920.29 33.05,73.09 -96.05,802.87 -118.92,928 -48.06,263.03 -132.48,604.81 -239.4,824.54 -37.17,76.42 -76.36,113.52 -103.94,165.92 -47.93,91.03 -135.86,1085 68.64,1432.17 42.86,72.75 47.54,76.15 128.07,114.03zm283.63 -3761.61c-16.98,-20.62 -10.41,-1.35 -22.06,-38.35 -0.21,-0.66 -30.51,-368.8 -88.53,-592.36l-176.39 -363.76c-44.07,-43.05 -67.24,-18.13 -63.35,-97.71 231.55,84.73 440.69,944.29 350.33,1092.18z"/>
  <path class="fil3" d="M9825.6 12724.33c-5.59,-8.2 -31.68,25.66 -6.52,-52.31l81.91 -135.4c60.84,-84.3 89.51,-128.77 170.03,-156.51 -28.88,72.49 -22.69,44.9 -68.58,94.38 -108.31,116.79 -111.77,158.77 -176.84,249.84zm81.31 2295.09c69.35,-16.04 118.34,-103.48 137.41,-197.84l15.12 -335.96c-385.05,-6.02 -373.78,-12.57 -563.64,-666.85 -48.58,-167.43 -279.27,-860.19 -241.65,-985.79 27.32,-48.01 -3.46,-15.35 46.39,-49.59 63.05,-43.3 171.11,-50.88 247.59,-71.71 -79.86,-224.85 -131.26,-421.97 -165.82,-692.43 -17.83,-139.6 -103.66,-701.5 -44.83,-782.46 57.84,75.37 23.15,892.37 237.22,1417.99 61.59,-69.3 153.04,-339.78 332.14,-421.24 -36.41,119.15 -223.98,178.68 -289.91,450.13 -77.53,319.2 531.06,935.27 637.63,1538.91l62.26 -29.54c59.43,-30.34 127.58,-100.9 169.04,-151.49 2.47,-3.02 6.03,-6.96 8.43,-10.05 303.66,-389.19 296.46,-591.19 188.06,-999.72 -95.04,-358.2 -315.85,-903.09 -444.03,-1238.03 -154.67,-404.14 -315.46,-815.6 -474.79,-1223.13 -101.32,-259.18 -407.2,-486.88 -625.47,-640.97 -47.37,-33.44 -210.06,-130.73 -234.56,-165.45 -52.18,-15.18 -24.91,-19.4 -56.83,2.02 -13.81,273.55 2.08,507.18 -88.64,759.33 -1.62,4.48 -3.37,9.18 -5.03,13.63l-153.37 224.65c-67.03,47.86 -56,32.74 -65.48,132.83 -58.29,615.63 -39.93,1156.53 223.23,1635.52 542.71,987.8 769.83,1362.03 629.73,2608.27 189.68,-22.73 353.18,-101.21 519.8,-121.03zm-1090.4 -5360.78c-76.17,-157.94 -116.64,-219.56 -309.72,-260.37 0,33.89 9.07,28.11 -22.74,22.46 8.24,146.13 17.48,316.03 21.34,463.27 23.82,42.61 20.21,521.17 6.66,584.56l-42.34 144.89c-108.57,7.21 -180.95,-113.68 -238.2,-175.14 -72.18,-77.47 -143.51,-140.9 -200.2,-225.75 -39.77,-12.4 -5.11,11.04 -19.85,-33.23 -47.32,-19.3 -48.65,-29.1 -84.14,-71.31 -2.35,-2.78 -29.19,-38 -29.61,-38.78 -19.17,-35.38 -15.5,-6.22 -6.4,-32.77 -201.48,-156.76 -239.57,-272.7 -392.1,-420.06l-385.78 -418.96c-1.64,-7.17 -6.42,-8.13 -9.19,-12.49 -151.14,-28.22 -172.07,66.16 -245.86,165.55 -23.5,122.89 -26.87,73.68 -25.57,226.01l555.09 494.19c182.02,158.94 383.27,316.28 597.38,469.89 114.01,81.8 405.09,282.17 566.71,213.18 283.45,-121 249.25,-813.78 264.52,-1095.14z"/>
  <path class="fil3" d="M21146.13 11320.34c63.17,-48.86 126.03,-277.09 169.87,-371.27 15.65,-33.62 158.85,-331.91 179.69,-350.25 73.3,-131.46 167.06,-235.96 282.51,-304.96 61.32,-36.66 127.88,-65.49 199.66,-88.92 66.53,-21.72 156.93,-26.58 216.15,-52.14 17.95,-98.87 83.19,-226.25 114.13,-344.35 29.29,-111.75 45.34,-246.27 56.72,-375.65 -35.65,-57.63 -21.21,-27.15 -66.95,-62.28 -30.92,-23.75 -39.59,-34.4 -67.02,-58.94 -248.89,-222.73 -256.35,-235.62 -234.55,-503.26 22.92,-281.4 78.59,-556.01 147.57,-822.08 77.77,-299.98 135.38,-497.61 401.18,-580.38 329.85,-102.72 558.48,-12.7 868.72,17.33 -16.23,223.76 18.16,413.82 128.06,579.05 61.91,93.09 218,287.44 387.75,291.43 165.3,3.89 326.11,-223.39 494.32,17.45 55.02,78.77 74.54,175.57 69.22,280.34 -5.5,108.48 -51.73,195.13 -76.66,273.19 -25.02,-9.65 -17.23,-12.69 -19.23,15.36l-10.6 25.57 -14.7 22.73 -18.21 17.87 -16.02 14.78 16.02 -14.78 18.21 -17.87 14.7 -22.73 10.6 -25.57 19.23 -15.36c57.45,203.36 66.6,749.72 137.44,1090.29 11.57,55.63 22.11,104.82 34.7,161.25 21.86,97.93 16.77,112.41 56.4,142.71l70.11 19.98 27.48 9.78c101.3,20.52 115.72,46.82 203.29,77.34 137.35,102.21 303.59,276.68 407.29,397.06 60.3,56.91 200.27,238.46 251.58,263.08 116.61,-212.18 -137.63,-852.04 -213.28,-1006.48 -153.41,-313.16 -315.86,-439.62 -398.31,-851.42 -139.84,-698.46 -23.19,-1442.62 -135.6,-1742.2 -77.34,-206.12 -160.43,-223.59 -415.32,-202.15 -104.35,-173.81 -392.05,-393.47 -652.63,-484.79 -612.9,-214.78 -1255.38,-44.7 -1721.93,354.53 -1029.37,880.85 -378.37,1721.42 -497.17,2632.17 -53.58,410.68 -181.42,502.2 -361.43,757.66 -189.59,269.05 -239.69,532.59 -62.99,836.88z"/>
  <path class="fil2" d="M17914.02 6883.14c92.99,43.32 67.47,82.72 177.48,221.8 38.92,49.21 163.48,171.78 158.15,201.86 -8.03,3.14 16.32,38.21 -38.45,-11.61 -20.9,-19.02 -24.48,-28.72 -41.9,-52 -81.56,-108.94 -205.5,-211.74 -255.28,-360.05zm697.25 -1472.99c0.82,24.93 -5.2,19.07 20.3,14.75 -7.4,29.57 -12.47,22.6 18.19,18.17 -5.08,32.82 -14.6,30.4 15.1,21.26 -8.94,30.98 -12.69,22.63 20.13,16.4 -6.45,34.06 -15.29,30.9 16.53,20.1 -8.25,28.18 -11.89,20.57 18.23,16.09 -8.22,31.13 -13.24,23.9 18.97,17.95 -7.9,32.3 -15.51,27.19 16.2,21.3 -4.29,31.26 -13.12,28.34 15.25,20.46 -6.61,26.2 -10.27,18.54 18.29,16.43 -6.72,33.76 -16.92,31.04 13.71,23.76 -6.93,31.06 -14.64,26.74 15.31,20.24 -8.12,32.25 -14.47,26.46 17.7,18.69 14.47,49.72 -0.74,12.5 29.05,25.89 -6.41,31.04 -14.45,27.26 15.03,20.11 -3.71,30.41 -11.54,26.24 16.89,19.46 -8.32,31.04 -14.51,25.07 16.9,19.45 -8.13,35.51 -15.58,27.04 20.31,27.04 -2,-36.85 9.7,-33.73 -20.31,-27.04 8.06,-31.53 14.62,-25.91 -16.9,-19.45 8.25,-31.74 14.84,-26.15 -16.89,-19.46 3.75,-26.67 10.39,-21.4 -15.03,-20.11 -9.28,-49.14 3.58,-23.6 -29.05,-25.89 8.67,-31.21 14.26,-24.69 -17.7,-18.69 7.77,-31.33 15.3,-26.79 -15.31,-20.24 6.74,-31.05 15.22,-26.3 -13.71,-23.76 7.81,-30 12.52,-23.14 -18.29,-16.43 5.69,-30.6 13.67,-26.53 -15.25,-20.46 4.34,-31.86 13.07,-28.13 -16.2,-21.3 8.75,-30.26 13.11,-22.5 -18.97,-17.95 8.11,-31.91 13.43,-25.74 -18.23,-16.09 7.34,-32.01 14.74,-27.11 -16.53,-20.1 7.33,-31.46 12.1,-23.96 -20.13,-16.4 7.77,-31.06 15.31,-26.14 -15.1,-21.26 5.68,-29.02 11.32,-22.56 -18.19,-18.17 8.01,-29.78 11.31,-21.29 -20.3,-14.75 -85.19,-129.89 -343.31,-299.29 -481.64,-402.34 -36.96,54.34 20.04,13.07 -61.26,48.18 -54.62,23.59 -138.74,15.33 -408.88,147.53 -75.43,36.92 -148.82,77.52 -208.59,115.82 -125.05,80.12 -131.09,109.96 -231.14,126.05 17.99,-65.61 7.56,-48.36 41.3,-88.18l381.56 -237.14c-6.66,-121.54 -43.49,-209.71 -169.71,-173.24 -112.42,73.94 -222.22,120.59 -291.75,209.13 -37.59,-11.64 -21.67,0.94 -54.16,-23.03 2.83,145.39 -84.61,96.14 -59.88,193.65 18.99,74.85 63.37,90.95 130.86,121.62 113.8,51.72 174.01,314.94 242.81,427.61l122.78 255.16c83.98,182.27 288.67,528.45 337.95,690.76 37.05,122.02 -259.4,425.66 -374.25,633.53l-194.36 314.23c-59.19,163.9 -228.12,761.33 -185.66,964.44l139.86 228.78c28.23,39.42 -6.61,-13.92 29.5,41.46l209.54 370.27c3.8,7.56 23.9,47.96 23.98,48.09l42.25 61.55c59.45,-64.92 129.76,-118.88 193.46,-182.31 414.61,-412.86 951.46,-1005.24 1222.21,-1492.24 292.6,-526.3 52.69,-1347.39 -172.2,-1881.24 -37.66,-89.38 -209.02,-470.96 -259.69,-516.48 25.56,-16.35 -3.01,-16.1 35.11,-1.66z"/>
  <path class="fil4" d="M23365.59 11249.79c-40.32,97.89 -90.19,206.13 -136.47,295.39 -94.32,181.93 -150.58,184.71 -189.36,232.71 110.44,174.24 -16.93,395.7 -128.17,324.86 -127.97,-81.5 -124.01,-178.18 -74.53,-311.5 -120.17,-134.3 -196,-373.78 -254.65,-599.58 -379.89,-64.23 -878.36,-357.46 -1103.51,-540.68l16.79 -52.17c-20.84,18.34 -164.04,316.63 -179.69,350.25 -43.84,94.18 -106.7,322.41 -169.87,371.27 7.96,45.36 -42.81,149.59 -63.66,193.27 55.66,35.82 202.02,289.91 584.49,340.29l94.75 -484.26c44.04,38.95 47.89,10.62 14.6,165.54 -44.64,207.69 -194.92,1106.61 -185.13,1200.13 27.43,-3.99 582.37,102.36 709.27,114.55 681.3,65.4 1631.98,-37 2242.47,-265.34l-3.69 163.76c35.19,-60.34 37.51,-376.13 59.45,-540.87 20.12,-151.1 12.72,-133.67 56.32,-162.8 -38.51,-40.63 -209.44,-377.05 -167.81,-449.67 41.42,36.13 22.17,26.99 54.24,83.95l242.99 -187.03c40.62,-37.37 68.2,-68.77 104.39,-112.41 33.02,-39.81 72.1,-72 103.67,-113.72l187.58 -246.26c59.53,-78.22 117.33,-202.52 173.15,-256.41 -103.7,-120.38 -269.94,-294.85 -407.29,-397.06l23.01 59.44c-155.71,85.27 -336.27,309.76 -700.8,513.81 -446.44,249.89 -494.4,198.32 -902.54,310.54z"/>
  <path class="fil2" d="M7628.86 8253.97c147.46,-114.4 306.12,150.57 429.79,171.66 103.53,17.64 203.85,-63.4 256.79,33.21 29.41,53.67 -6.01,185.37 -40.09,225.89 -98.47,117.11 -372.69,76.11 -516.71,1.68 -201.61,-104.19 -220.22,-362.26 -129.78,-432.44zm-236.71 -394.01c6.5,115.77 8.41,195.51 -84.36,226.28 -331.85,110.06 -252.22,-517.81 84.36,-226.28zm-886.17 217.1c-62.99,-32.07 -116.48,-66.69 -135.33,-119.1 64.84,16.57 153.26,82.31 185.6,145.05 -29.47,29.8 -116.78,83.69 -144.45,70.59 -35.97,-36.15 23.95,-0.41 94.18,-96.54zm1147.63 -229.68c-62.84,-60.64 -73.76,-187.7 30.89,-222.38 91.48,48.78 69.37,125.39 38.36,218.43l-69.25 3.95zm769.66 -272.46c89.86,180.78 -49.26,288.68 -99.37,163.4 -8.82,-22.05 -8.81,-27.62 -9.58,-51.13 -1.94,-60.2 11.86,-75.19 32.91,-111.01l76.04 -1.26zm-987.37 -47.76c17.75,-221.97 367.3,-196.8 391.57,-72.8 -32.38,14.49 46.76,35.23 -51.35,6.73 -35.8,-10.4 -57.79,-69.1 -171.45,-44.18 -133.45,29.25 -51.71,84.3 -168.77,110.25zm862.21 -85.41c9.79,-67.97 28.97,-127.94 170.43,-100.58 99.76,19.3 121.11,60.26 126.95,112.03 -90.93,-9.85 -66.77,-54 -144.33,-61.98 -91.62,-9.42 -30.63,26.76 -153.05,50.53zm-1954.86 109.51c-26.38,157.54 -24.07,35.99 -131.83,156.56 -193.67,216.7 -115.68,519.81 -41.35,598.39l88.91 58.51c59.99,13.03 202.68,-42.57 271.87,-137.18l112.95 -145.93c56.71,83.47 -19.36,153.5 7.98,244.36l189.27 224.7c44.79,65.72 244.66,224.39 293.92,254.81l9.24 367.86 -39.97 11.62c2.77,4.36 7.55,5.32 9.19,12.49l385.78 418.96c152.53,147.36 190.62,263.3 392.1,420.06 291.79,68.63 457.92,70.98 601.09,-147.97l12.99 -4.5c-3.86,-147.24 -13.1,-317.14 -21.34,-463.27 31.81,5.65 22.74,11.43 22.74,-22.46 -43.67,-9.99 -38.08,-19.3 -22.74,22.46 -29.62,37.47 -23.98,47.51 -28.69,73.38 -3.36,18.49 -3.36,47.12 -7.23,67.05 -63.56,-2.91 -72.35,-15.82 -95.47,-54.76 -2.7,-4.55 -9.96,-18.74 -12.47,-23.57 -50.69,-97.44 -32.92,-131.29 -27.66,-385.05 -2.79,3.82 -5.54,9.39 -6.75,12.45l-14.7 42.46c-21.26,120.35 53.16,184.56 -108.42,194.79 -31.52,1.99 -77.74,0.15 -110.63,-0.28 -158.64,-2.1 -269.86,-19.74 -398.93,-62.37 -125.74,-41.53 -234.72,-70.89 -339.49,-134.28 -175.81,-106.38 -198.63,-154.16 -161.71,-298.1 46.81,16.72 6.58,2.08 38.29,19.11l206.53 99.25c384.5,178.54 746.37,24.96 895.91,23.01 3.05,-2.74 6.83,-7.24 8.79,-8.6 43.12,-29.96 184.92,-54.91 286.3,-128.57 95.08,-69.09 137.72,-108.86 209.04,-209.28 61.03,-85.94 44.64,-21.64 85.63,-133.87 54.54,-149.3 78.83,-405.28 5.53,-542.12 3.68,-71.19 3.72,-22.37 -18.45,-40.18l18.45 40.18c2.59,186.83 10.88,161.64 -168.86,152.73 -54.07,-94.84 -79.33,-67.17 -71.59,-222.25 33.84,-30.6 97.7,-91.75 137.05,-96.07 -3.79,-3.06 -9.63,-6.54 -11.55,-8.94l-24.57 -55.12c-14.28,-388.86 -74.37,-835.15 -440.86,-1031.61 -155.5,-83.35 -433.33,-102.95 -646.46,-76.6 -240.57,29.74 -353.22,98.4 -527.72,188.25 2.54,447.7 8.2,907.38 -401.1,972.92 -61.96,-12.21 -22.14,-94.85 -313.27,-171.35 -135.29,-35.55 -16.68,5.05 -95.74,-72.08z"/>
  <path class="fil5" d="M14652.44 8139.08c45.66,-10.42 390.03,94.46 474.01,108.87 209.6,35.95 331.43,51.99 559.03,62.33 -8.39,149.43 33.49,177.04 -117.03,193.33 -261.58,28.33 -727.07,-25.57 -916.01,-143.24l0 -221.29zm184.43 -697.86c63.37,26.88 63.83,140.57 167.79,201.71 122.88,72.28 271.18,3.74 326.51,44.27 -50.78,84.1 -272.26,40.46 -352.08,-1.49 -106.46,-55.94 -175.82,-194.22 -142.22,-244.49zm-884.62 -231.7c106.91,34.29 153.84,86 173.23,210.62 -55.9,-27.54 -30.12,-25.99 -68.9,-91.25 -102.4,26.16 -38.48,37.68 -106.42,80.93 1.74,-63.52 15.8,-57.95 43.92,-92.07 24.88,-30.18 2.52,2.18 28.55,-38.77 -22.06,-15.43 -27.62,-11.87 -42.28,-22.19 -41.22,-29.03 -15.43,4.81 -28.1,-47.27zm1682.97 -209.17c-65.28,-4.2 -86.15,-9.94 -98.36,-74.58 -10.65,-56.37 3.11,-121.85 45.58,-139.54 114.74,-47.78 100.82,141.25 52.78,214.12zm-675.35 -209.16c206.25,101.83 -66.2,383.6 -69.98,118.39 -1.13,-78.92 15.44,-92.17 69.98,-118.39zm765.25 -375.48c-55.67,-21.57 -96.66,-10.79 -142.78,-30.15 11.81,-12.74 -31.35,-37.97 63.39,-40.1 45.04,-1.01 201.94,33 192.83,121.91 -76.74,-6.13 -42.91,-24.33 -113.44,-51.66zm-940.99 69.25c-48.15,-67.76 41.82,-134.67 95.74,-162.32 60.4,-30.95 176.71,-68.17 211.85,-12.07 -67.87,52.29 -94.33,-0.79 -187.34,55.62 -69.87,42.37 -59.79,79.42 -120.25,118.77zm-796.76 446.28l-22.65 28.19c-224.36,-78.38 -342.35,246.51 -286.38,471.81 83.09,334.46 494.42,119.03 541.03,107.25 14.27,402.26 61.21,459.41 403.13,563.8l-20.06 441.32c34.39,50.64 67.05,65.89 110.12,113.59 185.37,205.28 212.62,403.39 252.75,459.43 274.1,58.98 193.57,95.72 537.63,54.39l39.22 -14.69 37.23 -17.47 30.54 -23.72 28.77 -6.99c52.33,-91.48 48.37,-6.42 57.19,-154.69 5.17,-87 17.65,-133.05 31.78,-213.53 16.95,-96.51 -12.17,-93.14 -22.83,-201.9 -7.98,-81.54 7.84,-165.25 13.96,-247.19 93.9,-51.23 76.54,-69.92 147.34,-135.85 15.66,-89.39 44.73,-159.47 63.61,-277.66 61.04,-382.21 99.27,-237.67 184.19,-463.74 28.81,-76.7 27.69,-186.74 79.51,-241.54l-29.3 -98.59c-15.28,-236.83 16.64,-317.19 -71.58,-627.99 -244.15,-860.19 -1121.63,-635.58 -1522.61,-343.3 -18.97,252.23 20.81,341.43 -75.26,577.68 -59.92,147.33 -172.73,322.07 -276.05,378.64 -55.14,-16.77 -73.24,-34.21 -126.16,-58.55 -62.02,-28.54 -69.41,-14.97 -105.12,-68.7z"/>
  <path class="fil6" d="M23230.76 8723.67c43.66,40.63 21.54,1.35 29.66,66.14 10.53,83.92 -201.33,482.42 -524.74,346.26 24.67,3.96 17.51,8.46 17.51,-17.97 -30.42,-3.34 -26.09,-10.64 -17.51,17.97 -146.11,-13.31 -207.95,-84.19 -195.5,-250.98 104.62,-76.81 224.17,-72.34 346.21,-160.25 97.85,-70.48 136.38,-188.25 320.69,-172.16 19.58,28.51 114.97,136.26 23.68,170.99zm-1026.32 -378.93c-7.14,-39.63 -12.38,-28.27 33.59,-67.99 78.87,-68.13 200.42,-75.1 271.1,7.04 -50.51,29.82 -4.3,22.77 -86.69,3.44 -181.84,-42.65 -123.48,66.1 -218,57.51zm722.09 -79.03c89.48,-94.28 336.14,-50.11 350.67,89.31 -92.74,-19.77 -62.77,-60.43 -153.19,-83.58 -78.28,-20.04 -125.12,10.82 -157.36,10.54 -46.46,-0.39 -13.6,0.84 -40.12,-16.27zm-724.16 -226.05c-3.95,-83.17 145.18,-109.52 237.14,-77.12 58.57,20.64 54.07,30.31 70.19,50.08 -23.56,13.48 6.23,17.69 -43.46,16.18 -4.34,-0.13 -39.94,-14.92 -43.31,-16.04 -144.77,-47.76 -135.5,20.05 -220.56,26.9zm715.6 -44.16c40.67,-128.27 332.21,-127.58 352.47,13.16 -86.06,2.03 -77.71,-51.79 -175.29,-55.74 -98.52,-3.99 -86.13,42.92 -177.18,42.58zm-553.11 1437.3c60.45,9.5 111.93,62.09 188.55,98.25 65.06,30.7 141.17,56.98 205.34,81.74 5.46,135.08 19.17,374.56 -112.38,452.97l-31.85 288.89c43.08,72.5 90.34,125.02 148,178.78 77.92,72.66 100.95,86.8 215.39,126.84 266.73,93.34 373.89,13.82 554.49,-88.1 79.15,-58.17 75.92,-62.09 112.21,-185.2 22.64,-76.82 53.29,-164.77 74.1,-245.13l9 -30.01c-12.99,-82.18 -89.98,-145.9 -115.1,-299.79 -22.89,-140.2 -25.37,-266.53 -26.92,-407.39 74.26,-102.17 210.35,-205.02 264.2,-350.58 277.27,-4.63 266.33,6.28 487.85,-93.11l16.02 -14.78 18.21 -17.87 14.7 -22.73 10.6 -25.57c2,-28.05 -5.79,-25.01 19.23,-15.36 24.93,-78.06 71.16,-164.71 76.66,-273.19 5.32,-104.77 -14.2,-201.57 -69.22,-280.34 -168.21,-240.84 -329.02,-13.56 -494.32,-17.45 -169.75,-3.99 -325.84,-198.34 -387.75,-291.43 -109.9,-165.23 -144.29,-355.29 -128.06,-579.05 -310.24,-30.03 -538.87,-120.05 -868.72,-17.33 -265.8,82.77 -323.41,280.4 -401.18,580.38 -68.98,266.07 -124.65,540.68 -147.57,822.08 -21.8,267.64 -14.34,280.53 234.55,503.26 27.43,24.54 36.1,35.19 67.02,58.94 45.74,35.13 31.3,4.65 66.95,62.28z"/>
  <path class="fil7" d="M21082.47 11513.61l-252.71 702.5 0.62 68.27c100.1,58.78 152.45,167.48 295.71,246.81 126.3,69.93 385.13,99.54 414.41,116.19l-119.74 696.2 -8.47 111.44 -41.8 223.88c62.51,135.18 578.25,246 706.26,267.22 291.84,48.36 595.18,59.98 891.67,28.3 816.86,-87.27 1444.66,-367.14 1546.48,-376.09l24.33 -850.05 3.69 -163.76c-610.49,228.34 -1561.17,330.74 -2242.47,265.34 -126.9,-12.19 -681.84,-118.54 -709.27,-114.55 -9.79,-93.52 140.49,-992.44 185.13,-1200.13 33.29,-154.92 29.44,-126.59 -14.6,-165.54l-94.75 484.26c-382.47,-50.38 -528.83,-304.47 -584.49,-340.29z"/>
  <path class="fil8" d="M14918.93 9452.16c-7.68,271.96 93.3,1223.99 121.57,1560.9 85.81,1022.59 203.05,2067.17 295.21,3087.08 22.89,253.2 45.79,528.22 60.75,784.59 19.43,332.8 -95.55,391.13 -373.02,476.71 -5.66,72.18 -25.59,165.57 -20.62,209.52l981.84 -58.08c47.6,-10.53 13.54,-9.09 32.17,-33.88 -33.54,-61.5 -38.35,-93.37 -51.61,-175.78 -331.62,-140.44 -323.26,-105.52 -314.15,-529.28 8.29,-385.45 68.1,-1180.14 96.39,-1594.25 52.46,-767.82 43.9,-1703 87.89,-2467.95l50.05 -1217.63c-10.5,-78.91 -64.79,-74.01 -156.02,-278.82 -146.95,38.61 -162.2,111.64 -389.48,105.94 -176.98,-4.45 -276.81,-75.92 -396.34,-80.98l-24.63 211.91z"/>
  <path class="fil7" d="M15002.82 15570.96c-80.45,70.06 -31.36,123.13 -206.57,159.81 -97.82,20.48 -222.76,31.16 -324.58,34.99 -254.95,9.56 -498.86,10.15 -753.84,-0.69l-237.58 -14.19c7.7,122.1 21.41,534.44 78.94,605.33 129.24,99.13 1759.82,36.84 2047.65,43.55l121.82 -25.45 -3.37 -152.73c-20.01,-7.36 9.81,-5.6 -43.82,-12.44l-360.41 0.17c-105.6,1.41 -92.77,2.89 -128.63,-25.25l491.94 -11.72c85.75,5.31 41.85,0.95 67.14,19.28l13.69 194.44c400.42,-29.8 810.98,-82.51 1180.3,-186.28 183.51,-51.57 342.43,-120.73 489.75,-197.93 164.56,-86.22 254.08,-168.9 292.15,-392.4l11.95 -67.3c-239.57,34.48 -1489.48,156.34 -1646.77,89.44 -74.44,-53.91 -32.62,-101.25 -107.92,-118.71l-981.84 58.08z"/>
  <path class="fil9" d="M6343.25 7551.26c79.06,77.13 -39.55,36.53 95.74,72.08 291.13,76.5 251.31,159.14 313.27,171.35 409.3,-65.54 403.64,-525.22 401.1,-972.92 174.5,-89.85 287.15,-158.51 527.72,-188.25 213.13,-26.35 490.96,-6.75 646.46,76.6 366.49,196.46 426.58,642.75 440.86,1031.61 3.29,3.5 8.37,3.96 9.88,10.48 14.01,60.23 -1.28,-9.2 44.16,53 25.88,35.43 32.79,50.37 52.14,80.86l27.92 -14.9c34.87,-116.61 34.77,-219.21 67.48,-335.34 30.34,-107.66 96.18,-205.22 77.8,-334.77 -7.37,-51.94 -41.97,-111.77 -48.62,-169.2 -8.83,-76.2 19.78,-95.24 30.27,-160.04 28.48,-176.02 -88.63,-172.4 -160.55,-252.66 -134.36,-149.94 123.46,-323.35 -403.12,-429.9 -429.46,-86.89 -177.58,-240.1 -599.75,-189.54 -183.89,22.02 -194.12,-94.09 -331.95,-63.14 -67.43,15.14 -174.22,121.12 -254,161.59 -96.76,49.1 -207.44,62.81 -288.71,129.08 -77.84,63.47 -121.4,152.62 -189.13,226.37 -155.69,169.55 -329.94,120.39 -448.44,383.67 -110.03,244.47 -17.64,476.59 -10.53,713.97z"/>
  <path class="fil10" d="M11977.86 15841.31c-4.25,-30.29 -10.41,-22.01 21.08,-22.58l494.29 -456.26c130.11,-128.39 405.56,-503.97 430.36,-519.74 77.71,-36.78 62.52,-183.3 79,-320.29l138.09 -1051.87c69.48,-457.22 183.43,-878.82 226.07,-1350.34 42.73,-472.31 114.29,-980.54 128.7,-1446.77 15.81,-511.15 90.37,-1005.29 90.37,-1521.81 -75.05,62.14 -12.5,-8.14 -42.65,53.85 -15.01,30.87 -11.62,31.01 -15.31,65.75 -23.83,223.79 -32.85,639.25 -68.05,815.82 -42.92,215.3 -75.48,650.5 -131.76,916.15l-152.33 894.69c-45.61,230.91 -176.58,1051.57 -310.79,1266.65 -473.02,758.06 -563.93,834.33 -857.69,1761.81 -73.84,233.15 -96.83,571.41 -75.49,824.89 6.06,72 -0.16,66.95 46.11,90.05z"/>
  <path class="fil7" d="M21261.18 14420.13l-59.34 646.49 11.44 47.33c712.14,210.44 1384.53,282.75 2135.67,187.68 87.4,-11.06 589.7,-71.51 671.51,-135.94 1.57,-149.55 48.63,-238.3 123.69,-336.19l20.01 -13.57 15.06 -22.17c56.87,-91.37 197.5,-228.86 323.78,-273.8l7.47 -272.46c-123.37,12.75 -253.81,79.79 -379.31,115.19 -427.82,120.66 -723.05,201.63 -1192.47,240.98 -858.49,71.98 -976.89,-28.29 -1677.51,-183.54z"/>
  <path class="fil6" d="M20744.11 13040.08l-20.07 -17.15 -18.42 -17.73c-56.91,3.94 -26.72,4.18 -53.17,14.01 -64.22,23.86 36.66,0.8 -55.54,22.02l-602.19 -1250.22 73.6 -99.88c-44.09,32.23 -37.46,42.89 -74.33,72.17l-78.69 47.46c-55.59,33.04 -110.63,64.66 -172.85,98.15l-375.35 178.75 146.69 443.31c41.24,205.8 222.89,626.3 330.1,846.2 100.12,205.35 203.57,373.97 348.95,538.59 112.89,127.85 215.66,178.47 407.48,179.88 100.7,0.74 187.25,-3.11 261.14,-35.13l262.24 -173.15c60.95,-53.23 23.2,-20.69 68.35,-76.5 25.89,-31.99 35.77,-33.62 65.91,-78.86 23.25,-34.89 31.29,-55.26 55.65,-89.1 112.55,-156.34 31.17,-122.75 98.68,-187.88l8.47 -111.44 -5.34 -49.63c-313.67,-23.96 -469.79,-115.51 -659.27,-249.09l17.76 27.21 -29.8 -31.99z"/>
  <path class="fil7" d="M13987.37 6931.24c35.71,53.73 43.1,40.16 105.12,68.7 52.92,24.34 71.02,41.78 126.16,58.55 103.32,-56.57 216.13,-231.31 276.05,-378.64 96.07,-236.25 56.29,-325.45 75.26,-577.68 400.98,-292.28 1278.46,-516.89 1522.61,343.3 88.22,310.8 56.3,391.16 71.58,627.99l29.3 98.59c153.76,-465.9 200.94,-1077.27 271.9,-1251.9 23.77,-58.48 50.95,-116.36 75.46,-178.02 140.57,-353.62 -133.77,-170.73 -251.72,-178.36 -0.3,-85.08 28.04,-102.83 5.41,-186.64 -133.1,-41.5 -124.45,77.42 -265.45,100.58 -8.46,-65.51 1.64,-66.6 2.48,-123.66 4.92,-334.52 -345.84,171.93 -391.25,-22.8 -11.85,-50.82 14.52,-82.56 -17.09,-186.97 -148.56,-34.11 -334.24,169.86 -471.1,213.96 -15.42,-78.85 -28.04,-127.69 -61.27,-188.07 -75.59,-3 -107.8,19.65 -152.62,54.24 -249.95,192.88 -476.97,383.54 -693.79,608.49 -412.03,427.48 -389.63,460.71 -257.04,1098.34z"/>
  <path class="fil5" d="M10074.13 18013.45c21.03,-123.89 392.17,-705.04 475.9,-907.39l-228.9 -132.23c-55.48,-29.96 -44.66,-7.62 -62.64,-66.28l337.29 171.52c118.05,52.26 268.53,75.46 383.7,117.31 -53.73,40.87 -98.29,2.86 -175.95,-3.89l-231.11 -83.31c-17.59,97.09 -417.43,762.86 -476.01,902.36 133.78,9.37 239.99,10.87 303.68,-78.06 112.64,-157.28 250.14,-525.61 403.44,-740.99 -20.09,149.14 -62.64,268.11 -102.17,409.59 -37.07,132.67 -118.01,292.06 10.08,363.69 166.42,-3.98 184.37,-202.82 237.8,-355.19 158.51,-452.01 532.36,-646.17 407.93,-987.53 -41.49,-113.8 2.36,-128.73 42.39,-222.5 -24.28,-58.75 -26.46,-40.16 -90.29,-73.29 -41.12,-21.35 -58.44,-32.11 -93.36,-52.4 -72.49,-42.14 -101.31,-52.72 -183.24,-104.98l-34.56 -20.26c-28.32,4.02 -21.84,10.64 -21.84,-17.05 -63.03,-41.88 -103.37,-91.75 -151.35,-69.07l-26.92 26.65c5.28,30.38 11.23,21.99 -20.41,23.02 -221.32,101.21 -111.43,-123.48 -620.24,258.83 -136.17,102.31 -475.61,292.26 -490.28,372.49 6.84,80.23 41.05,101.2 86.21,139.06 118.36,4.95 365.98,-110.86 425.74,-164.59l-567.22 679.46c-70.71,119.17 3.43,242.06 105.32,270.85 75.67,-6.4 388.43,-405.92 460.8,-501.09 56.99,-74.94 85.68,-113.88 156.35,-158.65 -72.55,191.09 -431.4,655.15 -441.21,855.83 61.32,79.12 119.82,88.14 181.07,148.09z"/>
  <path class="fil4" d="M21370.49 13678.9l-109.31 741.23c700.62,155.25 819.02,255.52 1677.51,183.54 469.42,-39.35 764.65,-120.32 1192.47,-240.98 125.5,-35.4 255.94,-102.44 379.31,-115.19l4.43 -649.17c-101.82,8.95 -729.62,288.82 -1546.48,376.09 -296.49,31.68 -599.83,20.06 -891.67,-28.3 -128.01,-21.22 -643.75,-132.04 -706.26,-267.22z"/>
  <path class="fil10" d="M19315.25 6798.82c95.66,81.27 135.5,389.33 98.4,516.72 -12.07,-37.7 -18.79,-215.71 -31.85,-290.3 -16.4,-93.73 -64.1,-140.78 -66.55,-226.42zm-1982.34 970.67l-223.98 368.14c-18.09,33.87 -28.79,55.38 -48.41,96.87 -43.1,91.15 -99.42,222.48 -167.46,252.78 23.58,136.86 -1.44,-9.1 118.99,181.93 262.18,415.86 322.94,510.07 555.09,943.13 84.24,157.15 102.31,300.46 197.49,427.3l37.88 -15.75 -27.21 -119.5c137.72,-130.4 277.83,-284.7 407.96,-440.11 430.67,-514.34 707.58,-818.8 1105.64,-1424.6 335.17,-510.07 453.01,-727.8 277.62,-1236.11 -90.07,-261.05 -464.23,-890.52 -633.16,-1035.87 -35.89,0 -28.44,8.47 -20.31,-27.04 -31.41,5.62 -25.22,11.59 -16.9,-19.45 -28.43,6.78 -20.6,10.95 -16.89,-19.46 -29.48,7.15 -21.44,10.93 -15.03,-20.11 -29.79,-13.39 -14.58,23.83 -29.05,-25.89 -32.17,7.77 -25.82,13.56 -17.7,-18.69 -29.95,6.5 -22.24,10.82 -15.31,-20.24 -30.63,7.28 -20.43,10 -13.71,-23.76 -28.56,2.11 -24.9,9.77 -18.29,-16.43 -28.37,7.88 -19.54,10.8 -15.25,-20.46 -31.71,5.89 -24.1,11 -16.2,-21.3 -32.21,5.95 -27.19,13.18 -18.97,-17.95 -30.12,4.48 -26.48,12.09 -18.23,-16.09 -31.82,10.8 -22.98,13.96 -16.53,-20.1 -32.82,6.23 -29.07,14.58 -20.13,-16.4 -29.7,9.14 -20.18,11.56 -15.1,-21.26 -30.66,4.43 -25.59,11.4 -18.19,-18.17 -25.5,4.32 -19.48,10.18 -20.3,-14.75 -38.12,-14.44 -9.55,-14.69 -35.11,1.66 50.67,45.52 222.03,427.1 259.69,516.48 224.89,533.85 464.8,1354.94 172.2,1881.24 -270.75,487 -807.6,1079.38 -1222.21,1492.24 -63.7,63.43 -134.01,117.39 -193.46,182.31l-42.25 -61.55c-0.08,-0.13 -20.18,-40.53 -23.98,-48.09l-209.54 -370.27c-36.11,-55.38 -1.27,-2.04 -29.5,-41.46l-139.86 -228.78c-42.46,-203.11 126.47,-800.54 185.66,-964.44z"/>
  <path class="fil2" d="M3287.3 8522.38c100.57,149.62 245.34,843.94 337.4,974.63 113.58,-22.64 264.6,-109.14 326.13,-74.28 -58.65,36.03 -288.19,98.22 -384.28,141.11 -129.63,57.86 -213.19,129.12 -317.88,178.88 19.21,-96.83 233.4,-149.83 326.64,-229.59 -35.38,-176.67 -304.57,-882.15 -278.86,-988.78 -47.1,25.21 -7.02,0.51 -38.42,25.67 -332.6,266.37 28.07,492.9 37.53,904.86 -75.94,-36.27 -23.46,15.59 -71.69,-68.69 -110.94,-193.87 -151.66,-383.58 -340.39,-377.16 -37.16,43.28 -41.67,27.36 -48.01,88.49 -12.24,117.98 9.06,137.75 60.35,165.88 -6.71,35.97 -17.19,30.3 13.8,30.3 5.18,-38.72 17.78,-35.96 -13.8,-30.3 -39.54,-77.07 -62.35,-147.17 -12.34,-213.3 79.82,26.21 46.32,8.44 78.95,81.16l140.34 273.91c202.44,471.39 133.02,642.51 290.45,791.46 109.39,103.52 196.16,137.07 352.89,189.65 -6.29,93.05 -71.59,284.91 20.62,328.73 166.03,-13.4 293.81,-163.29 577.41,-165.34 -4.59,27.53 -11.23,21.6 15.26,21.6 7.89,-33.89 16.96,-30.49 -15.26,-21.6 -10.23,-5.7 6.99,-6.62 -50.73,-20.42l-81.86 -3.73c-78.22,-158.98 -25.1,-220.3 59.17,-311.78 73.82,-80.14 117.01,-184.26 129.79,-321.17 64.17,-687.69 242.68,-827.49 -84.35,-826.23 -127.06,151.75 -89.18,247.94 -172.56,342.99 -27.64,-76.83 -57.65,-500.71 -67.71,-619.07 -8.83,-103.79 -8,-214.34 -73.41,-269.13 -73.08,-61.21 -154.33,-60.38 -227.82,-16.76 -28.16,283.31 50.59,526.92 49.91,796.76 -46.21,-41.99 -65.75,-115.49 -87.58,-189.52 -97.39,-330.36 -65.43,-272.72 -198.2,-623.61l-251.49 34.38z"/>
  <path class="fil2" d="M26411.05 12341.22l-16.47 24.32 -6.31 4.07c-70.34,183.18 -293.01,343.69 -497.68,435.53l-9.87 10.73c-26.31,84.84 -3.89,47.04 35.29,116.13 -86.96,97.93 -193.57,172.77 -275.21,284.39l-452.99 670.82c-78.04,121.2 -162.41,285.19 -254.79,304.62l80.52 56.62c36.69,25.34 45.98,36.69 77.83,64.68 64.08,56.28 97.47,83.97 149.99,140.39 65.8,70.69 201.82,222.95 120.51,377.21 -18.69,25.17 -23.36,34.54 -38.11,58.02 -79.85,13.66 -49.43,-0.98 -90.69,-47.7 2.63,-27.59 9.19,-22.24 -17.63,-18.17 -14.29,-10.55 20.37,-20.39 -59.35,-17.94l-66.95 104.68c-49.79,138.53 -15.98,147.96 -154.61,367.44 -178.65,282.82 -33.56,101.01 -258.78,354.04 -49.14,55.22 -19.12,8.62 -34.22,56.81 -34.4,-9.22 -30.34,-17.36 -20.2,16.18 -32.75,-10.65 -26.52,-16.67 -19.66,16.97l-118.03 24.63c8.24,5.77 -28.72,39.59 70.34,17.07 60.07,-13.66 38.9,-27.56 47.69,-41.7 34.21,8.88 29.59,16.48 19.66,-16.97 35.24,10.16 31.25,18.38 20.2,-16.18 69.1,-10.1 150.55,-108.44 196,-165.11 19.66,-24.52 20.96,-34.57 36.99,-52.62 49.4,-55.65 17.96,-1.59 47.57,-42.24 12.94,-17.77 3.54,0.48 17.66,-39.03 39.12,-109.41 117.65,-213.43 161.78,-323.17 64.29,-159.87 23.23,-231.49 113.91,-242.86 -2.86,25.24 -8.26,18.73 17.63,18.17l49.57 71.04c79.85,-7.29 25.25,2.77 41.12,-23.34 52.2,-10.48 57.9,-19.27 77.42,-66.63 67.66,-164.09 -82.88,-153.66 87.44,-312.2l233.02 -201.93c32.42,-27.04 41.42,-45.67 72.64,-71.44 99,-81.68 30.76,35.81 148.79,-137.19 60.34,-88.43 483.5,-459.18 686.02,-745.28 87.75,-123.96 150.01,-190.54 215.92,-346.42 86.16,-203.75 -101.63,-431.15 -230.85,-577.62 -94.25,-106.84 -61.43,-106.48 -172.31,-126.76l-30.8 37.94z"/>
  <path class="fil5" d="M17127 5132.93c32.49,23.97 16.57,11.39 54.16,23.03 69.53,-88.54 179.33,-135.19 291.75,-209.13 44.69,-36.7 96.79,-41.27 140.81,-67.11 2.78,-1.63 7.53,-5.22 9.89,-6.78l17.76 -14.85c79.85,-1.33 39.15,14.81 51.98,-22.57 33.34,6.4 24.4,12.46 22.79,-22.69 -33.71,0 -27.76,-9.02 -22.79,22.69 -104.57,-12.93 -30.98,2.32 -51.98,22.57 -59.09,-28.27 -52.99,-129.02 -228.04,-184.6 146.91,20.62 175.58,-310.38 65.3,-567.65 -24.63,-57.43 -72.07,-116.52 -86.86,-190.48 -155.37,5.28 -281.92,29.59 -420.47,71.1 -159.85,47.89 -301.45,137.67 -349.58,102.81 87.11,-23.55 242.54,-92.36 319.6,-130.2 -121.8,-294.47 -245.83,-647.26 -383.44,-941.21 -97.47,24.9 -117.63,52.28 -191.9,93.42 -12.89,201.68 283.76,707.87 345.6,921.08 -79.76,-77.08 -185.65,-259.58 -257.34,-369.95 -63.84,-98.29 -197.94,-316.07 -301.2,-360.6 -385.35,197.3 229.1,665.29 370,994.49 -21.89,-29.95 -139.69,-100.7 -179.31,-126.03 -77.35,-49.44 -252.29,-146.47 -317.94,-12.77 -20.61,165.21 124.25,222.23 218.43,293.11 219.26,165.01 369.05,395.75 585.88,464 183.38,57.72 253.3,-9.61 296.9,218.32z"/>
  <path class="fil4" d="M21238.05 15679.55l482.42 90.3c34.71,13.51 18.74,5.94 40.29,22.53 65.98,-14.47 549.57,43.7 663.74,52.38 225.29,17.12 486.75,22.41 722.99,4.75 317.6,-23.73 606.14,-75.12 906.46,-170.85 85.87,-27.37 202.58,-84.09 282.59,-97.06 -41.01,-45.87 -87.02,-168.08 -132.35,-235.58 -59.19,-88.14 -109.52,-59.32 -183.73,-180.33 -81.81,64.43 -584.11,124.88 -671.51,135.94 -751.14,95.07 -1423.53,22.76 -2135.67,-187.68l-11.44 -47.33c-16.07,22.43 -7.02,-4.42 -16.72,35.42l-24.24 249.77c-8,101.53 -24.6,191.18 -24.67,289.9 4.43,2.99 10.03,6.72 13.59,8.51l88.25 29.33z"/>
  <path class="fil2" d="M6204.42 15532.34c153.4,126.42 23.07,129.28 160.45,186.66 579.44,242.02 1303.21,360.68 1946.83,397.54l-56.42 -267.32 396.89 -2.18c99.84,4.5 66.77,13.14 84.23,37.73l-435.63 2.8c15.66,79.74 43.79,158.72 36.67,238.8 156.11,-46.88 462.05,-5.45 851.01,-146.95 421.4,-153.31 359.29,-182.11 629.91,-342.17 3.63,-78.38 -1.42,-91.34 21.69,-149.18 -298.28,29.68 -614.16,39.79 -918.4,50.65 -300.52,10.73 -593.38,33.62 -897.82,38.01 -581.64,8.37 -1256.53,51.27 -1819.41,-44.39z"/>
  <path class="fil2" d="M18623.08 10117.09l11.97 23.67c-8.47,31.76 -17.15,27.52 13.28,23.08 -6.09,27.79 -11.66,21.42 16.7,19.11 -3.61,29.55 -12.11,25.55 14.17,22.36 -3.83,28.42 -9.43,20.47 20.52,20.47 0.19,-29.33 7.78,-23.32 -20.52,-20.47l-14.17 -22.36c3.84,-28.35 10.66,-23.21 -16.7,-19.11 5.55,-29.51 13.69,-24.84 -13.28,-23.08 8.18,-33.28 18.64,-31.03 -11.97,-23.67 7.32,-36.39 13.2,-25.36 -26.57,-25.36 -52.38,73.34 13.04,16.87 -27.84,14.76 -56.99,-2.93 10.89,-37.27 -155.83,-122.1 -87.45,38.5 4.08,18.91 -75.54,50.24 50.26,175.43 169.67,223.02 227.11,355.25 71.55,164.73 171.74,484.89 308.95,561.76 120.73,67.63 90.31,-32.44 167.77,118.49 51.19,99.76 141.59,304.43 153.57,430.58 -49.5,-13.75 -40.55,-26.89 -40.55,19.8l40.55 -19.8c148.08,-8.1 298.51,-78.95 419.07,-154.32 54.12,-33.84 81.45,-57.33 95.1,-103.49 36.88,15.24 33.07,24.13 21.81,-14.26 2.22,-0.87 38.01,-13.83 41.82,-14.71 20.45,-4.74 40.82,-8.29 62.24,-10.9 -8.64,29.45 -12.87,22.8 17.33,15.36 -8.86,34.56 -16.82,27.15 17.24,27.15 9.48,-40.07 20.66,-35.93 -17.24,-27.15 9.43,-32.38 14.54,-26.54 -17.33,-15.36 -5,-2.93 -9.62,-9.23 -13.59,-10.85 -4.46,-1.82 -13.39,-5.93 -18,-7.64 -26.32,-9.75 -9.25,-4.18 -52.41,-2.86l-13.64 34.04c-0.71,-3.12 -3.72,8.94 -6.42,12.92 -38.12,-8.9 -38.65,-20.85 -21.81,14.26 -23,-57.15 -15.37,11.13 -62.05,-137.98 -16.58,-52.92 -40.06,-96 -69.44,-151.29 -99.96,-188.17 -13.03,-153.07 39.62,-312.34 38.28,-115.76 9.73,-288.2 7.79,-423.11 -2.24,-156.09 30.27,-268.16 -32.81,-382.79 -218.95,-10.03 -126.29,79.84 -203.21,217.46 -27.29,-80.83 -135.4,-538.1 -185.91,-587.86 -59.39,-58.51 -151.89,-51.44 -220.76,-19.66 -19.88,68.34 79.98,395.25 101.3,479.91 6.23,24.72 21.8,62.91 22.89,68.12 20.7,98.95 14.91,43.96 -9.95,54.3 -0.98,43.26 -12.84,34.56 26.54,34.56 16.65,-55.27 0.31,-7.44 -0.01,-7.69 -0.16,-0.13 -5.22,3.16 -7.55,5.1 -0.78,46.36 -13.49,36.96 28.84,36.96l-6.75 -6.79 12.78 56.22c86.61,-24.16 71.58,-16.93 93.36,-2.79 -364.78,176.87 -445.36,303.94 -509.35,329.42 22.36,-67.27 13.24,-40.43 70.55,-95.02 -252.88,-281.65 -236.14,-236.7 -181.67,-280.54z"/>
  <path class="fil3" d="M5983.37 15162.88c5.17,65.95 6.98,31.99 -14.52,44.92 17.44,173.76 79.89,300.39 235.57,324.54 562.88,95.66 1237.77,52.76 1819.41,44.39 304.44,-4.39 597.3,-27.28 897.82,-38.01 304.24,-10.86 620.12,-20.97 918.4,-50.65l70.18 0.31c19.47,-122.71 -32.41,-273.08 -6.41,-422.45 -181.58,-2.65 -1139.4,388.32 -2971.45,206.59 -153.88,-15.27 -881.6,-128.87 -949,-109.64z"/>
  <path class="fil11" d="M21760.76 15792.38l-88.18 0.43c-129.9,-18.16 -287.99,-61.98 -409.24,-67.77l45.68 278.31c200.03,79.78 225.39,19.88 285.54,94.49 246.72,101.21 1205.98,124.02 1518.67,108.37 800.51,-40.04 825.85,-137.46 1400,-234.48l-42.74 -178.97 -133.95 -211.16c-80.01,12.97 -196.72,69.69 -282.59,97.06 -300.32,95.73 -588.86,147.12 -906.46,170.85 -236.24,17.66 -497.7,12.37 -722.99,-4.75 -114.17,-8.68 -597.76,-66.85 -663.74,-52.38z"/>
  <path class="fil7" d="M24655 12044.61c65.06,24.27 172.77,181.63 241.12,235.66 259.59,-98.43 777.43,-661.67 907.35,-976.07 -26.78,-86.94 -143.5,-173.04 -198.68,-278.06 -51.31,-24.62 -191.28,-206.17 -251.58,-263.08 -55.82,53.89 -113.62,178.19 -173.15,256.41l-187.58 246.26c-31.57,41.72 -70.65,73.91 -103.67,113.72 -36.19,43.64 -63.77,75.04 -104.39,112.41l-242.99 187.03c-32.07,-56.96 -12.82,-47.82 -54.24,-83.95 -41.63,72.62 129.3,409.04 167.81,449.67z"/>
  <path class="fil11" d="M24397.27 8880.01l-10.6 25.57 -14.7 22.73 -18.21 17.87 -16.02 14.78c-221.52,99.39 -210.58,88.48 -487.85,93.11 -53.85,145.56 -189.94,248.41 -264.2,350.58 1.55,140.86 4.03,267.19 26.92,407.39 25.12,153.89 102.11,217.61 115.1,299.79l-9 30.01 9 -30.01 12.75 -68.08c14.17,-76.74 9.71,-80.66 59.75,-112.2 31,47.92 36.33,69.7 -21.7,130.77l7.01 54.43 -13.52 14.6 13.52 -14.6 41.12 10.86c230.56,-0.51 617.91,71.03 818.4,131.29l70.11 19.98 27.48 9.78 -27.48 -9.78 -70.11 -19.98c-39.63,-30.3 -34.54,-44.78 -56.4,-142.71 -12.59,-56.43 -23.13,-105.62 -34.7,-161.25 -70.84,-340.57 -79.99,-886.93 -137.44,-1090.29l-19.23 15.36z"/>
  <path class="fil7" d="M23711.66 10343.85c-55.95,97.94 -114.02,338.27 -159.81,458.16 -51.23,134.12 -123.87,321.48 -186.26,447.78 408.14,-112.22 456.1,-60.65 902.54,-310.54 364.53,-204.05 545.09,-428.54 700.8,-513.81l-23.01 -59.44c-87.57,-30.52 -101.99,-56.82 -203.29,-77.34l-27.48 -9.78 -70.11 -19.98c-200.49,-60.26 -587.84,-131.8 -818.4,-131.29 -27.68,85.81 -68.6,160.89 -114.98,216.24z"/>
  <path class="fil6" d="M24503 14519.96l-323.78 273.8c3.91,28.97 11.65,23.97 -15.06,22.17l-20.01 13.57c-75.06,97.89 -122.12,186.64 -123.69,336.19 74.21,121.01 124.54,92.19 183.73,180.33 45.33,67.5 91.34,189.71 132.35,235.58l133.95 211.16 13.15 -47.07 118.03 -24.63c-6.86,-33.64 -13.09,-27.62 19.66,-16.97 -10.14,-33.54 -14.2,-25.4 20.2,-16.18 15.1,-48.19 -14.92,-1.59 34.22,-56.81 225.22,-253.03 80.13,-71.22 258.78,-354.04 138.63,-219.48 104.82,-228.91 154.61,-367.44l66.95 -104.68c79.72,-2.45 45.06,7.39 59.35,17.94 26.82,-4.07 20.26,-9.42 17.63,18.17 41.26,46.72 10.84,61.36 90.69,47.7 14.75,-23.48 19.42,-32.85 38.11,-58.02 -46.89,30.91 -21.68,27.9 -77.98,51.72l-53.57 -75.65c-15.74,-17.41 -44.64,-45.75 -62.79,-63.05 -182.56,-174.03 -219.88,-233.81 -318.61,-331.44l-21.51 -17.99c-1.69,-6.31 -7.56,-5.94 -11.49,-8.71 -43.66,52.01 -69.55,66.25 -141.04,85.16 -35.04,9.26 -55.85,9.02 -91.14,18.53 -56.32,15.18 -18.41,14.15 -80.74,30.66z"/>
  <path class="fil7" d="M21495.69 10598.82l-16.79 52.17c225.15,183.22 723.62,476.45 1103.51,540.68 -53.48,-395.17 -43.03,-633.7 -3.8,-1028.89 -47.99,30.86 9.22,8.13 -67.38,-3.43 -32.98,-4.97 -67.77,-6.99 -102.05,-7.97 -72.15,-2.07 -143.07,0.19 -215.17,1.42 -59.22,25.56 -149.62,30.42 -216.15,52.14 -71.78,23.43 -138.34,52.26 -199.66,88.92 -115.45,69 -209.21,173.5 -282.51,304.96z"/>
  <path class="fil3" d="M10082.54 14442.98c69.08,-26.79 129.3,-73.64 154.5,-156.76 -79.25,-363.89 -161.82,-498.62 -322.4,-776.08 -95.2,-164.5 -331.33,-550.69 -354.39,-746.48 -104.91,-4.2 -203.58,44.62 -267.38,83.9 -15.81,162.32 295.4,1131.94 381.54,1391.85 80.03,241.49 158.82,185.82 408.13,203.57z"/>
  <path class="fil4" d="M24896.12 12280.27c73.09,97.54 308.85,322.59 408.18,375.73 -5.41,27.62 -12.64,22.76 13.26,21.4l20.75 15.79c1.21,24.88 -4.52,18.03 22.37,13.84 -2.52,28.59 -8.02,18.9 23.64,23.07 0,-34.15 8.97,-27.7 -23.64,-23.07l-22.37 -13.84 -20.75 -15.79 -13.26 -21.4c163.92,-153.92 448.89,-224.8 790.31,-721.67 38.73,-56.36 47.41,-107.89 104.31,-120.39 -1.47,31.42 -10.18,25.42 17.92,25.42l-17.92 -25.42c-31.11,-60.9 -50.77,-77.2 -96.56,-137.46 -92.34,-121.53 -179.67,-277.65 -298.89,-372.28 -129.92,314.4 -647.76,877.64 -907.35,976.07z"/>
  <path class="fil4" d="M20705.62 13005.2l18.42 17.73 20.07 17.15 12.04 4.78c189.48,133.58 345.6,225.13 659.27,249.09l5.34 49.63 119.74 -696.2c-29.28,-16.65 -288.11,-46.26 -414.41,-116.19 -143.26,-79.33 -195.61,-188.03 -295.71,-246.81l-0.62 -68.27c-8.18,13.83 -7.53,8.44 -19.91,41.17l-38.09 122.65c-20.16,59.07 -38.14,104.52 -56.87,159.28 -126.66,370.24 -139.86,309.72 -9.27,465.99z"/>
  <path class="fil7" d="M25304.3 12656l13.26 21.4 20.75 15.79 22.37 13.84c32.61,-4.63 23.64,-11.08 23.64,23.07 31.17,49.15 150.32,155.55 198.89,173.42 84.94,31.25 214.59,-54.24 297.51,-87.65l9.87 -10.73c204.67,-91.84 427.34,-252.35 497.68,-435.53l6.31 -4.07 16.47 -24.32c75.43,-156 50.23,-144.31 -31.11,-273.19 -52.87,-83.77 -87.64,-163.43 -163.1,-228.67 -28.1,0 -19.39,6 -17.92,-25.42 -56.9,12.5 -65.58,64.03 -104.31,120.39 -341.42,496.87 -626.39,567.75 -790.31,721.67z"/>
  <path class="fil7" d="M22648.98 11226.6c54.12,-22.85 225.16,20.07 301.02,26.74 127.44,11.21 241.13,-2.64 363.29,2.59 73.81,-187.61 212.62,-467.13 255.87,-658.1 -27.02,-41.55 9.11,-10.01 -36.76,-25.66 -180.6,101.92 -287.76,181.44 -554.49,88.1 -114.44,-40.04 -137.47,-54.18 -215.39,-126.84 -57.66,-53.76 -104.92,-106.28 -148,-178.78 -23.35,195.48 -37.53,474.91 -6.27,677.27l34.9 182.94c1.03,2.69 3.24,8.22 5.83,11.74z"/>
  <path class="fil12" d="M6781.82 9586.79c118.88,35.91 302.2,254.29 406.78,339.85 48.79,39.92 49.31,38.35 94.7,84.93l502.33 420.29c161.49,126.26 495.84,371.44 714.51,371.49 29.17,166.55 -80.25,779.69 36.74,1280.95 121.58,520.92 608.12,967.99 805.09,1872.08 56.85,260.96 107.46,953.51 -4.49,1195.92 -553.96,171.84 -1930.99,153 -2583.17,73.84 -204.54,-24.83 -627.81,-109.36 -791.87,-89.84 10.56,32.35 -17.76,18.68 20.93,26.58l-14.52 44.92c21.5,-12.93 19.69,21.03 14.52,-44.92 67.4,-19.23 795.12,94.37 949,109.64 1832.05,181.73 2789.87,-209.24 2971.45,-206.59l3.09 -46.51c-166.62,19.82 -330.12,98.3 -519.8,121.03 140.1,-1246.24 -87.02,-1620.47 -629.73,-2608.27 -263.16,-478.99 -281.52,-1019.89 -223.23,-1635.52 9.48,-100.09 -1.55,-84.97 65.48,-132.83l153.37 -224.65c1.66,-4.45 3.41,-9.15 5.03,-13.63 90.72,-252.15 74.83,-485.78 88.64,-759.33 31.92,-21.42 4.65,-17.2 56.83,-2.02l-86.99 -105.56c-15.27,281.36 18.93,974.14 -264.52,1095.14 -161.62,68.99 -452.7,-131.38 -566.71,-213.18 -214.11,-153.61 -415.36,-310.95 -597.38,-469.89l-555.09 -494.19c-1.3,-152.33 2.07,-103.12 25.57,-226.01 -29.74,36.81 -3.9,-29.97 -39.34,57.4 -19.43,47.9 -7.96,18.81 -11.84,68.57 -4.66,59.76 -0.42,73.65 -25.38,110.31z"/>
  <path class="fil5" d="M17265.37 3176.06l17.4 20.94c-12.63,35.62 -16.82,24.75 23.01,24.75 -3,-37.8 8.74,-35.08 -23.01,-24.75 11.06,-38.39 19.95,-34.52 -17.4,-20.94 -3.25,-10.46 27.1,-50.92 -100.01,-57.53 -91.72,89.1 -53.01,221.79 -25.96,370.5 23.38,128.57 38.1,273.48 66.75,406.72 -76.9,-93.92 -172.12,-385.12 -224.33,-526.08 -95.56,-257.97 -94.57,-357.91 -412.88,-367.66l398.91 947.81c70.01,-7.61 214.39,-40.87 238.3,-54.07l146.64 -9.13c-29.96,-277.73 -60.03,-226.85 -74.12,-576.36l-13.3 -134.2z"/>
  <path class="fil3" d="M3766.73 10715.01c-36.44,43.47 -36.01,33.58 -91.42,61.3 -40.66,20.35 -59.97,31.46 -98.84,44.77 3.37,29.85 10.94,25.5 -17.09,19.04l-13.14 22.94 -12.25 26.94c-1.13,89.23 24.98,120.18 49.63,184.13 250.45,-12.06 628.28,-154.37 830.53,-251.25l-54.75 -251.61c-26.49,0 -19.85,5.93 -15.26,-21.6 -283.6,2.05 -411.38,151.94 -577.41,165.34z"/>
  <path class="fil11" d="M22194.01 10152.8c72.1,-1.23 143.02,-3.49 215.17,-1.42 34.28,0.98 69.07,3 102.05,7.97 76.6,11.56 19.39,34.29 67.38,3.43l20.19 -162.56c54.73,32.72 27.62,-1.64 47.57,65.54 131.55,-78.41 117.84,-317.89 112.38,-452.97 -64.17,-24.76 -140.28,-51.04 -205.34,-81.74 -76.62,-36.16 -128.1,-88.75 -188.55,-98.25 -11.38,129.38 -27.43,263.9 -56.72,375.65 -30.94,118.1 -96.18,245.48 -114.13,344.35z"/>
  <path class="fil13" d="M7886.24 14650.75c-63.21,-53.06 -20.87,-38.3 -121.36,-37.19 -304.9,3.38 -374.89,39.39 -776.75,-4.76 -409.63,-45 -423.27,-54.18 -494.78,-402.45 -62.08,-302.34 149.22,-716.64 282.8,-1074.85 47.97,-128.64 48.48,-227.43 172.57,-273.51 208.39,-77.38 615.93,-20.22 837.13,17.24 384.2,65.08 386.18,86.46 438.65,463.69 38.01,273.35 69.43,533.97 84.66,820.32 33.19,624.16 -233.25,325.45 -438.47,469.38 104.5,31.38 336.47,-1.3 417.83,-69.87 145.83,-122.93 -3.34,-1090.43 -34.03,-1267.09 -11.67,-67.22 -25.03,-135.47 -36.22,-199.87 -26.67,-153.68 -26.37,-136.29 -72.43,-164.52 -164.32,-100.77 -958.78,-201.79 -1228.91,-106.36 -82.65,29.2 -92.51,35.46 -120.59,119.47l-186.22 517.08c-95.65,260.55 -222.75,453.96 -156.43,765.6 76.74,360.62 84.75,377.16 517.64,421.72 310.2,31.93 605.47,21.15 914.91,5.97z"/>
  <path class="fil2" d="M13349.65 14375.88c198.5,17.34 747.21,-574.96 900.75,-727.12 38.93,-38.57 276.99,-229.1 183.11,-316.27 -68,-63.14 -382.01,268.8 -451.39,319.53 -67.39,49.28 -88.75,62.94 -147.28,123.13 -196.79,202.39 -516.07,389.44 -485.19,600.73z"/>
  <path class="fil14" d="M17641.37 4858.09c21,-20.25 -52.59,-35.5 51.98,-22.57 -4.97,-31.71 -10.92,-22.69 22.79,-22.69l3.57 -7.15c-14.12,-48.74 -61.89,-128.68 -65.28,-194.05 -4.73,-91.03 50.54,-72.75 63.58,-201.77 22.05,-218.13 -213.95,-547.45 -300.92,-771.81 -43.33,-111.76 -50.88,-341.34 -111.31,-416.3 -39.83,0 -35.64,10.87 -23.01,-24.75l-17.4 -20.94 13.3 134.2c14.09,349.51 44.16,298.63 74.12,576.36l-146.64 9.13c-23.91,13.2 -168.29,46.46 -238.3,54.07l-398.91 -947.81c-43.12,-6.88 -8.34,-4.81 -11.06,15.85 137.61,293.95 261.64,646.74 383.44,941.21 -77.06,37.84 -232.49,106.65 -319.6,130.2 48.13,34.86 189.73,-54.92 349.58,-102.81 138.55,-41.51 265.1,-65.82 420.47,-71.1 14.79,73.96 62.23,133.05 86.86,190.48 110.28,257.27 81.61,588.27 -65.3,567.65 175.05,55.58 168.95,156.33 228.04,184.6z"/>
  <path class="fil2" d="M18777.21 10305.9c11.18,-33.59 17.22,-27.59 -17.06,-19 9.68,-33.93 17.77,-29.52 -15.7,-21.07 8.88,-31.12 11.51,-19.62 -25.6,-19.62 4.1,32.99 -5.36,27.77 25.6,19.62 -6.88,33.74 -15.95,30.56 15.7,21.07 -10.14,32.91 -16.31,27.03 17.06,19l35.55 55.51c67.93,-4.85 103.82,-45.13 143.17,-88.99 -71.45,-195.39 -309.21,-536.47 -342.86,-705.66 67.49,48.73 325.99,581.26 374.28,687.39l133.56 -66.52c-36.59,-120.99 -266.77,-592.85 -332.83,-669.17l12.96 -14.34c0.74,26.07 -5.94,20.79 19.61,16.36 -5.13,32.43 -13.27,28.5 17.16,19.53l22.15 33.45 22.23 35.12 -22.23 -35.12c2.97,-66.06 8.51,-29.47 -22.15,-33.45 9.69,-30.77 14.98,-23.89 -17.16,-19.53 5.95,-26.87 9.77,-18.87 -19.61,-16.36l-41.01 -5.37c-3.06,1.62 -8.28,4.56 -11.75,6.3l-91.6 34.5c-67.88,23.33 -52.09,7.47 -91.57,71.5 -64.09,103.96 -64.82,158.45 -7.45,263.35l219.55 431.5z"/>
  <path class="fil8" d="M7628.86 8253.97c-90.44,70.18 -71.83,328.25 129.78,432.44 144.02,74.43 418.24,115.43 516.71,-1.68 34.08,-40.52 69.5,-172.22 40.09,-225.89 -52.94,-96.61 -153.26,-15.57 -256.79,-33.21 -123.67,-21.09 -282.33,-286.06 -429.79,-171.66z"/>
  <path class="fil13" d="M10044.32 14821.58c3.6,-6.72 12.74,-19.49 20.23,-41.12l15.83 -151.09c0.21,-36.18 -1.43,-71.81 -3.71,-107.29 -4.48,-69.42 -19.17,-10.02 5.87,-79.1 -249.31,-17.75 -328.1,37.92 -408.13,-203.57 -86.14,-259.91 -397.35,-1229.53 -381.54,-1391.85 63.8,-39.28 162.47,-88.1 267.38,-83.9 23.06,195.79 259.19,581.98 354.39,746.48 160.58,277.46 243.15,412.19 322.4,776.08 2.94,-3.66 6.56,-8.94 8.49,-11.24l25.99 -29.82c2.5,-2.77 6.39,-6.49 8.85,-9.19 2.51,-2.77 6.94,-6.69 9.22,-9.23 2.41,-2.68 7.09,-8.16 9.05,-10.37l18.18 -23.33 -62.26 29.54c-106.57,-603.64 -715.16,-1219.71 -637.63,-1538.91 65.93,-271.45 253.5,-330.98 289.91,-450.13 -179.1,81.46 -270.55,351.94 -332.14,421.24 -214.07,-525.62 -179.38,-1342.62 -237.22,-1417.99 -58.83,80.96 27,642.86 44.83,782.46 34.56,270.46 85.96,467.58 165.82,692.43 -76.48,20.83 -184.54,28.41 -247.59,71.71 -49.85,34.24 -19.07,1.58 -46.39,49.59 -37.62,125.6 193.07,818.36 241.65,985.79 189.86,654.28 178.59,660.83 563.64,666.85l-15.12 335.96z"/>
  <path class="fil14" d="M14652.44 8360.37c188.94,117.67 654.43,171.57 916.01,143.24 150.52,-16.29 108.64,-43.9 117.03,-193.33 -227.6,-10.34 -349.43,-26.38 -559.03,-62.33 -83.98,-14.41 -428.35,-119.29 -474.01,-108.87l0 221.29z"/>
  <path class="fil4" d="M23313.29 11255.93c-122.16,-5.23 -235.85,8.62 -363.29,-2.59 -75.86,-6.67 -246.9,-49.59 -301.02,-26.74 9.31,154.18 143.88,454.79 225.34,524.95 159.73,18.95 221.19,-82.52 285.62,-185.3 57,-90.93 98.56,-216.23 153.35,-310.32z"/>
  <path class="fil8" d="M22735.68 9136.07c-8.58,-28.61 -12.91,-21.31 17.51,-17.97 116.92,-31.93 192.05,-104.4 274.41,-160.63 95.72,-65.35 162.51,-119.57 203.16,-233.8 91.29,-34.73 -4.1,-142.48 -23.68,-170.99 -184.31,-16.09 -222.84,101.68 -320.69,172.16 -122.04,87.91 -241.59,83.44 -346.21,160.25 -12.45,166.79 49.39,237.67 195.5,250.98z"/>
  <path class="fil10" d="M11032.67 16169.88l-34.56 -20.26 -21.84 -17.05c0,27.69 -6.48,21.07 21.84,17.05l34.56 20.26c81.93,52.26 110.75,62.84 183.24,104.98 34.92,20.29 52.24,31.05 93.36,52.4 63.83,33.13 66.01,14.54 90.29,73.29 62.08,-24.24 57.34,8.21 143.49,7.45 89.65,-103.55 55.36,-144.99 97.09,-280.41 -4.45,-52.74 1.75,-22.35 -21.24,-56.58 -6.79,-10.1 -30.85,-28.94 -38.58,-34.42 -25.7,-18.26 -68.25,-44 -88.55,-57.43l-544.83 -290.82c-3.66,-5.94 -12.77,4.16 -18.47,7.6 3.31,4.73 7.9,10.14 10.96,13.39l57.87 49.37c95.08,55.13 132.8,18.21 149.9,133.35 4.9,32.99 14.5,120.67 -0.97,179.75 -19.54,74.59 -45.89,91.06 -113.56,98.08z"/>
  <path class="fil15" d="M22578.61 10162.78c-39.23,395.19 -49.68,633.72 3.8,1028.89 58.65,225.8 134.48,465.28 254.65,599.58l37.9 2.5 56.64 -31.72 85.98 21.04 22.18 -5.18c38.78,-48 95.04,-50.78 189.36,-232.71 46.28,-89.26 96.15,-197.5 136.47,-295.39 62.39,-126.3 135.03,-313.66 186.26,-447.78 45.79,-119.89 103.86,-360.22 159.81,-458.16l60.34 -212.5 13.52 -14.6 -7.01 -54.43 0.49 -46.02c-20.9,44.47 -9.06,3.11 -38.54,27.45l-12.75 68.08 -9 30.01c-20.81,80.36 -51.46,168.31 -74.1,245.13 -36.29,123.11 -33.06,127.03 -112.21,185.2 45.87,15.65 9.74,-15.89 36.76,25.66 -43.25,190.97 -182.06,470.49 -255.87,658.1 -54.79,94.09 -96.35,219.39 -153.35,310.32 -64.43,102.78 -125.89,204.25 -285.62,185.3 -81.46,-70.16 -216.03,-370.77 -225.34,-524.95 -2.59,-3.52 -4.8,-9.05 -5.83,-11.74l-34.9 -182.94c-31.26,-202.36 -17.08,-481.79 6.27,-677.27l31.85 -288.89c-19.95,-67.18 7.16,-32.82 -47.57,-65.54l-20.19 162.56z"/>
  <path class="fil10" d="M17719.71 4805.68l-3.57 7.15c1.61,35.15 10.55,29.09 -22.79,22.69 -12.83,37.38 27.87,21.24 -51.98,22.57l-17.76 14.85c-2.36,1.56 -7.11,5.15 -9.89,6.78 -44.02,25.84 -96.12,30.41 -140.81,67.11 126.22,-36.47 163.05,51.7 169.71,173.24l-381.56 237.14c-33.74,39.82 -23.31,22.57 -41.3,88.18 100.05,-16.09 106.09,-45.93 231.14,-126.05 59.77,-38.3 133.16,-78.9 208.59,-115.82 270.14,-132.2 354.26,-123.94 408.88,-147.53 81.3,-35.11 24.3,6.16 61.26,-48.18 -34.35,-117.91 -23.04,-166.54 -142.25,-200.29 -130.41,-36.91 -143.17,54.76 -267.67,-1.84z"/>
  <path class="fil9" d="M24815.92 14385.61c3.93,2.77 9.8,2.4 11.49,8.71l21.51 17.99c98.73,97.63 136.05,157.41 318.61,331.44 18.15,17.3 47.05,45.64 62.79,63.05l53.57 75.65c56.3,-23.82 31.09,-20.81 77.98,-51.72 81.31,-154.26 -54.71,-306.52 -120.51,-377.21 -52.52,-56.42 -85.91,-84.11 -149.99,-140.39 -31.85,-27.99 -41.14,-39.34 -77.83,-64.68l-80.52 -56.62c-129.87,23.18 -128.71,52.26 -117.1,193.78z"/>
  <path class="fil11" d="M19283.85 11883.28l-26.57 9.83c-1.28,25.8 4.8,19.13 -22.46,14.52 3.91,27.69 10.86,21.66 -15.06,22.71l-11 28.85c5.55,59.81 2.41,68.55 45.62,97.6 40.22,27.04 57.73,18.06 112.72,30.87l375.35 -178.75c62.22,-33.49 117.26,-65.11 172.85,-98.15l78.69 -47.46c36.87,-29.28 30.24,-39.94 74.33,-72.17 -27.83,-83.47 -30.15,-77.14 -87.29,-118.39 -97.54,19.26 -233.05,121.4 -346.14,175.66 -120.94,58.01 -224.93,88.22 -351.04,134.88z"/>
  <path class="fil11" d="M19730.68 11228.64c11.26,38.39 15.07,29.5 -21.81,14.26 -13.65,46.16 -40.98,69.65 -95.1,103.49 -120.56,75.37 -270.99,146.22 -419.07,154.32l-40.55 19.8c-45.3,49.94 -91.1,54.02 -64.04,171.18 34.71,19.14 78.93,23.69 132.26,29.3 45.48,-27.49 267.43,-102.54 352.25,-143 54.5,-26 104.82,-54.93 154.41,-80.22 93.86,-47.88 91.76,-67.29 151.34,-105.84 13.22,-56.02 -1.6,-103.82 -11.06,-146.39 -34.06,0 -26.1,7.41 -17.24,-27.15 -30.2,7.44 -25.97,14.09 -17.33,-15.36 -21.42,2.61 -41.79,6.16 -62.24,10.9 -3.81,0.88 -39.6,13.84 -41.82,14.71z"/>
  <path class="fil7" d="M8031.31 10212.56c56.69,84.85 128.02,148.28 200.2,225.75 57.25,61.46 129.63,182.35 238.2,175.14l42.34 -144.89 1.02 -357.33c-64.15,32.69 -107.85,93.62 -203.21,108.86 -104.91,16.76 -179.12,13.72 -278.55,-7.53z"/>
  <path class="fil6" d="M19222.37 11720.99c57.8,17.26 48.33,2.31 65.11,64.74 14.09,52.45 12.83,53.67 -3.63,97.55l-26.57 9.83c-31.33,-6.32 -27.08,-14.83 -22.46,14.52 -29.81,-5.48 -20.91,-9.48 -15.06,22.71l-11 28.85 11 -28.85c25.92,-1.05 18.97,4.98 15.06,-22.71 27.26,4.61 21.18,11.28 22.46,-14.52l26.57 -9.83c126.11,-46.66 230.1,-76.87 351.04,-134.88 113.09,-54.26 248.6,-156.4 346.14,-175.66 -4.67,-1.78 -10.94,-3.86 -14.34,-4.36l-88.21 6.32c-22.45,-63.47 -23.83,-40.57 -55.06,-91.03 16.71,-49.05 33.09,-50.67 56.95,-91.74 -59.58,38.55 -57.48,57.96 -151.34,105.84 -49.59,25.29 -99.91,54.22 -154.41,80.22 -84.82,40.46 -306.77,115.51 -352.25,143z"/>
  <path class="fil16" d="M17565.54 14081.57c-87.38,-18.56 -205.62,-141.49 -279.01,-188.4 -33.55,-21.44 -1.78,-11.74 -48.6,-22.48 9.36,80 57.15,70.52 155.89,151.33 57.38,46.96 101.59,96.45 199.11,94.69 61.82,-173.35 -70.37,-275.38 -155.13,-339.33 -127.55,-96.22 -192.04,-144.17 -294.81,-264.35 -85.12,-99.52 -159.75,-187.08 -253.62,-288.82 -89.29,-96.79 -154.84,-229.04 -344.4,-190.13 -20.27,137.93 79.2,186.78 194.36,358.41l74.43 86.65c96.58,95.16 295.62,365.33 424.17,391.55 -5.71,-69.07 24.1,-11.61 -36.47,-72.8 -15.21,-15.37 -40.41,-31.52 -60.14,-48.22 -146.31,-123.88 -174.83,-186.66 -267.2,-274.71 -2.64,-2.52 -6.77,-5.94 -9.42,-8.47 -2.67,-2.54 -6.74,-6.04 -9.38,-8.63l-235.09 -272.25c-126.02,-173.62 40.45,-148.61 139.95,-49.5 147.79,147.22 278.9,304.79 415.28,452.49 221.37,239.74 421.33,286.39 390.08,492.97z"/>
  <path class="fil16" d="M13349.65 14375.88c-30.88,-211.29 288.4,-398.34 485.19,-600.73 58.53,-60.19 79.89,-73.85 147.28,-123.13 69.38,-50.73 383.39,-382.67 451.39,-319.53 93.88,87.17 -144.18,277.7 -183.11,316.27 -153.54,152.16 -702.25,744.46 -900.75,727.12zm1033.62 -1088.6c-94.37,32.81 -554,449.43 -648.73,532.19 -52.82,46.16 -94.43,98.23 -144.16,145.3 -54.31,51.4 -92.15,91.32 -145.07,144.46 -37.04,37.2 -110.84,98.32 -130.51,157.15 -29.96,89.55 5.81,163.69 95.64,150.76 110.19,-15.85 550.65,-435.85 645.24,-529.4 101.61,-100.49 189.81,-186.33 291.59,-286.95 284.72,-281.5 78.37,-328.24 36,-313.51z"/>
  <path class="fil10" d="M14247.36 8749.38c1.27,71.93 -9.46,44.74 22.57,100.58l-9.19 -121.69c33.52,39.33 12.25,-2.37 28.15,45.56l32.69 130.72c55.33,123.99 137.14,167.22 207.16,263.6 50.51,69.57 48.05,71.75 130.33,109.87 -35.61,-102.43 -77.15,-110.02 -139.45,-322.31 -26.77,-91.23 -49.42,-315.21 -24.54,-408.07 -145.02,12.7 -142.55,85.43 -193.02,144.79l-54.7 56.95z"/>
  <path class="fil10" d="M16221.62 8510.91l-17.36 -3.13c-77.33,7.25 -24.25,6 -40.97,-18.61 -45.61,-5.93 -92.81,-23.27 -145.56,-12.96 11.91,7.35 11.07,5.76 27.66,26.65 29.83,37.56 10.43,10.51 34.48,53.49 138.37,247.31 -2.5,559.19 -155.25,768.1 -112.18,153.42 -32.76,120.55 -24.68,134.35 88.69,-48.37 221.04,-333.45 248.39,-407.65 53.05,-143.92 139.98,-364.8 149.25,-496.18l-48.75 -26.17c-3.96,-2.38 -10.51,-6.76 -14.03,-8.91 -3.38,-2.07 -8.87,-5.87 -13.18,-8.98z"/>
  <path class="fil5" d="M18777.21 10305.9c-33.37,8.03 -27.2,13.91 -17.06,-19 -31.65,9.49 -22.58,12.67 -15.7,-21.07 -30.96,8.15 -21.5,13.37 -25.6,-19.62l-19.13 -20.43c-29.95,0 -24.35,7.95 -20.52,-20.47 -26.28,3.19 -17.78,7.19 -14.17,-22.36 -28.36,2.31 -22.79,8.68 -16.7,-19.11 -30.43,4.44 -21.75,8.68 -13.28,-23.08l-11.97 -23.67c-54.47,43.84 -71.21,-1.11 181.67,280.54 -57.31,54.59 -48.19,27.75 -70.55,95.02 63.99,-25.48 144.57,-152.55 509.35,-329.42 -21.78,-14.14 -6.75,-21.37 -93.36,2.79l-12.78 -56.22 6.75 6.79c-42.33,0 -29.62,9.4 -28.84,-36.96l7.56 2.59c-39.38,0 -27.52,8.7 -26.54,-34.56 -38.4,-69 -69.93,-146.22 -108.34,-224.17 -40.78,-82.77 -81.19,-146.27 -105.81,-214.91l-22.23 -35.12 -22.15 -33.45c-30.43,8.97 -22.29,12.9 -17.16,-19.53 -25.55,4.43 -18.87,9.71 -19.61,-16.36l-12.96 14.34c66.06,76.32 296.24,548.18 332.83,669.17l-133.56 66.52c-48.29,-106.13 -306.79,-638.66 -374.28,-687.39 33.65,169.19 271.41,510.27 342.86,705.66 -39.35,43.86 -75.24,84.14 -143.17,88.99l-35.55 -55.51zm-439.91 -271.27c79.62,-31.33 -11.91,-11.74 75.54,-50.24 166.72,84.83 98.84,119.17 155.83,122.1 40.88,2.11 -24.54,58.58 27.84,-14.76 -77.83,-43.17 -86.66,-147.04 -232.9,-121.66l-26.31 64.56z"/>
  <path class="fil8" d="M15638.7 9108.15l-28.77 6.99 -30.54 23.72 -37.23 17.47 -39.22 14.69c-344.06,41.33 -263.53,4.59 -537.63,-54.39 -22.72,27.17 -22.71,-19.48 -22.73,74.3 179.03,101.65 789.96,207.79 756.74,-112.62 -51,16.09 -13.94,-1.88 -60.62,29.84z"/>
  <path class="fil7" d="M7891.31 10036.47c-9.1,26.55 -12.77,-2.61 6.4,32.77 0.42,0.78 27.26,36 29.61,38.78 35.49,42.21 36.82,52.01 84.14,71.31 387.74,19.57 242.32,34.23 508.99,-113.94 -0.8,-80.92 12.95,-132.29 -28.05,-176.89 -143.17,218.95 -309.3,216.6 -601.09,147.97z"/>
  <path class="fil15" d="M22753.19 9118.1c0,26.43 7.16,21.93 -17.51,17.97 323.41,136.16 535.27,-262.34 524.74,-346.26 -8.12,-64.79 14,-25.51 -29.66,-66.14 -40.65,114.23 -107.44,168.45 -203.16,233.8 -82.36,56.23 -157.49,128.7 -274.41,160.63z"/>
  <path class="fil5" d="M3287.3 8522.38l9.15 1.97c-25.71,106.63 243.48,812.11 278.86,988.78 -93.24,79.76 -307.43,132.76 -326.64,229.59 104.69,-49.76 188.25,-121.02 317.88,-178.88 96.09,-42.89 325.63,-105.08 384.28,-141.11 -61.53,-34.86 -212.55,51.64 -326.13,74.28 -92.06,-130.69 -236.83,-825.01 -337.4,-974.63z"/>
  <path class="fil17" d="M10074.13 18013.45l22.28 -1.91c58.58,-139.5 458.42,-805.27 476.01,-902.36l231.11 83.31c77.66,6.75 122.22,44.76 175.95,3.89 -115.17,-41.85 -265.65,-65.05 -383.7,-117.31l-337.29 -171.52c17.98,58.66 7.16,36.32 62.64,66.28l228.9 132.23c-83.73,202.35 -454.87,783.5 -475.9,907.39z"/>
  <path class="fil13" d="M6246.07 11374.69c90.36,-147.89 -118.78,-1007.45 -350.33,-1092.18 -3.89,79.58 19.28,54.66 63.35,97.71l176.39 363.76c58.02,223.56 88.32,591.7 88.53,592.36 11.65,37 5.08,17.73 22.06,38.35z"/>
  <path class="fil18" d="M22874.96 11793.75c-16.46,29.91 -2.36,0.78 -17.33,32.21 -131.81,276.82 316.25,396.78 159.95,-42.89l-85.98 -21.04 -56.64 31.72z"/>
  <g id="_1915027003840">
   <path class="fil19" d="M8312.53 9097.78l0.1 -103.96c-149.54,1.95 -511.41,155.53 -895.91,-23.01l-206.53 -99.25c-31.71,-17.03 8.52,-2.39 -38.29,-19.11 -36.92,143.94 -14.1,191.72 161.71,298.1 104.77,63.39 213.75,92.75 339.49,134.28 129.07,42.63 240.29,60.27 398.93,62.37 32.89,0.43 79.11,2.27 110.63,0.28 161.58,-10.23 87.16,-74.44 108.42,-194.79l14.7 -42.46c1.21,-3.06 3.96,-8.63 6.75,-12.45z"/>
   <path class="fil19" d="M2895.82 9263.4c31.58,-5.66 18.98,-8.42 13.8,30.3 19.64,77.93 107.16,159.59 165.94,385.8 40.97,157.7 61.65,304.72 107.74,454.89 86.62,282.2 168.83,226.07 266.74,295.96 58.23,41.57 142.92,295.11 126.43,390.73 -27.91,-2.83 -21.87,-8.86 -17.09,19.04 -29.09,-7.3 -19.05,-9.6 -13.14,22.94l-12.25 26.94 12.25 -26.94 13.14 -22.94c28.03,6.46 20.46,10.81 17.09,-19.04 38.87,-13.31 58.18,-24.42 98.84,-44.77 55.41,-27.72 54.98,-17.83 91.42,-61.3 -92.21,-43.82 -26.91,-235.68 -20.62,-328.73 -156.73,-52.58 -243.5,-86.13 -352.89,-189.65 -157.43,-148.95 -88.01,-320.07 -290.45,-791.46l-140.34 -273.91c-32.63,-72.72 0.87,-54.95 -78.95,-81.16 -50.01,66.13 -27.2,136.23 12.34,213.3z"/>
   <path class="fil19" d="M7392.15 7859.96c-336.58,-291.53 -416.21,336.34 -84.36,226.28 92.77,-30.77 90.86,-110.51 84.36,-226.28z"/>
   <path class="fil19" d="M8907.92 7971.38l-18.45 -40.18c0.71,-5.98 3.35,-21 4.12,-24.84 0.76,-3.85 7.21,-29.41 8.91,-35.19l-27.92 14.9c-19.35,-30.49 -26.26,-45.43 -52.14,-80.86 -45.44,-62.2 -30.15,7.23 -44.16,-53 -1.51,-6.52 -6.59,-6.98 -9.88,-10.48l24.57 55.12c1.92,2.4 7.76,5.88 11.55,8.94 -39.35,4.32 -103.21,65.47 -137.05,96.07 -7.74,155.08 17.52,127.41 71.59,222.25 179.74,8.91 171.45,34.1 168.86,-152.73z"/>
   <path class="fil19" d="M6258.98 8364.72c70.45,76.22 195.73,74.98 312.66,12.47l80.14 -51.22c-27.34,-90.86 48.73,-160.89 -7.98,-244.36l-112.95 145.93c-69.19,94.61 -211.88,150.21 -271.87,137.18z"/>
  </g>
  <path class="fil13" d="M8407.73 12325.03c-24.73,-118.94 -64.91,-193.54 -89.42,-318.61 -17.88,-91.23 -2.09,-344.56 -29.38,-388.87 -83.2,93.26 -24.17,593.51 103.42,696.85 3.85,3.12 10.36,6.94 15.38,10.63z"/>
  <path class="fil20" d="M21594.56 16097.84c-60.15,-74.61 -85.51,-14.71 -285.54,-94.49l-45.68 -278.31c121.25,5.79 279.34,49.61 409.24,67.77l88.18 -0.43c-21.55,-16.59 -5.58,-9.02 -40.29,-22.53l-482.42 -90.3 28.94 347.6 327.57 70.69z"/>
  <path class="fil15" d="M15004.66 7642.93c-103.96,-61.14 -104.42,-174.83 -167.79,-201.71 -33.6,50.27 35.76,188.55 142.22,244.49 79.82,41.95 301.3,85.59 352.08,1.49 -55.33,-40.53 -203.63,28.01 -326.51,-44.27z"/>
  <path class="fil16" d="M14269.93 8849.96c58.64,173.82 133.62,230.54 267.23,362.9 57.84,57.28 284,245.65 381.77,239.3 -13.37,-33.59 27.67,-4.14 -48.88,-47.5 -19.97,-11.32 -52.74,-24.41 -73.06,-36.15 -54.43,-31.47 -94.69,-63.76 -137.92,-90.49 -82.28,-38.12 -79.82,-40.3 -130.33,-109.87 -70.02,-96.38 -151.83,-139.61 -207.16,-263.6l-32.69 -130.72c-15.9,-47.93 5.37,-6.23 -28.15,-45.56l9.19 121.69z"/>
  <path class="fil16" d="M8311.7 16116.54l25.74 9.83c7.12,-80.08 -21.01,-159.06 -36.67,-238.8l435.63 -2.8c-17.46,-24.59 15.61,-33.23 -84.23,-37.73l-396.89 2.18 56.42 267.32z"/>
  <path class="fil15" d="M14959.87 6791.19c-54.54,26.22 -71.11,39.47 -69.98,118.39 3.78,265.21 276.23,-16.56 69.98,-118.39z"/>
  <path class="fil15" d="M7653.61 7847.38l69.25 -3.95c31.01,-93.04 53.12,-169.65 -38.36,-218.43 -104.65,34.68 -93.73,161.74 -30.89,222.38z"/>
  <path class="fil15" d="M8347.23 7576.18c-21.05,35.82 -34.85,50.81 -32.91,111.01 0.77,23.51 0.76,29.08 9.58,51.13 50.11,125.28 189.23,17.38 99.37,-163.4l-76.04 1.26z"/>
  <path class="fil15" d="M15635.22 7000.35c48.04,-72.87 61.96,-261.9 -52.78,-214.12 -42.47,17.69 -56.23,83.17 -45.58,139.54 12.21,64.64 33.08,70.38 98.36,74.58z"/>
  <path class="fil4" d="M15606.84 16399.76l158.36 -13.7 -13.69 -194.44c-25.29,-18.33 18.61,-13.97 -67.14,-19.28l-491.94 11.72c35.86,28.14 23.03,26.66 128.63,25.25l360.41 -0.17c53.63,6.84 23.81,5.08 43.82,12.44l3.37 152.73 -121.82 25.45z"/>
  <path class="fil15" d="M7435.9 7527.16c117.06,-25.95 35.32,-81 168.77,-110.25 113.66,-24.92 135.65,33.78 171.45,44.18 98.11,28.5 18.97,7.76 51.35,-6.73 -24.27,-124 -373.82,-149.17 -391.57,72.8z"/>
  <path class="fil4" d="M8011.46 10179.33c14.74,44.27 -19.92,20.83 19.85,33.23 99.43,21.25 173.64,24.29 278.55,7.53 95.36,-15.24 139.06,-76.17 203.21,-108.86l-1.02 357.33c13.55,-63.39 17.16,-541.95 -6.66,-584.56l-12.99 4.5c41,44.6 27.25,95.97 28.05,176.89 -266.67,148.17 -121.25,133.51 -508.99,113.94z"/>
  <path class="fil21" d="M23039.76 11777.89l-22.18 5.18c156.3,439.67 -291.76,319.71 -159.95,42.89 14.97,-31.43 0.87,-2.3 17.33,-32.21l-37.9 -2.5c-49.48,133.32 -53.44,230 74.53,311.5 111.24,70.84 238.61,-150.62 128.17,-324.86z"/>
  <path class="fil15" d="M14784.13 6484.96c60.46,-39.35 50.38,-76.4 120.25,-118.77 93.01,-56.41 119.47,-3.33 187.34,-55.62 -35.14,-56.1 -151.45,-18.88 -211.85,12.07 -53.92,27.65 -143.89,94.56 -95.74,162.32z"/>
  <path class="fil15" d="M22917.97 7995.5c91.05,0.34 78.66,-46.57 177.18,-42.58 97.58,3.95 89.23,57.77 175.29,55.74 -20.26,-140.74 -311.8,-141.43 -352.47,-13.16z"/>
  <path class="fil15" d="M8298.11 7441.75c122.42,-23.77 61.43,-59.95 153.05,-50.53 77.56,7.98 53.4,52.13 144.33,61.98 -5.84,-51.77 -27.19,-92.73 -126.95,-112.03 -141.46,-27.36 -160.64,32.61 -170.43,100.58z"/>
  <path class="fil2" d="M4497.45 13378.99c-264.16,-198.57 -270.41,-412.65 -348.48,-499.14 -36.64,59.33 166.36,339.82 196.39,377.64 66.09,83.22 144.37,151.29 250.24,201.08 14.6,6.87 38.48,17.14 52.34,19.77 84.91,16.18 14.1,6.25 42.06,-6.04 -62.31,-41.27 -133.84,-49.19 -192.55,-93.31z"/>
  <path class="fil16" d="M17914.02 6883.14c49.78,148.31 173.72,251.11 255.28,360.05 17.42,23.28 21,32.98 41.9,52 54.77,49.82 30.42,14.75 38.45,11.61 5.33,-30.08 -119.23,-152.65 -158.15,-201.86 -110.01,-139.08 -84.49,-178.48 -177.48,-221.8z"/>
  <path class="fil15" d="M22926.53 8265.71c26.52,17.11 -6.34,15.88 40.12,16.27 32.24,0.28 79.08,-30.58 157.36,-10.54 90.42,23.15 60.45,63.81 153.19,83.58 -14.53,-139.42 -261.19,-183.59 -350.67,-89.31z"/>
  <path class="fil15" d="M22204.44 8344.74c94.52,8.59 36.16,-100.16 218,-57.51 82.39,19.33 36.18,26.38 86.69,-3.44 -70.68,-82.14 -192.23,-75.17 -271.1,-7.04 -45.97,39.72 -40.73,28.36 -33.59,67.99z"/>
  <path class="fil6" d="M8231.05 12246.44c28.29,76.32 44.08,119.88 107.44,135.65 -0.34,-3.19 -110.44,-314.3 -121.88,-330.98 -19.42,19.28 -15.63,-41.33 -22.67,47.18l37.11 148.15z"/>
  <path class="fil13" d="M9825.6 12724.33c65.07,-91.07 68.53,-133.05 176.84,-249.84 45.89,-49.48 39.7,-21.89 68.58,-94.38 -80.52,27.74 -109.19,72.21 -170.03,156.51l-81.91 135.4c-25.16,77.97 0.93,44.11 6.52,52.31z"/>
  <path class="fil15" d="M22202.37 8039.66c85.06,-6.85 75.79,-74.66 220.56,-26.9 3.37,1.12 38.97,15.91 43.31,16.04 49.69,1.51 19.9,-2.7 43.46,-16.18 -16.12,-19.77 -11.62,-29.44 -70.19,-50.08 -91.96,-32.4 -241.09,-6.05 -237.14,77.12z"/>
  <path class="fil16" d="M19413.65 7315.54c37.1,-127.39 -2.74,-435.45 -98.4,-516.72 2.45,85.64 50.15,132.69 66.55,226.42 13.06,74.59 19.78,252.6 31.85,290.3z"/>
  <path class="fil15" d="M15582.34 6385.56c46.12,19.36 87.11,8.58 142.78,30.15 70.53,27.33 36.7,45.53 113.44,51.66 9.11,-88.91 -147.79,-122.92 -192.83,-121.91 -94.74,2.13 -51.58,27.36 -63.39,40.1z"/>
  <path class="fil17" d="M13952.25 7209.52c12.67,52.08 -13.12,18.24 28.1,47.27 14.66,10.32 20.22,6.76 42.28,22.19 -26.03,40.95 -3.67,8.59 -28.55,38.77 -28.12,34.12 -42.18,28.55 -43.92,92.07 67.94,-43.25 4.02,-54.77 106.42,-80.93 38.78,65.26 13,63.71 68.9,91.25 -19.39,-124.62 -66.32,-176.33 -173.23,-210.62z"/>
  <path class="fil5" d="M6505.98 8077.06c-70.23,96.13 -130.15,60.39 -94.18,96.54 27.67,13.1 114.98,-40.79 144.45,-70.59 -32.34,-62.74 -120.76,-128.48 -185.6,-145.05 18.85,52.41 72.34,87.03 135.33,119.1z"/>
  <path class="fil2" d="M23772 10131.35l-60.34 212.5c46.38,-55.35 87.3,-130.43 114.98,-216.24l-41.12 -10.86 -13.52 14.6z"/>
  <path class="fil22" d="M23740.46 10043.75c29.48,-24.34 17.64,17.02 38.54,-27.45l-0.49 46.02c58.03,-61.07 52.7,-82.85 21.7,-130.77 -50.04,31.54 -45.58,35.46 -59.75,112.2z"/>
 </g>
</svg>
