<?xml version="1.0" encoding="UTF-8"?>
<!DOCTYPE svg PUBLIC "-//W3C//DTD SVG 1.0//EN" "http://www.w3.org/TR/2001/REC-SVG-20010904/DTD/svg10.dtd">
<!-- Creator: CorelDRAW 2021 (64 Bit) -->
<svg xmlns="http://www.w3.org/2000/svg" xml:space="preserve" width="297mm" height="210mm" version="1.0" style="shape-rendering:geometricPrecision; text-rendering:geometricPrecision; image-rendering:optimizeQuality; fill-rule:evenodd; clip-rule:evenodd"
viewBox="0 0 29700 21000"
 xmlns:xlink="http://www.w3.org/1999/xlink"
 xmlns:xodm="http://www.corel.com/coreldraw/odm/2003">
 <defs>
  <style type="text/css">
   <![CDATA[
    .fil5 {fill:#009933}
    .fil9 {fill:#009933}
    .fil14 {fill:#3A343A}
    .fil4 {fill:#412424}
    .fil16 {fill:#4D3232}
    .fil21 {fill:#4D3B3C}
    .fil20 {fill:#53312D}
    .fil22 {fill:#563938}
    .fil18 {fill:#5A3E3C}
    .fil17 {fill:#5A4342}
    .fil19 {fill:#5B3432}
    .fil15 {fill:#5C413E}
    .fil23 {fill:#654A47}
    .fil1 {fill:#9FD8E4}
    .fil13 {fill:#BA8D99}
    .fil2 {fill:#BB8C98}
    .fil12 {fill:#BC8E9A}
    .fil6 {fill:#EDD9DE}
    .fil3 {fill:#FE988C}
    .fil0 {fill:#FEEDDB}
    .fil10 {fill:#FEEEDD}
    .fil11 {fill:#FF6963}
    .fil7 {fill:#FF998D}
    .fil8 {fill:#FFA34F}
   ]]>
  </style>
 </defs>
 <g id="Camada_x0020_1">
  <metadata id="CorelCorpID_0Corel-Layer"/>
  <g id="_2182638563792">
   <path class="fil0" d="M15485.57 21035.34c-96.76,-94.07 -46.72,30.16 -53.43,-106.53l193.98 -590.28c10.98,-32.67 20.71,-72.68 34.75,-104.88 5.8,-13.3 25.36,-52.68 31.4,-63.33l41.54 -54.19c-15.48,317.1 -230.99,588.22 -248.24,919.21zm-5947.3 -945.46c111.63,-132.41 80.11,-92.3 222.2,-131.04 -94.55,94.41 -49.86,82.95 -222.2,131.04zm612.75 -346.88l-118.08 112.63c-100.96,65.33 -108.13,59.6 -220.12,93.58 10.12,-10.29 24.63,-40.57 30.29,-30.99l117.25 -95.15c112.12,-73.23 76.45,-54.38 190.66,-80.07zm0 0c7.1,-8.75 16.21,-35.54 20.47,-26.93 4.2,8.52 17.85,-20.46 23.7,-23.64 75.62,-41.34 16.18,-18.6 103.37,-38.28 -6.91,8.94 -15.59,13.49 -19.84,27.46 -4.2,13.79 -17.5,20.77 -23.33,23.95 -67.47,36.65 -21.44,20.1 -104.37,37.44zm147.54 -88.85c6.27,-9.21 14.05,-36.58 17.94,-28.22 3.79,8.19 16,-21.53 21.31,-24.81 66.03,-40.98 16.62,-20.1 97.24,-40.55 -29.49,44.55 76.57,42.85 -136.49,93.58zm136.49 -93.58c30.94,-47.95 -79.25,-39.27 133.96,-97.73 -28.59,45.33 39.99,50.85 -133.96,97.73zm5298.76 555.56c8.77,-184.79 191.06,-729.16 277.37,-835.43l-221 752.39c-68.88,139.99 -23.78,41.7 -56.37,83.04zm-5164.8 -653.29c31.11,-44.76 -5.03,-28.1 63.36,-78.17 46.7,-34.21 74.79,-39.12 124.61,-58.02 -36.32,59.12 20.27,21.61 -59.22,79.87 -50.14,36.76 -72.63,36.66 -128.75,56.32zm5442.17 -182.14c12.26,-266.16 157.5,-572.96 239.58,-828.88 61.51,-191.84 160.94,-644.6 272.1,-798.69 -5.42,250.54 -255.36,919.47 -353.26,1225.71 -48.32,151.18 -62.84,288.49 -158.42,401.86zm511.68 -1627.57c2.51,-128.99 4.2,-124.91 38.02,-239.79l101.93 -224.41 -119.75 436.63c-3.62,6.23 -13.44,18.41 -20.2,27.57zm-8555.49 -929.92l-46.29 45.55c-61.65,39.11 -26.26,19.43 -92.15,49.37l-561.37 228.05c93.39,-144.94 45.75,-65.43 321.98,-191.7 129.09,-59.02 221.89,-113.52 377.83,-131.27zm8695.44 465.72c7.06,-323.22 433.78,-1598.04 540.17,-2014.13 60.18,-235.43 440.27,-1907.3 559.45,-1968.78 -119.93,673.43 -568.5,2258.11 -789.76,3035.39 -49.8,174.98 -94.15,333.95 -145.67,507.14l-109.69 353.59c-68.49,158.77 -17.11,35.5 -54.5,86.79zm-2854.01 -3740.33c78.15,-160.99 263.42,-292.22 456.05,-422.26 -58.67,117.12 10.75,46.31 -116.94,163.41 -15.99,14.67 -77.36,55.5 -105.72,77.66 -95.02,74.2 -111.43,100.47 -233.39,181.19zm514.34 -464.27c78.77,-159.51 263.55,-289.87 454.24,-421.51 -59.63,123.09 12.88,44.4 -115.58,164.31l-338.66 257.2zm461.82 -418.91c77.75,-160.17 268.93,-297.96 456.03,-422.27 -81.34,162.4 -283.98,308.4 -456.03,422.27zm951.15 -868.13c-55.86,143.83 -281.06,301.99 -436.83,403.86 73.77,-149.37 2.29,-70.51 221.34,-240 86.22,-66.71 114.53,-101.36 215.49,-163.86zm-508.81 -2643.02c-27.34,103 3.42,50.85 -51.01,139.11 -55.08,89.34 -79.93,78.85 -95.27,91.31l-586.53 1039.59c-30.11,44.28 -29.16,41.01 -61.09,77.43l-50.09 42.74c-20.95,97.83 9.45,46.3 -45.32,141.14 -53.34,92.39 -81.72,83.08 -93.7,93.2 -19.58,100.52 8.64,49.05 -42.82,142.72 -118.53,215.74 9.05,6.61 -92.78,97.26 -21.01,117.7 -2.1,83.32 -76.25,197.21l-112.05 123.7c-26.06,158.26 -134.05,319.14 -237.56,419.83 -36.05,177.89 -181.85,425.81 -247.9,676.53 -64.64,245.43 -109.96,469.47 -141.99,736.51l88.17 723.24c103.86,-133.16 247.55,-234.88 424,-352.25 -69.65,150.72 -44.91,113.66 -195.92,228.38 -80.57,61.25 -128.21,100.14 -203.48,159.33l97.23 778.16c258.98,-41.21 359.62,94.9 404.31,312.84 56.4,275.19 -64.35,106.87 105.88,268.24 120.2,113.94 78.36,-11.86 188.64,196.61 129.74,158.77 -40.19,500.91 -109.08,670.11l96.28 118.41c43.84,76.65 35.71,31.81 47.36,136.67 31.27,281.25 -260.79,586.6 -369.97,811.68l306.01 2010.72 -2810.13 -104c-32.49,-1.66 -162.62,-8.88 -186.71,-6.86l-192.52 60.55c19.48,158.86 -89.91,186.25 -226.03,242.27 40.02,-73.76 -7.93,-9.54 58.56,-82.62l102.79 -103.23 -368.79 -871.42c-131.71,-83.02 -185.29,-252.28 -176.36,-413.84l-331.56 -744.21c-9.73,-6.34 -24.04,-28.99 -27.71,-21.1 -1.39,2.99 -170.94,-95.64 -151.3,-413.12l-173.39 -419.68 -139.33 -186.7 -417.62 143.44c-41.91,43.46 64.48,-9.7 -104.02,80.6 -7.26,3.9 -91.63,37.93 -100.58,41.45 -108.46,42.75 -103.47,44.01 -217.36,62.94 -13.88,14.3 -13.5,27.55 -72.62,63.13l-670.32 260.92 3.76 -42.34c-5.89,-255.08 -647.05,-2634.8 -747.59,-2798.24 -114.29,135.66 -229.64,397.57 -244.86,584.72 41.08,224.97 101.08,97.16 -294.64,409.53 -355.48,280.63 -401.6,245.73 -431.45,447.69l843.99 -639.4c299.3,577.6 286.56,993.36 -74.76,1552.86 -213.44,330.49 -105.22,329.26 -362.65,369.67 -91.26,48.5 -212.99,129.83 -313.77,205.05 -88.4,350.24 -141.38,715.64 -175.78,1079.51 -29.54,312.22 60.21,986.25 2.27,1166.61 77.13,65.71 184.58,415.34 243.93,521.73 461.74,827.75 1101,775.88 1298.28,868.59l104.21 69.15c86.94,-90.68 -131.5,-78.99 151.97,-73.44 725.04,-13.74 926.98,-201.04 1504.55,-346.83 -56.65,58 8.01,29.96 -126.11,100.22l-341.45 119.89c-13.86,5.45 -54.22,20.91 -66.86,27.51 -136.54,71.46 -24.72,10.53 -91.51,65.51 379.13,12.46 1128.01,207.3 1573.97,276.82 527.09,82.2 1064.15,147.11 1609.23,198.89 728.01,69.17 2964.06,234.22 3453.47,148.43 271.26,-75.64 799.99,-83.3 1124.19,-139.93 348.25,-60.81 681.37,-139.97 1008.14,-243.18 517.19,-163.37 1402.51,-557.01 1661.85,-868.13 120.55,-200.52 267.15,-527.74 370.83,-770.09 111.33,-260.24 212.03,-620.28 336.71,-808.51 -65.08,-90.39 -103.11,-114.72 -157.01,-185.52 -86.91,-114.08 -78.53,-152.93 -143.34,-266.65 -370.03,102.95 -585.81,170.33 -890.17,-94.51 -224.15,-195.04 -364.42,-545.45 -160.58,-912.25 318.19,-572.58 1255.6,-504.51 1374.13,258.58l280.78 -89.48c131.05,-1492.97 -87.22,-2173.34 -244.05,-3551.75 -148.23,-359.07 -149.9,-775.88 -517.37,-1552 -356.06,-752.04 -651.82,-903.48 -868.42,-1233.08 -128.03,-55.25 -419.13,-327 -574,-439.56 -149.24,-108.48 -450.25,-382.85 -635.16,-397.84 -224.76,-18.2 -1668.07,165.36 -1825.84,242.16 -3.16,366.23 161.09,1381.92 157.17,1534.66l-47.32 179.03c7.56,-415.41 -229.09,-1523.15 -148.14,-1784.59l1847.39 -217.7c-215.83,-197.17 -1527.04,-1046.93 -1841.82,-1154.6 -138.4,122.82 -187.99,293.9 -323.09,467.06 -3.92,5.03 -18.48,30.79 -21.36,23.69 -2.87,-7.07 -14.15,15.79 -21.79,23.12z"/>
   <path class="fil1" d="M7223.54 13882.63c100.54,163.44 741.7,2543.16 747.59,2798.24 230.77,-83.43 508.09,-257.94 739.18,-281.71 25.16,-26.89 0.38,-26.59 105.58,-84.87 2.06,-1.12 96.08,-40.78 100.68,-42.61 112.24,-44.4 99.71,-43.22 215.7,-57.51 92.54,-98.13 331.17,-186.19 468.45,-227.5l88.5 270.76c28.4,27.04 29.01,7.36 83.76,105.72 1.57,2.83 42.26,96.94 43.4,99.84 52.47,132.13 44.26,89.19 46.23,214.12 1375.03,-701.69 2749.41,-2603.73 3202.33,-2584.48 93.72,423.46 -385.96,1097.29 -496.09,1462.11l934.09 -945.33 -97.23 -778.16 -24.6 -35.46 -88.17 -723.24 -22.42 -197.11c-231.99,-433.08 -93.99,-1128.67 -296.86,-1613.31l-932.35 -71.91 -64.17 -2.02 -811.45 -48.53 -2756.86 -171.7 -60 -5.64 -1755.21 -97.28 629.92 3017.58z"/>
   <path class="fil2" d="M4632.29 9556.95l1020.31 1685.89c-374.29,-79.52 -1076.84,-747.12 -1411.21,-153.13 -316.27,561.9 187.25,1189.07 282.84,1563.06 5.71,8.29 16.41,10.17 18.97,23.49l163.13 230.25 125.39 124.05c65.78,76.9 67.75,90.61 121.06,157.18l754.66 901.96c263.7,-41.13 463.51,-33.16 706.1,53.15 108.18,38.48 183.52,76.87 277.42,139.06l287.72 185.44c15.22,-187.15 130.57,-449.06 244.86,-584.72l-629.92 -3017.58 1755.21 97.28c-172.16,-799.96 -577.78,-1826.83 -878.63,-2570.12 -143.18,-353.77 -1048.67,-2262.46 -1057.42,-2345.24 -120.1,-100.46 -466.27,-671.86 -594.35,-837.66 -153.35,-198.51 -472.79,-525.31 -672.29,-675.08 -744.87,-559.26 -1276,-156.1 -1489.04,671.28 -197.34,766.46 27.42,1690.11 236.67,2392.38 198.34,665.66 710.7,1848.75 738.52,1959.06z"/>
   <path class="fil3" d="M14467.14 5060.73c256.76,150.79 355.14,253.63 729.66,72.23 -50.27,74.03 54.62,50.43 -137.43,134.68 -319.73,140.25 -497.81,-92.91 -592.23,-206.91zm22.86 -331.28c0.14,-221.53 74.36,-379.28 167.18,-561.45 106.51,-209.04 143.31,-286.07 441.87,-274.28 188.18,240.7 521.95,1360.1 -609.05,835.73zm1820.43 -800.5c163.76,356.37 -97.59,580.06 -323.25,410.59 -198.27,-148.89 -138.2,-523.5 323.25,-410.59zm-2447.81 -330.1c340.75,-177.71 513.15,279.18 234.78,429.44 -277.66,149.88 -516.11,-282.74 -234.78,-429.44zm2217.88 -281.33c79.63,-152.61 551.52,-101.06 648.6,204.9 -180.85,106.37 -735.81,-37.8 -648.6,-204.9zm-2520.87 -85.67c32.2,-291.92 481.26,-343.07 677.54,-184.4 -73.34,226.18 -445.66,235.58 -677.54,184.4zm-2035.78 103.39c-460.9,50.76 -630.49,315.28 -636.02,801.66 191.52,1059.92 1005.64,1081.79 1077.29,1151.88 53.64,52.47 578.55,1748.04 2455.19,2105.43 702.76,133.83 1394.69,15.55 1970.57,-240.23 434.61,-193.05 1088.33,-707.94 1235.24,-1040.17 725.06,-5.25 662.38,-145.68 1078.07,-406.69 73.22,-155.83 206.98,-260.61 267.69,-481.42 69.07,-251.29 -14.6,-449.09 -72.55,-643.86 -668.09,-560.93 -582.26,234.55 -949.77,214.05l-36.18 -622.18c-734.19,-276.12 -1776.76,-1446.33 -2182.33,-2135.98 -208.05,-353.81 -247.89,-565.66 -399.4,-970.56 -440.09,732.21 -614.06,910.82 -1299.16,1451.24 -1144.73,902.99 -1730.54,724 -1860.35,1118.2 -64.24,195.07 -26.06,327.32 -155.71,484.67 -162.74,-219.53 -290.9,-342.35 -325.62,-735.46l-166.96 -50.58z"/>
   <path class="fil4" d="M10439.93 4441.49c108.55,267.3 161.53,658.04 -8.08,921.46 -68.79,433.36 -410.65,592.46 -736.48,804.01 -18.11,681.36 312.23,1254.2 615.1,1662.56 157.07,211.8 367.3,400.84 561.77,599.69 186.04,190.2 395.17,271.96 597.39,521.67l496.19 237.02 -47.61 -41.01c-6.19,-4.7 -18.17,-14.54 -25.27,-19.58 -7.22,-5.13 -18.98,-13.35 -26.78,-18.5 -11.93,-7.89 -75.11,-42.89 -87.89,-50.32 -134.11,-78.02 -92.68,-30.82 -196.49,-144.01 241.28,-165.54 1254.11,-567.18 1586.06,-594.03 40.78,747.53 198.58,1609.61 291.49,2357.97 246.03,1981.64 36.43,717.52 -188.81,2197.02l22.42 197.11c32.03,-267.04 77.35,-491.08 141.99,-736.51 66.05,-250.72 211.85,-498.64 247.9,-676.53 -139.44,-206.4 -302.09,-1981.29 -346.82,-2360.01l-121.98 -1035.79c438.16,-394.3 412.81,36.94 634.71,-701.91l318.15 268.9c125.35,79.49 245.53,132.64 407.66,140.79 333.63,16.78 549.29,-208.31 680.3,-351.57 -20.31,764.45 13.53,345.97 270.8,876.22 -91.04,202.75 -247.1,371.86 -298.35,558.13 7.64,-7.33 18.92,-30.19 21.79,-23.12 2.88,7.1 17.44,-18.66 21.36,-23.69 135.1,-173.16 184.69,-344.24 323.09,-467.06 314.78,107.67 1625.99,957.43 1841.82,1154.6l-1847.39 217.7c-80.95,261.44 155.7,1369.18 148.14,1784.59l47.32 -179.03c3.92,-152.74 -160.33,-1168.43 -157.17,-1534.66 157.77,-76.8 1601.08,-260.36 1825.84,-242.16 184.91,14.99 485.92,289.36 635.16,397.84 154.87,112.56 445.97,384.31 574,439.56 1091,-316.27 1718.19,-1454.46 1425.02,-2824.59 -172.68,-228.24 -61.93,-186.16 -371.43,-497.15 -524.83,-527.35 -988.72,-732.98 -1010.66,-1549.98 -415.69,261.01 -353.01,401.44 -1078.07,406.69 -146.91,332.23 -800.63,847.12 -1235.24,1040.17 -575.88,255.78 -1267.81,374.06 -1970.57,240.23 -1876.64,-357.39 -2401.55,-2052.96 -2455.19,-2105.43 -71.65,-70.09 -885.77,-91.96 -1077.29,-1151.88l-447.9 304.59z"/>
   <path class="fil2" d="M20294.81 9693.69c689.12,-287.55 1095.89,786.09 452.76,1030.15 -691.49,262.42 -1146.99,-740.48 -452.76,-1030.15zm1587.27 -1630.62l-134.87 219.32c-51.1,-77.87 -20.3,8.33 -39.03,-105.97 -17.43,-106.35 -4.64,-14.97 -4.06,-74.13 0.27,-26.92 23.7,-161.63 27.61,-210.18 92.28,-1149.97 -1157.79,-947.36 -1645.45,-137.86 293.17,1370.13 -334.02,2508.32 -1425.02,2824.59 216.6,329.6 512.36,481.04 868.42,1233.08 367.47,776.12 369.14,1192.93 517.37,1552 209.76,-96.34 349.88,-262.54 577.51,-359.12 57.88,-438.8 442.45,-1059.55 655.79,-1286.04 100.91,-107.13 392.51,-320.68 587.14,-387.08 381.11,-129.99 514.12,-25.92 829.73,41.38 1049.41,-881.63 1394.65,-1239.79 2306.98,-2250.98 112.94,-125.2 265.28,-314.08 395.88,-487.35 191.59,-254.17 563.11,-717 672.19,-1094.14 175.67,-607.28 -179.93,-981.25 -637.94,-1122.54 -1641.93,-506.48 -3297.07,1511.57 -3552.25,1645.02z"/>
   <path class="fil4" d="M12333.9 1093.58c-606.53,748.08 -565.99,1166.43 -810.05,2241.66l166.96 50.58c34.72,393.11 162.88,515.93 325.62,735.46 129.65,-157.35 91.47,-289.6 155.71,-484.67 129.81,-394.2 715.62,-215.21 1860.35,-1118.2 685.1,-540.42 859.07,-719.03 1299.16,-1451.24 151.51,404.9 191.35,616.75 399.4,970.56 405.57,689.65 1448.14,1859.86 2182.33,2135.98l36.18 622.18c367.51,20.5 281.68,-774.98 949.77,-214.05 300.49,-975.54 81.93,-1336.79 -53.31,-2212.01 -548.47,-322.07 -279.09,-572.45 -469.53,-823.27 -194.89,-373.8 -753.11,-843.38 -1178.22,-1070.25 -1352.85,-722.04 -3000.79,-709.12 -4287.02,131.16 -124.82,81.57 -230.19,155.43 -316.64,242.16 -123.29,123.72 -117.71,153.82 -260.71,243.95z"/>
   <path class="fil3" d="M13552.34 15658.73c-50.26,153.2 -130.96,247.01 -259.23,336.62 51.58,-109.2 54.51,-118.13 117.48,-200.17 9.32,-12.12 60.11,-72.21 62.22,-74.39 60.9,-62.73 26.11,-26.83 79.53,-62.06zm0 0c23.05,-63.43 18.46,-73.5 57.54,-126.7 52.1,-70.95 28.99,-28.22 79.02,-61.84 -18.44,49.4 -24.99,81.95 -57.9,126.95 -53.66,73.36 -27.29,27.76 -78.66,61.59zm136.56 -188.54c22.03,-61.49 19.41,-76.94 58.8,-129.32 59.09,-78.52 20.46,-23.29 96.8,-79.87l-155.6 209.19zm-3826.29 1206.92c-19.64,317.48 149.91,416.11 151.3,413.12 3.67,-7.89 17.98,14.76 27.71,21.1 139.74,77.89 108.1,128.8 212.68,349.92 75.11,158.86 121.08,209.74 118.88,394.29 -8.93,161.56 44.65,330.82 176.36,413.84 106.12,31.4 37.42,-48.07 125.45,122.59 13.5,26.18 49.25,131.19 65.3,167.31 47.98,108.13 97.2,216.53 146.82,305.61 258.94,-199.08 1240.22,-553.3 1614.92,-724.48 254.69,-116.37 559.94,-230.79 775.13,-386.06 251.93,-181.79 375.73,-433.94 589.2,-630.38 109.18,-225.08 401.24,-530.43 369.97,-811.68 -11.65,-104.86 -3.52,-60.02 -47.36,-136.67l-96.28 -118.41 -252.27 397.07c-103.91,119.6 -15.53,35.21 -128.63,103.7 263.05,-470.42 403.79,-481.82 489.98,-1170.88 -110.28,-208.47 -68.44,-82.67 -188.64,-196.61 -170.23,-161.37 -49.48,6.95 -105.88,-268.24 -44.69,-217.94 -145.33,-354.05 -404.31,-312.84l-934.09 945.33c110.13,-364.82 589.81,-1038.65 496.09,-1462.11 -452.92,-19.25 -1827.3,1882.79 -3202.33,2584.48z"/>
   <path class="fil5" d="M8401.05 8157.2c460.37,-159.21 818.07,143.99 925.65,471.17 145.3,441.85 -152.97,844.5 -472.47,939.98 -932.83,278.76 -1414.65,-1078.64 -453.18,-1411.15zm-1988.27 -2110.23c8.75,82.78 914.24,1991.47 1057.42,2345.24 300.85,743.29 706.47,1770.16 878.63,2570.12l60 5.64c60.95,-367.39 211.43,-392.09 555.97,-452.24 182.33,-383.16 1878.75,-1328.78 2504.83,-1564.85 -202.22,-249.71 -411.35,-331.47 -597.39,-521.67 -194.47,-198.85 -404.7,-387.89 -561.77,-599.69 -302.87,-408.36 -633.21,-981.2 -615.1,-1662.56 -667.31,168.31 -996.94,300.32 -1768.66,139.08 -891.66,-186.31 -1051.54,-495.71 -1354.53,-653.02l-159.4 393.95z"/>
   <path class="fil0" d="M11905.05 9870.24c62.32,-116.95 -0.39,-30.47 68.08,-110.42l244.01 -173.9c-81.49,148.53 -146.12,183.85 -312.09,284.32zm388.68 -490.07c112.29,32.74 43.31,-19.08 125.68,59.06l-189.94 146.64c6.91,-13.07 17.91,-29.08 22.63,-38.13l46.57 -93.03c10.42,-32.58 11.05,-2.74 -4.94,-74.54zm0 0c-114.72,-22.44 -86.31,-5.04 -199.08,-77.77 -45.72,-29.5 -43.56,-30.82 -80.77,-62.25l-48.06 -52.25c149.07,33.26 220.8,69.35 327.91,192.27zm-327.91 -192.27l-496.19 -237.02c-626.08,236.07 -2322.5,1181.69 -2504.83,1564.85 484.93,-5.39 1783.25,-105.35 2113.07,170.68 95.13,125.74 79.74,259.15 87.82,453.26l811.45 48.53 -408.41 -1056.25c84.55,-110.94 173.28,-170.59 324.81,-263.14 -57.97,106.69 7.4,49.27 -121.19,156.35 -31.45,26.18 -100.45,62.25 -151.26,89.15l420.22 1075.91 932.35 71.91c202.87,484.64 64.87,1180.23 296.86,1613.31 225.24,-1479.5 434.84,-215.38 188.81,-2197.02 -92.91,-748.36 -250.71,-1610.44 -291.49,-2357.97 -331.95,26.85 -1344.78,428.49 -1586.06,594.03 103.81,113.19 62.38,65.99 196.49,144.01 12.78,7.43 75.96,42.43 87.89,50.32 7.8,5.15 19.56,13.37 26.78,18.5 7.1,5.04 19.08,14.88 25.27,19.58l47.61 41.01z"/>
   <path class="fil5" d="M8205.18 3345.25l519.68 63.36c393,70.65 717.6,181.17 1007.43,350.24 178.92,104.37 245.6,154.22 394.74,302.88 162.8,162.32 176.5,204.89 312.9,379.76l447.9 -304.59c5.53,-486.38 175.12,-750.9 636.02,-801.66 244.06,-1075.23 203.52,-1493.58 810.05,-2241.66 -863.62,146.03 -1678.31,516.37 -2338.74,874.5 -333.28,180.73 -685.6,422.2 -951.04,629.7 -253.88,198.46 -699.95,549.54 -838.94,747.47z"/>
   <path class="fil6" d="M4734.46 14829.18c-158.75,609.3 -125.21,1229.14 331.72,1591.1 184.42,146.1 428.25,287.74 736.95,323.65 442.18,51.46 615.25,-134.43 856.04,-136.23 257.43,-40.41 149.21,-39.18 362.65,-369.67 361.32,-559.5 374.06,-975.26 74.76,-1552.86l-843.99 639.4c29.85,-201.96 75.97,-167.06 431.45,-447.69 395.72,-312.37 335.72,-184.56 294.64,-409.53l-287.72 -185.44c-93.9,-62.19 -169.24,-100.58 -277.42,-139.06 -242.59,-86.31 -442.4,-94.28 -706.1,-53.15 -427.81,104.62 -880.68,426.65 -972.98,739.48z"/>
   <path class="fil6" d="M20412.17 3651.4c-386.63,164.2 -795.9,397.28 -902.96,711.09 -199.96,680.02 -143.57,1232.69 299.54,1597.88 456.47,376.2 925.43,451.69 1580.66,191.2l189.06 -125.31c432.88,-296.45 685.77,-1125.23 272.16,-1793.23 -218.18,131.69 -406.05,314.46 -636.52,494 -214.15,166.85 -403.42,320 -633.28,487.87 34.79,-125.18 97.6,-152.96 276.86,-286.76l932.12 -754.96c-347.25,-453.46 -659.58,-557.8 -1377.64,-521.78z"/>
   <path class="fil5" d="M18899.33 4581.84c57.95,194.77 141.62,392.57 72.55,643.86 -60.71,220.81 -194.47,325.59 -267.69,481.42 21.94,817 485.83,1022.63 1010.66,1549.98 309.5,310.99 198.75,268.91 371.43,497.15 487.66,-809.5 1737.73,-1012.11 1645.45,137.86 -3.91,48.55 -27.34,183.26 -27.61,210.18 -0.58,59.16 -13.37,-32.22 4.06,74.13 18.73,114.3 -12.07,28.1 39.03,105.97l134.87 -219.32c23.14,-708.26 -171.72,-1381.93 -303.61,-2036.81l-189.06 125.31c-143.53,226.81 -572.7,324.94 -914.08,298.86 -1259.32,-96.16 -1492.49,-1684.5 -966.12,-2087.94 107.06,-313.81 516.33,-546.89 902.96,-711.09 -203.42,-292.88 -936.42,-1071.88 -1293.88,-1219.46l-272.27 -62.11c135.24,875.22 353.8,1236.47 53.31,2212.01z"/>
   <path class="fil7" d="M20624.56 13004.8l-18.13 26.44c752.18,207.86 1792.63,593.56 2663.68,520.67 115.63,-312.65 80.74,-886.23 7.96,-1212.57 -115.84,-519.53 -302.99,-652.79 -526.31,-925.55 -70.06,10.29 -54.54,27.04 -54.54,-40.73 -315.61,-67.3 -448.62,-171.37 -829.73,-41.38 -194.63,66.4 -486.23,279.95 -587.14,387.08 -213.34,226.49 -597.91,847.24 -655.79,1286.04z"/>
   <path class="fil0" d="M21555.7 15448.28c895.35,30.89 1619.16,-998.29 1714.41,-1896.37 -871.05,72.89 -1911.5,-312.81 -2663.68,-520.67 -102.02,559.12 -147.79,1034.98 31.41,1576.58 132.96,401.81 458.76,853.85 917.86,840.46z"/>
   <path class="fil5" d="M3744.02 13459.44c96.01,1047.34 490.71,2252.37 849.07,3155.77 406.9,1025.79 991.09,1810.32 1578.8,2443.66 57.94,-180.36 -31.81,-854.39 -2.27,-1166.61 34.4,-363.87 87.38,-729.27 175.78,-1079.51 -359.9,49.89 -499.59,140.69 -903.61,22.74 -276.49,-80.74 -519.46,-261.61 -646.31,-423.72 -276.28,-353.08 -508.9,-1252.96 -61.02,-1582.59 92.3,-312.83 545.17,-634.86 972.98,-739.48l-754.66 -901.96c-53.31,-66.57 -55.28,-80.28 -121.06,-157.18l-125.39 -124.05c47.78,336.72 -29.5,578.42 -279.62,692.97 -306.1,140.16 -500.2,-18.22 -682.69,-140.04z"/>
   <path class="fil8" d="M8365.43 5979.7l30.91 130.53c1623.79,62.2 1942.53,-727.39 2035.51,-747.28 169.61,-263.42 116.63,-654.16 8.08,-921.46 -136.4,-174.87 -150.1,-217.44 -312.9,-379.76 -149.14,-148.66 -215.82,-198.51 -394.74,-302.88 -289.83,-169.07 -614.43,-279.59 -1007.43,-350.24l-139.46 9.73c-178.26,886.55 -271.36,1614.82 -219.97,2561.36z"/>
   <path class="fil0" d="M6259.33 4623.17c168.63,371.86 98.58,608.03 707.38,1018.82 381.96,257.74 795.04,384.71 1328.96,460.96 101.02,-79.5 30.95,19.3 69.76,-123.25 -51.39,-946.54 41.71,-1674.81 219.97,-2561.36l139.46 -9.73 -519.68 -63.36c-508.84,149.56 -751.85,17.26 -1295.06,327.11 -161.6,92.2 -344.97,270.44 -438.13,397.61 -149.87,204.6 -120.06,323.55 -212.66,553.2z"/>
   <path class="fil5" d="M20047.05 13363.92c156.83,1378.41 375.1,2058.78 244.05,3551.75 579.52,-33.14 900.85,348.48 787.73,929.75 355.67,-376.68 951.56,-1686.4 1110.37,-2336.99 -136.69,28.06 -221.06,51.41 -363.96,42.38 -152.24,-9.61 -187.55,-21.84 -269.54,-102.53 -459.1,13.39 -784.9,-438.65 -917.86,-840.46 -179.2,-541.6 -133.43,-1017.46 -31.41,-1576.58l18.13 -26.44c-227.63,96.58 -367.75,262.78 -577.51,359.12z"/>
   <path class="fil3" d="M13336.01 9299.5c717.09,237.44 714.14,207.58 1524.99,248.88 80.42,-57.46 39.66,-23.81 93.07,-105.73 23.46,-35.98 29.82,-58.81 53.77,-89.22 43.01,-54.65 47.42,-47.14 73.18,-68.74 22.4,-93.12 -6.8,-47.44 47.39,-135.38 114.93,-186.53 9.98,-21.89 98.89,-95.04 51.25,-186.27 207.31,-355.38 298.35,-558.13 -257.27,-530.25 -291.11,-111.77 -270.8,-876.22 -131.01,143.26 -346.67,368.35 -680.3,351.57 -162.13,-8.15 -282.31,-61.3 -407.66,-140.79l-318.15 -268.9c-221.9,738.85 -196.55,307.61 -634.71,701.91l121.98 1035.79z"/>
   <path class="fil1" d="M10887.11 18864.89l95.9 219.49 192.52 -60.55c24.09,-2.02 154.22,5.2 186.71,6.86l2810.13 104 -306.01 -2010.72c-213.47,196.44 -337.27,448.59 -589.2,630.38 -215.19,155.27 -520.44,269.69 -775.13,386.06 -374.7,171.18 -1355.98,525.4 -1614.92,724.48z"/>
   <path class="fil9" d="M3705.31 12740.34c273.98,-245.97 455.89,-270.24 818.92,-87.57 -95.59,-373.99 -599.11,-1001.16 -282.84,-1563.06 334.37,-593.99 1036.92,73.61 1411.21,153.13l-1020.31 -1685.89c-187.89,487.18 -455.5,865.3 -648.66,1460.23 -199.34,614.04 -214.45,1070.37 -278.32,1723.16z"/>
   <path class="fil8" d="M13682.83 11659.51c28.03,-144.8 22.95,-110.76 96.01,-233.32 4.6,-7.73 51.73,-86.87 51.83,-87.01l89.72 -99.5c26.36,-144.03 57.6,-207.21 188.3,-320.91 18.68,-94.87 -9.2,-48.18 43.02,-143.29 117.26,-213.61 -4.61,-10.93 92.58,-96.69 20.56,-96.78 -6.73,-50.01 44.29,-138.71 53.44,-92.86 81.85,-84.67 94.73,-95.63 45.01,-216.81 371.95,-621.22 477.69,-896.07 -810.85,-41.3 -807.9,-11.44 -1524.99,-248.88 44.73,378.72 207.38,2153.61 346.82,2360.01z"/>
   <path class="fil8" d="M18376.49 1546.56c190.44,250.82 -78.94,501.2 469.53,823.27l272.27 62.11c330.42,-27.99 540.85,-158.92 656.89,-398.52 274.15,-566.02 -284.69,-1184.07 -882.19,-974.86 -400.95,140.39 -295.9,370.29 -516.5,488z"/>
   <path class="fil8" d="M20010.32 17005.15l-60.53 42.68c-155.2,174.09 -226.78,289.2 -264.88,618.35l2.03 87.15c64.81,113.72 56.43,152.57 143.34,266.65 53.9,70.8 91.93,95.13 157.01,185.52 373.11,150.49 466.1,149.56 836.54,1.16l255 -361.24c113.12,-581.27 -208.21,-962.89 -787.73,-929.75l-280.78 89.48z"/>
   <path class="fil9" d="M8356.4 8260.8c-875.87,444.9 -179.59,1552.63 541.51,1207 266.06,-127.53 511.17,-494.13 336.46,-892.51 -114.95,-262.08 -504.61,-504.15 -877.97,-314.49z"/>
   <path class="fil4" d="M8408.83 10967.97l2756.86 171.7c-8.08,-194.11 7.31,-327.52 -87.82,-453.26 -329.82,-276.03 -1628.14,-176.07 -2113.07,-170.68 -344.54,60.15 -495.02,84.85 -555.97,452.24z"/>
   <path class="fil0" d="M19684.91 17666.18c38.1,-329.15 109.68,-444.26 264.88,-618.35 -95.72,-722.1 -1019.36,-818.23 -1277.76,-222.07 -144.67,333.79 16.94,654.56 195.3,807.65 231.48,198.67 564.29,149.77 817.58,32.77z"/>
   <path class="fil6" d="M6572.18 5653.02c302.99,157.31 462.87,466.71 1354.53,653.02 771.72,161.24 1101.35,29.23 1768.66,-139.08 325.83,-211.55 667.69,-370.65 736.48,-804.01 -92.98,19.89 -411.72,809.48 -2035.51,747.28l-30.91 -130.53c-38.81,142.55 31.26,43.75 -69.76,123.25 -533.92,-76.25 -947,-203.22 -1328.96,-460.96 -608.8,-410.79 -538.75,-646.96 -707.38,-1018.82 -71.95,575.77 118.52,687.12 312.85,1029.85z"/>
   <path class="fil6" d="M23270.11 13551.91c-95.25,898.08 -819.06,1927.26 -1714.41,1896.37 81.99,80.69 117.3,92.92 269.54,102.53 142.9,9.03 227.27,-14.32 363.96,-42.38 416.32,-191.26 643.66,-395.29 862.19,-716.92 211.67,-311.57 380.18,-681.48 466.89,-1108.12 189.97,-934.63 -12.95,-2011.16 -766.52,-2269.6 223.32,272.76 410.47,406.02 526.31,925.55 72.78,326.34 107.67,899.92 -7.96,1212.57z"/>
   <path class="fil0" d="M20294.81 9693.69c-694.23,289.67 -238.73,1292.57 452.76,1030.15 643.13,-244.06 236.36,-1317.7 -452.76,-1030.15z"/>
   <path class="fil10" d="M3705.31 12740.34c-127.16,319.33 -121.73,433.21 38.71,719.1 182.49,121.82 376.59,280.2 682.69,140.04 250.12,-114.55 327.4,-356.25 279.62,-692.97l-163.13 -230.25c-2.56,-13.32 -13.26,-15.2 -18.97,-23.49 -363.03,-182.67 -544.94,-158.4 -818.92,87.57z"/>
   <path class="fil9" d="M19279.75 19784.1c254.97,-138.11 695.52,-534.97 878.33,-726.64 118.48,-124.22 646.02,-730.62 665.75,-850.8 -370.44,148.4 -463.43,149.33 -836.54,-1.16 -124.68,188.23 -225.38,548.27 -336.71,808.51 -103.68,242.35 -250.28,569.57 -370.83,770.09z"/>
   <path class="fil11" d="M14490 4729.45c1131,524.37 797.23,-595.03 609.05,-835.73 -298.56,-11.79 -335.36,65.24 -441.87,274.28 -92.82,182.17 -167.04,339.92 -167.18,561.45z"/>
   <path class="fil12" d="M21389.41 6151.57c-655.23,260.49 -1124.19,185 -1580.66,-191.2 -443.11,-365.19 -499.5,-917.86 -299.54,-1597.88 -526.37,403.44 -293.2,1991.78 966.12,2087.94 341.38,26.08 770.55,-72.05 914.08,-298.86z"/>
   <path class="fil13" d="M6345.4 16812.75c100.78,-75.22 222.51,-156.55 313.77,-205.05 -240.79,1.8 -413.86,187.69 -856.04,136.23 -308.7,-35.91 -552.53,-177.55 -736.95,-323.65 -456.93,-361.96 -490.47,-981.8 -331.72,-1591.1 -447.88,329.63 -215.26,1229.51 61.02,1582.59 126.85,162.11 369.82,342.98 646.31,423.72 404.02,117.95 543.71,27.15 903.61,-22.74z"/>
   <path class="fil14" d="M8356.4 8260.8c373.36,-189.66 763.02,52.41 877.97,314.49 174.71,398.38 -70.4,764.98 -336.46,892.51 -721.1,345.63 -1417.38,-762.1 -541.51,-1207zm44.65 -103.6c-961.47,332.51 -479.65,1689.91 453.18,1411.15 319.5,-95.48 617.77,-498.13 472.47,-939.98 -107.58,-327.18 -465.28,-630.38 -925.65,-471.17z"/>
   <path class="fil15" d="M16662.81 17188.93c37.39,-51.29 -13.99,71.98 54.5,-86.79l109.69 -353.59c51.52,-173.19 95.87,-332.16 145.67,-507.14 221.26,-777.28 669.83,-2361.96 789.76,-3035.39 -119.18,61.48 -499.27,1733.35 -559.45,1968.78 -106.39,416.09 -533.11,1690.91 -540.17,2014.13z"/>
   <path class="fil16" d="M19686.94 17753.33l-2.03 -87.15c-253.29,117 -586.1,165.9 -817.58,-32.77 -178.36,-153.09 -339.97,-473.86 -195.3,-807.65 258.4,-596.16 1182.04,-500.03 1277.76,222.07l60.53 -42.68c-118.53,-763.09 -1055.94,-831.16 -1374.13,-258.58 -203.84,366.8 -63.57,717.21 160.58,912.25 304.36,264.84 520.14,197.46 890.17,94.51z"/>
   <path class="fil4" d="M13862.62 3598.85c-281.33,146.7 -42.88,579.32 234.78,429.44 278.37,-150.26 105.97,-607.15 -234.78,-429.44z"/>
   <path class="fil4" d="M16310.43 3928.95c-461.45,-112.91 -521.52,261.7 -323.25,410.59 225.66,169.47 487.01,-54.22 323.25,-410.59z"/>
   <path class="fil4" d="M16729.1 3522.42c-97.08,-305.96 -568.97,-357.51 -648.6,-204.9 -87.21,167.1 467.75,311.27 648.6,204.9z"/>
   <path class="fil4" d="M13559.63 3231.85c231.88,51.18 604.2,41.78 677.54,-184.4 -196.28,-158.67 -645.34,-107.52 -677.54,184.4z"/>
   <path class="fil17" d="M7818.31 20518.34l1030.59 -107.14c66.79,-54.98 -45.03,5.95 91.51,-65.51 12.64,-6.6 53,-22.06 66.86,-27.51l341.45 -119.89c134.12,-70.26 69.46,-42.22 126.11,-100.22 -577.57,145.79 -779.51,333.09 -1504.55,346.83 -283.47,-5.55 -65.03,-17.24 -151.97,73.44z"/>
   <path class="fil18" d="M16011.18 19280.7c95.58,-113.37 110.1,-250.68 158.42,-401.86 97.9,-306.24 347.84,-975.17 353.26,-1225.71 -111.16,154.09 -210.59,606.85 -272.1,798.69 -82.08,255.92 -227.32,562.72 -239.58,828.88z"/>
   <path class="fil18" d="M11977.14 11188.2l64.17 2.02 -420.22 -1075.91c50.81,-26.9 119.81,-62.97 151.26,-89.15 128.59,-107.08 63.22,-49.66 121.19,-156.35 -151.53,92.55 -240.26,152.2 -324.81,263.14l408.41 1056.25z"/>
   <path class="fil18" d="M10756.98 19326.65c136.12,-56.02 245.51,-83.41 226.03,-242.27l-95.9 -219.49c-49.62,-89.08 -98.84,-197.48 -146.82,-305.61 -16.05,-36.12 -51.8,-141.13 -65.3,-167.31 -88.03,-170.66 -19.33,-91.19 -125.45,-122.59l368.79 871.42 -102.79 103.23c-66.49,73.08 -18.54,8.86 -58.56,82.62z"/>
   <path class="fil19" d="M14092.69 16057.21c68.89,-169.2 238.82,-511.34 109.08,-670.11 -86.19,689.06 -226.93,700.46 -489.98,1170.88 113.1,-68.49 24.72,15.9 128.63,-103.7l252.27 -397.07z"/>
   <path class="fil19" d="M14861 9548.38c-105.74,274.85 -432.68,679.26 -477.69,896.07l50.09 -42.74c31.93,-36.42 30.98,-33.15 61.09,-77.43l586.53 -1039.59c-25.76,21.6 -30.17,14.09 -73.18,68.74 -23.95,30.41 -30.31,53.24 -53.77,89.22 -53.41,81.92 -12.65,48.27 -93.07,105.73z"/>
   <path class="fil18" d="M15485.57 21035.34c17.25,-330.99 232.76,-602.11 248.24,-919.21l-41.54 54.19c-6.04,10.65 -25.6,50.03 -31.4,63.33 -14.04,32.2 -23.77,72.21 -34.75,104.88l-193.98 590.28c6.71,136.69 -43.33,12.46 53.43,106.53z"/>
   <path class="fil20" d="M14467.14 5060.73c94.42,114 272.5,347.16 592.23,206.91 192.05,-84.25 87.16,-60.65 137.43,-134.68 -374.52,181.4 -472.9,78.56 -729.66,-72.23z"/>
   <path class="fil18" d="M7967.37 16723.21c-155.94,17.75 -248.74,72.25 -377.83,131.27 -276.23,126.27 -228.59,46.76 -321.98,191.7l561.37 -228.05c65.89,-29.94 30.5,-10.26 92.15,-49.37l46.29 -45.55z"/>
   <path class="fil19" d="M10373.18 17855.54c2.2,-184.55 -43.77,-235.43 -118.88,-394.29 -104.58,-221.12 -72.94,-272.03 -212.68,-349.92l331.56 744.21z"/>
   <path class="fil21" d="M7971.13 16680.87l-3.76 42.34 670.32 -260.92c59.12,-35.58 58.74,-48.83 72.62,-63.13 -231.09,23.77 -508.41,198.28 -739.18,281.71z"/>
   <path class="fil22" d="M15733.81 20116.13c32.59,-41.34 -12.51,56.95 56.37,-83.04l221 -752.39c-86.31,106.27 -268.6,650.64 -277.37,835.43z"/>
   <path class="fil21" d="M9132.27 16214.17l417.62 -143.44 139.33 186.7 -88.5 -270.76c-137.28,41.31 -375.91,129.37 -468.45,227.5z"/>
   <path class="fil23" d="M13381.11 13795.79l24.6 35.46c75.27,-59.19 122.91,-98.08 203.48,-159.33 151.01,-114.72 126.27,-77.66 195.92,-228.38 -176.45,117.37 -320.14,219.09 -424,352.25z"/>
   <path class="fil15" d="M14784.96 12565.42c172.05,-113.87 374.69,-259.87 456.03,-422.27 -187.1,124.31 -378.28,262.1 -456.03,422.27z"/>
   <path class="fil15" d="M13808.8 13448.6c121.96,-80.72 138.37,-106.99 233.39,-181.19 28.36,-22.16 89.73,-62.99 105.72,-77.66 127.69,-117.1 58.27,-46.29 116.94,-163.41 -192.63,130.04 -377.9,261.27 -456.05,422.26z"/>
   <path class="fil15" d="M14323.14 12984.33l338.66 -257.2c128.46,-119.91 55.95,-41.22 115.58,-164.31 -190.69,131.64 -375.47,262 -454.24,421.51z"/>
   <path class="fil15" d="M15736.11 11697.29c-100.96,62.5 -129.27,97.15 -215.49,163.86 -219.05,169.49 -147.57,90.63 -221.34,240 155.77,-101.87 380.97,-260.03 436.83,-403.86z"/>
   <path class="fil18" d="M13682.83 11659.51c103.51,-100.69 211.5,-261.57 237.56,-419.83l-89.72 99.5c-0.1,0.14 -47.23,79.28 -51.83,87.01 -73.06,122.56 -67.98,88.52 -96.01,233.32z"/>
   <path class="fil21" d="M8710.31 16399.16c113.89,-18.93 108.9,-20.19 217.36,-62.94 8.95,-3.52 93.32,-37.55 100.58,-41.45 168.5,-90.3 62.11,-37.14 104.02,-80.6 -115.99,14.29 -103.46,13.11 -215.7,57.51 -4.6,1.83 -98.62,41.49 -100.68,42.61 -105.2,58.28 -80.42,57.98 -105.58,84.87z"/>
   <path class="fil19" d="M13552.34 15658.73c-53.42,35.23 -18.63,-0.67 -79.53,62.06 -2.11,2.18 -52.9,62.27 -62.22,74.39 -62.97,82.04 -65.9,90.97 -117.48,200.17 128.27,-89.61 208.97,-183.42 259.23,-336.62z"/>
   <path class="fil18" d="M12293.73 9380.17c-107.11,-122.92 -178.84,-159.01 -327.91,-192.27l48.06 52.25c37.21,31.43 35.05,32.75 80.77,62.25 112.77,72.73 84.36,55.33 199.08,77.77z"/>
   <path class="fil18" d="M13920.39 11239.68l112.05 -123.7c74.15,-113.89 55.24,-79.51 76.25,-197.21 -130.7,113.7 -161.94,176.88 -188.3,320.91z"/>
   <path class="fil15" d="M11905.05 9870.24c165.97,-100.47 230.6,-135.79 312.09,-284.32l-244.01 173.9c-68.47,79.95 -5.76,-6.53 -68.08,110.42z"/>
   <path class="fil18" d="M10151.02 19743c-114.21,25.69 -78.54,6.84 -190.66,80.07l-117.25 95.15c-5.66,-9.58 -20.17,20.7 -30.29,30.99 111.99,-33.98 119.16,-28.25 220.12,-93.58l118.08 -112.63z"/>
   <path class="fil21" d="M9862.61 16677.11c-1.97,-124.93 6.24,-81.99 -46.23,-214.12 -1.14,-2.9 -41.83,-97.01 -43.4,-99.84 -54.75,-98.36 -55.36,-78.68 -83.76,-105.72l173.39 419.68z"/>
   <path class="fil19" d="M14108.69 10918.77c101.83,-90.65 -25.75,118.48 92.78,-97.26 51.46,-93.67 23.24,-42.2 42.82,-142.72 -97.19,85.76 24.68,-116.92 -92.58,96.69 -52.22,95.11 -24.34,48.42 -43.02,143.29z"/>
   <path class="fil19" d="M14244.29 10678.79c11.98,-10.12 40.36,-0.81 93.7,-93.2 54.77,-94.84 24.37,-43.31 45.32,-141.14 -12.88,10.96 -41.29,2.77 -94.73,95.63 -51.02,88.7 -23.73,41.93 -44.29,138.71z"/>
   <path class="fil22" d="M15081.02 9284.69c15.34,-12.46 40.19,-1.97 95.27,-91.31 54.43,-88.26 23.67,-36.11 51.01,-139.11 -88.91,73.15 16.04,-91.49 -98.89,95.04 -54.19,87.94 -24.99,42.26 -47.39,135.38z"/>
   <path class="fil22" d="M12293.73 9380.17c15.99,71.8 15.36,41.96 4.94,74.54l-46.57 93.03c-4.72,9.05 -15.72,25.06 -22.63,38.13l189.94 -146.64c-82.37,-78.14 -13.39,-26.32 -125.68,-59.06z"/>
   <path class="fil15" d="M16522.86 17653.13c6.76,-9.16 16.58,-21.34 20.2,-27.57l119.75 -436.63 -101.93 224.41c-33.82,114.88 -35.51,110.8 -38.02,239.79z"/>
   <path class="fil15" d="M9538.27 20089.88c172.34,-48.09 127.65,-36.63 222.2,-131.04 -142.09,38.74 -110.57,-1.37 -222.2,131.04z"/>
   <path class="fil22" d="M10569.01 19462.84c56.12,-19.66 78.61,-19.56 128.75,-56.32 79.49,-58.26 22.9,-20.75 59.22,-79.87 -49.82,18.9 -77.91,23.81 -124.61,58.02 -68.39,50.07 -32.25,33.41 -63.36,78.17z"/>
   <path class="fil20" d="M13552.34 15658.73c51.37,-33.83 25,11.77 78.66,-61.59 32.91,-45 39.46,-77.55 57.9,-126.95 -50.03,33.62 -26.92,-9.11 -79.02,61.84 -39.08,53.2 -34.49,63.27 -57.54,126.7z"/>
   <path class="fil18" d="M10435.05 19560.57c173.95,-46.88 105.37,-52.4 133.96,-97.73 -213.21,58.46 -103.02,49.78 -133.96,97.73z"/>
   <path class="fil22" d="M10298.56 19654.15c213.06,-50.73 107,-49.03 136.49,-93.58 -80.62,20.45 -31.21,-0.43 -97.24,40.55 -5.31,3.28 -17.52,33 -21.31,24.81 -3.89,-8.36 -11.67,19.01 -17.94,28.22z"/>
   <path class="fil20" d="M13688.9 15470.19l155.6 -209.19c-76.34,56.58 -37.71,1.35 -96.8,79.87 -39.39,52.38 -36.77,67.83 -58.8,129.32z"/>
   <path class="fil22" d="M10151.02 19743c82.93,-17.34 36.9,-0.79 104.37,-37.44 5.83,-3.18 19.13,-10.16 23.33,-23.95 4.25,-13.97 12.93,-18.52 19.84,-27.46 -87.19,19.68 -27.75,-3.06 -103.37,38.28 -5.85,3.18 -19.5,32.16 -23.7,23.64 -4.26,-8.61 -13.37,18.18 -20.47,26.93z"/>
  </g>
 </g>
</svg>
