<?xml version="1.0" encoding="UTF-8"?>
<!DOCTYPE svg PUBLIC "-//W3C//DTD SVG 1.0//EN" "http://www.w3.org/TR/2001/REC-SVG-20010904/DTD/svg10.dtd">
<!-- Creator: CorelDRAW 2021 (64 Bit) -->
<svg xmlns="http://www.w3.org/2000/svg" xml:space="preserve" width="86.6986mm" height="86.6986mm" version="1.0" style="shape-rendering:geometricPrecision; text-rendering:geometricPrecision; image-rendering:optimizeQuality; fill-rule:evenodd; clip-rule:evenodd"
viewBox="0 0 8669.86 8669.86"
 xmlns:xlink="http://www.w3.org/1999/xlink"
 xmlns:xodm="http://www.corel.com/coreldraw/odm/2003">
 <defs>
  <style type="text/css">
   <![CDATA[
    .str0 {stroke:#0B2438;stroke-width:16.93;stroke-miterlimit:22.9256}
    .str1 {stroke:black;stroke-width:1.81;stroke-miterlimit:22.9256}
    .str2 {stroke:black;stroke-width:20;stroke-miterlimit:22.9256}
    .str3 {stroke:black;stroke-width:7.62;stroke-miterlimit:22.9256}
    .fil7 {fill:none}
    .fil12 {fill:black}
    .fil28 {fill:#003333}
    .fil1 {fill:#0B2438}
    .fil22 {fill:#0C2438}
    .fil11 {fill:#105443}
    .fil27 {fill:#146F33}
    .fil3 {fill:#1B2E35}
    .fil8 {fill:#2C444E}
    .fil10 {fill:#339966}
    .fil32 {fill:#343A6D}
    .fil6 {fill:#445B65}
    .fil17 {fill:#537E87}
    .fil13 {fill:#C66051}
    .fil14 {fill:#C6614D}
    .fil0 {fill:#CC6633}
    .fil9 {fill:#DD866A}
    .fil23 {fill:#E65C25}
    .fil2 {fill:#E7E7E7}
    .fil24 {fill:#EFF0F0}
    .fil29 {fill:#F2AE5A}
    .fil26 {fill:#F53253}
    .fil25 {fill:#F8DD72}
    .fil30 {fill:#FD3F5B}
    .fil31 {fill:#FD618A}
    .fil18 {fill:#FEFEFE}
    .fil5 {fill:#FF6600}
    .fil15 {fill:#FFABA8}
    .fil4 {fill:white}
    .fil16 {fill:black;fill-rule:nonzero}
    .fil19 {fill:#6C868B;fill-rule:nonzero}
    .fil21 {fill:#E65C25;fill-rule:nonzero}
    .fil20 {fill:#FEFEFE;fill-rule:nonzero}
   ]]>
  </style>
   <clipPath id="id0">
    <path d="M6315.95 2120.58c-57,-11.8 -104.24,-29.52 -147.92,-56.09 -40.49,-24.63 -86.9,-64.3 -106.74,-102.85l89.41 -108.51c228.03,-293.24 178.19,-759.14 -89.15,-1004.74 -223.38,-205.22 -584.32,-294.28 -890.76,-122.37 -516.56,289.77 -527.95,967.31 -103.72,1286.07 156.2,117.37 371.23,190.97 620.06,140.25 172.64,-35.19 119.94,-75.7 216.1,-32.63 114.68,51.36 330.32,65.08 412.72,0.87z"/>
   </clipPath>
   <clipPath id="id1">
    <path d="M6315.95 2120.58c-57,-11.8 -104.24,-29.52 -147.92,-56.09 -40.49,-24.63 -86.9,-64.3 -106.74,-102.85l89.41 -108.51c228.03,-293.24 178.19,-759.14 -89.15,-1004.74 -223.38,-205.22 -584.32,-294.28 -890.76,-122.37 -516.56,289.77 -527.95,967.31 -103.72,1286.07 156.2,117.37 371.23,190.97 620.06,140.25 172.64,-35.19 119.94,-75.7 216.1,-32.63 114.68,51.36 330.32,65.08 412.72,0.87z"/>
   </clipPath>
 </defs>
 <g id="Camada_x0020_1">
  <metadata id="CorelCorpID_0Corel-Layer"/>
  <path class="fil0" d="M4166.5 1757.7c-14.21,7.02 -39.21,18.26 -54.32,26.86l-50.12 28.91c-0.52,-0.88 -2.06,1.14 -3.1,1.69 -25.36,12.6 -51.07,28.97 -76.27,43.65 -20.06,11.69 -57.86,36.72 -77.18,43.15l-132.32 78c-41.19,23.6 -86.01,49.34 -131.99,75.92 -120.1,69.43 -53.75,67.03 -88.3,119.6 -20.02,30.46 -86.1,62.21 -121.87,82.41l-460.69 266.08c-20.07,11.27 -44.59,27.97 -66.23,37.45l-3.87 -5.54c-0.55,-0.72 -1.32,-1.85 -1.92,-2.62 -9.13,-11.67 -20.31,-18.02 -35.48,-25.87 -23.05,-11.92 -37.19,-1.12 -54.89,9.5l-455.07 263.12c-107.99,62.39 -88.63,39.83 -162.3,120.49 2.25,13.18 -2.34,8.61 11.74,18.73 2.02,1.45 13.63,7.51 15.51,8.52 -14.28,43.1 -35.74,65.8 -36.64,121.64 -0.82,51.39 0.12,103.74 0.12,155.24l0.37 4611.3c4.74,41.51 21.98,34.74 15.63,43.01 22.94,29.98 67.45,24.7 96.63,8.57l559.24 -322.59c27.39,-14.55 50.11,-29.55 77.38,-44.92l119.08 -68.83c14.81,-8.47 24.33,-15.01 41.15,-23.79 67.48,-35.22 169.69,-100.93 238.16,-137.88 13.89,-7.5 24.39,-13.07 38.57,-22.22l797.07 -459.9c128.56,-72.87 144.39,-139.36 144.39,-297.77 0,-82.97 0.07,-165.95 0,-248.92 -0.06,-57.68 0.84,-57.37 19.42,-106.37 8.95,-23.58 23.26,-68.39 35,-90.21 -14.26,1.42 -15.15,-1.83 -28.09,-5.95 -0.08,-0.03 -14.71,-4.96 -15.08,-5.24 -9.71,-7.17 -6.52,-1.93 -8.86,-15.08l-2.07 -1208.43c-1.51,23.08 22.51,126.42 29.79,155.35 34.86,138.65 89.43,175.07 214.9,254.51 16.92,10.71 44.96,26.68 56.86,40.47 11.81,-0.24 12.52,2.23 23.71,9.26 4.06,2.54 8.25,4.99 12.7,8.08 0.71,0.49 1.73,1.16 2.4,1.65l8.52 7.39c27.72,8.88 83.2,47.05 113.32,62.76 22.53,11.76 38.84,21.4 57.86,31.89 13.6,7.51 43.67,20.23 55.94,31.01 14.91,2.36 43.59,14.19 50.44,28.14 40.48,2.91 228.66,128.91 343.83,129.97 5.95,96.09 -0.33,216.75 -0.33,315.78 0,95.46 3.57,746.61 -1.59,791.66 -3.51,30.61 -4.92,131.83 0.62,160.13 18.47,9.75 35.41,16.29 55.1,0.75 0.7,-1.03 1.51,-3.89 1.75,-3.31 0.23,0.58 1.3,-2.44 1.59,-3.39 9.37,-30.43 -3.3,21.47 2.22,-7.27l0.74 -61.22c0.05,-24.53 1.13,-53.48 -0.87,-77.53 -7.15,-85.77 -2.68,-379.85 -2.68,-477.45 0,-41.32 -3.44,-611.91 0.98,-636.23 102.88,-3.87 185.36,-40.28 271.69,-82.83 25.1,-12.38 56.64,-33 79.59,-40.03 12.55,-12.45 33.46,-24.92 50.95,-22.72 7.89,-11.64 38.62,-24.98 54.92,-33.12 19.63,-9.79 37.03,-19.6 55.84,-29.98 19.48,-10.76 99.08,-59.01 113.98,-58.31 6.2,-10.64 -1.62,-1.71 8.77,-10.65 1.89,-1.64 9.72,-6.09 12.91,-7.83 8.84,-4.84 14.21,-8.73 24.89,-11.7 11.11,-11.33 57.63,-36.27 73.12,-45.09 21.57,-12.29 48.86,-29.17 73.35,-45.17 36.22,-23.65 125.69,-69.77 124.39,-115.79l1.07 -50.45c-48.8,52.02 -32.67,42.54 -94.7,79.04l-20.19 12.9c-56.07,37.05 -88.91,52.46 -139.94,84.09 -72.74,45.08 -154.48,86.59 -221.83,125.31l-171.45 89.57c-197.4,104.42 -336.65,134.06 -540.15,37.8l-324.35 -169.95c-6.1,-3.21 -5.74,-3.7 -15.5,-8.85 -12.83,-6.77 -13.84,-8.24 -25.43,-15.4l-5.36 -3.03c-3.57,-1.99 -4.94,-2.45 -7.99,-4.14l-108.78 -66.75c-26.63,-20.61 -84.47,-54.69 -115.82,-80.1 -14.96,-12.14 -33.13,-32.42 -48.5,-41.37 9.04,-59.89 74.57,-121.85 119.71,-161.71 0.15,-0.14 6.05,-6.01 6.1,-6.06l372.17 -264.92c2.43,-1.78 3.7,-2.96 7.23,-5.24 6.63,-4.28 8.5,-4.82 15.79,-8.46l114.71 -64.99c8.55,-5.43 6.53,-3.96 16.65,-8.86 87.39,-42.29 188.47,-99.8 294.5,-114.57 7.21,-1 14.89,-1.66 22.32,-2.34 14.31,-1.29 11.86,4.48 10.17,-4.2 -1.78,-8.25 -7.42,-10.08 -15.73,-20.02 -17.39,-20.77 -34.5,-55.85 -43.86,-78.45 -122.99,-296.99 -185.26,-899.99 -299.69,-1035.25 -35.12,-41.51 -45.9,-40.94 -96.99,-69.99 -45.71,-26 -75.79,-27.26 -134.43,-14.16 -124.71,27.85 -462.66,191.51 -520.72,312.54 -5.84,-66.6 -1.4,-377.19 -1.4,-469.17l0.13 -946.73c0,-78.07 2.09,-159.13 -0.47,-236.85 -2.45,-74.55 -25.18,-81.46 -67.86,-108.71 -16.58,-10.59 -26.91,-9.95 -42.36,-17.62 -4.21,-60.61 7.93,-269.38 -3.61,-304.56l-1.44 308.58 -27 2.18z"/>
  <path class="fil1" d="M2201.4 7248.2c19.77,-3.5 10.72,-2.12 25.44,-11.22 0.71,-0.45 1.68,-1.1 2.4,-1.54 0.74,-0.44 1.78,-1.03 2.53,-1.47l55.12 -30.73c14.56,-8.39 13.42,-11.79 28.92,-19.23 4.39,-2.11 3.6,-1.76 8.48,-4.28l40.95 -24.51c42.99,-27.39 109.35,-58.27 133.2,-75.47 5.86,-4.22 8.06,-6.72 13.82,-9.78l202.93 -116.19c24.76,-17.07 53.26,-26.69 78.66,-43.48l73.97 -44.51c1.02,-0.69 3.79,-2.75 4.78,-3.43l171.32 -97.7c0.73,-0.43 1.78,-1.01 2.54,-1.42l89.8 -52.98c0.76,-0.43 1.81,-1.01 2.58,-1.44l5.3 -2.84c11.78,-6.44 23,-11.77 34.27,-19.27 18.49,-12.33 34.29,-16.03 52.02,-29.55 0.68,-0.52 1.63,-1.28 2.31,-1.79l4.69 -3.42c0.71,-0.48 1.72,-1.13 2.45,-1.58l199.57 -114.54c52.31,-31.95 111.09,-59.81 163.13,-93.9l133.29 -75.12c28.1,-18.79 55.6,-38.02 86.56,-51.28 6.62,-2.83 7.14,-3.23 11.36,-5.82l63.82 -37.44c8.74,-4.16 1.92,-0.19 8.41,-4.57 1.05,-0.71 5.98,-5.09 6.89,-5.84l378.62 -221.53 0 -3607.35 -19.8 -2.37c-14.8,0.27 -109.77,58.03 -131.99,70.86l-905.5 522.46c-64.36,36.18 -200.47,120.59 -258.13,150.18 -82.45,42.33 -185.59,112.1 -258.76,149.34 -83.15,42.31 -184.21,111.01 -258.87,149.11l-258.57 151.99 1.49 3623.65z"/>
  <path class="fil2" d="M4363.4 6064.11c-11.74,21.82 -26.05,66.63 -35,90.21 -18.58,49 -19.48,48.69 -19.42,106.37 0.07,82.97 0,165.95 0,248.92 0,158.41 -15.83,224.9 -144.39,297.77l-797.07 459.9c-14.18,9.15 -24.68,14.72 -38.57,22.22 -68.47,36.95 -170.68,102.66 -238.16,137.88 -16.82,8.78 -26.34,15.32 -41.15,23.79l-119.08 68.83c-27.27,15.37 -49.99,30.37 -77.38,44.92l-559.24 322.59c-29.18,16.13 -73.69,21.41 -96.63,-8.57 -12.31,-6.8 -21.37,-11.21 -29.74,-20.58 -11.87,-13.28 -9.88,-21.82 -19.61,-34.07l-162.19 93.12c-113.32,68.49 -290.89,-15.35 -340.32,-116.48 -21.92,-44.83 -25.41,-180.27 -16.86,-235.06 -10.21,7.68 -12.22,14.87 -18.26,24.95l-47.35 62.76c-78.13,88.83 -228.05,109.66 -347.32,91.55 -137.18,-20.82 -194.72,-83.06 -256.85,-191.96 -17.92,-31.41 -29.81,-72.52 -43.92,-101.47 -285.12,207.6 42.97,509.01 494.38,447.15 116.53,-15.98 68.23,-39.73 173.14,22.03 47.82,28.16 99.73,57.42 148,84.94 113.34,64.6 124.44,80.91 243.91,6.21 21.61,-13.52 51.57,-29.19 75.18,-43.27 50.46,-30.07 34.77,-27.3 148.9,38.48 21.43,12.35 48.39,33.03 75.91,38.72 52.31,10.82 102.56,-30.75 162.65,-64.89 159.74,-90.77 320.75,-188.51 478.73,-276.49l481.44 -277.55c103.69,-59.27 193.98,-113.03 294.44,-170.73 201.54,-115.77 388.86,-222.73 590.23,-339.93l108.39 -62.99c18.25,-11.42 21.67,-13.8 44.2,-0.75 101.36,58.74 213.16,104.82 328.04,137.14 278.71,78.42 546.22,93.33 839.71,59.4l199.11 -33.21c-41.43,68.02 -83.55,144.65 -85.69,244.41 -3.34,155.21 51.99,251.48 139.97,354.05 121.72,141.91 350.59,252.86 525.61,304.13 288.65,84.55 581.51,100.65 886.7,57.52 95.78,-13.53 182.28,-34.48 270.14,-59.76 144.42,-41.55 327.59,-130.19 437.85,-223.86 57.71,-49.02 115.76,-106.51 155.06,-175.9 40.71,-71.87 74.82,-158.1 67.02,-264.41 -12.23,-166.79 -124.2,-311.68 -254.31,-407.69 -32.66,-24.11 -174.03,-117.95 -215.31,-122.64 -0.25,27.14 0.75,54.54 2.04,81.61 0.98,20.44 -4.69,59.67 9.63,73.33 31.16,31.36 39.38,217.96 53.48,277.78 15.8,67.05 70.24,195.47 63.55,262.05 -14.43,46.26 10.66,58.24 -18.73,144.42 -35.22,103.26 -219.72,177.63 -302.86,39.54 -3.02,-5.03 -1.7,-2.9 -4.64,-7.72l-3.12 -4.94c-21.04,-35.61 -24.65,-74.72 -31.04,-105.07 -0.84,-4 -2.74,-10.72 -3.74,-15.16 -7.54,-8.2 -7.31,-11.6 -8.86,-34.69 -5,-74.53 3.54,-146.61 -4.58,-254.11 -3.48,-46.06 -5.7,-94.71 -12.7,-139.88 -4.3,-27.87 -27.24,-103.78 -9.24,-121.79l-68.98 -305.86 -10.97 -4.28c-20.13,-6.84 -27.51,-5.22 -29.2,-5.63 -131.24,-32.08 -336.24,-39.71 -469.61,-36.02 -29.74,0.82 -155.1,13.28 -165.44,10.79 -7.55,9.03 -29.44,139.07 -24.92,158.01 15.31,12.37 14.81,60.9 18.42,86.14 4.34,30.37 12.66,57.89 16.88,89.18 31.39,232.88 -17.72,202.31 -163.64,248.77 -86.41,27.52 -164.89,123.26 -257.81,162.52 -50.06,21.15 -106.35,35.67 -166.08,42.72 -84.9,10.02 -301.93,-5.83 -292.08,-118.03 22.68,53.6 121.05,76 171.62,81.7 44.56,5.03 78.53,6.99 123.29,1.42 27.65,-3.45 80.52,-12.88 97.83,-27.34 -7.83,-65.64 -56.54,-123.1 -92.58,-151.07 -78.32,-60.78 -124.62,-47.81 -173.76,-65.21 8.2,-6.96 61.06,-32.6 73.23,-39.37 32.78,-18.21 41.21,-25.15 87.34,-12.56 29.98,8.18 53.72,21.61 77.27,36.86 12.31,7.98 21.76,15.06 32.01,25.23 27.17,26.96 36.66,16.56 30.65,1.96l-25.62 -23.59c-23.95,-21.23 -52.1,-38.09 -84.12,-50.38 -15.84,-6.08 -36.18,-9.21 -49.51,-15.68 8.2,-8.76 19.27,-13.81 28.97,-20.26 16.63,-11.04 9.87,-9.5 25.59,-6.64 29.34,5.33 50.44,5.41 76.91,17.8 23.2,10.85 40.69,20.78 59.5,34.26 27.63,19.78 38.65,40.83 48.9,31.71 12.9,-11.48 -11.51,-27.99 -25.49,-38.91 -42.83,-33.43 -89.63,-57.14 -149.42,-63.07 9.46,-9.63 46.34,-42.51 57.84,-44.17 37.08,-5.36 110.37,38.4 139.46,59.44 36.3,26.24 42.58,47.58 55.34,33.37 18.26,-20.36 -108.5,-98.54 -180.95,-112.22l26.43 -34.49c53.57,1.7 88.83,12.79 131.59,36.1 18.66,10.18 35.56,19.79 50.96,30.68 18.05,12.76 26.24,34.77 48.88,30.05 2.19,-37.63 -135.51,-115.48 -217.21,-115.21 1.51,-10.98 23.45,-44.3 30.72,-58.82 14.18,-28.3 14.21,-41.36 44.58,-49.59 21.58,-57.15 7.43,-229.77 12.5,-306.77 -14.76,-15.21 -9.14,-105.78 -11.64,-133.8 -4.12,-46.1 -9.59,-97.52 -9.24,-142.31 -1.78,-20.05 -34.3,-76.77 -36.27,-106.1 -6.15,-5.13 -2.03,-0.66 -11.96,-1.5 -16.13,10.55 -37.64,18.04 -59.59,20.24 -12.5,-20.75 -267.98,-285.39 -315.48,-337.67l-36.66 -36.8c-25.03,-24.73 -38.95,-50.63 -68.25,-74.61l-139.33 -149.22c-22.95,7.03 -54.49,27.65 -79.59,40.03 -86.33,42.55 -168.81,78.96 -271.69,82.83 -4.42,24.32 -0.98,594.91 -0.98,636.23 0,97.6 -4.47,391.68 2.68,477.45 2,24.05 0.92,53 0.87,77.53l-0.74 61.22c-5.52,28.74 7.15,-23.16 -2.22,7.27 -0.29,0.95 -1.36,3.97 -1.59,3.39 -0.24,-0.58 -1.05,2.28 -1.75,3.31 -19.69,15.54 -36.63,9 -55.1,-0.75 -5.54,-28.3 -4.13,-129.52 -0.62,-160.13 5.16,-45.05 1.59,-696.2 1.59,-791.66 0,-99.03 6.28,-219.69 0.33,-315.78 -115.17,-1.06 -303.35,-127.06 -343.83,-129.97l-35.87 38.07c-12.93,15.68 -23.09,24.41 -35.28,38.08 -15.13,16.96 -18.12,20.05 -36.96,36.34l-106.17 114.32c-50.27,59.28 -156.85,162.36 -214.19,226.52 -23.41,26.19 -48.66,48.76 -71.83,75.22l-72.04 75.64z"/>
  <path class="fil3" d="M6336.06 4110.85c-53.16,672.37 -26.7,1375.11 19.86,2043.76 -0.35,44.79 5.12,96.21 9.24,142.31 2.5,28.02 -3.12,118.59 11.64,133.8 55.41,23.21 91.56,39.78 163.61,48.56 85.07,10.36 115.53,2.96 188.65,-15.94 13.81,-14.3 15.63,-69.4 19.13,-95.99l49.68 -306.41c21.31,-134.55 46.74,-282.83 57.08,-420.21 5.71,-75.8 7.02,-155.75 2.08,-232.86 -6.19,-96.84 3.28,-108.19 24.55,-210.3 9.01,-43.25 81.24,-383.97 79.93,-391.14 14.02,78.85 22.04,160.34 34.89,238.66 13.11,79.97 26.68,157.53 42.03,235.71 50.62,257.71 158.68,612.25 227.23,882.76l111.87 443.48 10.97 4.28c66.97,13.13 106.36,21.27 184.88,12.74 63.05,-6.85 113.12,-20.43 153.72,-50.54 15.96,-22.36 5.97,-105.57 6.31,-141.44 1.24,-130.35 -4.18,-318.41 -11.12,-444.96 -10.45,-190.75 -31.29,-356.74 -77.83,-533.03 -22.9,-86.78 -11.82,-200.66 -11.82,-295.19 0,-247.97 -0.35,-506.82 -7.69,-754.96 -1.41,-47.39 -5.51,-104.2 -3.05,-151 -13.67,5.51 -36.97,27.12 -53.02,37.32 -127.66,81.2 -287.91,154.73 -446.09,155.37 0.32,-96.84 7.35,-412.61 -7.33,-490.94l-23.34 -0.52c-185.18,-2.06 -354.86,-4.93 -519.99,-96.51 -51.72,-28.68 -73.95,-51.41 -112.87,-89.66 -12.63,76.82 -18.72,382.68 -41.65,424.97 -18.4,-5.84 -35.77,-24.97 -46.15,-36.71 -12.18,-13.8 -23.74,-33.59 -35.4,-45.41z"/>
  <path class="fil4" d="M2496.01 5261.13l0 1220.15 206.78 -120.38c80.13,-46.65 216.8,-128.57 295.81,-169.81 0.8,-0.42 1.88,-0.93 2.69,-1.35 0.8,-0.42 1.89,-0.91 2.69,-1.32l118.16 -69.54c121.72,-73.62 245.76,-138.71 367.26,-212.19l528.37 -304.27c32.88,-20.19 137.28,-70.59 147.3,-96.45 5.34,-13.77 -1.71,-1015.86 0.34,-1208.55 0.15,-14.96 2.72,-12.57 -3.85,-9.68 -9.76,4.3 0.62,-0.22 -9.49,5.98 -4.83,2.95 -4.43,2.76 -10.66,6.3l-96.5 54.57c-8.34,4.91 -12.21,8.13 -19.82,12.46l-114.34 65.5c-14.16,7.86 -22.74,13.34 -38.21,22.97l-310.74 179.15c-83.6,44.06 -162.16,96.59 -245.48,142.1l-210.18 120.46c-54.24,28.46 -103.7,62.34 -157.83,91.04 -51.95,27.55 -103.09,62.5 -154.19,90.43l-54.99 30.63c-8.24,4.98 -11.77,6.45 -21.12,11.77l-54.17 30.83c-0.74,0.5 -1.67,1.25 -2.4,1.75l-98.42 57.13c-26.08,15.63 -47.48,28.91 -67.01,50.32z"/>
  <path class="fil1" d="M2379.9 3796.67c0,446.76 3.39,893.67 -0.34,1340.42 -0.22,25.31 1.85,9.21 25.87,-3.58l190.19 -108.73c9.98,-5.4 13.24,-7.69 22.7,-13.2 31.41,-18.29 54.51,-32.34 86.74,-49.36 58.4,-30.85 112.64,-68.86 170.91,-100.48l126.63 -72.43c10.69,-6.44 9.18,-5.99 19.96,-11.88 7.81,-4.27 14.95,-8.31 22.89,-13.05l129.23 -74.58c70.8,-40.25 140.33,-84.52 213.09,-122.16l42.39 -25.06c6.36,-3.79 11.93,-6.6 20.61,-11.33l23.23 -12.78c9.71,-5.98 7.13,-5.67 19.15,-12.5 7.85,-4.46 15.02,-8.37 22.98,-13.16l102.98 -59.79c7.36,-4.22 3.18,-2.12 11.79,-6.51l97.58 -56.45c6.9,-3.92 12.44,-6.67 20.65,-11.13 0.9,-0.49 2.09,-1.09 2.99,-1.58l5.93 -3.13c0.85,-0.48 2.02,-1.1 2.86,-1.59l223.21 -129.61c14.98,-9.08 28.25,-16.64 43.12,-25.02l128.81 -74.55c40.6,-24.51 43.34,-20.5 75.02,-55.22 5.04,-13.01 -2.07,-1127.72 0.38,-1340.42 0.25,-22.2 3.08,-13.46 -69.75,27.63l-126.25 72.84c-13.54,7.86 -31.08,16.85 -43.5,24.33l-128.94 74.97c-6.99,3.85 -11.62,7.03 -19.68,11.76 -77.76,45.63 -158.77,87.82 -235.42,135.78l-171.99 99.51c-17.28,10.37 -26.86,16.26 -43.77,24.59 -14.42,7.09 -26.35,14.65 -40.04,22.88l-542.96 312.76c-0.88,0.47 -2.07,1.07 -2.93,1.55l-117.44 68.03c-9.41,5.55 -6.45,5.62 -18.96,12.6l-215.56 123.86c-39.52,23.78 -44.41,22.95 -74.36,55.77z"/>
  <path class="fil1 str0" d="M4271.73 2430.61l19.8 2.37 0 3607.35 -378.62 221.53c-0.91,0.75 -5.84,5.13 -6.89,5.84 -6.49,4.38 0.33,0.41 -8.41,4.57l-63.82 37.44c-4.22,2.59 -4.74,2.99 -11.36,5.82 -30.96,13.26 -58.46,32.49 -86.56,51.28l-133.29 75.12c-52.04,34.09 -110.82,61.95 -163.13,93.9l-199.57 114.54c-0.73,0.45 -1.74,1.1 -2.45,1.58l-4.69 3.42c-0.68,0.51 -1.63,1.27 -2.31,1.79 -17.73,13.52 -33.53,17.22 -52.02,29.55 -11.27,7.5 -22.49,12.83 -34.27,19.27l-5.3 2.84c-0.77,0.43 -1.82,1.01 -2.58,1.44l-89.8 52.98c-0.76,0.41 -1.81,0.99 -2.54,1.42l-171.32 97.7c-0.99,0.68 -3.76,2.74 -4.78,3.43l-73.97 44.51c-25.4,16.79 -53.9,26.41 -78.66,43.48l-202.93 116.19c-5.76,3.06 -7.96,5.56 -13.82,9.78 -23.85,17.2 -90.21,48.08 -133.2,75.47l-40.95 24.51c-4.88,2.52 -4.09,2.17 -8.48,4.28 -15.5,7.44 -14.36,10.84 -28.92,19.23l-55.12 30.73c-0.75,0.44 -1.79,1.03 -2.53,1.47 -0.72,0.44 -1.69,1.09 -2.4,1.54 -14.72,9.1 -5.67,7.72 -25.44,11.22l0.75 579.46c12.82,95.98 92.36,34.63 136.7,9.39l1280.91 -738.83c26.72,-15.64 50.68,-27.68 75.27,-42.88l185.39 -108.27c13,-7.34 25.9,-14.64 39.21,-22.53l227.67 -130.96c57.07,-31.49 89.46,-56.01 119.6,-116.2 29.65,-59.23 22.27,-140.08 22.27,-212.66l0.73 -3807.3c0,-58.53 6.91,-188.58 -1.58,-238.3 -13.97,2.12 -11.07,2.83 -16.59,11.49z"/>
  <path class="fil5" d="M2202.15 7827.66l-0.75 -579.46 -1.49 -3623.65 258.57 -151.99c74.66,-38.1 175.72,-106.8 258.87,-149.11 73.17,-37.24 176.31,-107.01 258.76,-149.34 57.66,-29.59 193.77,-114 258.13,-150.18l905.5 -522.46c22.22,-12.83 117.19,-70.59 131.99,-70.86 5.52,-8.66 2.62,-9.37 16.59,-11.49 -10.16,-158.9 3.65,-372.1 -0.72,-540.85 -1.65,-63.96 -40.47,-97.04 -86.07,-76.97l-345.91 196.54c-37.41,22.76 -75.5,43.81 -115.54,67.74 -28.93,17.28 -93.49,48.2 -110.38,68.12 -38.46,45.39 31.87,69.57 -126.44,148.4 -20.39,10.15 -37.92,22.72 -56.53,32.87l-347.12 200.19c-12.43,7.59 -17.3,9.45 -28.79,15.64 -5.1,2.75 -6.28,3.94 -12.57,7.96l-57.57 32.12c-4.96,3.65 -120.12,89.59 -121.06,-7.35 -8,3.31 -21.6,10.26 -27.93,13.94l-543.36 313.54c-34.9,19.93 -77.14,71 -92.27,117.23 -23.16,70.78 -13.86,268.11 -13.86,355.14 0,61.21 0,122.42 0,183.63l-4.58 93.86c-0.84,29.66 1.07,63.4 1.07,93.85l0 3346.19c0,124.24 2.62,246.85 2.62,371.34 0,118.14 -7.13,260.33 0.84,375.41z"/>
  <path class="fil3" d="M1626.95 3220.04l-0.36 1171.7 0.19 71.27 -0.19 1482.16 -0.3 476.3 0.78 76.23 1.71 158.82c-4.47,33.68 -4.91,447.83 -0.05,474.97 9.89,45.14 -2.04,165.7 -1.92,218.75 0.12,50.33 -6.14,174.93 1.78,215.63 -8.55,54.79 -5.06,190.23 16.86,235.06 49.43,101.13 227,184.97 340.32,116.48l162.19 -93.12 -6.94 -34.76c-60.06,22.11 -171.2,133.77 -242.56,64.45 -36.33,-35.3 -31.26,-87.12 -31.28,-144.64l0 -4684.66c0,-97.93 -14.19,-247.44 24.33,-320.46l2.64 -15.83c-23.92,-7.89 -82.56,-43.57 -113.49,-62.85 -36.52,-22.77 -68.62,-40.23 -110.7,-62.18 -55.9,71.55 -41.49,207.46 -42.84,306.25 -1.57,113.93 -3.07,236.92 -0.17,350.43z"/>
  <path class="fil3" d="M1966.83 7485.88c23.25,-6.08 67.49,-36.44 89.54,-48.56 16.05,-8.84 25.96,-14.77 41.5,-24.19 17.62,-10.67 29.34,-20.41 49.33,-23.29 -9.4,-34.85 -2.99,-232.53 -2.99,-284.44l0 -1970.99c0,-77.92 -5.2,-2052.89 2.76,-2114.26 4.07,-31.37 14.9,-53.39 29.09,-78.2l14.52 -21.45c73.67,-80.66 54.31,-58.1 162.3,-120.49l455.07 -263.12c17.7,-10.62 31.84,-21.42 54.89,-9.5 15.17,7.85 26.35,14.2 35.48,25.87 0.6,0.77 1.37,1.9 1.92,2.62l3.87 5.54c21.64,-9.48 46.16,-26.18 66.23,-37.45l460.69 -266.08c35.77,-20.2 101.85,-51.95 121.87,-82.41 34.55,-52.57 -31.8,-50.17 88.3,-119.6 45.98,-26.58 90.8,-52.32 131.99,-75.92l132.32 -78c-10.43,-12.86 -5.26,-105.16 -5.26,-121.9 0,-41.74 1.37,-83.84 -0.85,-125.43 -25.34,9.99 -58.26,32.92 -82.37,46.47 -28.17,15.82 -53,30.51 -77.56,45.12 -96.65,57.49 -222.33,123.92 -315.78,182.12 -30.89,19.25 -53.1,23.17 -62.42,64.2 -9.96,43.82 -9.27,56.05 -45.01,76.99l-551.41 318.12c-25.93,14.45 -55.89,41.35 -82.87,34.13 -5.27,-7.36 -4.04,-9.32 -6.78,-20.7 -10.17,-42.34 -35.71,-20.15 -71.44,0.73 -169.79,99.22 -352.47,199.72 -517.54,298.55 -151.65,90.79 -118.74,254.79 -118.74,426.34l0 3995.02c0,116.12 6.15,250.62 -0.65,364.16z"/>
  <path class="fil5" d="M6281.5 5088.59c12.94,-16.33 6.67,-65.31 4.26,-88.83 -2.75,-26.76 -16.57,-44.15 -31.92,-60.89 -47.45,-51.77 -280.74,-184.49 -347.43,-223.57 -59.59,-34.93 -431.24,-254.99 -484.48,-279.39 1.69,8.68 4.14,2.91 -10.17,4.2 -7.43,0.68 -15.11,1.34 -22.32,2.34 -106.03,14.77 -207.11,72.28 -294.5,114.57 -10.12,4.9 -8.1,3.43 -16.65,8.86l-114.71 64.99c-7.29,3.64 -9.16,4.18 -15.79,8.46 -3.53,2.28 -4.8,3.46 -7.23,5.24l-372.17 264.92c-0.05,0.05 -5.95,5.92 -6.1,6.06 -45.14,39.86 -110.67,101.82 -119.71,161.71 15.37,8.95 33.54,29.23 48.5,41.37 31.35,25.41 89.19,59.49 115.82,80.1l108.78 66.75c3.05,1.69 4.42,2.15 7.99,4.14l5.36 3.03c11.59,7.16 12.6,8.63 25.43,15.4 9.76,5.15 9.4,5.64 15.5,8.85l324.35 169.95c203.5,96.26 342.75,66.62 540.15,-37.8l171.45 -89.57c67.35,-38.72 149.09,-80.23 221.83,-125.31 51.03,-31.63 83.87,-47.04 139.94,-84.09l20.19 -12.9c62.03,-36.5 45.9,-27.02 94.7,-79.04l-1.07 50.45z"/>
  <path class="fil6" d="M1891.51 2704.22c-38.52,73.02 -24.33,222.53 -24.33,320.46l0 4684.66c0.02,57.52 -5.05,109.34 31.28,144.64 71.36,69.32 182.5,-42.34 242.56,-64.45l6.94 34.76c9.73,12.25 7.74,20.79 19.61,34.07 8.37,9.37 17.43,13.78 29.74,20.58 6.35,-8.27 -10.89,-1.5 -15.63,-43.01l-0.37 -4611.3c0,-51.5 -0.94,-103.85 -0.12,-155.24 0.9,-55.84 22.36,-78.54 36.64,-121.64 -1.88,-1.01 -13.49,-7.07 -15.51,-8.52 -14.08,-10.12 -9.49,-5.55 -11.74,-18.73l-14.52 21.45c-14.19,24.81 -25.02,46.83 -29.09,78.2 -7.96,61.37 -2.76,2036.34 -2.76,2114.26l0 1970.99c0,51.91 -6.41,249.59 2.99,284.44 -8.16,61.26 7.64,158.35 -4,213.4 -0.38,0.61 -93.15,73 -142.31,46.24 -47.18,-25.7 -30.49,-104.83 -34.06,-163.6 6.8,-113.54 0.65,-248.04 0.65,-364.16l0 -3995.02c0,-171.55 -32.91,-335.55 118.74,-426.34 165.07,-98.83 347.75,-199.33 517.54,-298.55 35.73,-20.88 61.27,-43.07 71.44,-0.73 2.74,11.38 1.51,13.34 6.78,20.7 26.98,7.22 56.94,-19.68 82.87,-34.13l551.41 -318.12c35.74,-20.94 35.05,-33.17 45.01,-76.99 9.32,-41.03 31.53,-44.95 62.42,-64.2 93.45,-58.2 219.13,-124.63 315.78,-182.12 24.56,-14.61 49.39,-29.3 77.56,-45.12 24.11,-13.55 57.03,-36.48 82.37,-46.47 36.44,-31.64 104.04,-45.07 137.47,-7.72 32.06,35.83 25.22,112.29 22.09,168.25 1.04,-0.55 2.58,-2.57 3.1,-1.69l50.12 -28.91c15.11,-8.6 40.11,-19.84 54.32,-26.86 -10.85,-16.78 -5.67,-22.47 -5.63,-59.25l0.11 -183.65c0.29,-41.65 -0.72,-75.21 -25.34,-97.07 -27.2,-24.17 -64.84,-13.26 -93.57,2.94l-309.91 179.94c-27.93,14.99 3.74,-8.1 -38.6,21.93 -30.73,21.8 -249.78,140.92 -310.85,178.96 -103.46,64.47 -240.02,136.97 -349.27,202.17 -152.02,90.73 -315.62,177.52 -465.4,269.36l-465.83 268.29c-33.46,20.61 -131.11,71.54 -154.06,90.67 -32.82,27.36 -41.78,53.19 -56.64,72.23z"/>
  <path class="fil6" d="M6369.05 2101.28c-1.49,-0.73 -3.81,-3.13 -4.7,-1.69 -2.32,3.7 -215.02,-33.84 -268.32,-137.95 49.2,-68.41 109.1,-107.5 163.77,-242.51 241.88,-597.19 -235.24,-1176.19 -828.53,-1104.79 -456.95,55 -771.05,496.3 -679.02,944.44 23.77,115.81 64.66,205.93 122.06,290.3 202.01,296.9 596.29,432.29 943.59,292.95 43.34,-17.39 33.92,-14.47 75.79,4.61 99.62,45.37 243.24,58.28 351.16,32.38 39.78,-9.55 134.18,-41.36 124.2,-77.74z"/>
  <path class="fil4" d="M6315.95 2120.58c-57,-11.8 -104.24,-29.52 -147.92,-56.09 -40.49,-24.63 -86.9,-64.3 -106.74,-102.85l89.41 -108.51c228.03,-293.24 178.19,-759.14 -89.15,-1004.74 -223.38,-205.22 -584.32,-294.28 -890.76,-122.37 -516.56,289.77 -527.95,967.31 -103.72,1286.07 156.2,117.37 371.23,190.97 620.06,140.25 172.64,-35.19 119.94,-75.7 216.1,-32.63 114.68,51.36 330.32,65.08 412.72,0.87z"/>
  <path class="fil7" d="M6315.95 2120.58c-57,-11.8 -104.24,-29.52 -147.92,-56.09 -40.49,-24.63 -86.9,-64.3 -106.74,-102.85l89.41 -108.51c228.03,-293.24 178.19,-759.14 -89.15,-1004.74 -223.38,-205.22 -584.32,-294.28 -890.76,-122.37 -516.56,289.77 -527.95,967.31 -103.72,1286.07 156.2,117.37 371.23,190.97 620.06,140.25 172.64,-35.19 119.94,-75.7 216.1,-32.63 114.68,51.36 330.32,65.08 412.72,0.87z"/>
  <path class="fil3" d="M6544.67 1792.63c61.05,4.27 106.43,-20.46 144.75,-46.88 45.05,-31.05 56,-55.8 90.87,-99.14 -4.26,33 -29.09,76.06 -43.57,100.65 58.51,0.74 164.24,-56.01 213.63,-87.4 20.45,-12.99 40.59,-33.67 60.8,-41.89 -11.94,132.72 -1.13,218.5 94.8,285.71 25.35,17.76 4.93,31.33 31.66,46.04 42.81,23.56 69.52,-36.32 89.72,-53.64 79.83,-68.46 158.42,8.2 136.41,111.76 -9.68,45.51 -32.67,76.87 -58.68,96.41 -57.35,43.07 -100.04,14.74 -119.41,11.31l-1.32 183.87c5.11,39.21 36.42,90.33 55.57,114.94 34.51,44.35 43.08,48.91 106.91,60.86 -6.79,16.47 -42.03,52.78 -56.49,71.42 -44.76,57.68 -103.1,168.96 -113.38,239.75 -9.78,72.48 -19.5,77.42 19.43,137.08 15.69,24.04 59.92,87.69 84.39,87.07 2.82,-33.34 -6.22,-62.7 -0.7,-103.07 4.69,-34.3 16.57,-53.33 30.04,-81.03 5.01,-56.81 52.54,-165.77 78.08,-206.6 19.1,-30.53 39.84,-58.15 62.91,-79.7 35.05,-32.72 41.46,-40.52 96.22,-20.94 35.57,12.72 68.45,28.38 95.43,47.33 25.82,18.11 56.32,45.42 73.9,69.2 30.38,41.07 78.95,142.25 84.1,201.43 16.67,-2.71 35,-17.94 50.47,-27.69 49.18,-31.01 114.84,-77.45 170.25,-74.6 4.61,23.61 15.39,50.69 21.86,75.91l62.94 241.22 29.25 1.87c18.26,-32.13 -4.48,-219.36 -8.61,-270.09 -14.82,-181.96 -138.33,-198.73 -321.18,-265.74 -38.52,-14.12 -70.55,-25.25 -108.8,-38.1 -38.62,-12.98 -77.36,-22.18 -114.89,-35.79 -4.91,-98.03 -22.8,-192.18 -28.29,-289.01 -7.15,-126.21 -24.3,-464.87 -71.58,-566.29 -17.41,-37.37 -38.83,-67.47 -71.36,-87.94 -26.87,-16.92 -84.52,-45.12 -121.51,-30.99 13.15,19.23 39.23,28.22 67.66,80.41 8.59,15.76 16.25,33.66 20.6,52.42 8.88,38.3 -2.09,36.55 -6.57,56.73 -15.3,-39.14 -19.74,-62.19 -57.79,-89.66 -11.52,-8.32 -21.97,-9.98 -27.96,-24.2 -26.22,-62.19 -21.67,-67.54 -85.28,-115.36 -114.36,-85.96 -360.78,-94.72 -490.47,-35.74 -42.68,19.41 -94.42,54.92 -120.2,79.76 -29.28,28.21 -57.77,75.06 -73.8,126.22 -13.85,44.19 -27.75,131.1 -15.91,179.55 14.09,9.64 26.9,10.65 45.1,12.57z"/>
  <path class="fil4" d="M6459.26 3768c38.92,38.25 61.15,60.98 112.87,89.66 165.13,91.58 334.81,94.45 519.99,96.51l24.31 -7.25c-15.98,-169.08 -12.06,-372.87 -32.21,-555.09 -16.7,-151 -42.89,-403.65 -28.54,-542.9 6.89,-66.97 25.48,-275.75 48.28,-327.28l-84.04 97.34c-31.39,33.42 -55.68,58.01 -89.72,89.94 -28.86,27.08 -168.33,149.79 -203.15,157.58 -59.71,-224.05 61.06,-378.46 71.56,-426.22 2.69,7.24 -7.09,10.82 -16.57,22.12 -4.29,5.12 -6.3,7.78 -11.05,13.47 -43.92,52.5 -102.14,146.82 -138.14,204.48 -55.94,89.6 -88.73,184.7 -114.32,304.97 -30.36,142.72 -42.74,419.91 -48.16,582.16 -2.07,62.1 -14.15,141.55 -11.11,200.51z"/>
  <path class="fil8" d="M3310.97 1561.61c-8.31,10.05 -20.63,15.58 -34.57,23.54 -12.42,7.1 -21.99,11.98 -34.13,18.58 -20.84,11.35 -45.42,28.4 -69.17,41.52 -137.9,76.16 -277.47,163.08 -418.68,242.15 -95.2,53.3 -184.39,106.56 -279.78,161.12 -54.61,31.24 -240.63,142.25 -280.55,159.04 -0.24,0.34 -377.19,226.04 -395.79,227.92 -16.82,19.2 -82.95,36.14 -128.34,127.88 42.08,21.95 74.18,39.41 110.7,62.18 30.93,19.28 89.57,54.96 113.49,62.85l-2.64 15.83c14.86,-19.04 23.82,-44.87 56.64,-72.23 22.95,-19.13 120.6,-70.06 154.06,-90.67l465.83 -268.29c149.78,-91.84 313.38,-178.63 465.4,-269.36 109.25,-65.2 245.81,-137.7 349.27,-202.17 61.07,-38.04 280.12,-157.16 310.85,-178.96 42.34,-30.03 10.67,-6.94 38.6,-21.93l309.91 -179.94c28.73,-16.2 66.37,-27.11 93.57,-2.94 24.62,21.86 25.63,55.42 25.34,97.07l-0.11 183.65c-0.04,36.78 -5.22,42.47 5.63,59.25l27 -2.18 1.44 -308.58c-2.02,-54.33 -17.17,-97.72 -46.16,-128.26 -26.46,-27.88 -70.67,-56.13 -108.84,-70.63 -121.46,-46.12 -190.89,6.55 -274.5,54.86l-424.32 244.94c-17.56,10.56 -16.25,11.98 -30.15,13.76z"/>
  <path class="fil4" d="M6729.06 6463.34c-2.93,34.01 -18.62,84.46 -15.78,112.84 10.34,2.49 135.7,-9.97 165.44,-10.79 133.37,-3.69 338.37,3.94 469.61,36.02 1.69,0.41 9.07,-1.21 29.2,5.63l-111.87 -443.48c-68.55,-270.51 -176.61,-625.05 -227.23,-882.76 -15.35,-78.18 -28.92,-155.74 -42.03,-235.71 -12.85,-78.32 -20.87,-159.81 -34.89,-238.66 1.31,7.17 -70.92,347.89 -79.93,391.14 -21.27,102.11 -30.74,113.46 -24.55,210.3 4.94,77.11 3.63,157.06 -2.08,232.86 -10.34,137.38 -35.77,285.66 -57.08,420.21l-49.68 306.41c-3.5,26.59 -5.32,81.69 -19.13,95.99z"/>
  <path class="fil9" d="M6544.67 1792.63c3.31,104.09 -26.45,227.72 18.47,359.92 18.34,54 43.73,88.69 82.9,113.16 56.18,35.09 86.59,33.59 162.76,38.16 3.44,20.56 5.29,42.24 -5.87,54.93 9.68,12.12 7.48,13.83 6.83,41.62 -0.49,21.52 1.24,27.75 -11.15,39.87 -10.5,47.76 -131.27,202.17 -71.56,426.22 34.82,-7.79 174.29,-130.5 203.15,-157.58 34.04,-31.93 58.33,-56.52 89.72,-89.94l84.04 -97.34 43.77 -126.27c8.8,-17.56 8.06,-9.26 15.67,-40.77l20.93 -55.18 1.32 -183.87c19.37,3.43 62.06,31.76 119.41,-11.31 26.01,-19.54 49,-50.9 58.68,-96.41 22.01,-103.56 -56.58,-180.22 -136.41,-111.76 -20.2,17.32 -46.91,77.2 -89.72,53.64 -26.73,-14.71 -6.31,-28.28 -31.66,-46.04 -95.93,-67.21 -106.74,-152.99 -94.8,-285.71 -20.21,8.22 -40.35,28.9 -60.8,41.89 -49.39,31.39 -155.12,88.14 -213.63,87.4 14.48,-24.59 39.31,-67.65 43.57,-100.65 -34.87,43.34 -45.82,68.09 -90.87,99.14 -38.32,26.42 -83.7,51.15 -144.75,46.88z"/>
  <path class="fil8" d="M1151.59 6909.37l2.82 24.86c-107.18,17.6 -220.05,83.61 -253.25,163.77 -51.7,124.85 -12.15,242.27 13.73,353.7 14.11,28.95 26,70.06 43.92,101.47 62.13,108.9 119.67,171.14 256.85,191.96 119.27,18.11 269.19,-2.72 347.32,-91.55l47.35 -62.76c6.04,-10.08 8.05,-17.27 18.26,-24.95 -7.92,-40.7 -1.66,-165.3 -1.78,-215.63 -0.12,-53.05 11.81,-173.61 1.92,-218.75 -32.97,0.3 -59.47,-9.3 -81.59,-26.08l-0.67 -132.04c-11.73,-4.24 -38.86,-18.86 -50.61,-18.29 -11.73,29.21 1.85,92.35 -2.02,126.74 -25.31,-3.22 -41.98,-10.15 -65.06,-15.39 -17.68,-4.02 -19.46,-0.27 -33.27,-7.52 -56.87,-29.85 -71.15,-37.35 -70.61,-136.73l-52.04 -1.11c-6.61,-14.46 -9.04,-33.09 -9.2,-49.62 -0.5,0.58 -1.02,1.61 -1.2,1.97l-5.23 16.58c-1.36,9.11 -1.36,18.46 -1.4,27.68 -0.09,22.93 4.09,30.79 4.65,49.43 -69,-1.46 -86.33,-45.01 -108.89,-57.74z"/>
  <path class="fil10" d="M769.78 6158.01c-10.76,8.59 -25.53,9.47 -46.6,23.23 -7.58,4.95 -12.9,9.14 -18.65,14.03 -9.06,7.71 -12.08,10.95 -17.72,21.01 29.1,3.99 52.95,10.15 78.3,20.87 23.47,9.92 53.73,19.46 59.24,44.18 -40.85,2.36 -88.22,-40.87 -197.41,-34.26 -84.66,5.12 -106.84,39.01 -112.17,122.05 51.01,-25.22 54.01,-42.04 149.02,-44.76 46.99,-1.34 141.17,-1.49 157.94,34.27 -61,60.66 -370.32,-85.02 -349.93,275.67 9.06,-6.36 20.85,-22.56 28.97,-30.61 12.59,-12.47 18.58,-18.09 32.54,-28.57 23.79,-17.88 43.42,-29.52 75.57,-46.61 31.05,-16.51 143.62,-69.34 185.5,-51.58 15.53,36.65 -63.7,66.03 -96.36,78.98 -49.37,19.56 -204.98,100.24 -216.45,151.12 -11.81,52.31 37.49,102.78 54.09,129.33l9.28 -13.57c25.52,-52.68 102.09,-191.71 169.27,-167.65l-58.09 83.72c-21.72,30.59 -39.71,61.28 -55.87,94.9 -28.09,58.4 -9.4,79.82 42.53,149.77 11.24,15.15 24.02,28.87 32.37,44.46 34.36,-4.69 133.74,-46.08 166.86,-66.86 24.11,-15.13 29.16,-22.45 27.51,-55.64 -2.86,-57.32 -50.29,-242.51 -33.08,-276.04 37.1,0.92 61.22,98.97 66.74,142.41 4.39,34.47 3.84,70.46 -1.2,102.65 -4.16,26.64 -18.05,69.48 -8.4,90.88 44.84,7.68 98.2,-27.14 116.13,-52.69 39.36,-56.08 -25.08,-225.4 -48.16,-284.5 -12.33,-31.58 -51.82,-93.8 -49.25,-126.75 25.14,-45.74 64.67,-10.26 84.74,9.6 21.85,21.65 39.57,52.5 52.54,81.89 57.05,129.27 11.17,183.78 21.97,234.97 19.29,9.34 33.32,-4.69 51.67,-6.54l17.03 -15.41c62.71,-45.59 46.7,-96.69 48.57,-120.85 1.56,-20.18 2.4,-3.43 6.25,-21.98 14.95,10.54 9.8,-12.76 10.53,26.27 0.14,7.15 -2.47,49.14 27.98,23.14 20.91,-17.86 37.33,-50.36 43.39,-79.21 7.77,-1.27 16.72,-3.68 22.11,-5.59 33.58,-11.85 9.46,-24.19 46.18,-48.78l-25.62 -97.1c-1.98,-7.07 -5.22,-23.19 -5.37,-23.7l-86.95 -181.91c-16.47,-24.48 -17.88,-2.51 -20.81,-24l-7.19 33.14c-28.09,-2.69 -22.17,-2.75 -22.85,-35.62 -0.11,-5.1 -0.23,-20.52 -8.77,-27.13 -6.12,-4.74 -19.05,-9.18 -29.14,-10.95 -4.29,-0.76 -12.52,-1.5 -17.05,-2.08 -62.74,-8.11 -65.45,5.84 -87.93,22.13 -19.87,14.39 -17.48,17.41 -35.17,20.77 -1.06,-0.73 -2.38,-3.37 -2.87,-2.57 -0.46,0.77 -2.11,-1.91 -2.73,-2.57 -14.18,-15.03 -6.16,-11.86 -19.46,-17.58l6.13 -8.22c14.35,-20.26 46.51,-61.79 31.18,-86.47 -25.93,10.83 -18.6,39.08 -61.22,70.09 -16.16,-13.84 -36.84,-17.33 -54.03,-30.19 29.74,-14.01 37.38,-28.76 49.93,-57.12 -28.3,2.76 -23.57,4.77 -43.59,17.24 -51.81,32.23 -36.88,25.52 -74.55,22.94 -19.17,-1.31 -39,1.9 -57.42,-0.05z"/>
  <path class="fil5" d="M7103.96 2521.65c-22.8,51.53 -41.39,260.31 -48.28,327.28 -14.35,139.25 11.84,391.9 28.54,542.9 20.15,182.22 16.23,386.01 32.21,555.09l-24.31 7.25 23.34 0.52c14.68,78.33 7.65,394.1 7.33,490.94 158.18,-0.64 318.43,-74.17 446.09,-155.37 16.05,-10.2 39.35,-31.81 53.02,-37.32l48.68 -48.16c0.2,-51.08 -22.42,-180.25 -21.19,-188.06 2.05,-13.08 -3.8,-4.58 5.6,-12.32 -11.88,-12.88 -12.15,-32.92 -15.96,-53.84l-36.28 -171.97c-12.8,-53.66 -3.22,-29.53 -73.73,-64.58 -44.43,-22.09 -78.7,-44.37 -114.83,-73.75l-29.69 -23.51c-8.78,-7.17 -6.5,-8.27 -18.61,-18.47 -26.86,-22.62 -84.93,-98.91 -106.04,-134.69 -16.63,-28.18 -48.96,-91.9 -58.32,-124.51 -10.4,-33.59 -20.78,-31.69 -41.82,-52.3l-17.75 -20.34c-6.83,-8.97 -24.96,-17.47 -38.74,-51.29 -20.1,-49.32 -18.05,-22.01 -25.39,-51.33 -1.01,-4.05 -0.91,-5.56 -2.13,-10.07 -9.23,-34.2 -17.48,-89.44 -14.23,-124.97 1.26,-13.7 5.99,-27.45 7.84,-41.77 5.35,-41.54 -7.31,-79.23 11.38,-115.34 5.74,-11.09 2.92,-3.74 7.57,-15.83l8.71 -17.24c9.01,-12.58 2,-0.05 8.98,-17.76 5.45,-13.77 -1.31,-4.92 10.56,-15.46 24.28,-21.57 15.3,-16.97 31.23,-19.29 8.22,-1.2 20.81,-0.24 29.2,0.31 10.28,-70.79 68.62,-182.07 113.38,-239.75 14.46,-18.64 49.7,-54.95 56.49,-71.42 -63.83,-11.95 -72.4,-16.51 -106.91,-60.86 -19.15,-24.61 -50.46,-75.73 -55.57,-114.94l-20.93 55.18c-7.61,31.51 -6.87,23.21 -15.67,40.77l-43.77 126.27z"/>
  <path class="fil5" d="M6034.05 3224.95c10.76,7.55 32.36,12.59 46.51,18.8 46.95,20.55 118.1,73.15 149.73,107.36 19.51,21.1 75.21,83.16 75.45,109.81l57.2 -66.11c7.48,-10.31 9.22,-15.65 21.22,-19.17 4.99,201.86 -3.38,200.3 -33.3,381.68l-39.42 271.42c-2.36,34.4 17.33,55.73 24.62,82.11 11.66,11.82 23.22,31.61 35.4,45.41 10.38,11.74 27.75,30.87 46.15,36.71 22.93,-42.29 29.02,-348.15 41.65,-424.97 -3.04,-58.96 9.04,-138.41 11.11,-200.51 5.42,-162.25 17.8,-439.44 48.16,-582.16 25.59,-120.27 58.38,-215.37 114.32,-304.97 36,-57.66 94.22,-151.98 138.14,-204.48 4.75,-5.69 6.76,-8.35 11.05,-13.47 9.48,-11.3 19.26,-14.88 16.57,-22.12 12.39,-12.12 10.66,-18.35 11.15,-39.87 0.65,-27.79 2.85,-29.5 -6.83,-41.62 -31.7,15.61 -43.82,39.37 -57.3,46.97 -46.89,26.42 -202.97,18.12 -322.66,187.36 -29.01,41.01 -50.18,78.96 -79.44,124.63 -62.24,97.15 -128.65,219.93 -189.37,320.79l-93.05 159.53c-10.2,18.72 -5.5,26.32 -27.06,26.87z"/>
  <path class="fil5" d="M7310.1 2826.45c9.61,8.6 4.83,4.84 28.64,7.67 22.01,55.66 13.15,61.86 29.02,106 45.3,125.99 -5.06,186.95 37.98,230.7 19.58,19.91 56.05,35.58 81.01,56.64 11.7,-3.44 3.43,5.48 10.32,-10.25 4.11,28.89 25.08,29.35 50.19,40.64l118.41 69.07c93.67,67.5 141.31,119.89 206.75,213.78l24.04 27.38c2.65,-18.04 4.76,-14.26 -0.42,-34.06 -4.11,-185.57 -39.46,-529.73 -95.3,-696.85 -5.15,-59.18 -53.72,-160.36 -84.1,-201.43 -17.58,-23.78 -48.08,-51.09 -73.9,-69.2 -26.98,-18.95 -59.86,-34.61 -95.43,-47.33 -54.76,-19.58 -61.17,-11.78 -96.22,20.94 -23.07,21.55 -43.81,49.17 -62.91,79.7 -25.54,40.83 -73.07,149.79 -78.08,206.6z"/>
  <path class="fil11" d="M769.78 6158.01c18.42,1.95 38.25,-1.26 57.42,0.05 37.67,2.58 22.74,9.29 74.55,-22.94 20.02,-12.47 15.29,-14.48 43.59,-17.24 -12.55,28.36 -20.19,43.11 -49.93,57.12 17.19,12.86 37.87,16.35 54.03,30.19 42.62,-31.01 35.29,-59.26 61.22,-70.09 15.33,24.68 -16.83,66.21 -31.18,86.47l-6.13 8.22c13.3,5.72 5.28,2.55 19.46,17.58 0.62,0.66 2.27,3.34 2.73,2.57 0.49,-0.8 1.81,1.84 2.87,2.57 17.69,-3.36 15.3,-6.38 35.17,-20.77 22.48,-16.29 25.19,-30.24 87.93,-22.13 4.53,0.58 12.76,1.32 17.05,2.08 10.09,1.77 23.02,6.21 29.14,10.95 8.54,6.61 8.66,22.03 8.77,27.13 0.68,32.87 -5.24,32.93 22.85,35.62l7.19 -33.14c2.93,21.49 4.34,-0.48 20.81,24l86.95 181.91c0.15,0.51 3.39,16.63 5.37,23.7l25.62 97.1c-36.72,24.59 -12.6,36.93 -46.18,48.78 -5.39,1.91 -14.34,4.32 -22.11,5.59 -6.06,28.85 -22.48,61.35 -43.39,79.21 -30.45,26 -27.84,-15.99 -27.98,-23.14 -0.73,-39.03 4.42,-15.73 -10.53,-26.27 -3.85,18.55 -4.69,1.8 -6.25,21.98 -1.87,24.16 14.14,75.26 -48.57,120.85l-17.03 15.41c4.69,39.42 16.9,56.16 28.37,88 22.56,12.73 39.89,56.28 108.89,57.74 -0.56,-18.64 -4.74,-26.5 -4.65,-49.43 0.04,-9.22 0.04,-18.57 1.4,-27.68l5.23 -16.58c0.18,-0.36 0.7,-1.39 1.2,-1.97 0.16,16.53 2.59,35.16 9.2,49.62l52.04 1.11c-0.54,99.38 13.74,106.88 70.61,136.73 13.81,7.25 15.59,3.5 33.27,7.52 23.08,5.24 39.75,12.17 65.06,15.39 3.87,-34.39 -9.71,-97.53 2.02,-126.74 11.75,-0.57 38.88,14.05 50.61,18.29l0.67 132.04c22.12,16.78 48.62,26.38 81.59,26.08 -4.86,-27.14 -4.42,-441.29 0.05,-474.97l-1.71 -158.82c-56.6,-4.17 -96.37,-4.31 -151.06,7.6 -48.64,10.59 -71.93,24.77 -110.02,46.13 -9.26,-67.64 -43.32,-162.81 -70.78,-219.65 -66.72,-138.08 -110.24,-74.39 -69.47,-186.45l10.22 -57.71c0.68,-10.54 -2.67,-10.65 -2.96,-13.47 -0.2,-1.93 -0.86,-2.64 -1.93,-3.33 -22.18,45.09 -37.37,59.93 -50.27,130.84l-36.65 -15.35c-1.17,-32.91 7.98,-30.06 -1.05,-74.74 -6.31,-31.24 19.93,-19.69 17.18,-70.74 -2.32,-43.21 -45.63,-106.73 -67.1,-117.97 1.15,22.53 14.11,79.44 12.31,101.3l-5.06 16.78c-17.1,-33.1 -7.3,-163.61 -133.62,-153.39 10.52,26.54 71.89,96.77 56.09,131.98 -43.62,-61.22 -85.39,-160.06 -176.66,-111.18 6.62,16.47 74.4,69.91 84.71,120.98l-73.06 -77.01c-29.12,-27.26 -56.15,-52.02 -107.91,-25.67 21.12,21.58 62.02,65.12 67.88,103.99 -27.83,-30.28 -50.2,-91.72 -88.15,-85.1 -15.95,2.78 -25.76,15.07 -32.12,29.12 19.4,23.83 57.01,25.61 59.74,64.7 -34.62,-4.92 -61.38,-48.41 -90.28,-56.42 -11.51,22.71 -26,39.52 -35.56,69.77 19.85,10.68 26.16,25.69 75.25,47.03 37.21,16.17 87.13,-3.27 107.94,5.88 -14.38,25.59 -55.13,17.94 -82.99,19.64 5.27,9.43 -0.57,1.48 7.74,10.8l30.35 21.95z"/>
  <path class="fil9" d="M7201.53 3339.08c2.86,-1.34 4,-9.59 20.34,7.32 7.24,7.5 8.09,9.48 16.07,16.88 77.68,72 317.84,334.78 402.57,368.78 9.91,3.98 14.11,3.52 24,8.49 41.66,20.9 79.34,28.39 133.01,28.23 11.64,-8.55 18.58,-5.94 31.48,-14.14 4.28,-2.71 9.36,-7.89 11.08,-9.37 11.73,-10.11 -3.6,-5.2 13.91,-8.57 10.97,-6.1 12.69,-10.98 22.47,-32.72 20.56,-45.69 15.81,-97.03 20,-135.9l-24.04 -27.38c-65.44,-93.89 -113.08,-146.28 -206.75,-213.78l-118.41 -69.07c-25.11,-11.29 -46.08,-11.75 -50.19,-40.64 -6.89,15.73 1.38,6.81 -10.32,10.25 -24.96,-21.06 -61.43,-36.73 -81.01,-56.64 -43.04,-43.75 7.32,-104.71 -37.98,-230.7 -15.87,-44.14 -7.01,-50.34 -29.02,-106 -23.81,-2.83 -19.03,0.93 -28.64,-7.67 -13.47,27.7 -25.35,46.73 -30.04,81.03 -5.52,40.37 3.52,69.73 0.7,103.07 -24.47,0.62 -68.7,-63.03 -84.39,-87.07 -38.93,-59.66 -29.21,-64.6 -19.43,-137.08 -8.39,-0.55 -20.98,-1.51 -29.2,-0.31 -15.93,2.32 -6.95,-2.28 -31.23,19.29 -11.87,10.54 -5.11,1.69 -10.56,15.46 -6.98,17.71 0.03,5.18 -8.98,17.76l-8.71 17.24c-4.65,12.09 -1.83,4.74 -7.57,15.83 -18.69,36.11 -6.03,73.8 -11.38,115.34 -1.85,14.32 -6.58,28.07 -7.84,41.77 -3.25,35.53 5,90.77 14.23,124.97 1.22,4.51 1.12,6.02 2.13,10.07 7.34,29.32 5.29,2.01 25.39,51.33 13.78,33.82 31.91,42.32 38.74,51.29l17.75 20.34c21.04,20.61 31.42,18.71 41.82,52.3z"/>
  <path class="fil1" d="M7800.74 2837.17c55.84,167.12 91.19,511.28 95.3,696.85l-0.39 -23.72c28.35,6.87 25.34,13.3 38.86,38.28 37.14,68.62 82.75,106.68 152.57,39.97 70.94,-67.78 41.49,-106.99 66.63,-134.53 6.17,65.4 13.52,125.13 15.71,195.01 3.22,103.06 10.11,105.46 -53.27,156.09 -24.65,19.7 -124.68,93.32 -156.63,104.26 -15.19,5.21 -16.63,-2.81 -31.05,-12.64l-63.17 -38.71c-4.01,-21.71 -18.05,-110.67 -11.31,-121.33 -17.51,3.37 -2.18,-1.54 -13.91,8.57 -1.72,1.48 -6.8,6.66 -11.08,9.37 -12.9,8.2 -19.84,5.59 -31.48,14.14 -4.66,29.94 8.22,129.38 14.94,157.35 7.3,30.4 14.5,34.7 34.08,52.68 31.32,28.75 42.54,9.26 63.97,20.76 61.24,-16.54 169.19,-88.94 202.91,-123.67 79.45,-81.81 87.31,-91.51 80.55,-251.36 -5.8,-137.23 -34.72,-293.52 -60.61,-430.18 -6.93,-36.59 -27.31,-110.22 -27.1,-142.35l-62.94 -241.22c-6.47,-25.22 -17.25,-52.3 -21.86,-75.91 -55.41,-2.85 -121.07,43.59 -170.25,74.6 -15.47,9.75 -33.8,24.98 -50.47,27.69z"/>
  <path class="fil8" d="M6364.3 6737.49c-30.37,8.23 -30.4,21.29 -44.58,49.59 -7.27,14.52 -29.21,47.84 -30.72,58.82 81.7,-0.27 219.4,77.58 217.21,115.21 -22.64,4.72 -30.83,-17.29 -48.88,-30.05 -15.4,-10.89 -32.3,-20.5 -50.96,-30.68 -42.76,-23.31 -78.02,-34.4 -131.59,-36.1l-26.43 34.49c72.45,13.68 199.21,91.86 180.95,112.22 -12.76,14.21 -19.04,-7.13 -55.34,-33.37 -29.09,-21.04 -102.38,-64.8 -139.46,-59.44 -11.5,1.66 -48.38,34.54 -57.84,44.17 59.79,5.93 106.59,29.64 149.42,63.07 13.98,10.92 38.39,27.43 25.49,38.91 -10.25,9.12 -21.27,-11.93 -48.9,-31.71 -18.81,-13.48 -36.3,-23.41 -59.5,-34.26 -26.47,-12.39 -47.57,-12.47 -76.91,-17.8 -15.72,-2.86 -8.96,-4.4 -25.59,6.64 -9.7,6.45 -20.77,11.5 -28.97,20.26 13.33,6.47 33.67,9.6 49.51,15.68 32.02,12.29 60.17,29.15 84.12,50.38l25.62 23.59c6.01,14.6 -3.48,25 -30.65,-1.96 -10.25,-10.17 -19.7,-17.25 -32.01,-25.23 -23.55,-15.25 -47.29,-28.68 -77.27,-36.86 -46.13,-12.59 -54.56,-5.65 -87.34,12.56 -12.17,6.77 -65.03,32.41 -73.23,39.37 49.14,17.4 95.44,4.43 173.76,65.21 36.04,27.97 84.75,85.43 92.58,151.07 -17.31,14.46 -70.18,23.89 -97.83,27.34 -44.76,5.57 -78.73,3.61 -123.29,-1.42 -50.57,-5.7 -148.94,-28.1 -171.62,-81.7 -9.85,112.2 207.18,128.05 292.08,118.03 59.73,-7.05 116.02,-21.57 166.08,-42.72 92.92,-39.26 171.4,-135 257.81,-162.52 145.92,-46.46 195.03,-15.89 163.64,-248.77 -4.22,-31.29 -12.54,-58.81 -16.88,-89.18 -3.61,-25.24 -3.11,-73.77 -18.42,-86.14l-7.4 10.2c-7.36,11.32 -6.98,14.56 -20.9,23.8 -65.37,43.41 -69.61,86.12 -97.19,82.04 -2.29,-24.61 15.84,-40.44 -4.27,-61.02 -29.93,-30.66 -156.3,-52.22 -194.3,-51.72z"/>
  <path class="fil8" d="M5289.24 2964.8c28.58,-9.07 30.39,-16.89 70.59,-22.13 138.36,-18.02 68.92,47.93 40.64,60.46 -27.28,12.1 -51.22,21.33 -62.55,40.38 51.09,-2.03 27.35,-30.32 157.47,-27.18 25.31,0.62 41.91,-3.67 52.72,12.94 12.15,20.08 -6.78,31.94 -16.83,44.45 35.96,1.82 66.58,-5.5 84.6,17.49 1.67,24.74 -13.16,28.14 -23.13,44.38 14.67,3.89 24.02,2.64 23.82,23.27 -0.73,73.75 -196.2,68.21 -158.91,178.02 34,41.26 86.29,45.9 151.67,57.91 51.68,2.75 189.22,37.46 211.58,33.18 16.81,-3.21 40.18,-29.63 40.92,-44.41 0.88,-17.77 -84.51,-197.48 -98.75,-232 -13.17,-21.58 -29.39,-63.32 -40.35,-88.75l-80.87 -180.25c-62.42,-140.1 -38,-120.71 -242.6,-157.47 -22.85,-4.11 -149.74,-31.59 -167.3,-25.09 -9.26,3.44 -30.58,26.33 -35.57,34.95 -2.43,36.08 77.51,183.25 92.85,229.85z"/>
  <path class="fil8" d="M7457.48 6917.18c-18,18.01 4.94,93.92 9.24,121.79 7,45.17 9.22,93.82 12.7,139.88 8.12,107.5 -0.42,179.58 4.58,254.11 1.55,23.09 1.32,26.49 8.86,34.69 22.8,-36.44 98.55,-61.1 161.54,-71.64 35.54,-5.95 72.28,-8.61 108.93,-6.33 49.88,3.11 57.3,10.52 93.66,26.9 6.69,-66.58 -47.75,-195 -63.55,-262.05 -14.1,-59.82 -22.32,-246.42 -53.48,-277.78 -3.72,2.9 -6.49,-1.62 -7.04,20.41 -0.5,19.42 9.63,46.3 2.76,64.94 -12.76,-12.43 -4.16,-26.9 -12.08,-40.75 -14.78,-25.79 -102.75,-8.15 -125.56,-3.11 -163.07,36.08 -85.36,25.16 -110.18,86.15 -0.02,-0.05 -6.12,-10.92 -8.51,-17.53 -2.14,-5.93 -4.69,-15.58 -6.35,-22.21 -4.48,-17.9 -9.31,-33.61 -15.52,-47.47z"/>
  <path class="fil4" d="M4311.37 6037.84l299.48 -758.1c-11.9,-13.79 -39.94,-29.76 -56.86,-40.47 -125.47,-79.44 -180.04,-115.86 -214.9,-254.51 -7.28,-28.93 -31.3,-132.27 -29.79,-155.35l2.07 1208.43z"/>
  <path class="fil9" d="M5609.33 3394.79c4.05,4.76 1.03,2.46 6.94,6.53l33.42 15.89c84.49,40.22 224.83,95.19 311.6,129.19 103.36,40.52 204.12,69.9 286.53,-18.15 14.69,-15.69 48.07,-49.92 57.92,-67.33 -0.24,-26.65 -55.94,-88.71 -75.45,-109.81 -31.63,-34.21 -102.78,-86.81 -149.73,-107.36 -14.15,-6.21 -35.75,-11.25 -46.51,-18.8l-270.97 -73.39c14.24,34.52 99.63,214.23 98.75,232 -0.74,14.78 -24.11,41.2 -40.92,44.41 -22.36,4.28 -159.9,-30.43 -211.58,-33.18z"/>
  <path class="fil10" d="M1231.07 6070.82c1.07,0.69 1.73,1.4 1.93,3.33 0.29,2.82 3.64,2.93 2.96,13.47l-10.22 57.71c6.18,25.53 14.96,51.31 20.04,73.2 16.16,-13.72 68.88,-152.35 132.37,-133.66 -1.56,33.2 -45.44,32.64 -83.71,124.94 -15.73,37.96 -9.49,55.3 13.54,76.03 12.06,10.85 45.91,39.07 64.16,38.62 -0.03,-59.48 33.99,-172.25 86.77,-169.21 -0.85,25.58 -30.6,51.37 -43.97,135.1 -11.26,70.58 -6.01,104.6 66.81,107.58 -2.53,-35.7 -7.95,-146.92 37.83,-160.26 15.17,29.37 9.91,88.23 17.08,125.46 8.29,43.01 25.49,52.06 89.63,58.34l0.3 -476.3c-84.6,-19.97 -90.05,3.14 -154.41,16.74 6.88,-6.67 12.55,-11.73 24.92,-18.21 16.01,-8.38 21.54,-6.83 32.34,-17.61 -62.96,-11.96 -124.13,10.69 -142.77,56.88 -46.67,-8.7 -66.65,-5.21 -99.32,19.8 -42.75,32.73 -36.25,52.96 -56.28,68.05z"/>
  <path class="fil9" d="M6364.3 6737.49c38,-0.5 164.37,21.06 194.3,51.72 20.11,20.58 1.98,36.41 4.27,61.02 27.58,4.08 31.82,-38.63 97.19,-82.04 13.92,-9.24 13.54,-12.48 20.9,-23.8l7.4 -10.2c-4.52,-18.94 17.37,-148.98 24.92,-158.01 -2.84,-28.38 12.85,-78.83 15.78,-112.84 -73.12,18.9 -103.58,26.3 -188.65,15.94 -72.05,-8.78 -108.2,-25.35 -163.61,-48.56 -5.07,77 9.08,249.62 -12.5,306.77z"/>
  <path class="fil9" d="M7388.5 6611.32l68.98 305.86c6.21,13.86 11.04,29.57 15.52,47.47 1.66,6.63 4.21,16.28 6.35,22.21 2.39,6.61 8.49,17.48 8.51,17.53 24.82,-60.99 -52.89,-50.07 110.18,-86.15 22.81,-5.04 110.78,-22.68 125.56,3.11 7.92,13.85 -0.68,28.32 12.08,40.75 6.87,-18.64 -3.26,-45.52 -2.76,-64.94 0.55,-22.03 3.32,-17.51 7.04,-20.41 -14.32,-13.66 -8.65,-52.89 -9.63,-73.33 -1.29,-27.07 -2.29,-54.47 -2.04,-81.61l-1.19 -148.29c-40.6,30.11 -90.67,43.69 -153.72,50.54 -78.52,8.53 -117.91,0.39 -184.88,-12.74z"/>
  <path class="fil8" d="M4311.37 6037.84c2.34,13.15 -0.85,7.91 8.86,15.08 0.37,0.28 15,5.21 15.08,5.24 12.94,4.12 13.83,7.37 28.09,5.95l72.04 -75.64c23.17,-26.46 48.42,-49.03 71.83,-75.22 57.34,-64.16 163.92,-167.24 214.19,-226.52l106.17 -114.32c18.84,-16.29 21.83,-19.38 36.96,-36.34 12.19,-13.67 22.35,-22.4 35.28,-38.08l35.87 -38.07c-6.85,-13.95 -35.53,-25.78 -50.44,-28.14l-473.61 501.06 246.49 -626.72 -8.52 -7.39c-0.67,-0.49 -1.69,-1.16 -2.4,-1.65 -4.45,-3.09 -8.64,-5.54 -12.7,-8.08 -11.19,-7.03 -11.9,-9.5 -23.71,-9.26l-299.48 758.1z"/>
  <path class="fil4" d="M4885.3 5431.78c-12.27,-10.78 -42.34,-23.5 -55.94,-31.01 -19.02,-10.49 -35.33,-20.13 -57.86,-31.89 -30.12,-15.71 -85.6,-53.88 -113.32,-62.76l-246.49 626.72 473.61 -501.06z"/>
  <path class="fil9" d="M5289.24 2964.8c-9.98,24.26 -83.2,57.2 -5.86,115.42 -9.38,55.06 -14.98,63.33 22.92,95.45 -0.08,54.8 -16.86,77.1 49.65,78.6 4.1,49.63 43.32,61.77 101.71,82.61 -37.29,-109.81 158.18,-104.27 158.91,-178.02 0.2,-20.63 -9.15,-19.38 -23.82,-23.27 9.97,-16.24 24.8,-19.64 23.13,-44.38 -18.02,-22.99 -48.64,-15.67 -84.6,-17.49 10.05,-12.51 28.98,-24.37 16.83,-44.45 -10.81,-16.61 -27.41,-12.32 -52.72,-12.94 -130.12,-3.14 -106.38,25.15 -157.47,27.18 11.33,-19.05 35.27,-28.28 62.55,-40.38 28.28,-12.53 97.72,-78.48 -40.64,-60.46 -40.2,5.24 -42.01,13.06 -70.59,22.13z"/>
  <path class="fil8" d="M5964.07 5324.82l241.03 610.62c-3.77,-3.59 -48.76,-49.65 -56.57,-58.66l-115.45 -121.13c-20.24,-23.61 -34.97,-39.41 -59.86,-62.37l-173.76 -185.56c-18.49,-20.97 -40.65,-41.5 -60.13,-61.49 -17.49,-2.2 -38.4,10.27 -50.95,22.72l139.33 149.22c29.3,23.98 43.22,49.88 68.25,74.61l36.66 36.8c47.5,52.28 302.98,316.92 315.48,337.67 21.95,-2.2 43.46,-9.69 59.59,-20.24 -50.7,-121.97 -99.03,-248.54 -149.01,-376.22 -24.34,-62.19 -48.7,-124.74 -73.91,-187.15 -21.42,-53.03 -60.42,-139.23 -74.13,-189 -10.68,2.97 -16.05,6.86 -24.89,11.7 -3.19,1.74 -11.02,6.19 -12.91,7.83 -10.39,8.94 -2.57,0.01 -8.77,10.65z"/>
  <path class="fil4" d="M1193.97 7108.41l4.52 124.91 -28.09 -0.45 -3.01 -113.13c-29.37,-4.65 -128.8,45.67 -152.93,95.84 61.36,114.22 298.39,143.88 446.53,87.16 40.73,-15.59 96.61,-48.17 114.71,-87.16 -19.98,-40.63 -100.89,-95.09 -164.7,-101.46l-3.85 119.23 -24.23 -0.79 4.85 -123.05c-24.29,-11.27 -62.11,-9.85 -89.53,-10.06l17.13 181.63 -27.27 0.49 -16.92 -180.04c-26.16,-3.31 -52.31,4.86 -77.21,6.88z"/>
  <path class="fil4" d="M5739.33 5446.23c19.48,19.99 41.64,40.52 60.13,61.49l173.76 185.56c24.89,22.96 39.62,38.76 59.86,62.37l115.45 121.13c7.81,9.01 52.8,55.07 56.57,58.66l-241.03 -610.62c-14.9,-0.7 -94.5,47.55 -113.98,58.31 -18.81,10.38 -36.21,20.19 -55.84,29.98 -16.3,8.14 -47.03,21.48 -54.92,33.12z"/>
  <path class="fil5" d="M7896.04 3534.02c5.18,19.8 3.07,16.02 0.42,34.06 -4.19,38.87 0.56,90.21 -20,135.9 -9.78,21.74 -11.5,26.62 -22.47,32.72 -6.74,10.66 7.3,99.62 11.31,121.33l63.17 38.71c14.42,9.83 15.86,17.85 31.05,12.64 31.95,-10.94 131.98,-84.56 156.63,-104.26 63.38,-50.63 56.49,-53.03 53.27,-156.09 -2.19,-69.88 -9.54,-129.61 -15.71,-195.01 -25.14,27.54 4.31,66.75 -66.63,134.53 -69.82,66.71 -115.43,28.65 -152.57,-39.97 -13.52,-24.98 -10.51,-31.41 -38.86,-38.28l0.39 23.72z"/>
  <path class="fil5" d="M7654.99 4004.4c43.46,4.02 79.13,16.58 129.64,17.1 51.2,0.51 83.08,-9.63 125.88,-21.93 -21.43,-11.5 -32.65,7.99 -63.97,-20.76 -19.58,-17.98 -26.78,-22.28 -34.08,-52.68 -6.72,-27.97 -19.6,-127.41 -14.94,-157.35 -53.67,0.16 -91.35,-7.33 -133.01,-28.23 -9.89,-4.97 -14.09,-4.51 -24,-8.49 -84.73,-34 -324.89,-296.78 -402.57,-368.78 -7.98,-7.4 -8.83,-9.38 -16.07,-16.88 -16.34,-16.91 -17.48,-8.66 -20.34,-7.32 9.36,32.61 41.69,96.33 58.32,124.51 21.11,35.78 79.18,112.07 106.04,134.69 12.11,10.2 9.83,11.3 18.61,18.47l29.69 23.51c36.13,29.38 70.4,51.66 114.83,73.75 70.51,35.05 60.93,10.92 73.73,64.58l36.28 171.97c3.81,20.92 4.08,40.96 15.96,53.84z"/>
  <path class="fil4" d="M7492.86 7467.65c1,4.44 2.9,11.16 3.74,15.16 6.39,30.35 10,69.46 31.04,105.07l3.12 4.94c2.94,4.82 1.62,2.69 4.64,7.72 83.14,138.09 267.64,63.72 302.86,-39.54 29.39,-86.18 4.3,-98.16 18.73,-144.42 -36.36,-16.38 -43.78,-23.79 -93.66,-26.9 -36.65,-2.28 -73.39,0.38 -108.93,6.33 -62.99,10.54 -138.74,35.2 -161.54,71.64z"/>
  <path class="fil3" d="M1966.83 7485.88c3.57,58.77 -13.12,137.9 34.06,163.6 49.16,26.76 141.93,-45.63 142.31,-46.24 11.64,-55.05 -4.16,-152.14 4,-213.4 -19.99,2.88 -31.71,12.62 -49.33,23.29 -15.54,9.42 -25.45,15.35 -41.5,24.19 -22.05,12.12 -66.29,42.48 -89.54,48.56z"/>
  <path class="fil12" d="M3899.4 1654.63c2.22,41.59 0.85,83.69 0.85,125.43 0,16.74 -5.17,109.04 5.26,121.9 19.32,-6.43 57.12,-31.46 77.18,-43.15 25.2,-14.68 50.91,-31.05 76.27,-43.65 3.13,-55.96 9.97,-132.42 -22.09,-168.25 -33.43,-37.35 -101.03,-23.92 -137.47,7.72z"/>
  <path class="fil13" d="M6766.81 1778.22c-45.16,60.97 -90.32,121.94 -135.48,182.9 40.08,18.63 80.16,37.26 120.24,55.88 5.08,-79.59 10.16,-159.18 15.24,-238.78z"/>
  <path class="fil12" d="M6934.46 1851.04c0,-22.45 -17.06,-40.65 -38.09,-40.65 -21.05,0 -38.11,18.2 -38.11,40.65 0,22.45 17.06,40.64 38.11,40.64 21.03,0 38.09,-18.19 38.09,-40.64z"/>
  <path class="fil12" d="M6658.42 1835.81c0,-22.46 -17.05,-40.65 -38.09,-40.65 -21.05,0 -38.11,18.19 -38.11,40.65 0,22.44 17.06,40.63 38.11,40.63 21.04,0 38.09,-18.19 38.09,-40.63z"/>
  <path class="fil12" d="M6875.27 1749.56c32.95,14.4 65.89,28.8 98.84,43.2 2.2,-7.81 4.4,-15.62 3.79,-25.87 -0.61,-10.25 -4.03,-22.94 -10.62,-31.73 -6.59,-8.79 -16.35,-13.67 -25.26,-16.59 -8.91,-2.93 -16.96,-3.91 -24.04,-2.69 -7.08,1.22 -13.18,4.64 -20.14,10.62 -6.95,5.98 -14.76,14.52 -22.57,23.06z"/>
  <path class="fil14" d="M6785.77 2131.48c3.6,-9.8 7.2,-19.6 11.76,-27.26 4.55,-7.66 10.07,-13.18 16.23,-18.16 6.15,-4.99 12.94,-9.45 21.71,-11.96 8.76,-2.51 19.49,-3.06 30.22,-3.62 0.86,-7.1 0.78,-13.45 0.6,-17.64 -0.32,-7.43 -0.95,-8.07 -22.6,-0.74 -21.65,7.32 -64.32,22.6 -106.98,37.88 8.7,13.37 17.41,26.75 29.61,34.28 5.92,3.66 12.67,5.94 19.45,7.22z"/>
  <path class="fil15" d="M6797.53 2104.22c-4.56,7.66 -8.16,17.46 -11.76,27.26 7.2,1.36 14.43,1.6 20.77,1.16 12.31,-0.84 21.23,-4.24 30.67,-11.99 9.45,-7.74 19.42,-19.84 24.41,-33 2.18,-5.74 3.4,-11.68 4.07,-17.17 -10.73,0.56 -21.46,1.11 -30.22,3.62 -8.77,2.51 -15.56,6.97 -21.71,11.96 -6.16,4.98 -11.68,10.5 -16.23,18.16z"/>
  <path class="fil12 str1" d="M3269.98 5283.07c0,-66.55 -53.96,-93.03 -120.52,-59.12 -66.56,33.91 -120.51,115.35 -120.51,181.91 0,66.56 53.95,93.03 120.51,59.12 66.56,-33.91 120.52,-115.35 120.52,-181.91z"/>
  <path class="fil16" d="M2646.87 5687.9l-22.77 11.6 0 -145.02c-5.48,8.05 -12.68,16.94 -21.57,26.69 -8.88,9.74 -16.91,17.75 -23.98,23.95l0 -22c12.72,-12.44 23.85,-25.35 33.39,-38.75 9.53,-13.36 16.3,-25.04 20.27,-35.09l14.66 -7.47 0 186.09z"/>
  <path class="fil16" d="M2691.44 5898.5l0 19.7 -111.16 56.63c-0.15,-4.89 0.67,-10.08 2.43,-15.58 2.85,-9 7.43,-18.79 13.72,-29.31 6.29,-10.51 15.28,-23.54 26.97,-39.06 18.17,-24.23 30.52,-42.37 36.97,-54.41 6.49,-12.06 9.73,-22 9.73,-29.81 0,-8.17 -2.93,-13.56 -8.79,-16.2 -5.87,-2.6 -13.53,-1.52 -22.94,3.28 -9.97,5.08 -17.94,12.11 -23.92,21.1 -5.98,8.95 -8.99,18.69 -9.07,29.24l-21.11 8.64c1.45,-16.52 6.92,-31.35 16.38,-44.45 9.5,-13.13 22.2,-23.74 38.18,-31.89 16.11,-8.2 28.89,-10.25 38.27,-6.08 9.42,4.15 14.11,12.86 14.11,26.07 0,6.73 -1.37,14.03 -4.14,21.93 -2.74,7.92 -7.31,17.09 -13.68,27.53 -6.41,10.41 -17.01,25.7 -31.78,45.73 -12.39,16.71 -20.36,27.81 -23.88,33.32 -3.52,5.5 -6.41,10.69 -8.72,15.61l82.43 -41.99z"/>
  <path class="fil16" d="M2583.33 6190.71l20.64 -13.33c2.38,10.51 6.37,16.92 12.04,19.19 5.67,2.27 12.62,1.31 20.87,-2.89 9.77,-4.98 18.02,-12.54 24.67,-22.65 6.64,-10.1 9.96,-20.12 9.96,-30.05 0,-9.46 -3.09,-15.71 -9.3,-18.71 -6.18,-3 -14.03,-2.08 -23.61,2.8 -3.91,1.99 -8.76,5.24 -14.58,9.73l2.31 -19.23c1.36,-0.54 2.5,-1.04 3.32,-1.46 8.83,-4.5 16.73,-10.83 23.8,-19 7.04,-8.16 10.56,-16.99 10.56,-26.49 0,-7.54 -2.58,-12.48 -7.7,-14.83 -5.12,-2.36 -11.73,-1.46 -19.82,2.66 -8.05,4.11 -14.74,10.05 -20.09,17.86 -5.36,7.81 -8.8,17.18 -10.32,28.12l-20.63 6.76c2.53,-15.13 8.24,-28.79 17.19,-40.96 8.91,-12.16 20.05,-21.63 33.34,-28.4 9.15,-4.66 17.59,-7.01 25.29,-6.98 7.74,-0.04 13.64,2.31 17.7,7 4.11,4.71 6.14,10.87 6.14,18.49 0,7.23 -1.95,14.79 -5.82,22.71 -3.91,7.93 -9.7,15.6 -17.32,23 9.93,-2.79 17.63,-1.94 23.14,2.49 5.47,4.4 8.21,12.07 8.21,22.9 0,14.65 -5.36,29.85 -16.03,45.49 -10.71,15.66 -24.23,27.63 -40.56,35.95 -14.74,7.51 -26.97,9.32 -36.71,5.49 -9.77,-3.82 -15.32,-12.37 -16.69,-25.66z"/>
  <path class="fil16" d="M2761.05 5362.88l77.9 -242.77 29.55 -15.05 82.68 160.97 -30.59 15.58 -23.49 -49.59 -85.52 43.57 -22.03 72.77 -28.5 14.52zm58.42 -113.15l69.21 -35.26 -21.18 -45.51c-6.38,-13.86 -11.2,-25.54 -14.56,-34.99 -2.78,14.66 -6.52,29.56 -11.2,44.81l-22.27 70.95z"/>
  <path class="fil16" d="M3074.51 5203.2l0 -203.09 76.2 -38.82c15.51,-7.9 27.94,-12.2 37.35,-12.88 9.36,-0.65 16.69,1.95 21.98,7.81 5.34,5.79 7.99,13.37 7.99,22.73 0,8.65 -2.36,18.04 -7.04,28.08 -4.68,10.04 -11.77,19.85 -21.27,29.41 12.29,-2.67 21.74,-1.34 28.31,4.02 6.62,5.28 9.93,13.85 9.93,25.66 0,9.55 -2.04,19.43 -6.06,29.65 -4.01,10.23 -8.98,19.05 -14.89,26.5 -5.91,7.41 -13.33,14.55 -22.21,21.34 -8.94,6.82 -19.86,13.52 -32.81,20.12l-77.48 39.47zm26.94 -131.44l43.92 -22.37c11.91,-6.07 20.47,-11.23 25.63,-15.42 6.85,-5.52 12,-11.55 15.45,-18.03 3.45,-6.49 5.2,-13.29 5.2,-20.43 0,-6.76 -1.61,-11.89 -4.87,-15.34 -3.21,-3.51 -7.85,-4.7 -13.85,-3.53 -6,1.17 -16.31,5.47 -30.87,12.88l-40.61 20.69 0 61.55zm0 93.89l50.59 -25.77c8.69,-4.43 14.8,-7.87 18.34,-10.34 6.14,-4.22 11.34,-8.71 15.5,-13.43 4.16,-4.71 7.57,-10.23 10.26,-16.57 2.69,-6.34 4.02,-12.73 4.02,-19.21 0,-7.61 -1.94,-13.19 -5.86,-16.82 -3.88,-3.65 -9.27,-4.82 -16.17,-3.58 -6.85,1.22 -16.78,5.14 -29.68,11.72l-47 23.94 0 70.06z"/>
  <path class="fil16" d="M3487.44 4921.6l26.94 -6.92c-5.62,24.94 -15.74,46.88 -30.34,65.9 -14.61,19.03 -32.48,33.94 -53.61,44.71 -21.84,11.12 -39.62,15.74 -53.33,13.79 -13.7,-1.91 -24.11,-9.52 -31.24,-22.76 -7.14,-13.28 -10.74,-29.56 -10.74,-48.94 0,-21.13 4.02,-41.61 12.11,-61.47 8.08,-19.86 19.57,-37.68 34.46,-53.44 14.89,-15.77 31.29,-28.19 49.16,-37.29 20.33,-10.35 37.39,-13.89 51.2,-10.57 13.85,3.29 23.5,12.89 28.93,28.84l-26.38 19.68c-4.68,-12.37 -11.53,-19.65 -20.47,-21.81 -8.93,-2.21 -20.18,0.17 -33.75,7.08 -15.55,7.92 -28.6,18.3 -39.05,31.09 -10.44,12.79 -17.82,26.62 -22.03,41.34 -4.25,14.78 -6.38,28.87 -6.38,42.25 0,17.25 2.51,31.05 7.52,41.36 5.01,10.35 12.81,15.98 23.4,16.97 10.59,0.98 22.03,-1.68 34.36,-7.96 15.04,-7.66 27.71,-18.46 38.11,-32.42 10.39,-13.99 17.44,-30.44 21.13,-49.43z"/>
  <path class="fil16" d="M3614.22 4928.26l0 -203.09 69.97 -35.64c15.79,-8.04 27.84,-13.24 36.16,-15.54 11.63,-3.23 21.56,-3.42 29.78,-0.61 10.73,3.61 18.72,11.07 24.01,22.47 5.35,11.36 8,26.13 8,44.24 0,15.41 -1.8,29.99 -5.39,43.73 -3.6,13.74 -8.23,25.98 -13.85,36.65 -5.68,10.69 -11.82,19.96 -18.53,27.83 -6.67,7.88 -14.75,15.4 -24.21,22.54 -9.5,7.15 -20.37,13.82 -32.66,20.09l-73.28 37.33zm26.95 -37.56l43.3 -22.06c13.38,-6.81 23.88,-13.39 31.48,-19.77 7.61,-6.38 13.67,-12.96 18.2,-19.81 6.34,-9.61 11.3,-20.74 14.84,-33.33 3.55,-12.58 5.35,-26.54 5.35,-41.91 0,-21.27 -3.5,-35.84 -10.45,-43.74 -6.95,-7.91 -15.41,-11.25 -25.38,-10.05 -7.19,0.87 -18.77,5.4 -34.75,13.54l-42.59 21.7 0 155.43z"/>
  <polygon class="fil16" points="3871.48,4797.2 3871.48,4594.12 4018.12,4519.42 4018.12,4543.24 3898.42,4604.22 3898.42,4666.62 4010.46,4609.54 4010.46,4633.37 3898.42,4690.44 3898.42,4759.65 4022.94,4696.22 4022.94,4720.04 "/>
  <path class="fil12 str1" d="M3801.65 5276.86c0,-66.56 -53.95,-93.03 -120.51,-59.12 -66.56,33.91 -120.52,115.34 -120.52,181.9 0,66.56 53.96,93.03 120.52,59.12 66.56,-33.9 120.51,-115.34 120.51,-181.9z"/>
  <path class="fil12 str1" d="M2993.47 5943.77c0,-66.56 -53.94,-93.02 -120.5,-59.12 -66.56,33.91 -120.52,115.35 -120.52,181.91 0,66.55 53.96,93.02 120.52,59.12 66.56,-33.9 120.5,-115.35 120.5,-181.91z"/>
  <path class="fil7 str2" d="M3813.08 5575.33c-17.09,63.99 -68.61,125.91 -124.05,154.15 -30.56,15.56 -68.54,24.04 -100.78,8.23 -14.74,-7.23 -25.47,-18.15 -32.74,-31.17 -17.09,63.98 -68.62,125.9 -124.05,154.14 -30.56,15.57 -68.54,24.06 -100.78,8.24 -25.48,-12.5 -38.95,-36.02 -43.36,-62.34 -1.91,76.59 -63.09,159.68 -129.97,193.75 -30.56,15.56 -68.54,24.04 -100.78,8.22 -31.97,-15.68 -45.03,-48.7 -45.03,-82.85 0,-58.67 35.49,-121.69 82.17,-163.9 -12.72,-0.11 -25.31,-2.65 -37.14,-8.45 -31.97,-15.68 -45.03,-48.7 -45.03,-82.85 0,-77.6 62.06,-162.8 130.01,-197.41 30.56,-15.57 68.54,-24.05 100.78,-8.23 25.48,12.5 38.95,36.02 43.37,62.34 1.55,-62.48 42.55,-129.27 93.9,-170.26 -16.66,1.7 -33.45,-0.3 -48.92,-7.89 -31.97,-15.68 -45.03,-48.7 -45.03,-82.85 0,-77.59 62.07,-162.79 130.01,-197.41 30.56,-15.56 68.54,-24.04 100.78,-8.23 14.74,7.24 25.47,18.16 32.74,31.17 17.09,-63.99 68.61,-125.91 124.05,-154.15 30.56,-15.56 68.54,-24.04 100.78,-8.23 14.74,7.24 25.46,18.15 32.74,31.17 17.09,-63.98 68.61,-125.91 124.05,-154.15 30.56,-15.56 68.54,-24.04 100.77,-8.23 31.98,15.69 45.04,48.71 45.04,82.86 0,63.51 -41.6,132.12 -93.95,173.91 16.66,-1.7 33.45,0.3 48.91,7.89 31.98,15.68 45.04,48.7 45.04,82.85 0,58.68 -35.49,121.7 -82.18,163.91 12.72,0.11 25.32,2.64 37.14,8.44 31.98,15.69 45.04,48.71 45.04,82.86 0,77.59 -62.07,162.79 -130.02,197.41 -30.55,15.57 -68.53,24.04 -100.77,8.23 -14.75,-7.23 -25.47,-18.15 -32.74,-31.17zm-6.33 -94.95c11.98,-44.86 40.89,-88.71 76.21,-120.64 -12.72,-0.12 -25.31,-2.65 -37.14,-8.45 -31.97,-15.68 -45.03,-48.7 -45.03,-82.85 0,-63.52 41.58,-132.13 93.94,-173.92 -16.65,1.7 -33.44,-0.3 -48.91,-7.89 -14.75,-7.23 -25.47,-18.15 -32.74,-31.17 -17.09,63.99 -68.61,125.91 -124.05,154.15 -30.56,15.56 -68.54,24.05 -100.78,8.23 -14.74,-7.23 -25.47,-18.15 -32.74,-31.17 -13.29,49.76 -47.4,98.27 -87.98,130.66 16.65,-1.69 33.44,0.31 48.91,7.89 31.97,15.68 45.03,48.7 45.03,82.85 0,58.67 -35.49,121.7 -82.17,163.91 12.72,0.12 25.31,2.65 37.14,8.45 14.74,7.23 25.47,18.15 32.74,31.17 17.09,-63.99 68.61,-125.91 124.05,-154.15 30.56,-15.57 68.54,-24.05 100.78,-8.23 14.74,7.23 25.46,18.15 32.74,31.16zm-521.05 302.02c1.43,-57.62 36.41,-118.91 82.12,-160.24 -12.71,-0.12 -25.31,-2.65 -37.14,-8.45 -25.48,-12.5 -38.95,-36.01 -43.36,-62.34 -1.43,57.62 -36.42,118.91 -82.13,160.25 12.72,0.11 25.32,2.65 37.14,8.45 25.49,12.49 38.95,36.01 43.37,62.33zm-368.76 -184.59c16.66,-1.69 33.45,0.3 48.91,7.89 31.98,15.68 45.04,48.7 45.04,82.85 0,77.6 -62.07,162.8 -130.01,197.41 -30.56,15.57 -68.54,24.05 -100.78,8.23 -31.97,-15.68 -45.03,-48.7 -45.03,-82.85 0,-63.52 41.59,-132.13 93.95,-173.92 -16.66,1.7 -33.45,-0.3 -48.92,-7.89 -31.97,-15.68 -45.03,-48.7 -45.03,-82.85 0,-77.6 62.07,-162.79 130.01,-197.41 30.56,-15.56 68.54,-24.04 100.77,-8.23 31.98,15.69 45.04,48.7 45.04,82.85 0,63.52 -41.59,132.13 -93.95,173.92z"/>
  <g id="_2622611526656">
   <g>
    <path class="fil7 str1" d="M2993.47 5423.89c0,-66.56 -53.94,-93.03 -120.5,-59.12 -66.56,33.91 -120.52,115.34 -120.52,181.9 0,66.56 53.96,93.03 120.52,59.12 66.56,-33.91 120.5,-115.34 120.5,-181.9z"/>
    <path class="fil7 str1" d="M3544.07 5143.42c0,-66.56 -53.96,-93.03 -120.51,-59.12 -66.56,33.9 -120.52,115.35 -120.52,181.9 0,66.56 53.96,93.03 120.52,59.12 66.55,-33.9 120.51,-115.34 120.51,-181.9z"/>
    <path class="fil7 str1" d="M3801.65 5012.23c0,-66.56 -53.95,-93.03 -120.51,-59.12 -66.56,33.9 -120.52,115.34 -120.52,181.9 0,66.56 53.96,93.03 120.52,59.12 66.56,-33.91 120.51,-115.35 120.51,-181.9z"/>
    <path class="fil7 str1" d="M4059.23 4880.99c0,-66.56 -53.96,-93.02 -120.51,-59.13 -66.56,33.91 -120.52,115.36 -120.52,181.92 0,66.55 53.96,93.02 120.52,59.12 66.55,-33.91 120.51,-115.35 120.51,-181.91z"/>
   </g>
   <g>
    <path class="fil7 str1" d="M2993.47 5688.56c0,-66.55 -53.94,-93.02 -120.5,-59.12 -66.56,33.9 -120.52,115.35 -120.52,181.91 0,66.56 53.96,93.02 120.52,59.12 66.56,-33.91 120.5,-115.36 120.5,-181.91z"/>
    <path class="fil7 str1" d="M3269.98 5547.71c0,-66.56 -53.96,-93.03 -120.52,-59.12 -66.56,33.9 -120.51,115.34 -120.51,181.9 0,66.56 53.95,93.03 120.51,59.12 66.56,-33.91 120.52,-115.34 120.52,-181.9z"/>
    <path class="fil7 str1" d="M3544.07 5408.09c0,-66.56 -53.96,-93.03 -120.51,-59.12 -66.56,33.91 -120.52,115.35 -120.52,181.91 0,66.55 53.96,93.03 120.52,59.12 66.55,-33.91 120.51,-115.35 120.51,-181.91z"/>
    <path class="fil7 str1" d="M4059.23 5145.66c0,-66.56 -53.96,-93.03 -120.51,-59.12 -66.56,33.91 -120.52,115.35 -120.52,181.9 0,66.56 53.96,93.03 120.52,59.13 66.55,-33.9 120.51,-115.35 120.51,-181.91z"/>
   </g>
   <g>
    <path class="fil7 str1" d="M3269.98 5802.92c0,-66.56 -53.96,-93.03 -120.52,-59.12 -66.56,33.9 -120.51,115.35 -120.51,181.91 0,66.56 53.95,93.03 120.51,59.12 66.56,-33.91 120.52,-115.36 120.52,-181.91z"/>
    <path class="fil7 str1" d="M3544.07 5663.27c0,-66.56 -53.96,-93.03 -120.51,-59.13 -66.56,33.91 -120.52,115.36 -120.52,181.91 0,66.56 53.96,93.03 120.52,59.12 66.55,-33.9 120.51,-115.34 120.51,-181.9z"/>
    <path class="fil7 str1" d="M3801.65 5532.07c0,-66.55 -53.95,-93.02 -120.51,-59.11 -66.56,33.89 -120.52,115.34 -120.52,181.9 0,66.56 53.96,93.02 120.52,59.12 66.56,-33.91 120.51,-115.35 120.51,-181.91z"/>
    <path class="fil7 str1" d="M4059.23 5400.88c0,-66.56 -53.96,-93.03 -120.51,-59.12 -66.56,33.91 -120.52,115.34 -120.52,181.9 0,66.56 53.96,93.03 120.52,59.12 66.55,-33.91 120.51,-115.34 120.51,-181.9z"/>
   </g>
  </g>
  <path class="fil2" d="M7547 7316.81c20.39,5.54 78.11,-32.52 152.56,-33.67 17.66,-0.28 45.94,7.86 58.16,-1.09 -2.74,-15.81 -20.4,-15.13 -54.7,-14.82 -51.83,0.47 -92.92,13.73 -139.38,31.35 -14.1,5.35 -15.05,4.27 -16.64,18.23z"/>
  <path class="fil2" d="M7744.08 7149.58c-3.99,-15.2 -23.13,-16.08 -51.11,-18.37 -21.76,-1.78 -44.1,0.27 -64.74,4.41 -19.07,3.83 -92.35,25.71 -96.02,39.82 -5.96,22.87 44.73,-11.89 92.26,-22.85 75.9,-17.5 102.5,10.2 119.61,-3.01z"/>
  <path class="fil2" d="M7523.63 7112.74c14.73,3.84 28.73,-7.73 43.6,-14.15 32.82,-14.16 75.27,-24.8 112.18,-24.05 17.48,0.36 45.18,12.33 57.4,3.71 -2.12,-16.08 -19.6,-16.9 -50.68,-18.67 -40.21,-2.28 -84.43,8.45 -121.16,22.99 -28.51,11.29 -39.71,14.35 -41.34,30.17z"/>
  <path class="fil2" d="M7541.27 7246.32c21.32,7 71.5,-37.12 155.04,-34.39 16.04,0.53 42.41,11.34 53.09,2.18 -1.65,-12.74 -3.12,-10.74 -19.04,-13.92 -59.79,-11.92 -119.1,5.87 -172.55,28.15 -14.03,5.85 -17.35,4.69 -16.54,17.98z"/>
  <g id="_2622185951024">
   <line class="fil7" x1="3887.29" y1="3953.31" x2="3884.52" y2= "3954" />
   <path class="fil17" d="M2780.28 3852.03c2.04,-32.09 15.84,-69.57 51.03,-88.7 33.33,-18.12 63.52,-9.82 74.73,16.32 13.34,31.07 -4.06,69.81 -28.5,91.19 -19.41,17.51 -38.44,15.79 -52.2,29.64 -15.21,15.3 -10.31,20.61 -15.18,43.55l-25.65 -21.79c-55.57,56.98 -101.58,111.35 -116.67,174.34 -16.24,67.85 -9.39,154.74 26.91,204.65 0.88,-1.93 1.52,-3.08 3.27,-9.75 38.81,-49.41 3.25,-124.22 102.73,-223.71 45.59,-32.7 101.04,-30.1 130.78,-50.12 40.99,-27.59 63.98,-59.12 69.57,-119.96 8.42,-91.59 -26.66,-190.04 -87.61,-197.93 -6.97,-0.9 -14.46,-1.28 -22.3,-0.97 -8.16,10.52 -27.67,27.78 -51.9,39.94 -22.27,11.17 -42.81,15.16 -54.14,14.84 -22.3,27.09 -39.37,63.02 -41.92,94.35 15.94,-2.79 25.55,-3.7 37.05,4.1l0 0.01zm64.58 -143.35c-6.94,2.79 -13.88,6.24 -20.72,10.42l9.23 -1.48c0.57,-0.08 1.15,-0.28 1.71,-0.56 0.55,-0.28 1.1,-0.65 1.6,-1.1l8.18 -7.28 0 0z"/>
   <g id="_1821038046112">
    <path class="fil18" d="M2805.53 3851.65c3.82,19.57 20.51,28.59 37.27,20.18 16.77,-8.41 27.25,-31.08 23.43,-50.63 -3.83,-19.57 -20.52,-28.61 -37.28,-20.2 -16.77,8.41 -27.25,31.1 -23.42,50.65zm11.99 -6.01c2.31,11.83 12.41,17.3 22.55,12.21 10.15,-5.09 16.5,-18.81 14.18,-30.64 -2.31,-11.84 -12.41,-17.32 -22.56,-12.23 -10.14,5.09 -16.49,18.82 -14.17,30.66l0 0z"/>
    <path class="fil18" d="M2837.26 3821.44c0.91,4.66 4.88,6.8 8.86,4.81 3.99,-2 6.47,-7.39 5.56,-12.05 -0.91,-4.65 -4.88,-6.8 -8.86,-4.8 -3.98,2 -6.47,7.38 -5.56,12.04z"/>
   </g>
   <path class="fil18" d="M2738.68 3900.28c4.08,14.37 15.6,21.23 25.73,15.31 10.13,-5.91 15.04,-22.35 10.96,-36.71 -4.08,-14.36 -15.6,-21.23 -25.73,-15.32 -10.13,5.92 -15.04,22.36 -10.96,36.74l0 -0.02zm7.25 -4.23c2.47,8.69 9.43,12.85 15.57,9.27 6.13,-3.58 9.1,-13.52 6.63,-22.21 -2.47,-8.69 -9.44,-12.85 -15.56,-9.28 -6.14,3.58 -9.09,13.53 -6.64,22.22l0 0 0 0z"/>
   <path class="fil19" d="M2486.8 4612.29l-130.88 65.66 -49.67 -468.77 130.88 -65.66c-59.3,139.49 -30.5,398.14 49.67,468.77z"/>
   <path class="fil18" d="M2754.93 3880.47c0.69,3.56 3.74,5.21 6.79,3.68 3.06,-1.53 4.97,-5.67 4.27,-9.23 -0.69,-3.56 -3.74,-5.21 -6.79,-3.68 -3.06,1.54 -4.97,5.67 -4.27,9.23z"/>
   <path class="fil19" d="M2853.13 4093.79c21.65,-10.86 55.83,-35.55 76.95,-38.5 21.13,-2.95 40.28,-0.86 57.45,6.28 17.18,7.14 -17.38,5.71 -5.71,23.26 11.67,17.54 19.08,41.29 22.26,71.2 3.17,29.92 15.91,44.72 8.97,71.84 -6.93,27.11 -17.41,51.95 -31.44,74.5 -14.02,22.57 -30.83,42.7 -50.38,60.38 -19.56,17.7 -18.44,6.16 -40.1,17.02 -22.09,11.08 -43.59,17.93 -64.53,20.55 -20.92,2.62 -39.97,0.48 -57.11,-6.44 -17.16,-6.92 28.72,-23.96 17.03,-41.72 -11.68,-17.77 -19.12,-41.62 -22.28,-71.54 -3.17,-29.91 -1.28,-58.33 5.67,-85.22 6.96,-26.88 -30.23,6.27 -16.22,-16.51 14,-22.79 30.69,-42.86 50.06,-60.22 19.37,-17.36 27.3,-13.8 49.39,-24.88l-0.01 0zm23.98 206.63c12.13,-6.08 22.36,-18.27 30.67,-36.58 8.33,-18.32 11.25,-39.13 8.78,-62.45 -2.43,-22.88 -9.22,-38.58 -20.39,-47.11 -11.17,-8.54 -22.81,-9.76 -34.95,-3.67 -12.12,6.08 -22.45,18.32 -30.99,36.74 -8.54,18.42 -11.6,39.08 -9.17,61.95 2.47,23.32 9.39,39.2 20.78,47.62 11.38,8.43 23.13,9.6 35.26,3.51l0.01 -0.01z"/>
   <g>
    <path class="fil20" d="M2440.97 4408.96c8.52,-7.1 17.76,-14.1 27.71,-20.97 8.62,-6.21 18.26,-12.7 28.91,-19.46 10.65,-6.75 21.71,-13.01 33.16,-18.76 9.7,-4.86 19.47,-9.05 29.3,-12.57 9.84,-3.52 19.01,-5.64 27.52,-6.38 8.51,-0.73 16.37,0.15 23.6,2.66 7.23,2.51 13.08,7.35 17.55,14.54 0.53,0.67 2.21,3.36 5.03,8.08 2.82,4.72 6.45,10.56 10.9,17.52 4.46,6.96 9.47,14.82 15.03,23.57 5.58,8.76 11.15,17.64 16.74,26.61 13.43,21.57 28.5,45.59 45.23,72.1l-140.78 70.62 -107.63 -161.72 21.56 203.48 -130.87 65.65 -49.67 -468.75 130.87 -65.65 22.99 216.91 62.94 -260.02 140.78 -70.63 -44.09 188.33 -102.15 119.86 -89.52 68.25 4.89 6.73z"/>
   </g>
   <g>
    <path class="fil20" d="M2850.25 4055.33c21.66,-10.86 43.05,-17.78 64.17,-20.73 21.12,-2.94 40.27,-0.85 57.45,6.29 17.17,7.13 31.6,19.48 43.26,37.03 11.66,17.56 19.08,41.28 22.25,71.21 3.17,29.91 1.29,58.44 -5.64,85.54 -6.93,27.11 -17.42,51.95 -31.44,74.51 -14.03,22.57 -30.83,42.69 -50.38,60.38 -19.57,17.69 -40.18,31.97 -61.83,42.83 -22.08,11.08 -43.6,17.93 -64.53,20.56 -20.92,2.62 -39.96,0.47 -57.11,-6.45 -17.16,-6.92 -31.58,-19.26 -43.26,-37.04 -11.7,-17.76 -19.12,-41.61 -22.29,-71.53 -3.17,-29.92 -1.28,-58.32 5.68,-85.22 6.95,-26.89 17.43,-51.73 31.44,-74.51 14,-22.78 30.69,-42.85 50.05,-60.21 19.37,-17.37 40.1,-31.58 62.18,-42.66zm26.79 252.78c12.13,-6.08 22.35,-18.28 30.67,-36.59 8.33,-18.31 11.25,-39.12 8.77,-62.44 -2.42,-22.88 -9.21,-38.59 -20.38,-47.12 -11.16,-8.54 -22.81,-9.76 -34.94,-3.67 -12.12,6.08 -22.46,18.33 -30.99,36.74 -8.54,18.42 -11.59,39.07 -9.17,61.95 2.47,23.33 9.4,39.19 20.78,47.61 11.38,8.43 23.14,9.6 35.26,3.52z"/>
   </g>
   <path class="fil19" d="M3255.05 3878.76c18.62,-9.34 33.63,-14.09 45.01,-14.23 11.39,-0.15 20.46,2.7 27.25,8.58 6.78,5.85 11.63,13.97 14.55,24.32 2.93,10.35 11.61,-13.15 12.87,-1.26l-91.05 74.79c-0.47,-4.4 -1.88,-10.18 -4.23,-17.34 -2.35,-7.16 -6.67,-12.4 -12.96,-15.74 -6.28,-3.34 -33.4,33.51 -44.65,39.15 -5.64,2.83 -10.54,7.14 -14.71,12.95 -4.17,5.8 -7.04,12.1 -8.6,18.91l25.04 236.29 -128.62 64.53 -37.28 -351.8 128.63 -64.53 5.24 49.51 -19.72 104.43 14.87 21.22c4.13,-59.43 41.42,-133.39 48.18,-111.29 2.7,8.85 -2.3,-3.51 2.66,-14.79 4.95,-11.29 0.41,-1.63 7.29,-12.04 6.89,-10.41 -7.64,-21.64 1.01,-30.37 8.65,-8.74 18.39,-15.83 29.21,-21.26l0.01 -0.03z"/>
   <path class="fil19" d="M3682.38 3655.27l36 339.81 -128.63 64.52 -3.32 -37.84 19.07 -104.1 -26.25 -23.42c-3.27,29.45 -0.69,66.64 -12,92.44 -18.92,43.18 -17.86,59.8 -71.44,103.87 -21.23,17.46 -63.03,26.18 -77.26,13.86 -6.78,-5.86 -6.7,8.77 -9.62,-1.58 -2.92,-10.35 -5.02,-21.46 -6.27,-33.35l-27.55 -260.05 100.8 -49.98 24.56 231.67c0.7,6.6 31.59,-3.59 37.07,-1.46 5.47,2.12 11.46,1.55 17.95,-1.71 6.06,-3.04 11.07,-7.4 15.03,-13.1 3.96,-5.7 6.73,-11.73 8.35,-18.09l-25.12 -236.95 128.63 -64.53 0 -0.01z"/>
   <g>
    <path class="fil20" d="M3269.09 3849.38c18.62,-9.34 33.62,-14.08 45.01,-14.24 11.39,-0.15 20.47,2.71 27.25,8.58 6.78,5.86 11.62,13.97 14.55,24.33 2.92,10.34 5,21.46 6.26,33.35l-109.38 110.48c-0.47,-4.41 -1.88,-10.18 -4.23,-17.34 -2.35,-7.17 -6.67,-12.42 -12.95,-15.75 -6.29,-3.33 -15.06,-2.18 -26.32,3.47 -5.62,2.82 -10.53,7.14 -14.71,12.94 -4.17,5.8 -7.04,12.1 -8.6,18.9l25.04 236.29 -128.62 64.52 -37.27 -351.78 128.61 -64.52 5.25 49.5 -19.72 104.42 9.88 -3.56c3.27,-29.45 8.98,-57.34 17.14,-83.67 3.39,-10.97 7.57,-22.11 12.53,-33.4 4.96,-11.29 10.89,-22.14 17.76,-32.54 6.88,-10.41 14.65,-19.97 23.3,-28.71 8.65,-8.74 18.39,-15.84 29.22,-21.27z"/>
   </g>
   <g>
    <path class="fil20" d="M3674.54 3647.37l37.27 351.79 -128.61 64.52 -4.6 -49.83 19.07 -104.1 -9.88 3.57c-3.27,29.44 -8.76,57.22 -16.48,83.33 -4.38,14.72 -10.2,29.69 -17.48,44.92 -7.28,15.23 -16.29,29.14 -27.05,41.72 -10.75,12.58 -23.49,22.56 -38.21,29.94 -18.62,9.34 -33.74,14.15 -45.34,14.41 -11.6,0.26 -20.79,-2.54 -27.57,-8.41 -6.78,-5.86 -11.63,-13.98 -14.55,-24.33 -2.92,-10.36 -5.01,-21.47 -6.27,-33.35l-27.55 -260.04 128.61 -64.52 24.55 231.65c0.7,6.61 3.78,10.97 9.25,13.09 5.47,2.13 11.46,1.56 17.95,-1.7 6.06,-3.04 11.08,-7.41 15.03,-13.11 3.96,-5.69 6.74,-11.72 8.35,-18.08l-25.11 -236.95 128.62 -64.52z"/>
   </g>
   <path class="fil19" d="M3884.55 3569.95c11.32,-9.38 23.77,-18.88 37.34,-28.47 11.46,-8.06 24.67,-16.89 39.62,-26.47 14.95,-9.58 30.65,-18.5 47.11,-26.76 20.79,-10.43 41.91,-18.71 63.38,-24.84 21.47,-6.14 41.18,-7.45 59.11,-3.94 17.93,3.52 33.29,12.96 46.09,28.32 12.8,15.36 20.93,39.31 24.38,71.87l20.5 193.39 -129.27 64.85 -4.53 -49.16 21.4 -116.99 -24.08 1.99c6,43.67 -24.79,96.96 -47.72,99.94 -12.67,1.64 -0.28,19.09 -11.51,49.07 -5.81,15.5 -10.81,-20.94 -21.55,-8.37 -10.75,12.58 -21.34,-18.36 -36.07,-10.98 -14.72,7.39 3.64,53.93 -8.04,53.31 -11.7,-0.62 -21.77,-4.15 -30.2,-10.57 -8.43,-6.43 -17.22,25.65 -22.06,14.41 -4.83,-11.25 -7.98,-23.69 -9.42,-37.33 -2,-18.92 -0.86,-37.22 3.42,-54.89 4.28,-17.67 10.86,-34.18 19.72,-49.52 8.86,-15.33 19.95,-29.13 33.25,-41.35 13.3,-12.24 27.75,-22.27 43.34,-30.09 12.55,-6.3 23.52,-10.41 32.9,-12.33 9.37,-1.92 17.04,-2.76 23,-2.5 7.35,0.48 13.44,2.05 18.28,4.73 -0.74,-7.05 -3.46,-12.29 -8.16,-15.72 -4.7,-3.43 -10.83,-5.34 -18.39,-5.72 -7.57,-0.37 -16.12,0.79 -25.63,3.48 -9.52,2.69 -19.48,6.64 -29.87,11.86 -15.15,7.6 -30.38,17.78 -45.68,30.56 -15.29,12.77 -28.69,27.36 -40.17,43.79l-20.45 -115.56 -0.04 -0.01zm176.67 163.01c6.07,-3.04 10.44,-6.97 13.12,-11.79 2.68,-4.82 4.78,-10.85 6.29,-18.1 0.88,-4.62 1.76,-10.38 2.61,-17.3 0.87,-6.93 1.09,-13.41 0.67,-19.46 -0.41,-6.04 -1.71,-10.84 -3.92,-14.37 -2.2,-3.53 -15.98,-20.86 -20.75,-18.47 -4.77,2.4 -9.69,6.48 -14.78,12.28 -5.09,5.8 -9.53,12.2 -13.36,19.21 -3.81,7.02 -32.48,46.72 -34.71,53.63 -2.23,6.91 -3.09,12.78 -2.58,17.63 0.8,7.48 40.01,-3.44 45.77,-0.76 5.76,2.67 12.96,1.84 21.63,-2.51l0.01 0.01z"/>
   <path class="fil21" d="M3774.03 3578.67c-9.53,4.78 -18.71,7.42 -27.56,7.92 -8.83,0.49 -16.74,-0.88 -23.69,-4.11 -6.95,-3.23 -12.74,-8.33 -17.35,-15.28 -4.62,-6.95 -7.43,-15.27 -8.45,-24.96 -1.03,-9.67 -0.15,-19.73 2.61,-30.15 2.77,-10.43 6.96,-20.41 12.56,-29.94 5.61,-9.53 12.43,-18.28 20.48,-26.26 8.05,-7.98 16.83,-14.36 26.36,-19.14 9.96,-5 19.36,-7.74 28.2,-8.24 8.85,-0.5 16.74,0.88 23.7,4.11 6.95,3.23 12.73,8.21 17.32,14.94 4.58,6.74 7.4,14.95 8.42,24.62 1.03,9.69 0.16,19.85 -2.58,30.5 -2.75,10.65 -6.93,20.74 -12.53,30.27 -5.61,9.53 -12.44,18.28 -20.48,26.26 -8.05,7.98 -17.05,14.46 -27.01,19.46l0 0zm-62.43 50.08l128.62 -64.52 36.44 343.88c3.72,35.21 1.83,66.85 -5.68,94.96 -7.51,28.09 -18.66,53.15 -33.42,75.16 -14.77,22.01 -32.03,40.98 -51.78,56.91 -19.75,15.94 -40.02,29.11 -60.8,39.54 -14.29,7.17 -28.27,13.02 -41.92,17.56 -13.66,4.53 -26.43,7.81 -38.3,9.83 -11.87,2.01 -22.6,2.99 -32.18,2.93 -9.59,-0.05 -17.26,-1.42 -23.01,-4.09l-4.22 -123.7c14.63,4.7 30.8,5.52 48.49,2.44 17.69,-3.09 34.55,-8.64 50.57,-16.68 19.49,-9.78 35.53,-22 48.12,-36.65 12.58,-14.66 17.99,-30.34 16.22,-47.06l-37.13 -350.48 -0.02 -0.03z"/>
   <g>
    <path class="fil20" d="M3879.04 3562.85c11.32,-9.39 23.77,-18.87 37.35,-28.47 11.46,-8.07 24.67,-16.89 39.61,-26.47 14.95,-9.59 30.65,-18.51 47.11,-26.76 20.79,-10.43 41.91,-18.71 63.38,-24.85 21.47,-6.14 41.17,-7.45 59.11,-3.93 17.92,3.52 33.29,12.96 46.1,28.31 12.79,15.35 20.91,39.32 24.36,71.88l20.49 193.38 -129.26 64.85 -4.53 -49.17 19.72 -104.42 -9.88 3.57c-3.26,29.44 -8.99,57.11 -17.2,83 -4.37,14.71 -10.19,29.68 -17.48,44.91 -7.27,15.24 -16.29,29.14 -27.04,41.72 -10.75,12.58 -23.49,22.56 -38.22,29.95 -14.72,7.38 -27.93,10.77 -39.62,10.14 -11.71,-0.61 -21.77,-4.14 -30.2,-10.56 -8.43,-6.43 -15.07,-15.26 -19.92,-26.5 -4.83,-11.25 -7.98,-23.69 -9.42,-37.33 -2,-18.92 -0.87,-37.22 3.42,-54.89 4.28,-17.68 10.85,-34.18 19.72,-49.51 8.87,-15.34 19.95,-29.12 33.25,-41.36 13.29,-12.23 27.73,-22.26 43.33,-30.08 12.56,-6.3 23.52,-10.41 32.9,-12.33 9.37,-1.92 17.04,-2.75 22.99,-2.5 7.35,0.48 13.45,2.05 18.3,4.72 -0.75,-7.03 -3.48,-12.27 -8.17,-15.71 -4.7,-3.44 -10.83,-5.34 -18.39,-5.71 -7.57,-0.38 -16.11,0.78 -25.63,3.46 -9.53,2.7 -19.48,6.65 -29.87,11.86 -15.16,7.61 -30.38,17.79 -45.68,30.57 -15.3,12.76 -28.69,27.36 -40.18,43.78l-20.45 -115.55zm176.68 162.99c6.06,-3.04 10.43,-6.97 13.12,-11.79 2.67,-4.82 4.77,-10.86 6.29,-18.1 0.88,-4.62 1.75,-10.38 2.61,-17.3 0.86,-6.92 1.08,-13.4 0.68,-19.45 -0.42,-6.05 -1.73,-10.84 -3.92,-14.38 -2.2,-3.52 -5.68,-4.1 -10.45,-1.7 -4.76,2.38 -9.68,6.47 -14.77,12.27 -5.09,5.8 -9.54,12.2 -13.36,19.22 -3.82,7.01 -6.85,13.97 -9.08,20.88 -2.23,6.91 -3.09,12.79 -2.57,17.63 0.79,7.48 4.07,12.56 9.82,15.23 5.75,2.68 12.97,1.83 21.63,-2.51z"/>
   </g>
   <path class="fil22" d="M2986.83 3958.78l24.28 -5.19c2.09,-8.77 3.46,-18.31 4.13,-28.76 -4.05,-84.55 -29.07,-149.18 -82.95,-161.76 38.36,25.46 64.29,81.43 65.09,138.83 0.31,22.51 -3.22,40.96 -10.54,56.88l-0.01 0z"/>
   <path class="fil23" d="M2702.67 4248.27c0.06,-0.21 0.13,-0.42 0.18,-0.63 12.25,-41.45 40.04,-114.85 97.41,-159.01 44.29,-34.58 93.31,-31.91 122.52,-50.12 40.55,-25.27 67.27,-56.91 73.74,-111.08 9.1,-76.07 -22.62,-154.08 -74.08,-167.9 35.63,26.83 56.59,86.43 53.84,145.61 -2.46,53.11 -23.08,83.96 -62.64,111.58 -28.5,19.9 -78.89,21.04 -121.57,58.01 -75.39,78.85 -76.92,130.05 -90.17,173.1 -0.09,0.3 -0.63,1.89 -0.01,1.08 0.22,-0.29 0.77,-0.65 0.77,-0.65l0.01 0.01z"/>
   <polygon class="fil23" points="2804.52,3897.11 2801.02,3916.12 2789.03,3906.29 2793.9,3891.87 "/>
   <path class="fil17" d="M2921.45 3649.26l-3.51 -18 -4.85 4.31 3.19 16.3 -2.55 1.27 0.65 3.32c-0.44,1.24 -0.58,2.52 -0.35,3.72l3.77 19.27c0.65,3.29 3.9,4.58 7.28,2.89 3.38,-1.7 5.59,-5.73 4.95,-9.02l-3.77 -19.28c-0.24,-1.19 -0.82,-2.12 -1.62,-2.74l-0.65 -3.3 -2.54 1.28 0 -0.02z"/>
   <path class="fil17" d="M2890.19 3664.09l-54.22 48.23c-0.5,0.45 -1.04,0.82 -1.61,1.1 -0.55,0.28 -1.13,0.48 -1.7,0.56l-61.71 9.92 4.35 22.23 0.07 -0.03 -0.01 0.72c1.1,5.63 30.29,4.8 63.22,-11.72 32.92,-16.52 57.12,-42.47 56.02,-48.1l-0.26 -0.58 0.2 -0.1 -4.35 -22.23 0 0z"/>
   <polygon class="fil17" points="2769.83,3718.18 2833.3,3707.98 2889.07,3658.36 2913.33,3636.77 2918.17,3632.48 2920.72,3630.2 2821.26,3646.42 2733.81,3723.96 "/>
  </g>
  <g>
  </g>
  <g style="clip-path:url(#id0)">
   <g>
   </g>
  </g>
  <path class="fil7" d="M6315.95 2120.58c-57,-11.8 -104.24,-29.52 -147.92,-56.09 -40.49,-24.63 -86.9,-64.3 -106.74,-102.85l89.41 -108.51c228.03,-293.24 178.19,-759.14 -89.15,-1004.74 -223.38,-205.22 -584.32,-294.28 -890.76,-122.37 -516.56,289.77 -527.95,967.31 -103.72,1286.07 156.2,117.37 371.23,190.97 620.06,140.25 172.64,-35.19 119.94,-75.7 216.1,-32.63 114.68,51.36 330.32,65.08 412.72,0.87z"/>
  <g style="clip-path:url(#id1)">
   <path id="_1" class="fil7 str3" d="M4764.81 635.03l1551.14 1533.6m0 -1533.6l-1551.14 1533.6"/>
  </g>
  <path id="_1_0" class="fil24" d="M5199.07 2100.11c20.13,8.28 61.9,29.25 83.59,33.43 -8.96,-34.83 -17.86,-70.13 -26.81,-105.14 -8.45,-32.98 -27.7,-73.42 0.03,-90.12 9.21,-5.55 197.06,-53.97 210.19,-54.27 32.26,-0.75 35.22,42.88 43.76,76.27 9.03,35.26 18.03,70.51 27.07,105.76 10.29,40.12 22.18,63.69 -23.07,75.91 -20.26,5.48 -83.21,18.32 -96.93,25.67 30.59,8.48 86.62,10.36 121.67,10.56 21.07,0.13 44.81,-0.78 66.29,-2.66 20.46,-1.8 50.27,-9.95 67.69,-6.47l117.63 -30.09c27.19,-22.09 142.47,-31.08 314.27,-203.71 27.21,-27.33 48.69,-57.97 70.55,-84.82 -68.32,-284.54 -148.94,-581.02 -221.83,-867.5 -12.84,-50.44 -28.51,-79.92 -73.66,-82.47 -16.85,-0.95 -121.25,26.18 -142.03,33.57 -10.88,19.75 -6.2,27.1 -24.71,43.9 -15.81,14.34 -36.34,17.19 -59.08,22.99 -125.69,32.03 -284.94,77.21 -403.85,102.81 -53.17,13.57 -75.77,16.56 -104.71,-18.95 -121.97,33.83 -200.26,23.18 -168.16,147.95 73.62,286.14 145.35,585.28 222.1,867.38z"/>
  <path class="fil25" d="M5169.03 771.27c-12.13,10.22 -23.32,15.94 -31.01,28.12 -23.99,38.02 2.54,95.39 16.52,150.01 13.41,52.41 19.32,119.52 55.75,142.58 16.74,10.59 23.09,6.33 39.55,11.75 118.91,-25.6 278.16,-70.78 403.85,-102.81 22.74,-5.8 43.27,-8.65 59.08,-22.99 18.51,-16.8 13.83,-24.15 24.71,-43.9 -4.38,-14.3 -8.67,-42.94 -13.43,-61.5 -5.51,-21.54 -11.02,-43.08 -16.53,-64.63 -10.67,-41.67 -18.22,-90.62 -38.53,-125.31 -24.05,-18.07 -36.31,-30.14 -76.72,-20.14 -35.3,8.74 -70.63,18.15 -105.88,27.17 -7.2,-1.03 -2.67,0.21 -8.42,-3.23 -0.48,-0.28 -5.94,-4.92 -6.64,-5.55 -46.39,-42.17 -81.4,-31.73 -100.81,-37.12l-43.82 11.22c-15.42,14.3 -41.48,16.35 -66.85,67.12 -18.36,36.74 13.23,21.98 -90.82,49.21z"/>
  <path class="fil12" d="M5668.99 682.59c20.31,34.69 27.86,83.64 38.53,125.31 5.51,21.55 11.02,43.09 16.53,64.63 4.76,18.56 9.05,47.2 13.43,61.5 20.78,-7.39 125.18,-34.52 142.03,-33.57 45.15,2.55 60.82,32.03 73.66,82.47 72.89,286.48 153.51,582.96 221.83,867.5 19.03,-26.99 31.73,-52.41 48.28,-79.08 13.69,-22.05 29.96,-56.81 38.12,-81.51 -3.11,-3.12 -0.66,0.88 -3.95,-5.96 -2.94,-6.13 0.43,1.95 -2.02,-5.04 -1.25,-3.56 -2.77,-10.78 -3.75,-14.75l-49.56 -193.96c-9.53,-37.24 -172.49,-651.63 -167.8,-667.73 -24.4,-27.32 -8.04,-125.73 -85.43,-162.04 -25,-11.74 -50.21,-15.98 -85.69,-7.37 -23.89,5.8 -85.09,25.83 -102.99,23.36 -7.11,6.28 -33.77,11.73 -43.91,14.35 -15.73,4.07 -31.48,8.25 -47.31,11.89z"/>
  <path class="fil12" d="M4819.12 1113.39c11.78,11.93 163.88,628.62 173.51,666.23l42.84 167.45c2.26,8.83 4.5,17.67 6.84,26.48 3.87,14.49 6.45,18.21 3.87,27.21 11.21,10.58 22.5,19.24 35.14,28.27 13.34,9.53 24.68,18.73 37.2,25.43 27.36,14.65 51.42,31.58 80.55,45.65 -76.75,-282.1 -148.48,-581.24 -222.1,-867.38 -32.1,-124.77 46.19,-114.12 168.16,-147.95 -12.97,-14.7 -29.95,-98.1 -36.49,-123.63 -10.7,-41.84 -26.85,-87.23 -26.14,-128.2l-83.04 20.72c-0.96,0.13 -1.85,0.19 -2.69,0.27 -0.79,0.08 -1.93,0.02 -2.56,0.05l-4.86 -0.34c-35.93,26.26 -124.77,10.62 -173.12,76.57 -50.51,68.88 11.14,146.29 2.89,183.17z"/>
  <path class="fil26" d="M6261.4 1689.84c44.89,-132.51 67.39,-237.37 49.32,-382.54 -1.84,-14.7 -10.33,-54.28 -9.79,-64.41l-18.59 -72.65c-8.04,-12 -34.72,-89.55 -46.71,-113.69 -18,-36.24 -36.71,-67.36 -58.54,-98.81 -47.41,-68.3 -89.68,-106.61 -142.77,-155.34 -4.69,16.1 158.27,630.49 167.8,667.73l49.56 193.96c0.98,3.97 2.5,11.19 3.75,14.75 2.45,6.99 -0.92,-1.09 2.02,5.04 3.29,6.84 0.84,2.84 3.95,5.96z"/>
  <path class="fil26" d="M4778.2 1555.06l19.29 75.39 47.21 116.15c55.77,112.96 115.46,175.03 201.48,254.16 2.58,-9 0,-12.72 -3.87,-27.21 -2.34,-8.81 -4.58,-17.65 -6.84,-26.48l-42.84 -167.45c-9.63,-37.61 -161.73,-654.3 -173.51,-666.23 -22.97,67.92 -42.04,122.21 -50.71,204.75 -3.96,37.65 -5.65,74.89 -3.96,114.93l13.75 121.99z"/>
  <path class="fil27" d="M5086.61 1274.64c-17.2,9.75 -17.51,23.56 -12.07,45.67 58.97,239.81 35.26,218.54 160.81,186.42 104.33,-26.7 152.24,-21.96 138.56,-78.04 -59.01,-241.86 -35.96,-219.67 -159.69,-188 -22.9,5.86 -114.05,26.26 -127.61,33.95z"/>
  <path class="fil27" d="M5282.66 2133.54c19.72,11.88 108.85,33.33 134.24,34.08 13.72,-7.35 76.67,-20.19 96.93,-25.67 45.25,-12.22 33.36,-35.79 23.07,-75.91 -9.04,-35.25 -18.04,-70.5 -27.07,-105.76 -8.54,-33.39 -11.5,-77.02 -43.76,-76.27 -13.13,0.3 -200.98,48.72 -210.19,54.27 -27.73,16.7 -8.48,57.14 -0.03,90.12 8.95,35.01 17.85,70.31 26.81,105.14z"/>
  <path class="fil28" d="M5439.12 1350.81c-16.34,8.41 -25.17,31.11 -10.19,49.11 13.3,15.97 34.88,9.21 58.46,3.1 66.54,-17.23 398.58,-98.11 415.07,-108.36 13.75,-8.55 21.13,-29.17 7.62,-45.85 -13.83,-17.08 -32.94,-11.13 -56.51,-5.02 -48.45,12.59 -400.57,99.87 -414.45,107.02z"/>
  <path class="fil28" d="M5521.75 1683.86c-16.07,9.64 -22.97,32.75 -6.06,49.33 15.33,15.04 35.32,6.67 59.43,0.46 62.55,-16.12 402.38,-100.12 414.19,-108.44 12.96,-9.13 17.85,-31.42 4.39,-46.45 -14.98,-16.72 -33.92,-8.92 -58.23,-2.63 -67.06,17.34 -396.62,97.47 -413.72,107.73z"/>
  <path class="fil28" d="M5604.96 2017c-14.11,11.28 -23.23,32.54 -2.38,49.2 16.26,12.99 36.39,4.41 60.32,-1.74 62.58,-16.08 400.55,-98.89 412.56,-108.97 12.59,-10.56 15.76,-33 1.84,-46.78 -13.88,-13.77 -36.17,-6.37 -59.92,-0.25 -63.08,16.26 -400.04,98.63 -412.42,108.54z"/>
  <path class="fil12" d="M5332.91 1563.93l-12.93 69.07 -17.28 79.14 -64.27 -58.65c-13.48,-8.49 -24.95,-25.4 -38.82,-30.52 -22.56,-8.34 -36.08,9.17 -41.97,20.22 -0.1,13.92 2.55,21.2 8.4,32.74l73.72 64.47c13.97,12.71 58.17,58.22 74.34,64.04 38.28,13.77 44.1,-34.26 46.62,-41l14.17 -74.98 24.31 -129.02c1.94,-9.93 8.69,-38.26 8.06,-47.16 -1.48,-20.8 -17.09,-32.58 -34.65,-30.29 -38.5,5.02 -29.42,57.44 -39.7,81.94z"/>
  <path class="fil27" d="M5374.89 1688.46l15.98 65.95 -30.15 9.03c-2.52,6.74 -8.34,54.77 -46.62,41 -16.17,-5.82 -60.37,-51.33 -74.34,-64.04l-73.72 -64.47c4.93,23.76 37.57,159.13 46.07,170.16 15.52,20.15 45.12,8.13 72.78,1.04 188.32,-48.22 189.23,-26.43 164.06,-124.81 -7.27,-28.39 -14.54,-56.79 -21.8,-85.19 -5.87,-22.93 -9.97,-67.01 -27.95,-77.69l-24.31 129.02z"/>
  <path class="fil29" d="M5233.35 937.44c-28.34,19.3 -13.41,66.68 27.98,58.68l340.35 -89.14c28.52,-17.96 13.44,-66.71 -27.67,-59.1 -39.06,7.22 -334.13,85.11 -340.66,89.56z"/>
  <polygon class="fil24" points="5172.11,1445.72 5175.65,1456.53 5306.36,1422.98 5273.44,1291.87 5262.19,1293.49 5141.04,1324.7 "/>
  <path class="fil24" d="M5346.5 2119.37l129 -33.06 -32.63 -131.87 -130.16 32.87c-0.43,14.49 26.46,119.58 33.79,132.06z"/>
  <path class="fil29" d="M5082.5 832.95c-0.71,40.97 15.44,86.36 26.14,128.2 6.54,25.53 23.52,108.93 36.49,123.63 28.94,35.51 51.54,32.52 104.71,18.95 -16.46,-5.42 -22.81,-1.16 -39.55,-11.75 -36.43,-23.06 -42.34,-90.17 -55.75,-142.58 -13.98,-54.62 -40.51,-111.99 -16.52,-150.01 7.69,-12.18 18.88,-17.9 31.01,-28.12 -58.78,15.2 -67.34,15.72 -86.53,61.68z"/>
  <path class="fil28" d="M5409.94 1230.73c-31.18,15.95 -18.87,44.9 -7.28,54.04 16.42,12.92 47.26,0.13 71.69,-6.12 26.35,-6.75 142.03,-32.94 157.34,-42.05 17.66,-10.5 22.36,-37.08 2.33,-52.05 -17.05,-12.76 -44.88,-0.59 -69.6,5.74 -30.08,7.7 -134.47,30.21 -154.48,40.44z"/>
  <path class="fil28" d="M5576.49 1895.52c-19.14,11.69 -23.76,39.72 -1.53,53.34 17.89,10.96 47.77,-1.61 72.01,-7.82 26.78,-6.85 140.5,-32.58 156.29,-42.27 17.81,-10.92 18.52,-39.93 -0.57,-52.55 -16.57,-10.94 -48.39,1.85 -71.56,7.78 -26.23,6.71 -140.29,32.75 -154.64,41.52z"/>
  <path class="fil28" d="M5492.52 1563.78c-10.79,6.46 -16.49,10.93 -16.98,24.23 -1.97,54.03 66.49,26.6 86.59,21.46 24.08,-6.16 144.49,-34.25 156.61,-42.38 17.7,-11.87 16.2,-40.61 -1.25,-52.35 -16.77,-11.29 -48.35,2.04 -71.16,7.88 -26.33,6.74 -139.22,32.41 -153.81,41.16z"/>
  <path class="fil30" d="M4989.35 853.65l4.86 0.34c0.63,-0.03 1.77,0.03 2.56,-0.05 0.84,-0.08 1.73,-0.14 2.69,-0.27l83.04 -20.72c19.19,-45.96 27.75,-46.48 86.53,-61.68 104.05,-27.23 72.46,-12.47 90.82,-49.21 25.37,-50.77 51.43,-52.82 66.85,-67.12l-34.08 8.72c-7.34,5.96 -73.86,31.32 -90.56,39.39 -27.76,13.41 -55.58,28.88 -80,44.62 -78.88,50.86 -88.95,73.21 -132.71,105.98z"/>
  <path class="fil31" d="M5668.99 682.59c15.83,-3.64 31.58,-7.82 47.31,-11.89 10.14,-2.62 36.8,-8.07 43.91,-14.35 -64.15,-10.5 -73.24,-22.77 -167.21,-29.24 -29.87,-2.06 -60.27,-2.02 -91.73,-0.79 -21.15,0.83 -86.01,11.34 -98.28,9.1l-32.47 8.3c19.41,5.39 54.42,-5.05 100.81,37.12 0.7,0.63 6.16,5.27 6.64,5.55 5.75,3.44 1.22,2.2 8.42,3.23 35.25,-9.02 70.58,-18.43 105.88,-27.17 40.41,-10 52.67,2.07 76.72,20.14z"/>
  <path class="fil27" d="M5157.64 1643.19c5.89,-11.05 19.41,-28.56 41.97,-20.22 13.87,5.12 25.34,22.03 38.82,30.52l81.55 -20.49 12.93 -69.07c-34.89,6.84 -72.54,18.02 -107.34,26.92 -34.64,8.86 -76.54,10.63 -67.93,52.34z"/>
  <path class="fil32" d="M5349.85 717.03c-51.67,35.65 1.14,107.88 50.51,75.75 45.2,-29.42 2.09,-112.04 -50.51,-75.75z"/>
  <polygon class="fil24" points="5319.98,1633 5238.43,1653.49 5302.7,1712.14 "/>
  <polygon class="fil24" points="5360.72,1763.44 5390.87,1754.41 5374.89,1688.46 "/>
 </g>
</svg>
