<?xml version="1.0" encoding="UTF-8"?>
<!DOCTYPE svg PUBLIC "-//W3C//DTD SVG 1.1//EN" "http://www.w3.org/Graphics/SVG/1.1/DTD/svg11.dtd">
<!-- Creator: CorelDRAW 2021 (64 Bit) -->
<svg xmlns="http://www.w3.org/2000/svg" xml:space="preserve" width="297mm" height="210mm" version="1.1" style="shape-rendering:geometricPrecision; text-rendering:geometricPrecision; image-rendering:optimizeQuality; fill-rule:evenodd; clip-rule:evenodd"
viewBox="0 0 29700 21000"
 xmlns:xlink="http://www.w3.org/1999/xlink"
 xmlns:xodm="http://www.corel.com/coreldraw/odm/2003">
 <defs>
  <style type="text/css">
   <![CDATA[
    .fil1 {fill:#000E3F}
    .fil14 {fill:#000E3F}
    .fil8 {fill:#021041}
    .fil6 {fill:#4963CD}
    .fil10 {fill:#4964CF}
    .fil2 {fill:#617FFD}
    .fil5 {fill:#A9B2C5}
    .fil11 {fill:#BD0B95}
    .fil9 {fill:#FC09B2}
    .fil7 {fill:#FD8A02}
    .fil3 {fill:#FDCE00}
    .fil12 {fill:#FDFDFD}
    .fil4 {fill:#FEAC01}
    .fil0 {fill:#FEFEFE}
    .fil13 {fill:#000E3F;fill-rule:nonzero}
   ]]>
  </style>
 </defs>
 <g id="Camada_x0020_1">
  <metadata id="CorelCorpID_0Corel-Layer"/>
  <path class="fil0" d="M8865.66 15780.86c-17.73,-172.46 284.7,-228.52 477.7,-296.31 1258.74,-442.09 2571.22,-770.64 3910.19,-912.46 271.8,-28.78 562.82,-98.12 698.67,25.61 -66.88,186.9 -191.33,114.68 -640.89,162.23 -238,25.17 -468.42,56.31 -700.38,90.41 -455.54,66.96 -891.14,151.07 -1327,248.91 -431.03,96.72 -828.15,215.54 -1241.04,339.47l-1177.25 342.14zm-286.35 -975.38c32.19,-160.03 39.73,-120.77 242.71,-193.72l877.1 -307.43c1149.29,-351.73 2101.1,-558.24 3305.54,-690.56 390.14,-42.86 571.42,-117.38 669.66,51.33 -76.88,122.64 31.84,44.66 -142.7,88.75l-1220.84 135.95c-1079.37,152.51 -2141.99,429.29 -3155.12,792.74 -161.38,57.9 -420.95,225.96 -576.35,122.94zm-288.59 -1008.79c61.79,-148.02 244.34,-172.64 531.03,-281.22 203.91,-77.24 383.25,-134.57 588.39,-200.99 797.05,-258.01 3468.25,-892.47 3989.16,-676.39 -40.54,191.19 -34.97,149.86 -297.8,161.65 -1311.81,58.86 -3085.73,448.65 -4294.77,919.59 -200.42,78.07 -391.58,222.35 -516.01,77.36zm-233.84 -960.66c23.4,-183.83 -22.11,-112.52 194.63,-197.71 1107.05,-435.06 2221.15,-726.9 3406.74,-892.35 213.16,-29.74 1210.77,-200.46 1401.47,-54.59 -67.89,192.04 -145.07,106.75 -652.27,153.77 -235.72,21.85 -462.83,46.59 -703.51,80.86 -440.06,62.65 -861.73,139.83 -1296.12,238.19 -432.16,97.84 -828.22,211.09 -1238.41,338.4 -258.54,80.23 -944.15,400.08 -1112.53,333.43zm-345.39 -1056.93c44.03,-123.9 34.38,-93.87 217.15,-165.03 721.32,-280.87 1321.89,-490.11 2105.51,-659.31 413.38,-89.27 2523.3,-498.89 2789.66,-272.19 -59.4,150.39 -84.98,116.12 -295.82,123.45l-1105.58 91.74c-461.64,59.18 -899.6,139.91 -1342.03,235.95 -620.77,134.76 -1264.74,331.24 -1851.93,560.02 -198.38,77.29 -396.5,227.88 -516.96,85.37zm-302.58 -1052.66c95.38,-310.78 2064.73,-790.49 2332.42,-849.96 455.45,-101.2 895.53,-169.98 1367.89,-223.83 234.17,-26.7 471.27,-42.98 711.41,-55.99 202.5,-10.96 594.47,-95.83 710.52,77.13 -110.83,163.97 -501.24,95 -701.49,105.77 -693.94,37.32 -1408.86,129.7 -2075.95,280.14 -435.88,98.32 -824.7,207.28 -1239.12,341.34 -430.57,139.27 -956.93,440.59 -1105.68,325.4zm-314.08 -1096.52c43.11,-128.39 83.76,-117.4 247.98,-180.67 1495.21,-575.97 2985.44,-946.38 4615.51,-951.98 215.17,-0.73 213.76,-23.78 258.54,123.86 -137.01,106.62 -1168.08,108.11 -1445.46,139.95 -455.02,52.2 -906.22,127.36 -1347.93,222.64 -419.38,90.47 -854.38,211.67 -1237.14,342.25 -187.86,64.09 -401.3,139.55 -579.38,212.18 -196.15,80 -392.91,235.73 -512.12,91.77zm-1442.43 -3232.88c97.81,328.06 3023.41,10685.53 3153.17,10933.11 1690.45,-754.41 3876.99,-1537.99 5980.92,-1717.48l-2972.78 -10406.31c-1621.52,-106.09 -4862.74,586.12 -6161.31,1190.68z"/>
  <path class="fil0" d="M15194.33 14289.1c-19.3,-43.19 -28.77,-6.88 -11.89,-85.34 14.9,-69.25 -50.09,-33.19 150.47,-139.23 509.59,-269.38 1578.26,-718.87 2083.18,-902.28 418.85,-152.14 866.92,-289.96 1304.32,-407.06 244.81,-65.54 1204.69,-353.99 1378.16,-228.36 -47.67,154.5 -58.02,125.24 -260.81,163.7 -1368.96,259.7 -2243.56,575.42 -3532.22,1116.29 -240.43,100.9 -955.28,530.64 -1111.21,482.28zm-1224.64 -3527.44c-337.93,-400.56 -397.75,-555.93 -150.87,-713.89 679.74,-434.93 1547.07,-857.29 2332.47,-1132.36 579.98,-203.13 1179.12,-392.7 1798.77,-527.77 764.13,-166.59 1201.14,-367.89 1279.38,17.99 35.08,173.11 54.81,349.06 25.39,498.86 -470.91,112.01 -1000.02,182.54 -1488.95,307.36 -918.24,234.45 -1798.47,541.14 -2632.9,963.93 -374.23,189.61 -958.4,585.05 -1163.29,585.88zm-220.64 -1438.76c26.65,-232.86 795.8,-571.47 1026.38,-687.3 735.61,-369.47 3444.79,-1424.08 3876.82,-1152.31 -48.33,209.53 -150.96,127.15 -636.15,223.09 -673.44,133.17 -1344.12,336.79 -1973.41,573.26 -413.5,155.39 -804.38,328.34 -1184.74,524.41 -294.47,151.78 -968.14,588.78 -1108.9,518.85zm-311.19 -1047.37c-1.46,-195.05 -14.46,-160.57 466.69,-422.54 176.08,-95.86 373.83,-207.04 570.05,-306.27 574.56,-290.57 3523.96,-1468.42 3865.94,-1118.62 -80.46,184.11 -470.49,165.94 -655.7,203.49 -1093.97,221.77 -2142.61,589.78 -3128.14,1083.26 -246.65,123.5 -929.49,551.78 -1118.84,560.68zm-319.48 -1124.99c20.24,-174.13 312.55,-281.12 464.55,-366.14 930.91,-520.67 2005.45,-979.92 3049.09,-1249.45 224.67,-58.01 475.23,-117.88 712.38,-164.52 297.14,-58.44 559.18,-149.86 689.79,-33.97 -74.61,178.86 -410.66,168.5 -644.81,213.15 -1270.16,242.15 -2654.38,774.2 -3760.18,1413.87 -192.35,111.26 -355.66,291.68 -510.82,187.06zm4603.68 -2871.63c-70.08,127.28 -98.18,100.74 -283.75,130.24 -1344.14,213.64 -2351.88,589.62 -3561.68,1177.69 -344.4,167.4 -1050.68,673.19 -1060.83,454.24 -10.03,-216.03 1888.86,-1041.76 2261.33,-1183.13 600.3,-227.82 1366.04,-455.37 2013.73,-579.15 435.22,-83.18 527.42,-147.19 631.2,0.11zm-1090.73 8578.26c-106.34,115.84 -715.2,350.47 -913.68,447.26 -213.04,103.9 -709.86,406.34 -912.77,400.18 -106.44,-114.14 -284.82,-406.03 -291.42,-565.84 199.04,-258.47 1314.21,-743.58 1728.35,-892.38 173.74,-58.69 742.37,-431.98 794.2,-590.36 -390.94,93.9 -910.72,353.06 -1272.25,513.03 -276.82,122.51 -972.44,545.74 -1178.19,586.08 -140.63,-92.43 -339.2,-390.64 -348.5,-581.3 333.69,-418.02 2696.05,-1358.91 3470.47,-1529.85 131.86,-209.97 255.17,-229.85 432.59,-397.35 -713.74,95.99 -2248.29,696.46 -2935.21,1056.63 -226.77,118.91 -674.17,428.34 -882.52,437.75 -102.56,-84.82 -309.93,-385.23 -327.8,-558.4 180.64,-315.27 1967.67,-1060.55 2512.46,-1253.84 463.61,-164.5 955.21,-311.88 1451.79,-434.15 279.81,-68.89 1312.17,-389.85 1486.19,-163.9 99.11,-39.58 101.55,-48.17 193.28,-91.79 -16.18,-259.46 -1687.78,-6102.41 -1807.06,-6328.05 -1271.28,67.72 -5164.59,1602.11 -5827.8,2245.24l2966.43 10387.49 1370.25 -562.67c996.95,-370.12 1926.04,-657.7 2986.03,-869.47 537.43,-107.37 1138.2,-167.95 1652.73,-275.6l-696.8 -2436.65c-1068.28,713.91 -1155.88,1040.67 -1803.39,781.49 -500.05,459.61 -634.16,371.42 -855.84,414.1 -141.24,27.19 -251.59,160.92 -389.4,252.93 -216.82,144.76 -341.6,50.16 -602.14,9.42z"/>
  <path class="fil1" d="M16732.86 12678.33l-543.86 -102.91 228.72 -193.22c95.81,-66.96 139.35,-92.66 210.07,-140.67 159.15,-108.05 268.01,-233.41 433.4,-260.56 37.09,-58.46 -47.41,-52.09 44.69,-47.14l342.39 503.17 -172.54 147.66c-224.02,166.65 -237.18,184.82 -542.87,93.67zm9344.2 -5649.85l0 146.58c-27.57,127.58 -131.47,253.5 -337.88,406.41l-2785.39 1951.56c-181.8,121.16 -276.97,212.3 -473.3,316.2 138.04,592.51 632.86,2133.84 833.36,2850.93 140.86,503.88 449.05,1189.77 -59.24,1475.9 -160.04,90.09 -1415.59,296.73 -1669.64,347.95 -791.23,159.48 -1484.07,293.47 -2236.64,482.72 -379.56,95.47 -706.89,208.44 -1040.19,319.49 -921.04,306.88 -2032.33,744.41 -2914.03,1121.16 -232.98,99.54 -267.1,111.35 -544.88,156.89 -3100.86,508.34 -4056.97,763.41 -6880.35,1891.77 -536.14,214.27 -1172.86,632.72 -1485.21,-18.6l-2122.81 -7351.09c-125.6,-430.96 -260.67,-905.33 -380.08,-1330.49 -69.23,-246.59 -125.19,-436.19 -194.44,-682.77 -90.99,-323.98 -420.5,-1086.33 228.81,-1237.6 -28.76,-123.45 -87.72,-222.88 -87.72,-350.89 0,-91.5 319.29,-181.66 420.3,-237.59 461.67,-255.59 728.9,-472.02 1025.47,-904.41 130.61,-190.43 171.58,-163.04 413.02,-244.88 1290.76,-437.44 2048.88,-685.29 3497.85,-932.09 270.76,-46.1 2023.79,-243.38 2320.3,-224.03 345.89,22.54 176.83,64.01 455.81,-113.39 1035.02,-658.13 1914.77,-972.36 3020.71,-1409.79 223.77,-88.52 2614.3,-875.09 2951.47,-743.75 1053.34,410.31 883.4,204.57 1860.36,204.57 243.25,506.97 -65.13,234.12 427.2,358.78 208.85,52.89 337.75,227.07 402.59,434.25l1100.08 3943.92 2280.75 -1578.98c1004.91,-661.07 853.47,-705.93 1604.33,325.52 194.99,267.87 335.95,456.86 369.39,625.75zm-8381.21 4253.05l91.55 -73.01c8.84,5.7 19.97,15.27 24.74,19.55l573.79 778.96c-154.78,149.12 -457.1,426.36 -735.89,384.89l-121.87 -217.87c-112.84,-75.05 -302.18,-339.53 -304.17,-526.54 87.03,-139.43 301.81,-275.73 471.85,-365.98zm3075.92 -216.57c9.53,-10.21 -6.73,-6.9 59.01,-59.82 9.01,-7.26 38.84,-29.41 49.32,-36.11 85.27,-54.46 41.22,-28.18 127.21,-60.35l237.42 -184.82c83.53,-86.73 160.07,-130.05 272.7,-182.43 98.81,-89.06 176.38,-155.05 314.99,-213.06l907.53 3237.53c-657.09,17 -993.7,111.47 -1579.33,234.15l-716.44 -2518.18 327.59 -216.91zm1049.95 2768.15c288.2,-53.28 915.91,-45.82 1104.17,-111.28l19.12 -67.38c37.22,-279.57 12.71,192.49 6.15,-68.02l-209.33 -751.76c-146.55,-509.18 -722.8,-2376.27 -738.15,-2634.56 104.12,-99.99 195.7,-164.02 308.31,-210.44l873.48 3015.21c214.08,747.59 381.66,953.56 -477.75,1105.69 -1537.23,272.13 -3290.35,609.27 -4721.45,1113.17 -477.25,168.03 -926.25,352.26 -1399.11,530.31 -420.54,158.35 -1016.32,452.08 -1403.38,555.14l-155.3 -582.12c267.61,-95.63 591.49,-257.24 886.85,-381.8 1472.15,-620.82 3293.5,-1109.25 4888.52,-1289.83 385.35,-43.63 654.22,-155.1 1017.87,-222.33zm-17839.46 -4741.77c-107,-373.45 -358.73,-878.91 76.74,-1032 174.19,257.54 2771.54,9871.31 2982.53,10203.38 146.96,-8.94 670.73,-326.65 887.26,-421.48 303.68,-133.02 646.15,-205.85 941.59,-330.15 2015.21,-847.9 3595.72,-1506.69 5986.16,-1719.76l149.96 575.46c-1803.1,370.36 -3270.82,556.95 -4959.65,1137.04 -3711.95,1275.02 -3158.99,1709.43 -3685.07,-132.27l-2379.52 -8280.22zm172.97 -1479.01c109.87,-82.47 257.99,-139.67 393.25,-211.87 136.11,-72.65 257.86,-153.71 374.08,-240.65 139.45,-104.34 190.71,-177.45 318.09,-295.66 154.88,-143.73 127.64,-149.18 251.11,-285.56 133.02,274.7 304.98,995.64 404.8,1345.64 323.33,1133.58 2620.33,8977.14 2703.91,9469.03 -67.49,41.98 -864.35,302.74 -1464.27,643.78l-2980.97 -10424.71zm20815.18 262.15c-117.05,112.02 -407.16,301.03 -561.31,401.07l-4170.04 2900.14c-106.74,115.79 -377.84,304.37 -561.3,396.41 -151.75,146.14 -402.48,299.97 -606.5,439.97 -306.49,210.29 -462.08,78.4 -584.82,-195.42 -113.93,-125.59 -628.57,-834.36 -635.64,-966.49 -11.11,-208.07 211.29,-305.66 379.62,-425.99 134.69,-96.3 326.73,-240.74 469.13,-310.09 87.77,-88.86 411.95,-317.21 528.47,-363.98l3130.14 -2215.86c250.83,-169.89 817.48,-626.37 1052,-705.17 75.53,-106.74 431.84,-348.85 567.08,-405.82 153.26,-145.89 482.95,-374.11 691.54,-492.7 318.22,-308.94 468.18,-3.35 624.05,229.47 587.1,876.95 839.91,930.62 306.73,1282.05 -238.59,157.26 -402.7,298.13 -629.15,432.41zm-19318.01 -1477.44c1298.57,-604.56 4539.79,-1296.77 6161.31,-1190.68l2972.78 10406.31c-2103.93,179.49 -4290.47,963.07 -5980.92,1717.48 -129.76,-247.58 -3055.36,-10605.05 -3153.17,-10933.11zm13792.64 2933.69c-257.31,267.7 -921.6,305.49 -1364.25,416.09 -1126.2,281.38 -2231.66,708.22 -3252.49,1223.77 -340.67,172.04 -474.98,203.73 -504.32,369.9 146.09,94.25 372.75,-89.89 530.27,-171.38 986.52,-510.3 2996.97,-1327.19 3967.64,-1386.3l-681.76 463.83c-177.42,167.5 -300.73,187.38 -432.59,397.35l-37.82 306.06c-604.21,99.09 -2167.61,797.07 -2810.5,1147.35 -158.92,86.6 -236.27,89.6 -256.1,238.13 169.41,105.85 487.39,-154.1 682.16,-251.12 479.43,-238.83 1694.28,-794.12 2138.41,-859.63 -159.8,95.3 -333.07,227.65 -387.68,431.25 -51.83,158.38 -620.46,531.67 -794.2,590.36 -134.96,211.88 -155.1,33.25 -249.34,281.03l-31.83 107.17c-1.92,-6.33 -5.34,25.04 -10.88,36.44l-876.6 428.08c-166.32,79.82 -172.49,39.78 -176.45,215.1 270.01,122.13 1079.98,-756.26 1734.62,-457.04 260.54,40.74 385.32,135.34 602.14,-9.42 137.81,-92.01 248.16,-225.74 389.4,-252.93 221.68,-42.68 355.79,45.51 855.84,-414.1 647.51,259.18 735.11,-67.58 1803.39,-781.49l696.8 2436.65c-514.53,107.65 -1115.3,168.23 -1652.73,275.6 -1059.99,211.77 -1989.08,499.35 -2986.03,869.47l-1370.25 562.67 -2966.43 -10387.49c663.21,-643.13 4556.52,-2177.52 5827.8,-2245.24 119.28,225.64 1790.88,6068.59 1807.06,6328.05 -91.73,43.62 -94.17,52.21 -193.28,91.79zm2232.44 -1549.06l-288.11 217.48c-98.57,-122.93 -1282.32,-4206.03 -1326.9,-4548.71 510.99,-3.76 495.56,413.08 625.71,865.36 289.34,1005.39 786.45,2581.31 989.3,3465.87zm-783.44 535.03l-246.47 193.91c-123.13,80.69 -92.51,92.99 -239.52,137.76 -78.15,107.88 -200.64,173.78 -312.98,240.63 -92.07,92.68 -187.13,130.55 -283.71,197.81l-1748.44 -6114.1c758.62,160.06 823.91,248.99 1710.94,143.66 130.91,785.38 1396.78,4539.92 1397.85,5026.63l-277.67 173.7z"/>
  <path class="fil0" d="M6171.2 12429.16c163.77,563.5 1321.92,4477.62 1221.22,4704.97 -161.59,-63 -139.12,-202.07 -252.28,-541.43 -736.12,-2207.49 -1587.02,-5321 -2188.45,-7590.86 -52.99,-199.95 -106.96,-395.91 -157.01,-592.1 -78.85,-309.02 -162.13,-426.6 -69.8,-559.33 208.5,126.15 1391.32,4389.49 1446.32,4578.75zm1619.4 3556.68c54.83,207.23 346.58,1120.98 261.36,1262.24 -140.23,-62.79 -161.83,-276.96 -254,-567.98l-573.28 -1881.11c-524.63,-1715.06 -962.2,-3381.9 -1457.07,-5078.68l-638.34 -2427.6c-4,-124.48 -16.07,-42.74 26.26,-128.72 158.6,94.05 380.2,998.5 452.27,1224.15 728.51,2280.95 1566.75,5269.27 2182.8,7597.7zm-3635.37 -8373.51l2980.97 10424.71c599.92,-341.04 1396.78,-601.8 1464.27,-643.78 -83.58,-491.89 -2380.58,-8335.45 -2703.91,-9469.03 -99.82,-350 -271.78,-1070.94 -404.8,-1345.64 -123.47,136.38 -96.23,141.83 -251.11,285.56 -127.38,118.21 -178.64,191.32 -318.09,295.66 -116.22,86.94 -237.97,168 -374.08,240.65 -135.26,72.2 -283.38,129.4 -393.25,211.87z"/>
  <path class="fil2" d="M15006.5 16366.79l-149.96 -575.46c-2390.44,213.07 -3970.95,871.86 -5986.16,1719.76 -295.44,124.3 -637.91,197.13 -941.59,330.15 -216.53,94.83 -740.3,412.54 -887.26,421.48 -210.99,-332.07 -2808.34,-9945.84 -2982.53,-10203.38 -435.47,153.09 -183.74,658.55 -76.74,1032l2379.52 8280.22c526.08,1841.7 -26.88,1407.29 3685.07,132.27 1688.83,-580.09 3156.55,-766.68 4959.65,-1137.04z"/>
  <path class="fil0" d="M20095.07 8889c25.99,-377.06 -1559.66,-5315.22 -1437.28,-5609.31 146.62,60.35 172.42,291.87 269.83,605.33 433.84,1396.46 953.86,3055.18 1335.16,4455.55 118.76,436.21 55.06,281.36 145.27,307.8 147.01,-44.77 116.39,-57.07 239.52,-137.76 -139.71,-785.05 -733.77,-2620.63 -990.48,-3643.92 -58.79,-234.35 -352.33,-1067.93 -246.85,-1223.69 158.17,98.46 334.95,859.95 410.02,1102.41l714.69 2357.65c100.37,354.13 230.2,887.49 359.09,1213.64l277.67 -173.7c-1.07,-486.71 -1266.94,-4241.25 -1397.85,-5026.63 -887.03,105.33 -952.32,16.4 -1710.94,-143.66l1748.44 6114.1c96.58,-67.26 191.64,-105.13 283.71,-197.81z"/>
  <path class="fil2" d="M22003.68 10200.11c15.35,258.29 591.6,2125.38 738.15,2634.56l209.33 751.76c6.56,260.51 31.07,-211.55 -6.15,68.02l-19.12 67.38c-188.26,65.46 -815.97,58 -1104.17,111.28 -363.65,67.23 -632.52,178.7 -1017.87,222.33 -1595.02,180.58 -3416.37,669.01 -4888.52,1289.83 -295.36,124.56 -619.24,286.17 -886.85,381.8l155.3 582.12c387.06,-103.06 982.84,-396.79 1403.38,-555.14 472.86,-178.05 921.86,-362.28 1399.11,-530.31 1431.1,-503.9 3184.22,-841.04 4721.45,-1113.17 859.41,-152.13 691.83,-358.1 477.75,-1105.69l-873.48 -3015.21c-112.61,46.42 -204.19,110.45 -308.31,210.44z"/>
  <path class="fil3" d="M20762.39 9091.1c308.85,-202.78 526.57,234.1 263.24,401.42 -266.15,169.1 -522.84,-230.96 -263.24,-401.42zm1567.97 -1079.94c283.19,-136.3 464.6,292.82 186.29,430.23 -137.06,67.66 -272.95,-2.75 -322.12,-109.34 -129.72,-281.1 135.78,-320.86 135.83,-320.89zm-3102.34 1738.94c135.98,148.95 249.3,320.83 362.37,489.14 138.79,206.56 234.57,317.86 353.69,521.5l35.53 -6.21 939.4 -703.32c-99.28,-201.8 8.12,-330.31 138.12,-440.81 205.57,-174.74 320.13,-161.33 504.75,-22.58 100.37,-8.32 136.64,-47.3 211.13,-96.66 74.39,-49.27 42.08,-13.54 103.21,-73.64 78.42,-77.1 94.87,-7.74 31.57,-85.27 -187.48,-14.66 -468.01,-46.84 -568.39,-229.97 -5.52,-10.06 -52.23,-76.8 2.75,-130.38 235.08,-115.71 155.86,329.98 616.8,98.8 96.04,-351.32 -102.87,-402.7 7.94,-563.32 249.82,51.34 246.47,388.68 153.38,634.24 87.82,116.9 -39.43,37.02 79.26,18.27 146.18,-23.09 9.85,13.63 104.42,-49.07 66.38,-44 129.25,-94.9 190.73,-142.62 -227.44,-395.22 396.3,-737.68 635.15,-482.72 182.68,-75.51 307.25,-199.57 477.04,-316.44l494.7 -336.74 0 -45.41c-193.82,-183.43 -491.83,-698.85 -691.41,-957.82 -234.52,78.8 -801.17,535.28 -1052,705.17l-3130.14 2215.86z"/>
  <path class="fil0" d="M21517.43 10541.43c79.68,352.33 640.22,2190.68 568.32,2374.94 -138.4,-33.15 -107.15,-29.67 -165.36,-226.35l-444.78 -1441.41c-93.67,-317.78 -82.08,-455.42 -230.88,-524.75l-237.42 184.82c-6.35,198.39 451.38,1742.34 557,2185.57l22.72 173.36c-0.6,9.17 -5.33,25.86 -6.24,33.22l-21.37 64.68c-206.71,-121.34 -681.06,-2038.76 -787.65,-2300.55l-327.59 216.91 716.44 2518.18c585.63,-122.68 922.24,-217.15 1579.33,-234.15l-907.53 -3237.53c-138.61,58.01 -216.18,124 -314.99,213.06z"/>
  <path class="fil3" d="M14039.72 10339.33c-9.21,-150.04 18.97,-107.77 178.5,-198.01l838.15 -436.02c398.95,-185.45 779.99,-356.83 1197.87,-511.93 397.73,-147.63 2322.94,-798.83 2699.06,-643.68 -29.83,211.37 -423.19,192.68 -614.14,232.04 -1401.22,288.8 -2788.66,797.7 -4007.87,1516.22 -69.35,40.87 -235.08,101.81 -256.72,53.93 -5.93,-13.13 -24.17,-6.33 -34.85,-12.55zm-70.03 422.33c204.89,-0.83 789.06,-396.27 1163.29,-585.88 834.43,-422.79 1714.66,-729.48 2632.9,-963.93 488.93,-124.82 1018.04,-195.35 1488.95,-307.36 29.42,-149.8 9.69,-325.75 -25.39,-498.86 -78.24,-385.88 -515.25,-184.58 -1279.38,-17.99 -619.65,135.07 -1218.79,324.64 -1798.77,527.77 -785.4,275.07 -1652.73,697.43 -2332.47,1132.36 -246.88,157.96 -187.06,313.33 150.87,713.89z"/>
  <path class="fil3" d="M18140.13 10246.64l681.76 -463.83c-970.67,59.11 -2981.12,876 -3967.64,1386.3 -157.52,81.49 -384.18,265.63 -530.27,171.38 29.34,-166.17 163.65,-197.86 504.32,-369.9 1020.83,-515.55 2126.29,-942.39 3252.49,-1223.77 442.65,-110.6 1106.94,-148.39 1364.25,-416.09 -174.02,-225.95 -1206.38,95.01 -1486.19,163.9 -496.58,122.27 -988.18,269.65 -1451.79,434.15 -544.79,193.29 -2331.82,938.57 -2512.46,1253.84 17.87,173.17 225.24,473.58 327.8,558.4 208.35,-9.41 655.75,-318.84 882.52,-437.75 686.92,-360.17 2221.47,-960.64 2935.21,-1056.63z"/>
  <path class="fil4" d="M23129.83 8485.48c4.75,351.26 -262.25,527.85 -635.15,482.72 -61.48,47.72 -124.35,98.62 -190.73,142.62 -94.57,62.7 41.76,25.98 -104.42,49.07 -118.69,18.75 8.56,98.63 -79.26,-18.27 -68.36,64.68 -138.9,113.34 -212.48,190.63 63.3,77.53 46.85,8.17 -31.57,85.27 -61.13,60.1 -28.82,24.37 -103.21,73.64 -74.49,49.36 -110.76,88.34 -211.13,96.66 -22.52,317.6 -283.2,628.39 -642.87,463.39l-939.4 703.32c65.82,159.13 173.78,284.27 259.45,421.16l4170.04 -2900.14c-80.88,-164.2 -168.03,-303.85 -307.53,-443.25l-494.7 336.74c-169.79,116.87 -294.36,240.93 -477.04,316.44z"/>
  <path class="fil5" d="M8051.96 17248.08c85.22,-141.26 -206.53,-1055.01 -261.36,-1262.24 -616.05,-2328.43 -1454.29,-5316.75 -2182.8,-7597.7 -72.07,-225.65 -293.67,-1130.1 -452.27,-1224.15 -42.33,85.98 -30.26,4.24 -26.26,128.72l638.34 2427.6c494.87,1696.78 932.44,3363.62 1457.07,5078.68l573.28 1881.11c92.17,291.02 113.77,505.19 254,567.98z"/>
  <path class="fil5" d="M7392.42 17134.13c100.7,-227.35 -1057.45,-4141.47 -1221.22,-4704.97 -55,-189.26 -1237.82,-4452.6 -1446.32,-4578.75 -92.33,132.73 -9.05,250.31 69.8,559.33 50.05,196.19 104.02,392.15 157.01,592.1 601.43,2269.86 1452.33,5383.37 2188.45,7590.86 113.16,339.36 90.69,478.43 252.28,541.43z"/>
  <path class="fil3" d="M17036.01 11656.03c54.61,-203.6 227.88,-335.95 387.68,-431.25 -444.13,65.51 -1658.98,620.8 -2138.41,859.63 -194.77,97.02 -512.75,356.97 -682.16,251.12 19.83,-148.53 97.18,-151.53 256.1,-238.13 642.89,-350.28 2206.29,-1048.26 2810.5,-1147.35l37.82 -306.06c-774.42,170.94 -3136.78,1111.83 -3470.47,1529.85 9.3,190.66 207.87,488.87 348.5,581.3 205.75,-40.34 901.37,-463.57 1178.19,-586.08 361.53,-159.97 881.31,-419.13 1272.25,-513.03z"/>
  <path class="fil2" d="M21389.37 7999.15l288.11 -217.48c-202.85,-884.56 -699.96,-2460.48 -989.3,-3465.87 -130.15,-452.28 -114.72,-869.12 -625.71,-865.36 44.58,342.68 1228.33,4425.78 1326.9,4548.71z"/>
  <path class="fil2" d="M18486.44 11816.65c208.24,-56.49 646.58,-490.67 930.98,-621.1l-11.87 -52.72c-79.6,-71.92 -662.31,-904.35 -706,-1028.75 -142.4,69.35 -334.44,213.79 -469.13,310.09 -168.33,120.33 -390.73,217.92 -379.62,425.99 7.07,132.13 521.71,840.9 635.64,966.49z"/>
  <path class="fil6" d="M24668.78 5930.55c185.46,445.37 484.03,1151.2 -5.65,1465.48 93.12,181.66 216.6,319.34 307.28,478.45 226.45,-134.28 390.56,-275.15 629.15,-432.41 533.18,-351.43 280.37,-405.1 -306.73,-1282.05 -155.87,-232.82 -305.83,-538.41 -624.05,-229.47z"/>
  <path class="fil5" d="M20095.07 8889c112.34,-66.85 234.83,-132.75 312.98,-240.63 -90.21,-26.44 -26.51,128.41 -145.27,-307.8 -381.3,-1400.37 -901.32,-3059.09 -1335.16,-4455.55 -97.41,-313.46 -123.21,-544.98 -269.83,-605.33 -122.38,294.09 1463.27,5232.25 1437.28,5609.31z"/>
  <path class="fil7" d="M4409.89 4278.91c225.3,336.45 303.19,259.55 473.94,710.31 67.54,178.3 28.12,194.15 227.83,210.78 124.36,-533.81 526.33,-710.91 526.33,-921.09 0,-138.48 -266.68,-241.06 -430.5,-666.02 -66.52,-172.54 -17.97,-166.97 -183.55,-211.19 -160.64,117.7 -61.71,155.27 -270.34,475.3 -106.97,164.1 -241.32,249 -343.71,401.91z"/>
  <path class="fil3" d="M16631.33 12857.17c-654.64,-299.22 -1464.61,579.17 -1734.62,457.04 3.96,-175.32 10.13,-135.28 176.45,-215.1l876.6 -428.08c5.54,-11.4 8.96,-42.77 10.88,-36.44l31.83 -107.17c94.24,-247.78 114.38,-69.15 249.34,-281.03 -414.14,148.8 -1529.31,633.91 -1728.35,892.38 6.6,159.81 184.98,451.7 291.42,565.84 202.91,6.16 699.73,-296.28 912.77,-400.18 198.48,-96.79 807.34,-331.42 913.68,-447.26z"/>
  <path class="fil7" d="M11339.88 2919.24c74.35,278.45 209.94,195.09 423.18,673.32 59.71,133.86 42.05,170.85 147.01,247.75 164.49,-43.92 101.2,-19.78 178.58,-172.29 332.3,-654.99 248.44,-360.13 479.33,-704.93 -152.62,-288.41 -251.36,-210.69 -456.24,-684.14 -64.29,-148.57 -47.79,-156.31 -157.81,-236.92 -141.48,103.65 -182.08,299.62 -280.61,465.02 -120.42,202.16 -225.56,251.07 -333.44,412.19z"/>
  <path class="fil7" d="M22831.37 17349.4c120.47,227.66 198.26,220.91 322.7,422.93 167.6,272.12 134.05,382.89 291.35,498.15 202.98,-135.94 140.73,-242.54 287.9,-457.74 108.32,-158.42 233.99,-281.85 326.15,-419.48 -54.79,-205.22 -418.25,-457.16 -526.33,-921.08 -237.63,19.78 -163.95,107.65 -352.09,437.4 -118.25,207.24 -236.89,271.39 -349.68,439.82z"/>
  <path class="fil7" d="M14892.6 18709.08c0,155.12 393.41,350.59 526.33,921.07 193.08,-16.07 154.65,-22.81 216.46,-178.28 206.44,-519.26 282.03,-395.38 485.31,-698.93 -113.09,-213.71 -207.24,-244.32 -333.46,-456.05 -59.49,-99.81 -81.46,-154.99 -132.06,-262.68 -67.97,-144.69 -50.88,-186.92 -236.25,-202.34 -135.75,582.65 -526.33,728.9 -526.33,877.21z"/>
  <path class="fil5" d="M20647.57 8510.61l246.47 -193.91c-128.89,-326.15 -258.72,-859.51 -359.09,-1213.64l-714.69 -2357.65c-75.07,-242.46 -251.85,-1003.95 -410.02,-1102.41 -105.48,155.76 188.06,989.34 246.85,1223.69 256.71,1023.29 850.77,2858.87 990.48,3643.92z"/>
  <path class="fil1" d="M8290.72 13796.69c124.43,144.99 315.59,0.71 516.01,-77.36 1209.04,-470.94 2982.96,-860.73 4294.77,-919.59 262.83,-11.79 257.26,29.54 297.8,-161.65 -520.91,-216.08 -3192.11,418.38 -3989.16,676.39 -205.14,66.42 -384.48,123.75 -588.39,200.99 -286.69,108.58 -469.24,133.2 -531.03,281.22z"/>
  <path class="fil1" d="M13749.05 9322.9c140.76,69.93 814.43,-367.07 1108.9,-518.85 380.36,-196.07 771.24,-369.02 1184.74,-524.41 629.29,-236.47 1299.97,-440.09 1973.41,-573.26 485.19,-95.94 587.82,-13.56 636.15,-223.09 -432.03,-271.77 -3141.21,782.84 -3876.82,1152.31 -230.58,115.83 -999.73,454.44 -1026.38,687.3z"/>
  <path class="fil1" d="M7711.49 11779.1c120.46,142.51 318.58,-8.08 516.96,-85.37 587.19,-228.78 1231.16,-425.26 1851.93,-560.02 442.43,-96.04 880.39,-176.77 1342.03,-235.95l1105.58 -91.74c210.84,-7.33 236.42,26.94 295.82,-123.45 -266.36,-226.7 -2376.28,182.92 -2789.66,272.19 -783.62,169.2 -1384.19,378.44 -2105.51,659.31 -182.77,71.16 -173.12,41.13 -217.15,165.03z"/>
  <path class="fil1" d="M13437.86 8275.53c189.35,-8.9 872.19,-437.18 1118.84,-560.68 985.53,-493.48 2034.17,-861.49 3128.14,-1083.26 185.21,-37.55 575.24,-19.38 655.7,-203.49 -341.98,-349.8 -3291.38,828.05 -3865.94,1118.62 -196.22,99.23 -393.97,210.41 -570.05,306.27 -481.15,261.97 -468.15,227.49 -466.69,422.54z"/>
  <path class="fil1" d="M15194.33 14289.1c155.93,48.36 870.78,-381.38 1111.21,-482.28 1288.66,-540.87 2163.26,-856.59 3532.22,-1116.29 202.79,-38.46 213.14,-9.2 260.81,-163.7 -173.47,-125.63 -1133.35,162.82 -1378.16,228.36 -437.4,117.1 -885.47,254.92 -1304.32,407.06 -504.92,183.41 -1573.59,632.9 -2083.18,902.28 -200.56,106.04 -135.57,69.98 -150.47,139.23 -16.88,78.46 -7.41,42.15 11.89,85.34z"/>
  <path class="fil8" d="M7094.83 9629.92c119.21,143.96 315.97,-11.77 512.12,-91.77 178.08,-72.63 391.52,-148.09 579.38,-212.18 382.76,-130.58 817.76,-251.78 1237.14,-342.25 441.71,-95.28 892.91,-170.44 1347.93,-222.64 277.38,-31.84 1308.45,-33.33 1445.46,-139.95 -44.78,-147.64 -43.37,-124.59 -258.54,-123.86 -1630.07,5.6 -3120.3,376.01 -4615.51,951.98 -164.22,63.27 -204.87,52.28 -247.98,180.67z"/>
  <path class="fil1" d="M7408.91 10726.44c148.75,115.19 675.11,-186.13 1105.68,-325.4 414.42,-134.06 803.24,-243.02 1239.12,-341.34 667.09,-150.44 1382.01,-242.82 2075.95,-280.14 200.25,-10.77 590.66,58.2 701.49,-105.77 -116.05,-172.96 -508.02,-88.09 -710.52,-77.13 -240.14,13.01 -477.24,29.29 -711.41,55.99 -472.36,53.85 -912.44,122.63 -1367.89,223.83 -267.69,59.47 -2237.04,539.18 -2332.42,849.96z"/>
  <path class="fil8" d="M8579.31 14805.48c155.4,103.02 414.97,-65.04 576.35,-122.94 1013.13,-363.45 2075.75,-640.23 3155.12,-792.74l1220.84 -135.95c174.54,-44.09 65.82,33.89 142.7,-88.75 -98.24,-168.71 -279.52,-94.19 -669.66,-51.33 -1204.44,132.32 -2156.25,338.83 -3305.54,690.56l-877.1 307.43c-202.98,72.95 -210.52,33.69 -242.71,193.72z"/>
  <path class="fil1" d="M17722.06 4278.91c-103.78,-147.3 -195.98,-83.29 -631.2,-0.11 -647.69,123.78 -1413.43,351.33 -2013.73,579.15 -372.47,141.37 -2271.36,967.1 -2261.33,1183.13 10.15,218.95 716.43,-286.84 1060.83,-454.24 1209.8,-588.07 2217.54,-964.05 3561.68,-1177.69 185.57,-29.5 213.67,-2.96 283.75,-130.24z"/>
  <path class="fil1" d="M8056.88 12836.03c168.38,66.65 853.99,-253.2 1112.53,-333.43 410.19,-127.31 806.25,-240.56 1238.41,-338.4 434.39,-98.36 856.06,-175.54 1296.12,-238.19 240.68,-34.27 467.79,-59.01 703.51,-80.86 507.2,-47.02 584.38,38.27 652.27,-153.77 -190.7,-145.87 -1188.31,24.85 -1401.47,54.59 -1185.59,165.45 -2299.69,457.29 -3406.74,892.35 -216.74,85.19 -171.23,13.88 -194.63,197.71z"/>
  <path class="fil1" d="M13118.38 7150.54c155.16,104.62 318.47,-75.8 510.82,-187.06 1105.8,-639.67 2490.02,-1171.72 3760.18,-1413.87 234.15,-44.65 570.2,-34.29 644.81,-213.15 -130.61,-115.89 -392.65,-24.47 -689.79,33.97 -237.15,46.64 -487.71,106.51 -712.38,164.52 -1043.64,269.53 -2118.18,728.78 -3049.09,1249.45 -152,85.02 -444.31,192.01 -464.55,366.14z"/>
  <path class="fil1" d="M14039.72 10339.33c10.68,6.22 28.92,-0.58 34.85,12.55 21.64,47.88 187.37,-13.06 256.72,-53.93 1219.21,-718.52 2606.65,-1227.42 4007.87,-1516.22 190.95,-39.36 584.31,-20.67 614.14,-232.04 -376.12,-155.15 -2301.33,496.05 -2699.06,643.68 -417.88,155.1 -798.92,326.48 -1197.87,511.93l-838.15 436.02c-159.53,90.24 -187.71,47.97 -178.5,198.01z"/>
  <path class="fil1" d="M8865.66 15780.86l1177.25 -342.14c412.89,-123.93 810.01,-242.75 1241.04,-339.47 435.86,-97.84 871.46,-181.95 1327,-248.91 231.96,-34.1 462.38,-65.24 700.38,-90.41 449.56,-47.55 574.01,24.67 640.89,-162.23 -135.85,-123.73 -426.87,-54.39 -698.67,-25.61 -1338.97,141.82 -2651.45,470.37 -3910.19,912.46 -193,67.79 -495.43,123.85 -477.7,296.31z"/>
  <path class="fil9" d="M18699.55 10114.08c43.69,124.4 626.4,956.83 706,1028.75 157.93,-39.14 443.45,-270.09 538.53,-382.09 -119.12,-203.64 -214.9,-314.94 -353.69,-521.5 -113.07,-168.31 -226.39,-340.19 -362.37,-489.14 -116.52,46.77 -440.7,275.12 -528.47,363.98z"/>
  <path class="fil7" d="M7743.3 2173.6c113.52,169.53 392.37,402.76 482.48,789.49l131.57 0c88.9,-381.57 367.33,-617.56 482.48,-789.49 -86.78,-129.58 -219.4,-256 -305.66,-396.11 -203.36,-330.31 -46.95,-371.63 -308.39,-393.38 -88.9,381.57 -367.35,617.56 -482.48,789.49z"/>
  <path class="fil7" d="M18620.75 16472.18c58.72,252.06 148.28,213.79 262.4,395.5 95.56,152.18 123.78,335.19 263.93,437.86 128.22,-93.95 158.66,-252.3 253.39,-404.52 74.16,-119.19 272.93,-291.48 272.93,-384.97 0,-121.44 -193.28,-230.05 -278.79,-379.12 -105.05,-183.09 -81.72,-299.36 -247.53,-410.37 -111.7,81.83 -146.86,266 -226.35,387.71 -93.97,143.91 -209.77,223.2 -299.98,357.91z"/>
  <path class="fil9" d="M23410.16 6829.07c199.58,258.97 497.59,774.39 691.41,957.82 134.44,-45.56 142.78,-75.72 272.93,-166.86 115.49,-80.87 191.32,-111.97 258.3,-218.56 -175.49,-340.11 -486.05,-650.39 -655.56,-978.22 -135.24,56.97 -491.55,299.08 -567.08,405.82z"/>
  <path class="fil2" d="M23977.24 6423.25c169.51,327.83 480.07,638.11 655.56,978.22l30.33 -5.44c489.68,-314.28 191.11,-1020.11 5.65,-1465.48 -208.59,118.59 -538.28,346.81 -691.54,492.7z"/>
  <path class="fil10" d="M18486.44 11816.65c122.74,273.82 278.33,405.71 584.82,195.42 204.02,-140 454.75,-293.83 606.5,-439.97 -67.54,-147.34 -160.33,-259.28 -260.34,-376.55 -284.4,130.43 -722.74,564.61 -930.98,621.1z"/>
  <path class="fil5" d="M20771.77 11064.96c106.59,261.79 580.94,2179.21 787.65,2300.55l21.37 -64.68c0.91,-7.36 5.64,-24.05 6.24,-33.22l-22.72 -173.36c-105.62,-443.23 -563.35,-1987.18 -557,-2185.57 -85.99,32.17 -41.94,5.89 -127.21,60.35 -10.48,6.7 -40.31,28.85 -49.32,36.11 -65.74,52.92 -49.48,49.61 -59.01,59.82z"/>
  <path class="fil5" d="M21244.73 10723.86c148.8,69.33 137.21,206.97 230.88,524.75l444.78 1441.41c58.21,196.68 26.96,193.2 165.36,226.35 71.9,-184.26 -488.64,-2022.61 -568.32,-2374.94 -112.63,52.38 -189.17,95.7 -272.7,182.43z"/>
  <path class="fil11" d="M17695.85 11281.53c66.1,185.68 113.57,353.94 77.18,572.9 -11.51,69.21 -38.25,169.1 -77.28,231.1 -96.02,152.67 -80.04,106 -167.58,88.52l121.87 217.87c278.79,41.47 581.11,-235.77 735.89,-384.89l-573.79 -778.96c-4.77,-4.28 -15.9,-13.85 -24.74,-19.55l-91.55 73.01z"/>
  <path class="fil11" d="M24101.57 7786.89l0 45.41c139.5,139.4 226.65,279.05 307.53,443.25 154.15,-100.04 444.26,-289.05 561.31,-401.07 -90.68,-159.11 -214.16,-296.79 -307.28,-478.45l-30.33 5.44c-66.98,106.59 -142.81,137.69 -258.3,218.56 -130.15,91.14 -138.49,121.3 -272.93,166.86z"/>
  <path class="fil11" d="M19405.55 11142.83l11.87 52.72c100.01,117.27 192.8,229.21 260.34,376.55 183.46,-92.04 454.56,-280.62 561.3,-396.41 -85.67,-136.89 -193.63,-262.03 -259.45,-421.16l-35.53 6.21c-95.08,112 -380.6,342.95 -538.53,382.09z"/>
  <path class="fil9" d="M17528.17 12174.05c87.54,17.48 71.56,64.15 167.58,-88.52 39.03,-62 65.77,-161.89 77.28,-231.1 36.39,-218.96 -11.08,-387.22 -77.18,-572.9 -170.04,90.25 -384.82,226.55 -471.85,365.98 1.99,187.01 191.33,451.49 304.17,526.54z"/>
  <path class="fil3" d="M16732.86 12678.33c113.17,-131.11 174.89,-105.01 280.5,-269.7 62.72,-97.78 155.25,-338.32 47.83,-427.66 -165.39,27.15 -274.25,152.51 -433.4,260.56 -70.72,48.01 -114.26,73.71 -210.07,140.67l-228.72 193.22 543.86 102.91z"/>
  <path class="fil9" d="M20919.01 10051.21c359.67,165 620.35,-145.79 642.87,-463.39 -184.62,-138.75 -299.18,-152.16 -504.75,22.58 -130,110.5 -237.4,239.01 -138.12,440.81z"/>
  <path class="fil9" d="M22494.68 8968.2c372.9,45.13 639.9,-131.46 635.15,-482.72 -238.85,-254.96 -862.59,87.5 -635.15,482.72z"/>
  <path class="fil1" d="M21907.79 9332.25c73.58,-77.29 144.12,-125.95 212.48,-190.63 93.09,-245.56 96.44,-582.9 -153.38,-634.24 -110.81,160.62 88.1,212 -7.94,563.32 -460.94,231.18 -381.72,-214.51 -616.8,-98.8 -54.98,53.58 -8.27,120.32 -2.75,130.38 100.38,183.13 380.91,215.31 568.39,229.97z"/>
  <path class="fil4" d="M16732.86 12678.33c305.69,91.15 318.85,72.98 542.87,-93.67l172.54 -147.66 -342.39 -503.17c-92.1,-4.95 -7.6,-11.32 -44.69,47.14 107.42,89.34 14.89,329.88 -47.83,427.66 -105.61,164.69 -167.33,138.59 -280.5,269.7z"/>
  <path class="fil1" d="M20762.39 9091.1c-259.6,170.46 -2.91,570.52 263.24,401.42 263.33,-167.32 45.61,-604.2 -263.24,-401.42z"/>
  <path class="fil1" d="M22330.36 8011.16c-0.05,0.03 -265.55,39.79 -135.83,320.89 49.17,106.59 185.06,177 322.12,109.34 278.31,-137.41 96.9,-566.53 -186.29,-430.23z"/>
  <path class="fil12" d="M9760.89 7005.64c-159.29,23.34 -185.04,55.87 -149.53,275.26 28.65,177.07 35.47,238.45 224.16,227.31 77.94,-128.13 58.16,-376.29 -74.63,-502.57z"/>
  <g id="_2128987000544">
   <g id="_2188938233152">
    <g>
     <path class="fil13" d="M8134.81 8184.49l-693.71 -1778.66 -238.73 60.89 229.67 1897.04 200.79 -51.22c-13.32,-98.78 -27.73,-192.53 -36.58,-292.45l225.32 -57.48 105.75 274.81 207.49 -52.93zm-566.87 -359.16c-33.16,-279.06 -73.06,-565.9 -119.13,-858.3 99.61,278.74 197.47,541.3 302.09,811.64l-182.96 46.66z"/>
     <polygon class="fil13" points="8505.06,8090.04 8089.61,6461.39 8281.48,6412.44 8228.55,6204.96 7639.56,6355.21 7692.49,6562.69 7884.35,6513.75 8299.81,8142.4 "/>
     <polygon class="fil13" points="9083.29,7942.54 8667.84,6313.89 8859.71,6264.94 8806.78,6057.46 8217.79,6207.7 8270.72,6415.19 8462.58,6366.25 8878.04,7994.9 "/>
     <polygon class="fil13" points="9899.76,7734.27 9847.4,7529.01 9546.22,7605.84 9130.2,5974.96 8924.94,6027.32 9393.32,7863.46 "/>
     <path class="fil13" d="M10644.92 7544.19l-693.7 -1778.67 -238.72 60.9 229.66 1897.03 200.79 -51.22c-13.32,-98.77 -27.73,-192.52 -36.58,-292.45l225.32 -57.48 105.75 274.81 207.48 -52.92zm-566.85 -359.16c-33.16,-279.07 -73.06,-565.91 -119.14,-858.31 99.61,278.75 197.48,541.3 302.09,811.64l-182.95 46.67z"/>
     <path class="fil13" d="M11005.48 7150.42c16.51,64.71 -6.19,106.15 -64.2,120.94 -62.47,15.94 -98.91,-15.17 -114.28,-75.41l-99.59 -390.43 -198.57 50.66 99.59 390.43c50.09,196.33 164.42,281.22 369.67,228.87 205.26,-52.36 262.71,-181.08 212.63,-377.41l-67.15 -263.26c-36.43,-142.78 -73,-202.36 -152.64,-272.34 -94.77,-82.76 -279.05,-199.71 -339.61,-250.79 -38.68,-30.53 -54.48,-64.51 -67.57,-115.83l-69.43 -272.19c-16.51,-64.69 4.53,-103.33 62.54,-118.13 62.47,-15.93 96.68,15.74 112.05,75.97l84.8 332.42 191.86 -48.94 -85.37 -334.65c-51.79,-203.03 -155.47,-283.5 -356.27,-232.28 -198.56,50.65 -271.69,173.86 -219.33,379.11l70 274.41c27.32,107.09 56.07,163.92 114.97,217.81 74.6,68.89 257.22,188.63 337.37,251.35 67.82,51.61 90.89,86.12 111.95,168.67l66.58 261.02z"/>
    </g>
    <polygon class="fil14" points="7467,8505.09 11313.18,7523.97 11302.92,7483.75 7456.74,8464.87 "/>
    <g>
     <path class="fil14" d="M7700.1 8763.96c-1.37,1.72 -2.81,3.39 -4.34,5.01 -6.09,6.43 -13.14,11.81 -20.81,16.19 -8.07,4.61 -16.73,7.98 -25.73,10.27 -14.27,3.64 -28.82,4.39 -43.35,1.8 -13.9,-2.49 -26.91,-7.49 -38.78,-15.12 -11.97,-7.7 -22.14,-17.53 -30.5,-29.04 -8.83,-12.15 -14.95,-25.71 -18.66,-40.25 -3.7,-14.52 -4.81,-29.33 -2.99,-44.21 1.74,-14.18 5.88,-27.75 12.63,-40.32 6.73,-12.51 15.8,-23.26 26.88,-32.15 11.56,-9.29 24.8,-15.59 39.16,-19.25 9.22,-2.35 18.66,-3.53 28.18,-3.25 9,0.25 17.88,1.71 26.45,4.56 1.93,0.64 3.83,1.35 5.7,2.13 0.18,-2.78 0.83,-5.45 2.06,-7.91 2.64,-5.81 8.03,-9.47 14.31,-11.07l5.33 -1.36c5.57,-1.42 11.23,-0.94 16.32,1.78 5.63,3.01 9.2,8.23 10.75,14.34l42.94 168.33c1.54,6.01 0.62,12.14 -2.94,17.25 -3.22,4.62 -7.92,7.56 -13.34,8.94l-5.89 1.5c-9.72,2.48 -18.38,-0.8 -23.38,-8.17zm370.71 -248.67c-2.55,-1.54 -5.31,-2.75 -8.26,-3.64 -5.54,-1.69 -11.09,-1.56 -16.69,-0.13 -3.46,0.89 -6.87,2.2 -9.88,4.14 -2.3,1.48 -4.38,3.27 -5.97,5.5 -1.33,1.87 -2.16,3.89 -2.61,6.14 -0.46,2.34 -0.27,4.63 0.31,6.93 0.38,1.48 0.97,2.68 2.11,3.69 1.86,1.67 3.94,2.92 6.29,3.8 3.13,1.18 6.39,1.94 9.7,2.34 3.71,0.45 7.45,0.76 11.19,0.8l5.97 0.06c9.96,0.1 19.93,1.11 29.68,3.18 8.85,1.89 17.47,4.81 25.46,9.08 7.61,4.08 14.41,9.41 19.95,16.06 5.65,6.75 9.54,14.53 11.71,23.06 2.59,10.16 3.02,20.53 0.58,30.76 -2.26,9.52 -6.43,18.18 -12.52,25.84 -6.04,7.59 -13.47,13.79 -21.8,18.74 -8.55,5.1 -17.78,8.86 -27.43,11.32 -8.02,2.04 -16.21,3.19 -24.49,3.2 -8.07,0.03 -16.07,-0.99 -23.85,-3.19 -7.85,-2.21 -15.22,-5.71 -21.86,-10.45 -6.73,-4.8 -12.36,-10.84 -16.8,-17.79 -1.48,-2.08 -2.61,-4.38 -3.24,-6.86 -1.04,-4.06 -0.6,-8.24 0.85,-12.14 1.43,-3.92 3.86,-7.24 7.12,-9.83l6.82 -5.4 0.58 -0.38c2.14,-1.39 4.44,-2.5 6.91,-3.13 4.53,-1.16 9.22,-0.73 13.41,1.34 2.65,1.32 5.02,3.12 7.25,5.48l1.68 1.93c1.9,2.26 4.13,3.99 6.61,5.36 2.92,1.63 6.03,2.89 9.27,3.71 3.16,0.8 6.38,1.22 9.65,1.24 2.54,0.01 5.32,-0.13 7.8,-0.76 3.63,-0.93 7.18,-2.52 10.46,-4.32 3.36,-1.83 6.43,-4.13 9.09,-6.89 2.23,-2.32 3.97,-4.91 5.1,-7.92 0.87,-2.32 0.64,-4.86 0.04,-7.22 -0.56,-2.22 -1.49,-4.03 -3.23,-5.51 -2.67,-2.27 -5.72,-3.88 -9.02,-5.03 -4.33,-1.5 -8.89,-2.34 -13.45,-2.79 -5.18,-0.52 -10.38,-0.77 -15.92,-0.69 -8.27,-0.25 -16.15,-1.23 -23.92,-2.83 -8.1,-1.66 -15.97,-4.28 -23.4,-7.92 -7.46,-3.65 -14.23,-8.48 -19.99,-14.46 -6.28,-6.53 -10.57,-14.35 -12.81,-23.12 -2.31,-9.07 -2.95,-18.36 -1.42,-27.61 1.45,-8.85 4.63,-17.11 9.55,-24.59 5.06,-7.69 11.71,-13.92 19.37,-18.97 8.18,-5.39 17.27,-9.12 26.75,-11.54 14.09,-3.59 28.5,-4.09 42.66,-0.61 14.81,3.64 27.41,11.81 37.94,22.7l0.65 0.67 0.56 0.75c1.92,2.58 3.48,5.4 4.28,8.53 0.83,3.24 0.79,6.62 0.01,9.87 -0.88,3.62 -2.73,6.84 -5.37,9.57l-5.42 5.46c-2.87,3.1 -6.5,5.71 -10.88,6.82 -5.32,1.36 -10.85,0.56 -15.57,-2.91 -1.47,-1.18 -2.68,-2.16 -3.63,-3l-7.93 -6.44zm404.87 -103.28c-2.55,-1.54 -5.31,-2.75 -8.26,-3.64 -5.54,-1.69 -11.09,-1.55 -16.68,-0.13 -3.47,0.89 -6.87,2.2 -9.89,4.14 -2.29,1.48 -4.38,3.27 -5.97,5.5 -1.33,1.87 -2.16,3.89 -2.61,6.14 -0.46,2.34 -0.28,4.63 0.31,6.93 0.38,1.48 0.97,2.68 2.11,3.69 1.86,1.68 3.94,2.92 6.3,3.8 3.11,1.18 6.38,1.94 9.7,2.34 3.7,0.45 7.44,0.76 11.18,0.81l5.97 0.05c9.96,0.1 19.94,1.11 29.69,3.18 8.84,1.89 17.46,4.81 25.45,9.09 7.62,4.07 14.41,9.41 19.96,16.05 5.64,6.75 9.53,14.54 11.7,23.07 2.59,10.15 3.02,20.52 0.59,30.75 -2.27,9.52 -6.44,18.18 -12.53,25.84 -6.04,7.6 -13.47,13.79 -21.79,18.74 -8.55,5.1 -17.79,8.86 -27.44,11.32 -8.01,2.04 -16.21,3.19 -24.49,3.2 -8.07,0.03 -16.06,-0.99 -23.85,-3.18 -7.85,-2.21 -15.22,-5.72 -21.86,-10.46 -6.73,-4.8 -12.36,-10.84 -16.8,-17.79 -1.47,-2.08 -2.6,-4.37 -3.23,-6.86 -1.04,-4.06 -0.6,-8.24 0.84,-12.14 1.44,-3.92 3.86,-7.24 7.12,-9.83l6.82 -5.4 0.59 -0.38c2.13,-1.39 4.43,-2.5 6.91,-3.13 4.52,-1.16 9.21,-0.73 13.4,1.34 2.66,1.32 5.02,3.12 7.25,5.48l1.68 1.93c1.9,2.26 4.14,3.99 6.62,5.37 2.92,1.62 6.02,2.88 9.26,3.7 3.16,0.8 6.39,1.22 9.66,1.24 2.54,0.01 5.31,-0.13 7.79,-0.76 3.63,-0.93 7.18,-2.52 10.47,-4.32 3.36,-1.83 6.42,-4.13 9.08,-6.88 2.23,-2.32 3.97,-4.92 5.11,-7.93 0.86,-2.32 0.64,-4.86 0.04,-7.22 -0.57,-2.22 -1.49,-4.03 -3.23,-5.51 -2.67,-2.27 -5.72,-3.88 -9.03,-5.03 -4.33,-1.5 -8.9,-2.34 -13.45,-2.79 -5.17,-0.52 -10.38,-0.77 -15.91,-0.69 -8.27,-0.25 -16.15,-1.23 -23.93,-2.83 -8.1,-1.66 -15.97,-4.28 -23.4,-7.92 -7.45,-3.65 -14.23,-8.48 -19.99,-14.46 -6.28,-6.53 -10.57,-14.35 -12.8,-23.12 -2.32,-9.07 -2.96,-18.36 -1.44,-27.61 1.46,-8.85 4.64,-17.11 9.57,-24.59 5.05,-7.68 11.7,-13.92 19.35,-18.97 8.19,-5.39 17.28,-9.12 26.76,-11.54 14.1,-3.59 28.49,-4.09 42.66,-0.6 14.81,3.63 27.41,11.8 37.94,22.69l0.66 0.67 0.56 0.75c1.91,2.58 3.47,5.4 4.27,8.53 0.83,3.25 0.79,6.62 0.01,9.87 -0.87,3.62 -2.73,6.84 -5.37,9.57l-5.41 5.46c-2.87,3.1 -6.51,5.71 -10.89,6.83 -5.31,1.35 -10.85,0.55 -15.56,-2.92 -1.48,-1.18 -2.68,-2.16 -3.64,-3l-7.93 -6.44zm312.22 -113.59c-1.47,-5.77 -0.7,-11.7 2.47,-16.76 3.04,-4.86 7.8,-8.09 13.33,-9.5l6.76 -1.72c5.78,-1.48 11.76,-0.89 16.87,2.32 4.82,3.02 8,7.73 9.39,13.21l43.05 168.77c3.15,12.33 -3.39,22.9 -15.65,26.03l-6.58 1.67c-12.32,3.15 -23.39,-2.73 -26.59,-15.25l-43.05 -168.77zm-21.29 -60.16c-2.1,-8.22 -0.93,-16.4 3.37,-23.71 4.3,-7.28 10.87,-12.26 19.06,-14.35 8.21,-2.09 16.42,-0.89 23.68,3.45 7.28,4.36 12.15,11 14.24,19.21 2.09,8.21 1,16.37 -3.3,23.68 -4.28,7.3 -10.92,12.29 -19.13,14.39 -8.2,2.09 -16.37,0.87 -23.62,-3.48 -7.26,-4.37 -12.2,-10.98 -14.3,-19.19zm440.83 -12.91c-2.55,-1.54 -5.31,-2.75 -8.25,-3.65 -5.55,-1.69 -11.1,-1.55 -16.69,-0.12 -3.47,0.88 -6.87,2.2 -9.89,4.14 -2.29,1.47 -4.38,3.27 -5.97,5.5 -1.33,1.87 -2.16,3.89 -2.61,6.13 -0.46,2.35 -0.27,4.64 0.32,6.94 0.37,1.47 0.96,2.67 2.1,3.69 1.87,1.67 3.94,2.92 6.3,3.8 3.12,1.17 6.39,1.93 9.7,2.34 3.7,0.45 7.44,0.76 11.18,0.8l5.97 0.06c9.96,0.1 19.94,1.1 29.68,3.18 8.86,1.89 17.47,4.8 25.46,9.08 7.62,4.07 14.41,9.41 19.96,16.05 5.64,6.76 9.53,14.54 11.71,23.07 2.58,10.15 3.02,20.53 0.58,30.75 -2.27,9.53 -6.43,18.19 -12.52,25.84 -6.05,7.6 -13.48,13.79 -21.8,18.75 -8.55,5.1 -17.79,8.85 -27.43,11.31 -8.02,2.05 -16.22,3.19 -24.5,3.21 -8.07,0.03 -16.06,-0.99 -23.85,-3.19 -7.85,-2.21 -15.21,-5.72 -21.86,-10.46 -6.73,-4.8 -12.36,-10.83 -16.8,-17.79 -1.48,-2.07 -2.6,-4.37 -3.24,-6.85 -1.03,-4.07 -0.59,-8.24 0.85,-12.15 1.44,-3.91 3.87,-7.23 7.12,-9.82l6.82 -5.41 0.59 -0.37c2.13,-1.39 4.43,-2.51 6.91,-3.14 4.52,-1.15 9.21,-0.72 13.4,1.34 2.66,1.33 5.02,3.13 7.25,5.49l1.69 1.93c1.9,2.26 4.12,3.99 6.6,5.36 2.93,1.62 6.03,2.88 9.27,3.7 3.17,0.81 6.39,1.23 9.66,1.24 2.54,0.02 5.31,-0.12 7.79,-0.76 3.63,-0.92 7.19,-2.51 10.46,-4.31 3.37,-1.83 6.44,-4.13 9.09,-6.89 2.23,-2.32 3.98,-4.91 5.11,-7.93 0.86,-2.32 0.64,-4.86 0.04,-7.22 -0.56,-2.21 -1.49,-4.02 -3.23,-5.5 -2.67,-2.27 -5.73,-3.89 -9.03,-5.03 -4.32,-1.5 -8.89,-2.34 -13.45,-2.8 -5.17,-0.51 -10.38,-0.77 -15.91,-0.69 -8.27,-0.25 -16.15,-1.23 -23.93,-2.82 -8.1,-1.66 -15.97,-4.28 -23.4,-7.92 -7.45,-3.66 -14.23,-8.49 -19.98,-14.47 -6.29,-6.52 -10.57,-14.35 -12.81,-23.12 -2.31,-9.06 -2.95,-18.35 -1.43,-27.61 1.45,-8.84 4.63,-17.1 9.56,-24.58 5.05,-7.69 11.7,-13.93 19.36,-18.98 8.18,-5.39 17.27,-9.11 26.76,-11.53 14.09,-3.6 28.49,-4.09 42.65,-0.61 14.82,3.64 27.42,11.81 37.94,22.69l0.66 0.67 0.56 0.75c1.92,2.59 3.48,5.4 4.28,8.54 0.82,3.24 0.78,6.62 0.01,9.87 -0.88,3.62 -2.74,6.83 -5.38,9.57l-5.41 5.46c-2.88,3.1 -6.51,5.7 -10.89,6.82 -5.31,1.36 -10.84,0.55 -15.56,-2.92 -1.48,-1.18 -2.68,-2.15 -3.64,-3l-7.93 -6.43zm332.19 -89.71l-11.69 2.98c-5.28,1.35 -10.7,1.31 -15.68,-1.09 -5.8,-2.8 -9.3,-8.15 -10.86,-14.24l-1.77 -6.95c-1.55,-6.08 -1.04,-12.44 2.69,-17.67 3.21,-4.52 7.98,-7.15 13.26,-8.5l11.74 -2.99 -10.26 -40.8c-2.75,-10.91 2.63,-20.56 12.92,-24.92l9.98 -4.1 0.98 -0.25c7.03,-1.79 14.27,-0.45 19.45,4.83 3.24,3.28 5.29,7.37 6.42,11.8l10.39 40.72 18.21 -4.65c5.3,-1.35 10.8,-1.08 15.74,1.38 5.79,2.86 9.32,8.18 10.89,14.32l1.58 6.2c1.57,6.15 1.01,12.52 -2.71,17.82 -3.17,4.5 -7.86,7.38 -13.15,8.73l-18.2 4.64 25.7 100.76c0.95,3.71 2.24,8.5 4.02,11.91 0.24,0.44 0.7,1.28 0.63,1.36 2.78,-0.15 5.56,-0.47 8.32,-0.89l6.21 -1.59c5.07,-1.29 10.3,-1.02 15.14,1.02 6.32,2.67 10.4,8.11 12.07,14.67l1.57 6.14c1.85,7.27 0.58,14.76 -4.85,20.18 -3.45,3.46 -7.75,5.66 -12.46,6.86l-5.65 1.44c-6.61,1.68 -13.34,2.95 -20.12,3.65 -7.73,0.81 -15.36,-0.07 -22.56,-3.04 -7.92,-3.24 -14.16,-8.98 -19.09,-15.88 -5.82,-8.14 -9.42,-18.44 -11.88,-28.07l-26.98 -105.78zm403.37 -19.27c1.32,1.95 2.76,3.83 4.33,5.62 4.98,5.7 10.79,10.41 17.48,13.93 6.81,3.58 14.08,5.81 21.7,6.83 7.85,1.06 15.6,0.49 23.26,-1.46 6.6,-1.69 12.83,-4.32 18.61,-7.94 5.54,-3.47 10.43,-7.7 14.53,-12.8 1.46,-1.81 2.9,-3.66 4.35,-5.48 2.64,-3.27 5.74,-6.18 9.6,-7.95l1.18 -0.54 1.26 -0.32c4.72,-1.2 9.47,-0.37 13.73,1.84 2.49,1.28 4.8,2.88 6.92,4.7 2.25,1.96 4.27,4.19 6.01,6.6 2.06,2.87 3.64,6.04 4.51,9.46l0.99 3.87 -1.14 3.83c-1.09,3.64 -2.74,7.06 -4.85,10.21 -1.64,2.45 -3.4,4.84 -5.34,7.07 -7.31,8.44 -15.74,15.74 -25.1,21.82 -9.98,6.49 -21,11.04 -32.53,13.98 -14.73,3.76 -29.75,4.63 -44.78,2.28 -14.38,-2.23 -28.1,-6.94 -40.66,-14.34 -12.54,-7.39 -23.3,-17.01 -32.24,-28.51 -9.34,-12.03 -15.77,-25.65 -19.54,-40.4 -3.75,-14.7 -4.71,-29.74 -2.45,-44.75 2.17,-14.26 6.7,-27.85 13.86,-40.38 7.08,-12.4 16.34,-23.08 27.54,-31.95 11.59,-9.18 24.75,-15.53 39.09,-19.19 13.84,-3.53 28,-4.29 42.09,-1.95 13.68,2.26 26.51,7.04 38.33,14.3 12.03,7.37 22.23,16.93 30.69,28.21 8.99,12 15.19,25.56 18.89,40.06 2.16,8.47 0.71,17.16 -6.11,23.08 -4.12,3.56 -9.11,5.81 -14.35,7.15l-129.86 33.12zm438.64 -235.22c1.53,-1.74 3.13,-3.42 4.79,-5.04 5.21,-5.08 11.04,-9.45 17.3,-13.15 6.62,-3.91 13.78,-6.82 21.24,-8.72 12.16,-3.1 24.65,-3.9 37.07,-1.87 11.8,1.93 22.99,6 33.15,12.31 10.18,6.31 18.83,14.54 25.97,24.13 7.51,10.1 12.74,21.48 15.85,33.66l26.04 102.09c1.51,5.93 1.06,12.04 -2.26,17.32 -3.08,4.93 -7.92,8.1 -13.52,9.53l-7.63 1.95c-6.07,1.55 -12.41,1.02 -17.63,-2.73 -4.5,-3.22 -7.13,-7.97 -8.47,-13.24l-26.13 -102.41c-1.48,-5.47 -3.94,-10.6 -7.52,-15.14 -3.47,-4.39 -7.56,-8.09 -12.4,-10.92 -4.8,-2.8 -10.01,-4.58 -15.51,-5.43 -5.63,-0.86 -11.2,-0.5 -16.72,0.91 -5.56,1.42 -10.64,3.76 -15.25,7.15 -4.57,3.36 -8.5,7.36 -11.61,12.09 -3.02,4.65 -5.03,9.7 -6.14,15.14 -1.15,5.56 -1.06,11.17 -0.01,16.39l26.64 104.41c3.14,12.29 -3.36,22.89 -15.59,26.01l-7.63 1.94c-12.27,3.13 -23.17,-2.93 -26.33,-15.31l-43.51 -170.57c-1.29,-5.03 -0.85,-10.19 1.53,-14.82 2.7,-5.25 7.52,-8.73 13.19,-10.17l11.05 -2.82c4.66,-1.19 9.44,-0.63 13.67,1.67 2.56,1.4 4.71,3.33 6.37,5.64zm427.67 -69.39l-11.69 2.98c-5.28,1.34 -10.7,1.31 -15.68,-1.1 -5.8,-2.79 -9.3,-8.15 -10.86,-14.23l-1.77 -6.95c-1.55,-6.08 -1.04,-12.45 2.69,-17.67 3.21,-4.53 7.98,-7.15 13.26,-8.5l11.73 -2.99 -10.25 -40.8c-2.75,-10.91 2.63,-20.56 12.92,-24.92l9.98 -4.1 0.97 -0.25c7.04,-1.79 14.28,-0.46 19.46,4.82 3.24,3.29 5.29,7.38 6.42,11.81l10.39 40.71 18.21 -4.64c5.29,-1.35 10.8,-1.08 15.74,1.38 5.79,2.86 9.32,8.18 10.89,14.32l1.58 6.2c1.57,6.15 1.01,12.52 -2.71,17.82 -3.17,4.5 -7.86,7.38 -13.15,8.72l-18.2 4.65 25.7 100.75c0.95,3.72 2.23,8.51 4.02,11.91 0.24,0.45 0.7,1.28 0.62,1.37 2.79,-0.15 5.57,-0.47 8.32,-0.89l6.21 -1.59c5.08,-1.29 10.31,-1.03 15.15,1.02 6.32,2.67 10.39,8.11 12.07,14.67l1.56 6.14c1.86,7.27 0.59,14.76 -4.84,20.18 -3.45,3.46 -7.76,5.65 -12.47,6.86l-5.64 1.44c-6.61,1.68 -13.34,2.95 -20.13,3.65 -7.72,0.81 -15.36,-0.07 -22.56,-3.04 -7.91,-3.24 -14.16,-8.99 -19.08,-15.88 -5.82,-8.14 -9.42,-18.45 -11.88,-28.07l-26.98 -105.78zm403.38 -19.27c1.32,1.95 2.75,3.82 4.33,5.61 4.97,5.7 10.78,10.41 17.47,13.94 6.81,3.58 14.08,5.8 21.7,6.83 7.85,1.06 15.6,0.49 23.26,-1.47 6.6,-1.68 12.83,-4.32 18.61,-7.93 5.54,-3.47 10.43,-7.71 14.53,-12.8 1.46,-1.82 2.9,-3.66 4.35,-5.48 2.64,-3.27 5.74,-6.18 9.6,-7.95l1.18 -0.54 1.27 -0.32c4.71,-1.2 9.46,-0.38 13.72,1.83 2.49,1.29 4.81,2.88 6.92,4.71 2.25,1.96 4.27,4.18 6.02,6.59 2.06,2.87 3.63,6.05 4.5,9.46l0.99 3.88 -1.14 3.83c-1.09,3.64 -2.74,7.05 -4.85,10.21 -1.63,2.45 -3.4,4.84 -5.34,7.07 -7.31,8.43 -15.74,15.73 -25.09,21.82 -9.99,6.49 -21.01,11.04 -32.53,13.98 -14.74,3.76 -29.76,4.62 -44.79,2.28 -14.38,-2.23 -28.09,-6.95 -40.66,-14.35 -12.54,-7.39 -23.3,-17.01 -32.24,-28.51 -9.34,-12.02 -15.77,-25.65 -19.53,-40.4 -3.75,-14.7 -4.72,-29.73 -2.45,-44.74 2.16,-14.27 6.69,-27.86 13.86,-40.39 7.08,-12.4 16.33,-23.08 27.53,-31.94 11.6,-9.19 24.75,-15.53 39.09,-19.19 13.84,-3.53 28,-4.29 42.09,-1.96 13.69,2.26 26.52,7.05 38.34,14.3 12.02,7.37 22.22,16.94 30.68,28.21 9,12.01 15.19,25.56 18.89,40.07 2.16,8.47 0.71,17.16 -6.11,23.08 -4.12,3.55 -9.11,5.81 -14.35,7.15l-129.85 33.12zm-3537.66 880.45c-2.1,-8.23 -5.42,-16 -10.2,-23.03 -4.44,-6.5 -9.84,-12.1 -16.31,-16.61 -6.08,-4.24 -12.78,-7 -20.04,-8.44 -7.5,-1.49 -15.02,-1.05 -22.42,0.84 -7.49,1.91 -14.45,5.13 -20.41,10.1 -5.77,4.8 -10.44,10.51 -13.89,17.17 -3.61,6.99 -5.69,14.51 -6.56,22.32 -0.93,8.42 -0.17,16.78 1.92,24.98 2.09,8.22 5.41,15.88 10.27,22.84 4.5,6.42 9.97,11.85 16.48,16.2 6.2,4.15 13.07,6.78 20.38,8.19 7.58,1.44 15.18,0.99 22.64,-0.92 7.39,-1.88 14.18,-5.07 20.1,-9.89 5.68,-4.61 10.25,-10.16 13.62,-16.65 3.55,-6.85 5.62,-14.2 6.42,-21.88 0.91,-8.51 0.11,-16.92 -2,-25.22zm2360.16 -629.7c-0.99,-1.34 -2.04,-2.65 -3.14,-3.92 -4.67,-5.33 -10.05,-9.76 -16.26,-13.15 -6.15,-3.35 -12.72,-5.47 -19.65,-6.48 -6.95,-1.02 -13.86,-0.54 -20.65,1.19 -6.87,1.76 -13.19,4.67 -18.89,8.87 -5.69,4.2 -10.49,9.19 -14.38,15.09 -4.02,6.11 -6.88,12.75 -8.69,19.81 -0.4,1.59 -0.74,3.18 -1.02,4.79l102.68 -26.2zm1269.69 -323.88c-1,-1.35 -2.04,-2.66 -3.15,-3.93 -4.66,-5.32 -10.04,-9.76 -16.26,-13.14 -6.15,-3.35 -12.72,-5.47 -19.65,-6.48 -6.95,-1.03 -13.85,-0.54 -20.65,1.19 -6.87,1.75 -13.18,4.66 -18.89,8.87 -5.69,4.2 -10.49,9.19 -14.38,15.09 -4.01,6.1 -6.87,12.75 -8.69,19.81 -0.4,1.59 -0.74,3.18 -1.02,4.78l102.69 -26.19z"/>
     <path class="fil13" d="M7731.66 8748.01c0.54,2.11 0.27,3.9 -0.79,5.41 -1.07,1.54 -2.7,2.61 -5.07,3.22l-5.89 1.5c-4.9,1.25 -8,-0.59 -9.27,-5.56l-8.42 -32.2c-0.47,7.51 -2.17,14.55 -5.13,21.06 -2.97,6.5 -6.88,12.39 -11.82,17.61 -4.94,5.22 -10.79,9.76 -17.48,13.58 -6.69,3.82 -14.07,6.76 -22.13,8.82 -12.65,3.23 -25.07,3.74 -37.25,1.57 -12.19,-2.17 -23.34,-6.53 -33.52,-13.06 -10.21,-6.57 -19.1,-15.01 -26.63,-25.38 -7.53,-10.36 -12.97,-22.12 -16.34,-35.33 -3.36,-13.15 -4.21,-26.08 -2.66,-38.89 1.57,-12.75 5.26,-24.46 11.03,-35.25 5.78,-10.73 13.53,-19.97 23.19,-27.72 9.65,-7.74 20.86,-13.24 33.69,-16.51 8.2,-2.09 16.28,-3.04 24.2,-2.81 7.92,0.23 15.31,1.51 22.31,3.83 6.93,2.31 13.19,5.61 18.75,9.8 5.57,4.21 10.09,9.26 13.57,15.11l-7.38 -32.01c-0.5,-2.51 -0.38,-4.6 0.42,-6.18 0.71,-1.57 2.35,-2.65 4.83,-3.29l5.34 -1.36c2.23,-0.57 4.19,-0.4 5.95,0.54 1.76,0.93 2.93,2.69 3.56,5.16l42.94 168.34zm-42.65 -78.64c-2.59,-10.17 -6.66,-19.37 -12.26,-27.59 -5.6,-8.21 -12.26,-14.96 -19.98,-20.33 -7.63,-5.32 -16.14,-8.9 -25.47,-10.75 -9.32,-1.85 -18.95,-1.5 -28.81,1.02 -10.05,2.56 -18.79,6.89 -26.08,12.99 -7.36,6.1 -13.18,13.33 -17.47,21.63 -4.29,8.3 -6.99,17.44 -8.09,27.36 -1.09,9.92 -0.32,19.97 2.28,30.14 2.61,10.24 6.73,19.36 12.44,27.55 5.7,8.12 12.48,14.71 20.28,19.93 7.73,5.16 16.33,8.58 25.7,10.35 9.31,1.79 18.99,1.43 28.91,-1.1 9.74,-2.48 18.31,-6.71 25.64,-12.68 7.33,-5.97 13.12,-13.06 17.32,-21.2 4.26,-8.16 6.92,-17.15 7.97,-27 1.04,-9.91 0.27,-19.95 -2.38,-30.32zm397.75 -159.92c-5.61,-5.38 -12.28,-9.29 -20.01,-11.61 -7.74,-2.38 -15.9,-2.49 -24.46,-0.3 -5.33,1.36 -10.04,3.35 -14.12,5.98 -4.09,2.63 -7.4,5.73 -9.92,9.27 -2.53,3.55 -4.18,7.48 -5.01,11.72 -0.84,4.23 -0.71,8.63 0.48,13.29 1.14,4.46 3.31,8.07 6.48,10.9 3.17,2.82 6.76,5.01 10.86,6.54 4.09,1.53 8.46,2.6 13.02,3.15 4.57,0.56 8.81,0.86 12.77,0.91l5.97 0.05c9.69,0.18 18.65,1.13 26.83,2.87 8.17,1.75 15.38,4.34 21.64,7.69 6.28,3.36 11.51,7.57 15.7,12.58 4.18,5.02 7.11,10.81 8.79,17.38 2.15,8.43 2.33,16.38 0.54,23.84 -1.78,7.52 -5.03,14.23 -9.78,20.2 -4.75,5.98 -10.72,11.06 -17.89,15.33 -7.17,4.28 -15.05,7.54 -23.62,9.73 -7.06,1.8 -14.03,2.72 -20.96,2.76 -6.93,-0.01 -13.55,-0.82 -19.89,-2.64 -6.34,-1.76 -12.14,-4.58 -17.39,-8.32 -5.25,-3.75 -9.69,-8.49 -13.27,-14.19 -0.59,-0.78 -0.98,-1.53 -1.17,-2.27 -0.26,-1 -0.1,-2.23 0.41,-3.61 0.5,-1.39 1.33,-2.52 2.54,-3.48l6.27 -4.97c1.01,-0.66 1.9,-1.08 2.64,-1.27 1.24,-0.32 2.39,-0.22 3.45,0.3 1.05,0.53 2.03,1.27 2.94,2.23l1.41 1.62c2.93,3.48 6.5,6.34 10.58,8.6 4.08,2.26 8.34,3.94 12.73,5.07 4.44,1.11 8.81,1.65 13.11,1.68 4.3,0.02 8.1,-0.35 11.45,-1.2 4.46,-1.14 9.07,-3.05 13.82,-5.64 4.75,-2.61 8.97,-5.79 12.56,-9.54 3.66,-3.79 6.41,-8.06 8.22,-12.87 1.8,-4.83 1.97,-10.15 0.51,-15.86 -1.36,-5.33 -3.98,-9.62 -7.86,-12.93 -3.88,-3.3 -8.42,-5.84 -13.65,-7.68 -5.21,-1.77 -10.79,-2.92 -16.75,-3.52 -5.97,-0.59 -11.71,-0.84 -17.24,-0.75 -6.93,-0.21 -13.95,-1.06 -21.13,-2.53 -7.17,-1.48 -13.83,-3.75 -19.94,-6.75 -6.11,-2.99 -11.47,-6.85 -15.96,-11.52 -4.49,-4.66 -7.56,-10.23 -9.21,-16.67 -1.93,-7.57 -2.32,-14.8 -1.17,-21.7 1.13,-6.96 3.61,-13.28 7.37,-18.99 3.77,-5.72 8.85,-10.65 15.24,-14.86 6.39,-4.2 13.83,-7.42 22.39,-9.6 12.4,-3.17 24.31,-3.37 35.65,-0.58 11.35,2.78 21.68,9.07 31.01,18.71 1,1.34 1.62,2.5 1.88,3.49 0.22,0.87 0.2,1.86 -0.05,2.91 -0.26,1.07 -0.81,2 -1.65,2.87l-5.52 5.57c-1.44,1.56 -2.8,2.51 -4.03,2.82 -1.31,0.33 -2.4,0.21 -3.2,-0.38 -0.75,-0.6 -1.83,-1.44 -3.11,-2.57l-1.49 -1.21 0.19 -0.05zm404.87 -103.28c-5.6,-5.38 -12.28,-9.29 -20.01,-11.61 -7.74,-2.38 -15.9,-2.48 -24.45,-0.3 -5.33,1.36 -10.05,3.36 -14.13,5.98 -4.09,2.63 -7.4,5.73 -9.92,9.27 -2.53,3.56 -4.18,7.48 -5.01,11.72 -0.84,4.24 -0.7,8.63 0.49,13.29 1.13,4.46 3.31,8.07 6.48,10.9 3.16,2.82 6.75,5.01 10.84,6.54 4.1,1.53 8.47,2.6 13.03,3.15 4.57,0.56 8.81,0.86 12.78,0.91l5.97 0.05c9.68,0.18 18.65,1.13 26.82,2.87 8.18,1.75 15.38,4.34 21.65,7.69 6.27,3.36 11.51,7.57 15.69,12.58 4.18,5.02 7.12,10.81 8.8,17.38 2.15,8.44 2.32,16.38 0.53,23.84 -1.78,7.52 -5.03,14.23 -9.78,20.21 -4.75,5.97 -10.72,11.06 -17.88,15.32 -7.18,4.28 -15.06,7.54 -23.63,9.73 -7.06,1.8 -14.03,2.72 -20.95,2.77 -6.95,-0.01 -13.56,-0.83 -19.9,-2.65 -6.33,-1.76 -12.13,-4.57 -17.39,-8.32 -5.24,-3.75 -9.69,-8.49 -13.26,-14.19 -0.6,-0.78 -0.99,-1.53 -1.18,-2.27 -0.25,-1 -0.1,-2.23 0.41,-3.6 0.5,-1.4 1.33,-2.53 2.54,-3.49l6.27 -4.97c1.01,-0.66 1.9,-1.08 2.65,-1.27 1.23,-0.32 2.38,-0.22 3.44,0.3 1.06,0.53 2.04,1.27 2.95,2.23l1.4 1.62c2.94,3.48 6.51,6.34 10.59,8.6 4.07,2.26 8.33,3.95 12.72,5.07 4.45,1.11 8.81,1.66 13.11,1.69 4.3,0.01 8.11,-0.36 11.45,-1.21 4.47,-1.14 9.07,-3.05 13.82,-5.64 4.75,-2.6 8.96,-5.79 12.56,-9.54 3.66,-3.79 6.41,-8.06 8.22,-12.87 1.81,-4.83 1.97,-10.15 0.51,-15.86 -1.36,-5.33 -3.97,-9.62 -7.85,-12.92 -3.89,-3.31 -8.43,-5.85 -13.66,-7.69 -5.2,-1.77 -10.79,-2.92 -16.75,-3.51 -5.96,-0.6 -11.7,-0.85 -17.24,-0.76 -6.92,-0.21 -13.95,-1.06 -21.13,-2.53 -7.17,-1.48 -13.83,-3.75 -19.94,-6.75 -6.12,-2.99 -11.46,-6.85 -15.95,-11.51 -4.5,-4.67 -7.57,-10.24 -9.22,-16.68 -1.93,-7.57 -2.32,-14.8 -1.17,-21.7 1.13,-6.96 3.62,-13.28 7.38,-18.99 3.76,-5.72 8.85,-10.65 15.24,-14.85 6.38,-4.21 13.82,-7.43 22.38,-9.61 12.4,-3.17 24.32,-3.37 35.66,-0.58 11.34,2.78 21.67,9.07 31,18.71 1,1.34 1.62,2.5 1.88,3.49 0.22,0.87 0.21,1.86 -0.04,2.91 -0.26,1.07 -0.82,2 -1.66,2.87l-5.51 5.57c-1.45,1.56 -2.8,2.51 -4.03,2.82 -1.31,0.33 -2.4,0.21 -3.2,-0.38 -0.76,-0.6 -1.83,-1.44 -3.12,-2.57l-1.48 -1.21 0.18 -0.05zm310.26 -111.31c-0.54,-2.11 -0.28,-3.96 0.71,-5.53 0.98,-1.58 2.56,-2.64 4.67,-3.18l6.76 -1.73c2.23,-0.57 4.13,-0.39 5.62,0.56 1.5,0.93 2.55,2.45 3.09,4.56l43.05 168.77c1.14,4.47 -0.59,7.28 -5.24,8.47l-6.58 1.68c-4.89,1.25 -7.89,-0.36 -9.03,-4.83l-43.05 -168.77zm-21.29 -60.17c-1.16,-4.53 -0.52,-8.79 1.82,-12.81 2.36,-3.97 5.73,-6.56 10.19,-7.7 4.47,-1.14 8.72,-0.5 12.69,1.86 3.98,2.41 6.52,5.86 7.68,10.39 1.15,4.53 0.58,8.77 -1.76,12.8 -2.36,3.97 -5.79,6.57 -10.26,7.71 -4.45,1.14 -8.65,0.49 -12.62,-1.87 -3.99,-2.42 -6.59,-5.85 -7.74,-10.38zm442.79 -15.18c-5.6,-5.38 -12.28,-9.29 -20,-11.62 -7.75,-2.37 -15.9,-2.48 -24.46,-0.3 -5.33,1.36 -10.05,3.36 -14.13,5.99 -4.09,2.63 -7.4,5.72 -9.92,9.27 -2.53,3.55 -4.17,7.47 -5.01,11.71 -0.84,4.24 -0.7,8.64 0.49,13.29 1.13,4.46 3.3,8.07 6.48,10.9 3.16,2.83 6.76,5.02 10.85,6.55 4.09,1.53 8.46,2.6 13.02,3.15 4.57,0.56 8.81,0.85 12.78,0.9l5.97 0.06c9.69,0.18 18.64,1.13 26.82,2.87 8.18,1.75 15.38,4.34 21.65,7.68 6.27,3.37 11.51,7.58 15.69,12.59 4.19,5.01 7.12,10.8 8.8,17.38 2.15,8.43 2.32,16.38 0.53,23.83 -1.78,7.53 -5.03,14.24 -9.78,20.21 -4.75,5.97 -10.72,11.06 -17.88,15.33 -7.18,4.27 -15.06,7.54 -23.62,9.72 -7.07,1.81 -14.04,2.72 -20.96,2.77 -6.94,-0.01 -13.56,-0.83 -19.9,-2.65 -6.34,-1.75 -12.14,-4.57 -17.39,-8.31 -5.24,-3.75 -9.69,-8.5 -13.26,-14.19 -0.6,-0.78 -0.99,-1.54 -1.18,-2.28 -0.25,-0.99 -0.1,-2.22 0.41,-3.6 0.51,-1.39 1.33,-2.53 2.55,-3.49l6.26 -4.97c1.02,-0.65 1.9,-1.08 2.65,-1.27 1.23,-0.31 2.39,-0.21 3.45,0.3 1.05,0.53 2.03,1.27 2.94,2.23l1.41 1.62c2.93,3.49 6.49,6.34 10.57,8.61 4.09,2.26 8.35,3.94 12.73,5.07 4.45,1.11 8.81,1.65 13.11,1.68 4.3,0.02 8.11,-0.36 11.45,-1.21 4.47,-1.14 9.07,-3.04 13.83,-5.64 4.75,-2.6 8.96,-5.79 12.55,-9.54 3.67,-3.78 6.41,-8.05 8.22,-12.86 1.8,-4.83 1.97,-10.15 0.52,-15.87 -1.36,-5.33 -3.98,-9.61 -7.86,-12.92 -3.88,-3.3 -8.43,-5.84 -13.66,-7.68 -5.21,-1.78 -10.79,-2.93 -16.75,-3.52 -5.96,-0.6 -11.71,-0.84 -17.24,-0.76 -6.92,-0.21 -13.94,-1.06 -21.12,-2.53 -7.18,-1.48 -13.84,-3.74 -19.95,-6.74 -6.11,-2.99 -11.46,-6.86 -15.95,-11.52 -4.5,-4.67 -7.57,-10.23 -9.21,-16.67 -1.94,-7.57 -2.32,-14.81 -1.18,-21.71 1.13,-6.96 3.62,-13.27 7.37,-18.99 3.77,-5.71 8.85,-10.64 15.25,-14.85 6.38,-4.21 13.82,-7.42 22.38,-9.61 12.41,-3.16 24.32,-3.36 35.66,-0.57 11.34,2.78 21.67,9.07 31.01,18.71 0.99,1.33 1.62,2.49 1.87,3.49 0.22,0.86 0.21,1.85 -0.05,2.91 -0.25,1.06 -0.81,2 -1.65,2.87l-5.51 5.57c-1.45,1.56 -2.8,2.5 -4.04,2.82 -1.3,0.33 -2.39,0.21 -3.2,-0.38 -0.75,-0.6 -1.82,-1.45 -3.1,-2.58l-1.5 -1.21 0.19 -0.04zm414.61 28.93c2.11,-0.53 4.12,-0.45 5.96,0.33 1.86,0.79 3.07,2.45 3.71,4.94l1.56 6.14c0.73,2.85 0.36,4.99 -1.07,6.41 -1.42,1.43 -3.34,2.44 -5.82,3.07l-5.64 1.44c-6.33,1.61 -12.33,2.69 -18.05,3.29 -5.68,0.59 -10.86,-0.07 -15.59,-2.03 -4.8,-1.95 -9.04,-5.63 -12.83,-10.94 -3.8,-5.3 -7.03,-13.07 -9.63,-23.23l-30.55 -119.78 -25.68 6.55c-2.48,0.63 -4.4,0.59 -5.84,-0.1 -1.43,-0.68 -2.5,-2.33 -3.14,-4.81l-1.77 -6.95c-0.63,-2.48 -0.47,-4.43 0.45,-5.73 0.93,-1.29 2.6,-2.25 5.08,-2.88l25.68 -6.55 -13.77 -54.75c-0.95,-3.72 0.55,-6.42 4.48,-8.08l8.97 -3.68c2.48,-0.63 4.35,-0.31 5.6,0.96 1.24,1.26 2.15,3.01 2.72,5.25l13.95 54.7 32.19 -8.21c2.24,-0.57 4.18,-0.47 5.76,0.31 1.59,0.79 2.69,2.49 3.33,4.97l1.58 6.2c0.63,2.48 0.48,4.51 -0.54,5.95 -1.01,1.45 -2.67,2.47 -4.91,3.04l-32.19 8.21 29.27 114.74c1.68,6.58 3.43,11.61 5.23,15.05 1.81,3.44 3.87,5.82 6.22,7.27 2.33,1.39 4.99,1.97 7.92,1.81 2.93,-0.15 6.41,-0.51 10.48,-1.15l6.88 -1.76zm375.34 -93.16c8.19,-2.09 15.75,-5.34 22.7,-9.7 6.95,-4.35 12.99,-9.65 18.12,-15.98 1.29,-1.65 2.75,-3.47 4.34,-5.47 1.62,-1.99 3.07,-3.29 4.37,-3.88 0.99,-0.26 2.17,-0.03 3.54,0.67 1.37,0.71 2.73,1.63 4.08,2.8 1.36,1.17 2.64,2.56 3.77,4.13 1.12,1.55 1.85,3.09 2.22,4.57 -0.64,2.16 -1.63,4.26 -3.01,6.33 -1.39,2.07 -2.83,3.96 -4.24,5.64 -6.45,7.38 -13.8,13.75 -22.07,19.17 -8.28,5.34 -17.68,9.4 -28.23,12.09 -13.15,3.35 -26.13,4.02 -38.99,2.01 -12.86,-1.99 -24.75,-6.16 -35.56,-12.52 -10.8,-6.37 -20.19,-14.67 -28.16,-24.93 -7.97,-10.25 -13.59,-21.96 -16.95,-35.11 -3.35,-13.15 -4.1,-26.17 -2.16,-39.02 1.95,-12.85 5.94,-24.64 12.11,-35.39 6.11,-10.75 14.12,-19.99 23.97,-27.79 9.83,-7.78 21.04,-13.29 33.69,-16.51 12.17,-3.11 24.24,-3.68 36.17,-1.7 11.94,1.98 22.97,6.1 33.15,12.35 10.18,6.25 19.07,14.43 26.68,24.58 7.61,10.14 13.1,21.82 16.45,34.97 1.02,3.97 0.48,6.82 -1.57,8.59 -2.05,1.78 -4.87,3.16 -8.47,4.08l-147 37.5c3.18,9.36 7.92,17.6 14.17,24.72 6.25,7.2 13.47,12.95 21.62,17.21 8.18,4.33 17.01,7.09 26.52,8.37 9.5,1.27 19.06,0.68 28.74,-1.78zm43.21 -102.58c-3.25,-8.55 -7.77,-16.19 -13.64,-22.88 -5.89,-6.76 -12.62,-12.18 -20.22,-16.32 -7.59,-4.14 -15.74,-6.82 -24.46,-8.1 -8.71,-1.28 -17.49,-0.75 -26.31,1.5 -8.81,2.24 -16.76,5.99 -23.89,11.24 -7.11,5.25 -13.06,11.46 -17.87,18.77 -4.8,7.3 -8.37,15.34 -10.61,24.18 -2.25,8.76 -2.92,17.78 -2.01,27.07l139.01 -35.46zm358.36 10.44c1.14,4.47 -0.59,7.29 -5.18,8.46l-7.63 1.95c-4.71,1.2 -7.64,-0.43 -8.78,-4.9l-43.51 -170.56c-0.44,-1.75 -0.31,-3.29 0.4,-4.67 0.71,-1.37 2.06,-2.3 3.91,-2.78l11.05 -2.81c1.17,-0.3 2.2,-0.18 3.19,0.36 1,0.55 1.75,1.42 2.19,2.62l7.01 25.16c1.92,-5.44 4.49,-10.66 7.69,-15.7 3.21,-5.04 6.99,-9.64 11.27,-13.83 4.34,-4.22 9.21,-7.91 14.56,-11.05 5.27,-3.13 11.13,-5.55 17.46,-7.16 10.61,-2.71 21.03,-3.26 31.17,-1.62 10.07,1.66 19.4,5.1 27.86,10.33 8.41,5.25 15.78,12.1 22.01,20.49 6.23,8.39 10.72,17.93 13.44,28.61l26.04 102.09c0.63,2.48 0.49,4.5 -0.49,6.08 -0.99,1.56 -2.63,2.65 -4.87,3.22l-7.62 1.94c-2.48,0.63 -4.38,0.45 -5.67,-0.47 -1.29,-0.92 -2.25,-2.59 -2.88,-5.08l-26.16 -102.52c-2.08,-7.66 -5.46,-14.46 -10.16,-20.4 -4.68,-5.95 -10.14,-10.76 -16.43,-14.43 -6.29,-3.69 -13.18,-6.1 -20.6,-7.24 -7.43,-1.15 -14.93,-0.75 -22.49,1.18 -7.45,1.9 -14.18,5.06 -20.23,9.51 -6.07,4.46 -11.13,9.72 -15.13,15.83 -3.99,6.1 -6.71,12.8 -8.21,20.12 -1.5,7.32 -1.49,14.85 0.07,22.52l26.72 104.75zm492.77 -138.58c2.11,-0.53 4.11,-0.45 5.96,0.32 1.86,0.79 3.07,2.46 3.7,4.95l1.57 6.14c0.73,2.85 0.35,4.99 -1.07,6.41 -1.42,1.43 -3.34,2.44 -5.82,3.07l-5.65 1.44c-6.32,1.61 -12.33,2.69 -18.05,3.29 -5.67,0.59 -10.86,-0.07 -15.58,-2.03 -4.8,-1.95 -9.04,-5.63 -12.83,-10.94 -3.8,-5.31 -7.04,-13.07 -9.63,-23.24l-30.56 -119.77 -25.67 6.55c-2.49,0.63 -4.41,0.59 -5.84,-0.1 -1.43,-0.69 -2.51,-2.33 -3.14,-4.81l-1.78 -6.95c-0.63,-2.48 -0.46,-4.43 0.46,-5.73 0.92,-1.29 2.59,-2.25 5.08,-2.88l25.67 -6.55 -13.77 -54.75c-0.95,-3.72 0.56,-6.42 4.48,-8.08l8.97 -3.68c2.49,-0.63 4.35,-0.31 5.6,0.96 1.24,1.26 2.15,3.01 2.72,5.25l13.96 54.7 32.19 -8.22c2.24,-0.56 4.18,-0.46 5.76,0.32 1.59,0.79 2.69,2.49 3.32,4.97l1.58 6.2c0.63,2.48 0.49,4.5 -0.53,5.95 -1.01,1.45 -2.67,2.46 -4.91,3.03l-32.19 8.22 29.27 114.74c1.68,6.58 3.43,11.61 5.23,15.05 1.81,3.44 3.86,5.82 6.22,7.27 2.33,1.39 4.99,1.97 7.92,1.81 2.93,-0.16 6.41,-0.51 10.47,-1.15l6.89 -1.76zm375.34 -93.17c8.19,-2.09 15.75,-5.33 22.7,-9.69 6.95,-4.35 12.99,-9.65 18.12,-15.98 1.3,-1.66 2.75,-3.47 4.35,-5.47 1.61,-1.99 3.06,-3.29 4.37,-3.89 0.98,-0.25 2.16,-0.02 3.54,0.68 1.36,0.71 2.72,1.62 4.08,2.79 1.35,1.18 2.63,2.57 3.76,4.14 1.13,1.55 1.85,3.09 2.23,4.57 -0.65,2.15 -1.64,4.25 -3.02,6.33 -1.38,2.07 -2.82,3.95 -4.24,5.63 -6.44,7.39 -13.8,13.76 -22.06,19.17 -8.28,5.35 -17.68,9.41 -28.23,12.1 -13.16,3.35 -26.13,4.01 -39,2.01 -12.85,-2 -24.75,-6.16 -35.55,-12.52 -10.81,-6.37 -20.2,-14.67 -28.17,-24.93 -7.96,-10.25 -13.59,-21.97 -16.95,-35.11 -3.35,-13.15 -4.1,-26.17 -2.16,-39.02 1.95,-12.85 5.94,-24.64 12.12,-35.4 6.11,-10.74 14.12,-19.98 23.96,-27.78 9.83,-7.79 21.05,-13.29 33.7,-16.52 12.15,-3.1 24.24,-3.67 36.16,-1.7 11.94,1.98 22.97,6.11 33.15,12.36 10.19,6.25 19.07,14.42 26.68,24.58 7.61,10.14 13.1,21.82 16.45,34.97 1.02,3.97 0.49,6.82 -1.57,8.59 -2.06,1.78 -4.87,3.16 -8.47,4.08l-147 37.5c3.18,9.36 7.92,17.6 14.17,24.72 6.26,7.2 13.47,12.94 21.63,17.21 8.17,4.33 17,7.09 26.51,8.37 9.51,1.27 19.06,0.68 28.74,-1.79zm43.21 -102.57c-3.25,-8.56 -7.77,-16.2 -13.64,-22.89 -5.89,-6.76 -12.62,-12.18 -20.21,-16.31 -7.6,-4.14 -15.75,-6.83 -24.47,-8.1 -8.71,-1.28 -17.49,-0.75 -26.3,1.49 -8.81,2.25 -16.77,5.99 -23.9,11.25 -7.11,5.25 -13.05,11.46 -17.87,18.76 -4.8,7.3 -8.36,15.35 -10.6,24.18 -2.25,8.76 -2.93,17.79 -2.02,27.07l139.01 -35.45z"/>
    </g>
   </g>
  </g>
 </g>
</svg>
