<?xml version="1.0" encoding="UTF-8"?>
<!DOCTYPE svg PUBLIC "-//W3C//DTD SVG 1.0//EN" "http://www.w3.org/TR/2001/REC-SVG-20010904/DTD/svg10.dtd">
<!-- Creator: CorelDRAW 2021 (64 Bit) -->
<svg xmlns="http://www.w3.org/2000/svg" xml:space="preserve" width="210mm" height="297mm" version="1.0" style="shape-rendering:geometricPrecision; text-rendering:geometricPrecision; image-rendering:optimizeQuality; fill-rule:evenodd; clip-rule:evenodd"
viewBox="0 0 21000 29700"
 xmlns:xlink="http://www.w3.org/1999/xlink"
 xmlns:xodm="http://www.corel.com/coreldraw/odm/2003">
 <defs>
  <style type="text/css">
   <![CDATA[
    .fil0 {fill:none}
    .fil1 {fill:black}
    .fil2 {fill:black;fill-rule:nonzero}
   ]]>
  </style>
 </defs>
 <g id="Camada_x0020_1">
  <metadata id="CorelCorpID_0Corel-Layer"/>
  <rect class="fil0" x="-7.13" y="0.53" width="21000" height="29700"/>
  <g id="_1844172772272">
   <path class="fil1" d="M18922.74 2371.94c-87.06,43.42 -213.83,-18.44 -300.8,24.97 -26.35,27.92 -6.12,176.67 -8.08,226.02 -4.02,100.64 -60.66,69.82 -152.05,88.27l-14.74 143.87 -147.49 14.88c-23.59,128.06 21.97,142.75 -76.83,154.23 -38.95,4.52 -72.72,-7.77 -85.01,38.02 -39.57,147.8 67.05,121.58 -252.15,121.58 -198.59,0 89.79,-181.84 -227.22,-154.24 -6.79,45.61 -5.5,102.96 -5.09,154.24 1.43,173.09 8.39,162.5 -192.52,159.65 -109.13,-1.57 -127.22,-9.47 -127.22,90.18 0,131.37 179.79,41.76 310.49,79.2l15.14 143.83c145.84,26.84 140.75,-23.37 154.02,114.03 5.63,58.2 28.14,52.62 84.91,52.62 119.31,0 58.56,-55.74 82.1,-155.89 112.74,-12.82 152.72,20.41 152.72,-96.39 0,-124.8 -149.37,-46.72 -312.54,-72.86 -26.4,-194.21 22.06,-154.55 202.61,-154.46 85.14,0 189.71,9.56 264.48,-7.14l12.46 -123.87c26.98,-90.49 284,43.11 308.84,-68.88l9.11 -114.52 309.14 -1.12c14.57,154.64 13.31,315.44 -0.49,470.17l-306.87 0.81c-32.38,-144.68 75.58,-183.32 -315.39,-150.8l-6.21 146.24 145.66 14.56 14.83 147.5c145.84,26.84 140.7,-23.37 154.01,114.03 5.68,58.2 28.14,52.62 84.92,52.62 119.3,0 58.56,-55.74 82.1,-155.89l145.61 0.36 7.1 240.49c-0.44,108.36 -51.94,74.91 -247.32,74.91 -168.89,0 19.56,-159.87 -137.4,-159.87 -301.06,0 -237.63,-32.83 -258.76,152.68 -195.78,25.9 -136.46,5.89 -161.21,-147.36 -207.48,-19.97 -154.55,8.75 -154.55,242.01 0,95.63 34.53,73.88 124.58,72.67 231.07,-3.08 168.18,-17.95 202.21,150.49l143.88 14.74 14.83 147.49 238.93 6.75c82.99,-0.36 74.9,-19.17 74.9,-92.38 0,-104.43 -57.3,-57.57 -152.63,-72.85 -28.27,-207.97 28.64,-154.46 240.09,-154.46 143.74,0 36.01,178.67 81.61,307.76 114.44,28.32 340.41,20.1 462.09,5.58l11.97 -133.87 68.16 -20.41c26.94,-2.46 54.1,-0.09 81.03,-3.08 20.33,-87.77 -25.33,-148.52 81.57,-156.56 31.8,-2.41 50.47,0.04 80.08,-4.74l6.84 -103.76c16.7,-93.49 186,-50.83 350.69,-50.83 58.51,0 116.94,-0.23 175.41,0.53 94.74,1.3 111.84,8.85 111.84,-87.95 0,-111.31 -85.36,-72.45 -312.22,-72.45 -262.43,0 -327.24,45.03 -327.24,-89.91 0,-103.99 59.32,-58.56 150.71,-77.01l1.61 -146.02c-125.83,-23.94 -141.06,22.42 -152.59,-76.83 -4.96,-42.52 9.74,-71.42 -37.7,-85.27 -82.14,-23.9 -194.53,3.39 -276.45,-10.01 -26.48,-162.14 37.17,-165.36 -161.52,-149.01 -12.28,114.22 20.82,154.46 -96.12,154.46 -100.1,0 -67.4,-76.83 -67.4,-247.32 0,-184.44 319.68,36.4 319.68,-137.4l0 -349.71c0,-73.56 -26.57,-64.94 -89.91,-64.94 -131.46,0 -41.68,179.65 -79.24,310.44 -128.65,24.88 -264.75,9.65 -395.4,9.25 -108.77,-0.32 -74.96,-48.92 -74.96,-254.75 0,-124.22 170.9,-39.97 314.47,-72.09l6.83 -102.11c21.93,-124.67 158.35,41.14 158.35,-138.07 0,-106.44 -64.91,-72.45 -254.79,-72.45 -111.53,0 -40.69,69.55 -74.5,147.4zm180.99 1775.86l-6.16 146.02c82.99,14.97 60.43,12.51 147.58,1.48l0.4 -143.79 -141.82 -3.71zm452.62 -180.05c31.44,-38.77 23.14,-496.22 -3.4,-453.07l-93.26 -11.7c-95.64,0.76 -293.07,-8.8 -358.28,9.78 -16.93,59.32 -22.43,434.84 5.09,459.86 16.39,14.87 411.39,26.31 449.85,-4.87z"/>
   <path class="fil1" d="M16389.27 4767.57c46.85,36.4 189.48,14.96 259.78,14.96 130.35,0 813.05,17.11 836.86,-13.98 16.84,-53.02 14.65,-1032.99 0.67,-1098.34 -75.05,-15.99 -1076.63,-16.48 -1098.47,2.82 -30.74,27.11 -13.81,690.43 -13.81,822.24 0,72.72 -22.82,223.66 14.97,272.3zm156.29 -942.31c-1.3,5.22 -4.02,6.12 -4.42,11.43 -0.4,5.5 -3.26,7.46 -3.75,10.05l0 771.95 761.49 3.04c46.23,-10.81 15.68,-3.75 30.6,-10.63l4.06 -727.86c0,-59.19 -0.76,-59.95 -59.98,-59.95l-728 1.97z"/>
   <path class="fil1" d="M19259.53 799.64c-16.79,52.93 -14.56,1033.61 -0.62,1098.29 64.67,13.94 1045.36,16.17 1098.29,-0.63 31.44,-24.12 18.27,-1081.98 1.29,-1098.96 -14.34,-14.34 -1021.28,-34.35 -1098.96,1.3zm156.43 157.5l-4.07 727.81c0,59.14 0.85,59.99 59.99,59.99l728 -1.96c23.85,-95.06 16.57,-665.6 8.22,-793.48 -100.91,-9.69 -741.04,-15.86 -792.14,7.64z"/>
   <path class="fil1" d="M16374.3 848.15l0 986.71c0,92.82 9.92,69.99 224.82,69.95 175.9,0 801.02,11.79 887.41,-6.92 15.5,-71.61 10.1,-847.84 7.95,-1038.53 -0.8,-72.41 -2.54,-73.7 -71.02,-73.7l-986.71 0c-51.5,0 -62.45,10.99 -62.45,62.49zm171.48 892.68c87.15,15.77 726.66,20.77 777.18,-6.47 27.38,-50.79 22.2,-689.5 6.52,-777.22l-791.25 -7.55c-17.33,143.65 -9.6,727.55 4.07,780.93 0.67,2.68 1.96,7.01 3.48,10.31z"/>
   <path class="fil1" d="M17656.98 791.11c-7.81,73.34 -16.3,581.57 8.18,611.63 17.73,21.8 1.29,11.93 34.71,19.88 78.03,18.49 113.27,-36.58 113.27,87.5 0,119.04 -56.1,58.74 -155.98,82.01l1.92 305.71c277.84,58.02 54.01,-152.9 226.51,-152.9 112.34,0 87.46,-2.68 87.46,239.78 -0.04,241.88 -25.9,239.82 87.42,239.82 99.88,0 62.71,-36 73.16,-101.98 13.36,-84.64 33.51,-41.45 150,-64.94 15.1,-81.34 12.37,-59.72 1.61,-146.02 -161.83,-30.78 -153.84,36.89 -152.41,-164.16 0.8,-106.31 7.82,-409.96 -6.97,-476.87 -40.91,-6.43 -107.83,1.74 -143.52,-20.99l-13.08 -128.87c-55.7,-24.61 -94.21,-11.93 -148.88,-20.68 -54.94,-241.74 109.3,-331.35 -163.4,-308.92z"/>
   <path class="fil1" d="M19731.67 2134.62c0,273.86 -33.05,259.97 156.16,244.34 18.04,-167.46 -69.77,-154.42 258.49,-154.42 66.33,0 64.95,15.41 64.95,84.96 0,119.04 -56.1,58.74 -155.98,82.01l-18.14 134.54c-7.86,16.79 -110.82,19.79 -133.96,22.15 -18.09,81.97 -14.02,58.3 -6.38,147.01l145.66 14.56 14.83 147.49c101.75,13.13 134.23,7.19 238.93,6.75 69.81,0 74.9,2.59 74.9,-67.41 0,-183.98 7.96,-565.94 -5.45,-728.22 -104.56,-11.3 -381.46,-2.37 -519.75,-4.15 -76.07,-0.98 -114.26,-15.68 -114.26,70.39z"/>
   <path class="fil1" d="M19562.47 4447.08l-65.17 16.3c-31.67,2.37 -49.05,0.09 -78.26,4.74 -13.8,102.96 -7.59,133.2 -7.15,239.46 0,70.31 -2.28,74.95 72.45,74.95l811.89 0c85.31,0 84.55,-16.21 74.9,-249.78l-5.45 -66.24 -147.35 0.58c-25.38,114.44 43.77,155.58 -96.98,155.58 -103.94,0 -58.56,-59.41 -77.01,-150.71 -83.52,-24.84 -225.3,14.11 -303.38,-21.26 -34.93,-97.87 45.16,-147.77 -94.25,-147.77 -129.98,0 -47.44,54.41 -84.24,144.15z"/>
   <path class="fil1" d="M16381.32 2067.8c-23.95,214.41 17.55,140.93 147.49,162.1 16.3,100.59 -14.34,269.44 24.61,302.45 29.35,24.88 48.91,2.59 93.94,14.56 69.59,18.49 35.95,60.21 53.73,148.12 81.34,15.09 59.72,12.37 146.02,1.61 22.51,-115.29 -36.76,-152.32 101.71,-152.32 104.26,0 51.41,62.58 72.09,154.55l145.71 2.19c13.4,-104.88 7.5,-133.96 7.06,-241.7 0,-130.34 -63.25,-44 -150.35,-87.42 -15.95,-36.71 -6.08,-23.71 -8.89,-62.66l-5.45 -46.5c-27.29,-88.31 -213.11,-15.55 -302.85,-47.53 -20.32,-44.76 -8.04,-92.55 -19.16,-143.52 -101.13,-13.84 -203.78,-8.66 -305.66,-3.93z"/>
   <path class="fil1" d="M17158.49 1569.76c32.61,-41.1 15.19,-159.11 15.19,-222 0,-57.85 29.7,-219.86 -28.63,-235.45l-21.58 -5.76c-14.87,-2.41 -45.78,-1.97 -61.91,-1.83 -95.68,0.76 -292.84,-8.58 -358.64,9.6 -16.61,59.99 -22.29,435.42 5.19,460.39 16.3,14.79 411.56,26.22 450.38,-4.95z"/>
   <path class="fil1" d="M16693.86 4058.11c0,122.75 -6.79,277.83 6.74,396.11 124.36,21.67 281.45,9.03 410.63,8.71 63.74,0 62.45,-7.05 62.45,-67.58l0 -337.24c0,-112.92 -74.6,-75.09 -412.2,-75.09 -71.69,0 -67.62,3.67 -67.62,75.09z"/>
   <path class="fil1" d="M19571.58 1172.88l0 349.71c0,51.5 11.21,62.62 62.67,62.62 389.06,0 417.15,35.65 417.15,-75.09 0,-122.7 6.75,-277.74 -6.7,-395.98 -123.86,-22.02 -281.63,-9.2 -410.45,-8.84 -64.14,0 -62.67,6.48 -62.67,67.58z"/>
   <path class="fil1" d="M17504.89 2548.96c-19.65,49.32 -7.33,97.16 -18.67,147.99 -90.1,20.1 -211.24,-10.77 -293.74,18.36 -2.5,0.85 -6.61,2.59 -9.6,4.51l-13.04 128.82 -70.36 16.21c-24.52,1.52 -62.22,-0.62 -88.26,-0.8 -50.7,-0.4 -108.68,-2.1 -150.22,7.1 -41.98,189.44 48.65,153.84 150.27,152.81 48.42,-0.49 109.97,-7.82 149.9,9.47 43.15,86.52 -42.7,150.35 87.42,150.35l241.11 -5.45 -0.58 -147.4c-114.57,-25.15 -155.58,43.68 -155.58,-96.93 0,-138.34 142.14,-31.31 310.53,-79.15 18.85,-98.63 14.03,-202.48 2.82,-302.18l-142 -3.71z"/>
   <path class="fil1" d="M18132.92 1010.51c0,138.83 36.18,78.62 150.62,102.07 16.44,54.85 9.29,188.14 9.29,260.15 -0.09,266.8 -80.13,212.3 404.65,212.3 74.64,0 74.9,-8.75 74.9,-87.41 0,-136.24 -96.97,-31.99 -147.8,-91.8 -31.76,-37.38 11.7,-91.03 -34.49,-128.64 -24.7,-20.14 -80.31,-9.24 -128.19,-19.03 -25.02,-83.48 13.89,-225.21 -21.22,-303.43 -93.04,-17.68 -141.19,-9.51 -242.81,-9.15 -61.06,0 -64.95,3.88 -64.95,64.94z"/>
   <path class="fil1" d="M17898.1 4622.67c-57.89,0 -75.4,5.85 -84.06,-41.41 -10.77,-58.78 40.78,-154.46 -153.66,-111.36 -13.94,101.09 -8.71,203.73 -3.98,305.62 133.52,17.02 269.66,7.33 404.07,7.01 114.26,-0.22 53.64,-43.1 77.32,-121.54 18.71,-62 54.81,-26.75 108.32,-40.87 33.28,-8.8 16.75,2.28 34.79,-19.97 25.96,-31.8 15.28,-247.95 2.73,-290.2 -98.49,-13.81 -133.38,-7.42 -235.67,-7.02 -199.26,0.85 49.14,319.74 -149.86,319.74z"/>
   <path class="fil1" d="M17493.41 2296.99c0,188.77 130.39,8.71 156.03,126.86l9.11 113.37c50.03,11.16 100.86,-1.75 142.49,19.2 20.99,41.77 7.99,92.38 19.25,142.45l145.71 2.19c25.41,-111.85 -31.36,-148.84 81.51,-157.32 31.85,-2.41 50.48,0.04 80.09,-4.74 17.2,-179.07 2.19,-156.47 -116.8,-154.91 -58.38,0.76 -137.45,13.09 -188.1,-12.15 -33.81,-77.85 37.03,-147.4 -74.5,-147.4 -245.72,0 -254.79,-21.89 -254.79,72.45z"/>
   <path class="fil1" d="M16688.59 3336.46c-242.01,54.8 -331.31,-109.13 -308.84,163.39 104.53,11.26 381.51,2.37 519.76,4.16 99.43,1.25 114.26,13.13 114.26,-95.41 0,-104.35 -61.78,-51.33 -154.51,-72.1 -18.71,-117.34 40.83,-152.72 -97.78,-152.72 -104.47,0 -57.48,57.4 -72.89,152.68z"/>
   <path class="fil1" d="M16374.3 2609.26c0,493.05 -64.45,414.66 252.91,414.66 91.97,0 76.34,-77.01 59.77,-152.81 -50.92,-11.17 -98.63,1.16 -143.52,-19.12 -56.19,-157.59 77.81,-307.67 -94.25,-307.67 -63.52,0 -74.91,0.09 -74.91,64.94z"/>
   <path class="fil1" d="M17020.82 2068.96c-23.4,198.6 -36.4,155.58 402.64,155.58 95.1,0 79.42,-77.01 62.89,-152.81 -115.6,-15.85 -342.91,-10.85 -465.53,-2.77z"/>
   <path class="fil1" d="M20060.56 4455.74l142.36 0.67 12.01 -133.87c46.37,-30.59 94.47,-17.42 149.15,-23.49 24.65,-190.38 19.11,-155.98 -241.92,-155.98 -91.89,0 -71.87,46.23 -71.03,127.03 0.63,61.29 -5.31,136.15 9.43,185.64z"/>
   <path class="fil1" d="M18772.38 860.61l5.5 241.07 147.4 -0.53c10.99,-51.02 -1.74,-101.98 19.07,-143.52 41.64,-20.86 92.47,-8 142.5,-19.21l2.18 -145.71c-104.88,-13.4 -133.95,-7.5 -241.69,-7.05 -68.7,0 -74.96,6.25 -74.96,74.95z"/>
   <path class="fil1" d="M20211.27 3408.6c0,266.04 -20.95,254.83 84.96,254.83 95.63,0 74.9,5.62 74.9,-254.83 0,-69.02 -13.49,-64.91 -87.41,-64.91 -60.97,0 -72.45,4.2 -72.45,64.91z"/>
   <path class="fil1" d="M17658.37 3828.92l-0.85 307.14c188.63,24.47 155.62,16.97 155.62,-240.32 0,-86.97 -26.22,-78.03 -154.77,-66.82z"/>
   <path class="fil1" d="M17019.08 3338.33c120.11,19.43 171.8,14.7 155.45,-104.83 -6.88,-50.3 -22.96,-50.88 -75.63,-51.91 -113.32,-2.27 -95.18,62.09 -79.82,156.74z"/>
   <path class="fil1" d="M18617.83 3338.33c120.12,19.43 171.8,14.7 155.45,-104.83 -6.88,-50.3 -22.96,-50.88 -75.63,-51.91 -113.32,-2.27 -95.18,62.09 -79.82,156.74z"/>
   <path class="fil1" d="M19891.54 3258.73c0,88.4 -1.43,84.96 92.41,84.96 69.77,0 67.45,-7.14 67.45,-84.96 0,-78.92 4.07,-74.95 -92.42,-74.95 -71.2,0 -67.44,3.98 -67.44,74.95z"/>
   <path class="fil1" d="M19731.67 2934c0,94.25 -4.38,89.92 89.92,89.92 95.09,0 79.42,-77.01 62.89,-152.81 -75.76,-16.62 -152.81,-32.21 -152.81,62.89z"/>
   <path class="fil1" d="M19584.27 3033.34c-79.11,158.44 99.74,178.32 137.93,137.98 16.8,-38.82 10.54,-102.33 4.15,-142.09 -49.62,-8.04 -92.41,-10.14 -142.08,4.11z"/>
   <path class="fil1" d="M19321.98 3823.29c94.16,0 89.91,4.2 89.91,-89.91 0,-44.94 -3.53,-61.91 -42.34,-69.95 -96.48,-20.11 -129.81,12.68 -118.82,106.57 5.5,46.81 20.82,53.29 71.25,53.29z"/>
   <path class="fil1" d="M19571.8 2459.36c0,96.88 -3.57,90.68 154.64,80.71 14.88,-159.55 13.23,-155.66 -79.73,-155.66 -68.7,0 -74.91,6.25 -74.91,74.95z"/>
   <path class="fil1" d="M18932.29 1809.89c0,105.06 32.03,114.39 152.77,87.82 26.62,-120.79 17.29,-152.77 -87.82,-152.77 -61.06,0 -64.95,3.89 -64.95,64.95z"/>
   <path class="fil1" d="M19731.67 4208.02c0,105.05 32.03,114.39 152.76,87.81 26.63,-120.78 17.29,-152.76 -87.81,-152.76 -61.06,0 -64.95,3.88 -64.95,64.95z"/>
   <path class="fil1" d="M18456.4 791.11l0.5 147.44c145.75,18.9 155.62,14.21 155.62,-77.94 0,-87.55 -14.56,-81.16 -156.12,-69.5z"/>
   <path class="fil1" d="M18932.29 1497.62c0,96.57 -0.8,94.92 156.16,81.96l-0.58 -147.45c-122.66,-15.9 -155.58,-21.21 -155.58,65.49z"/>
   <path class="fil1" d="M18457.74 2230.17l-1.96 147.22c156.87,20.02 156.74,11.31 156.74,-80.4 0,-86.97 -26.22,-78.03 -154.78,-66.82z"/>
   <path class="fil1" d="M17333.54 2459.36c0,95.59 8,92.15 154.73,79.24l2.01 -147.14c-136.95,-17.46 -156.74,-18.26 -156.74,67.9z"/>
   <path class="fil1" d="M19418.95 2068.96c-17.73,147.76 -13.76,155.58 77.9,155.58 87.59,0 81.16,-14.78 69.46,-156.16l-147.36 0.58z"/>
   <path class="fil1" d="M18619.58 2068.96c-17.74,147.76 -13.76,155.58 77.9,155.58 87.59,0 81.16,-14.78 69.45,-156.16l-147.35 0.58z"/>
   <path class="fil1" d="M18779.44 1268.43c-18.13,158.48 -11.48,156.74 80.4,156.74 86.97,0 77.99,-26.4 66.78,-154.78l-147.18 -1.96z"/>
   <path class="fil1" d="M17980.07 2867.18c-18.09,158.48 -11.48,156.74 80.4,156.74 86.97,0 78.03,-26.4 66.78,-154.78l-147.18 -1.96z"/>
   <path class="fil1" d="M17813.14 4208.02l5.68 89.78 147.18 2.01c20.01,-157.01 11.25,-156.74 -80.41,-156.74 -60.97,0 -72.45,4.24 -72.45,64.95z"/>
   <path class="fil1" d="M18612.52 1809.89l5.72 89.78 147.13 1.97c20.01,-156.97 11.26,-156.7 -80.4,-156.7 -60.97,0 -72.45,4.25 -72.45,64.95z"/>
   <path class="fil1" d="M18292.83 2134.62l6.39 81.57 141.91 3.66c18,-81.16 13.84,-58.02 6.21,-146.24 -107.43,-19.03 -154.51,-26.13 -154.51,61.01z"/>
   <path class="fil1" d="M18141.27 2710.53l-3.71 142.04c81.21,17.91 58.07,13.8 146.25,6.16 14.74,-83.17 12.28,-60.61 1.43,-147.76l-143.97 -0.44z"/>
   <path class="fil1" d="M18940.65 1111.78l-3.71 142c81.21,17.95 58.11,13.84 146.29,6.2 14.69,-83.17 12.24,-60.61 1.43,-147.76l-144.01 -0.44z"/>
   <path class="fil1" d="M18304.27 2548.96l-6.21 146.25c83.21,14.74 60.61,12.28 147.8,1.43l0.4 -143.97 -141.99 -3.71z"/>
   <path class="fil1" d="M18304.27 1749.59l-6.21 146.24c83.21,14.74 60.61,12.28 147.8,1.43l0.4 -143.96 -141.99 -3.71z"/>
   <rect class="fil1" x="17705.81" y="2043.35" width="1522.55" height="1448.62"/>
   <path class="fil2" d="M18504.24 2947.62c-0.44,-15.36 -0.67,-27.02 -0.67,-34.7 0,-45.52 6.39,-84.65 19.34,-117.61 9.47,-25.06 24.62,-50.12 45.74,-75.4 15.37,-18.45 43.29,-45.3 83.31,-80.67 40.2,-35.38 66.15,-63.52 78.26,-84.65 12.06,-21.31 18,-44.17 18,-69.23 0,-45.3 -17.56,-85.05 -52.75,-119.36 -35.16,-34.3 -78.26,-51.45 -129.23,-51.45 -49.49,0 -90.58,15.63 -123.55,46.63 -33.19,31.18 -54.76,79.78 -65.08,145.93l-118.68 -14.52c10.76,-88.13 42.43,-155.84 95.41,-202.66 52.97,-46.81 122.83,-70.35 209.89,-70.35 92.11,0 165.54,25.06 220.48,75.4 54.76,50.34 82.24,111.23 82.24,182.69 0,41.32 -9.7,79.33 -29.04,114.09 -19.34,34.93 -57.13,77.14 -113.41,127.03 -37.83,33.41 -62.45,58.07 -74.1,73.88 -11.66,15.81 -20.19,34.08 -25.69,54.72 -5.49,20.46 -8.8,53.87 -9.69,100.23l-110.78 0zm-21.12 232.14l0 -131.9 131.9 0 0 131.9 -131.9 0z"/>
  </g>
 </g>
</svg>
