<?xml version="1.0" encoding="UTF-8"?>
<!DOCTYPE svg PUBLIC "-//W3C//DTD SVG 1.0//EN" "http://www.w3.org/TR/2001/REC-SVG-20010904/DTD/svg10.dtd">
<!-- Creator: CorelDRAW 2021 (64 Bit) -->
<svg xmlns="http://www.w3.org/2000/svg" xml:space="preserve" width="60.9598mm" height="108.373mm" version="1.0" style="shape-rendering:geometricPrecision; text-rendering:geometricPrecision; image-rendering:optimizeQuality; fill-rule:evenodd; clip-rule:evenodd"
viewBox="0 0 6095.98 10837.32"
 xmlns:xlink="http://www.w3.org/1999/xlink"
 xmlns:xodm="http://www.corel.com/coreldraw/odm/2003">
 <defs>
  <style type="text/css">
   <![CDATA[
    .fil1 {fill:none}
    .fil0 {fill:black}
    .fil3 {fill:black}
    .fil2 {fill:black;fill-rule:nonzero}
    .fil4 {fill:black;fill-rule:nonzero}
   ]]>
  </style>
 </defs>
 <g id="Camada_x0020_1">
  <metadata id="CorelCorpID_0Corel-Layer"/>
  <polygon class="fil0" points="770.33,8290.47 770.38,8324.25 797.4,8324.39 939.94,8324.36 939.94,8154.72 817.77,8154.73 797.4,8154.76 770.31,8154.7 "/>
  <polygon class="fil0" points="770.32,4174.72 777.02,4174.65 940,4174.64 939.95,4005.01 770.45,4005.03 "/>
  <polygon class="fil0" points="5150.93,4025.3 5150.94,4045.68 5150.93,4174.64 5313.86,4174.64 5320.58,4174.72 5320.54,4005.12 5150.89,4004.97 "/>
  <polygon class="fil0" points="5150.93,8324.36 5320.47,8324.33 5320.56,8154.68 5286.69,8154.79 5266.32,8154.72 5150.94,8154.72 "/>
  <rect class="fil1" y="0.01" width="6095.97" height="10837.3"/>
  <path class="fil0" d="M4601.79 3344.4c-19.49,9.72 -47.87,-4.13 -67.34,5.59 -5.9,6.25 -1.37,39.55 -1.81,50.6 -0.9,22.53 -13.58,15.63 -34.04,19.76l-3.3 32.21 -33.02 3.33c-5.28,28.67 4.92,31.96 -17.2,34.53 -8.72,1.01 -16.28,-1.74 -19.03,8.51 -8.86,33.09 15.01,27.22 -56.45,27.22 -44.46,0 20.1,-40.71 -50.87,-34.53 -1.52,10.21 -1.23,23.05 -1.14,34.53 0.32,38.75 1.88,36.38 -43.1,35.74 -24.43,-0.35 -28.48,-2.12 -28.48,20.19 0,29.41 40.25,9.35 69.51,17.73l3.39 32.2c32.65,6.01 31.51,-5.23 34.48,25.53 1.26,13.03 6.3,11.78 19.01,11.78 26.71,0 13.11,-12.48 18.38,-34.9 25.24,-2.87 34.19,4.57 34.19,-21.58 0,-27.94 -33.44,-10.46 -69.97,-16.31 -5.91,-43.48 4.94,-34.6 45.36,-34.58 19.06,0 42.47,2.14 59.21,-1.6l2.79 -27.73c6.04,-20.26 63.58,9.65 69.14,-15.42l2.04 -25.64 69.21 -0.25c3.26,34.62 2.98,70.62 -0.11,105.26l-68.7 0.18c-7.25,-32.39 16.92,-41.04 -70.61,-33.76l-1.39 32.74 32.61 3.26 3.32 33.02c32.65,6.01 31.5,-5.23 34.48,25.53 1.27,13.03 6.3,11.78 19.01,11.78 26.71,0 13.11,-12.48 18.38,-34.9l32.6 0.08 1.59 53.84c-0.1,24.26 -11.63,16.77 -55.37,16.77 -37.81,0 4.38,-35.79 -30.76,-35.79 -67.4,0 -53.2,-7.35 -57.93,34.18 -43.83,5.8 -30.55,1.32 -36.09,-32.99 -46.45,-4.47 -34.6,1.96 -34.6,54.18 0,21.41 7.73,16.54 27.89,16.27 51.73,-0.69 37.65,-4.02 45.27,33.69l32.21 3.3 3.32 33.02 53.49 1.51c18.58,-0.08 16.77,-4.29 16.77,-20.68 0,-23.38 -12.83,-12.89 -34.17,-16.31 -6.33,-46.56 6.41,-34.58 53.75,-34.58 32.18,0 8.06,40 18.27,68.9 25.62,6.34 76.21,4.5 103.45,1.25l2.68 -29.97 15.26 -4.57c6.03,-0.55 12.11,-0.02 18.14,-0.69 4.55,-19.65 -5.67,-33.25 18.26,-35.05 7.12,-0.54 11.3,0.01 17.93,-1.06l1.53 -23.23c3.74,-20.93 41.64,-11.38 78.51,-11.38 13.1,0 26.18,-0.05 39.27,0.12 21.21,0.29 25.04,1.98 25.04,-19.69 0,-24.92 -19.11,-16.22 -69.9,-16.22 -58.75,0 -73.26,10.08 -73.26,-20.13 0,-23.28 13.28,-13.11 33.74,-17.24l0.36 -32.69c-28.17,-5.36 -31.58,5.02 -34.16,-17.2 -1.11,-9.52 2.18,-15.99 -8.44,-19.09 -18.39,-5.35 -43.55,0.76 -61.89,-2.24 -5.93,-36.3 8.32,-37.02 -36.16,-33.36 -2.75,25.57 4.66,34.58 -21.52,34.58 -22.41,0 -15.09,-17.2 -15.09,-55.37 0,-41.29 71.57,8.15 71.57,-30.76l0 -78.29c0,-16.47 -5.95,-14.54 -20.13,-14.54 -29.43,0 -9.33,40.22 -17.74,69.5 -28.8,5.57 -59.27,2.16 -88.52,2.07 -24.35,-0.07 -16.78,-10.95 -16.78,-57.03 0,-27.81 38.26,-8.95 70.4,-16.14l1.53 -22.86c4.91,-27.91 35.45,9.21 35.45,-30.91 0,-23.83 -14.53,-16.22 -57.04,-16.22 -24.97,0 -9.11,15.57 -16.68,33zm40.52 397.57l-1.38 32.69c18.58,3.35 13.53,2.8 33.04,0.33l0.09 -32.19 -31.75 -0.83zm101.33 -40.31c7.04,-8.68 5.18,-111.09 -0.76,-101.43l-20.88 -2.62c-21.41,0.17 -65.61,-1.97 -80.21,2.19 -3.79,13.28 -5.02,97.35 1.14,102.95 3.67,3.33 92.1,5.89 100.71,-1.09z"/>
  <path class="fil0" d="M4034.61 3880.72c10.49,8.15 42.42,3.35 58.16,3.35 29.18,0 182.02,3.83 187.35,-3.13 3.77,-11.87 3.28,-231.26 0.15,-245.89 -16.8,-3.58 -241.03,-3.69 -245.92,0.63 -6.88,6.07 -3.09,154.57 -3.09,184.08 0,16.28 -5.11,50.07 3.35,60.96zm34.99 -210.96c-0.29,1.17 -0.9,1.37 -0.99,2.56 -0.09,1.23 -0.73,1.67 -0.84,2.25l0 172.82 170.48 0.68c10.35,-2.42 3.51,-0.84 6.85,-2.38l0.91 -162.95c0,-13.25 -0.17,-13.42 -13.43,-13.42l-162.98 0.44z"/>
  <path class="fil0" d="M4677.19 2992.4c-3.76,11.85 -3.26,231.4 -0.14,245.88 14.48,3.12 234.03,3.62 245.88,-0.14 7.04,-5.4 4.09,-242.23 0.29,-246.03 -3.21,-3.21 -228.64,-7.69 -246.03,0.29zm35.02 35.26l-0.91 162.94c0,13.24 0.19,13.43 13.43,13.43l162.98 -0.44c5.34,-21.28 3.71,-149.01 1.84,-177.64 -22.59,-2.17 -165.9,-3.55 -177.34,1.71z"/>
  <path class="fil0" d="M4031.26 3003.26l0 220.9c0,20.78 2.22,15.67 50.33,15.66 39.38,0 179.33,2.64 198.67,-1.55 3.47,-16.03 2.26,-189.81 1.78,-232.5 -0.18,-16.21 -0.57,-16.5 -15.9,-16.5l-220.9 0c-11.53,0 -13.98,2.46 -13.98,13.99zm38.39 199.85c19.51,3.53 162.68,4.65 173.99,-1.45 6.13,-11.37 4.97,-154.36 1.46,-174l-177.14 -1.69c-3.88,32.16 -2.15,162.88 0.91,174.83 0.15,0.6 0.44,1.57 0.78,2.31z"/>
  <path class="fil0" d="M4318.42 2990.49c-1.75,16.42 -3.65,130.2 1.83,136.93 3.97,4.88 0.29,2.67 7.77,4.45 17.47,4.14 25.36,-8.19 25.36,19.59 0,26.65 -12.56,13.15 -34.92,18.36l0.43 68.44c62.2,12.99 12.09,-34.23 50.71,-34.23 25.15,0 19.58,-0.6 19.58,53.68 -0.01,54.15 -5.8,53.69 19.57,53.69 22.36,0 14.04,-8.06 16.38,-22.83 2.99,-18.95 7.5,-9.28 33.58,-14.54 3.38,-18.21 2.77,-13.37 0.36,-32.69 -36.23,-6.89 -34.44,8.26 -34.12,-36.75 0.18,-23.8 1.75,-91.78 -1.56,-106.76 -9.16,-1.44 -24.14,0.39 -32.13,-4.7l-2.93 -28.85c-12.47,-5.51 -21.09,-2.67 -33.33,-4.63 -12.3,-54.12 24.47,-74.18 -36.58,-69.16z"/>
  <path class="fil0" d="M4782.89 3291.27c0,61.31 -7.4,58.2 34.96,54.7 4.04,-37.49 -15.62,-34.57 57.87,-34.57 14.85,0 14.54,3.45 14.54,19.02 0,26.65 -12.56,13.15 -34.92,18.36l-4.06 30.12c-1.76,3.76 -24.81,4.43 -29.99,4.96 -4.05,18.35 -3.14,13.05 -1.43,32.91l32.61 3.26 3.32 33.02c22.78,2.94 30.05,1.61 53.49,1.51 15.63,0 16.77,0.58 16.77,-15.09 0,-41.19 1.78,-126.7 -1.22,-163.03 -23.41,-2.53 -85.4,-0.53 -116.36,-0.93 -17.03,-0.22 -25.58,-3.51 -25.58,15.76z"/>
  <path class="fil0" d="M4745.01 3808.97l-14.59 3.65c-7.09,0.53 -10.98,0.02 -17.52,1.06 -3.09,23.05 -1.7,29.82 -1.6,53.61 0,15.74 -0.51,16.78 16.22,16.78l181.76 0c19.1,0 18.93,-3.63 16.77,-55.92l-1.22 -14.83 -32.99 0.13c-5.68,25.62 9.8,34.83 -21.71,34.83 -23.27,0 -13.11,-13.3 -17.24,-33.74 -18.7,-5.56 -50.44,3.16 -67.92,-4.76 -7.82,-21.91 10.11,-33.08 -21.1,-33.08 -29.1,0 -10.62,12.18 -18.86,32.27z"/>
  <path class="fil0" d="M4032.83 3276.31c-5.36,48 3.93,31.55 33.02,36.29 3.65,22.52 -3.21,60.32 5.51,67.71 6.57,5.57 10.95,0.58 21.03,3.26 15.58,4.14 8.05,13.48 12.03,33.16 18.21,3.38 13.37,2.77 32.69,0.36 5.04,-25.81 -8.23,-34.1 22.77,-34.1 23.34,0 11.51,14.01 16.14,34.6l32.62 0.49c3,-23.48 1.68,-29.99 1.58,-54.11 0,-29.18 -14.16,-9.85 -33.66,-19.57 -3.57,-8.22 -1.36,-5.31 -1.99,-14.03l-1.22 -10.41c-6.11,-19.77 -47.71,-3.48 -67.8,-10.64 -4.55,-10.02 -1.8,-20.72 -4.29,-32.13 -22.64,-3.1 -45.62,-1.94 -68.43,-0.88z"/>
  <path class="fil0" d="M4206.82 3164.81c7.3,-9.2 3.4,-35.62 3.4,-49.7 0,-12.95 6.65,-49.22 -6.41,-52.71l-4.83 -1.29c-3.33,-0.54 -10.25,-0.44 -13.86,-0.41 -21.42,0.17 -65.56,-1.92 -80.29,2.15 -3.72,13.43 -4.99,97.48 1.16,103.07 3.65,3.31 92.14,5.87 100.83,-1.11z"/>
  <path class="fil0" d="M4102.8 3721.89c0,27.48 -1.52,62.2 1.51,88.68 27.84,4.85 63.01,2.02 91.93,1.95 14.27,0 13.98,-1.58 13.98,-15.13l0 -75.5c0,-25.28 -16.7,-16.81 -92.28,-16.81 -16.05,0 -15.14,0.82 -15.14,16.81z"/>
  <path class="fil0" d="M4747.05 3075.96l0 78.29c0,11.53 2.51,14.02 14.03,14.02 87.1,0 93.39,7.98 93.39,-16.81 0,-27.47 1.51,-62.18 -1.5,-88.65 -27.73,-4.93 -63.05,-2.06 -91.89,-1.98 -14.36,0 -14.03,1.45 -14.03,15.13z"/>
  <path class="fil0" d="M4284.37 3384.03c-4.4,11.04 -1.64,21.75 -4.18,33.13 -20.17,4.5 -47.29,-2.41 -65.76,4.11 -0.56,0.19 -1.48,0.58 -2.15,1.01l-2.92 28.84 -15.75 3.63c-5.49,0.34 -13.93,-0.14 -19.76,-0.18 -11.35,-0.09 -24.33,-0.47 -33.63,1.59 -9.4,42.41 10.89,34.44 33.64,34.21 10.84,-0.11 24.62,-1.75 33.56,2.12 9.66,19.37 -9.56,33.66 19.57,33.66l53.98 -1.22 -0.13 -33c-25.65,-5.63 -34.83,9.78 -34.83,-21.7 0,-30.97 31.82,-7.01 69.52,-17.72 4.22,-22.08 3.14,-45.33 0.63,-67.65l-31.79 -0.83z"/>
  <path class="fil0" d="M4424.97 3039.61c0,31.08 8.1,17.6 33.72,22.85 3.68,12.28 2.08,42.12 2.08,58.24 -0.02,59.73 -17.94,47.53 90.59,47.53 16.71,0 16.77,-1.96 16.77,-19.57 0,-30.5 -21.71,-7.16 -33.09,-20.55 -7.11,-8.37 2.62,-20.38 -7.72,-28.8 -5.53,-4.51 -17.98,-2.07 -28.7,-4.26 -5.6,-18.69 3.11,-50.42 -4.75,-67.93 -20.83,-3.96 -31.61,-2.13 -54.36,-2.05 -13.67,0 -14.54,0.87 -14.54,14.54z"/>
  <path class="fil0" d="M4372.4 3848.28c-12.96,0 -16.88,1.31 -18.82,-9.27 -2.41,-13.16 9.13,-34.58 -34.4,-24.93 -3.12,22.63 -1.95,45.61 -0.89,68.42 29.89,3.81 60.37,1.64 90.46,1.57 25.58,-0.05 12.01,-9.65 17.31,-27.21 4.19,-13.88 12.27,-5.99 24.25,-9.15 7.45,-1.97 3.75,0.51 7.79,-4.47 5.81,-7.12 3.42,-55.51 0.61,-64.97 -22.05,-3.09 -29.86,-1.66 -52.76,-1.57 -44.61,0.19 11,71.58 -33.55,71.58z"/>
  <path class="fil0" d="M4281.8 3327.62c0,42.26 29.19,1.95 34.93,28.4l2.04 25.38c11.2,2.5 22.58,-0.39 31.9,4.3 4.7,9.35 1.79,20.68 4.31,31.89l32.62 0.49c5.69,-25.04 -7.02,-33.32 18.25,-35.22 7.13,-0.54 11.3,0.01 17.93,-1.06 3.85,-40.09 0.49,-35.03 -26.15,-34.68 -13.07,0.17 -30.77,2.93 -42.11,-2.72 -7.57,-17.43 8.29,-33 -16.68,-33 -55.01,0 -57.04,-4.9 -57.04,16.22z"/>
  <path class="fil0" d="M4101.62 3560.33c-54.18,12.27 -74.17,-24.43 -69.14,36.58 23.4,2.52 85.41,0.53 116.36,0.93 22.26,0.28 25.58,2.94 25.58,-21.36 0,-23.36 -13.83,-11.49 -34.59,-16.14 -4.19,-26.27 9.14,-34.19 -21.89,-34.19 -23.39,0 -12.87,12.85 -16.32,34.18z"/>
  <path class="fil0" d="M4031.26 3397.53c0,110.38 -14.43,92.83 56.62,92.83 20.59,0 17.09,-17.24 13.38,-34.21 -11.4,-2.5 -22.08,0.26 -32.13,-4.28 -12.58,-35.28 17.42,-68.88 -21.1,-68.88 -14.22,0 -16.77,0.02 -16.77,14.54z"/>
  <path class="fil0" d="M4176 3276.57c-5.24,44.46 -8.15,34.83 90.14,34.83 21.29,0 17.78,-17.24 14.08,-34.21 -25.88,-3.55 -76.77,-2.43 -104.22,-0.62z"/>
  <path class="fil0" d="M4856.52 3810.91l31.87 0.15 2.69 -29.97c10.38,-6.85 21.15,-3.9 33.39,-5.26 5.52,-42.62 4.28,-34.92 -54.16,-34.92 -20.57,0 -16.09,10.35 -15.9,28.44 0.14,13.72 -1.19,30.48 2.11,41.56z"/>
  <path class="fil0" d="M4568.13 3006.05l1.23 53.97 33 -0.12c2.46,-11.42 -0.39,-22.83 4.27,-32.13 9.32,-4.67 20.7,-1.79 31.9,-4.3l0.49 -32.62c-23.48,-3 -29.99,-1.68 -54.11,-1.58 -15.38,0 -16.78,1.4 -16.78,16.78z"/>
  <path class="fil0" d="M4890.26 3576.48c0,59.56 -4.69,57.05 19.02,57.05 21.41,0 16.77,1.26 16.77,-57.05 0,-15.45 -3.02,-14.53 -19.57,-14.53 -13.65,0 -16.22,0.94 -16.22,14.53z"/>
  <path class="fil0" d="M4318.73 3670.58l-0.19 68.76c42.23,5.48 34.84,3.8 34.84,-53.8 0,-19.47 -5.87,-17.47 -34.65,-14.96z"/>
  <path class="fil0" d="M4175.61 3560.75c26.89,4.35 38.46,3.29 34.8,-23.47 -1.54,-11.26 -5.14,-11.39 -16.93,-11.62 -25.37,-0.51 -21.31,13.9 -17.87,35.09z"/>
  <path class="fil0" d="M4533.53 3560.75c26.89,4.35 38.46,3.29 34.8,-23.47 -1.54,-11.26 -5.14,-11.39 -16.93,-11.62 -25.37,-0.51 -21.31,13.9 -17.87,35.09z"/>
  <path class="fil0" d="M4818.68 3542.93c0,19.79 -0.32,19.02 20.69,19.02 15.62,0 15.1,-1.6 15.1,-19.02 0,-17.67 0.91,-16.78 -20.69,-16.78 -15.94,0 -15.1,0.89 -15.1,16.78z"/>
  <path class="fil0" d="M4782.89 3470.23c0,21.1 -0.98,20.13 20.13,20.13 21.29,0 17.78,-17.24 14.08,-34.21 -16.96,-3.72 -34.21,-7.21 -34.21,14.08z"/>
  <path class="fil0" d="M4749.89 3492.47c-17.71,35.47 22.33,39.92 30.88,30.89 3.76,-8.69 2.36,-22.91 0.93,-31.81 -11.11,-1.8 -20.69,-2.27 -31.81,0.92z"/>
  <path class="fil0" d="M4691.17 3669.32c21.08,0 20.13,0.94 20.13,-20.13 0,-10.06 -0.79,-13.86 -9.48,-15.66 -21.6,-4.5 -29.06,2.84 -26.6,23.86 1.23,10.48 4.66,11.93 15.95,11.93z"/>
  <path class="fil0" d="M4747.1 3363.97c0,21.69 -0.8,20.3 34.62,18.07 3.33,-35.72 2.96,-34.85 -17.85,-34.85 -15.38,0 -16.77,1.4 -16.77,16.78z"/>
  <path class="fil0" d="M4603.93 3218.57c0,23.52 7.17,25.61 34.2,19.66 5.96,-27.04 3.87,-34.2 -19.66,-34.2 -13.67,0 -14.54,0.87 -14.54,14.54z"/>
  <path class="fil0" d="M4782.89 3755.45c0,23.52 7.17,25.61 34.2,19.66 5.96,-27.04 3.87,-34.2 -19.66,-34.2 -13.67,0 -14.54,0.87 -14.54,14.54z"/>
  <path class="fil0" d="M4497.39 2990.49l0.11 33.01c32.63,4.23 34.84,3.18 34.84,-17.45 0,-19.6 -3.26,-18.17 -34.95,-15.56z"/>
  <path class="fil0" d="M4603.93 3148.66c0,21.62 -0.18,21.25 34.96,18.35l-0.13 -33.01c-27.46,-3.56 -34.83,-4.75 -34.83,14.66z"/>
  <path class="fil0" d="M4497.69 3312.66l-0.44 32.96c35.12,4.48 35.09,2.53 35.09,-18 0,-19.47 -5.87,-17.47 -34.65,-14.96z"/>
  <path class="fil0" d="M4246.01 3363.97c0,21.4 1.79,20.63 34.64,17.74l0.45 -32.94c-30.66,-3.91 -35.09,-4.09 -35.09,15.2z"/>
  <path class="fil0" d="M4712.88 3276.57c-3.97,33.08 -3.08,34.83 17.44,34.83 19.61,0 18.17,-3.31 15.55,-34.96l-32.99 0.13z"/>
  <path class="fil0" d="M4533.92 3276.57c-3.97,33.08 -3.08,34.83 17.44,34.83 19.61,0 18.17,-3.31 15.55,-34.96l-32.99 0.13z"/>
  <path class="fil0" d="M4569.71 3097.35c-4.06,35.48 -2.57,35.09 18,35.09 19.47,0 17.46,-5.91 14.95,-34.65l-32.95 -0.44z"/>
  <path class="fil0" d="M4390.75 3455.27c-4.05,35.48 -2.57,35.09 18,35.09 19.47,0 17.47,-5.91 14.95,-34.65l-32.95 -0.44z"/>
  <path class="fil0" d="M4353.38 3755.45l1.27 20.1 32.95 0.45c4.48,-35.15 2.52,-35.09 -18,-35.09 -13.65,0 -16.22,0.95 -16.22,14.54z"/>
  <path class="fil0" d="M4532.34 3218.57l1.28 20.1 32.94 0.44c4.48,-35.14 2.52,-35.08 -18,-35.08 -13.65,0 -16.22,0.95 -16.22,14.54z"/>
  <path class="fil0" d="M4460.77 3291.27l1.43 18.26 31.77 0.82c4.03,-18.17 3.1,-12.99 1.39,-32.74 -24.05,-4.26 -34.59,-5.85 -34.59,13.66z"/>
  <path class="fil0" d="M4426.84 3420.2l-0.83 31.8c18.18,4.01 13,3.09 32.74,1.38 3.3,-18.62 2.75,-13.57 0.32,-33.08l-32.23 -0.1z"/>
  <path class="fil0" d="M4605.8 3062.28l-0.83 31.79c18.18,4.02 13.01,3.1 32.75,1.39 3.29,-18.62 2.74,-13.57 0.32,-33.08l-32.24 -0.1z"/>
  <path class="fil0" d="M4463.33 3384.03l-1.39 32.74c18.63,3.3 13.57,2.75 33.09,0.32l0.09 -32.23 -31.79 -0.83z"/>
  <path class="fil0" d="M4463.33 3205.07l-1.39 32.74c18.63,3.3 13.57,2.75 33.09,0.32l0.09 -32.23 -31.79 -0.83z"/>
  <rect class="fil0" x="4329.35" y="3270.83" width="340.86" height="324.31"/>
  <path class="fil2" d="M4508.1 3473.28c-0.1,-3.44 -0.15,-6.05 -0.15,-7.77 0,-10.19 1.43,-18.95 4.33,-26.33 2.12,-5.61 5.51,-11.22 10.24,-16.88 3.44,-4.13 9.69,-10.14 18.65,-18.06 9,-7.92 14.81,-14.22 17.52,-18.95 2.7,-4.77 4.03,-9.89 4.03,-15.5 0,-10.14 -3.93,-19.04 -11.81,-26.72 -7.87,-7.68 -17.52,-11.52 -28.93,-11.52 -11.08,0 -20.28,3.5 -27.66,10.44 -7.43,6.98 -12.26,17.86 -14.57,32.67l-26.57 -3.25c2.41,-19.73 9.5,-34.89 21.36,-45.37 11.86,-10.48 27.5,-15.75 46.99,-15.75 20.62,0 37.06,5.61 49.36,16.88 12.26,11.27 18.41,24.9 18.41,40.9 0,9.25 -2.17,17.76 -6.5,25.54 -4.33,7.82 -12.79,17.27 -25.39,28.44 -8.47,7.48 -13.98,13 -16.59,16.54 -2.61,3.54 -4.52,7.63 -5.75,12.25 -1.23,4.58 -1.97,12.06 -2.17,22.44l-24.8 0zm-4.73 51.97l0 -29.53 29.53 0 0 29.53 -29.53 0z"/>
  <g id="_2585351540368">
   <line class="fil1" x1="3411.15" y1="8890.93" x2="3409.51" y2= "8890.52" />
   <path class="fil3" d="M2794.62 8508.81c4.72,-18.08 16.7,-35.86 38.78,-36.72 20.91,-0.82 37.11,12.83 40.57,31.31 4.11,21.98 -10.05,39.44 -26.28,44.75 -12.95,4.52 -23.55,-2.03 -32.89,2.01 -10.32,4.46 -8.13,8.98 -13.44,20.91l-12.13 -20.17c-37.83,16.94 -69.95,35.14 -85.49,67.4 -16.74,34.74 -22.49,87.31 -7.44,126.95 0.71,-0.87 1.21,-1.35 2.94,-4.72 27.49,-17.42 15.62,-71.34 83.06,-100.2 29.48,-5.71 60.64,11.98 79.72,9.02 26.31,-4.09 42.84,-15.73 52.76,-49.5 14.94,-50.85 5.96,-118.38 -27.73,-140.76 -3.85,-2.56 -8.06,-4.97 -12.54,-7.08 -5.79,3.74 -18.77,8.09 -33.86,8.09 -13.87,0 -25.96,-3.68 -32.35,-7.17 -15.65,9.26 -29.31,25.18 -34.23,42.67 9.35,3.03 14.89,5.3 20.55,13.2l0 0.01zm52.52 -64.57c-4.24,-0.4 -8.56,-0.42 -12.9,0.01l5.39 1.84c0.34,0.12 0.69,0.17 1.03,0.17 0.35,0 0.7,-0.05 1.04,-0.17l5.44 -1.85 0 0z"/>
   <g id="_1821038046112">
    <path class="fil3" d="M2808.98 8515.96c0,12.5 8.46,22.62 18.9,22.62 10.44,0 18.9,-10.13 18.9,-22.62 0,-12.5 -8.46,-22.64 -18.9,-22.64 -10.44,0 -18.9,10.14 -18.9,22.64zm7.47 0c0,7.56 5.12,13.69 11.43,13.69 6.32,0 11.44,-6.13 11.44,-13.69 0,-7.56 -5.12,-13.7 -11.44,-13.7 -6.31,0 -11.43,6.14 -11.43,13.7l0 0z"/>
    <path class="fil3" d="M2830.33 8507.64c0,2.98 2.01,5.38 4.49,5.38 2.48,0 4.49,-2.4 4.49,-5.38 0,-2.97 -2.02,-5.38 -4.49,-5.38 -2.49,0 -4.49,2.41 -4.49,5.38z"/>
   </g>
   <path class="fil3" d="M2765.68 8524.75c0.72,9.54 6.49,16.9 12.89,16.41 6.4,-0.48 11.01,-8.61 10.29,-18.16 -0.72,-9.55 -6.49,-16.91 -12.89,-16.42 -6.4,0.48 -11.01,8.62 -10.29,18.17l0 0zm4.58 -0.35c0.44,5.78 3.92,10.23 7.8,9.94 3.87,-0.3 6.66,-5.21 6.23,-10.99 -0.44,-5.78 -3.93,-10.24 -7.8,-9.94 -3.88,0.29 -6.66,5.21 -6.23,10.99l0 0 0 0z"/>
   <path class="fil4" d="M2543.88 8865.56l-81.5 0 23.82 -287.3 81.5 0c-49.1,63.86 -61.45,222.79 -23.82,287.3z"/>
   <path class="fil3" d="M2777.09 8517.96c0,2.27 1.54,4.12 3.45,4.12 1.9,0 3.44,-1.85 3.44,-4.12 0,-2.28 -1.54,-4.13 -3.44,-4.13 -1.91,0 -3.45,1.85 -3.45,4.13z"/>
   <path class="fil4" d="M2809.12 8670.77c13.49,0 35.61,-4.39 47.91,0.06 12.31,4.45 22.94,11.26 31.88,20.43 8.95,9.16 -10.49,-1.75 -5.82,11.86 4.67,13.62 6.24,29.6 4.73,47.94 -1.52,18.34 4.06,30.67 -2.88,44.42 -6.94,13.76 -15.64,25.15 -26.09,34.18 -10.46,9.04 -22.22,15.85 -35.27,20.43 -13.05,4.58 -11.14,-1.8 -24.62,-1.8 -13.76,0 -26.71,-2.29 -38.88,-6.88 -12.15,-4.59 -22.72,-11.4 -31.67,-20.43 -8.96,-9.03 18.94,-5.55 14.29,-19.3 -4.66,-13.76 -6.23,-29.8 -4.71,-48.14 1.52,-18.33 5.74,-34.32 12.67,-47.93 6.93,-13.62 -17.84,-5.19 -7.37,-14.35 10.47,-9.17 22.16,-15.98 35.07,-20.43 12.91,-4.45 17.01,-0.06 30.77,-0.06l-0.01 0zm-9.31 127.25c7.55,0 14.7,-4.11 21.45,-12.34 6.75,-8.22 10.71,-19.48 11.9,-33.78 1.16,-14.02 -0.95,-25.14 -6.34,-33.37 -5.38,-8.23 -11.85,-12.34 -19.41,-12.34 -7.55,0 -14.77,4.11 -21.65,12.34 -6.88,8.23 -10.91,19.35 -12.07,33.37 -1.19,14.3 0.98,25.56 6.5,33.78 5.52,8.23 12.05,12.34 19.61,12.34l0.01 0z"/>
   <g>
    <path class="fil4" d="M2540.44 8733.86c5.62,-1.66 11.64,-3.02 18.04,-4.12 5.58,-1.1 11.76,-2.06 18.55,-2.88 6.8,-0.83 13.76,-1.24 20.89,-1.24 6.03,0 12.04,0.41 18.01,1.24 5.97,0.82 11.4,2.26 16.31,4.32 4.9,2.06 9.27,4.87 13.09,8.44 3.82,3.56 6.6,8.09 8.34,13.58 0.23,0.55 0.88,2.6 1.96,6.17 1.07,3.57 2.48,8.03 4.24,13.38 1.75,5.34 3.72,11.38 5.9,18.11 2.19,6.72 4.37,13.51 6.55,20.37 5.22,16.46 11.1,34.85 17.65,55.15l-87.67 0 -43.1 -125.53 -10.34 124.71 -81.49 0 23.82 -287.29 81.49 0 -11.02 132.94 64.53 -132.94 87.66 0 -45.88 96.73 -71.22 39.92 -58.33 13.58 2.02 5.36z"/>
   </g>
   <g>
    <path class="fil4" d="M2811.76 8647.54c13.48,0 26.37,2.24 38.68,6.68 12.31,4.45 22.93,11.26 31.88,20.43 8.95,9.17 15.76,20.56 20.43,34.18 4.66,13.62 6.23,29.59 4.71,47.93 -1.52,18.34 -5.75,34.38 -12.68,48.13 -6.94,13.76 -15.64,25.16 -26.09,34.19 -10.46,9.03 -22.21,15.84 -35.27,20.43 -13.06,4.58 -26.32,6.87 -39.81,6.87 -13.75,0 -26.7,-2.29 -38.87,-6.87 -12.16,-4.59 -22.72,-11.4 -31.67,-20.43 -8.96,-9.03 -15.77,-20.43 -20.43,-34.19 -4.66,-13.75 -6.23,-29.79 -4.71,-48.13 1.52,-18.34 5.75,-34.31 12.68,-47.93 6.93,-13.62 15.62,-25.01 26.09,-34.18 10.47,-9.17 22.15,-15.98 35.06,-20.43 12.92,-4.44 26.25,-6.68 40,-6.68zm-12.85 154.93c7.55,0 14.7,-4.11 21.46,-12.34 6.74,-8.22 10.71,-19.48 11.89,-33.77 1.17,-14.02 -0.95,-25.14 -6.33,-33.38 -5.38,-8.22 -11.86,-12.33 -19.4,-12.33 -7.56,0 -14.78,4.11 -21.66,12.33 -6.89,8.24 -10.91,19.36 -12.07,33.38 -1.19,14.29 0.98,25.55 6.51,33.77 5.51,8.23 12.05,12.34 19.6,12.34z"/>
   </g>
   <path class="fil4" d="M3060.89 8662.97c11.6,0 20.63,1.62 27.1,4.86 6.48,3.24 11.31,7.55 14.5,12.94 3.2,5.39 5.05,11.53 5.56,18.41 0.51,6.88 8.04,-4.26 7.44,3.02l-59.93 16.95c0.22,-2.7 0.06,-6.48 -0.48,-11.33 -0.54,-4.86 -2.4,-9.17 -5.6,-12.94 -3.19,-3.78 -22.65,9.74 -29.66,9.74 -3.51,0 -6.77,1.08 -9.78,3.24 -3.01,2.16 -5.34,4.99 -6.98,8.5l-12 144.82 -80.1 0 17.88 -215.61 80.1 0 -2.52 30.34 -22.76 55.01 6.08 16.69c8.93,-33.37 38.28,-65.53 39.66,-50.69 0.55,5.93 -0.91,-2.72 3.15,-7.84 4.06,-5.12 0.41,-0.83 5.47,-4.87 5.06,-4.05 -1.94,-14.83 3.94,-17.39 5.87,-2.56 12.18,-3.84 18.92,-3.84l0.01 -0.01z"/>
   <path class="fil4" d="M3328.01 8657.66l-17.27 208.27 -80.1 0 2.31 -23 22.36 -55.01 -12.29 -21.29c-5.12,16.18 -7.78,38.57 -17.05,50.29 -15.52,19.61 -16.77,29.58 -52.03,39.59 -13.98,3.96 -38.66,-3.17 -45.36,-14.49 -3.19,-5.39 -4.77,3.15 -5.28,-3.73 -0.5,-6.88 -0.46,-13.96 0.15,-21.24l13.21 -159.38 62.71 0.35 -11.77 141.99c-0.33,4.04 18.32,7.13 21.19,9.97 2.86,2.83 6.32,4.25 10.36,4.25 3.78,0 7.1,-1.08 9.98,-3.24 2.88,-2.16 5.12,-4.86 6.74,-8.09l12.04 -145.23 80.1 0 0 -0.01z"/>
   <g>
    <path class="fil4" d="M3072.11 8649.97c11.59,0 20.62,1.62 27.1,4.86 6.47,3.24 11.3,7.55 14.49,12.94 3.21,5.39 5.05,11.53 5.56,18.41 0.51,6.88 0.46,13.95 -0.14,21.24l-74.28 32.36c0.22,-2.7 0.06,-6.48 -0.47,-11.33 -0.55,-4.86 -2.41,-9.17 -5.61,-12.95 -3.19,-3.78 -8.29,-5.66 -15.31,-5.66 -3.5,0 -6.76,1.08 -9.77,3.24 -3.01,2.15 -5.34,4.98 -6.97,8.49l-12.01 144.81 -80.1 0 17.88 -215.6 80.1 0 -2.52 30.34 -22.76 55.01 5.99 0.82c5.12,-16.19 11.45,-30.75 19,-43.69 3.14,-5.4 6.75,-10.66 10.82,-15.78 4.06,-5.12 8.62,-9.71 13.68,-13.75 5.04,-4.05 10.51,-7.35 16.39,-9.92 5.88,-2.56 12.18,-3.84 18.93,-3.84z"/>
   </g>
   <g>
    <path class="fil4" d="M3324.43 8650.78l-17.88 215.6 -80.08 0 2.91 -30.33 22.36 -55.02 -6 -0.8c-5.11,16.17 -11.31,30.73 -18.58,43.68 -4.11,7.28 -9.08,14.29 -14.9,21.04 -5.81,6.73 -12.47,12.19 -19.96,16.38 -7.49,4.17 -15.82,6.27 -24.99,6.27 -11.6,0 -20.7,-1.63 -27.31,-4.86 -6.61,-3.23 -11.5,-7.55 -14.7,-12.94 -3.19,-5.39 -5.05,-11.53 -5.55,-18.41 -0.51,-6.87 -0.46,-13.95 0.14,-21.24l13.22 -159.37 80.08 0 -11.77 141.98c-0.34,4.05 0.93,7.49 3.8,10.32 2.86,2.83 6.32,4.24 10.37,4.24 3.78,0 7.1,-1.07 9.98,-3.23 2.86,-2.16 5.11,-4.86 6.73,-8.09l12.05 -145.22 80.08 0z"/>
   </g>
   <path class="fil4" d="M3452.12 8667.04c7.45,-2.16 15.57,-4.05 24.33,-5.67 7.39,-1.35 15.86,-2.63 25.4,-3.84 9.54,-1.21 19.44,-1.82 29.68,-1.82 12.95,0 25.85,1.35 38.7,4.05 12.86,2.7 24.18,7.69 33.96,14.97 9.77,7.28 17.44,17.25 23,29.93 5.55,12.68 7.5,28.99 5.85,48.95l-9.83 118.52 -80.49 0 2.88 -29.93 25.11 -61.84 -13.87 -5.87c-1.45,27.17 -24.81,49.19 -38.15,44.23 -7.37,-2.74 -2.27,11.03 -11.97,25.2 -5.01,7.32 -3.8,-15.34 -11.29,-11.17 -7.49,4.18 -10.07,-16.91 -19.24,-16.91 -9.16,0 -3.91,32.44 -10.47,28.67 -6.57,-3.78 -11.88,-8.77 -15.95,-14.97 -4.07,-6.2 -12.61,9.91 -14.11,1.95 -1.49,-7.96 -1.9,-16.12 -1.2,-24.48 0.96,-11.59 3.64,-21.91 8.02,-30.94 4.39,-9.03 9.95,-16.72 16.68,-23.06 6.72,-6.34 14.54,-11.13 23.44,-14.36 8.9,-3.24 18.21,-4.85 27.91,-4.85 7.82,0 14.5,0.81 20.03,2.42 5.53,1.62 9.97,3.37 13.32,5.26 4.11,2.43 7.39,5.12 9.84,8.09 0.36,-4.32 -0.6,-8.16 -2.88,-11.53 -2.29,-3.37 -5.55,-6.26 -9.8,-8.69 -4.25,-2.43 -9.22,-4.25 -14.92,-5.46 -5.69,-1.21 -11.78,-1.82 -18.25,-1.82 -9.44,0 -19.2,1.48 -29.3,4.45 -10.08,2.96 -19.3,7.55 -27.63,13.75l1.22 -73.22 -0.02 -0.01zm82.11 146.44c3.77,0 6.69,-1.01 8.74,-3.03 2.06,-2.02 3.92,-4.92 5.58,-8.7 1.01,-2.43 2.14,-5.53 3.4,-9.31 1.26,-3.77 2.1,-7.48 2.54,-11.12 0.43,-3.64 0.22,-6.81 -0.63,-9.51 -0.86,-2.7 -6.76,-16.81 -9.73,-16.81 -2.96,0 -6.21,0.94 -9.74,2.83 -3.53,1.89 -6.76,4.32 -9.71,7.28 -2.94,2.97 -23.6,17.71 -25.62,21.08 -2.04,3.37 -3.17,6.54 -3.42,9.51 -0.38,4.58 23.07,9.67 26.03,12.91 2.97,3.24 7.15,4.86 12.55,4.86l0.01 0.01z"/>
   <path class="fil4" d="M3388.47 8639.85c-5.93,0 -11.43,-1.15 -16.5,-3.44 -5.06,-2.29 -9.4,-5.4 -12.98,-9.31 -3.58,-3.91 -6.3,-8.56 -8.14,-13.95 -1.85,-5.4 -2.52,-11.06 -2.03,-17 0.49,-5.93 2.1,-11.53 4.83,-16.78 2.72,-5.26 6.21,-9.85 10.44,-13.76 4.23,-3.91 9.08,-7.01 14.52,-9.31 5.46,-2.29 11.14,-3.44 17.07,-3.44 6.21,0 11.84,1.15 16.91,3.44 5.07,2.29 9.4,5.4 12.98,9.31 3.59,3.91 6.31,8.5 8.17,13.76 1.85,5.25 2.54,10.85 2.05,16.78 -0.49,5.94 -2.11,11.6 -4.85,17 -2.74,5.39 -6.23,10.04 -10.47,13.95 -4.23,3.91 -9.07,7.01 -14.52,9.31 -5.45,2.29 -11.27,3.44 -17.48,3.44l0 0zm-40.95 10.92l80.09 0 -17.47 210.75c-1.8,21.58 -6.38,39.44 -13.75,53.61 -7.38,14.15 -16.48,25.48 -27.29,33.98 -10.82,8.49 -22.71,14.49 -35.68,18 -12.96,3.51 -25.92,5.26 -38.86,5.26 -8.9,0 -17.47,-0.67 -25.72,-2.02 -8.25,-1.35 -15.85,-3.17 -22.81,-5.46 -6.95,-2.29 -13.14,-4.86 -18.57,-7.69 -5.44,-2.83 -9.63,-5.86 -12.6,-9.1l11.33 -73.21c7.78,7 16.85,12.2 27.23,15.57 10.37,3.37 20.55,5.06 30.52,5.06 12.14,0 22.59,-2.43 31.35,-7.28 8.76,-4.86 13.57,-12.41 14.42,-22.65l17.81 -214.8 0 -0.02z"/>
   <g>
    <path class="fil4" d="M3449.78 8661.3c7.47,-2.16 15.57,-4.05 24.34,-5.66 7.39,-1.35 15.85,-2.64 25.39,-3.84 9.54,-1.22 19.44,-1.83 29.68,-1.83 12.95,0 25.85,1.35 38.7,4.05 12.86,2.69 24.18,7.68 33.95,14.97 9.78,7.27 17.45,17.25 23.01,29.93 5.55,12.67 7.5,28.99 5.85,48.94l-9.83 118.52 -80.49 0 2.88 -29.94 22.77 -55.01 -6 -0.8c-5.12,16.18 -11.44,30.6 -18.96,43.28 -4.11,7.28 -9.08,14.29 -14.9,21.04 -5.81,6.73 -12.47,12.19 -19.96,16.38 -7.5,4.17 -15.82,6.27 -24.99,6.27 -9.17,0 -17.03,-1.9 -23.6,-5.66 -6.56,-3.78 -11.88,-8.77 -15.95,-14.97 -4.07,-6.21 -6.86,-13.29 -8.35,-21.24 -1.51,-7.95 -1.91,-16.11 -1.21,-24.47 0.96,-11.59 3.64,-21.91 8.02,-30.95 4.39,-9.03 9.95,-16.72 16.69,-23.05 6.72,-6.34 14.53,-11.13 23.43,-14.36 8.9,-3.24 18.2,-4.85 27.91,-4.85 7.82,0 14.49,0.8 20.03,2.42 5.52,1.61 9.96,3.37 13.31,5.26 4.12,2.42 7.39,5.12 9.85,8.09 0.35,-4.31 -0.61,-8.16 -2.89,-11.53 -2.29,-3.37 -5.54,-6.27 -9.8,-8.7 -4.24,-2.42 -9.22,-4.24 -14.91,-5.46 -5.7,-1.22 -11.79,-1.82 -18.26,-1.82 -9.43,0 -19.2,1.48 -29.29,4.45 -10.09,2.97 -19.3,7.56 -27.64,13.75l1.22 -73.21zm82.11 146.43c3.77,0 6.69,-1.01 8.75,-3.04 2.05,-2.02 3.91,-4.92 5.57,-8.69 1.01,-2.43 2.15,-5.53 3.41,-9.3 1.25,-3.78 2.09,-7.49 2.53,-11.13 0.43,-3.64 0.23,-6.8 -0.62,-9.5 -0.86,-2.7 -2.77,-4.05 -5.74,-4.05 -2.97,0 -6.22,0.95 -9.74,2.83 -3.53,1.89 -6.76,4.32 -9.7,7.29 -2.95,2.96 -5.43,6.12 -7.47,9.5 -2.03,3.37 -3.17,6.54 -3.42,9.5 -0.38,4.58 0.92,8.5 3.88,11.74 2.97,3.23 7.15,4.85 12.55,4.85z"/>
   </g>
   <path class="fil3" d="M2899.91 8631.23l14.35 4.07c2.16,-4.5 3.99,-9.64 5.53,-15.53 7.08,-50.39 0.06,-95.3 -29.1,-118.36 18.93,26.02 27.43,66.17 21.51,99.8 -2.32,13.19 -6.36,22.9 -12.28,30.02l-0.01 0z"/>
   <path class="fil3" d="M2706.67 8716.74c0.05,-0.1 0.12,-0.21 0.17,-0.31 11.54,-20.55 35.44,-55.15 72.87,-64.1 28.95,-7.2 56.46,8.67 75.04,6.6 25.8,-2.86 44.46,-13.48 54.14,-43.11 13.59,-41.62 4.25,-96.28 -23.4,-119.34 17.23,26.02 22.51,66.82 14.39,100.45 -7.29,30.19 -22.4,42.13 -47.89,46.65 -18.38,3.26 -47.08,-10.78 -75.38,-1.73 -51.5,23.87 -58.04,53.23 -70.33,74.41 -0.08,0.15 -0.57,0.92 -0.12,0.63 0.15,-0.11 0.5,-0.16 0.5,-0.16l0.01 0.01z"/>
   <polygon class="fil3" points="2803.37,8542.12 2799.27,8552.16 2793.57,8542.94 2797.92,8535.97 "/>
   <path class="fil3" d="M2897.17 8432.02l0 -11.5 -3.23 1.09 0 10.42 -1.58 0 0 2.12c-0.39,0.59 -0.61,1.3 -0.61,2.06l0 12.31c0,2.11 1.7,3.81 3.8,3.81 2.11,0 3.81,-1.7 3.81,-3.81l0 -12.31c0,-0.76 -0.23,-1.48 -0.62,-2.07l0 -2.11 -1.58 0 0.01 -0.01z"/>
   <path class="fil3" d="M2877.79 8431.52l-36.09 12.24c-0.34,0.12 -0.68,0.18 -1.04,0.18 -0.34,0 -0.69,-0.06 -1.03,-0.18l-36.09 -12.24 0 14.21 0.04 0 -0.08 0.41c0,3.6 16.64,11.64 37.15,11.64 20.5,0 37.1,-8.04 37.1,-11.64l-0.08 -0.41 0.12 0 0 -14.21 0 0z"/>
   <polygon class="fil3" points="2803.54,8427.86 2840.66,8440.46 2877.79,8427.86 2893.94,8422.38 2897.17,8421.3 2898.86,8420.72 2840.66,8401.12 2782.47,8420.72 "/>
  </g>
 </g>
</svg>
