<?xml version="1.0" encoding="UTF-8"?>
<!DOCTYPE svg PUBLIC "-//W3C//DTD SVG 1.0//EN" "http://www.w3.org/TR/2001/REC-SVG-20010904/DTD/svg10.dtd">
<!-- Creator: CorelDRAW 2021 (64 Bit) -->
<svg xmlns="http://www.w3.org/2000/svg" xml:space="preserve" width="60.9598mm" height="108.373mm" version="1.0" style="shape-rendering:geometricPrecision; text-rendering:geometricPrecision; image-rendering:optimizeQuality; fill-rule:evenodd; clip-rule:evenodd"
viewBox="0 0 6095.98 10837.32"
 xmlns:xlink="http://www.w3.org/1999/xlink"
 xmlns:xodm="http://www.corel.com/coreldraw/odm/2003">
 <defs>
  <style type="text/css">
   <![CDATA[
    .str0 {stroke:black;stroke-width:16.93;stroke-miterlimit:22.9256}
    .fil0 {fill:none}
    .fil2 {fill:black}
    .fil3 {fill:black}
    .fil1 {fill:black;fill-rule:nonzero}
    .fil4 {fill:white;fill-rule:nonzero}
   ]]>
  </style>
 </defs>
 <g id="Camada_x0020_1">
  <metadata id="CorelCorpID_0Corel-Layer"/>
  <rect class="fil0" x="-0.01" y="-0.01" width="6095.99" height="10837.33"/>
  <polygon class="fil1" points="5052.96,5466.59 5196.74,5466.59 5196.74,5722.2 5052.96,5722.2 "/>
  <path class="fil1" d="M2707.81 7927.98l-29.14 0 -5.37 14.86 -9.2 0 24.15 -66.43 10.06 0 24.07 66.43 -9.21 0 -5.36 -14.86zm-2.5 -7.09l-12.07 -33.74 -12.09 33.74 24.16 0zm68.72 -44.86l0 7.1 -18.22 0 0 59.71 -8.72 0 0 -59.71 -18.31 0 0 -7.1 45.25 0zm51.87 0l0 7.1 -18.22 0 0 59.71 -8.72 0 0 -59.71 -18.31 0 0 -7.1 45.25 0zm19.45 59.72l23.39 0 0 7.09 -32.11 0 0 -66.81 8.72 0 0 59.72zm72.13 -7.77l-29.14 0 -5.36 14.86 -9.21 0 24.16 -66.43 10.07 0 24.05 66.43 -9.2 0 -5.37 -14.86zm-2.49 -7.09l-12.08 -33.74 -12.07 33.74 24.15 0zm48.78 22.62c-4.41,0 -8.37,-0.76 -11.89,-2.3 -3.45,-1.6 -6.17,-3.77 -8.15,-6.52 -1.98,-2.81 -3,-6.04 -3.07,-9.68l9.3 0c0.32,3.14 1.6,5.79 3.84,7.96 2.3,2.11 5.62,3.16 9.97,3.16 4.15,0 7.41,-1.02 9.77,-3.07 2.44,-2.11 3.65,-4.79 3.65,-8.05 0,-2.55 -0.71,-4.63 -2.11,-6.23 -1.4,-1.6 -3.16,-2.81 -5.28,-3.64 -2.1,-0.83 -4.95,-1.73 -8.53,-2.69 -4.41,-1.14 -7.95,-2.3 -10.64,-3.44 -2.62,-1.16 -4.88,-2.94 -6.8,-5.37 -1.85,-2.5 -2.78,-5.82 -2.78,-9.97 0,-3.64 0.93,-6.87 2.78,-9.69 1.85,-2.8 4.44,-4.98 7.76,-6.51 3.39,-1.53 7.26,-2.3 11.6,-2.3 6.26,0 11.38,1.56 15.34,4.7 4.03,3.12 6.29,7.28 6.8,12.46l-9.58 0c-0.32,-2.56 -1.66,-4.8 -4.03,-6.72 -2.36,-1.98 -5.49,-2.97 -9.39,-2.97 -3.64,0 -6.61,0.96 -8.91,2.88 -2.3,1.85 -3.46,4.47 -3.46,7.86 0,2.43 0.67,4.41 2.02,5.94 1.4,1.53 3.1,2.72 5.08,3.55 2.05,0.77 4.89,1.66 8.53,2.68 4.41,1.22 7.95,2.43 10.64,3.65 2.68,1.15 4.98,2.97 6.9,5.46 1.91,2.43 2.87,5.75 2.87,9.97 0,3.26 -0.86,6.32 -2.58,9.2 -1.73,2.88 -4.29,5.21 -7.67,7 -3.39,1.79 -7.38,2.68 -11.98,2.68zm65.37 0c-6.2,0 -11.85,-1.43 -16.97,-4.31 -5.11,-2.94 -9.17,-7 -12.17,-12.18 -2.94,-5.24 -4.41,-11.11 -4.41,-17.63 0,-6.52 1.47,-12.37 4.41,-17.54 3,-5.25 7.06,-9.3 12.17,-12.18 5.12,-2.94 10.77,-4.4 16.97,-4.4 6.26,0 11.95,1.46 17.06,4.4 5.11,2.88 9.14,6.9 12.08,12.08 2.94,5.18 4.41,11.06 4.41,17.64 0,6.58 -1.47,12.46 -4.41,17.63 -2.94,5.18 -6.97,9.24 -12.08,12.18 -5.11,2.88 -10.8,4.31 -17.06,4.31zm0 -7.57c4.66,0 8.85,-1.08 12.56,-3.26 3.77,-2.17 6.71,-5.27 8.82,-9.3 2.17,-4.02 3.26,-8.69 3.26,-13.99 0,-5.37 -1.09,-10.03 -3.26,-13.99 -2.11,-4.03 -5.02,-7.13 -8.73,-9.3 -3.7,-2.18 -7.92,-3.26 -12.65,-3.26 -4.73,0 -8.95,1.08 -12.65,3.26 -3.71,2.17 -6.65,5.27 -8.82,9.3 -2.11,3.96 -3.16,8.62 -3.16,13.99 0,5.3 1.05,9.97 3.16,13.99 2.17,4.03 5.11,7.13 8.82,9.3 3.77,2.18 7.98,3.26 12.65,3.26zm82.84 -59.91l0 7.1 -29.05 0 0 22.52 23.58 0 0 7.09 -23.58 0 0 30.1 -8.72 0 0 -66.81 37.77 0zm51.65 0l0 7.1 -18.22 0 0 59.71 -8.72 0 0 -59.71 -18.31 0 0 -7.1 45.25 0zm13.51 67.39c-1.66,0 -3.07,-0.58 -4.22,-1.73 -1.15,-1.15 -1.72,-2.55 -1.72,-4.21 0,-1.66 0.57,-3.07 1.72,-4.22 1.15,-1.15 2.56,-1.73 4.22,-1.73 1.6,0 2.94,0.58 4.03,1.73 1.15,1.15 1.72,2.56 1.72,4.22 0,1.66 -0.57,3.06 -1.72,4.21 -1.09,1.15 -2.43,1.73 -4.03,1.73zm14.09 -34.03c0,-6.52 1.47,-12.37 4.41,-17.54 2.94,-5.25 6.93,-9.33 11.98,-12.27 5.12,-2.94 10.77,-4.41 16.97,-4.41 7.29,0 13.64,1.76 19.07,5.27 5.44,3.51 9.4,8.5 11.89,14.96l-10.45 0c-1.85,-4.03 -4.53,-7.13 -8.05,-9.3 -3.45,-2.18 -7.61,-3.26 -12.46,-3.26 -4.67,0 -8.85,1.08 -12.56,3.26 -3.7,2.17 -6.61,5.27 -8.72,9.3 -2.11,3.96 -3.16,8.62 -3.16,13.99 0,5.3 1.05,9.97 3.16,13.99 2.11,3.96 5.02,7.03 8.72,9.21 3.71,2.17 7.89,3.26 12.56,3.26 4.85,0 9.01,-1.06 12.46,-3.17 3.52,-2.17 6.2,-5.27 8.05,-9.3l10.45 0c-2.49,6.39 -6.45,11.35 -11.89,14.86 -5.43,3.45 -11.78,5.18 -19.07,5.18 -6.2,0 -11.85,-1.44 -16.97,-4.31 -5.05,-2.94 -9.04,-7 -11.98,-12.18 -2.94,-5.18 -4.41,-11.02 -4.41,-17.54zm107.6 34.12c-6.2,0 -11.86,-1.43 -16.97,-4.31 -5.11,-2.94 -9.17,-7 -12.17,-12.18 -2.94,-5.24 -4.41,-11.11 -4.41,-17.63 0,-6.52 1.47,-12.37 4.41,-17.54 3,-5.25 7.06,-9.3 12.17,-12.18 5.11,-2.94 10.77,-4.4 16.97,-4.4 6.26,0 11.95,1.46 17.06,4.4 5.12,2.88 9.14,6.9 12.08,12.08 2.94,5.18 4.4,11.06 4.4,17.64 0,6.58 -1.46,12.46 -4.4,17.63 -2.94,5.18 -6.96,9.24 -12.08,12.18 -5.11,2.88 -10.8,4.31 -17.06,4.31zm0 -7.57c4.66,0 8.85,-1.08 12.56,-3.26 3.76,-2.17 6.7,-5.27 8.81,-9.3 2.18,-4.02 3.26,-8.69 3.26,-13.99 0,-5.37 -1.08,-10.03 -3.26,-13.99 -2.11,-4.03 -5.01,-7.13 -8.72,-9.3 -3.7,-2.18 -7.92,-3.26 -12.65,-3.26 -4.73,0 -8.95,1.08 -12.65,3.26 -3.71,2.17 -6.65,5.27 -8.82,9.3 -2.11,3.96 -3.17,8.62 -3.17,13.99 0,5.3 1.06,9.97 3.17,13.99 2.17,4.03 5.11,7.13 8.82,9.3 3.77,2.18 7.99,3.26 12.65,3.26zm112.84 -59.43l0 66.33 -8.73 0 0 -49.46 -22.04 49.46 -6.14 0 -22.14 -49.56 0 49.56 -8.72 0 0 -66.33 9.39 0 24.54 54.83 24.54 -54.83 9.3 0z"/>
  <path class="fil1" d="M2847.38 7820.02l-35.51 -289.39 -37.62 0 -37.63 289.39 31.65 0c1.76,-15.13 3.16,-29.54 5.62,-44.67l35.52 0 5.27 44.67 32.7 0zm-70.32 -74.54c5.62,-42.55 10.54,-86.51 14.78,-131.51 4.21,45 8.78,87.55 14.05,131.51l-28.83 0z"/>
  <polygon class="fil1" points="2905.74,7820.02 2905.74,7563.34 2935.97,7563.34 2935.97,7530.63 2843.15,7530.63 2843.15,7563.34 2873.39,7563.34 2873.39,7820.02 "/>
  <polygon class="fil1" points="2996.87,7820.02 2996.87,7563.34 3027.11,7563.34 3027.11,7530.63 2934.28,7530.63 2934.28,7563.34 2964.52,7563.34 2964.52,7820.02 "/>
  <polygon class="fil1" points="3125.54,7820.02 3125.54,7787.67 3078.07,7787.67 3078.07,7530.63 3045.72,7530.63 3045.72,7820.02 "/>
  <path class="fil1" d="M3242.97 7820.02l-35.49 -289.39 -37.63 0 -37.62 289.39 31.63 0c1.76,-15.13 3.17,-29.54 5.63,-44.67l35.51 0 5.29 44.67 32.68 0zm-70.3 -74.54c5.62,-42.55 10.54,-86.51 14.76,-131.51 4.21,45 8.79,87.55 14.06,131.51l-28.82 0z"/>
  <path class="fil1" d="M3311.19 7775.35c0,10.21 -4.92,15.48 -14.05,15.48 -9.85,0 -14.07,-5.97 -14.07,-15.48l0 -61.52 -31.29 0 0 61.52c0,30.95 13.7,47.83 46.06,47.83 32.35,0 45.71,-16.88 45.71,-47.83l0 -41.49c0,-22.49 -3.17,-32.69 -12.3,-46.05 -10.9,-15.82 -33.76,-40.09 -40.79,-49.93 -4.57,-5.97 -5.63,-11.6 -5.63,-19.7l0 -42.89c0,-10.2 4.57,-15.12 13.71,-15.12 9.84,0 13.71,5.98 13.71,15.47l0 52.4 30.24 0 0 -52.75c0,-32.01 -12.3,-47.82 -43.95,-47.82 -31.3,0 -46.76,15.46 -46.76,47.82l0 43.24c0,16.89 2.11,26.38 8.78,36.57 8.44,13.02 30.95,37.63 40.44,49.94 8.09,10.19 10.19,16.17 10.19,29.18l0 41.13z"/>
  <polygon class="fil2" points="2736.46,7842.24 3342.63,7842.24 3342.63,7835.92 2736.46,7835.92 "/>
  <g id="_1365938763680">
   <polygon class="fil1" points="5052.96,5466.59 5196.74,5466.59 5196.74,5722.2 5052.96,5722.2 "/>
   <polygon class="fil1" points="883.27,5466.59 1027.05,5466.59 1027.05,5722.2 883.27,5722.2 "/>
   <polygon class="fil1" points="883.27,2702.77 1027.05,2702.77 1027.05,3054.24 883.27,3054.24 "/>
   <polygon class="fil1" points="1250.71,2702.77 1250.71,2846.55 899.24,2846.55 899.24,2702.77 "/>
   <polygon class="fil1" points="5204.73,2694.78 5204.73,2838.57 4853.26,2838.57 4853.26,2694.78 "/>
   <polygon class="fil1" points="5204.73,3062.23 5060.95,3062.23 5060.95,2710.76 5204.73,2710.76 "/>
   <polygon class="fil1" points="5212.71,8134.55 5068.93,8134.55 5068.93,7783.08 5212.71,7783.08 "/>
   <polygon class="fil1" points="4845.27,8134.55 4845.27,7990.77 5196.74,7990.77 5196.74,8134.55 "/>
  </g>
  <polygon class="fil1" points="883.27,8142.54 883.27,7998.76 1234.74,7998.76 1234.74,8142.54 "/>
  <polygon class="fil1" points="883.27,7775.09 1027.05,7775.09 1027.05,8126.57 883.27,8126.57 "/>
  <path class="fil2" d="M4601.79 3344.38c-19.49,9.72 -47.87,-4.13 -67.34,5.59 -5.9,6.25 -1.37,39.55 -1.81,50.6 -0.9,22.53 -13.58,15.63 -34.04,19.76l-3.3 32.21 -33.02 3.33c-5.28,28.67 4.92,31.96 -17.2,34.53 -8.72,1.01 -16.28,-1.74 -19.03,8.51 -8.86,33.09 15.01,27.22 -56.45,27.22 -44.46,0 20.1,-40.71 -50.87,-34.53 -1.52,10.21 -1.23,23.05 -1.14,34.53 0.32,38.75 1.88,36.38 -43.1,35.74 -24.43,-0.35 -28.48,-2.12 -28.48,20.19 0,29.41 40.25,9.35 69.51,17.73l3.39 32.2c32.65,6.01 31.51,-5.23 34.48,25.53 1.26,13.03 6.3,11.78 19.01,11.78 26.71,0 13.11,-12.48 18.38,-34.9 25.24,-2.87 34.19,4.57 34.19,-21.58 0,-27.94 -33.44,-10.46 -69.97,-16.31 -5.91,-43.48 4.94,-34.6 45.36,-34.58 19.06,0 42.47,2.14 59.21,-1.6l2.79 -27.73c6.04,-20.26 63.58,9.65 69.14,-15.42l2.04 -25.64 69.21 -0.25c3.26,34.62 2.98,70.62 -0.11,105.26l-68.7 0.18c-7.25,-32.39 16.92,-41.04 -70.61,-33.76l-1.39 32.74 32.61 3.26 3.32 33.02c32.65,6.01 31.5,-5.23 34.48,25.53 1.27,13.03 6.3,11.78 19.01,11.78 26.71,0 13.11,-12.48 18.38,-34.9l32.6 0.08 1.59 53.84c-0.1,24.26 -11.63,16.77 -55.37,16.77 -37.81,0 4.38,-35.79 -30.76,-35.79 -67.4,0 -53.2,-7.35 -57.93,34.18 -43.83,5.8 -30.55,1.32 -36.09,-32.99 -46.45,-4.47 -34.6,1.96 -34.6,54.18 0,21.41 7.73,16.54 27.89,16.27 51.73,-0.69 37.65,-4.02 45.27,33.69l32.21 3.3 3.32 33.02 53.49 1.51c18.58,-0.08 16.77,-4.29 16.77,-20.68 0,-23.38 -12.83,-12.89 -34.17,-16.31 -6.33,-46.56 6.41,-34.58 53.75,-34.58 32.18,0 8.06,40 18.27,68.9 25.62,6.34 76.21,4.5 103.45,1.25l2.68 -29.97 15.26 -4.57c6.03,-0.55 12.11,-0.02 18.14,-0.69 4.55,-19.65 -5.67,-33.25 18.26,-35.05 7.12,-0.54 11.3,0.01 17.93,-1.06l1.53 -23.23c3.74,-20.93 41.64,-11.38 78.51,-11.38 13.1,0 26.18,-0.05 39.27,0.12 21.21,0.29 25.04,1.98 25.04,-19.69 0,-24.92 -19.11,-16.22 -69.9,-16.22 -58.75,0 -73.26,10.08 -73.26,-20.13 0,-23.28 13.28,-13.11 33.74,-17.24l0.36 -32.69c-28.17,-5.36 -31.58,5.02 -34.16,-17.2 -1.11,-9.52 2.18,-15.99 -8.44,-19.09 -18.39,-5.35 -43.55,0.76 -61.89,-2.24 -5.93,-36.3 8.32,-37.02 -36.16,-33.36 -2.75,25.57 4.66,34.58 -21.52,34.58 -22.41,0 -15.09,-17.2 -15.09,-55.37 0,-41.29 71.57,8.15 71.57,-30.76l0 -78.29c0,-16.47 -5.95,-14.54 -20.13,-14.54 -29.43,0 -9.33,40.22 -17.74,69.5 -28.8,5.57 -59.27,2.16 -88.52,2.07 -24.35,-0.07 -16.78,-10.95 -16.78,-57.03 0,-27.81 38.26,-8.95 70.4,-16.14l1.53 -22.86c4.91,-27.91 35.45,9.21 35.45,-30.91 0,-23.83 -14.53,-16.22 -57.04,-16.22 -24.97,0 -9.11,15.57 -16.68,33zm40.52 397.57l-1.38 32.69c18.58,3.35 13.53,2.8 33.04,0.33l0.09 -32.19 -31.75 -0.83zm101.33 -40.31c7.04,-8.68 5.18,-111.09 -0.76,-101.43l-20.88 -2.62c-21.41,0.17 -65.61,-1.97 -80.21,2.19 -3.79,13.28 -5.02,97.35 1.14,102.95 3.67,3.33 92.1,5.89 100.71,-1.09z"/>
  <path class="fil2" d="M4034.61 3880.7c10.49,8.15 42.42,3.35 58.16,3.35 29.18,0 182.02,3.83 187.35,-3.13 3.77,-11.87 3.28,-231.26 0.15,-245.89 -16.8,-3.58 -241.03,-3.69 -245.92,0.63 -6.88,6.07 -3.09,154.57 -3.09,184.08 0,16.28 -5.11,50.07 3.35,60.96zm34.99 -210.96c-0.29,1.17 -0.9,1.37 -0.99,2.56 -0.09,1.23 -0.73,1.67 -0.84,2.25l0 172.82 170.48 0.68c10.35,-2.42 3.51,-0.84 6.85,-2.38l0.91 -162.95c0,-13.25 -0.17,-13.42 -13.43,-13.42l-162.98 0.44z"/>
  <path class="fil2" d="M4677.19 2992.38c-3.76,11.85 -3.26,231.4 -0.14,245.88 14.48,3.12 234.03,3.62 245.88,-0.14 7.04,-5.4 4.09,-242.23 0.29,-246.03 -3.21,-3.21 -228.64,-7.69 -246.03,0.29zm35.02 35.26l-0.91 162.94c0,13.24 0.19,13.43 13.43,13.43l162.98 -0.44c5.34,-21.28 3.71,-149.01 1.84,-177.64 -22.59,-2.17 -165.9,-3.55 -177.34,1.71z"/>
  <path class="fil2" d="M4031.26 3003.24l0 220.9c0,20.78 2.22,15.67 50.33,15.66 39.38,0 179.33,2.64 198.67,-1.55 3.47,-16.03 2.26,-189.81 1.78,-232.5 -0.18,-16.21 -0.57,-16.5 -15.9,-16.5l-220.9 0c-11.53,0 -13.98,2.46 -13.98,13.99zm38.39 199.85c19.51,3.53 162.68,4.65 173.99,-1.45 6.13,-11.37 4.97,-154.36 1.46,-174l-177.14 -1.69c-3.88,32.16 -2.15,162.88 0.91,174.83 0.15,0.6 0.44,1.57 0.78,2.31z"/>
  <path class="fil2" d="M4318.42 2990.47c-1.75,16.42 -3.65,130.2 1.83,136.93 3.97,4.88 0.29,2.67 7.77,4.45 17.47,4.14 25.36,-8.19 25.36,19.59 0,26.65 -12.56,13.15 -34.92,18.36l0.43 68.44c62.2,12.99 12.09,-34.23 50.71,-34.23 25.15,0 19.58,-0.6 19.58,53.68 -0.01,54.15 -5.8,53.69 19.57,53.69 22.36,0 14.04,-8.06 16.38,-22.83 2.99,-18.95 7.5,-9.28 33.58,-14.54 3.38,-18.21 2.77,-13.37 0.36,-32.69 -36.23,-6.89 -34.44,8.26 -34.12,-36.75 0.18,-23.8 1.75,-91.78 -1.56,-106.76 -9.16,-1.44 -24.14,0.39 -32.13,-4.7l-2.93 -28.85c-12.47,-5.51 -21.09,-2.67 -33.33,-4.63 -12.3,-54.12 24.47,-74.18 -36.58,-69.16z"/>
  <path class="fil2" d="M4782.89 3291.25c0,61.31 -7.4,58.2 34.96,54.7 4.04,-37.49 -15.62,-34.57 57.87,-34.57 14.85,0 14.54,3.45 14.54,19.02 0,26.65 -12.56,13.15 -34.92,18.36l-4.06 30.12c-1.76,3.76 -24.81,4.43 -29.99,4.96 -4.05,18.35 -3.14,13.05 -1.43,32.91l32.61 3.26 3.32 33.02c22.78,2.94 30.05,1.61 53.49,1.51 15.63,0 16.77,0.58 16.77,-15.09 0,-41.19 1.78,-126.7 -1.22,-163.03 -23.41,-2.53 -85.4,-0.53 -116.36,-0.93 -17.03,-0.22 -25.58,-3.51 -25.58,15.76z"/>
  <path class="fil2" d="M4745.01 3808.95l-14.59 3.65c-7.09,0.53 -10.98,0.02 -17.52,1.06 -3.09,23.05 -1.7,29.82 -1.6,53.61 0,15.74 -0.51,16.78 16.22,16.78l181.76 0c19.1,0 18.93,-3.63 16.77,-55.92l-1.22 -14.83 -32.99 0.13c-5.68,25.62 9.8,34.83 -21.71,34.83 -23.27,0 -13.11,-13.3 -17.24,-33.74 -18.7,-5.56 -50.44,3.16 -67.92,-4.76 -7.82,-21.91 10.11,-33.08 -21.1,-33.08 -29.1,0 -10.62,12.18 -18.86,32.27z"/>
  <path class="fil2" d="M4032.83 3276.29c-5.36,48 3.93,31.55 33.02,36.29 3.65,22.52 -3.21,60.32 5.51,67.71 6.57,5.57 10.95,0.58 21.03,3.26 15.58,4.14 8.05,13.48 12.03,33.16 18.21,3.38 13.37,2.77 32.69,0.36 5.04,-25.81 -8.23,-34.1 22.77,-34.1 23.34,0 11.51,14.01 16.14,34.6l32.62 0.49c3,-23.48 1.68,-29.99 1.58,-54.11 0,-29.18 -14.16,-9.85 -33.66,-19.57 -3.57,-8.22 -1.36,-5.31 -1.99,-14.03l-1.22 -10.41c-6.11,-19.77 -47.71,-3.48 -67.8,-10.64 -4.55,-10.02 -1.8,-20.72 -4.29,-32.13 -22.64,-3.1 -45.62,-1.94 -68.43,-0.88z"/>
  <path class="fil2" d="M4206.82 3164.79c7.3,-9.2 3.4,-35.62 3.4,-49.7 0,-12.95 6.65,-49.22 -6.41,-52.71l-4.83 -1.29c-3.33,-0.54 -10.25,-0.44 -13.86,-0.41 -21.42,0.17 -65.56,-1.92 -80.29,2.15 -3.72,13.43 -4.99,97.48 1.16,103.07 3.65,3.31 92.14,5.87 100.83,-1.11z"/>
  <path class="fil2" d="M4102.8 3721.87c0,27.48 -1.52,62.2 1.51,88.68 27.84,4.85 63.01,2.02 91.93,1.95 14.27,0 13.98,-1.58 13.98,-15.13l0 -75.5c0,-25.28 -16.7,-16.81 -92.28,-16.81 -16.05,0 -15.14,0.82 -15.14,16.81z"/>
  <path class="fil2" d="M4747.05 3075.94l0 78.29c0,11.53 2.51,14.02 14.03,14.02 87.1,0 93.39,7.98 93.39,-16.81 0,-27.47 1.51,-62.18 -1.5,-88.65 -27.73,-4.93 -63.05,-2.06 -91.89,-1.98 -14.36,0 -14.03,1.45 -14.03,15.13z"/>
  <path class="fil2" d="M4284.37 3384.01c-4.4,11.04 -1.64,21.75 -4.18,33.13 -20.17,4.5 -47.29,-2.41 -65.76,4.11 -0.56,0.19 -1.48,0.58 -2.15,1.01l-2.92 28.84 -15.75 3.63c-5.49,0.34 -13.93,-0.14 -19.76,-0.18 -11.35,-0.09 -24.33,-0.47 -33.63,1.59 -9.4,42.41 10.89,34.44 33.64,34.21 10.84,-0.11 24.62,-1.75 33.56,2.12 9.66,19.37 -9.56,33.66 19.57,33.66l53.98 -1.22 -0.13 -33c-25.65,-5.63 -34.83,9.78 -34.83,-21.7 0,-30.97 31.82,-7.01 69.52,-17.72 4.22,-22.08 3.14,-45.33 0.63,-67.65l-31.79 -0.83z"/>
  <path class="fil2" d="M4424.97 3039.59c0,31.08 8.1,17.6 33.72,22.85 3.68,12.28 2.08,42.12 2.08,58.24 -0.02,59.73 -17.94,47.53 90.59,47.53 16.71,0 16.77,-1.96 16.77,-19.57 0,-30.5 -21.71,-7.16 -33.09,-20.55 -7.11,-8.37 2.62,-20.38 -7.72,-28.8 -5.53,-4.51 -17.98,-2.07 -28.7,-4.26 -5.6,-18.69 3.11,-50.42 -4.75,-67.93 -20.83,-3.96 -31.61,-2.13 -54.36,-2.05 -13.67,0 -14.54,0.87 -14.54,14.54z"/>
  <path class="fil2" d="M4372.4 3848.26c-12.96,0 -16.88,1.31 -18.82,-9.27 -2.41,-13.16 9.13,-34.58 -34.4,-24.93 -3.12,22.63 -1.95,45.61 -0.89,68.42 29.89,3.81 60.37,1.64 90.46,1.57 25.58,-0.05 12.01,-9.65 17.31,-27.21 4.19,-13.88 12.27,-5.99 24.25,-9.15 7.45,-1.97 3.75,0.51 7.79,-4.47 5.81,-7.12 3.42,-55.51 0.61,-64.97 -22.05,-3.09 -29.86,-1.66 -52.76,-1.57 -44.61,0.19 11,71.58 -33.55,71.58z"/>
  <path class="fil2" d="M4281.8 3327.6c0,42.26 29.19,1.95 34.93,28.4l2.04 25.38c11.2,2.5 22.58,-0.39 31.9,4.3 4.7,9.35 1.79,20.68 4.31,31.89l32.62 0.49c5.69,-25.04 -7.02,-33.32 18.25,-35.22 7.13,-0.54 11.3,0.01 17.93,-1.06 3.85,-40.09 0.49,-35.03 -26.15,-34.68 -13.07,0.17 -30.77,2.93 -42.11,-2.72 -7.57,-17.43 8.29,-33 -16.68,-33 -55.01,0 -57.04,-4.9 -57.04,16.22z"/>
  <path class="fil2" d="M4101.62 3560.31c-54.18,12.27 -74.17,-24.43 -69.14,36.58 23.4,2.52 85.41,0.53 116.36,0.93 22.26,0.28 25.58,2.94 25.58,-21.36 0,-23.36 -13.83,-11.49 -34.59,-16.14 -4.19,-26.27 9.14,-34.19 -21.89,-34.19 -23.39,0 -12.87,12.85 -16.32,34.18z"/>
  <path class="fil2" d="M4031.26 3397.51c0,110.38 -14.43,92.83 56.62,92.83 20.59,0 17.09,-17.24 13.38,-34.21 -11.4,-2.5 -22.08,0.26 -32.13,-4.28 -12.58,-35.28 17.42,-68.88 -21.1,-68.88 -14.22,0 -16.77,0.02 -16.77,14.54z"/>
  <path class="fil2" d="M4176 3276.55c-5.24,44.46 -8.15,34.83 90.14,34.83 21.29,0 17.78,-17.24 14.08,-34.21 -25.88,-3.55 -76.77,-2.43 -104.22,-0.62z"/>
  <path class="fil2" d="M4856.52 3810.89l31.87 0.15 2.69 -29.97c10.38,-6.85 21.15,-3.9 33.39,-5.26 5.52,-42.62 4.28,-34.92 -54.16,-34.92 -20.57,0 -16.09,10.35 -15.9,28.44 0.14,13.72 -1.19,30.48 2.11,41.56z"/>
  <path class="fil2" d="M4568.13 3006.03l1.23 53.97 33 -0.12c2.46,-11.42 -0.39,-22.83 4.27,-32.13 9.32,-4.67 20.7,-1.79 31.9,-4.3l0.49 -32.62c-23.48,-3 -29.99,-1.68 -54.11,-1.58 -15.38,0 -16.78,1.4 -16.78,16.78z"/>
  <path class="fil2" d="M4890.26 3576.46c0,59.56 -4.69,57.05 19.02,57.05 21.41,0 16.77,1.26 16.77,-57.05 0,-15.45 -3.02,-14.53 -19.57,-14.53 -13.65,0 -16.22,0.94 -16.22,14.53z"/>
  <path class="fil2" d="M4318.73 3670.56l-0.19 68.76c42.23,5.48 34.84,3.8 34.84,-53.8 0,-19.47 -5.87,-17.47 -34.65,-14.96z"/>
  <path class="fil2" d="M4175.61 3560.73c26.89,4.35 38.46,3.29 34.8,-23.47 -1.54,-11.26 -5.14,-11.39 -16.93,-11.62 -25.37,-0.51 -21.31,13.9 -17.87,35.09z"/>
  <path class="fil2" d="M4533.53 3560.73c26.89,4.35 38.46,3.29 34.8,-23.47 -1.54,-11.26 -5.14,-11.39 -16.93,-11.62 -25.37,-0.51 -21.31,13.9 -17.87,35.09z"/>
  <path class="fil2" d="M4818.68 3542.91c0,19.79 -0.32,19.02 20.69,19.02 15.62,0 15.1,-1.6 15.1,-19.02 0,-17.67 0.91,-16.78 -20.69,-16.78 -15.94,0 -15.1,0.89 -15.1,16.78z"/>
  <path class="fil2" d="M4782.89 3470.21c0,21.1 -0.98,20.13 20.13,20.13 21.29,0 17.78,-17.24 14.08,-34.21 -16.96,-3.72 -34.21,-7.21 -34.21,14.08z"/>
  <path class="fil2" d="M4749.89 3492.45c-17.71,35.47 22.33,39.92 30.88,30.89 3.76,-8.69 2.36,-22.91 0.93,-31.81 -11.11,-1.8 -20.69,-2.27 -31.81,0.92z"/>
  <path class="fil2" d="M4691.17 3669.3c21.08,0 20.13,0.94 20.13,-20.13 0,-10.06 -0.79,-13.86 -9.48,-15.66 -21.6,-4.5 -29.06,2.84 -26.6,23.86 1.23,10.48 4.66,11.93 15.95,11.93z"/>
  <path class="fil2" d="M4747.1 3363.95c0,21.69 -0.8,20.3 34.62,18.07 3.33,-35.72 2.96,-34.85 -17.85,-34.85 -15.38,0 -16.77,1.4 -16.77,16.78z"/>
  <path class="fil2" d="M4603.93 3218.55c0,23.52 7.17,25.61 34.2,19.66 5.96,-27.04 3.87,-34.2 -19.66,-34.2 -13.67,0 -14.54,0.87 -14.54,14.54z"/>
  <path class="fil2" d="M4782.89 3755.43c0,23.52 7.17,25.61 34.2,19.66 5.96,-27.04 3.87,-34.2 -19.66,-34.2 -13.67,0 -14.54,0.87 -14.54,14.54z"/>
  <path class="fil2" d="M4497.39 2990.47l0.11 33.01c32.63,4.23 34.84,3.18 34.84,-17.45 0,-19.6 -3.26,-18.17 -34.95,-15.56z"/>
  <path class="fil2" d="M4603.93 3148.64c0,21.62 -0.18,21.25 34.96,18.35l-0.13 -33.01c-27.46,-3.56 -34.83,-4.75 -34.83,14.66z"/>
  <path class="fil2" d="M4497.69 3312.64l-0.44 32.96c35.12,4.48 35.09,2.53 35.09,-18 0,-19.47 -5.87,-17.47 -34.65,-14.96z"/>
  <path class="fil2" d="M4246.01 3363.95c0,21.4 1.79,20.63 34.64,17.74l0.45 -32.94c-30.66,-3.91 -35.09,-4.09 -35.09,15.2z"/>
  <path class="fil2" d="M4712.88 3276.55c-3.97,33.08 -3.08,34.83 17.44,34.83 19.61,0 18.17,-3.31 15.55,-34.96l-32.99 0.13z"/>
  <path class="fil2" d="M4533.92 3276.55c-3.97,33.08 -3.08,34.83 17.44,34.83 19.61,0 18.17,-3.31 15.55,-34.96l-32.99 0.13z"/>
  <path class="fil2" d="M4569.71 3097.33c-4.06,35.48 -2.57,35.09 18,35.09 19.47,0 17.46,-5.91 14.95,-34.65l-32.95 -0.44z"/>
  <path class="fil2" d="M4390.75 3455.25c-4.05,35.48 -2.57,35.09 18,35.09 19.47,0 17.47,-5.91 14.95,-34.65l-32.95 -0.44z"/>
  <path class="fil2" d="M4353.38 3755.43l1.27 20.1 32.95 0.45c4.48,-35.15 2.52,-35.09 -18,-35.09 -13.65,0 -16.22,0.95 -16.22,14.54z"/>
  <path class="fil2" d="M4532.34 3218.55l1.28 20.1 32.94 0.44c4.48,-35.14 2.52,-35.08 -18,-35.08 -13.65,0 -16.22,0.95 -16.22,14.54z"/>
  <path class="fil2" d="M4460.77 3291.25l1.43 18.26 31.77 0.82c4.03,-18.17 3.1,-12.99 1.39,-32.74 -24.05,-4.26 -34.59,-5.85 -34.59,13.66z"/>
  <path class="fil2" d="M4426.84 3420.18l-0.83 31.8c18.18,4.01 13,3.09 32.74,1.38 3.3,-18.62 2.75,-13.57 0.32,-33.08l-32.23 -0.1z"/>
  <path class="fil2" d="M4605.8 3062.26l-0.83 31.79c18.18,4.02 13.01,3.1 32.75,1.39 3.29,-18.62 2.74,-13.57 0.32,-33.08l-32.24 -0.1z"/>
  <path class="fil2" d="M4463.33 3384.01l-1.39 32.74c18.63,3.3 13.57,2.75 33.09,0.32l0.09 -32.23 -31.79 -0.83z"/>
  <path class="fil2" d="M4463.33 3205.05l-1.39 32.74c18.63,3.3 13.57,2.75 33.09,0.32l0.09 -32.23 -31.79 -0.83z"/>
  <rect class="fil3 str0" x="4329.35" y="3270.81" width="340.86" height="324.31"/>
  <path class="fil4" d="M4508.1 3473.26c-0.1,-3.44 -0.15,-6.05 -0.15,-7.77 0,-10.19 1.43,-18.95 4.33,-26.33 2.12,-5.61 5.51,-11.22 10.24,-16.88 3.44,-4.13 9.69,-10.14 18.65,-18.06 9,-7.92 14.81,-14.22 17.52,-18.95 2.7,-4.77 4.03,-9.89 4.03,-15.5 0,-10.14 -3.93,-19.04 -11.81,-26.72 -7.87,-7.68 -17.52,-11.52 -28.93,-11.52 -11.08,0 -20.28,3.5 -27.66,10.44 -7.43,6.98 -12.26,17.86 -14.57,32.67l-26.57 -3.25c2.41,-19.73 9.5,-34.89 21.36,-45.37 11.86,-10.48 27.5,-15.75 46.99,-15.75 20.62,0 37.06,5.61 49.36,16.88 12.26,11.27 18.41,24.9 18.41,40.9 0,9.25 -2.17,17.76 -6.5,25.54 -4.33,7.82 -12.79,17.27 -25.39,28.44 -8.47,7.48 -13.98,13 -16.59,16.54 -2.61,3.54 -4.52,7.63 -5.75,12.25 -1.23,4.58 -1.97,12.06 -2.17,22.44l-24.8 0zm-4.73 51.97l0 -29.53 29.53 0 0 29.53 -29.53 0z"/>
 </g>
</svg>
