<?xml version="1.0" encoding="UTF-8"?>
<!DOCTYPE svg PUBLIC "-//W3C//DTD SVG 1.1//EN" "http://www.w3.org/Graphics/SVG/1.1/DTD/svg11.dtd">
<!-- Creator: CorelDRAW 2021 (64 Bit) -->
<svg xmlns="http://www.w3.org/2000/svg" xml:space="preserve" width="297mm" height="210mm" version="1.1" style="shape-rendering:geometricPrecision; text-rendering:geometricPrecision; image-rendering:optimizeQuality; fill-rule:evenodd; clip-rule:evenodd"
viewBox="0 0 29700 21000"
 xmlns:xlink="http://www.w3.org/1999/xlink"
 xmlns:xodm="http://www.corel.com/coreldraw/odm/2003">
 <defs>
  <style type="text/css">
   <![CDATA[
    .fil6 {fill:#241E1C}
    .fil10 {fill:#545149}
    .fil7 {fill:#703327}
    .fil1 {fill:#959569}
    .fil0 {fill:#AFCBD3}
    .fil4 {fill:#CE6B57}
    .fil2 {fill:#DEA66D}
    .fil3 {fill:#FE5B44}
    .fil5 {fill:#FE9093}
    .fil8 {fill:#FFDAAE}
    .fil9 {fill:#FFFDFD}
   ]]>
  </style>
 </defs>
 <g id="Camada_x0020_1">
  <metadata id="CorelCorpID_0Corel-Layer"/>
  <g id="_2787729787600">
   <path class="fil0" d="M13319.9 16193.4l-118.52 16.45 -16.29 -49.19 -43.71 -24.72 -24.8 -45.97 -149.94 -49.88 -18.4 -47.33c-98.06,-3.18 -89.84,23.81 -52.65,-61.91 -192.75,-41.82 -374.11,-185.4 -555.98,-281.88 -94.93,-50.35 -187.11,-97.17 -280.72,-146.5 -140.88,-74.22 -180,-68.37 -187.33,-150.04l-22.41 -25.49 -57.33 -8.9 -625.11 -371.78c-293.43,-89.61 -591.16,-251.98 -897.31,-357.62 -334,-115.23 -660.71,-163.93 -967.47,-263.9l-218.55 -22.98c-49.99,-31.89 -46.72,-17.97 -83.79,-31.19l-519.52 -21.41 -478.74 1.5 -426.19 27.34 -28.8 -378.97 -32.48 129.3 15.25 263.95 -541.92 173.66c-185.67,212.29 -269.9,140.51 -465.46,471.14 -132.31,223.71 -183.04,430.99 -252,671.11 -19.01,480.24 -108.64,787.88 117.54,1246.91 186.77,379.09 426.82,515.59 618.83,794.93 281.63,223.44 547.29,392.78 862.28,591.16 222.06,139.86 792.48,384.94 927.57,506.71 244.13,72.55 1737.86,598.98 1872.75,675.57l2338.16 360.49 209.33 58.51c282.92,-16.55 1092.28,-2.82 1315.64,126.81l79.58 10.34 -79.58 -10.34c57.71,-242.44 218.8,-727.51 423.54,-854.46 145.39,-377.53 409.27,-795.03 521.71,-1065.35 119.62,-287.57 -107.91,-20.23 21.57,-240.1l41.68 56.12c208.66,-67.92 424.39,-217.9 596.1,-381.83 -105.76,-83.6 -606.27,-588.06 -676.37,-776.71 119.5,-187.78 217.7,-188.73 291.41,-411.99l-245.4 -92.85 -270.41 61.55c-0.65,287.24 -3.63,612.36 -160.52,821.18 40,-326.18 133.14,-444.43 101.21,-825.04 -142.17,-83.4 -370.43,-48.12 -567.33,-50.94l-4.82 656.19c-96.88,-169.66 -57.27,-441.85 -57.29,-655.02l-1132.71 -0.52 1172.88 850.88 28.28 -183.31 190.47 351.1c212.93,-25.29 137.07,11.86 258.47,-146.02 -37.96,238.7 -34.49,56.63 -153.44,242.09l557.71 428.94 -104.54 72.92c-127.49,-335.69 -1917.94,-1432.93 -2044.13,-1632.71zm4458.42 2901.49l746.81 -361.62 1716.87 -975.67 1348.98 -995.1c97.01,-164.26 633.96,-640.82 818.55,-839.55 300.36,-323.31 416.22,-621.22 625.38,-973.64 159.16,-900.48 209.74,-800.15 -158.75,-1650.05l-24.5 -2.6 -17.99 -65.59 -298.17 -364.85c-328.7,-152.17 -399.24,-363.51 -890.69,-481.89 -397.76,-95.79 -805.19,-43.89 -1190.82,71.01 -593.15,176.73 -1248.96,548.93 -1702.58,949.21l-3166.74 3315.03c101.09,316.01 609.69,628.5 799.5,877.19 306.46,401.54 319.01,201.02 831,888.99 387.37,520.5 470.08,385.41 563.15,609.13zm-3088.79 778.13c-109.72,-15.7 -127.9,-55.16 -58.84,36.26l58.84 -36.26z"/>
   <path class="fil1" d="M13510.93 7474.66c-479.62,106.41 -291.13,266.87 -480.08,527.09 -114.34,157.46 -471.47,195.16 -661.22,276.71 -371.7,159.72 -968.85,586.71 -1215.12,667.49 -103.02,161.78 -289.75,340.98 -456.38,425.42 -205.79,263.36 -426.44,532.48 -611.9,844.81 -96.68,162.83 -154.55,347.24 -270.4,454.85 -170.29,158.21 -51.27,-97.53 -169.12,227.87 -16.73,46.13 -36.54,265.45 -38.99,123.37 -82.96,0 -56.94,-17.59 -52.51,75.75l0.22 76.3c-85.81,0 -60.12,-18.58 -54.25,76.05 73.9,-27.87 50.03,-33.27 43.02,50.41l-9.56 87.61 -17.53 158.81 -0.65 -34.53 -82.16 -26.93c-85.84,-40.4 -58.95,-44.71 -49.54,53.01l69.85 23.74c56.12,96 60.1,249.77 -5.99,87.99 -71.68,21.31 -57.32,35.59 -47.27,-37.78l-49.17 70.3 35.87 37.88c50.13,62.74 70.74,27.44 24.01,269.53l-143.2 871.54c2.64,485.16 -62.94,979.25 33.07,1462.79 306.76,99.97 633.47,148.67 967.47,263.9 306.15,105.64 603.88,268.01 897.31,357.62 -236.56,-778 287.53,-1115.17 635.16,-1610.02 317.55,-452.05 784.46,-744.59 1230.56,-1114.54l966.56 -2156.62 201.81 -9.83 142.63 -284.46c837.62,55 1863.5,309.71 2636.86,610.6 1252.27,487.23 1829.11,1089.14 2058.25,1171.64l452.06 -303.84c-164.82,-366.35 -143.21,-682.91 -432.63,-1071.6 -227.52,-305.55 -466.57,-478.38 -740.49,-745.88l-423.43 -284.36 69.43 -86.99c-226.43,72.29 -384.05,-121.14 -622.59,-240.77 -691.98,-347.08 -1193.61,-584.91 -1978.3,-784.04 -197.91,-454.69 -79.17,-435.55 -535.69,-647.79 -512.54,172.59 -779.17,202.02 -1315.97,86.9z"/>
   <path class="fil2" d="M20150.05 7081.18c215.53,-162.83 359.23,-201.67 567.89,-406.14 141.3,-138.44 305.48,-469.95 447.64,-521.92 105.58,207.28 150.61,409.01 286.67,638.79 126.97,214.47 270.67,312.51 382.97,491.53 -126.47,110.54 -380.71,164.73 -567.92,305.89 -194.38,146.55 -237.26,342.76 -391.81,452.25 -611.49,-1011.24 -464.84,-598.35 -725.44,-960.4zm1805.46 -530.08c460.17,-189.87 457.27,-395.95 733.56,-661.01 74.48,180 108.26,313.48 220.32,485.5 92.76,142.4 230.05,238.68 259.33,363.49 -133.32,77.33 -276.39,110.19 -399.05,213.92 -141.88,119.96 -154.31,225.76 -306.81,323.17 -181.11,-432.63 -363.04,-470.67 -507.35,-725.07zm-1564.36 -1563c134.4,-97.19 307.98,-168.52 430.6,-294.35 147.32,-151.18 130.87,-267.85 304.69,-380.76 134.38,502.26 271.26,480.85 468.62,833.9 -123.39,90.88 -269.63,114.76 -410.04,223.61 -133.83,103.75 -156.56,199.82 -274.81,323.05 -82.61,-113.66 -126.58,-229.19 -236.73,-360.1 -188.63,-224.21 -212.36,-152.07 -282.33,-345.35zm-2923.7 -1556.86l188.86 124.26c240.89,205.04 193.91,465.66 172.4,645.27l92.66 -52.12c828.85,724.3 1515.25,1161.87 1514.13,2457.37 -1.08,1248.84 -695.99,1851.38 -1472.02,2454.34l-69.43 86.99 423.43 284.36c208.62,-138.84 260.11,-364.93 512.15,-474.12 174.25,-354.48 839.13,-852.04 1292.62,-576.81 221.02,134.14 352.62,336.48 491.65,554.4 194.67,305.16 291.21,344.63 484.41,573.05 818.51,321.61 475.51,327.11 1658.74,514.12 532.69,84.19 1227.8,200.1 1666.47,522.1l-21.59 -84.47c-518,-351.92 -1203.1,-1147.88 -1282.26,-1842.08 -99.67,-873.84 941.53,-1314.47 1531.78,-698.91 116.43,121.42 85.35,145 218.04,210.99 245.18,-461.78 345.76,-491.27 782.58,-664.57 -221.45,-48.18 -486.17,-587.28 -770.12,-975.61 -233.79,-319.74 -502.79,-616.29 -753.55,-913.38 -1265.65,-1499.53 -3329.76,-2666.39 -5287.86,-3048.86 -543.94,-106.26 -1057.88,-100.6 -1565.62,-187.29l192.53 1090.97zm1291.7 5707.3l58.74 -155.54 -58.74 155.54z"/>
   <path class="fil3" d="M17276.57 14697.47l50 -54.62 53.36 -50.13 52.61 -52.54 50.27 -51.17 52.85 -55.12 54.23 -52.26 55.92 -47.86 55.12 -48.3 54.17 -48.5 55.82 -50.17 53.95 -51.93 41.94 -63.46c228.52,-192.67 555.78,-538.25 844.6,-666.86 453.62,-400.28 1109.43,-772.48 1702.58,-949.21 385.63,-114.9 793.06,-166.8 1190.82,-71.01 491.45,118.38 561.99,329.72 890.69,481.89l564.82 -575.81c98.12,-234.65 330.24,-443.92 548.73,-585.72l35.05 -33.65c-50,-176.08 26.55,-75.97 -118.15,-143.85 -849.38,-421.31 -1472.55,-535.67 -2454.4,-399.36 -1264.4,175.53 -1737.94,573.41 -2240.38,684.84 -1318.47,-1156.57 -2896.82,-1575.92 -4670.37,-1757.42l-201.81 9.83 -966.56 2156.62c242.58,-110.13 202.4,-111.75 419.05,6.38 12.14,-258.22 -23.02,-86.08 67.31,-206.18 131.78,-205.74 251.84,-162.88 412.19,4.97l-29.89 247.48 -269.21 57.62 -68.61 -44.16c-95.2,15.83 -69.14,29.5 -44.77,-69.62 -95.75,155.36 -37.27,234.57 -143.6,454.04 -49.88,102.93 -132.63,225.61 -195.76,323.23 -154.69,239.13 -348.34,448.86 -477.44,665.2 401.68,-25.43 1565.62,-231.67 1853.7,-74.61 182.07,297.67 -91.97,482.28 -339.53,590.45l0 19.93c343.97,2.48 565.45,42.79 547.72,437.51 -112.87,310.05 -1018.8,278.83 -1340.19,379.61l-73.73 33.58c298.2,69 771.29,27.85 987.58,263.25 -66.42,162.78 -92.48,129.24 -267.44,210.94 362.97,232.54 1145.66,385.32 1436.26,680.79l245.4 92.85c237.3,-104.06 444.84,-433.24 616.86,-631.67 158.83,-183.22 352.25,-426.94 538.37,-631.56l50.69 -99.32 48.35 -43.16 150.36 -130.5c-68.14,-152.8 -103.73,-9.95 13.28,-212.23l348.47 -546.42c316.69,-489.34 1136.42,-1937.42 1376.92,-2165.53 -216.01,577.26 -1627.32,2507.02 -1717.44,2899.87l99.24 -36.97zm-2845.54 -4212.39c175.67,308.26 -168.26,1240.33 -462.41,1039.09 -186.56,-127.64 -10.23,-1150.13 462.41,-1039.09z"/>
   <path class="fil2" d="M25085.99 17812.58c842.03,-282.29 559.42,-338.79 868.82,-468.08 54.54,459.71 193.47,610.32 255.96,930.38 -162.59,62.36 -279.46,25.23 -481.72,131.4 -122.6,64.37 -207.32,164.54 -319.05,217.41 -87.64,-351.32 -263.28,-580.37 -324.01,-811.11zm654.8 -7172.24l-360.93 354.51c0,97.27 26.28,78.83 -65.08,70l-63.84 41.29 -42.71 52.02c135.35,199.58 593.39,523.07 829.86,636.33 180.57,86.49 376.43,140.09 560.92,221.39 157.98,69.59 321,208.46 462.69,242.56l-8.45 133.71c136.17,229.3 -31.48,623.32 -263.68,733.51 -12.54,288.97 -341.68,570.38 -465.62,837.68 149.45,98.47 275.01,139.41 354.94,303 -687.42,413.54 -1606.69,968.3 -2433.3,1191.87l-8.57 91.46 104.48 -3.61c422.84,-131.76 2143.09,-941.52 2380.29,-1220.49 217.67,378.6 -4.17,809.26 -364.67,1009.92 -327.67,182.39 -836.93,233.3 -1213.28,283.55 -127.7,295.89 -1533.2,2139.19 -1735.71,2238.69 31.22,108.83 55.76,85.39 -52.78,85.39 -103.75,147.74 -105.2,139.05 -133.11,310.91 14.71,98.85 38.11,76.73 -57.86,76.73l-856.53 1504.83 -35.59 2.07c84.4,-336.48 565.09,-904.95 672.94,-1295.46 -8.11,-75.47 -25.57,-58.21 49.21,-54.74l6.02 -55.06c-98.43,57.79 -603.72,611.15 -725.87,741.79 -247.25,264.45 -494.6,504.78 -891.08,570.08l-103.95 1.3c-195.56,-14.16 -544.75,-43.29 -663.45,-199.64l42.41 -58.11 -42.41 58.11c-311.19,-14.4 -831,-237.04 -1142.27,-351.21 -173.66,-63.71 -350.62,-135.96 -526.57,-201.87 -203.75,-76.31 -358.89,-82.93 -422.11,-259.58l-746.81 361.62c257.91,285.85 874.63,450.19 1154.92,795.62l41.99 60 49.68 49.32 -49.68 -49.32 -41.99 -60c91.59,-79.42 83.1,-71.94 359.17,-69.71 788.81,6.36 2405.69,-32.25 2979.85,16.86l35.59 -2.07c766.65,-55.59 3171.41,-15.46 4230.47,-11.84 101.11,0.34 218,6.11 316.49,3.33l254.29 -48.18c296.83,-624.8 431.23,-4207.82 406.54,-5043.57 -24.54,-830.92 -95.22,-1647.55 -233.3,-2467.38 -116.1,-689.39 -517.7,-2088.82 -535.67,-2243.33 -317.14,196.07 -646.82,459.71 -1005.88,615.72z"/>
   <path class="fil4" d="M23408.13 17857.73c-88.17,-35.02 -48.17,-33.72 -52.78,85.39 108.54,0 84,23.44 52.78,-85.39 202.51,-99.5 1608.01,-1942.8 1735.71,-2238.69 -206.18,9.32 -188.98,-7.87 -279.91,152.76l-50.88 -134.53c-115.23,-2.82 -451.91,38.49 -471.55,-91.21l-104.48 3.61 8.57 -91.46 417.07 -1454.8c8.25,363.82 -235.46,809.67 -244.34,1135.55 201.57,-302.38 574.32,-643.79 718.07,-868.05 -94.8,-390.79 106.59,-722.88 377.83,-976.69 344.15,-322.02 607.41,-238.37 1001.51,-270.97l66.68 31.11c33.8,-171.65 219.91,-524.46 372,-613.34 -11.13,235.53 -226.02,423.66 -299.59,642.19l134.75 42.45c232.2,-110.19 399.85,-504.21 263.68,-733.51 -119.88,72.53 -1.42,62.64 -135.54,-25.92l143.99 -107.79c-141.69,-34.1 -304.71,-172.97 -462.69,-242.56 -184.49,-81.3 -380.35,-134.9 -560.92,-221.39 -236.47,-113.26 -694.51,-436.75 -829.86,-636.33l42.71 -52.02 63.84 -41.29c91.36,8.83 65.08,27.27 65.08,-70l-65.08 70 -63.84 41.29c-72.67,-5.69 -56.36,-21.19 -42.71,52.02 -201.57,214.12 -113.08,1277.68 -284.4,1537.06 -37.25,-310.62 126.84,-991.99 141.34,-1367.91 16.09,-417.07 -436.97,-461.62 -582.81,-870.22l-80.43 2.89 21.59 84.47c-438.67,-322 -1133.78,-437.91 -1666.47,-522.1 -1183.23,-187.01 -840.23,-192.51 -1658.74,-514.12 -90.22,626.01 -690.79,1021.64 -1319.39,934.2 -751.47,-104.53 -937.12,-645.36 -1019.77,-1303.89l58.74 -155.54 11.74 -25.41c-252.04,109.19 -303.53,335.28 -512.15,474.12 273.92,267.5 512.97,440.33 740.49,745.88 289.42,388.69 267.81,705.25 432.63,1071.6 589.68,-171.49 793.41,-333.63 1491.83,-397.1 636.32,-57.81 1075.65,45.74 1682.15,135.61 223.3,-0.46 390.75,-84.92 536.01,-5.76 997.98,-524.5 1481.74,1084.13 1626.7,1778.01 4.32,0.89 11.68,-2.86 12.83,-3.03l101.34 -5.32c-23.5,197.16 -3.03,295.98 -126.44,409.46l-6.22 65.75c57.59,169.94 -72.89,751.09 -167.58,767.74l119.67 -721.5 -768.24 -354.25c-69.87,148.01 -52.09,143.75 -234.9,238.16 -71.43,36.9 -186.37,81.81 -262.7,99.66 -217.17,50.78 -451.32,37.88 -661.38,-25.55l17.99 65.59 24.5 2.6c368.49,849.9 317.91,749.57 158.75,1650.05 652.32,290.43 859.36,1204.91 375.99,1764.22 -221.76,256.6 -513.25,435.64 -884.28,445.06 -495.8,12.58 -597.5,-167.87 -935.64,-396.09l-1348.98 995.1c705.58,424.32 717.72,1030.53 416.49,1730.22l-42.41 58.11c118.7,156.35 467.89,185.48 663.45,199.64 86.42,-195.42 519.72,-537.28 695.5,-714.43 274.34,-276.48 534.1,-656.65 717.88,-687.81 -166.61,415.35 -1038.48,1034.77 -1309.43,1400.94 396.48,-65.3 643.83,-305.63 891.08,-570.08 122.15,-130.64 627.44,-684 725.87,-741.79 154.02,-168.91 80.04,-300.16 163.95,-101.64 95.97,0 72.57,22.12 57.86,-76.73 -136.71,-195.08 -25.16,-46.36 125.18,-547.15 -228.34,106.73 -317.85,519.68 -654.51,636.45 55.41,-217.9 85.57,-159.4 245.32,-325.26 1152.02,-1195.91 910.6,-2006.03 1290.12,-2447.68 -3.8,356.32 -378.61,1109.04 -500.78,1496.48l1082.8 -1304.38c-97.84,485.57 -1341.1,1535.56 -1402.24,2095.24zm-413.72 629.73c-74.78,-3.47 -57.32,-20.73 -49.21,54.74l49.21 -54.74z"/>
   <path class="fil5" d="M13948.09 5863.58c406.04,6.3 319.09,-82.87 530.61,-330.08 -27.26,433.75 -668.08,580.05 -756.41,116l225.8 214.08zm-3369.13 -579.28c-278,-79.84 -251.63,-470.63 -22.74,-657.4 275.74,413.7 275.86,95.24 383.8,463.98 -155.75,-139.89 -185.06,-338.64 -475.23,-276.5 -64.3,274.16 -25.24,268.61 114.17,469.92zm2668.91 -927.72c383.81,930.48 -844.58,1739.24 -1460.63,953.92 -331.6,8.47 -431.33,-931.88 80.6,-1338.01 479.21,-380.21 1157.18,-155.26 1380.03,384.09zm3693.86 -547.27c472.41,-80.88 742.02,374.89 436.9,645.21 62.68,-185.83 91.67,-266.81 7.38,-466.02 -283.35,-50.42 -273.09,201.87 -425.02,365.48 57.03,-256.51 152.92,-278.08 297.72,-457.65l-316.98 -87.02zm-2182.41 1169.55l-10.44 -20.35 0.19 -403.26c-90.37,183.73 -55.17,185.3 -51.7,389.89 -422.25,-385.02 -265.3,-1100.26 194.57,-1387.18 478.39,-298.44 1367.88,36.68 1292.2,431.7 526.84,850.02 -841.7,1758.8 -1424.82,989.2zm-4588.45 -629.59c-149.51,274.97 -164.46,324.51 -210.85,637 154.85,210.59 116.3,347.33 384.35,512.03 270.1,165.99 546.98,124.85 843.08,109.11 198.3,428.02 535.59,809.19 876.31,1089.04 540.06,443.58 821.92,426.45 1419.79,635.31l27.38 142.9c536.8,115.12 803.43,85.69 1315.97,-86.9l-19.01 -179.98c1263.26,-557.91 1614.79,-1024.46 2057.47,-2312 463.53,-45.74 926.3,-153.2 963.35,-695.01 21.51,-179.61 68.49,-440.23 -172.4,-645.27l-188.86 -124.26 -412.4 0.83c-188.37,240.04 -41.74,356.32 -270.24,607.13 -305.14,-29.01 -363.43,-435.68 -425.91,-699.2 -1425.9,-342.63 -2021.55,-1502.98 -2383.9,-1846.47 -236.89,686.12 -920.88,1393.71 -1418.89,1813.38 -1044.51,880.21 -1204.02,449.73 -1345.3,1052.7 -52.55,224.25 -63.35,428.91 -259.09,525.11 -92.38,-43.57 -232.91,-204.97 -267.36,-276.89 -22.83,-47.67 -46.61,-258.3 -98.86,-384.66 -222.89,10.67 -216.35,53.69 -414.63,126.1z"/>
   <path class="fil2" d="M5525.56 9324.1c-809.5,-7.63 -997.53,13.27 -1771.29,-242.59 -443.33,832.86 -724.75,1223.27 -1021.19,2169.33 550.9,-39.61 895,260.33 1149.76,683.98l37.92 30.51c194,-60.97 816.22,-640.84 1056.46,-818.91l-145.41 -462.17c815.85,72.01 1609.86,167.21 2387.52,404.67 285.21,87.09 269.85,18.36 338.83,-35.04 -385.49,-48.65 -875.74,-215.67 -1291.03,-291.67 -402.37,-73.63 -978.95,-173.03 -1382.33,-178.48 -0.57,-412.32 502.38,-593.54 863.09,-564.9 435.46,34.59 734.72,319.68 1090.88,446.32l244.55 -32.07c-50.65,-200.12 -369.46,-624.04 -496.33,-813.32 -149.2,-222.6 -146.87,-219.02 -422.65,-238.54 -227.72,-16.13 -410.56,-17.02 -638.78,-57.12zm1625.05 1035.92c337.11,174.32 910.91,-170.73 1220.63,-347.3l90.41 63.13c-2.6,-196.94 269.04,-383.99 399.58,-562.26 148.76,-203.09 265.41,-440.37 458.07,-585.23 569.87,-428.49 993.48,145.41 1378.83,443.01 166.63,-84.44 353.36,-263.64 456.38,-425.42 -1142.33,-984.7 -1434.53,-1689.09 -1379.71,-3264.64l28.86 -76.56 -28.86 76.56c-274.57,72.16 -992.35,456.76 -1337.36,593.94 -443.99,176.55 -923.36,358.27 -1375.1,503.72 -54.94,480.47 -274.26,1412.66 -475.83,1832.92 -16.82,193.3 -58.72,381.1 -81.59,572.35 -26.53,222.06 16.63,258.97 139.98,432.31 179.92,252.85 343.12,475.06 505.71,743.47zm848.29 -2295.73c503.03,-264.17 400.27,-342.95 717.29,-663.99 154.08,204.04 26.24,255 506.71,821.14 -124.1,104.16 -259.4,104.18 -419.01,243.07 -117.98,102.65 -178.29,235.81 -288.72,315.78 -171.18,-409.7 -383.54,-471.55 -516.27,-716z"/>
   <path class="fil6" d="M10170.87 4349.27c198.28,-72.41 191.74,-115.43 414.63,-126.1 52.25,126.36 76.03,336.99 98.86,384.66 34.45,71.92 174.98,233.32 267.36,276.89 195.74,-96.2 206.54,-300.86 259.09,-525.11 141.28,-602.97 300.79,-172.49 1345.3,-1052.7 498.01,-419.67 1182,-1127.26 1418.89,-1813.38 362.35,343.49 958,1503.84 2383.9,1846.47 62.48,263.52 120.77,670.19 425.91,699.2 228.5,-250.81 81.87,-367.09 270.24,-607.13l412.4 -0.83 -192.53 -1090.97c-234.47,-333.29 -269.63,-597.78 -625.67,-957.57 -275.16,-278.05 -620.85,-491.38 -1001.33,-613.69 -488.26,-156.95 -1103.13,-37.03 -1426.58,-188.9 -1054.1,-495 -2731.25,2.48 -3402.54,1144.81 -514.65,875.79 -292.93,1886.32 -647.93,2624.35z"/>
   <path class="fil6" d="M17828.71 4200.77c-37.05,541.81 -499.82,649.27 -963.35,695.01 -442.68,1287.54 -794.21,1754.09 -2057.47,2312l19.01 179.98c456.52,212.24 337.78,193.1 535.69,647.79 784.69,199.13 1286.32,436.96 1978.3,784.04 238.54,119.63 396.16,313.06 622.59,240.77 776.03,-602.96 1470.94,-1205.5 1472.02,-2454.34 1.12,-1295.5 -685.28,-1733.07 -1514.13,-2457.37l-92.66 52.12z"/>
   <path class="fil4" d="M4141.08 15533.14l-38.1 8.79c-0.43,76.94 14.64,53.91 -69.91,35.61 133.32,339.6 1324.28,1883.19 1611.58,2229.43 611.7,737.2 1192.21,1367.38 1801.47,2031.08 175.61,197.52 411.77,336.41 681.31,394.3 -241.18,-383.91 -1206.84,-1046.87 -1399.11,-1527.15 166.94,28.92 102.49,5.65 241.91,174.07 377.04,455.48 1207.81,1208.18 1281.72,1361.73l665.3 -142.18c-11.82,-208.59 -192.89,-404.54 -225.68,-641.08 -39.44,-284.55 17.27,-449.58 104.38,-709.84 -135.09,-121.77 -705.51,-366.85 -927.57,-506.71 -314.99,-198.38 -580.65,-367.72 -862.28,-591.16 -1243.85,-114.44 -1462.83,-1641.08 -736.37,-2041.84 68.96,-240.12 119.69,-447.4 252,-671.11 195.56,-330.63 279.79,-258.85 465.46,-471.14 -150.35,-243.49 -191.36,-481.62 -190.38,-773.09 -704.95,171.75 -1395.8,5.44 -1604.45,-748.51 -107.63,-388.9 -39.9,-749.76 192.34,-1072.32 336.85,-467.87 592.41,-104.22 913.39,-326.59 -854.6,65 -738.12,35.71 -1320.87,-399.01 -240.24,178.07 -862.46,757.94 -1056.46,818.91l-37.92 -30.51 37.92 30.51c111.92,205.29 317.49,449.37 215.08,673.2 132.82,55.59 48.65,-62.42 151.83,166.65 29.96,66.54 50.19,173.12 74.56,241.34 131.5,368.23 680.17,316.74 1078.25,747.62 -232.2,-64.53 -556.49,-291.18 -776.99,-420.18 -184.65,-108.01 -237.6,-141.49 -470.29,-94.95 -377.95,75.57 -225.78,159.58 -429.4,45.7l43.48 -55.31 -43.48 55.31c-231.63,109.35 -563.58,76 -797.1,-29.58 -155.5,-70.29 -442.75,-196.49 -566.95,-322.83l-45.15 -56.44 -47.73 -55.04 -39.04 -61.81 -55.8 -54.7 55.8 54.7 39.04 61.81 47.73 55.04 45.15 56.44 1.08 201.88 319.11 459.79 68.91 -37.25 146.35 -11.46c-9.95,81.63 -29.72,79.46 39.89,34.98l65.93 8.87 -54.5 79.32 49.22 23.4 38.98 -23 -33.7 -79.72c10.66,-85.51 28.31,-68.89 -55.55,-46.92l-50.27 3.07 -202.18 -321.97 47.22 -56.75 188.47 334.89c417.32,-73.02 979.45,1.3 1170.48,416.87 492.61,-177.75 957.64,-17.88 1446.88,-19.24 -187.47,-178.94 -123.7,-69.22 -97.13,-150.04 271.14,183.66 1096.84,663.92 1221.95,887.49l-756.59 -490.5c-591.41,373.83 -712.32,991.09 -1669.25,1013.29l-143.75 -51.95 143.75 51.95 -53.56 155.28 -26.87 45.19c260.22,736.74 2459.84,3031.96 2523.7,3305.43 -172.16,-58.66 -590.13,-597.86 -714.23,-749.14l-1292.06 -1626.31c-165.15,-225.15 -410.92,-617.38 -580.95,-796.61z"/>
   <path class="fil2" d="M3925.36 18376.75c-45.28,-141.47 142.32,-253.41 8.87,-979.8 381.14,81.22 437.12,187.23 948.76,238.13 -1.23,141.41 -87.78,224.93 -117.33,397.21 -33.15,193.2 7.02,307.35 16.89,484.3 -72.26,-5.75 -840.64,-133.22 -857.19,-139.84zm3520.76 1461.3c-609.26,-663.7 -1189.77,-1293.88 -1801.47,-2031.08 -287.3,-346.24 -1478.26,-1889.83 -1611.58,-2229.43 84.55,18.3 69.48,41.33 69.91,-35.61l38.1 -8.79c-25,-186.34 -35.26,-74.5 63.54,-133.37l26.87 -45.19 -103.71 15.4 -54.98 58.68 30.18 113.27 -69.91 35.61c-211.08,-216.19 -1227.78,-1694.31 -1313.13,-1943.57l68.91 -37.25 -68.91 37.25 -319.11 -459.79c-69.59,1187.73 75.03,2418.19 343.75,3570.73 204.77,878.18 539.2,2273.65 881.63,3078.61l3819.91 14.53z"/>
   <path class="fil3" d="M24401.93 10459.98l80.43 -2.89c493.61,-21.77 805.2,-36.8 1258.43,183.25 359.06,-156.01 688.74,-419.65 1005.88,-615.72 359.98,-295.26 907.88,-676.16 987.84,-1185.67 129.87,-827.63 -772.68,-645.52 -1232.31,-324.78 -8.53,-575.93 -91.66,-1155.8 -850.13,-1048.76 -436.82,173.3 -537.4,202.79 -782.58,664.57 -132.69,-65.99 -101.61,-89.57 -218.04,-210.99 -590.25,-615.56 -1631.45,-174.93 -1531.78,698.91 79.16,694.2 764.26,1490.16 1282.26,1842.08z"/>
   <path class="fil3" d="M3754.27 9081.51c773.76,255.86 961.79,234.96 1771.29,242.59 148.89,-266.14 734.08,-760.05 1060.95,-712.21 201.57,-420.26 420.89,-1352.45 475.83,-1832.92 24.27,-1527.35 -1048.7,-1432.5 -1286.78,-298.8 -256.41,-322.22 -587.33,-710.49 -1105.37,-428.49 -487.19,265.19 -491.31,749.17 -380.77,1237.59 -1421.96,-169.68 -1518.38,820.32 -1090.64,1341.45 234.07,285.19 300.06,255.69 555.49,450.79z"/>
   <path class="fil1" d="M17005.74 14889.25l-48.35 43.16 62.06 85.47 -112.75 13.85c-186.12,204.62 -379.54,448.34 -538.37,631.56 -172.02,198.43 -379.56,527.61 -616.86,631.67 -73.71,223.26 -171.91,224.21 -291.41,411.99 70.1,188.65 570.61,693.11 676.37,776.71 -171.71,163.93 -387.44,313.91 -596.1,381.83l-41.68 -56.12 41.68 56.12 62.36 92.58c-109.72,172.06 -225.29,403.32 -317.08,591.18 -112.06,229.36 -189.97,467.97 -330.24,565.57 -204.74,126.95 -365.83,612.02 -423.54,854.46l79.58 10.34 19.28 -70.34c-69.06,-91.42 -50.88,-51.96 58.84,-36.26 121.63,12.13 828.97,289.76 1042.06,351.53 394.52,114.33 771.48,207.42 1176.57,281.84 397.82,73.06 2584.72,404.11 2116.75,-506.56l-49.68 -49.32 -41.99 -60c-280.29,-345.43 -897.01,-509.77 -1154.92,-795.62 -93.07,-223.72 -175.78,-88.63 -563.15,-609.13 -511.99,-687.97 -524.54,-487.45 -831,-888.99 -189.81,-248.69 -698.41,-561.18 -799.5,-877.19l3166.74 -3315.03c-288.82,128.61 -616.08,474.19 -844.6,666.86 20.25,90.29 44.07,77.75 -41.94,63.46 8.3,82.85 27.25,66.56 -53.95,51.93 8.45,82.16 26.2,64.51 -55.82,50.17 6.48,77.96 23.75,60.97 -54.17,48.5 3.03,76.15 20.84,59.43 -55.12,48.3 -0.02,74.34 18.2,57.91 -55.92,47.86 1.81,75.6 20.45,58.78 -54.23,52.26 6.78,77.87 24.78,59.86 -52.85,55.12 7.98,74.61 24.62,57.44 -50.27,51.17 5.66,75.8 23.19,58.29 -52.61,52.54 3.64,73.27 20.64,55.76 -53.36,50.13 6.2,75.17 24.09,58.11 -50,54.62l-233.42 249.67 -37.41 -57.89z"/>
   <path class="fil5" d="M13032.43 12221.7c-446.1,369.95 -913.01,662.49 -1230.56,1114.54 -347.63,494.85 -871.72,832.02 -635.16,1610.02l625.11 371.78 57.33 8.9 22.41 25.49 947.46 471.77 1250.79 -302.88c174.96,-81.7 201.02,-48.16 267.44,-210.94 -216.29,-235.4 -689.38,-194.25 -987.58,-263.25l73.73 -33.58c321.39,-100.78 1227.32,-69.56 1340.19,-379.61 17.73,-394.72 -203.75,-435.03 -547.72,-437.51l-1416.33 245.01c166.7,-135.76 1121.19,-236.13 1416.33,-264.94 247.56,-108.17 521.6,-292.78 339.53,-590.45 -288.08,-157.06 -1452.02,49.18 -1853.7,74.61 129.1,-216.34 322.75,-426.07 477.44,-665.2 63.13,-97.62 145.88,-220.3 195.76,-323.23 106.33,-219.47 47.85,-298.68 143.6,-454.04 -24.37,99.12 -50.43,85.45 44.77,69.62l68.61 44.16c0,-79.58 16.94,-57.54 -68.61,-44.16l-44.77 -69.62 0.29 -196.29c-90.33,120.1 -55.17,-52.04 -67.31,206.18 -216.65,-118.13 -176.47,-116.51 -419.05,-6.38z"/>
   <path class="fil6" d="M9803.66 5604.75l-28.86 76.56c-54.82,1575.55 237.38,2279.94 1379.71,3264.64 246.27,-80.78 843.42,-507.77 1215.12,-667.49 189.75,-81.55 546.88,-119.25 661.22,-276.71 188.95,-260.22 0.46,-420.68 480.08,-527.09l-27.38 -142.9c-597.87,-208.86 -879.73,-191.73 -1419.79,-635.31 -340.72,-279.85 -678.01,-661.02 -876.31,-1089.04 -296.1,15.74 -572.98,56.88 -843.08,-109.11 -268.05,-164.7 -229.5,-301.44 -384.35,-512.03l-156.36 618.48z"/>
   <path class="fil7" d="M23222.24 18254.03c27.91,-171.86 29.36,-163.17 133.11,-310.91 4.61,-119.11 -35.39,-120.41 52.78,-85.39 61.14,-559.68 1304.4,-1609.67 1402.24,-2095.24l-1082.8 1304.38c122.17,-387.44 496.98,-1140.16 500.78,-1496.48 -379.52,441.65 -138.1,1251.77 -1290.12,2447.68 -159.75,165.86 -189.91,107.36 -245.32,325.26 336.66,-116.77 426.17,-529.72 654.51,-636.45 -150.34,500.79 -261.89,352.07 -125.18,547.15zm-1942.71 1491.54l103.95 -1.3c270.95,-366.17 1142.82,-985.59 1309.43,-1400.94 -183.78,31.16 -443.54,411.33 -717.88,687.81 -175.78,177.15 -609.08,519.01 -695.5,714.43zm3864.31 -4126.53c376.35,-50.25 885.61,-101.16 1213.28,-283.55 360.5,-200.66 582.34,-631.32 364.67,-1009.92 -237.2,278.97 -1957.45,1088.73 -2380.29,1220.49 19.64,129.7 356.32,88.39 471.55,91.21l50.88 134.53c90.93,-160.63 73.73,-143.44 279.91,-152.76zm1180.11 -1655.7l-190.95 -31.04c60.35,-314.14 397.43,-555.54 449.41,-877.94l72.41 28.85c73.57,-218.53 288.46,-406.66 299.59,-642.19 -152.09,88.88 -338.2,441.69 -372,613.34l-66.68 -31.11c-25.57,169.47 -339.38,742.21 -476.79,848.36 -102.86,79.46 -336.17,78.3 -514.02,162.25 -163.51,77.18 -250.6,152.47 -388.53,237.05 -143.75,224.26 -516.5,565.67 -718.07,868.05 8.88,-325.88 252.59,-771.73 244.34,-1135.55l-417.07 1454.8c826.61,-223.57 1745.88,-778.33 2433.3,-1191.87 -79.93,-163.59 -205.49,-204.53 -354.94,-303zm-1515.15 -736.53c-188.61,-226.41 -528.29,-785.52 -852.62,-1174.32 -31.35,-37.58 -39.65,-45.81 -75.52,-77.55 -66.89,-59.19 -123.23,14.03 1.28,-118.5l933.08 1304.62c123.41,-113.48 102.94,-212.3 126.44,-409.46l-101.34 5.32c-1.15,0.17 -8.51,3.92 -12.83,3.03 -144.96,-693.88 -628.72,-2302.51 -1626.7,-1778.01l-68.67 54.8 66.13 120.12 470.46 151.11c-20.26,148.48 11.43,82.63 -102.56,219.22 144.7,67.88 68.15,-32.23 118.15,143.85l133.43 205.69 -168.48 -172.04c-218.49,141.8 -450.61,351.07 -548.73,585.72 152.51,222.72 606.53,561 892.33,628.39l768.24 354.25 -119.67 721.5c94.69,-16.65 225.17,-597.8 167.58,-767.74zm399.43 -2068.65c-13.65,-73.21 -29.96,-57.71 42.71,-52.02l63.84 -41.29 65.08 -70 360.93 -354.51c-453.23,-220.05 -764.82,-205.02 -1258.43,-183.25 145.84,408.6 598.9,453.15 582.81,870.22 -14.5,375.92 -178.59,1057.29 -141.34,1367.91 171.32,-259.38 82.83,-1322.94 284.4,-1537.06zm1845.02 1233.99l8.45 -133.71 -143.99 107.79c134.12,88.56 15.66,98.45 135.54,25.92zm-4052.82 6040.25l-6.02 55.06 -49.21 54.74c-107.85,390.51 -588.54,958.98 -672.94,1295.46l35.59 -2.07 856.53 -1504.83c-83.91,-198.52 -9.93,-67.27 -163.95,101.64z"/>
   <path class="fil7" d="M9352.18 11683l49.17 -70.3 -16.59 -73.95c-9.41,-97.72 -36.3,-93.41 49.54,-53.01l66.88 -235.37c-5.87,-94.63 -31.56,-76.05 54.25,-76.05l-0.22 -76.3c-4.43,-93.34 -30.45,-75.75 52.51,-75.75l52.89 -336.09c-246.28,-22.48 -349.18,-20.31 -566.06,95.59 -286.27,273.96 -398.45,236.65 -529.94,725.4 -112.69,418.86 -61.95,849.13 -40.38,1277.05l-1155.98 -2124.54c-75.58,134.09 -61.87,7.15 -36.01,144.61l-493.47 -339.14c-356.16,-126.64 -655.42,-411.73 -1090.88,-446.32 -360.71,-28.64 -863.66,152.58 -863.09,564.9 403.38,5.45 979.96,104.85 1382.33,178.48 415.29,76 905.54,243.02 1291.03,291.67 -68.98,53.4 -53.62,122.13 -338.83,35.04 -777.66,-237.46 -1571.67,-332.66 -2387.52,-404.67l145.41 462.17c582.75,434.72 466.27,464.01 1320.87,399.01l386.97 -40.25c177.94,-95.2 725.56,-267.24 932.33,-265.35 372.83,667.29 716.48,1346.38 998.71,2035.17 77.16,18.77 52.03,29.27 54.07,-57.54l463.5 -924.24c-53.26,325.91 -292.18,620.69 -412,928.24l73.13 8.74 474.06 -368.25 143.2 -871.54c46.73,-242.09 26.12,-206.79 -24.01,-269.53l-270.73 565.82 234.86 -603.7zm102.43 -120.51l-5.99 87.99c66.09,161.78 62.11,8.01 5.99,-87.99zm80.03 -174.1l9.56 -87.61 -9.56 87.61 -18.18 124.28 0.65 34.53 17.53 -158.81zm-535.05 2882.18c37.07,13.22 33.8,-0.7 83.79,31.19l-375.6 -1018.59 -50.35 73.47 342.16 913.93zm-1848.98 -3910.55c-162.59,-268.41 -325.79,-490.62 -505.71,-743.47 -123.35,-173.34 -166.51,-210.25 -139.98,-432.31 22.87,-191.25 64.77,-379.05 81.59,-572.35 -326.87,-47.84 -912.06,446.07 -1060.95,712.21 228.22,40.1 411.06,40.99 638.78,57.12 275.78,19.52 273.45,15.94 422.65,238.54 126.87,189.28 445.68,613.2 496.33,813.32l209.05 249.47c-22.87,-218.41 -43.53,-147.48 -141.76,-322.53z"/>
   <path class="fil8" d="M6298.09 11545.43c-320.98,222.37 -576.54,-141.28 -913.39,326.59 -232.24,322.56 -299.97,683.42 -192.34,1072.32 208.65,753.95 899.5,920.26 1604.45,748.51 63.78,-334.89 216.92,-639.32 574.49,-687.95l142.56 1023.43 32.48 -129.3 -96.26 -931.88c115.17,-654.7 -69.6,-1305.13 -765.02,-1461.97l-386.97 40.25z"/>
   <path class="fil8" d="M18829.63 8957.59l-11.74 25.41 -58.74 155.54c82.65,658.53 268.3,1199.36 1019.77,1303.89 628.6,87.44 1229.17,-308.19 1319.39,-934.2 -193.2,-228.42 -289.74,-267.89 -484.41,-573.05 -139.03,-217.92 -270.63,-420.26 -491.65,-554.4 -453.49,-275.23 -1118.37,222.33 -1292.62,576.81z"/>
   <path class="fil3" d="M2212.03 12744.31l55.8 54.7 39.04 61.81 47.73 55.04 45.15 56.44c124.2,126.34 411.45,252.54 566.95,322.83 233.52,105.58 565.47,138.93 797.1,29.58l43.48 -55.31 328.56 -630.87c102.41,-223.83 -103.16,-467.91 -215.08,-673.2l-37.92 -30.51c-254.76,-423.65 -598.86,-723.59 -1149.76,-683.98 -850.88,23.05 -977.89,927.11 -521.05,1493.47z"/>
   <path class="fil7" d="M4141.3 15147.35l143.75 51.95c956.93,-22.2 1077.84,-639.46 1669.25,-1013.29l756.59 490.5c-125.11,-223.57 -950.81,-703.83 -1221.95,-887.49 -26.57,80.82 -90.34,-28.9 97.13,150.04 -489.24,1.36 -954.27,-158.51 -1446.88,19.24 -327.19,103.83 -397.59,261.83 -534.23,552.43l-137.38 -144.15c12.61,153.67 87.88,262.18 198.05,377.16 402.72,-196.74 1806.27,-644.97 2227.02,-616.29 -579.75,208.34 -1708.75,317.22 -2215.19,669.22l302.19 467.04c21.28,-45.9 27.26,-82.89 28.17,-142.59l133.48 26.23zm-68.5 281.31l54.98 -58.68 -80.56 -120.73 25.58 179.41zm68.28 104.48c170.03,179.23 415.8,571.46 580.95,796.61l1292.06 1626.31c124.1,151.28 542.07,690.48 714.23,749.14 -63.86,-273.47 -2263.48,-2568.69 -2523.7,-3305.43 -98.8,58.87 -88.54,-52.97 -63.54,133.37zm3986.35 4699.21l124.52 8.65c-73.91,-153.55 -904.68,-906.25 -1281.72,-1361.73 -139.42,-168.42 -74.97,-145.15 -241.91,-174.07 192.27,480.28 1157.93,1143.24 1399.11,1527.15zm-5052.71 -6523.52l-38.98 23c78.97,202.97 256.92,524.09 415.18,646.12 -58.23,-237.93 -250.62,-453.04 -376.2,-669.12zm-99.63 -88.59l11.43 88.19 54.5 -79.32 -65.93 -8.87zm1160.75 -981.71l-328.56 630.87 -43.48 55.31c203.62,113.88 51.45,29.87 429.4,-45.7 232.69,-46.54 285.64,-13.06 470.29,94.95 220.5,129 544.79,355.65 776.99,420.18 -398.08,-430.88 -946.75,-379.39 -1078.25,-747.62 -24.37,-68.22 -44.6,-174.8 -74.56,-241.34 -103.18,-229.07 -19.01,-111.06 -151.83,-166.65z"/>
   <path class="fil8" d="M8461.65 10075.85c68.9,344.72 276.46,665.88 632.9,705.92 216.88,-115.9 319.78,-118.07 566.06,-95.59l-52.89 336.09c2.45,142.08 22.26,-77.24 38.99,-123.37 117.85,-325.4 -1.17,-69.66 169.12,-227.87 115.85,-107.61 173.72,-292.02 270.4,-454.85 185.46,-312.33 406.11,-581.45 611.9,-844.81 -385.35,-297.6 -808.96,-871.5 -1378.83,-443.01 -192.66,144.86 -309.31,382.14 -458.07,585.23 -130.54,178.27 -402.18,365.32 -399.58,562.26zm1093.78 1098.47l-0.22 -76.3 0.22 76.3zm-121.13 311.42l82.16 26.93 18.18 -124.28 9.56 -87.61c7.01,-83.68 30.88,-78.28 -43.02,-50.41l-66.88 235.37z"/>
   <path class="fil9" d="M14200.8 10055.25c1773.55,181.5 3351.9,600.85 4670.37,1757.42 502.44,-111.43 975.98,-509.31 2240.38,-684.84 981.85,-136.31 1605.02,-21.95 2454.4,399.36 113.99,-136.59 82.3,-70.74 102.56,-219.22l-470.46 -151.11c-161.43,-23.97 -427.67,-92.6 -533.47,-169.16 -606.5,-89.87 -1045.83,-193.42 -1682.15,-135.61 -698.42,63.47 -902.15,225.61 -1491.83,397.1l-452.06 303.84c-229.14,-82.5 -805.98,-684.41 -2058.25,-1171.64 -773.36,-300.89 -1799.24,-555.6 -2636.86,-610.6l-142.63 284.46z"/>
   <path class="fil8" d="M21590.98 16762.5c338.14,228.22 439.84,408.67 935.64,396.09 371.03,-9.42 662.52,-188.46 884.28,-445.06 483.37,-559.31 276.33,-1473.79 -375.99,-1764.22 -209.16,352.42 -325.02,650.33 -625.38,973.64 -184.59,198.73 -721.54,675.29 -818.55,839.55z"/>
   <path class="fil8" d="M18525.13 18733.27c63.22,176.65 218.36,183.27 422.11,259.58 175.95,65.91 352.91,138.16 526.57,201.87 311.27,114.17 831.08,336.81 1142.27,351.21l42.41 -58.11c301.23,-699.69 289.09,-1305.9 -416.49,-1730.22l-1716.87 975.67z"/>
   <path class="fil4" d="M7083.32 10433.08l-244.55 32.07 493.47 339.14c-25.86,-137.46 -39.57,-10.52 36.01,-144.61l1155.98 2124.54c-21.57,-427.92 -72.31,-858.19 40.38,-1277.05 131.49,-488.75 243.67,-451.44 529.94,-725.4 -356.44,-40.04 -564,-361.2 -632.9,-705.92l-90.41 -63.13c-309.72,176.57 -883.52,521.62 -1220.63,347.3 98.23,175.05 118.89,104.12 141.76,322.53l-209.05 -249.47z"/>
   <path class="fil4" d="M6685.06 11505.18c695.42,156.84 880.19,807.27 765.02,1461.97 667.13,72.37 753.8,741.46 551.25,1283.51l478.74 -1.5c-45.96,-173.58 -81.73,-319.34 -74.07,-502.97 2.88,-68.45 21.02,-203.01 41.67,-269.9 59.82,-193.77 37.99,-166.57 168.43,-201.29 -13.41,97.32 -41.66,81.64 41.33,81.64l50.35 -73.47c103.67,1.02 87.02,32.11 87.02,-52.97l-73.13 -8.74 -51.5 -4c-2.04,86.81 23.09,76.31 -54.07,57.54 -282.23,-688.79 -625.88,-1367.88 -998.71,-2035.17 -206.77,-1.89 -754.39,170.15 -932.33,265.35z"/>
   <path class="fil6" d="M14749.07 4555.25l-0.19 403.26 10.44 20.35c583.12,769.6 1951.66,-139.18 1424.82,-989.2 -655.77,-211.85 -1205.82,-218.17 -1435.07,565.59z"/>
   <path class="fil6" d="M11787.24 5310.5c616.05,785.32 1844.44,-23.44 1460.63,-953.92 -879.36,-413.58 -1440.6,35.46 -1460.63,953.92z"/>
   <path class="fil8" d="M8917.25 20098.82c265.23,-66.15 578.17,-226.47 841.44,-242.58 356.38,-21.81 782.19,-1.46 1146.17,-1.46 728.43,0 1600.43,43.06 2311.33,-12.31l-209.33 -58.51 -3161.56 16.39c223.52,-175.67 587.26,-204.64 823.4,-376.88 -134.89,-76.59 -1628.62,-603.02 -1872.75,-675.57 -87.11,260.26 -143.82,425.29 -104.38,709.84 32.79,236.54 213.86,432.49 225.68,641.08z"/>
   <path class="fil9" d="M20150.05 7081.18c260.6,362.05 113.95,-50.84 725.44,960.4 154.55,-109.49 197.43,-305.7 391.81,-452.25 187.21,-141.16 441.45,-195.35 567.92,-305.89 -112.3,-179.02 -256,-277.06 -382.97,-491.53 -136.06,-229.78 -181.09,-431.51 -286.67,-638.79 -142.16,51.97 -306.34,383.48 -447.64,521.92 -208.66,204.47 -352.36,243.31 -567.89,406.14z"/>
   <path class="fil8" d="M3035.74 13731.83l-49.22 -23.4 -11.43 -88.19c-69.61,44.48 -49.84,46.65 -39.89,-34.98l-146.35 11.46 -68.91 37.25c85.35,249.26 1102.05,1727.38 1313.13,1943.57l69.91 -35.61 -30.18 -113.27 -25.58 -179.41 80.56 120.73 103.71 -15.4 53.56 -155.28 -143.75 -51.95 -133.48 -26.23c-0.91,59.7 -6.89,96.69 -28.17,142.59l-302.19 -467.04c506.44,-352 1635.44,-460.88 2215.19,-669.22 -420.75,-28.68 -1824.3,419.55 -2227.02,616.29 -110.17,-114.98 -185.44,-223.49 -198.05,-377.16l137.38 144.15c136.64,-290.6 207.04,-448.6 534.23,-552.43 -191.03,-415.57 -753.16,-489.89 -1170.48,-416.87l16.76 40.76c83.86,-21.97 66.21,-38.59 55.55,46.92l33.7 79.72c125.58,216.08 317.97,431.19 376.2,669.12 -158.26,-122.03 -336.21,-443.15 -415.18,-646.12z"/>
   <path class="fil8" d="M26323.95 13963.34c123.94,-267.3 453.08,-548.71 465.62,-837.68l-134.75 -42.45 -72.41 -28.85c-51.98,322.4 -389.06,563.8 -449.41,877.94l190.95 31.04zm191.78 -940.09c-394.1,32.6 -657.36,-51.05 -1001.51,270.97 -271.24,253.81 -472.63,585.9 -377.83,976.69 137.93,-84.58 225.02,-159.87 388.53,-237.05 177.85,-83.95 411.16,-82.79 514.02,-162.25 137.41,-106.15 451.22,-678.89 476.79,-848.36z"/>
   <path class="fil1" d="M12819.02 15824.2c132.82,84.35 31.85,23.85 76.57,106.65 159.16,35.65 320.23,135.73 424.31,262.55l94.3 16.11 1132.71 0.52 62.11 -1.17c196.9,2.82 425.16,-32.46 567.33,50.94l59.31 3.86 270.41 -61.55c-290.6,-295.47 -1073.29,-448.25 -1436.26,-680.79l-1250.79 302.88zm382.36 385.65l-16.29 -49.19 16.29 49.19zm-60 -73.91l-24.8 -45.97 24.8 45.97zm-174.74 -95.85l-18.4 -47.33 18.4 47.33z"/>
   <path class="fil9" d="M11787.24 5310.5c20.03,-918.46 581.27,-1367.5 1460.63,-953.92 -222.85,-539.35 -900.82,-764.3 -1380.03,-384.09 -511.93,406.13 -412.2,1346.48 -80.6,1338.01z"/>
   <path class="fil9" d="M14749.07 4555.25c229.25,-783.76 779.3,-777.44 1435.07,-565.59 75.68,-395.02 -813.81,-730.14 -1292.2,-431.7 -459.87,286.92 -616.82,1002.16 -194.57,1387.18 -3.47,-204.59 -38.67,-206.16 51.7,-389.89zm10.25 423.61l-10.44 -20.35 10.44 20.35z"/>
   <path class="fil8" d="M22535.5 12866.22l298.17 364.85c210.06,63.43 444.21,76.33 661.38,25.55 76.33,-17.85 191.27,-62.76 262.7,-99.66 182.81,-94.41 165.03,-90.15 234.9,-238.16 -285.8,-67.39 -739.82,-405.67 -892.33,-628.39l-564.82 575.81zm340.66 433.04l-24.5 -2.6 24.5 2.6z"/>
   <path class="fil7" d="M6796.81 13692.85c-0.98,291.47 40.03,529.6 190.38,773.09l541.92 -173.66 -15.25 -263.95 -142.56 -1023.43c-357.57,48.63 -510.71,353.06 -574.49,687.95z"/>
   <path class="fil9" d="M3925.36 18376.75c16.55,6.62 784.93,134.09 857.19,139.84 -9.87,-176.95 -50.04,-291.1 -16.89,-484.3 29.55,-172.28 116.1,-255.8 117.33,-397.21 -511.64,-50.9 -567.62,-156.91 -948.76,-238.13 133.45,726.39 -54.15,838.33 -8.87,979.8z"/>
   <path class="fil9" d="M25085.99 17812.58c60.73,230.74 236.37,459.79 324.01,811.11 111.73,-52.87 196.45,-153.04 319.05,-217.41 202.26,-106.17 319.13,-69.04 481.72,-131.4 -62.49,-320.06 -201.42,-470.67 -255.96,-930.38 -309.4,129.29 -26.79,185.79 -868.82,468.08z"/>
   <path class="fil8" d="M7006.1 17650.03c-192.01,-279.34 -432.06,-415.84 -618.83,-794.93 -226.18,-459.03 -136.55,-766.67 -117.54,-1246.91 -726.46,400.76 -507.48,1927.4 736.37,2041.84z"/>
   <path class="fil9" d="M7998.9 8064.29c132.73,244.45 345.09,306.3 516.27,716 110.43,-79.97 170.74,-213.13 288.72,-315.78 159.61,-138.89 294.91,-138.91 419.01,-243.07 -480.47,-566.14 -352.63,-617.1 -506.71,-821.14 -317.02,321.04 -214.26,399.82 -717.29,663.99z"/>
   <path class="fil9" d="M21955.51 6551.1c144.31,254.4 326.24,292.44 507.35,725.07 152.5,-97.41 164.93,-203.21 306.81,-323.17 122.66,-103.73 265.73,-136.59 399.05,-213.92 -29.28,-124.81 -166.57,-221.09 -259.33,-363.49 -112.06,-172.02 -145.84,-305.5 -220.32,-485.5 -276.29,265.06 -273.39,471.14 -733.56,661.01z"/>
   <path class="fil9" d="M20391.15 4988.1c69.97,193.28 93.7,121.14 282.33,345.35 110.15,130.91 154.12,246.44 236.73,360.1 118.25,-123.23 140.98,-219.3 274.81,-323.05 140.41,-108.85 286.65,-132.73 410.04,-223.61 -197.36,-353.05 -334.24,-331.64 -468.62,-833.9 -173.82,112.91 -157.37,229.58 -304.69,380.76 -122.62,125.83 -296.2,197.16 -430.6,294.35z"/>
   <path class="fil7" d="M7546.34 13899.03l28.8 378.97 426.19 -27.34c202.55,-542.05 115.88,-1211.14 -551.25,-1283.51l96.26 931.88z"/>
   <path class="fil2" d="M13006.86 19783.96l-2338.16 -360.49c-236.14,172.24 -599.88,201.21 -823.4,376.88l3161.56 -16.39z"/>
   <path class="fil8" d="M8794.8 13230.2c0,85.08 16.65,53.99 -87.02,52.97l375.6 1018.59 218.55 22.98c-96.01,-483.54 -30.43,-977.63 -33.07,-1462.79l-474.06 368.25z"/>
   <path class="fil10" d="M11849.15 15326.94l-57.33 -8.9 57.33 8.9zm1046.44 603.91c-37.19,85.72 -45.41,58.73 52.65,61.91l18.4 47.33 149.94 49.88 24.8 45.97 43.71 24.72 16.29 49.19 118.52 -16.45c126.19,199.78 1916.64,1297.02 2044.13,1632.71l104.54 -72.92 -557.71 -428.94c118.95,-185.46 115.48,-3.39 153.44,-242.09 -121.4,157.88 -45.54,120.73 -258.47,146.02l-190.47 -351.1 -28.28 183.31 -1172.88 -850.88 -94.3 -16.11c-104.08,-126.82 -265.15,-226.9 -424.31,-262.55 -44.72,-82.8 56.25,-22.3 -76.57,-106.65l-947.46 -471.77c7.33,81.67 46.45,75.82 187.33,150.04 93.61,49.33 185.79,96.15 280.72,146.5 181.87,96.48 363.23,240.06 555.98,281.88zm1713.43 278.01l-62.11 1.17c0.02,213.17 -39.59,485.36 57.29,655.02l4.82 -656.19zm626.64 54.8l-59.31 -3.86c31.93,380.61 -61.21,498.86 -101.21,825.04 156.89,-208.82 159.87,-533.94 160.52,-821.18zm-280.29 2851.16c140.27,-97.6 218.18,-336.21 330.24,-565.57 91.79,-187.86 207.36,-419.12 317.08,-591.18l-62.36 -92.58 -41.68 -56.12c-129.48,219.87 98.05,-47.47 -21.57,240.1 -112.44,270.32 -376.32,687.82 -521.71,1065.35z"/>
   <path class="fil9" d="M14431.03 10485.08c-472.64,-111.04 -648.97,911.45 -462.41,1039.09 294.15,201.24 638.08,-730.83 462.41,-1039.09z"/>
   <path class="fil8" d="M8480.07 14249.16l519.52 21.41 -342.16 -913.93c-82.99,0 -54.74,15.68 -41.33,-81.64 -130.44,34.72 -108.61,7.52 -168.43,201.29 -20.65,66.89 -38.79,201.45 -41.67,269.9 -7.66,183.63 28.11,329.39 74.07,502.97z"/>
   <path class="fil7" d="M17005.74 14889.25l37.41 57.89 233.42 -249.67c74.09,3.49 56.2,20.55 50,-54.62 74,5.63 57,23.14 53.36,-50.13 75.8,5.75 58.27,23.26 52.61,-52.54 74.89,6.27 58.25,23.44 50.27,-51.17 77.63,4.74 59.63,22.75 52.85,-55.12 74.68,6.52 56.04,23.34 54.23,-52.26 74.12,10.05 55.9,26.48 55.92,-47.86 75.96,11.13 58.15,27.85 55.12,-48.3 77.92,12.47 60.65,29.46 54.17,-48.5 82.02,14.34 64.27,31.99 55.82,-50.17 81.2,14.63 62.25,30.92 53.95,-51.93 86.01,14.29 62.19,26.83 41.94,-63.46l-41.94 63.46 -53.95 51.93 -55.82 50.17 -54.17 48.5 -55.12 48.3 -55.92 47.86 -54.23 52.26 -52.85 55.12 -50.27 51.17 -52.61 52.54 -53.36 50.13 -50 54.62 -99.24 36.97c90.12,-392.85 1501.43,-2322.61 1717.44,-2899.87 -240.5,228.11 -1060.23,1676.19 -1376.92,2165.53l-348.47 546.42c-117.01,202.28 -81.42,59.43 -13.28,212.23l-150.36 130.5zm-99.04 142.48l112.75 -13.85 -62.06 -85.47 -50.69 99.32z"/>
   <path class="fil9" d="M13518.79 12021.9l-0.29 196.29 44.77 69.62c85.55,-13.38 68.61,-35.42 68.61,44.16l269.21 -57.62 29.89 -247.48c-160.35,-167.85 -280.41,-210.71 -412.19,-4.97z"/>
   <path class="fil8" d="M23684.1 11671.04l-35.05 33.65 168.48 172.04 -133.43 -205.69zm1124.7 1555.77l6.22 -65.75 -933.08 -1304.62c-124.51,132.53 -68.17,59.31 -1.28,118.5 35.87,31.74 44.17,39.97 75.52,77.55 324.33,388.8 664.01,947.91 852.62,1174.32z"/>
   <path class="fil10" d="M17258.71 3896.33c-144.8,179.57 -240.69,201.14 -297.72,457.65 151.93,-163.61 141.67,-415.9 425.02,-365.48 84.29,199.21 55.3,280.19 -7.38,466.02 305.12,-270.32 35.51,-726.09 -436.9,-645.21l316.98 87.02z"/>
   <path class="fil10" d="M10578.96 5284.3c-139.41,-201.31 -178.47,-195.76 -114.17,-469.92 290.17,-62.14 319.48,136.61 475.23,276.5 -107.94,-368.74 -108.06,-50.28 -383.8,-463.98 -228.89,186.77 -255.26,577.56 22.74,657.4z"/>
   <path class="fil10" d="M14215.87 14196.43l0 -19.93c-295.14,28.81 -1249.63,129.18 -1416.33,264.94l1416.33 -245.01z"/>
   <path class="fil8" d="M9448.62 11650.48l5.99 -87.99 -69.85 -23.74 16.59 73.95c-10.05,73.37 -24.41,59.09 47.27,37.78zm-60.57 70.4l-35.87 -37.88 -234.86 603.7 270.73 -565.82zm-717.88 1496.58l51.5 4c119.82,-307.55 358.74,-602.33 412,-928.24l-463.5 924.24z"/>
   <path class="fil8" d="M22664.58 10987.7c105.8,76.56 372.04,145.19 533.47,169.16l-66.13 -120.12 68.67 -54.8c-145.26,-79.16 -312.71,5.3 -536.01,5.76z"/>
   <path class="fil10" d="M13948.09 5863.58l-225.8 -214.08c88.33,464.05 729.15,317.75 756.41,-116 -211.52,247.21 -124.57,336.38 -530.61,330.08z"/>
   <polygon class="fil6" points="2935.2,13585.26 2985.47,13582.19 2968.71,13541.43 2780.24,13206.54 2733.02,13263.29 "/>
  </g>
 </g>
</svg>
