<?xml version="1.0" encoding="UTF-8"?>
<!DOCTYPE svg PUBLIC "-//W3C//DTD SVG 1.0//EN" "http://www.w3.org/TR/2001/REC-SVG-20010904/DTD/svg10.dtd">
<!-- Creator: CorelDRAW 2021 (64 Bit) -->
<svg xmlns="http://www.w3.org/2000/svg" xml:space="preserve" width="297mm" height="210mm" version="1.0" style="shape-rendering:geometricPrecision; text-rendering:geometricPrecision; image-rendering:optimizeQuality; fill-rule:evenodd; clip-rule:evenodd"
viewBox="0 0 29700 21000"
 xmlns:xlink="http://www.w3.org/1999/xlink"
 xmlns:xodm="http://www.corel.com/coreldraw/odm/2003">
 <defs>
  <style type="text/css">
   <![CDATA[
    .fil0 {fill:#263138;fill-rule:nonzero}
    .fil3 {fill:#445964;fill-rule:nonzero}
    .fil5 {fill:#F4F4F4;fill-rule:nonzero}
    .fil4 {fill:#FF725D;fill-rule:nonzero}
    .fil2 {fill:#FF9A6C;fill-rule:nonzero}
    .fil1 {fill:#FFBF9C;fill-rule:nonzero}
   ]]>
  </style>
 </defs>
 <g id="Camada_x0020_1">
  <metadata id="CorelCorpID_0Corel-Layer"/>
  <g id="_2555925599808">
   <g>
    <g>
     <g>
      <g>
       <g>
        <g>
         <path class="fil0" d="M17499.83 20841.86c-232.58,-484.41 -420.26,-775.32 -420.26,-775.32l-984.22 775.32 1404.48 0z"/>
        </g>
       </g>
      </g>
      <g>
       <g>
        <g>
         <path class="fil0" d="M17003.38 20841.86l373.96 -246.31 -515.02 -1850.11c0,0 -2895.26,1208.99 -4194.71,948.98 -1299.42,-260 -2723.48,-1385.14 -2723.48,-1385.14 -271.07,571.73 -729.35,1735.72 -984.48,2532.58l8043.73 0z"/>
        </g>
       </g>
      </g>
     </g>
    </g>
   </g>
   <g>
    <g>
     <path class="fil0" d="M10095.94 17934.21c-15.28,-10.08 -126.71,131.96 -248.83,317.19 -122.16,185.3 -208.72,343.63 -193.4,353.72 15.29,10.08 126.68,-131.88 248.84,-317.18 122.12,-185.23 208.72,-343.64 193.39,-353.73z"/>
    </g>
   </g>
   <g>
    <g>
     <g>
      <g>
       <path class="fil0" d="M11176.37 2006.26c-536.96,422.93 -843.41,1122.21 -790.57,1803.74 25.7,331.02 116.96,708.85 -98.38,961.59 -213.16,250.18 -631.79,242.95 -836.14,500.39 -240.56,303.09 -39.11,754.14 -125.2,1131.39 -80.85,354.12 -454.37,615.06 -814.67,569.16 422.43,344.94 941.57,570.25 1482.07,643.08 138.24,-177.46 276.45,-354.92 414.69,-532.41 -157.18,186.42 -115.43,483.51 36.87,673.9 152.27,190.43 387.19,294.2 619.58,367.96 1110.25,352.17 2382.81,145.29 3324.38,-540.39l-3212.63 -5578.41z"/>
      </g>
     </g>
     <g>
      <g>
       <path class="fil0" d="M17400.35 4931.3c-82.91,-253.78 -222.09,-489.03 -277.9,-750.12 -119.92,-561.18 153.46,-1192.9 -118.76,-1698.06 -193.79,-359.58 -606.68,-535.63 -997.05,-655.87 -390.33,-120.21 -809.33,-222.13 -1100.41,-508.66 -213.5,-210.13 -334.97,-499.56 -547.77,-710.41 -303.23,-300.48 -750.92,-402.3 -1177,-428.46 -437.54,-26.86 -890,15.18 -1283.55,208.32 -393.51,193.14 -720.31,555.72 -790.46,988.48 -34.19,211 -8.28,432.12 -74.81,635.27 -73.12,223.39 -248.59,397.17 -356.73,605.89 -228.59,440.93 -104.7,1034.78 281.12,1347.59l3004.08 3880.34c631.04,238.4 2160.14,-49.91 2647.87,-515.96 487.77,-466.05 1000.81,-1757.08 791.37,-2398.35z"/>
      </g>
     </g>
     <g>
      <g>
       <path class="fil1" d="M11036.43 3472.32c123.82,-880.99 793.75,-1922.1 1668.68,-1761.01l2700.89 907.88c265.78,48.94 75.53,482.39 49.51,751.39l-587.23 6091.01c4.41,1.34 364.81,260.44 495.11,210.53 33.79,-12.97 64.15,25.01 43.62,54.79 -324.38,470.97 -1855.57,2529.94 -3433.56,1901.36 -352.53,-140.45 36.83,-1251.2 -4.41,-1662.75l46.87 -1051.26c34.92,-536.67 51.9,-756.56 51.18,-751.61 0,0 -1116.53,-274.71 -1237.43,-1768.35 -60.17,-742.83 69.18,-1943.21 206.77,-2921.98z"/>
      </g>
     </g>
     <g>
      <g>
       <g>
        <g>
         <g>
          <g>
           <g>
            <g>
             <g>
              <g>
               <g>
                <g>
                 <g>
                  <g>
                   <g>
                    <path class="fil0" d="M11373.85 4896.43c-11.2,99.68 63.94,191.33 167.81,204.96 103.62,13.59 196.97,-55.91 208.21,-155.63 11.21,-99.64 -63.93,-191.44 -167.59,-205.03 -103.87,-13.66 -197.19,56.05 -208.43,155.7z"/>
                   </g>
                  </g>
                 </g>
                </g>
               </g>
              </g>
             </g>
            </g>
           </g>
          </g>
         </g>
        </g>
       </g>
      </g>
     </g>
     <g>
      <g>
       <g>
        <g>
         <g>
          <g>
           <g>
            <g>
             <g>
              <g>
               <g>
                <g>
                 <g>
                  <g>
                   <g>
                    <path class="fil0" d="M13193.67 5010.31c-11.2,99.68 63.94,191.37 167.81,204.96 103.66,13.59 197.01,-55.91 208.21,-155.63 11.17,-99.64 -63.97,-191.44 -167.59,-205.03 -103.9,-13.62 -197.22,56.06 -208.43,155.7z"/>
                   </g>
                  </g>
                 </g>
                </g>
               </g>
              </g>
             </g>
            </g>
           </g>
          </g>
         </g>
        </g>
       </g>
      </g>
     </g>
     <g>
      <g>
       <g>
        <g>
         <g>
          <g>
           <g>
            <g>
             <g>
              <g>
               <g>
                <g>
                 <g>
                  <g>
                   <g>
                    <g>
                     <path class="fil0" d="M11156.64 4204.24c20.56,34.66 196.65,-76.66 417.08,-44.57 220.72,28.37 361.89,183.24 390.66,155.3 13.95,-12.21 -3.15,-71.95 -64.26,-141.64 -60.07,-69.17 -169.29,-143.77 -306.74,-162.71 -137.52,-18.68 -262.25,23.6 -338.04,74.28 -77.27,50.74 -109.04,103.65 -98.7,119.34z"/>
                    </g>
                   </g>
                  </g>
                 </g>
                </g>
               </g>
              </g>
             </g>
            </g>
           </g>
          </g>
         </g>
        </g>
       </g>
      </g>
     </g>
     <g>
      <g>
       <g>
        <g>
         <g>
          <g>
           <g>
            <g>
             <g>
              <g>
               <g>
                <g>
                 <g>
                  <g>
                   <g>
                    <g>
                     <path class="fil0" d="M13136.24 4367.67c25.99,31.88 199.29,-93.82 436.35,-83.74 237.09,6.47 405.22,144.1 432.36,114.06 13.23,-13.3 -11.74,-69.93 -85.15,-132.1 -71.92,-61.94 -196.5,-124.22 -344.32,-129.49 -147.82,-4.99 -274.79,48.36 -348.99,105.21 -75.54,57.03 -102.97,111.75 -90.25,126.06z"/>
                    </g>
                   </g>
                  </g>
                 </g>
                </g>
               </g>
              </g>
             </g>
            </g>
           </g>
          </g>
         </g>
        </g>
       </g>
      </g>
     </g>
     <g>
      <g>
       <g>
        <g>
         <g>
          <g>
           <g>
            <g>
             <g>
              <g>
               <g>
                <g>
                 <g>
                  <g>
                   <g>
                    <g>
                     <path class="fil0" d="M12392.98 5763.62c1.81,-11.53 -123.06,-43.12 -326.18,-85.12 -51.57,-9.36 -100,-23.49 -106.04,-59.63 -9.36,-38.53 16.66,-92.85 46.55,-151.47 58.55,-122.05 119.89,-250.03 184.22,-384.15 256.9,-547.34 447.08,-999.04 424.99,-1009.16 -22.12,-10.23 -248.33,425.25 -505.23,972.58 -62.05,135.1 -121.43,263.84 -177.92,387.01 -24.25,57.61 -63.22,122.01 -42.65,202.07 11.02,39.9 46.98,71.02 79.66,82.58 32.56,12.72 61.73,15.54 87.39,19.05 205.54,27 333.55,37.77 335.21,26.24z"/>
                    </g>
                   </g>
                  </g>
                 </g>
                </g>
               </g>
              </g>
             </g>
            </g>
           </g>
          </g>
         </g>
        </g>
       </g>
      </g>
     </g>
     <g>
      <g>
       <g>
        <g>
         <g>
          <g>
           <g>
            <g>
             <g>
              <g>
               <g>
                <g>
                 <g>
                  <g>
                   <g>
                    <path class="fil2" d="M12067.09 8162.65c0,0 987.8,140.3 2016.76,-375.26 0,0 -576.32,997.44 -2042.64,745.86l25.88 -370.6z"/>
                   </g>
                  </g>
                 </g>
                </g>
               </g>
              </g>
             </g>
            </g>
           </g>
          </g>
         </g>
        </g>
       </g>
      </g>
     </g>
     <g>
      <g>
       <path class="fil2" d="M13014.19 6357.97c-27.57,-47.27 -57.17,-96.64 -104.48,-124.22 -52.12,-30.39 -116.96,-28.84 -176.27,-17.74 -86.31,16.15 -171.49,52.55 -230.73,117.35 -59.27,64.84 -88.08,161.19 -58.19,243.78 22.84,85.18 149.88,131.84 236.73,147.1 86.85,15.21 176.95,-10.09 253.79,-53.35 64.52,-36.32 126.53,-94.19 129.93,-168.13 2.39,-51.87 -24.61,-99.97 -50.78,-144.79z"/>
      </g>
     </g>
     <g>
      <g>
       <g>
        <g>
         <g>
          <g>
           <g>
            <g>
             <g>
              <g>
               <g>
                <g>
                 <g>
                  <g>
                   <g>
                    <g>
                     <path class="fil0" d="M12972.48 6071.26c-32.96,-4.45 -50.38,216.53 -251.65,358.89 -200.95,142.94 -434.72,99.97 -438.8,130.72 -4.16,13.63 49.19,46.99 148.43,57.33 97.26,10.84 242.19,-9.55 365.29,-96.61 122.85,-87.36 182.34,-211.9 196.83,-302 15.58,-91.77 -4.92,-148.44 -20.1,-148.33z"/>
                    </g>
                   </g>
                  </g>
                 </g>
                </g>
               </g>
              </g>
             </g>
            </g>
           </g>
          </g>
         </g>
        </g>
       </g>
      </g>
     </g>
     <g>
      <g>
       <g>
        <g>
         <g>
          <g>
           <g>
            <g>
             <g>
              <g>
               <g>
                <g>
                 <path class="fil0" d="M13154.13 3570.63c15.8,56.92 221.16,46.3 457.81,93.46 237.71,42.43 425,127.15 460.53,79.91 15.93,-22.66 -13.63,-77.3 -87.43,-136.94 -73.12,-59.42 -192.39,-119.77 -334.6,-146.77 -142.22,-26.71 -275.26,-14.02 -365.04,14.67 -90.43,28.63 -137.88,68.75 -131.27,95.67z"/>
                </g>
               </g>
              </g>
             </g>
            </g>
           </g>
          </g>
         </g>
        </g>
       </g>
      </g>
     </g>
     <g>
      <g>
       <g>
        <g>
         <g>
          <g>
           <g>
            <g>
             <g>
              <g>
               <g>
                <g>
                 <path class="fil0" d="M11282.12 3459.02c37.41,49.41 201.42,13.74 394.35,26.28 193.32,6.65 353.65,58.48 394.96,12.94 18.29,-22.19 -3.9,-70.48 -71.85,-119.78 -66.94,-49.04 -181.72,-93.71 -314.51,-100.4 -132.71,-6.5 -250.75,26.6 -321.45,68.82 -71.81,42.28 -97.83,88.15 -81.5,112.14z"/>
                </g>
               </g>
              </g>
             </g>
            </g>
           </g>
          </g>
         </g>
        </g>
       </g>
      </g>
     </g>
     <g>
      <g>
       <path class="fil0" d="M16003.32 2831.42c-136.22,-209.77 -381.16,-317.65 -614.45,-407.68 -1006.2,-388.49 -2058.8,-656.59 -3128.2,-796.72 -133.22,219.53 -10.05,518.35 190.97,678.14 200.92,159.82 459.19,222.96 699.68,312.88 240.52,89.99 487.04,228.52 586.15,465.4 105.35,251.98 16.4,550.37 109,807.23 159.24,442.09 776.11,584.59 932.9,1027.55 118.54,335 -75.5,691.61 -124.04,1043.67 -54.97,398.94 92.74,820.61 384.66,1098 230.19,218.76 545.38,341.47 862.38,347.54 73.19,-1268.44 146.41,-2536.88 219.6,-3805.32 15.29,-264.16 25.41,-548.78 -118.65,-770.69z"/>
      </g>
     </g>
     <g>
      <g>
       <path class="fil0" d="M18558.7 6035.84c-200.34,-179.55 -451.45,-334.86 -531.36,-591.72 -116.31,-374.18 184.21,-813.84 -9.25,-1154.59 -176.52,-310.78 -696.5,-295.06 -860.54,-612.57 -128.16,-247.93 18.97,-467.39 -29.71,-685.14 -48.69,-217.76 -357.77,-408.73 -579.36,-382.71l-1732.25 2510.6c-160.9,842.18 -322.71,1290.49 -141.89,1783.18 99.17,270.23 228.49,533.67 267.34,818.9 38.85,285.23 -34.05,608.41 -267.23,777.13 1035.68,81.21 2006.31,-460.92 2903.32,-985.02 316.42,-184.9 632.88,-369.8 949.34,-554.67 98.78,-57.75 201.64,-119.38 260.8,-217.32 139.11,-230.26 -28.88,-526.55 -229.21,-706.07z"/>
      </g>
     </g>
     <g>
      <g>
       <path class="fil3" d="M17603.68 7260.08c0,0 -36.86,13.77 -110.66,21.25 -73.34,7.37 -184.8,10.73 -322.57,-22.84 -136.47,-33.22 -302.08,-103.01 -450.04,-242.26 -147.97,-137.05 -267.2,-351.05 -296.19,-605.42 -14.13,-126.75 -5.63,-262.82 33.91,-397.23 39.9,-135.07 114.86,-260.44 192.31,-384.95 76.47,-124.76 159.93,-252.78 198.45,-399.37 38.06,-143.95 38.31,-315.12 -55.51,-439.2 -94.19,-126.24 -269.22,-157.07 -431.57,-222.52 -81.72,-32.64 -166.11,-83.38 -220.87,-163.58 -54.64,-79.99 -73.11,-178.4 -71.23,-271.57 2.24,-189.68 83.02,-363.01 117.78,-539.5 17.71,-88.4 24.11,-179.84 1.67,-264.56 -21.94,-84.64 -75.32,-158.88 -149.49,-210.05 -149.52,-106.77 -340.31,-123.82 -523.95,-140.02 -184.72,-13.26 -377.82,-54.9 -533.81,-157.03 -157.73,-97.44 -284.22,-237.09 -365.33,-396.05 -80.3,-160.76 -109.4,-333.48 -134.84,-496.37 -25.05,-163.44 -47.38,-322.32 -101.53,-465.62 -54.1,-142.61 -141.42,-266.44 -243.59,-367.16 -208.87,-198.75 -472.7,-304.54 -716.55,-324.49 -245.52,-20.71 -468.29,44.35 -641.49,133.66 -174.82,89.45 -305.51,202.07 -398.93,303.84 -186.71,206.95 -238.83,358.35 -246.6,353.4 -0.97,-0.44 2.39,-9.51 9.87,-26.89 8.02,-17.1 17.82,-43.77 35.85,-76.01 33.61,-65.74 91.15,-159.53 183.42,-266.15 92.24,-105.89 223.11,-223.54 400.82,-318.12 176.12,-94.37 404.71,-164.95 660.42,-146.23 253.32,18.03 527.92,124.8 747.88,330.92 107.6,104.41 200.48,234.05 258.53,384.4 57.72,150.39 81.06,313.32 106.83,475.77 25.95,162.28 55.52,328.86 131.31,478.99 76.65,148.98 196.32,280.5 345.08,371.87 148.26,95.85 324.01,133.94 508.37,147.53 181.69,16.34 385.89,31.81 553.3,150.64 83.13,56.92 147.75,145.54 172.69,243.74 25.84,98.24 17.56,198.75 -1.01,291.56 -38.03,186.89 -115.98,354.7 -117.57,529.08 -1.85,85.62 14.92,170.48 60.43,237.56 45.64,67.05 117.02,111.83 194.73,143.2 77.38,32.67 160.54,55.04 240.74,89.09 79.69,32.81 159.6,80.88 212.91,153.1 108.43,146.55 103.3,333.73 62.53,486.39 -42.87,157.8 -130.26,288.06 -207.28,412.24 -78.35,123.82 -151.39,244.54 -190.21,371.97 -38.71,127.48 -48.25,257.44 -36.07,379.13 25.19,244.36 136.87,451.45 277.17,585.68 140.45,136.62 300.02,207.96 432.44,243.82 270.7,68.78 428.18,13.59 427.45,24.36z"/>
      </g>
     </g>
     <g>
      <g>
       <path class="fil0" d="M18985.28 5475.24c0,0 20.78,25.34 34.16,84.68 13.59,58.19 11.92,154.33 -44.49,256.83 -29.06,49.84 -71.35,101.7 -132.54,139.29 -60.72,37.37 -138.02,60.32 -221.26,58.95 -164.88,1.77 -359.14,-97.59 -453.62,-288.06 -47.85,-92.99 -73.8,-201.99 -73.83,-315.73 0.18,-114.32 29.6,-230.3 72.86,-342.27 82.18,-224.15 231.38,-442.52 234.63,-704.48 2.89,-126.89 -26.89,-264.81 -120.21,-356.07 -92.3,-93.53 -234.85,-116.34 -376.49,-117.6 -141.93,-4.77 -296.62,13.41 -448.45,-46.48 -74.49,-30.25 -141.75,-85.26 -184.39,-155.3 -43.45,-69.58 -66.11,-149.05 -75.72,-228.49 -19.12,-161.52 18.65,-314.33 37.41,-460.52 22.76,-146.2 13.73,-290.23 -23.97,-426.77 -76.04,-272.47 -258.59,-501.25 -482.06,-632.59 -224.48,-135.39 -484.23,-149.99 -718.25,-163.98 -235.54,-12.47 -463.09,-27.25 -655.58,-103.4 -192.53,-71.89 -347.07,-180.35 -464.1,-291.96 -118.43,-111.2 -198.6,-227.51 -254.26,-326.39 -109.76,-200.63 -123.28,-328.72 -123.28,-328.72 7.34,-2.74 29.5,123.54 143.67,316.93 57.72,95.42 139.07,207.28 256.86,313.5 116.45,106.73 268.61,209.59 455.75,276.56 186.35,70.94 407.1,83.16 643.65,93.5 233.91,12.21 503.39,23.71 743.66,166 236.87,137.59 429.55,376.89 510.9,664.68 40.45,143.13 49.95,300.09 26.53,450.55 -19.55,149.77 -54.9,298.75 -37.04,445.41 14.85,145.95 90.31,285.06 223.21,335.55 130.76,52.91 281.22,38.52 426.76,42.82 143.7,1.56 306.92,25.01 415.89,135.86 108.93,108.61 138.68,262.72 135.1,398.21 -2.68,138.21 -43.73,269.7 -94.8,385.86 -50.2,117.42 -106.19,226.35 -148.73,335.36 -43.08,108.39 -71.63,218.11 -72.97,324.59 -1.15,106.47 21.94,208.94 65.27,296 85.34,177.86 262.25,271.68 416.25,273.7 77.13,2.86 149.05,-16.91 205.83,-49.83 57.07,-33.11 98.13,-80.42 127.08,-126.57 56.23,-94.99 62.12,-186.17 52.73,-242.84 -9,-57.72 -25.27,-85.48 -22.16,-86.78z"/>
      </g>
     </g>
     <g>
      <g>
       <path class="fil0" d="M8069.39 6093.96c9.65,-0.65 -56.06,99.35 3.43,270.84 29.86,80.67 97.33,178.98 215.27,218.34 114.67,39.21 274.49,8.89 380.14,-103.87 52.87,-55.37 83.63,-132.57 89.05,-216.93 5.6,-84.28 -11.17,-173.48 -39.65,-262.17 -55,-175.36 -167.19,-366.16 -149.99,-594.76 12.51,-221.69 124.95,-448.59 315.05,-598.61 94.05,-75.43 204.24,-133.26 322.82,-170.02 118.88,-38.24 245.66,-46.73 368.87,-52.98 123.64,-6.4 245.26,-9.69 358.13,-37.44 112.22,-26.89 214.14,-84.43 278.69,-173.23 64.84,-88.55 93.28,-198.71 100.8,-306.49 7.74,-108.78 -5.42,-215.55 -26.82,-319.46 -42.39,-206.98 -104.41,-408.11 -92.88,-605.99 10.3,-196.68 85.11,-371.39 185.01,-503.24 100.22,-134.38 229.75,-216.6 337.53,-285.12 109.33,-68.42 202.36,-127.48 269.87,-186.42 138.43,-116.89 162.32,-222.86 169.76,-218.08 0.94,0.36 -0.54,6.47 -4.44,18.14 -4.49,11.46 -8.75,29.74 -20.71,50.78 -20.35,43.73 -61.05,104.45 -128.92,166.61 -66.9,63.32 -160,126.36 -267.16,197.23 -106.37,71.42 -228.82,153.17 -321.7,282.38 -93.11,127.22 -161.7,294.55 -169.29,480.03 -9.07,186.43 52.22,381.56 97.36,592.55 22.59,105.57 37.59,218.88 29.89,334.5 -7.51,114.82 -37.11,236.15 -110.63,337.53 -73.26,102.06 -190.86,167.66 -311.9,196.54 -121.84,29.99 -246.53,32.92 -369.55,39.46 -123.1,6.26 -242.88,14.42 -354.27,50.1 -111.57,34.33 -215.3,88.51 -303.52,158.77 -177.96,139.4 -283.24,349.93 -296.51,555.93 -18.32,209.05 85.59,392.04 142.26,576.29 28.59,92.77 45.75,187.94 38.34,280.71 -6.79,92.24 -43.62,181.26 -104.45,242.62 -120.75,124.01 -295.49,152.78 -422.17,106.51 -130.11,-47.45 -198.2,-156.13 -226.5,-242.47 -29.42,-89.13 -21.4,-164.3 -9.98,-210.82 13.09,-47.02 28.77,-67.76 28.77,-67.76z"/>
      </g>
     </g>
    </g>
   </g>
   <g>
    <path class="fil4" d="M9923.11 16642.35c-16.41,89.96 -324.12,1445.86 -676.14,2168.81 -352.06,723.02 -291.59,759.78 -856.49,824.76 -564.9,64.99 -1407.16,162.61 -1852.57,-337.42 -445.41,-499.99 -535.95,-1525.77 -393.15,-2093.99 142.76,-568.26 865.49,-1528.81 865.49,-1528.81l1532.71 -4004.02 787.57 257.36 598.55 3419.68 -5.97 1293.63z"/>
   </g>
   <g>
    <path class="fil4" d="M8542.97 11671.69c0,0 154.55,-642.39 710.08,-1231.07 245.08,-259.71 2469.26,-1028.67 2469.26,-1028.67 1945.16,446.93 2885.65,-436.52 3086.42,-465.8 139.18,-20.31 1687.4,180.78 1687.4,180.78l687.42 4647.58c0,0 -178.18,3187.29 -192.71,3209.91 -14.46,22.63 590.05,2179.08 590.05,2179.08 0,0 -2908.81,1166.77 -4621.44,1678.36l-1894.53 0c-987.54,-434.72 -1772.36,-1395.81 -1772.36,-1395.81l408.04 -3238 -1157.63 -4536.36z"/>
   </g>
   <g>
    <g>
     <path class="fil0" d="M9202.59 12234.51c-18.33,0.91 43.44,1534.92 137.91,3425.9 94.48,1891.64 185.92,3423.84 204.24,3422.9 18.29,-0.9 -43.44,-1534.59 -137.91,-3426.22 -94.48,-1890.95 -185.92,-3423.52 -204.24,-3422.58z"/>
    </g>
   </g>
   <g>
    <g>
     <path class="fil2" d="M9766.08 13081.9c-3.94,-6.61 -71.6,18.18 -157.69,98.67 -21.07,20.56 -42.79,46.04 -59.38,80.49 -8.31,16.87 -14.82,37.44 -14.97,60.24 -1.4,22.81 7.41,47.64 14.14,64.19 26.16,74.67 104.23,154.15 202.1,164.77 44.46,9.98 100.95,1.2 138.06,-13.66 40.05,-13.52 76.45,-29.09 110.67,-44.74 68.38,-31.34 127.76,-62.85 176.95,-90.54 98.24,-55.55 155.27,-96.32 150.97,-104.27 -4.41,-8.17 -69.11,17.86 -171.86,62.24 -60.54,25.66 -120.21,50.92 -180.17,76.37 -69.06,24 -142.36,64.91 -213.99,49.04 -76.66,-9.86 -128.96,-61.33 -156.64,-123.6 -31.55,-52.92 6.25,-107.38 38.82,-148.87 70.07,-81.61 129.02,-121.95 122.99,-130.33z"/>
    </g>
   </g>
   <g>
    <g>
     <g>
      <path class="fil4" d="M16496.15 9126.92c0,0 1992.61,45.9 2191.11,2262.6 198.49,2216.69 -211.54,6116.38 -500.21,6666.2 -288.67,549.87 -3573.86,1597.23 -3573.86,1597.23 0,0 -2398.42,-1689.28 -2723.92,-2486.43 -336.33,-823.67 -71.96,-1235.87 154.8,-1591.76 796.03,-1249.4 1166.59,-662.05 1166.59,-662.05 264.16,395.1 1576.66,1026.03 1576.66,1026.03l660.78 -233.15c0,0 209.12,-1772.91 168.03,-2694.24l880.02 -3884.43z"/>
     </g>
     <g>
      <g>
       <path class="fil0" d="M15616.13 13011.35c-0.94,0.04 -1.45,15.72 -1.56,46.41 0.26,33.25 0.54,78.24 0.91,136.54 -1.59,120.35 -3.26,298.46 -15.22,529.45 -22.08,461.82 -73.95,1135.47 -172.11,1979.49l13.23 -16.59c-207.71,72.61 -429.26,150.03 -661.43,231.17l16.98 0.94c-245.84,-121.55 -501.97,-256.97 -762.38,-410.32 -130.25,-76.62 -261.77,-157.84 -390.76,-247.76 -127.77,-90.21 -259.97,-185.33 -365.15,-305.22 -24.93,-29.34 -46.98,-62.67 -79,-97.51 -31.45,-31.62 -67.7,-59.74 -109.59,-77.41 -82.98,-38.93 -179.87,-38.49 -265.93,-14.21 -173.26,53.93 -310.28,175.69 -433.09,303.56l-90.28 99.68 -82.77 106.73c-57.57,70 -105.46,147.2 -157.57,222.49 -100.91,151.39 -203.3,308.61 -272.98,487.44 -69.72,178 -99.94,375.63 -83.24,571.08 14.53,195.78 66.65,388.57 138.64,573.76 77.16,186.16 194.81,357.01 330.56,506.2 131.66,154.58 277.39,298.21 426.51,440.64 602.92,563.28 1280.25,1087.91 1994.2,1602.11l13.34 9.57 15.83 -5.09c282.59,-91.08 582.61,-193.04 884.14,-299.55 429.4,-151.97 851.22,-309.59 1261.61,-479.13 408.77,-172.62 812.87,-344.76 1177.69,-582.18 89.01,-62.52 179.12,-125.63 247.03,-219.88 58.29,-98.89 86.95,-203.74 113.48,-306.16 54.11,-205.8 90.18,-411.84 124.66,-615.9 65.41,-408.51 117.38,-809.9 157.32,-1202.55 83.02,-785.04 132.14,-1533.76 157.65,-2235.2 24.76,-701.41 25.45,-1355.98 -8.06,-1952.46 -11.81,-148.98 -18.83,-294.56 -34.01,-436.06 -23.78,-140.7 -35.52,-279.95 -67.87,-411.11 -66.25,-261.74 -150.75,-505.59 -275.91,-709.54 -239.84,-414.8 -572.56,-685.65 -870.66,-835.5 -298.53,-154.21 -555.03,-214.9 -727.5,-245.83 -86.67,-15.54 -153.6,-21.65 -198.53,-25.12 -45,-2.97 -68.16,-1.41 -68.16,-1.41 0,0 22.91,3 67.55,8.17 44.56,5.67 110.92,13.91 196.72,31.51 170.73,34.99 424.38,99.47 717.81,255.49 293.15,151.8 617.81,421.63 850.61,831.19 121.61,201.42 203.11,442.09 266.9,700.44 31.12,129.46 41.78,267.26 64.63,406.12 14.31,140.41 20.49,285.92 31.58,434.21 30.36,594.61 27,1247.8 -0.14,1947.84 -27.79,700.03 -78.94,1447.56 -163.47,2230.75 -40.66,391.78 -93.28,792.16 -158.99,1198.65 -34.55,202.76 -70.95,408.19 -124.22,609.65 -25.66,100.54 -55.69,202.75 -104.99,286.53 -56.53,79.11 -143.96,142.76 -229.87,202.29 -355.67,231.2 -759.77,403.74 -1166.48,575.01 -408.94,168.72 -829.93,325.93 -1258.53,477.58 -300.81,106.26 -600.72,208.26 -882.12,299.04l29.09 4.49c-711.34,-511.96 -1388.79,-1035.8 -1988.38,-1594.52 -148.15,-141.13 -293.01,-283.49 -422.61,-435.25 -135.17,-148.22 -246.45,-310.61 -320.55,-487.42 -143.84,-358.78 -198.02,-757.53 -57.82,-1100.99 65.96,-170.88 165.92,-326.14 265.97,-476.93 51.17,-74.38 98.37,-151.04 154.61,-219.71l80.96 -105.06 87.72 -97.4c118.51,-124.95 251.58,-241.07 406.85,-289.61 76.94,-21.72 158.62,-21.97 228.67,10.45 35.49,14.6 66.61,38.74 93.53,65.49 24.61,25.84 48.97,61.37 77.2,94.8 112.91,127.32 246.38,221.55 376.49,312.84 130.91,90.46 263.62,171.57 394.96,248.01 262.68,153.06 519.8,287.29 767.87,408.19l8.28 4.04 8.75 -3.11c231.67,-82.54 452.75,-161.3 660.02,-235.13l11.93 -4.27 1.37 -12.36c92.74,-845.9 138.39,-1520.42 153.79,-1983.33 8.56,-231.45 6.72,-409.96 4.73,-530.42 -2.75,-58.33 -4.84,-103.36 -6.4,-136.61 -1.73,-30.69 -3.07,-46.27 -4.04,-46.23z"/>
      </g>
     </g>
    </g>
    <g>
     <path class="fil1" d="M13100.03 15328.09l-453.37 -826.5c0,0 -56.45,-438.18 -98.08,-664.87 -41.6,-226.68 -270.82,-363.11 -270.82,-363.11l-22.3 -291.96 -426.51 -492.14c0,0 -54.72,-352.5 -373.45,-406.71 -108.57,-18.5 -385.35,79.15 -407.29,80.74 -21.93,1.59 -256.1,-199.79 -479.89,-106.15 -223.83,93.65 -595.11,324.96 -708.24,435.3 -113.12,110.34 275.15,1215.67 275.15,1215.67l426.37 947.42 599.95 331.25 958.63 1497.5c0,0 1132.84,-308.29 979.85,-1356.44z"/>
    </g>
    <g>
     <g>
      <path class="fil2" d="M12279.35 13957.4c1.99,-1.66 -21.14,-36.75 -87.79,-69.61 -33.21,-16.04 -78.71,-27.18 -131.05,-27.83 -52.29,-0.9 -110.05,8.57 -171.35,14.32 -29.23,3 -62.34,0.36 -102.02,10.51 -35.75,9.33 -70.08,22.74 -104.92,37.74 -69.65,29.99 -140.49,67.47 -213.42,109.72 -72.83,42.36 -147.82,89.2 -222.75,142.66 -37.37,26.92 -74.77,55.44 -111.71,86.41 -35.53,35.53 -74.49,58.37 -102.68,122.52 -8.78,22.19 -2.17,47.28 4.81,60.36 6.65,14.02 13.98,26.56 21.75,38.35 15.51,23.6 33.07,44.45 51.65,64.29 37.19,39.36 80.13,73.15 130.4,95.92 48.9,24.04 115.48,24.76 161.12,9.54 47.6,-12.86 91.41,-28.87 133.29,-45.5 166.84,-67.8 305.91,-140.41 417.19,-200.44l-25.7 -4.19c156.61,152.95 252.6,240.81 258.6,234.99 6,-5.82 -79.01,-104.34 -227.26,-265.43l-10.48 -11.34 -15.25 7.15c-112.88,53.13 -254.77,120.61 -418.74,183.03 -82.7,26.13 -171.79,72.21 -246.53,32.92 -39.03,-18.14 -76.33,-47.13 -108.57,-81.9 -16.08,-17.31 -31.59,-35.89 -44.38,-55.58 -12.33,-19.09 -25.88,-43.55 -18.07,-43.84 9.9,-24.69 50.52,-62.57 81.93,-90.79 34.81,-29.42 70.66,-57.22 106.69,-83.71 72.39,-52.69 145.37,-99.89 215.84,-142.79 70.55,-42.8 139.15,-81.36 204.89,-112.19 32.75,-15.4 64.95,-29.13 95.56,-38.42 26.78,-9 60.72,-8.74 94.01,-13.33 126.64,-23.21 222.88,-35.71 287.54,-9.15 63.86,22.74 93.61,50.75 97.4,45.61z"/>
     </g>
    </g>
    <g>
     <g>
      <path class="fil2" d="M11767.58 13899.61c3.33,-4.37 -47.23,-49.26 -144.6,-128.95l-7.48 -6.11 -9.62 5.17c-119.23,64.11 -300.59,165.31 -526.48,279.88 -56.49,28.55 -115.98,57.43 -178.14,85.62 -61.12,26.82 -130.11,57.36 -191.26,67.51 -66.76,4.96 -135.97,-11.02 -188.66,-55.98 -53.24,-42.79 -92.56,-111.79 -111.57,-180.53l-13.27 34.59 5.21 -3.65c369.87,-259.75 703.46,-498.33 945.33,-675.24l-7.2 3.43c151.76,-45.97 274.28,-84.32 358.53,-112.29 84.25,-27.98 130.18,-45.58 128.92,-50.09 -1.3,-4.52 -49.66,4.51 -136.11,24.72 -86.42,20.16 -210.93,51.54 -364.35,91.69l-3.5 0.94 -3.73 2.53c-248.51,167.44 -586.18,400.24 -956.06,659.99l-5.2 3.61 -19.2 13.48 5.93 21.15c23.93,85.94 67.37,161.23 134.77,216.59 66.43,56.31 156.79,76.05 235.65,68.57 84.43,-15.08 146.41,-47.28 211.03,-75.97 63.03,-29.93 122.6,-60.43 178.87,-90.61 224.8,-121.19 401.72,-230.15 516.14,-303.78l-17.02 -0.94c102.93,72.4 159.75,109.05 163.07,104.67z"/>
     </g>
    </g>
    <g>
     <g>
      <path class="fil2" d="M11286.5 13315.67c-2.39,-8.35 -142.08,23.6 -371.8,83.48l-5.24 1.38 -4.69 4.59c-139.19,135.93 -324.81,321.62 -532.3,532.95l20.81 -9.76c-80.95,7.66 -157.72,-43.34 -203.44,-121.15 -7.37,-12.03 -14.49,-25.99 -18.83,-36.14l0.72 22.19c59.57,-178.72 124.77,-348.34 200.66,-490.23 68.75,-146.74 193.58,-224.15 290.95,-302.04 197.95,-147.6 324.73,-233.08 319.53,-241.21 -4.45,-7.01 -139.73,64.48 -346.46,203.66 -51.46,35.27 -107.3,74.74 -164.99,121.83 -60.1,45.11 -111.78,116.6 -151.9,188.27 -82.44,146.88 -149.63,316.57 -211.03,499.55l-3.8 11.42 4.55 10.85c7.09,16.84 14.68,31.08 23.79,46.22 51.28,91.26 156.92,163.76 265.24,151.65l12.83 -1.44 8.03 -8.35c205.43,-213.24 385.92,-403.96 517.95,-546.87l-9.91 5.97c226.43,-71.31 361.75,-118.44 359.33,-126.82z"/>
     </g>
    </g>
    <g>
     <g>
      <path class="fil0" d="M16632.15 10713.77c-3.43,-3.04 -30.65,22.41 -77.16,71.27 -47.02,48.39 -110.16,122.99 -183.06,219.13 -146.67,191.52 -324.52,477.07 -467.03,817.78 -142.76,340.75 -221.48,667.55 -258.41,905.69 -18.29,119.19 -28.92,216.23 -31.63,283.64 -3.5,67.33 -3.29,104.59 1.27,104.99 10.8,1.05 28.37,-146.41 76.54,-380.18 48.33,-233.55 132.94,-553.08 273.46,-888.48 140.3,-335.39 308.65,-619.72 443.93,-816.05 134.73,-196.86 230.33,-310.56 222.09,-317.79z"/>
     </g>
    </g>
    <g>
     <g>
      <path class="fil0" d="M16990.86 17246c6.54,-3.51 -49.19,-126.25 -171.24,-306.23 -121.4,-179.92 -315.52,-412.82 -569.42,-627.72 -254.33,-214.57 -516.25,-367.13 -713.37,-457.77 -197.41,-91.04 -327.34,-126.61 -329.79,-119.56 -3.91,10.08 119.52,61.12 308.83,161.56 189.24,100.22 441.94,255.99 691.5,466.48 249.06,210.85 444.73,434.03 574.23,604.55 129.96,170.33 199.86,284.15 209.26,278.69z"/>
     </g>
    </g>
    <g>
     <g>
      <path class="fil0" d="M15207.04 17288.86c15.5,4.3 64.33,-316.78 -51.07,-691.21 -112.01,-375.48 -329.55,-616.04 -340.14,-604.01 -17.31,11.75 169.26,261.81 276.6,623.27 111.46,360.12 93.72,671.74 114.61,671.95z"/>
     </g>
    </g>
   </g>
   <g>
    <g>
     <g>
      <g>
       <polygon class="fil5" points="7533.41,10043.08 4752.5,11033.73 4671.72,11182.64 3082.56,10713.23 2889.41,11114.33 6718.87,15064.58 10607.43,15116.48 11061.87,14402.31 "/>
      </g>
      <g>
       <g>
        <path class="fil0" d="M7533.41 10043.08c-0.22,0.76 5.13,8.39 15.83,22.66 12.46,16.16 28.19,36.58 48.14,62.49 44.78,56.78 107.66,136.51 188.55,239.08 167.52,209.88 409.24,512.75 715.18,896.11 617.37,768.05 1493.53,1858.02 2538,3157.32l-1.96 -34.15c-143.05,224.01 -297.48,465.87 -455.57,713.44l26.24 -14.13c-1195.21,-16.77 -2509.37,-35.17 -3888.48,-54.5l23.39 10.08c-41.82,-43.15 -87.1,-89.88 -132.5,-136.69 -1352.54,-1392.8 -2619.32,-2697.31 -3700.25,-3810.41l5.24 32.38c66.14,-137.95 129.82,-270.88 192.38,-401.46l-32.89 14.6c576.5,168.67 1108.37,324.3 1590.36,465.29l18.36 5.39 9 -16.74c29.02,-53.92 54.79,-101.77 80.27,-149.12l-12.47 10.7c857.33,-310.64 1548.58,-561.14 2028.94,-735.2 237.13,-87.14 422.07,-155.12 551.06,-202.54 60.86,-22.92 108.42,-40.84 143.66,-54.07 32.46,-12.54 49.23,-19.44 49.52,-20.53 0.28,-1.08 -15.87,3.72 -47.82,14.13 -34.88,11.71 -82.01,27.54 -142.33,47.78 -129.02,44.53 -314.04,108.36 -551.23,190.15 -484.71,169.75 -1182.21,414 -2047.23,716.94l-8.24 2.86 -4.27 7.84c-25.8,47.17 -51.86,94.88 -81.24,148.62l27.32 -11.35c-481.23,-143.48 -1012.27,-301.82 -1587.9,-473.46l-22.62 -6.76 -10.34 21.36c-63.07,130.33 -127.26,263.01 -193.9,400.71l-8.71 17.96 13.95 14.42c1079.02,1114.94 2343.55,2421.59 3693.71,3816.74 45.39,46.8 90.68,93.53 132.5,136.69l9.61 9.9 13.81 0.18c1379.1,17.49 2693.3,34.16 3888.51,49.3l17.1 0.22 9.14 -14.39c157.33,-248.08 311.04,-490.41 453.4,-714.85l11.35 -17.93 -13.3 -16.3c-1057.12,-1297.03 -1943.93,-2385.08 -2568.79,-3151.76 -309.85,-377.39 -554.64,-675.57 -724.25,-882.19 -82.22,-98.92 -146.12,-175.87 -191.62,-230.62 -20.53,-24.11 -36.69,-43.08 -49.48,-58.08 -11.17,-12.76 -16.92,-18.9 -17.13,-18.11z"/>
       </g>
      </g>
     </g>
     <g>
      <path class="fil3" d="M10679.53 15215.47c-16.05,-37.73 -3470.68,-4595.85 -3470.68,-4595.85l-2432.39 555.39 -194.08 216.71 -1692.97 -277.39 3618.47 4117.69 1163.55 67.19 238.21 -155.59 2769.89 71.85z"/>
      <path class="fil0" d="M7672.3 15302.43l0.9 -0.58 237.31 -155.01 2773.9 71.92 -1.88 -4.56c-16.05,-37.66 -3330.09,-4410.37 -3471.15,-4596.5l-1.26 -1.62 -1.99 0.43 -2433.48 555.65 -0.61 0.76 -192.86 215.37 -1699.97 -278.59 5.85 6.73 3619.33 4118.7 1.34 0.04 1164.57 67.26zm236.48 -162.06l0 0 -0.87 0.54 -237.35 155.05 -1161.2 -67.05 -3611.71 -4109.99 1685.99 276.23 1.16 -1.3 193.36 -215.98 2429.46 -554.71c80.2,105.9 3351.52,4422.44 3466.09,4588.91l-2764.93 -71.7z"/>
     </g>
     <g>
      <g>
       <path class="fil0" d="M4520.14 11431.26c-3.76,2.64 27.97,55.66 88.51,149.27 68.53,103.87 155.7,236 259.9,393.91 228.24,342.55 529.84,795.16 863.29,1295.54 338.65,505.27 651.2,959.07 887.43,1280.59 117.96,160.79 216.27,288.91 286.17,375.91 70.29,86.7 110.85,133.25 114.5,130.47 3.61,-2.78 -29.97,-54.65 -93.79,-145.94 -70.8,-102.21 -160.91,-232.21 -268.61,-387.62 -226,-327.88 -531.97,-785.19 -870.55,-1290.42 -338.54,-505.01 -648.97,-959.96 -879.73,-1285.1 -115.55,-162.46 -210.06,-293.18 -277.43,-382.13 -67.08,-89.09 -105.97,-137.12 -109.69,-134.48z"/>
      </g>
     </g>
     <g>
      <g>
       <path class="fil0" d="M4786.54 11211.84c-3.76,2.64 27.98,55.66 88.51,149.27 68.53,103.87 155.7,236 259.9,393.91 228.27,342.55 529.88,795.16 863.29,1295.51 338.65,505.3 651.2,959.1 887.43,1280.62 118,160.79 216.27,288.92 286.21,375.87 70.26,86.71 110.81,133.3 114.46,130.51 3.65,-2.82 -29.96,-54.68 -93.75,-145.97 -70.84,-102.18 -160.94,-232.18 -268.65,-387.59 -225.96,-327.88 -531.93,-785.19 -870.55,-1290.41 -338.5,-505.02 -648.96,-959.97 -879.73,-1285.11 -115.51,-162.45 -210.06,-293.22 -277.39,-382.12 -67.12,-89.13 -105.97,-137.13 -109.73,-134.49z"/>
      </g>
     </g>
    </g>
    <g>
     <g>
      <path class="fil1" d="M7133.02 13538.63c0,0 -125.05,-13.52 -220.06,110.41 -94.99,123.93 -332.58,689.34 -285.71,789.85 46.84,100.51 281.19,439.05 281.19,439.05l65.27 360.55c0,0 -55.87,270.05 -60.9,375.41 -4.99,105.39 77.45,330.34 77.45,330.34 0,0 20.86,187.46 29.89,305.79 9.04,118.33 193.22,825.85 193.22,825.85l-39.83 779.83c0,0 403.45,642.54 1110.82,72.97l209.05 -175.61 15 -506.67 52.58 -771.06c0,0 757.11,-826.85 765.82,-883.49 8.74,-56.63 149.55,-178.9 4.3,-371.28 0,0 83.09,-43.66 38.27,-193.08 -44.81,-149.41 -163.83,-168.74 -163.83,-168.74 0,0 20.49,-330.48 -232.1,-389.03 0,0 -700.15,65.05 -868.97,77.34 -168.81,12.32 -623.62,297.48 -623.62,297.48l-351.52 -499.33c0,0 123.42,-435.98 137.16,-597.97 13.73,-161.99 -133.48,-208.61 -133.48,-208.61z"/>
     </g>
     <g>
      <g>
       <path class="fil2" d="M7833.82 16090.54c7.44,15.83 357.91,-136.73 762.27,-377.43 405.01,-239.88 706.75,-474.29 696.45,-488.46 -11.06,-15.61 -328.06,193.14 -730.35,431.39 -401.61,239.08 -736.79,417.3 -728.37,434.5z"/>
      </g>
     </g>
     <g>
      <g>
       <path class="fil2" d="M7642.77 15570.53c12.87,16.59 305.22,-225.64 726.35,-416.25 419.71,-194.33 794.43,-254.91 790.46,-275.47 -1.23,-8.14 -96.54,-3.58 -247.47,26.92 -150.74,30.18 -356.32,90.36 -570.61,188.16 -214.06,98.05 -394.02,214.1 -515.81,307.85 -122.02,93.87 -188.27,162.5 -182.92,168.79z"/>
      </g>
     </g>
     <g>
      <g>
       <path class="fil2" d="M7109.57 15133.82c12,14.28 121.11,-58 252.7,-149.3 131.42,-91.69 237.06,-168.96 227.81,-185.12 -8.86,-15.72 -131.52,37.01 -265.76,130.62 -134.34,93.25 -226.43,190.03 -214.75,203.8z"/>
      </g>
     </g>
     <g>
      <g>
       <path class="fil2" d="M8300.01 16763.18c11.68,13.77 99.21,-41.57 184.04,-134.99 85.11,-93.21 131.92,-185.63 117.1,-195.89 -15.22,-10.77 -84.21,61.44 -166.22,151.18 -81.64,90.03 -147.02,165.57 -134.92,179.7z"/>
      </g>
     </g>
    </g>
   </g>
  </g>
 </g>
</svg>
