<?xml version="1.0" encoding="UTF-8"?>
<!DOCTYPE svg PUBLIC "-//W3C//DTD SVG 1.0//EN" "http://www.w3.org/TR/2001/REC-SVG-20010904/DTD/svg10.dtd">
<!-- Creator: CorelDRAW 2021 (64 Bit) -->
<svg xmlns="http://www.w3.org/2000/svg" xml:space="preserve" width="297mm" height="210mm" version="1.0" style="shape-rendering:geometricPrecision; text-rendering:geometricPrecision; image-rendering:optimizeQuality; fill-rule:evenodd; clip-rule:evenodd"
viewBox="0 0 29700 21000"
 xmlns:xlink="http://www.w3.org/1999/xlink"
 xmlns:xodm="http://www.corel.com/coreldraw/odm/2003">
 <defs>
  <style type="text/css">
   <![CDATA[
    .fil42 {fill:black;fill-rule:nonzero}
    .fil41 {fill:black;fill-rule:nonzero}
    .fil12 {fill:#003333;fill-rule:nonzero}
    .fil29 {fill:#006633;fill-rule:nonzero}
    .fil44 {fill:#009933;fill-rule:nonzero}
    .fil22 {fill:#263138;fill-rule:nonzero}
    .fil21 {fill:#36464F;fill-rule:nonzero}
    .fil24 {fill:#445964;fill-rule:nonzero}
    .fil47 {fill:#B16667;fill-rule:nonzero}
    .fil2 {fill:#BA67C8;fill-rule:nonzero}
    .fil1 {fill:#DFDFDF;fill-rule:nonzero}
    .fil37 {fill:#EBEBEB;fill-rule:nonzero}
    .fil46 {fill:#EF9979;fill-rule:nonzero}
    .fil33 {fill:#EFEFEF;fill-rule:nonzero}
    .fil38 {fill:#F28E8E;fill-rule:nonzero}
    .fil0 {fill:#F4F4F4;fill-rule:nonzero}
    .fil34 {fill:#F9F9F9;fill-rule:nonzero}
    .fil36 {fill:#FFA8A7;fill-rule:nonzero}
    .fil45 {fill:#FFBCA7;fill-rule:nonzero}
    .fil20 {fill:white;fill-rule:nonzero}
    .fil39 {fill:white;fill-rule:nonzero}
    .fil35 {fill:black;fill-rule:nonzero;fill-opacity:0.050980}
    .fil30 {fill:black;fill-rule:nonzero;fill-opacity:0.101961}
    .fil31 {fill:white;fill-rule:nonzero;fill-opacity:0.101961}
    .fil9 {fill:black;fill-rule:nonzero;fill-opacity:0.149020}
    .fil32 {fill:black;fill-rule:nonzero;fill-opacity:0.200000}
    .fil15 {fill:#003333;fill-rule:nonzero;fill-opacity:0.200000}
    .fil23 {fill:#BA67C8;fill-rule:nonzero;fill-opacity:0.200000}
    .fil16 {fill:white;fill-rule:nonzero;fill-opacity:0.200000}
    .fil8 {fill:black;fill-rule:nonzero;fill-opacity:0.250980}
    .fil14 {fill:#003333;fill-rule:nonzero;fill-opacity:0.301961}
    .fil5 {fill:black;fill-rule:nonzero;fill-opacity:0.349020}
    .fil7 {fill:black;fill-rule:nonzero;fill-opacity:0.400000}
    .fil13 {fill:#003333;fill-rule:nonzero;fill-opacity:0.400000}
    .fil17 {fill:#33CC33;fill-rule:nonzero;fill-opacity:0.400000}
    .fil10 {fill:#BA67C8;fill-rule:nonzero;fill-opacity:0.400000}
    .fil11 {fill:white;fill-rule:nonzero;fill-opacity:0.400000}
    .fil6 {fill:black;fill-rule:nonzero;fill-opacity:0.450980}
    .fil4 {fill:black;fill-rule:nonzero;fill-opacity:0.501961}
    .fil27 {fill:white;fill-rule:nonzero;fill-opacity:0.501961}
    .fil3 {fill:black;fill-rule:nonzero;fill-opacity:0.600000}
    .fil19 {fill:#33CC33;fill-rule:nonzero;fill-opacity:0.600000}
    .fil50 {fill:#445964;fill-rule:nonzero;fill-opacity:0.600000}
    .fil28 {fill:#BA67C8;fill-rule:nonzero;fill-opacity:0.600000}
    .fil40 {fill:white;fill-rule:nonzero;fill-opacity:0.701961}
    .fil48 {fill:#445964;fill-rule:nonzero;fill-opacity:0.800000}
    .fil26 {fill:#BA67C8;fill-rule:nonzero;fill-opacity:0.800000}
    .fil43 {fill:#CCFFCC;fill-rule:nonzero;fill-opacity:0.800000}
    .fil25 {fill:white;fill-rule:nonzero;fill-opacity:0.800000}
    .fil18 {fill:#33CC33;fill-rule:nonzero;fill-opacity:0.850980}
    .fil49 {fill:#263138;fill-rule:nonzero;fill-opacity:0.901961}
    .fil52 {fill:#BA67C8;fill-rule:nonzero;fill-opacity:0.901961}
    .fil51 {fill:white;fill-rule:nonzero;fill-opacity:0.901961}
   ]]>
  </style>
 </defs>
 <g id="Camada_x0020_1">
  <metadata id="CorelCorpID_0Corel-Layer"/>
  <path class="fil0" d="M7396.6 9654.97c-4116.09,2448.5 -4116.06,6418.32 0.05,8866.86 4116.11,2448.49 10789.61,2448.51 14905.68,0.02 4116.09,-2448.51 4116.06,-6418.33 -0.05,-8866.85 -4116.09,-2448.53 -10789.6,-2448.54 -14905.68,-0.03z"/>
  <path class="fil1" d="M20537.86 13742.3l3474.76 -2004.07c137.2,-79.22 137.2,-207.66 0,-286.87l-5013.74 -2900.3c-137.21,-79.21 -359.66,-79.21 -496.86,0.01l-3474.62 2003.99c-137.2,79.22 -137.2,207.65 0,286.86l5013.62 2900.38c137.21,79.19 359.67,79.19 496.84,0z"/>
  <path class="fil1" d="M11696.29 18633.34l-5206.58 -3001.37c-146.61,-84.66 -146.61,-221.9 0,-306.54l7243.44 -4182.54c146.62,-84.63 384.31,-84.63 530.94,0.02l5206.4 3001.29c146.63,84.64 146.63,221.89 0,306.54l-7243.29 4182.6c-146.6,84.63 -384.32,84.63 -530.91,0z"/>
  <path class="fil1" d="M8821.67 18220.95c-573.85,331.32 -1504.24,331.32 -2078.07,0 -573.84,-331.31 -573.84,-868.46 0,-1199.77 573.84,-331.32 1504.24,-331.32 2078.07,0 573.84,331.3 573.84,868.45 0,1199.77z"/>
  <path class="fil1" d="M14519.14 18155.58c1.51,-2.03 3.28,-4.02 5.05,-5.81l261.96 -287.96c0,-0.24 0.24,-0.49 0.5,-0.77l2.02 -2.18c1.54,-1.83 3.18,-3.5 4.8,-5.17l2.77 -3 0.13 0.21c37.42,-35.94 96.85,-39 163.96,-0.25 113.36,65.43 205.24,224.58 205.24,355.45 0,75.95 -31.07,125.47 -79.21,141.02l0.14 0.21 -3.15 0.66c-4.8,1.41 -9.74,2.49 -14.87,3.2l-3.21 0.69c-0.25,0 -0.77,0 -1.03,0.26l-379.64 82.83c-18.95,4.29 -41.67,-0.23 -66.18,-14.39 -64.91,-37.37 -117.48,-128.33 -117.48,-203.08 0,-26.8 6.56,-47.52 18.2,-61.92z"/>
  <path class="fil1" d="M20654.88 15504.29l-5524.99 3193.31 -765.41 155.72c-19.55,3.96 -34.82,-16.71 -25.28,-34.26l239.68 -439.57 5525.74 -3193.74c150.87,-87.12 668.57,250.22 550.26,318.54z"/>
  <path class="fil1" d="M17510.69 18112.47c55.54,150.77 216.32,244.39 484.44,279.68l4786.19 -2787.55 496.85 -503.32c28.48,-28.83 -1.08,-76.44 -39.55,-63.7l-914.5 303.02 -4813.43 2771.87z"/>
  <g id="_2787849985872">
   <g>
    <polygon class="fil2" points="23296.4,11598.63 20214.7,13338.81 15482.22,10623.14 18563.6,8882.76 "/>
    <polygon class="fil3" points="23296.4,11598.63 20214.7,13338.81 15482.22,10623.14 18563.6,8882.76 "/>
    <path class="fil0" d="M20181.25 13211.56l2977.85 -1691.72c-73.97,-209.93 -68.41,-273.66 15.31,-553.12l-2959.75 1674.55c0,0 -53.79,-3.96 -33.41,570.29z"/>
    <path class="fil2" d="M20359.14 12411.86c-150.24,86.25 -272.04,295.94 -272.06,468.43l0 365.95c0,172.52 121.81,242.42 272.09,156.21l2936.88 -1668.28 0.35 -135.54 -2899.69 1636.83c-90.15,51.74 -163.13,9.81 -163.06,-93.69l2.56 -325.89c0.1,-103.47 73.25,-229.31 163.44,-281.08l2896.4 -1637.55 0 -153.65 -2936.91 1668.26z"/>
    <path class="fil4" d="M20359.14 12411.86c-150.24,86.25 -272.04,295.94 -272.06,468.43l0 365.95c0,172.52 121.81,242.42 272.09,156.21l2936.88 -1668.28 0.35 -135.54 -2899.69 1636.83c-90.15,51.74 -163.13,9.81 -163.06,-93.69l2.56 -325.89c0.1,-103.47 73.25,-229.31 163.44,-281.08l2896.4 -1637.55 0 -153.65 -2936.91 1668.26z"/>
    <path class="fil2" d="M23296.08 10743.91l-4732.53 -2715.72 -2936.68 1668.09c-150.18,86.19 -272.06,296.07 -272.07,468.44l-0.09 366.07c0.16,85.91 30.29,146.48 79.8,174.9l4732.51 2715.7c-49.49,-28.41 -79.62,-88.97 -79.79,-174.87l-0.41 -366.41c0,-172.36 121.87,-382.24 272.02,-468.41l2937.24 -1667.79z"/>
    <path class="fil5" d="M23296.08 10743.91l-4732.53 -2715.72 -2936.68 1668.09c-150.18,86.19 -272.06,296.07 -272.07,468.44l-0.09 366.07c0.16,85.91 30.29,146.48 79.8,174.9l4732.51 2715.7c-49.49,-28.41 -79.62,-88.97 -79.79,-174.87l-0.41 -366.41c0,-172.36 121.87,-382.24 272.02,-468.41l2937.24 -1667.79z"/>
    <path class="fil2" d="M20166.5 12613.61c-49.2,84.79 -79.68,180.34 -79.68,266.5l0.41 366.41c0.17,85.9 30.3,146.46 79.79,174.87l-4732.51 -2715.7c-49.51,-28.42 -79.64,-88.99 -79.8,-174.9l0.09 -366.07c0.01,-86.2 30.47,-181.71 79.71,-266.53l4731.99 2715.42z"/>
    <path class="fil6" d="M20166.5 12613.61c-49.2,84.79 -79.68,180.34 -79.68,266.5l0.41 366.41c0.17,85.9 30.3,146.46 79.79,174.87l-4732.51 -2715.7c-49.51,-28.42 -79.64,-88.99 -79.8,-174.9l0.09 -366.07c0.01,-86.2 30.47,-181.71 79.71,-266.53l4731.99 2715.42z"/>
    <g>
     <path class="fil2" d="M16073.73 10261.16c-88.17,383.04 -86.91,532.67 -0.02,813.59l225.28 130.07c-86.89,-280.91 -88.14,-430.56 0.04,-813.59l-225.3 -130.07z"/>
     <path class="fil2" d="M19177.75 12044.8c-88.15,383 -86.91,527.81 -0.02,808.72l225.29 130.06c-86.89,-280.91 -88.14,-425.71 0.04,-808.72l-225.31 -130.06z"/>
    </g>
   </g>
  </g>
  <g id="_2787849985392">
   <g>
    <polygon class="fil2" points="23918.02,10698.21 20836.33,12438.4 16103.83,9722.73 19185.22,7982.35 "/>
    <polygon class="fil7" points="23918.02,10698.21 20836.33,12438.4 16103.83,9722.73 19185.22,7982.35 "/>
    <path class="fil0" d="M20802.85 12311.15l2977.87 -1691.72c-73.96,-209.93 -68.4,-303.88 15.31,-583.34l-2959.75 1674.56c0,0 -53.79,26.25 -33.43,600.5z"/>
    <path class="fil2" d="M20980.76 11481.24c-150.24,86.25 -272.04,295.94 -272.07,468.42l0 396.17c0,172.51 121.83,242.41 272.09,156.2l2936.9 -1668.27 0.34 -135.55 -2899.68 1636.84c-90.16,51.74 -163.13,9.79 -163.06,-93.7l2.56 -356.1c0.09,-103.47 73.25,-229.31 163.43,-281.06l2896.41 -1637.56 0 -153.66 -2936.92 1668.27z"/>
    <path class="fil8" d="M20980.76 11481.24c-150.24,86.25 -272.04,295.94 -272.07,468.42l0 396.17c0,172.51 121.83,242.41 272.09,156.2l2936.9 -1668.27 0.34 -135.55 -2899.68 1636.84c-90.16,51.74 -163.13,9.79 -163.06,-93.7l2.56 -356.1c0.09,-103.47 73.25,-229.31 163.43,-281.06l2896.41 -1637.56 0 -153.66 -2936.92 1668.27z"/>
    <path class="fil2" d="M23917.7 9813.3l-4732.52 -2715.73 -2936.69 1668.09c-150.18,86.2 -272.05,296.06 -272.08,468.44l-0.08 396.28c0.16,85.91 30.3,146.48 79.79,174.88l4732.52 2715.72c-49.49,-28.41 -79.62,-88.97 -79.8,-174.87l-0.4 -396.62c0,-172.36 121.88,-382.23 272.03,-468.42l2937.23 -1667.77z"/>
    <path class="fil2" d="M20788.11 11682.99c-49.19,84.78 -79.67,180.34 -79.67,266.5l0.4 396.62c0.18,85.9 30.31,146.46 79.8,174.87l-4732.52 -2715.72c-49.49,-28.4 -79.63,-88.97 -79.79,-174.88l0.08 -396.28c0.03,-86.2 30.48,-181.72 79.72,-266.53l4731.98 2715.42z"/>
    <path class="fil9" d="M20788.11 11682.99c-49.19,84.78 -79.67,180.34 -79.67,266.5l0.4 396.62c0.18,85.9 30.31,146.46 79.8,174.87l-4732.52 -2715.72c-49.49,-28.4 -79.63,-88.97 -79.79,-174.88l0.08 -396.28c0.03,-86.2 30.48,-181.72 79.72,-266.53l4731.98 2715.42z"/>
    <g>
     <path class="fil10" d="M16695.35 9330.54c-88.17,383.04 -86.9,562.88 -0.02,843.78l225.28 130.07c-86.89,-280.9 -88.13,-460.75 0.04,-843.78l-225.3 -130.07z"/>
     <path class="fil10" d="M19799.38 11116.41c-88.17,383 -86.92,556.48 -0.02,837.39l225.28 130.07c-86.89,-280.91 -88.13,-455.52 0.04,-838.53l-225.3 -128.93z"/>
    </g>
    <g>
     <path class="fil11" d="M16695.35 9330.54c-88.17,383.04 -86.9,562.88 -0.02,843.78l225.28 130.07c-86.89,-280.9 -88.13,-460.75 0.04,-843.78l-225.3 -130.07z"/>
     <path class="fil11" d="M19799.38 11116.41c-88.17,383 -86.92,556.48 -0.02,837.39l225.28 130.07c-86.89,-280.91 -88.13,-455.52 0.04,-838.53l-225.3 -128.93z"/>
    </g>
   </g>
  </g>
  <g id="_2787849985776">
   <g>
    <polygon class="fil12" points="7254.89,15480.71 12041.45,18200.1 18984.33,14214.87 14198.1,11495.27 "/>
    <polygon class="fil13" points="7254.89,15480.71 12041.45,18200.1 18984.33,14214.87 14198.1,11495.27 "/>
    <path class="fil12" d="M12077.21 18064.12l-4675.6 -2667.6c79.04,-224.33 73.09,-324.71 -16.36,-623.34l4656.25 2649.26c0,0 57.48,28.05 35.71,641.68z"/>
    <path class="fil12" d="M11887.12 17177.29c160.54,92.16 290.69,316.24 290.71,500.56l0 423.34c0,184.33 -130.17,259.03 -290.74,166.91l-4631.82 -2642.55 -0.38 -144.84 4592.07 2608.96c96.34,55.28 174.32,10.46 174.24,-100.14l-2.73 -380.5c-0.1,-110.58 -78.27,-245.04 -174.65,-300.36l-4588.55 -2609.71 0 -164.19 4631.85 2642.52z"/>
    <path class="fil14" d="M11887.12 17177.29c160.54,92.16 290.69,316.24 290.71,500.56l0 423.34c0,184.33 -130.17,259.03 -290.74,166.91l-4631.82 -2642.55 -0.38 -144.84 4592.07 2608.96c96.34,55.28 174.32,10.46 174.24,-100.14l-2.73 -380.5c-0.1,-110.58 -78.27,-245.04 -174.65,-300.36l-4588.55 -2609.71 0 -164.19 4631.85 2642.52z"/>
    <path class="fil12" d="M7255.22 14535.11l6942.94 -3985.3 4631.6 2642.36c160.47,92.1 290.7,316.36 290.73,500.56l0.09 423.46c-0.17,91.8 -32.36,156.52 -85.26,186.87l-6942.92 3985.29c52.9,-30.37 85.09,-95.08 85.27,-186.87l0.43 -423.82c0,-184.18 -130.22,-408.45 -290.67,-500.54l-4632.21 -2642.01z"/>
    <path class="fil15" d="M7255.22 14535.11l6942.94 -3985.3 4631.6 2642.36c160.47,92.1 290.7,316.36 290.73,500.56l0.09 423.46c-0.17,91.8 -32.36,156.52 -85.26,186.87l-6942.92 3985.29c52.9,-30.37 85.09,-95.08 85.27,-186.87l0.43 -423.82c0,-184.18 -130.22,-408.45 -290.67,-500.54l-4632.21 -2642.01z"/>
    <path class="fil12" d="M12092.97 17392.88c52.57,90.61 85.13,192.71 85.13,284.78l-0.43 423.82c-0.18,91.79 -32.37,156.5 -85.27,186.87l6942.92 -3985.29c52.9,-30.35 85.09,-95.07 85.26,-186.87l-0.09 -423.46c-0.03,-92.11 -32.56,-194.18 -85.18,-284.81l-6942.34 3984.96z"/>
    <path class="fil12" d="M12092.79 17392.74c52.56,90.61 85.13,192.71 85.13,284.79l-0.43 423.81c-0.18,91.8 -32.38,156.52 -85.26,186.87l6942.9 -3985.29c52.9,-30.35 85.09,-95.07 85.27,-186.87l-0.09 -423.46c-0.02,-92.11 -32.57,-194.18 -85.19,-284.81l-6942.33 3984.96z"/>
    <g>
     <path class="fil13" d="M18352.24 13795.79c94.22,409.3 92.87,601.47 0.03,901.65l-240.73 138.99c92.85,-300.17 94.18,-492.36 -0.04,-901.65l240.74 -138.99z"/>
     <path class="fil13" d="M13149.51 16786.35c94.22,409.28 92.88,595.41 0.03,895.59l-240.73 137.74c92.84,-300.19 94.17,-486.02 -0.05,-895.31l240.75 -138.02z"/>
    </g>
    <g>
     <path class="fil13" d="M18352.24 13795.79c94.22,409.3 92.87,601.47 0.03,901.65l-240.73 138.99c92.85,-300.17 94.18,-492.36 -0.04,-901.65l240.74 -138.99z"/>
     <path class="fil13" d="M13149.51 16786.35c94.22,409.28 92.88,595.41 0.03,895.59l-240.73 137.74c92.84,-300.19 94.17,-486.02 -0.05,-895.31l240.75 -138.02z"/>
    </g>
   </g>
  </g>
  <polygon class="fil2" points="6641.54,14560.88 11428.09,17280.26 18370.97,13295.04 13584.75,10575.44 "/>
  <polygon class="fil16" points="6641.54,14560.88 11428.09,17280.26 18370.97,13295.04 13584.75,10575.44 "/>
  <path class="fil0" d="M11463.85 17144.29l-4675.6 -2667.6c79.04,-224.33 73.11,-292.43 -16.36,-591.05l4656.25 2649.25c0,0 57.48,-4.23 35.71,609.4z"/>
  <path class="fil2" d="M11273.76 16289.75c160.55,92.15 290.7,316.24 290.72,500.55l0 391.06c0,184.33 -130.17,259.02 -290.75,166.91l-4631.82 -2642.55 -0.37 -144.84 4592.06 2608.96c96.36,55.28 174.32,10.46 174.24,-100.14l-2.73 -348.23c-0.1,-110.58 -78.27,-245.04 -174.65,-300.35l-4588.55 -2609.72 0 -164.19 4631.85 2642.54z"/>
  <path class="fil17" d="M11273.76 16289.75c160.55,92.15 290.7,316.24 290.72,500.55l0 391.06c0,184.33 -130.17,259.02 -290.75,166.91l-4631.82 -2642.55 -0.37 -144.84 4592.06 2608.96c96.36,55.28 174.32,10.46 174.24,-100.14l-2.73 -348.23c-0.1,-110.58 -78.27,-245.04 -174.65,-300.35l-4588.55 -2609.72 0 -164.19 4631.85 2642.54z"/>
  <path class="fil2" d="M6641.87 13647.55l6942.92 -3985.3 4631.61 2642.36c160.47,92.1 290.72,316.36 290.73,500.56l0.09 391.19c-0.16,91.8 -32.36,156.52 -85.26,186.87l-6942.9 3985.29c52.88,-30.35 85.08,-95.09 85.25,-186.87l0.44 -391.54c0,-184.17 -130.23,-408.45 -290.68,-500.54l-4632.2 -2642.02z"/>
  <path class="fil18" d="M6641.87 13647.55l6942.92 -3985.3 4631.61 2642.36c160.47,92.1 290.72,316.36 290.73,500.56l0.09 391.19c-0.16,91.8 -32.36,156.52 -85.26,186.87l-6942.9 3985.29c52.88,-30.35 85.08,-95.09 85.25,-186.87l0.44 -391.54c0,-184.17 -130.23,-408.45 -290.68,-500.54l-4632.2 -2642.02z"/>
  <path class="fil2" d="M11479.62 16505.33c52.56,90.6 85.13,192.7 85.13,284.78l-0.44 391.54c-0.17,91.78 -32.37,156.52 -85.25,186.87l6942.9 -3985.29c52.9,-30.35 85.1,-95.07 85.26,-186.87l-0.09 -391.19c-0.01,-92.11 -32.57,-194.16 -85.18,-284.8l-6942.33 3984.96z"/>
  <path class="fil19" d="M11479.62 16505.33c52.56,90.6 85.13,192.7 85.13,284.78l-0.44 391.54c-0.17,91.78 -32.37,156.52 -85.25,186.87l6942.9 -3985.29c52.9,-30.35 85.1,-95.07 85.26,-186.87l-0.09 -391.19c-0.01,-92.11 -32.57,-194.16 -85.18,-284.8l-6942.33 3984.96z"/>
  <path class="fil20" d="M17738.89 12908.23c94.22,409.3 92.86,569.2 0.02,869.38l-240.73 138.99c92.85,-300.17 94.18,-460.09 -0.03,-869.38l240.74 -138.99z"/>
  <path class="fil20" d="M12536.16 15897.5c94.21,409.28 92.88,564.02 0.03,864.2l-240.75 138.98c92.85,-300.18 94.18,-454.92 -0.04,-864.19l240.76 -138.99z"/>
  <g id="_2787849981168">
   <g>
    <path class="fil21" d="M17411.29 7400.12l0 1802.22c1.23,259.72 227.88,519.06 680.36,717.13 907.04,396.95 2377.64,396.95 3284.68,0 453.71,-198.9 679.96,-459.04 679.96,-719.18l0 -1800.17 -0.41 0c5.31,-263.41 -220.93,-527.23 -679.55,-728.16 -907.04,-396.95 -2377.64,-396.95 -3284.68,0 -459.02,200.93 -685.27,464.75 -679.95,728.16l-0.41 0z"/>
   </g>
   <path class="fil22" d="M17411.7 7400.12c-5.32,-263.41 220.93,-527.23 679.95,-728.16 907.04,-396.95 2377.64,-396.95 3284.68,0 458.62,200.93 684.86,464.75 679.55,728.16l0.41 0 0 823.35c-0.36,-204.22 -180.75,-350.39 -717.24,-152.94 -879.04,323.55 -1372.15,858.17 -2268.91,1122.38 -741.48,218.47 -1398.27,134.26 -1658.85,-138.28l0 -1654.51 0.41 0z"/>
   <g>
    <path class="fil2" d="M17411.29 8353.98l0 204.41c1.23,259.32 227.88,519.06 680.36,716.71 907.04,397.37 2377.64,397.37 3284.68,0 456.99,-199.69 683.24,-462.7 679.96,-724.88l0 -198.28c0,260.14 -226.25,520.29 -679.96,719.17 -907.04,396.95 -2377.64,396.95 -3284.68,0 -452.48,-198.06 -679.13,-457.4 -680.36,-717.13z"/>
   </g>
  </g>
  <g id="_2787849978000">
   <polygon class="fil21" points="23383.28,6825.44 19733.69,5101.47 16084.15,6825.43 16084.15,7112.74 19733.72,8645.17 23383.28,7112.76 "/>
   <polygon class="fil23" points="19733.72,8645.17 19733.72,8357.86 23383.29,6825.43 23383.29,7112.74 "/>
   <polygon class="fil23" points="19733.72,8357.86 23330.96,6910.65 23383.29,7112.74 23383.29,6825.43 "/>
   <polygon class="fil24" points="19733.73,5101.47 16084.16,6825.44 19733.72,8357.86 23383.29,6825.43 "/>
  </g>
  <g id="_2787849977952">
   <g>
    <path class="fil2" d="M17777.07 8237c-0.48,-23.79 -11.56,-584.28 42.99,-743.4 54.7,-159.44 262.72,-321.18 695.58,-540.83 481.02,-244.09 923.07,-347.73 971.89,-358.74l17.95 79.69c-47.79,10.79 -480.67,112.27 -952.9,351.87 -406.64,206.35 -608.72,358.85 -655.22,494.5 -41.43,120.73 -41.91,557.2 -38.61,715.2l-81.68 1.71z"/>
    <path class="fil25" d="M17777.07 8237c-0.48,-23.79 -11.56,-584.28 42.99,-743.4 54.7,-159.44 262.72,-321.18 695.58,-540.83 481.02,-244.09 923.07,-347.73 971.89,-358.74l17.95 79.69c-47.79,10.79 -480.67,112.27 -952.9,351.87 -406.64,206.35 -608.72,358.85 -655.22,494.5 -41.43,120.73 -41.91,557.2 -38.61,715.2l-81.68 1.71z"/>
   </g>
   <g>
    <g>
     <path class="fil26" d="M18251.2 9950.41c0,-419.65 -69.6,-1170.67 -289.43,-1388.77l-290.12 0c-219.83,218.1 -289.4,969.12 -289.4,1388.77l0 0.01c0,64.18 42.42,128.39 127.24,177.37 84.84,48.98 196.04,73.47 307.23,73.47 111.2,0 222.39,-24.49 307.22,-73.47 84.84,-48.98 127.26,-113.19 127.26,-177.37l0 -0.01z"/>
     <path class="fil27" d="M18251.2 9950.41c0,-419.65 -69.6,-1170.67 -289.43,-1388.77l-290.12 0c-219.83,218.1 -289.4,969.12 -289.4,1388.77l0 0.01c0,64.18 42.42,128.39 127.24,177.37 84.84,48.98 196.04,73.47 307.23,73.47 111.2,0 222.39,-24.49 307.22,-73.47 84.84,-48.98 127.26,-113.19 127.26,-177.37l0 -0.01z"/>
     <path class="fil28" d="M17671.65 8561.64c-16.51,16.39 -32.11,36.14 -46.97,58.21 55.26,58.65 140.27,73.54 225.13,80.37 78.04,6.26 172.58,75.2 210.17,419.3 37.58,344.09 110.7,783.6 -25.62,916.61 -136.29,133.01 -440.72,131.97 -600.59,32.73 19.66,21.15 44.8,41.07 75.72,58.93 84.84,48.98 196.04,73.47 307.23,73.47 111.2,0 222.39,-24.49 307.22,-73.47 84.84,-48.98 127.26,-113.19 127.26,-177.37l0 -0.01c0,-419.65 -69.6,-1170.67 -289.43,-1388.77l-290.12 0z"/>
    </g>
    <g>
     <path class="fil2" d="M18034.36 8408.64c0,120.2 -97.43,217.63 -217.64,217.63 -120.2,0 -217.64,-97.43 -217.64,-217.63 0,-120.22 97.44,-217.65 217.64,-217.65 120.21,0 217.64,97.43 217.64,217.65z"/>
     <path class="fil27" d="M18034.36 8408.64c0,120.2 -97.43,217.63 -217.64,217.63 -120.2,0 -217.64,-97.43 -217.64,-217.63 0,-120.22 97.44,-217.65 217.64,-217.65 120.21,0 217.64,97.43 217.64,217.65z"/>
     <path class="fil10" d="M17943.27 8232.16c54.28,57.34 62.46,207.31 -52.92,282.9 -114.82,75.23 -234.62,16.65 -280.29,-41.41 27.78,88.22 109.26,152.62 206.66,152.62 120.21,0 217.64,-97.44 217.64,-217.65 0,-72.85 -36.12,-136.94 -91.09,-176.46z"/>
    </g>
   </g>
  </g>
  <g id="_2787849978720">
   <path class="fil22" d="M19440.48 6490.22c0,-43.33 28.62,-86.66 85.88,-119.72 114.53,-66.12 300.21,-66.12 414.73,0 57.26,33.06 85.9,76.39 85.9,119.72 0,16.15 0,79.65 0,95.79 0,43.33 -28.64,86.65 -85.9,119.73 -114.52,66.11 -300.2,66.11 -414.73,0 -57.26,-33.07 -85.89,-76.4 -85.88,-119.73 0,-16.14 0,-79.64 0,-95.79z"/>
   <path class="fil21" d="M19941.09 6609.94c114.53,-66.12 114.53,-173.32 0,-239.44 -114.52,-66.12 -300.2,-66.12 -414.73,0 -114.51,66.12 -114.51,173.32 0,239.45 114.53,66.11 300.21,66.11 414.73,-0.01z"/>
  </g>
  <path class="fil29" d="M8116.03 15245.18c259.13,-28.97 711.54,-70.67 1087.1,454.21 427.73,597.74 249.07,1462.83 -178.91,1887.73 -537.64,533.79 -1490.87,722.63 -2142.37,304.9 -720.36,-461.87 -949.56,-1531.09 -604.14,-2074.53 345.41,-543.41 1023.1,-521.34 1206.13,-478.07 274.83,64.97 430.42,-71.67 632.19,-94.24z"/>
  <path class="fil30" d="M7212.84 17699.58c726.66,250.24 1615.13,-18 2093.32,-532.54 -71.89,162.28 -167.95,306.88 -281.94,420.08 -537.64,533.79 -1490.87,722.63 -2142.35,304.92 -546.2,-350.23 -809.29,-1049.24 -754.38,-1603.82 -0.06,152.84 285.64,1135.97 1085.35,1411.36z"/>
  <path class="fil31" d="M8421.27 15428.05c163.18,-42.39 428.53,63.52 592.71,267.52 203.99,253.46 290.98,645.52 291.33,941.38 0.7,596.67 -508.27,996.45 -570.93,956.39 -62.64,-40.09 280.15,-488.45 -42.39,-1027.4 -327.3,-546.9 -538.04,-1068.42 -270.72,-1137.89z"/>
  <path class="fil31" d="M8565.16 15499.93c178.33,28.26 419.49,264.57 502.87,446.76 83.4,182.16 80.56,316.17 58.41,342.93 -39.85,48.13 -439.22,-228.22 -576.17,-359.53 -194.02,-186.08 -272.59,-475.78 14.89,-430.16z"/>
  <path class="fil32" d="M7933.67 15786.88c77.74,-87.13 156.28,-137.72 219.65,-37.38 63.37,100.32 -147.59,310.96 -426.42,278.44 -278.82,-32.53 -400.16,-189.91 -409.29,-278.36 0,0 152.07,169.44 333.92,160.95 125.63,-5.82 241.81,-78.45 282.14,-123.65z"/>
  <path class="fil21" d="M7715.35 15960.05c0,0 -66.42,-385.69 -3.88,-746.36 62.59,-360.65 234.18,-635.16 287.35,-671.15 53.15,-36 146.77,-71.89 283.3,-93.24 136.5,-21.4 314.52,42.65 278.92,102.62 -35.61,59.97 -225.37,132.7 -425.85,395.96 -200.44,263.21 -354.29,734.77 -310.57,993.57 0,0 -42.48,42.25 -109.27,18.6z"/>
  <path class="fil24" d="M8008.07 14536.82c4.05,-2.54 7.86,-5.09 12.32,-7.6 0.44,-0.25 0.9,-0.49 1.35,-0.74 55.45,-31.05 141.67,-60.6 260.38,-79.18 100.8,-15.79 223.97,15.04 267.31,56.33 12.64,18.06 -12.77,49.64 -131.65,87.53 -119.39,38.1 -248.17,48.67 -363.99,27.49 -56.27,-10.3 -84.75,-53.77 -45.72,-83.83z"/>
  <path class="fil30" d="M7819.52 15500.8c55.11,-325.18 336.85,-636.32 540.45,-787.41l0.02 0.02c-67.29,55.59 -145.1,129.81 -224.8,234.47 -200.44,263.21 -354.29,734.77 -310.57,993.55 0,0 -42.48,42.27 -109.29,18.61 0,0 -15.9,-92.95 -24.8,-229.9 28.08,123.88 78.17,70.38 128.99,-229.34z"/>
  <path class="fil2" d="M7688.75 15414.32c-159.07,60.89 -442.39,47.57 -633.48,-131.37 -229.58,-215 -162.03,-556.84 -162.03,-556.84 0,0 282.89,-116.85 551.07,74.79 195.66,139.8 273.82,461.3 244.44,613.42z"/>
  <path class="fil14" d="M7688.75 15414.32c-159.07,60.89 -442.39,47.57 -633.48,-131.37 -229.58,-215 -162.03,-556.84 -162.03,-556.84 0,0 282.89,-116.85 551.07,74.79 195.66,139.8 273.82,461.3 244.44,613.42z"/>
  <path class="fil2" d="M6893.24 14726.11c0,0 282.89,-116.85 551.07,74.79 195.66,139.8 273.82,461.3 244.44,613.42 -233.58,-449.08 -795.51,-688.21 -795.51,-688.21z"/>
  <path class="fil32" d="M6893.24 14726.11c0,0 282.89,-116.85 551.07,74.79 195.66,139.8 273.82,461.3 244.44,613.42 -233.58,-449.08 -795.51,-688.21 -795.51,-688.21z"/>
  <g id="_2787805235424">
   <g>
    <path class="fil2" d="M20123.57 14868.87c0,130.85 91.94,289.99 205.37,355.43 43.97,25.5 84.62,32.85 117.98,25 -6.55,7.08 -14.16,12.89 -22.23,17.45l49.26 -28.06c1,-0.75 1.75,-1.25 2.78,-1.77 2.53,-1.5 4.8,-3.26 7.32,-5.03 3.28,-2.28 6.32,-5.07 9.1,-7.82 1.77,-1.79 3.52,-3.55 5.31,-5.6 0.49,-0.22 0.74,-0.48 0.99,-0.99 1.54,-1.77 3.29,-3.82 4.81,-6.06 6.83,-8.85 12.38,-18.97 16.91,-30.56 1.29,-3.3 2.52,-6.57 3.55,-9.87 0.77,-1.75 1.26,-3.28 1.51,-5.03 1,-3.05 1.77,-6.08 2.27,-9.1 3.79,-15.41 5.59,-32.33 5.59,-51.02 0,-130.86 -91.98,-290.01 -205.15,-355.42 -33.09,-19.22 -64.16,-28.08 -91.95,-28.08l-0.75 0c-4.29,0 -8.59,0.28 -12.63,0.79l-11.86 2c-2.55,0.51 -4.81,1.28 -7.09,2.03l-4.27 1.28c-2.81,0.99 -5.6,2.01 -8.35,3.53l-1.76 0.74c-2.53,1.28 -5.32,2.52 -7.84,4.07l-42.96 24.48c6.83,-3.52 14.4,-6.31 22.23,-7.82 -24,25 -38.14,64.14 -38.14,115.43zm338.14 375.71l0 0c1.24,-0.5 2.33,-1.18 3.55,-1.71 -1.22,0.54 -2.31,1.21 -3.55,1.71z"/>
    <path class="fil33" d="M14815.2 17836.28l289.49 503.22 49 -28.29 5271 -3044.46c8.07,-4.56 15.68,-10.37 22.23,-17.45 23.76,-25 37.88,-64.16 37.88,-115.45 0,-130.83 -91.96,-289.97 -205.37,-355.41 -32.82,-19.18 -64.14,-28.02 -91.68,-28.02 -9.1,0 -17.69,1.01 -26.04,3.02 -7.83,1.51 -15.4,4.3 -22.23,7.82 -1.25,0.51 -2.53,1.28 -3.52,1.78l-1.27 0.76c-0.24,0.24 -0.24,0.24 -0.52,0.24l-5318.97 3072.24z"/>
    <path class="fil2" d="M14960.33 17850.65c-113.32,-65.45 -205.2,-12.39 -205.2,118.47 0,130.89 91.88,290.03 205.2,355.48 113.36,65.42 205.24,12.39 205.24,-118.48 0,-130.89 -91.88,-290.04 -205.24,-355.47z"/>
   </g>
   <g>
    <path class="fil24" d="M17873.84 16286.74c0.25,-0.51 0.75,-0.77 1.25,-0.77l6.83 -4.03c12.64,-5.55 29.31,-3.79 47.75,6.82 40.16,23.22 73.01,80.07 73.01,126.55 0,20.46 -6.31,35.64 -16.92,43.96 0,0.25 -0.27,0.25 -0.27,0.25l-8.83 5.07 -3119.02 1800.64 -205.11 -118.48 3221.31 -1860.01z"/>
    <path class="fil21" d="M15147.23 18098.01l-289.59 167.22 -205.11 -118.48 392.08 -226.39c45.48,49.94 82.06,113.3 102.62,177.65z"/>
   </g>
   <g>
    <g>
     <path class="fil2" d="M14415.94 18292.5l-0.02 -0.04 -0.23 -0.23 237.55 -261.21c2.08,-2.51 4.12,-5.01 6.38,-7.04 26.4,-26.4 68.9,-28.65 117.09,-0.94 80.04,46.16 145.03,158.7 145.03,251.24 0,53.42 -21.59,88.42 -55.23,99.8 -0.91,0.24 -1.58,0.45 -2.26,0.69l-9.55 2.05 -348.31 75.92 -0.12 -0.14c-10.67,2.37 -23.57,-0.05 -37.49,-8.09 -36.47,-21.03 -66.05,-72.25 -66.05,-114.35 0,-17.01 5.04,-29.71 13.21,-37.66z"/>
     <path class="fil30" d="M14415.94 18292.5l-0.02 -0.04 -0.23 -0.23 237.55 -261.21c2.08,-2.51 4.12,-5.01 6.38,-7.04 26.4,-26.4 68.9,-28.65 117.09,-0.94 80.04,46.16 145.03,158.7 145.03,251.24 0,53.42 -21.59,88.42 -55.23,99.8 -0.91,0.24 -1.58,0.45 -2.26,0.69l-9.55 2.05 -348.31 75.92 -0.12 -0.14c-10.67,2.37 -23.57,-0.05 -37.49,-8.09 -36.47,-21.03 -66.05,-72.25 -66.05,-114.35 0,-17.01 5.04,-29.71 13.21,-37.66z"/>
    </g>
    <g>
     <path class="fil2" d="M14402.72 18330.2c0,42.06 29.55,93.21 66.15,114.35 13.87,7.96 26.84,10.47 37.31,7.96l0.21 0.23 175.96 -38.43c27.74,-5.91 45.92,-32.06 45.92,-73.87 0,-67.32 -47.27,-149.37 -105.48,-183.03 -34.57,-20.02 -65.25,-18.41 -84.57,0.21l-4.75 5.23 -117.78 129.38 0.23 0.23c-8.19,7.95 -13.2,20.72 -13.2,37.74z"/>
     <path class="fil30" d="M14468.78 18292.05c-36.47,-21.05 -66.05,-3.99 -66.05,38.11 0,42.1 29.58,93.32 66.05,114.35 36.46,21.06 66.02,4.01 66.02,-38.11 0,-42.1 -29.56,-93.3 -66.02,-114.35z"/>
    </g>
   </g>
   <g>
    <path class="fil34" d="M19696.15 15233.15c13.16,-7.84 31.33,-6.57 51.53,5.02 40.19,23.27 72.75,79.61 72.51,125.84 0,23.48 -8.09,39.9 -21.49,47.22l-1812.94 1048.04c10.61,-8.32 16.92,-23.5 16.92,-43.96 0,-46.48 -32.85,-103.33 -73.01,-126.55 -18.44,-10.61 -35.11,-12.37 -47.75,-6.82l1814.23 -1048.79z"/>
    <path class="fil0" d="M19674.92 15280.12c0,46.23 32.62,102.56 72.76,125.81 19.97,11.35 37.92,12.63 50.8,5.04 13.37,-7.32 21.71,-23.48 21.71,-46.96 0.24,-46.23 -32.32,-102.57 -72.51,-125.84 -20.2,-11.59 -38.37,-12.86 -51.53,-5.02 -13.12,7.56 -21.23,24 -21.23,46.97z"/>
   </g>
   <path class="fil2" d="M19837.39 14969.4l-0.15 -0.17 2.34 -1.36c1.09,-0.64 2.12,-1.27 3.21,-1.83l302.77 -174.63c2.32,-1.48 4.66,-2.83 7.08,-4.06l1.68 -1 0.06 0.17c32.93,-16.11 76.8,-12.4 125.14,15.51 102,58.89 184.7,202.12 184.7,319.9 0,59.22 -20.93,100.7 -54.66,119.85l0 0.01 -306.45 176.91c-0.56,0.32 -1.12,0.64 -1.66,0.95l-1.81 1.04 -0.09 -0.16c-33.21,17.67 -78.16,14.44 -127.85,-14.23 -102.01,-58.89 -184.68,-202.11 -184.68,-319.92 0,-56.56 19.19,-96.78 50.37,-116.98z"/>
   <path class="fil35" d="M19837.39 14969.4l-0.15 -0.17 2.34 -1.36c1.09,-0.64 2.12,-1.27 3.21,-1.83l302.77 -174.63c2.32,-1.48 4.66,-2.83 7.08,-4.06l1.68 -1 0.06 0.17c32.93,-16.11 76.8,-12.4 125.14,15.51 102,58.89 184.7,202.12 184.7,319.9 0,59.22 -20.93,100.7 -54.66,119.85l0 0.01 -306.45 176.91c-0.56,0.32 -1.12,0.64 -1.66,0.95l-1.81 1.04 -0.09 -0.16c-33.21,17.67 -78.16,14.44 -127.85,-14.23 -102.01,-58.89 -184.68,-202.11 -184.68,-319.92 0,-56.56 19.19,-96.78 50.37,-116.98z"/>
   <path class="fil30" d="M19971.72 14979.77c-102.03,-58.91 -184.7,-11.16 -184.7,106.61 0,117.81 82.67,261.03 184.68,319.92 102.01,58.89 184.72,11.17 184.72,-106.61 0,-117.81 -82.71,-261.02 -184.7,-319.92z"/>
   <g>
    <path class="fil24" d="M14318.91 18402.41l125.27 -75.16 0.06 0.11c6.18,-3.99 14.85,-3.74 24.54,1.85 18.68,10.8 33.85,37.03 33.85,58.63 0,10.79 -3.81,18.38 -9.92,21.9l-124.84 75.48c-6.88,3.82 -14.78,5.98 -23.18,5.98 -26.58,0 -48.15,-21.53 -48.15,-48.12 0,-17.11 8.92,-32.11 22.37,-40.67z"/>
    <path class="fil22" d="M14311.63 18408.16l0.25 -0.22c1.99,-1.81 4.36,-3.77 6.64,-5.29 0.27,0 0.27,-0.26 0.5,-0.26 5.82,-2.26 13.45,-1.02 21.78,3.79 18.68,10.87 33.86,36.89 33.86,58.61 0,10.59 -3.55,17.95 -9.6,21.49 -0.79,0.5 -1.78,1 -2.55,1.24 -0.76,0.51 -2.47,1.17 -2.47,1.17 -4.79,2.02 -9.88,2.61 -15.46,2.61 -26.52,0 -47.99,-21.71 -47.99,-48.23 0,-13.91 5.68,-26.32 15.04,-34.91z"/>
   </g>
  </g>
  <g id="_2823687098016">
   <g>
    <path class="fil36" d="M22359.2 15000.13l814.05 -159.45c23.69,-4.62 39.74,23.43 23.76,41.48l-552.27 625.34 -285.54 -507.37z"/>
    <path class="fil22" d="M23197.01 14882.16c15.98,-18.05 -0.07,-46.1 -23.76,-41.48l-158.93 31.15c44.53,27.57 69.88,77.74 65.71,129.92l-1.16 14.19 118.14 -133.78z"/>
    <path class="fil24" d="M18643.95 17798.56l66.58 -38.24 80.53 -45.81 3853.68 -2206.88c30.17,-88.45 15.52,-185.26 -22.67,-269.99 -57.69,-129.25 -169.85,-231.21 -262.74,-237.14l-3851.84 2205.91 -153.59 88.14c102.62,-51.49 392.28,450.89 290.05,504.01z"/>
    <path class="fil37" d="M18897.94 17653.93l148.59 -85.56c43.89,-23.37 18.75,-131.09 -32.61,-242.61 -67.84,-148.22 -201.5,-291.71 -259.69,-260.83l-109.62 62.85 -38.82 23.19c58.22,-30.91 191.98,112.58 259.82,260.8 49.08,106.86 74.02,210.84 36.74,239.09l-0.42 0.29c-1.01,1.21 -2.34,2.01 -3.99,2.78z"/>
    <path class="fil2" d="M18934.87 17632.26c102.02,-54.11 -190.12,-557.17 -292.15,-503.11l-148.98 85.2c102.01,-54.12 394.1,448.95 292.08,502.98l149.05 -85.07z"/>
    <path class="fil37" d="M18643.95 17798.56l147.11 -84.05c100.57,-52.37 -177.19,-540.21 -283.57,-508.1 -1.95,0.36 -4.01,1.33 -6.08,2.35l-147.51 85.79c102.62,-51.49 392.28,450.89 290.05,504.01z"/>
    <path class="fil9" d="M23200.72 14854.77l-27.47 -14.09 -590.69 323.06 -4019.57 2302.73c-5.71,-9.1 -10.39,-9.72 -14.24,-3.46 86.86,135.33 152.41,305.81 95.2,335.55l66.58 -38.24 80.53 -45.81 3853.68 -2206.88 0.08 -0.13 552.19 -625.34c7.44,-8.41 7.72,-18.98 3.71,-27.39z"/>
    <path class="fil38" d="M18019.99 18155.6l623.96 -357.04c43.74,-22.67 19.51,-129.46 -30.9,-240.36 -67.41,-148.52 -200.48,-293.29 -259.15,-263.65 0,0 -0.35,-0.08 -0.83,0.2l-625.88 358.46c-124.29,71.74 -9.99,341.73 128.71,462.36 51.58,45.52 109.28,65.72 164.09,40.03z"/>
   </g>
   <path class="fil30" d="M18057.21 17962.04c-35.79,-140.65 -149.73,-278.54 -254.52,-308.05 -38.46,-10.82 -70.24,-5.41 -93.4,12.55 -93.87,87.14 15.37,334.92 146.61,449.03 50.55,44.63 107,64.65 160.86,41.14 46.74,-27.33 64.71,-99.29 40.45,-194.67z"/>
  </g>
  <g id="_2787808033968">
   <path class="fil39" d="M15409.36 2916.86l670.5 -350.68c0,0 425.9,108.77 1136.79,66.7 1051.69,-62.22 1665.54,-506.29 1509.2,-1129.96 -160.22,-639.09 -863.46,-889.87 -2116.92,-840.93 -1568.33,61.24 -1948.68,1124.28 -1012.21,1752.55l-187.36 502.32z"/>
   <path class="fil40" d="M15409.36 2916.86l670.5 -350.68c0,0 425.9,108.77 1136.79,66.7 1051.69,-62.22 1665.54,-506.29 1509.2,-1129.96 -160.22,-639.09 -863.46,-889.87 -2116.92,-840.93 -1568.33,61.24 -1948.68,1124.28 -1012.21,1752.55l-187.36 502.32z"/>
  </g>
  <g id="_2787808091856">
   <path class="fil41" d="M16295.68 1670.1c0,92.32 -74.85,167.18 -167.18,167.18 -92.32,0 -167.17,-74.86 -167.17,-167.18 0,-92.34 74.85,-167.18 167.17,-167.18 92.33,0 167.18,74.84 167.18,167.18z"/>
   <path class="fil41" d="M17081.97 1670.1c0,92.32 -74.84,167.18 -167.17,167.18 -92.33,0 -167.17,-74.86 -167.17,-167.18 0,-92.34 74.84,-167.18 167.17,-167.18 92.33,0 167.17,74.84 167.17,167.18z"/>
   <path class="fil41" d="M17868.27 1670.1c0,92.32 -74.84,167.18 -167.17,167.18 -92.32,0 -167.17,-74.86 -167.17,-167.18 0,-92.34 74.85,-167.18 167.17,-167.18 92.33,0 167.17,74.84 167.17,167.18z"/>
  </g>
  <g id="_2787808091808">
   <path class="fil21" d="M6979.26 13039.42c0,114.51 85.7,187.92 191.42,248.96l4333.2 2501.8c105.72,61.04 277.14,61.04 382.87,0l6990.44 -4035.95c105.73,-61.03 191.44,-139.6 191.46,-254.13 0,-114.53 -85.7,-185.39 -191.43,-246.42l-4333.21 -2501.78c-105.72,-61.04 -277.13,-61.04 -382.87,0l-6990.5 4035.94c-105.72,61.04 -191.39,137.05 -191.38,251.58z"/>
   <path class="fil24" d="M7170.64 13008.89l4333.24 2501.78c105.72,61.04 277.14,61.04 382.87,0l6990.47 -4035.95c105.73,-61.03 105.73,-160.01 0,-221.04l-4333.21 -2501.78c-105.72,-61.04 -277.13,-61.04 -382.87,0l-6990.5 4035.94c-105.72,61.04 -105.72,160 0,221.05z"/>
   <g>
    <path class="fil22" d="M11695.46 15556.81l0 279.02c-69.4,0 -138.82,-15.02 -191.42,-45.52l-4333.39 -2501.91c-105.67,-61.01 -191.39,-134.45 -191.39,-248.95 0,-107.43 77.06,-182.29 176.47,-243.08 -82.11,58.03 -83.67,155.54 14.92,212.57l4333.39 2501.91c52.6,30.5 122.02,45.96 191.42,45.96z"/>
   </g>
  </g>
  <g id="_2787724335504">
   <path class="fil21" d="M6896.08 12817.44c-83.93,-38.68 -106.7,-105.36 -114.72,-222.81l-375.65 -5495.71c-8.02,-117.45 71.2,-262.16 176.92,-323.2l6990.46 -4035.95c105.73,-61.03 183.21,-94.17 280.85,-27.45 102.18,69.8 99.72,103.66 107.73,221.11l375.63 5495.7c8.02,117.46 -71.2,262.17 -176.93,323.2l-6990.51 4035.95c-105.73,61.04 -165.62,78.99 -273.78,29.16z"/>
   <path class="fil24" d="M13961.73 2933.27c-7.99,-117.22 -100.29,-162.88 -206.01,-102.13l-6990.6 4036.15c-52.85,30.54 -99.28,82.11 -130.95,140.64l-182.42 -91.72 -0.35 0c32.04,-58.55 78.45,-110.11 131.3,-140.67l6990.28 -4035.8c105.71,-61.09 183.62,-94.82 280.8,-27.49 102.64,71.12 99.96,103.8 107.95,221.02z"/>
   <g>
    <path class="fil22" d="M7155.66 12796.37c-96.24,56.84 -157.18,63.86 -259.56,20.89 -78.29,-32.85 -106.63,-105.18 -114.64,-222.57l-375.64 -5495.94c-4,-58.69 13.58,-124.24 45.92,-182.42l182.38 91.06 0.02 0.43c-31.83,58.6 -49.91,123.73 -45.9,182.42l375.65 5495.93c7.41,108.9 101.46,163.55 191.77,110.2z"/>
   </g>
  </g>
  <g id="_2787724335072">
   <path class="fil42" d="M6886.59 7077.43l6727.29 -3882.93c63.44,-36.63 118.77,-9.19 123.58,61.29l350.47 5126.93c4.8,70.47 -42.73,157.29 -106.16,193.91l-6727.3 3882.87c-63.44,36.63 -118.76,9.17 -123.57,-61.3l-350.47 -5126.85c-4.81,-70.47 42.72,-157.3 106.16,-193.92z"/>
  </g>
  <path class="fil2" d="M6886.59 7077.43c-63.44,36.62 -110.97,123.45 -106.16,193.92l344.64 5041.46 6650.43 -3838.49c63.44,-36.62 110.97,-123.44 106.16,-193.92l-344.64 -5041.54 -6650.43 3838.57z"/>
  <path class="fil43" d="M6886.59 7077.43c-63.44,36.62 -110.97,123.45 -106.16,193.92l344.64 5041.46 6650.43 -3838.49c63.44,-36.62 110.97,-123.44 106.16,-193.92l-344.64 -5041.54 -6650.43 3838.57z"/>
  <g id="_2787484471440">
   <path class="fil22" d="M7761.9 12820.35l6424 -3708.84c49.84,-28.79 130.66,-28.79 180.52,0l233.98 131.25c49.84,28.78 49.84,75.44 0,104.21l-6424.95 3708.26c-49.85,28.77 -130.68,28.77 -180.53,-0.01l-233.02 -130.66c-49.84,-28.77 -49.84,-75.43 0,-104.21z"/>
   <g>
    <path class="fil22" d="M8392.77 13192.46l6423.92 -3708.89c49.85,-28.79 123.67,-32.82 164.92,-9l1672.07 965.42c41.24,23.8 34.26,66.44 -15.59,95.22l-6416.43 3703.82c-49.84,28.78 -123.78,32.94 -165.13,9.26l-1679.13 -960.89c-41.36,-23.66 -34.47,-66.17 15.37,-94.94z"/>
    <path class="fil24" d="M13959.19 11041.36l201.13 -116.13c8.54,-4.93 9.32,-12.5 1.74,-16.88l-192.43 -111.09c-7.59,-4.38 -20.67,-3.93 -29.22,1l-201.13 116.13c-8.55,4.93 -9.32,12.47 -1.72,16.85l192.42 111.11c7.59,4.38 20.66,3.93 29.21,-0.99zm-293.67 -401.81l0 0 -201.15 116.11c-8.52,4.94 -9.3,12.5 -1.71,16.88l192.43 111.11c7.58,4.36 20.67,3.92 29.21,-1l201.13 -116.13c8.54,-4.94 9.34,-12.51 1.74,-16.86l-192.44 -111.1c-7.58,-4.4 -20.68,-3.93 -29.21,0.99zm-649.81 375.18l0 0 -340.39 196.51c-8.54,4.92 -9.32,12.49 -1.73,16.85l192.44 111.11c7.59,4.38 20.67,3.93 29.21,-1l340.38 -196.51c8.54,-4.93 9.32,-12.49 1.73,-16.87l-192.42 -111.12c-7.59,-4.35 -20.67,-3.91 -29.22,1.03zm355.84 -205.47l0 0 -201.13 116.13c-8.54,4.94 -9.33,12.49 -1.72,16.86l192.43 111.11c7.58,4.38 20.66,3.93 29.2,-1l201.13 -116.12c8.55,-4.95 9.34,-12.49 1.74,-16.87l-192.44 -111.09c-7.57,-4.41 -20.66,-3.94 -29.21,0.98zm-789.05 455.57l0 0 -201.14 116.12c-8.55,4.95 -9.31,12.49 -1.73,16.87l192.44 111.11c7.57,4.38 20.66,3.93 29.2,-0.99l201.14 -116.14c8.54,-4.93 9.31,-12.48 1.71,-16.86l-192.41 -111.1c-7.59,-4.4 -20.68,-3.94 -29.21,0.99zm-293.98 169.72l0 0 -201.13 116.13c-8.55,4.93 -9.3,12.49 -1.73,16.87l192.43 111.09c7.6,4.39 20.66,3.94 29.22,-0.99l201.13 -116.13c8.55,-4.94 9.32,-12.49 1.72,-16.87l-192.41 -111.08c-7.6,-4.39 -20.67,-3.96 -29.23,0.98zm754.24 453.33l0 0 201.14 -116.14c8.52,-4.92 9.3,-12.49 1.71,-16.86l-192.41 -111.09c-7.59,-4.39 -20.7,-3.94 -29.22,0.99l-201.13 116.13c-8.55,4.93 -9.34,12.48 -1.75,16.87l192.44 111.1c7.58,4.38 20.68,3.93 29.22,-1zm-293.96 169.71l0 0 201.13 -116.11c8.55,-4.96 9.32,-12.49 1.71,-16.89l-192.41 -111.07c-7.59,-4.38 -20.67,-3.95 -29.22,0.98l-201.13 116.13c-8.55,4.92 -9.31,12.49 -1.73,16.86l192.43 111.09c7.59,4.39 20.66,3.95 29.22,-0.99zm-293.98 169.74l0 0 201.14 -116.15c8.55,-4.92 9.32,-12.47 1.72,-16.85l-192.42 -111.11c-7.59,-4.39 -20.67,-3.92 -29.22,1.01l-201.13 116.11c-8.55,4.95 -9.31,12.49 -1.72,16.87l192.42 111.11c7.59,4.38 20.66,3.93 29.21,-0.99zm-293.96 169.71l0 0 201.13 -116.13c8.55,-4.93 9.32,-12.49 1.72,-16.87l-192.42 -111.09c-7.59,-4.38 -20.66,-3.95 -29.21,0.99l-201.13 116.13c-8.56,4.93 -9.34,12.49 -1.73,16.87l192.42 111.09c7.59,4.38 20.67,3.94 29.22,-0.99zm1504.38 -1185.97l0 0 201.12 -116.13c8.54,-4.93 9.31,-12.49 1.73,-16.86l-192.43 -111.1c-7.58,-4.38 -20.67,-3.93 -29.2,0.99l-201.13 116.13c-8.55,4.93 -9.35,12.49 -1.74,16.87l192.42 111.1c7.59,4.39 20.67,3.93 29.23,-1zm-328.51 507.08l0 0 448.68 -259.04c8.53,-4.95 9.31,-12.49 1.72,-16.87l-467.31 -269.81c-7.6,-4.38 -20.69,-3.93 -29.22,1l-232.06 133.98c-8.56,4.96 -9.33,12.49 -1.76,16.89l247.42 142.83c7.59,4.38 6.81,11.93 -1.74,16.87l-185.64 107.18c-8.56,4.94 -9.34,12.51 -1.73,16.86l192.43 111.11c7.57,4.39 20.66,3.94 29.21,-1zm-1342.16 -113.87l0 0 -201.15 116.12c-8.55,4.93 -9.31,12.49 -1.72,16.87l192.42 111.1c7.6,4.39 20.66,3.93 29.22,-1l201.13 -116.12c8.55,-4.94 9.32,-12.49 1.72,-16.87l-192.41 -111.11c-7.6,-4.38 -20.67,-3.93 -29.21,1.01zm-293.97 169.72l0 0 -201.13 116.11c-8.55,4.95 -9.33,12.5 -1.72,16.87l192.4 111.12c7.6,4.38 20.68,3.93 29.23,-1.01l201.13 -116.12c8.54,-4.93 9.31,-12.5 1.74,-16.86l-192.44 -111.11c-7.59,-4.38 -20.68,-3.92 -29.21,1zm-1626.72 1812.09l0 0c7.59,4.38 20.67,3.92 29.22,-1.01l201.15 -116.13c8.52,-4.92 9.3,-12.49 1.7,-16.87l-192.4 -111.09c-7.6,-4.38 -20.7,-3.93 -29.23,1.01l-201.13 116.11c-8.54,4.94 -9.31,12.49 -1.74,16.87l192.43 111.11zm-725 -454.32l0 0 -201.14 116.12c-8.54,4.93 -9.32,12.49 -1.72,16.87l192.42 111.08c7.59,4.39 20.67,3.95 29.22,-0.99l201.13 -116.13c8.55,-4.92 9.33,-12.48 1.72,-16.87l-192.42 -111.08c-7.59,-4.38 -20.66,-3.95 -29.21,1zm372.75 340.27l0 0c7.58,4.38 20.67,3.93 29.21,-0.99l201.15 -116.14c8.53,-4.93 9.31,-12.49 1.7,-16.86l-192.41 -111.1c-7.58,-4.39 -20.66,-3.93 -29.21,0.99l-201.13 116.13c-8.55,4.94 -9.32,12.49 -1.72,16.87l192.41 111.1zm811.07 182.43l0 0 201.13 -116.13c8.56,-4.94 9.33,-12.49 1.75,-16.87l-192.43 -111.11c-7.6,-4.36 -20.68,-3.93 -29.23,1.03l-201.14 116.11c-8.51,4.92 -9.3,12.49 -1.71,16.87l192.42 111.08c7.6,4.38 20.68,3.96 29.21,-0.98zm-323.16 170.7l0 0c7.58,4.39 20.67,3.94 29.19,-0.98l201.15 -116.13c8.53,-4.94 9.31,-12.48 1.73,-16.86l-192.43 -111.09c-7.6,-4.4 -20.68,-3.95 -29.21,0.98l-201.15 116.14c-8.52,4.93 -9.31,12.47 -1.72,16.85l192.44 111.09zm-566.7 -863.13l0 0 -201.13 116.13c-8.55,4.94 -9.32,12.49 -1.72,16.87l192.42 111.1c7.59,4.38 20.67,3.93 29.22,-1l201.12 -116.13c8.56,-4.93 9.32,-12.48 1.73,-16.86l-192.42 -111.1c-7.6,-4.38 -20.68,-3.94 -29.22,0.99zm1469.82 -848.59l0 0 -201.13 116.11c-8.54,4.95 -9.32,12.49 -1.72,16.87l192.42 111.09c7.59,4.39 20.66,3.94 29.21,-0.98l201.14 -116.13c8.54,-4.94 9.31,-12.48 1.73,-16.86l-192.44 -111.11c-7.58,-4.39 -20.66,-3.92 -29.21,1.01zm-1175.85 678.88l0 0 -201.13 116.12c-8.55,4.93 -9.32,12.49 -1.74,16.85l192.42 111.1c7.61,4.4 20.69,3.97 29.24,-0.99l201.13 -116.12c8.55,-4.94 9.3,-12.48 1.7,-16.87l-192.4 -111.11c-7.6,-4.36 -20.68,-3.93 -29.22,1.02zm1469.82 -848.62l0 0 -201.13 116.14c-8.56,4.92 -9.33,12.49 -1.72,16.86l192.42 111.1c7.59,4.38 20.65,3.95 29.21,-1l201.13 -116.12c8.54,-4.94 9.31,-12.49 1.74,-16.88l-192.42 -111.1c-7.6,-4.38 -20.68,-3.92 -29.23,1zm-587.93 339.46l0 0 -201.13 116.11c-8.55,4.92 -9.33,12.49 -1.74,16.87l192.44 111.09c7.57,4.39 20.67,3.95 29.22,-1l201.12 -116.11c8.54,-4.93 9.34,-12.49 1.75,-16.87l-192.45 -111.09c-7.58,-4.38 -20.67,-3.96 -29.21,1zm-293.96 169.7l0 0 -201.13 116.14c-8.56,4.93 -9.33,12.49 -1.73,16.86l192.42 111.1c7.58,4.39 20.67,3.93 29.22,-1.01l201.15 -116.09c8.52,-4.95 9.3,-12.51 1.7,-16.89l-192.4 -111.1c-7.61,-4.38 -20.69,-3.93 -29.23,0.99zm-293.96 169.74l0 0 -201.14 116.11c-8.54,4.94 -9.32,12.49 -1.74,16.88l192.43 111.09c7.6,4.4 20.68,3.93 29.22,-0.99l201.15 -116.14c8.53,-4.92 9.31,-12.49 1.72,-16.87l-192.42 -111.09c-7.6,-4.38 -20.68,-3.91 -29.22,1.01zm1342.13 113.87l0 0 201.14 -116.13c8.55,-4.92 9.33,-12.49 1.74,-16.86l-192.42 -111.1c-7.6,-4.38 -20.69,-3.93 -29.22,1l-201.15 116.11c-8.55,4.95 -9.3,12.49 -1.7,16.89l192.4 111.09c7.6,4.39 20.68,3.92 29.21,-1zm2742.43 -2472.1l0 0 -201.13 116.13c-8.55,4.92 -9.3,12.48 -1.74,16.86l192.43 111.1c7.59,4.37 20.68,3.92 29.22,-1l201.14 -116.13c8.54,-4.93 9.3,-12.47 1.72,-16.87l-192.42 -111.1c-7.59,-4.38 -20.67,-3.93 -29.22,1.01zm-355.85 205.44l0 0 -201.13 116.14c-8.56,4.92 -9.32,12.46 -1.74,16.86l192.42 111.1c7.6,4.38 20.68,3.93 29.21,-1l201.15 -116.11c8.54,-4.95 9.31,-12.49 1.74,-16.89l-192.43 -111.1c-7.61,-4.38 -20.67,-3.92 -29.22,1zm649.81 -375.16l0 0 -201.12 116.12c-8.55,4.92 -9.31,12.49 -1.75,16.88l192.45 111.08c7.58,4.39 20.66,3.95 29.18,-0.99l201.15 -116.12c8.54,-4.94 9.34,-12.5 1.74,-16.88l-192.42 -111.1c-7.6,-4.36 -20.66,-3.93 -29.23,1.01zm-1624.84 1509.44l0 0 201.13 -116.11c8.57,-4.95 9.33,-12.48 1.74,-16.88l-192.41 -111.09c-7.61,-4.4 -20.69,-3.93 -29.23,0.99l-201.14 116.13c-8.54,4.93 -9.3,12.48 -1.74,16.86l192.44 111.11c7.6,4.38 20.68,3.92 29.21,-1.01zm1948 -1680.16l0 0c-7.58,-4.38 -20.67,-3.93 -29.22,0.99l-201.09 116.12c-8.55,4.95 -9.34,12.49 -1.75,16.87l192.42 111.11c7.58,4.39 20.68,3.92 29.21,-1l201.13 -116.13c8.55,-4.94 9.33,-12.48 1.74,-16.86l-192.44 -111.1zm-3065.57 2642.82l0 0 201.13 -116.12c8.55,-4.94 9.32,-12.49 1.72,-16.87l-192.42 -111.11c-7.59,-4.38 -20.66,-3.93 -29.21,0.99l-201.14 116.14c-8.55,4.93 -9.31,12.49 -1.72,16.86l192.42 111.1c7.6,4.4 20.68,3.93 29.22,-0.99zm3604.92 -2081.33l0 0 201.14 -116.12c8.55,-4.92 9.32,-12.48 1.72,-16.88l-192.43 -111.08c-7.59,-4.38 -20.66,-3.93 -29.21,1.01l-201.14 116.11c-8.52,4.93 -9.31,12.49 -1.72,16.88l192.42 111.08c7.61,4.39 20.67,3.95 29.22,-1zm-568.83 11.03l0 0 201.13 -116.14c8.53,-4.92 9.31,-12.47 1.71,-16.84l-192.44 -111.11c-7.57,-4.39 -20.66,-3.94 -29.19,1l-201.12 116.11c-8.55,4.94 -9.34,12.49 -1.75,16.88l192.44 111.09c7.56,4.4 20.67,3.94 29.22,-0.99zm304.37 -413.82l0 0c-7.57,-4.39 -20.66,-3.93 -29.21,1l-201.14 116.13c-8.52,4.93 -9.31,12.5 -1.71,16.86l192.43 111.1c7.57,4.38 20.68,3.93 29.19,-0.98l201.14 -116.14c8.55,-4.94 9.34,-12.49 1.75,-16.86l-192.45 -111.11zm61.9 -35.71l0 0 467.31 269.79c7.59,4.39 20.67,3.93 29.21,-0.99l201.14 -116.13c8.55,-4.93 9.33,-12.47 1.75,-16.87l-467.32 -269.8c-7.6,-4.38 -20.69,-3.93 -29.24,1l-201.13 116.11c-8.54,4.92 -9.31,12.51 -1.72,16.89zm-679.02 376.16l0 0 -201.13 116.12c-8.55,4.92 -9.33,12.49 -1.73,16.87l192.43 111.08c7.59,4.4 20.67,3.96 29.21,-0.99l201.14 -116.12c8.54,-4.95 9.33,-12.49 1.72,-16.87l-192.41 -111.09c-7.6,-4.38 -20.69,-3.93 -29.23,1zm-2212.47 1277.35l0 0 -201.13 116.14c-8.56,4.93 -9.33,12.49 -1.72,16.86l192.42 111.09c7.59,4.39 20.67,3.95 29.2,-0.98l201.15 -116.13c8.55,-4.94 9.3,-12.47 1.71,-16.85l-192.41 -111.12c-7.61,-4.38 -20.67,-3.93 -29.22,0.99zm2770.88 -1044.29l0 0c7.57,4.4 20.68,3.93 29.23,-0.99l201.13 -116.11c8.53,-4.96 9.31,-12.5 1.72,-16.88l-192.43 -111.09c-7.57,-4.4 -20.68,-3.93 -29.2,0.99l-201.14 116.14c-8.55,4.92 -9.33,12.49 -1.74,16.85l192.43 111.09zm-2476.92 874.59l0 0 -201.13 116.12c-8.55,4.94 -9.32,12.49 -1.72,16.87l192.41 111.1c7.6,4.38 20.68,3.94 29.21,-0.99l201.15 -116.14c8.55,-4.92 9.32,-12.49 1.72,-16.86l-192.42 -111.09c-7.6,-4.39 -20.68,-3.94 -29.22,0.99zm-2303.87 1885.62l0 0c7.59,4.38 20.69,3.93 29.22,-1.01l201.14 -116.12c8.53,-4.93 9.31,-12.48 1.71,-16.86l-192.42 -111.1c-7.59,-4.38 -20.67,-3.93 -29.21,0.99l-201.13 116.14c-8.55,4.93 -9.31,12.49 -1.74,16.84l192.43 111.12zm-341.81 -358.14l0 0 -201.14 116.14c-8.54,4.92 -9.31,12.49 -1.72,16.85l192.42 111.09c7.59,4.39 20.67,3.93 29.21,-0.99l201.14 -116.11c8.55,-4.94 9.32,-12.49 1.72,-16.88l-192.42 -111.1c-7.59,-4.39 -20.66,-3.92 -29.21,1zm664.98 187.42l0 0 201.13 -116.13c8.56,-4.92 9.34,-12.48 1.74,-16.86l-192.43 -111.09c-7.58,-4.38 -20.67,-3.94 -29.22,0.99l-201.13 116.12c-8.53,4.94 -9.32,12.49 -1.72,16.87l192.44 111.08c7.57,4.38 20.65,3.96 29.19,-0.98zm293.97 -169.71l0 0 201.14 -116.12c8.55,-4.95 9.32,-12.49 1.73,-16.89l-192.43 -111.1c-7.57,-4.38 -20.67,-3.93 -29.22,1.01l-201.13 116.12c-8.54,4.94 -9.32,12.49 -1.72,16.87l192.43 111.1c7.57,4.38 20.67,3.92 29.2,-0.99zm293.96 -169.73l0 0 201.14 -116.12c8.54,-4.94 9.32,-12.49 1.74,-16.88l-192.43 -111.09c-7.58,-4.38 -20.68,-3.94 -29.22,1.02l-201.13 116.1c-8.55,4.92 -9.33,12.5 -1.72,16.85l192.41 111.12c7.6,4.38 20.67,3.94 29.21,-1zm-958.95 -17.69l0 0 -201.13 116.11c-8.55,4.93 -9.32,12.49 -1.75,16.88l192.45 111.08c7.58,4.39 20.67,3.96 29.22,-0.99l201.13 -116.12c8.54,-4.93 9.31,-12.49 1.72,-16.88l-192.43 -111.09c-7.58,-4.36 -20.66,-3.94 -29.21,1.01zm293.97 -169.74l0 0 -201.13 116.13c-8.55,4.94 -9.34,12.49 -1.75,16.87l192.43 111.1c7.6,4.39 20.69,3.93 29.23,-0.99l201.14 -116.14c8.52,-4.93 9.3,-12.48 1.71,-16.86l-192.41 -111.1c-7.59,-4.38 -20.69,-3.93 -29.22,0.99zm1175.85 -678.87l0 0 -201.13 116.13c-8.56,4.94 -9.31,12.47 -1.72,16.87l192.42 111.08c7.59,4.39 20.66,3.95 29.21,-1l201.13 -116.11c8.55,-4.93 9.33,-12.49 1.74,-16.88l-192.43 -111.08c-7.59,-4.39 -20.67,-3.95 -29.22,0.99zm-293.97 169.71l0 0 -201.13 116.14c-8.52,4.92 -9.31,12.49 -1.72,16.86l192.42 111.1c7.59,4.38 20.69,3.93 29.21,-1l201.14 -116.11c8.54,-4.95 9.33,-12.49 1.73,-16.89l-192.41 -111.09c-7.61,-4.38 -20.68,-3.94 -29.24,0.99zm587.94 -339.44l0 0 -201.13 116.12c-8.55,4.95 -9.31,12.49 -1.73,16.87l192.42 111.12c7.59,4.38 20.67,3.93 29.22,-1.01l201.14 -116.13c8.55,-4.94 9.3,-12.47 1.71,-16.85l-192.42 -111.1c-7.58,-4.38 -20.66,-3.94 -29.21,0.98zm-1175.85 678.88l0 0 -201.13 116.14c-8.55,4.93 -9.34,12.48 -1.75,16.85l192.45 111.11c7.58,4.38 20.65,3.95 29.21,-1l201.13 -116.12c8.53,-4.95 9.32,-12.49 1.73,-16.87l-192.43 -111.08c-7.6,-4.38 -20.68,-3.96 -29.21,0.97zm293.94 -169.71l0 0 -201.13 116.12c-8.53,4.95 -9.32,12.49 -1.72,16.87l192.43 111.11c7.57,4.38 20.68,3.94 29.21,-1l201.13 -116.13c8.55,-4.94 9.33,-12.49 1.74,-16.86l-192.44 -111.1c-7.56,-4.39 -20.67,-3.93 -29.22,0.99zm-375.21 1105.4l0 0 201.13 -116.13c8.55,-4.92 9.32,-12.45 1.75,-16.86l-192.43 -111.09c-7.6,-4.38 -20.68,-3.94 -29.23,0.99l-201.13 116.11c-8.55,4.95 -9.32,12.5 -1.73,16.89l192.42 111.1c7.59,4.37 20.67,3.93 29.22,-1.01zm-1550.11 -73.15l0 0 -192.44 -111.11c-7.59,-4.38 -20.66,-3.92 -29.22,1.01l-201.13 116.12c-8.55,4.94 -9.32,12.48 -1.72,16.87l192.42 111.09c7.6,4.39 20.67,3.93 29.22,-1l201.13 -116.1c8.55,-4.96 9.31,-12.49 1.74,-16.88zm383.17 96.18l0 0 -192.43 -111.09c-7.57,-4.39 -20.65,-3.95 -29.2,0.99l-309.43 178.65c-8.55,4.93 -9.33,12.49 -1.72,16.87l192.42 111.09c7.59,4.38 20.66,3.95 29.21,-0.99l309.43 -178.65c8.55,-4.95 9.32,-12.49 1.72,-16.87zm-670.39 -315.6l0 0 -192.42 -111.09c-7.6,-4.38 -20.66,-3.96 -29.21,0.99l-247.57 142.92c-8.52,4.92 -9.32,12.51 -1.72,16.86l192.41 111.1c7.6,4.39 20.7,3.93 29.22,-1l247.57 -142.92c8.54,-4.92 9.31,-12.48 1.72,-16.86zm189.8 -109.57l0 0c7.57,4.38 20.67,3.93 29.2,-0.99l201.13 -116.15c8.55,-4.92 9.34,-12.47 1.75,-16.85l-192.45 -111.1c-7.58,-4.38 -20.66,-3.93 -29.22,0.99l-201.11 116.12c-8.56,4.95 -9.33,12.49 -1.74,16.87l192.44 111.11zm832.86 539.21l0 0 -192.42 -111.11c-7.61,-4.37 -20.68,-3.93 -29.21,1.02l-386.81 223.3c-8.55,4.96 -9.33,12.49 -1.72,16.87l192.42 111.1c7.58,4.38 20.66,3.93 29.21,-0.98l386.79 -223.32c8.56,-4.95 9.33,-12.49 1.74,-16.88zm135.65 239.1l0 0 -192.44 -111.08c-7.57,-4.39 -20.66,-3.97 -29.21,0.98l-247.55 142.92c-8.55,4.94 -9.32,12.51 -1.72,16.87l192.42 111.11c7.59,4.38 20.67,3.91 29.22,-1.01l247.55 -142.92c8.54,-4.93 9.3,-12.49 1.73,-16.87zm1217.14 -2040.2l0 0c7.58,4.38 20.67,3.94 29.2,-0.99l201.14 -116.14c8.54,-4.92 9.33,-12.48 1.72,-16.86l-192.39 -111.1c-7.61,-4.39 -20.7,-3.93 -29.25,1l-201.12 116.12c-8.55,4.94 -9.33,12.49 -1.74,16.87l192.44 111.1zm-587.94 339.45l0 0c7.61,4.38 20.68,3.93 29.22,-1.01l201.15 -116.13c8.53,-4.93 9.3,-12.48 1.69,-16.86l-192.41 -111.09c-7.58,-4.4 -20.66,-3.93 -29.21,0.99l-201.13 116.11c-8.56,4.95 -9.31,12.49 -1.74,16.88l192.43 111.11zm-1303.77 752.71l0 0c7.6,4.38 20.69,3.94 29.22,-0.99l201.13 -116.12c8.55,-4.94 9.34,-12.49 1.74,-16.87l-192.43 -111.11c-7.58,-4.36 -20.67,-3.94 -29.21,1.01l-201.14 116.12c-8.52,4.94 -9.32,12.49 -1.72,16.87l192.41 111.09zm1597.74 -922.45l0 0c7.59,4.38 20.67,3.95 29.22,-0.99l201.13 -116.13c8.54,-4.92 9.32,-12.49 1.72,-16.87l-192.42 -111.1c-7.59,-4.37 -20.66,-3.93 -29.21,1l-201.13 116.13c-8.54,4.93 -9.32,12.5 -1.74,16.87l192.43 111.09zm-587.94 339.46l0 0c7.61,4.36 20.68,3.93 29.22,-1.02l201.13 -116.12c8.55,-4.92 9.33,-12.49 1.74,-16.87l-192.42 -111.09c-7.6,-4.37 -20.68,-3.94 -29.21,1l-201.16 116.11c-8.55,4.95 -9.3,12.51 -1.7,16.89l192.4 111.1zm-190.87 1542.93l0 0c-7.62,-4.38 -20.68,-3.96 -29.23,0.98l-309.43 178.65c-8.55,4.93 -9.31,12.49 -1.73,16.88l192.43 111.08c7.59,4.39 20.66,3.95 29.21,-0.99l309.43 -178.65c8.55,-4.94 9.32,-12.49 1.72,-16.87l-192.4 -111.08zm-231 -1299.38l0 0c7.6,4.39 20.68,3.92 29.23,-1l201.13 -116.11c8.54,-4.94 9.31,-12.49 1.72,-16.88l-192.41 -111.1c-7.59,-4.38 -20.67,-3.93 -29.22,1l-201.13 116.14c-8.55,4.92 -9.32,12.46 -1.73,16.86l192.41 111.09zm-293.97 169.72l0 0c7.61,4.39 20.68,3.94 29.23,-0.98l201.13 -116.14c8.55,-4.93 9.32,-12.49 1.74,-16.85l-192.43 -111.11c-7.59,-4.39 -20.67,-3.93 -29.22,0.99l-201.14 116.13c-8.55,4.94 -9.31,12.49 -1.72,16.87l192.41 111.09zm5971.02 -2014.66l0 0c-7.59,-4.39 -20.66,-3.94 -29.21,1l-495.08 285.84c-8.55,4.92 -9.33,12.49 -1.75,16.89l192.45 111.08c7.57,4.38 20.66,3.94 29.22,-1.01l495.07 -285.83c8.55,-4.94 9.33,-12.48 1.74,-16.86l-192.44 -111.11zm-649.81 375.18l0 0c-7.59,-4.38 -20.66,-3.94 -29.21,1l-201.13 116.11c-8.54,4.95 -9.31,12.49 -1.72,16.89l192.4 111.1c7.6,4.35 20.68,3.93 29.23,-1.03l201.13 -116.11c8.55,-4.92 9.32,-12.49 1.72,-16.89l-192.42 -111.07zm-3967.61 2211.35l0 0 201.14 -116.11c8.54,-4.95 9.31,-12.49 1.71,-16.88l-192.4 -111.11c-7.6,-4.38 -20.68,-3.93 -29.23,1.01l-201.14 116.13c-8.54,4.94 -9.31,12.47 -1.71,16.86l192.41 111.1c7.59,4.39 20.67,3.93 29.22,-1zm3379.7 -1871.92l0 0c-7.59,-4.38 -20.67,-3.91 -29.22,1.01l-201.13 116.11c-8.55,4.96 -9.33,12.5 -1.72,16.88l192.4 111.1c7.6,4.38 20.68,3.92 29.23,-0.99l201.13 -116.15c8.55,-4.93 9.31,-12.47 1.74,-16.84l-192.43 -111.12zm1531.69 -884.33l0 0c-7.59,-4.38 -20.67,-3.94 -29.21,0.98l-201.14 116.15c-8.52,4.92 -9.31,12.49 -1.71,16.85l192.41 111.1c7.59,4.39 20.69,3.94 29.21,-0.99l201.14 -116.13c8.55,-4.94 9.32,-12.47 1.75,-16.87l-192.45 -111.09zm486.4 -58.61l0 0 -467.33 -269.83c-7.59,-4.38 -20.66,-3.93 -29.21,0.99l-201.13 116.15c-8.55,4.92 -9.33,12.48 -1.72,16.85l467.31 269.82c7.59,4.39 20.66,3.93 29.21,-0.98l201.14 -116.15c8.55,-4.92 9.32,-12.48 1.73,-16.85zm-3116.59 1577.17l0 0c-7.58,-4.39 -20.69,-3.92 -29.21,1l-247.55 142.92c-8.56,4.92 -9.32,12.49 -1.73,16.87l192.41 111.09c7.6,4.38 20.68,3.94 29.23,-1l247.53 -142.91c8.55,-4.94 9.33,-12.51 1.74,-16.88l-192.42 -111.09zm742.66 -428.78l0 0c-7.59,-4.38 -20.67,-3.93 -29.22,1l-309.45 178.67c-8.55,4.93 -9.3,12.47 -1.73,16.85l192.43 111.11c7.58,4.38 20.67,3.93 29.22,-1.01l309.44 -178.65c8.54,-4.93 9.31,-12.47 1.72,-16.87l-192.41 -111.1zm-1423.41 821.81l0 0c-7.6,-4.38 -20.68,-3.93 -29.23,1l-1655.48 955.79c-8.54,4.94 -9.33,12.51 -1.74,16.86l192.43 111.1c7.59,4.39 20.67,3.96 29.23,-0.99l1655.47 -955.78c8.55,-4.94 9.33,-12.5 1.73,-16.88l-192.41 -111.1zm-1748.33 1009.4l0 0c-7.6,-4.39 -20.69,-3.94 -29.21,0.98l-247.56 142.94c-8.55,4.92 -9.32,12.49 -1.72,16.87l192.4 111.1c7.61,4.37 20.69,3.93 29.23,-1l247.56 -142.94c8.53,-4.92 9.31,-12.48 1.72,-16.86l-192.42 -111.09zm2088.69 -1205.91l0 0c-7.58,-4.4 -20.66,-3.95 -29.21,0.99l-247.55 142.92c-8.55,4.95 -9.33,12.49 -1.73,16.87l192.43 111.09c7.57,4.41 20.67,3.94 29.22,-0.98l247.54 -142.95c8.55,-4.9 9.31,-12.46 1.72,-16.84l-192.42 -111.1zm-2429.08 1402.42l0 0c-7.58,-4.38 -20.66,-3.94 -29.22,0.99l-247.54 142.93c-8.55,4.94 -9.31,12.49 -1.72,16.87l192.42 111.1c7.59,4.38 20.66,3.93 29.21,-0.99l247.55 -142.92c8.55,-4.95 9.33,-12.49 1.73,-16.89l-192.43 -111.09zm3109.84 -1795.45l0 0c-7.59,-4.39 -20.66,-3.95 -29.21,1l-247.56 142.91c-8.52,4.93 -9.31,12.49 -1.71,16.85l192.42 111.11c7.59,4.39 20.69,3.94 29.2,-0.99l247.56 -142.93c8.55,-4.93 9.33,-12.49 1.72,-16.87l-192.42 -111.08zm1052.1 -607.44l0 0c-7.59,-4.38 -20.67,-3.93 -29.23,1l-201.12 116.13c-8.55,4.93 -9.32,12.47 -1.72,16.87l192.42 111.1c7.58,4.37 20.66,3.92 29.21,-1.02l201.11 -116.1c8.56,-4.94 9.32,-12.49 1.74,-16.88l-192.41 -111.1zm658.42 -459.51l0 0 201.13 -116.13c8.56,-4.93 9.35,-12.49 1.76,-16.87l-192.44 -111.08c-7.59,-4.39 -20.67,-3.95 -29.23,0.99l-201.13 116.12c-8.52,4.93 -9.31,12.5 -1.72,16.88l192.45 111.08c7.57,4.39 20.66,3.94 29.18,-0.99zm-1199.57 57.75l0 0 201.13 -116.11c8.54,-4.94 9.31,-12.49 1.74,-16.89l-192.44 -111.07c-7.59,-4.38 -20.67,-3.96 -29.21,0.99l-201.13 116.12c-8.56,4.95 -9.32,12.48 -1.72,16.87l192.4 111.08c7.6,4.39 20.68,3.96 29.23,-0.99zm-780.8 1085.64l0 0 587.94 -339.45c8.55,-4.93 9.31,-12.49 1.7,-16.87l-192.4 -111.1c-7.6,-4.36 -20.66,-3.93 -29.22,1.01l-587.93 339.44c-8.55,4.93 -9.31,12.49 -1.72,16.87l192.41 111.09c7.62,4.38 20.67,3.95 29.22,-0.99zm1657.2 -972.67l0 0c7.59,4.38 20.68,3.93 29.21,-1l201.14 -116.11c8.54,-4.95 9.32,-12.49 1.73,-16.89l-192.43 -111.1c-7.59,-4.38 -20.67,-3.93 -29.2,1.01l-201.16 116.13c-8.52,4.92 -9.3,12.49 -1.72,16.86l192.43 111.1zm-245.67 -159.7l0 0 201.15 -116.14c8.52,-4.92 9.31,-12.48 1.71,-16.85l-192.42 -111.1c-7.6,-4.39 -20.69,-3.94 -29.2,0.99l-201.13 116.13c-8.56,4.93 -9.34,12.49 -1.74,16.87l192.44 111.09c7.56,4.39 20.65,3.94 29.19,-0.99zm-1705.5 1302.09l0 0 201.14 -116.14c8.55,-4.93 9.32,-12.46 1.72,-16.85l-192.42 -111.1c-7.59,-4.39 -20.67,-3.94 -29.22,1l-201.13 116.13c-8.55,4.92 -9.31,12.47 -1.72,16.86l192.42 111.09c7.59,4.38 20.66,3.94 29.21,-0.99zm1301.35 -767.21l0 0c7.61,4.39 20.69,3.94 29.24,-1l201.13 -116.13c8.55,-4.94 9.31,-12.49 1.73,-16.86l-192.43 -111.09c-7.6,-4.4 -20.68,-3.94 -29.21,0.98l-201.14 116.12c-8.55,4.95 -9.32,12.49 -1.72,16.87l192.4 111.11zm-2771.16 1615.82l0 0 201.13 -116.14c8.54,-4.93 9.3,-12.47 1.72,-16.86l-192.42 -111.1c-7.58,-4.38 -20.67,-3.93 -29.21,0.99l-201.14 116.14c-8.55,4.93 -9.32,12.47 -1.75,16.85l192.45 111.11c7.58,4.39 20.67,3.94 29.22,-0.99zm293.96 -169.73l0 0 201.14 -116.12c8.54,-4.95 9.31,-12.49 1.72,-16.87l-192.43 -111.11c-7.58,-4.36 -20.65,-3.94 -29.21,1.01l-201.13 116.12c-8.54,4.92 -9.32,12.49 -1.73,16.87l192.43 111.09c7.59,4.38 20.66,3.96 29.21,-0.99zm-587.93 339.44l0 0 201.13 -116.13c8.55,-4.93 9.32,-12.49 1.72,-16.87l-192.42 -111.08c-7.59,-4.39 -20.66,-3.95 -29.22,1l-201.13 116.11c-8.55,4.93 -9.31,12.49 -1.73,16.87l192.43 111.11c7.59,4.36 20.66,3.92 29.22,-1.01zm1175.85 -678.87l0 0 201.13 -116.13c8.55,-4.94 9.33,-12.5 1.74,-16.87l-192.42 -111.1c-7.59,-4.39 -20.68,-3.93 -29.23,0.99l-201.14 116.14c-8.52,4.92 -9.31,12.46 -1.72,16.84l192.42 111.12c7.59,4.38 20.69,3.93 29.22,-0.99zm-293.97 169.7l0 0 201.13 -116.12c8.55,-4.93 9.34,-12.47 1.74,-16.87l-192.42 -111.09c-7.58,-4.38 -20.68,-3.95 -29.24,1.01l-201.12 116.11c-8.54,4.93 -9.32,12.49 -1.72,16.87l192.44 111.1c7.58,4.37 20.66,3.93 29.19,-1.01zm587.93 -339.44l0 0 201.14 -116.12c8.54,-4.92 9.32,-12.48 1.73,-16.87l-192.43 -111.08c-7.59,-4.38 -20.66,-3.97 -29.21,0.99l-201.14 116.12c-8.54,4.92 -9.31,12.49 -1.72,16.87l192.42 111.11c7.59,4.37 20.66,3.93 29.21,-1.02zm1604.17 -2361.04l0 0c7.61,4.38 20.69,3.93 29.22,-0.99l201.15 -116.15c8.55,-4.92 9.31,-12.47 1.72,-16.85l-51.21 -29.59c-7.59,-4.38 -20.68,-3.92 -29.23,1.01l-201.14 116.12c-8.51,4.92 -9.3,12.49 -1.71,16.86l51.2 29.59zm-1461.08 925.07l0 0c7.57,4.4 20.65,3.96 29.21,-0.99l201.14 -116.12c8.52,-4.92 9.31,-12.48 1.71,-16.86l-192.42 -111.09c-7.58,-4.41 -20.68,-3.94 -29.21,0.98l-201.13 116.14c-8.56,4.93 -9.34,12.49 -1.76,16.87l192.46 111.07zm587.92 -339.42l0 0c7.58,4.38 20.68,3.92 29.2,-1l201.13 -116.11c8.56,-4.95 9.33,-12.51 1.75,-16.89l-192.44 -111.1c-7.59,-4.38 -20.67,-3.93 -29.21,1l-201.14 116.14c-8.52,4.92 -9.31,12.49 -1.72,16.86l192.43 111.1zm-946.89 546.68l0 0c7.59,4.38 20.66,3.94 29.22,-1l201.15 -116.13c8.53,-4.92 9.3,-12.48 1.72,-16.87l-192.42 -111.1c-7.61,-4.36 -20.68,-3.93 -29.23,1.03l-201.13 116.1c-8.54,4.93 -9.32,12.5 -1.73,16.88l192.42 111.09zm652.92 -376.97l0 0c7.57,4.4 20.68,3.94 29.23,-0.99l201.14 -116.14c8.51,-4.92 9.3,-12.47 1.71,-16.85l-192.44 -111.09c-7.58,-4.4 -20.67,-3.95 -29.19,0.99l-201.15 116.12c-8.54,4.95 -9.32,12.49 -1.73,16.87l192.43 111.09zm-1240.86 716.43l0 0c7.61,4.36 20.68,3.92 29.22,-1.03l201.13 -116.11c8.55,-4.93 9.33,-12.49 1.75,-16.88l-192.43 -111.08c-7.6,-4.38 -20.68,-3.94 -29.22,0.99l-201.15 116.12c-8.55,4.96 -9.3,12.49 -1.7,16.87l192.4 111.12zm293.97 -169.74l0 0c7.6,4.38 20.67,3.93 29.22,-1l201.15 -116.12c8.53,-4.94 9.3,-12.48 1.7,-16.86l-192.4 -111.11c-7.6,-4.38 -20.68,-3.92 -29.23,1l-201.13 116.12c-8.54,4.93 -9.31,12.48 -1.73,16.87l192.42 111.1zm1526.1 -962.62l0 0c7.59,4.38 20.67,3.93 29.22,-1l201.14 -116.14c8.54,-4.91 9.3,-12.46 1.73,-16.84l-51.24 -29.58c-7.58,-4.39 -20.67,-3.94 -29.19,0.98l-201.13 116.15c-8.57,4.93 -9.34,12.48 -1.75,16.86l51.22 29.57zm881.9 -509.16l0 0c7.6,4.38 20.68,3.95 29.21,-1l201.13 -116.11c8.55,-4.95 9.32,-12.49 1.72,-16.89l-51.21 -29.57c-7.61,-4.37 -20.68,-3.93 -29.22,1.02l-201.12 116.11c-8.55,4.93 -9.33,12.5 -1.73,16.88l51.22 29.56zm404.21 233.37l0 0c7.59,4.39 20.67,3.94 29.22,-0.98l201.13 -116.12c8.55,-4.95 9.32,-12.49 1.75,-16.87l-192.45 -111.11c-7.58,-4.39 -20.66,-3.94 -29.22,0.99l-201.13 116.14c-8.55,4.93 -9.33,12.49 -1.72,16.86l192.42 111.09zm559.92 644.86l0 0 201.14 -116.13c8.55,-4.92 9.34,-12.48 1.74,-16.86l-192.44 -111.09c-7.56,-4.38 -20.67,-3.93 -29.22,0.99l-201.13 116.11c-8.53,4.95 -9.31,12.49 -1.72,16.87l192.41 111.12c7.59,4.38 20.69,3.91 29.22,-1.01zm-1552.05 -538.8l0 0c7.58,4.39 20.66,3.96 29.21,-1l201.13 -116.11c8.55,-4.93 9.32,-12.49 1.72,-16.87l-51.23 -29.56c-7.58,-4.39 -20.66,-3.95 -29.21,0.99l-201.13 116.13c-8.54,4.93 -9.31,12.47 -1.73,16.85l51.24 29.57zm-2408.01 1471.79l0 0c7.6,4.38 20.69,3.94 29.21,-0.99l201.15 -116.13c8.53,-4.94 9.32,-12.49 1.73,-16.87l-192.43 -111.1c-7.6,-4.38 -20.68,-3.93 -29.21,0.99l-201.16 116.15c-8.52,4.92 -9.3,12.46 -1.7,16.85l192.41 111.1z"/>
   </g>
   <g>
    <polygon class="fil22" points="12628.6,13250 12672.33,13275.2 13833.95,13945.75 15899.74,12753.03 15942.75,12728.54 14737.41,12032.76 "/>
    <polygon class="fil21" points="15873.22,12768.35 14737.42,12113.08 12698.85,13290.52 13833.95,13945.75 "/>
   </g>
  </g>
  <path class="fil22" d="M9967.28 1239.17c-363.16,-237.9 -831.24,-195.33 -1084.25,-3.87 -356.06,269.46 -479.15,565.55 -542.94,1153.21 -89.59,825.48 -181.74,1061.96 -279.65,1250.36 -106.35,204.65 -267.48,300.09 -409.3,348.11 90.91,57.78 272.76,116.2 469.17,19.44 -83.35,398.1 -199.36,732.83 -96.22,1153.68 69.49,283.54 217.69,604.68 435.94,807.93 185.89,173.12 452.04,225.99 675.72,323.84 -150.91,-323.91 -232.01,-629.59 -127.71,-993.6 115.04,-401.54 384.26,-743.48 503.73,-1148.2 165.27,-559.87 354.83,-1139.7 401.54,-1723.81 39.53,-494.05 57.79,-849.11 53.97,-1187.09z"/>
  <path class="fil44" d="M9786.02 1313c-57.79,-54.34 -314.35,-19.3 -469.07,165.36 -154.74,184.65 -247.28,453.34 -59.19,597.19 176.52,135 861.57,-583.56 528.26,-762.55z"/>
  <path class="fil22" d="M11889.25 2123.44c127.66,-47.16 181.8,-211.26 143.71,-341.92 -38.06,-130.66 -144.79,-230.09 -258.64,-304.65 -257.03,-168.37 -574.55,-240.66 -879.37,-204.56 -270.85,-87.91 -578.78,-107.7 -883.49,-43.86 -318.55,66.73 -678.31,368.52 -707.79,826.59 -455.07,107.32 -653.94,665.68 -372.93,1261.95 203.92,432.62 665.68,731.53 721.27,946.58l1724.29 -1340.03c67.18,104.85 275.35,109.67 360.66,68.06 85.3,-41.61 138.07,-195.54 81.34,-271.64 154.58,15.3 309.56,-109.24 327.9,-263.48 18.35,-154.23 -103.09,-311.65 -256.95,-333.04z"/>
  <path class="fil42" d="M10011.46 1228.45c-188.67,47.86 -356.57,159.67 -479.69,306.02 -61.68,73.19 -111.65,155.99 -146.73,244.52 -35.42,88.5 -54.7,182.58 -61.28,277.33l-1.03 14.87 -14.45 3.44c-106.5,25.42 -205.58,79.76 -282.05,157.63 -77,77.38 -131.64,175.56 -163.75,280.27 -62.95,211.17 -42.96,442.29 29.52,651.53 69,212.57 197.66,399.47 345.61,568.47 73.69,84.96 151.64,166.5 226.82,251.04 37.24,42.57 75.11,84.73 108.54,130.63 33.04,45.62 65.5,93.99 79.04,149.37 -16.55,-54.54 -52.07,-99.7 -86.38,-143.67 -35.03,-43.93 -74.54,-84.24 -113.43,-124.93 -78.99,-80.36 -159.63,-159.62 -235.84,-243.54 -76.37,-83.65 -149.49,-171.15 -212.83,-266.31 -64.81,-94.47 -112.53,-199.91 -151.24,-307.3 -40,-107.41 -62.26,-221.37 -70.57,-336.01 -7.35,-114.59 0.92,-232.08 36.6,-342.97 34.95,-110.59 94.06,-214.98 177.4,-297.26 82.74,-82.8 189.85,-140.19 303.31,-166.15l-15.46 18.3c14.6,-198.34 97.24,-389.58 228.69,-536.17 65.14,-73.85 142.8,-135.93 227.11,-185.48 84.35,-49.43 176.44,-86.01 272.09,-103.63z"/>
  <g id="_2787484468800">
   <g>
    <path class="fil45" d="M16330.5 4958.99c94.84,-80.31 112.07,-101.01 239.83,-203.47 94.67,-75.93 170.31,-137.18 194.74,-181.58 48.05,-87.39 3.26,-173.96 -36.69,-159.84 -80.05,28.28 -174.87,96.2 -359.76,223.21 -202.96,139.45 -346.49,276.97 -357.39,254.99 0,0 44.26,-69.87 216.9,-256.72 248.52,-268.98 297.28,-317.77 343.24,-403.77 96.2,-180.05 -39.04,-209.6 -98.68,-172.47 -67.57,42.07 -141.19,123.67 -319.01,300.22 -193.36,191.96 -361.61,387.17 -376.74,375.55 -15.15,-11.64 251.7,-303.99 411.89,-518.39 148.75,-199.1 51.84,-283.16 9.59,-289.76 -44.99,-7.03 -97.03,51.02 -168.83,128.16 -129.55,139.19 -506.87,600.09 -585.78,692.88 -78.91,92.77 -138.76,120.49 -148.89,-22.7 -9.51,-134.32 -3.18,-277.06 -61.65,-369.48 -97.81,-154.61 -205.76,-116.81 -206.07,-13.35 -0.44,145.96 -35.25,310.06 -61.02,543.36 -13.43,121.67 -11.33,266.95 -13.88,351.67 -15.08,296.15 -263.58,449.21 -470.36,591.78 -207.17,142.83 -769.95,463.65 -769.95,463.65 0,0 -1050.52,-1081.58 -1356.99,-1346.78 -364.14,-315.09 -467.98,-337.41 -982.1,-333.03l727.23 1869.85c0,0 988.18,914.43 1323.88,1109.77 335.69,195.35 471.87,87.88 879.86,-273.34 313.29,-277.39 828.56,-913.89 953.18,-1055.36 124.6,-141.47 178.25,-232.39 322.51,-285.32 196.2,-71.99 297.22,-170.48 427.75,-320.12 62.38,-71.52 165.64,-214.8 261.19,-311.44 155.44,-157.25 351.59,-296.46 406.62,-342.55 85.97,-72.01 99.51,-220.15 -21.28,-173.48 -228.29,88.22 -457.42,281.85 -464.77,268.97 -7.36,-12.91 76.27,-85.94 141.43,-141.11z"/>
    <path class="fil46" d="M15374.45 4968.22c105.08,154.23 128.54,519.53 26.53,737.16 211.16,-206.81 188.73,-578.58 -26.53,-737.16z"/>
   </g>
   <path class="fil46" d="M13711.99 6292.93c-174.04,114.07 -381.85,442.65 -322.67,781.21 -75.44,-249.54 -141.21,-561.56 240.74,-872.29l81.93 91.08z"/>
  </g>
  <path class="fil44" d="M8692.15 5160.02l404.79 -162.31c0,0 604.64,-156.81 1108.69,-264.84 529.01,-66.68 987.74,-116.65 987.74,-116.65l179.53 -3.1c0,0 398.28,350.33 690.27,674.28 291.97,323.93 548.33,594.21 564.46,1002.75 21.81,552.39 -332.88,753.73 -332.88,753.73l21.95 703.59 460.72 1304.35 -4454.56 2571.09c135.48,-1587.59 488.17,-1849.38 685.59,-2949.92 -37.94,-575.76 -324.36,-1365.64 -373.22,-1766.46 -169.21,-1387.72 56.92,-1746.51 56.92,-1746.51z"/>
  <g id="_2787917503152">
   <g>
    <g>
     <path class="fil45" d="M9635.81 4468.19c16.64,-194.3 43.35,-581.23 43.35,-581.23 -48.51,64.58 -309.39,153.41 -488.29,-98.36 -206.05,-289.95 -173.43,-497.61 -29.74,-636.41 164.18,-158.59 451.19,-118.04 570.5,133.54 75.08,177.57 222.7,-31.64 74.13,-310.56 -49.07,-489.73 575.83,-164.9 964.74,-1185.97 392.76,-22.33 629.74,89.32 820.78,415.31 86.66,147.87 191.65,360.6 170.22,977.46 -27.3,785.8 -145.57,1032.78 -420.42,1164.33 -126.75,60.68 -256.99,83.83 -501.04,65.4l-2.32 75.4c0.53,15.67 -0.38,34.36 2.73,52.29 5.49,31.52 23.13,80.32 83.27,83.75 126.01,7.18 269.69,-7.5 269.69,-7.5 0,0 202.85,502.5 -462.1,645.77 -934.1,201.26 -1634.37,-263.7 -1634.37,-263.7 0,0 151.88,-76.24 284.97,-172.41 204.85,-148.06 243.45,-235.23 253.9,-357.11z"/>
     <path class="fil34" d="M9380.81 3751.51c1.7,52.95 46,94.47 98.93,92.76 52.93,-1.69 94.47,-45.99 92.76,-98.91 -1.7,-52.95 -45.99,-94.47 -98.91,-92.78 -52.95,1.71 -94.48,46 -92.78,98.93z"/>
     <g>
      <g>
       <path class="fil47" d="M10635.4 3646.71l427.2 132.7c-34.47,122.19 -158.03,191.59 -275.95,154.97 -118,-36.65 -185.7,-165.4 -151.25,-287.67z"/>
       <path class="fil38" d="M10663.25 3745.02c119.29,-3.84 221.39,77.94 247.47,189.93 -39.24,11.56 -81.94,12.51 -124.07,-0.57 -84.69,-26.29 -142.67,-100.24 -156.39,-184.97 10.88,-1.83 21.65,-4.03 32.99,-4.39z"/>
      </g>
      <path class="fil22" d="M11598.04 2579.52l-268.44 -64.34c15.09,-75.39 87.46,-122.09 161.59,-104.31 74.11,17.77 121.97,93.3 106.85,168.65z"/>
      <path class="fil22" d="M10288.13 2565.9l261.42 -99.09c-24.84,-73.81 -103.54,-111.44 -175.74,-84.06 -72.15,27.39 -110.54,109.41 -85.68,183.15z"/>
      <path class="fil22" d="M11334.49 2927.75c-4.37,62.75 43.54,118.52 106.95,124.66 63.39,6.08 118.28,-39.88 122.61,-102.6 4.36,-62.79 -43.55,-118.56 -106.89,-124.63 -63.41,-6.09 -118.37,39.81 -122.67,102.57z"/>
      <path class="fil22" d="M10397.65 2933.86c-4.34,62.75 43.54,118.52 106.95,124.66 63.4,6.1 118.29,-39.87 122.61,-102.59 4.37,-62.78 -43.53,-118.55 -106.88,-124.63 -63.41,-6.1 -118.36,39.82 -122.68,102.56z"/>
     </g>
     <g>
      <path class="fil46" d="M10840.04 4411.7c-238.95,-22.31 -537.87,-100.77 -731.77,-205.26 -161.4,-86.98 -240.2,-226.03 -285.54,-316.32 0,0 -6.17,230.32 196.97,400.32 222.56,186.26 820.82,248.93 820.82,248.93 -2.9,-15.69 -2.74,-31.77 -2.8,-52.27l2.32 -75.4z"/>
     </g>
    </g>
   </g>
  </g>
  <g id="_2787917501472">
   <path class="fil46" d="M10523.29 7138.19c216.18,-183.42 326.28,-256.01 430.11,-292.6 103.84,-36.59 465.11,-214.35 605.09,-258.74 88.8,-28.15 134.4,113 25.73,218.95 -83.67,81.59 -307.36,195.69 -404.76,257.34 -97.42,61.62 -280.35,314.75 -280.35,314.75l-375.82 -239.7z"/>
   <path class="fil45" d="M10033.36 8751.25c-706.67,402.03 -1329.11,903.02 -2015.33,1005.87 -669.81,100.4 -690.65,-454.1 -678.66,-867.38 15.14,-521.61 307.63,-2157.28 459.31,-2702.26 161.07,-578.68 266.38,-791.88 893.47,-1027.46 517.79,339.59 400.69,1461.44 288.12,1889.55 -117.41,446.59 -307.27,1281.24 -307.27,1281.24 0,0 816.46,-257.1 1012.7,-360.82 196.24,-103.73 524.74,-544.7 654.46,-685.94 176.56,-192.21 271.3,-173.92 367.71,-165.59 315.71,27.22 385.98,49.21 454.82,87.09 68.87,37.88 68.5,117.91 68.5,117.91 83.7,5.15 207.84,-5.29 232.46,130.16 16.23,89.39 11.84,108.97 11.84,108.97 0,0 30.06,1.12 55.95,27.54 74.17,75.71 -26.86,360.29 -97.93,432.63 -49.88,50.77 -124.87,61.45 -224.66,54.27 -84.86,-6.13 -51.14,-94.19 -51.14,-94.19l-117.27 14.42c-242.99,196.65 -254.73,487.06 -585.96,587.16 -69.95,21.13 -251.48,59.69 -421.12,166.83z"/>
   <g>
    <path class="fil46" d="M11231.18 7323.45l-376.14 -51.56 365.13 0.64c6.82,17.08 10.61,34.06 11.01,50.92z"/>
    <path class="fil46" d="M11475.49 7562.59l-430.98 -28.52 428.36 -21.1c2.78,15.33 3.39,32.04 2.62,49.62z"/>
    <path class="fil46" d="M11431.03 7754.45c-11.6,22.8 -32.14,40.78 -54.4,53.54 -22.22,13.52 -46.28,22.59 -71.53,29.57l5.45 -4.42c-9.98,23.07 -20.76,45.79 -31.81,68.38l-9.54 -10.85c24.59,-6.04 49.27,-0.74 69.02,12.35 19.73,13.07 32.54,33.07 40.77,53.5 -12.17,-18.62 -28.44,-33.83 -46.46,-43.85 -18.31,-8.97 -40.28,-11.92 -58.6,-6.94l-16.21 4.42 6.69 -15.29c10.06,-23.04 20.44,-45.92 31.6,-68.46l1.77 -3.56 3.69 -0.87c23.63,-5.64 47.26,-14.23 69.76,-24.17 22.05,-10.76 44.13,-23.13 59.8,-43.35z"/>
    <path class="fil46" d="M11320.91 7816.61c-41.99,11.51 -154.02,20.64 -154.02,20.64 0,0 -1.36,30.72 -47.97,85.54 -24.94,29.32 -78.48,74.47 -78.48,74.47l117.27 -14.41c0,0 25.38,-54.4 130.06,-81.35l33.14 -84.89z"/>
   </g>
   <path class="fil46" d="M8708.42 8176.34l-35.42 154.47c-301.63,98.24 -619.27,332.95 -682.3,505.23 40.48,-269.39 187.12,-481.71 717.72,-659.7z"/>
  </g>
  <g id="_2787912769472">
   <path class="fil21" d="M11871.63 2636.35c-14.52,-1.92 -29.65,-3.75 -45.33,-5.37 -148.19,-15.64 -345.68,-19.1 -465.08,20.42 -153.81,51.19 -207.26,107.93 -296.95,110.09 -97.35,1.36 -161.72,-54.6 -343.38,-103.48 -147.63,-39.37 -398.78,-32.09 -597.88,-11.37 -21.75,2.3 -42.9,4.75 -63.16,7.3 -35.06,4.44 -74.11,48.66 -72.61,100.06 1.53,51.73 42.27,92.25 59.34,115.6 7.56,10.33 14.75,25.26 20.25,46.82 20.66,81.49 32.24,240.47 74.08,328.15 16.86,35.31 41.3,78.54 81.44,116.91 13.12,12.38 26.56,23.28 41.75,33.42 7.86,5.1 15.71,9.92 24.08,14.63 21.09,11.65 44.61,21.5 71.37,29.29 3.98,1.15 7.97,2.28 11.95,3.14 6.05,1.46 12.48,3.05 18.87,4.33 6.4,1.3 12.95,2.39 19.69,3.52 19.27,3.06 40.07,5.13 62.19,5.57 8.51,0.47 17.36,0.47 26.41,0.44 10.56,-0.3 21.62,-0.64 32.96,-1.42 249.22,-16.33 346.61,-142.65 401.25,-267 53.53,-121.26 32.14,-285.5 137.34,-288.19 3.48,-0.06 6.8,-0.03 9.96,0.29 3.2,0.22 6.39,0.68 9.28,1.28 77.35,16.17 75.68,165.35 129.74,271.94 20.84,41.05 46.4,81.64 80.15,115.77 5.95,6.16 12.03,11.97 18.49,17.53 3.25,2.95 6.5,5.6 9.85,8.19 3.37,2.73 6.73,5.31 10.23,7.85 3.09,2.3 6.12,4.47 9.32,6.58 5.4,3.56 7.72,5.08 10.03,6.5 2.6,1.68 5.21,3.21 7.93,4.68 1.76,1.13 3.63,2.17 5.5,3.23 26.49,14.56 56.42,25.84 90.5,32.5 2.65,0.49 5.44,1.05 8.24,1.47 31.91,5.64 67.41,7.36 106.81,4.35 198.64,-14.85 254.2,-146.21 278.25,-226.98 23.58,-79.65 22.07,-218.05 30.2,-290.09 1.8,-15.86 7.08,-28.1 13.28,-37.36 11.73,-17.55 33.48,-59.09 31.31,-103.44 -2.15,-44.08 -32.74,-83.8 -57.65,-87.15zm-1003.71 441.62l0 0c-8.59,46.25 -28.23,113.82 -77.68,171.81l-0.13 0.06c-50.67,59.05 -132.99,108.35 -267.32,114.61 -138.57,6.64 -220.59,-47.08 -269.8,-112.87 -3.1,-4.08 -6.03,-8.19 -8.63,-12.18 -2.94,-4.13 -5.5,-8.11 -7.91,-12.14 -2.42,-3.78 -4.63,-7.59 -6.69,-11.45 -1.92,-3.38 -3.81,-6.91 -5.5,-10.33 -1.54,-2.78 -2.92,-5.47 -4.13,-8.23 -1.37,-2.54 -2.56,-5 -3.56,-7.39 -1.89,-4.1 -3.77,-8.35 -5.5,-12.38l0 -0.14c-5.26,-12.44 -9.72,-24.49 -13.41,-36.19 -0.19,-0.25 -0.16,-0.51 -0.35,-0.89 -2.36,-7.43 -4.54,-14.74 -6.57,-21.7 -3.53,-12.63 -6.33,-24.51 -8.68,-34.96 -0.48,-2.29 -0.98,-4.57 -1.48,-6.7 -0.49,-2.13 -0.99,-4.26 -1.47,-6.41 -19.31,-86.04 -41.27,-253.58 3.36,-291.88 42.61,-36.49 158.69,-77.69 341.99,-62.88 6.13,0.18 12.62,0.81 19.28,1.52 27.62,2.79 55.13,6.92 82.14,12.58 10.71,2.14 21.28,4.58 31.66,7.1 27.92,6.84 54.84,14.95 79.17,23.97 8.41,3.06 16.5,6.25 24.14,9.46 9.18,3.7 17.9,7.72 26.14,11.79 1.74,0.81 3.48,1.65 5.23,2.61 3.33,1.58 6.48,3.21 9.54,5.06 24.51,13.11 43.15,27.3 53.37,41.06 36.29,48.63 29.55,154.53 12.79,247.09zm947.28 -73.08l0 0c-6.25,60.43 -19.84,192.79 -123.42,257.46 -29.97,18.76 -67.93,31.86 -115.37,35.57 -127.68,10.67 -204.93,-43.18 -251,-107.45 -0.29,-0.39 -0.6,-0.83 -0.75,-1.17 -1.82,-2.48 -3.48,-4.89 -5.01,-7.21 -1.96,-2.85 -3.79,-5.74 -5.49,-8.41 -0.91,-1.37 -1.84,-2.89 -2.76,-4.41 -2.44,-4.12 -4.9,-8.4 -7.08,-12.52 -2.64,-4.85 -5.12,-9.66 -7.49,-14.67 -1.26,-2.32 -2.35,-4.72 -3.44,-7.12 -0.65,-1.38 -1.17,-2.67 -1.78,-4.04 -0.94,-2.04 -1.76,-4.04 -2.55,-6.01 -0.67,-1.63 -1.43,-3.21 -1.92,-4.65 -8.84,-21.49 -14.96,-41.88 -19.39,-59.42 -21.97,-88.32 -36.7,-190.59 -8.63,-239.52 27.76,-48.41 142.34,-102.17 252.5,-118.35 25.09,-3.71 48.6,-5.82 70.45,-6.62 2.82,-0.07 5.63,-0.16 8.33,-0.21 3.06,-0.07 6.04,-0.1 8.99,-0.1 8.32,-0.1 16.5,0.12 24.33,0.36 2.95,0.11 5.9,0.21 8.85,0.44 3.97,0.3 7.82,0.5 11.55,0.92 6.53,0.41 12.93,1.15 19.11,1.99 12.56,1.57 24.37,3.6 35.35,6.14 2.82,0.64 5.64,1.31 8.37,2.02 0.61,0.09 1.4,0.25 2.18,0.55 1.8,0.46 3.73,0.9 5.68,1.55 2.82,0.65 5.78,1.63 8.51,2.46 3.47,0.99 7.01,2.25 10.25,3.35 6.09,2.13 11.65,4.33 16.89,6.74 1.05,0.41 1.94,0.79 3,1.32 16.92,7.61 29.93,16.09 39.02,24.43 34.91,32.02 30.47,179.96 22.72,256.58z"/>
   <path class="fil21" d="M10028.06 2692.9l-567.79 371.77c53.64,7.56 114.36,32.56 161.75,74.66l435.45 -296.97 -29.41 -149.46z"/>
  </g>
  <path class="fil46" d="M11412.43 3393.01l-345.63 172.98 -88.92 -548.91c6.39,-50.99 34.11,-99.2 54.82,-107.57l379.73 483.5z"/>
  <g id="_2787912780752">
   <path class="fil48" d="M13978.39 7836.58c-0.41,-4.2 -0.84,-7.96 -2.1,-11.73 0.42,-0.85 0,-1.68 -0.42,-2.52 -0.4,-4.19 -1.67,-7.96 -2.94,-11.31 -1.66,-5.86 -4.18,-11.32 -7.53,-16.36 -0.84,-2.51 -2.51,-4.59 -4.19,-6.69 -1.25,-1.67 -2.09,-3.35 -3.77,-4.62 -2.52,-3.34 -5.03,-5.85 -8.37,-8.37 0,0 -0.43,-0.41 -0.84,-0.84 -3.37,-2.51 -7.13,-4.61 -10.91,-6.28 -23.03,-10.9 -52.78,-7.97 -85.89,10.89l-6425.58 3697.04c-70.4,40.64 -127.81,102.68 -127.81,282.16l0.03 192.74c0,67.51 72.91,109.66 131.25,76.07l6422.11 -3697.41c70.39,-40.63 127.8,-139.53 127.8,-221.24l0 -255.6c0,-5.45 -0.41,-10.91 -0.84,-15.93z"/>
   <g>
    <path class="fil49" d="M7342.05 12026.67l-4.66 -2.33 -134.48 -78.12c-36.53,-20.6 -61,-57.5 -66.84,-98.7 -0.78,-6.22 -1.17,-12.44 -1.17,-18.66l0 -224.24c0,-45.13 17.48,-95.77 45.15,-138.67l1.72 1.11 157.61 90.86c-24.52,43.14 -39.26,93.93 -41.24,186.36l0 206.22c0,12.04 2.71,22.55 5.82,31.48 10.5,27.21 31.87,41.19 38.09,44.69z"/>
    <path class="fil50" d="M13937.14 7768.04c-22.92,-11.27 -52.47,-8.16 -85.88,10.88l-6425.28 3696.68c-12.42,6.99 -24.08,15.54 -35.36,24.87 -7.77,6.21 -14.76,13.22 -21.37,20.6 -10.89,10.88 -20.21,23.31 -28.37,37.3l-160.51 -92.1c8.17,-12.82 17.5,-25.26 27.21,-36.54 3.49,-3.89 6.99,-7.38 10.11,-10.88 3.49,-3.5 6.99,-6.99 10.88,-10.1 3.49,-3.49 6.99,-6.61 10.88,-9.33 7.38,-6.21 15.15,-11.26 22.92,-15.93l6426.04 -3697.07c36.54,-21.37 69.18,-21.76 92.5,-7.38 23.33,14 129.03,74.63 156.23,89z"/>
    <path class="fil49" d="M7342.03 12026.79c1.13,0.66 1.94,1.09 1.94,1.09l-1.94 -1.09z"/>
   </g>
  </g>
  <g id="_2787912780608">
   <g>
    <path class="fil51" d="M7781.07 11626.68l0 -157.13c0,-11.26 7.28,-23.28 14.15,-23.36l138.4 -1.34c9.18,-0.09 9.18,19.87 0,30.37l-138.4 158.48c-6.87,7.86 -14.15,4.24 -14.15,-7.02z"/>
   </g>
   <g>
    <g>
     <path class="fil51" d="M8103.45 11440.55l0 -157.13c0,-11.26 7.28,-23.28 14.15,-23.35l138.41 -1.34c9.17,-0.09 9.17,19.87 0,30.36l-138.41 158.48c-6.87,7.86 -14.15,4.24 -14.15,-7.02z"/>
    </g>
    <g>
     <path class="fil51" d="M8273.46 11358.6c-5.84,3.37 -10.58,-0.2 -10.58,-8l0 -161.32c0,-7.8 4.74,-16.84 10.58,-20.21 5.84,-3.37 10.57,0.21 10.57,7.99l0 161.34c0,7.78 -4.73,16.83 -10.57,20.2z"/>
    </g>
   </g>
   <g>
    <g>
     <path class="fil51" d="M7618.13 11720.77l0 -157.15c0,-11.26 -7.3,-14.88 -14.15,-7.01l-138.42 158.48c-9.16,10.5 -9.16,30.45 0,30.37l138.42 -1.35c6.85,-0.06 14.15,-12.09 14.15,-23.34z"/>
    </g>
    <g>
     <path class="fil51" d="M7448.12 11835.11c5.83,-3.37 10.58,-12.42 10.58,-20.2l0 -161.34c0,-7.78 -4.75,-11.36 -10.58,-7.98 -5.84,3.36 -10.57,12.41 -10.57,20.19l0 161.34c0,7.79 4.73,11.36 10.57,7.99z"/>
    </g>
   </g>
  </g>
  <g id="_2787845742608">
   <g>
    <path class="fil51" d="M13667.93 8132.37c-6.73,0 -12.19,-5.48 -12.19,-12.19l0 -71.93c0,-4.35 2.32,-8.37 6.1,-10.56l57.6 -33.25c5.84,-3.39 13.26,-1.34 16.64,4.47 3.35,5.81 1.35,13.27 -4.47,16.63l-51.49 29.74 0 64.9c0,6.71 -5.46,12.19 -12.19,12.19z"/>
   </g>
   <g>
    <path class="fil51" d="M13824.71 8041.85c-6.73,0 -12.19,-5.46 -12.19,-12.19l0 -50.82 -39.33 22.7c-5.83,3.39 -13.28,1.36 -16.63,-4.47 -3.35,-5.81 -1.37,-13.25 4.47,-16.63l57.59 -33.26c3.77,-2.15 8.41,-2.15 12.18,0 3.78,2.18 6.09,6.21 6.09,10.55l0 71.93c0,6.73 -5.46,12.19 -12.18,12.19z"/>
   </g>
   <g>
    <path class="fil51" d="M13767.12 8211.05c-4.22,0 -8.31,-2.2 -10.56,-6.1 -3.35,-5.83 -1.37,-13.27 4.47,-16.65l51.49 -29.72 0 -64.9c0,-6.73 5.46,-12.19 12.19,-12.19 6.72,0 12.18,5.46 12.18,12.19l0 71.93c0,4.35 -2.31,8.37 -6.09,10.54l-57.61 33.26c-1.9,1.12 -4,1.64 -6.07,1.64z"/>
   </g>
   <g>
    <path class="fil51" d="M13667.93 8268.3c-2.11,0 -4.21,-0.55 -6.09,-1.63 -3.78,-2.17 -6.1,-6.2 -6.1,-10.55l0 -71.94c0,-6.71 5.46,-12.17 12.19,-12.17 6.73,0 12.19,5.46 12.19,12.17l0 50.83 39.32 -22.7c5.84,-3.39 13.26,-1.36 16.64,4.46 3.35,5.82 1.35,13.27 -4.47,16.64l-57.59 33.26c-1.89,1.08 -3.98,1.63 -6.09,1.63z"/>
   </g>
   <g>
    <path class="fil51" d="M13578.83 8172.61l-23.32 9.72c-1.18,0.76 -2.73,0 -3.12,-1.56 -1.55,-5.84 -3.5,-10.88 -5.82,-15.16 -0.78,-1.16 0,-4.66 1.15,-7.39l13.22 -29.53c1.17,-2.73 1.56,-5.83 0.78,-6.6l-18.65 -14c-0.78,-0.78 -3.1,1.17 -4.67,3.89l-16.32 26.81c-1.54,2.73 -3.88,4.67 -5.05,4.28 -4.28,-0.39 -8.93,-0.39 -13.99,0.39 -1.17,0.38 -2.34,-0.78 -2.73,-2.72l-2.32 -29.54c-0.39,-1.55 -1.56,-2.33 -3.11,-1.55l-25.27 14.76c-1.54,0.79 -3.1,3.11 -3.1,5.45l-2.73 31.48c0,2.32 -1.54,5.43 -3.11,6.99 -4.27,4.28 -8.55,8.94 -12.44,14 -1.54,1.94 -3.88,3.5 -5.04,3.1l-18.66 -9.32c-0.78,-0.4 -3.11,1.55 -4.27,4.66l-16.31 31.09c-1.57,2.71 -2.35,5.83 -1.57,6.6l15.15 16.34c0.78,1.15 0.4,3.87 -0.38,6.99 -1.94,6.21 -3.89,12.81 -5.06,19.04 -0.39,2.72 -2.32,5.43 -3.88,6.6l-22.54 16.71c-1.56,0.78 -2.72,3.5 -2.72,5.44l0 33.81c0,2.34 1.16,3.5 2.33,2.73l23.31 -10.11c1.57,-0.39 2.72,0.39 3.11,1.56 1.56,5.82 3.51,10.87 6.23,15.54 0.38,1.16 0,4.28 -1.56,7.38l-12.83 29.15c-1.55,3.11 -1.94,6.22 -0.77,6.61l18.65 14.39c0.78,0.39 2.72,-1.18 4.28,-3.91l16.32 -26.81c1.94,-2.71 3.89,-4.66 5.06,-4.66 4.65,0.78 9.32,0.78 13.98,-0.39 1.56,0 2.72,1.17 2.72,3.1l2.73 29.15c0,1.95 1.56,2.73 3.1,1.95l25.27 -14.76c1.55,-0.78 2.72,-3.51 3.11,-5.44l2.32 -31.87c0.39,-1.95 1.56,-5.05 3.51,-6.6 4.28,-4.28 8.15,-8.95 12.05,-14 1.94,-2.33 3.87,-3.88 5.05,-3.11l18.64 8.95c1.18,0.76 3.12,-1.18 4.67,-4.28l16.32 -31.1c1.56,-3.11 1.95,-6.21 1.17,-7l-14.76 -16.31c-0.78,-0.79 -0.78,-3.89 0,-6.61 2.32,-6.22 3.88,-12.82 5.04,-19.04 0.78,-2.73 2.33,-5.83 3.9,-7l22.54 -16.33c1.54,-1.15 3.11,-3.49 3.11,-5.82l0 -33.82c0,-1.93 -1.18,-3.1 -2.72,-2.32zm-96.77 134.07l0 0c-23.71,13.61 -42.75,-1.16 -42.75,-32.64 0,-31.47 19.04,-68.4 42.75,-82 23.69,-13.61 43.12,0.77 43.12,32.65 0,31.47 -19.43,68 -43.12,81.99z"/>
   </g>
  </g>
  <g id="_2787845743280">
   <g>
    <g>
     <path class="fil52" d="M9729.15 10450.18l0 -78.17 -1217.58 702.96c-23.23,13.42 -42.08,41.79 -42.06,63.38 0.01,21.58 18.85,28.19 42.09,14.79l1217.55 -702.96z"/>
    </g>
    <path class="fil27" d="M13179.61 8382.98c-5.05,0.93 -10.59,3.04 -16.4,6.39l-3434.06 1982.64 0 78.17 3434.21 -1982.75c11.63,-6.7 22.12,-17.14 29.73,-28.6 3.8,-5.73 6.88,-11.72 8.99,-17.62 2.13,-5.9 3.3,-11.71 3.28,-17.09 -0.03,-16.18 -10.65,-23.93 -25.75,-21.14z"/>
   </g>
   <g>
    <path class="fil2" d="M9790.03 10381.34c0,44.62 -27.55,96.42 -61.15,116.25 -33.61,19.28 -60.61,-1.64 -60.61,-46.28 0,-44.63 27,-96.97 60.61,-116.25 33.6,-19.28 61.15,1.1 61.15,46.28z"/>
    <path class="fil27" d="M9790.03 10381.34c0,44.62 -27.55,96.42 -61.15,116.25 -33.61,19.28 -60.61,-1.64 -60.61,-46.28 0,-44.63 27,-96.97 60.61,-116.25 33.6,-19.28 61.15,1.1 61.15,46.28z"/>
    <path class="fil2" d="M9768.45 10393.73c0,28.81 -17.77,62.24 -39.48,75.05 -21.7,12.44 -39.12,-1.07 -39.12,-29.89 0,-28.8 17.42,-62.6 39.12,-75.04 21.71,-12.45 39.48,0.71 39.48,29.88z"/>
   </g>
  </g>
 </g>
</svg>
