<?xml version="1.0" encoding="UTF-8"?>
<!DOCTYPE svg PUBLIC "-//W3C//DTD SVG 1.0//EN" "http://www.w3.org/TR/2001/REC-SVG-20010904/DTD/svg10.dtd">
<!-- Creator: CorelDRAW 2021 (64 Bit) -->
<svg xmlns="http://www.w3.org/2000/svg" xml:space="preserve" width="297mm" height="210mm" version="1.0" style="shape-rendering:geometricPrecision; text-rendering:geometricPrecision; image-rendering:optimizeQuality; fill-rule:evenodd; clip-rule:evenodd"
viewBox="0 0 29700 21000"
 xmlns:xlink="http://www.w3.org/1999/xlink"
 xmlns:xodm="http://www.corel.com/coreldraw/odm/2003">
 <defs>
  <style type="text/css">
   <![CDATA[
    .str1 {stroke:#24262A;stroke-width:70.56;stroke-linecap:round;stroke-linejoin:round;stroke-miterlimit:10}
    .str0 {stroke:#24262A;stroke-width:35.28;stroke-linecap:round;stroke-linejoin:round;stroke-miterlimit:10}
    .fil3 {fill:none;fill-rule:nonzero}
    .fil8 {fill:#006633;fill-rule:nonzero}
    .fil2 {fill:#24262A;fill-rule:nonzero}
    .fil10 {fill:#2F569E;fill-rule:nonzero}
    .fil7 {fill:#333333;fill-rule:nonzero}
    .fil6 {fill:#3B3B3F;fill-rule:nonzero}
    .fil9 {fill:#4D4493;fill-rule:nonzero}
    .fil11 {fill:#5D82C8;fill-rule:nonzero}
    .fil5 {fill:#BA644F;fill-rule:nonzero}
    .fil1 {fill:#D47E6B;fill-rule:nonzero}
    .fil0 {fill:#EFEDEF;fill-rule:nonzero}
    .fil4 {fill:white;fill-rule:nonzero}
    .fil12 {fill:#52283F;fill-rule:nonzero;fill-opacity:0.149020}
   ]]>
  </style>
 </defs>
 <g id="Camada_x0020_1">
  <metadata id="CorelCorpID_0Corel-Layer"/>
  <g id="_2555997955760">
   <path class="fil0" d="M11554.25 6922.39c-1453.74,824.73 -3044.11,1514.59 -4143.33,2773.65 -841.87,964.3 -1334.18,2227.45 -1366.84,3507.11 -32.66,1279.68 394.54,2566.31 1186.1,3572.3 1227.55,1560.06 3236.37,2359.7 5216.96,2493.64 2909.86,196.75 5866.91,-955.16 7938.98,-3007.61 2072.06,-2052.46 3246.72,-4959.9 3270.11,-7876.31 12.08,-1506.02 -282.18,-3043.8 -1061.14,-4332.8 -778.98,-1288.98 -2083.24,-2302 -3573.29,-2521.16 -1331.44,-195.82 -2601.03,312 -3518.29,1267.96 -803.04,836.95 -1153.74,1945.15 -2014.75,2750.16 -579.1,541.43 -1246.71,982.86 -1934.51,1373.06z"/>
   <path class="fil1" d="M16131.36 4290.58c-137.53,561.97 -472.69,1073.82 -932.62,1425.37 -459.93,350.65 -1041.93,539.17 -1620.26,523.7 -183.98,-4.57 -377.97,-33.71 -519.16,-151.18 -151.19,-125.71 -213.12,-326.07 -259.57,-516.42 -77.4,-313.32 -135.69,-631.16 -176.69,-950.85 -23.68,-193.09 -41.88,-386.18 -53.73,-580.17 -44.64,-694.02 -12.75,-1394.39 74.69,-2084.76 560.13,-225.88 1235.92,-330.62 1839.76,-317.87 316.03,7.31 635.73,29.15 939,119.33 303.3,91.06 586.54,257.73 779.63,508.21 -5.47,670.32 88.35,1373.45 -71.05,2024.64z"/>
   <path class="fil1" d="M16311.69 7522.02c-280.5,340.63 -613.85,640.27 -1025.51,798.73 -411.68,157.57 -880.73,182.17 -1294.22,29.15 -413.48,-153.92 -762.33,-511.85 -888,-935.36 70.12,-152.09 131.15,-308.75 181.23,-468.14 74.69,-233.16 127.51,-473.59 155.76,-715.86 46.44,5.47 91.98,8.18 137.53,9.11 578.33,15.47 1160.33,-173.05 1620.26,-523.7 189.45,-145.74 358.83,-317.86 500,-510.95 164.87,-221.3 293.28,-469.05 378.89,-730.44 0.91,0 0.91,0 1.84,-0.91 -71.05,996.39 -72.88,2097.52 232.22,3048.37z"/>
   <path class="fil1" d="M15985 4467.51c261.69,32.81 536.9,-76.63 704.55,-280.22 167.66,-203.57 222.32,-494.66 139.93,-745.19 -33.61,-102.21 -92.06,-201.12 -184.05,-256.96 -109.1,-66.25 -251.22,-61.19 -368.33,-10.48 -117.13,50.73 -212.37,141.86 -292.69,241.05l0.59 1051.8z"/>
   <path class="fil2" d="M16675.1 2456.29c-44.62,227.69 -115.66,458.1 -193.09,680.34 -69.22,-3.64 -141.17,10.02 -204.91,38.26 -113.86,48.28 -205.84,136.63 -285.08,231.32 -318.76,-353.36 -520.06,-812.39 -561.93,-1286.91 -27.34,-300.56 253.19,-606.57 490.89,-791.45 93.82,-71.95 204,-132.99 321.5,-129.35 107.47,4.57 207.67,63.77 277.79,145.74 70.12,81.04 112.93,183.05 142.07,286.88 74.69,266.85 65.58,552.85 12.76,825.17z"/>
   <path class="fil2" d="M15537.25 2011.7c-289.72,255.61 -655.7,416.22 -1034.26,493.39 -378.58,77.17 -770.13,73.84 -1153.77,28.09 -281.87,-33.64 -569.37,-93.28 -805.21,-251.28 -236.83,-158.65 -404.02,-407.16 -501.61,-674.99 -97.61,-267.83 -130.06,-555.25 -137.89,-840.2 363.54,257.79 862.5,342.13 1292.26,224.17 344.14,-94.46 641.74,-306.11 953.4,-479.97 311.67,-173.85 667.74,-315.35 1018.49,-249.6 255.36,47.87 486.04,207.91 627.31,425.94 141.3,218.02 193.29,490.45 150.56,746.71 -38.51,231.01 -233.64,422.78 -409.28,577.74z"/>
   <path class="fil2" d="M12555.68 3769.62c-314.23,-516.4 -384.35,-1174.89 -186.72,-1745.95 84.71,19.14 175.79,47.35 255.93,89.25 -61.93,549.21 -89.25,1104.78 -69.21,1656.7z"/>
   <path class="fil3 str0" d="M13646.43 3288.12c-13.45,258.72 -26.88,517.43 -40.33,776.15 -73.84,-69.71 -201.45,-71.8 -277.51,-4.55 -76.08,67.26 -89.66,194.18 -29.51,275.99 60.13,81.84 185.29,106.75 272.19,54.24"/>
   <path class="fil3 str1" d="M14499.09 3391.76c-2.89,67.51 -5.76,135.02 -8.62,202.53"/>
   <path class="fil3 str1" d="M13017.34 3401.77c3.51,67.49 7,134.95 10.48,202.46"/>
   <path class="fil3 str0" d="M14878.55 3040.51c-35.93,-150.87 -184.41,-266.92 -339.49,-265.32 -155.06,1.57 -301.13,120.62 -333.97,272.19"/>
   <path class="fil3 str0" d="M13396.93 3090.08c7.85,-113.54 -47.48,-229.41 -140.7,-294.68 -93.23,-65.26 -221.03,-77.6 -325.02,-31.39 -103.99,46.21 -180.49,149.35 -194.5,262.28"/>
   <path class="fil4" d="M14312.43 4860.37c-18.89,-82 -84.57,-136.47 -167.21,-145.87 -193.04,-22 -341.08,123.66 -436.91,276.89 -69.11,-24.78 -145.12,-43.3 -212.99,-23.7 -82.8,23.85 -128.42,101.69 -111.25,185.83 36.22,177.73 271.34,237.8 424.59,216.69 174.45,-24.04 339.68,-140.48 444.16,-279.48 49.78,-66.22 78.74,-147.57 59.61,-230.36z"/>
   <path class="fil5" d="M14363.5 4327.71c0,163.03 195.02,295.19 435.64,295.19 240.62,0 435.64,-132.16 435.64,-295.19 0,-163.06 -195.02,-295.22 -435.64,-295.22 -240.62,0 -435.64,132.16 -435.64,295.22z"/>
   <path class="fil5" d="M13103.96 4327.94c0,163.01 -194.9,295.09 -435.36,295.09 -15.46,0 -30.96,-0.93 -45.54,-1.83 -23.68,-193.09 -41.88,-386.18 -53.73,-580.17 31.89,-5.47 65.58,-8.18 99.27,-8.18 240.46,0 435.36,132.05 435.36,295.09z"/>
   <path class="fil5" d="M16456.53 3523.99c-220.02,130.3 -386.51,339.52 -465.36,582.62 -14.95,46.11 44.1,72.34 76.11,44.3 109.49,-95.83 240.13,-183.17 389.25,-194.4 58.09,-4.37 58.55,-95.48 0,-91.06 -114.91,8.65 -218.54,52.8 -312.83,113.83 82.44,-155.06 206.87,-286.65 358.81,-376.62 50.39,-29.87 4.62,-108.62 -45.98,-78.67z"/>
   <path class="fil5" d="M15698.74 5205c-105.64,505.48 -426.24,964.51 -850.65,1265.07 -451.75,319.67 -1008.21,469.95 -1562.9,476.33 74.69,-233.16 127.51,-473.59 155.76,-715.86 46.44,5.47 91.98,8.18 137.53,9.11 578.33,15.47 1160.33,-173.05 1620.26,-523.7 189.45,-145.74 358.83,-317.86 500,-510.95z"/>
   <path class="fil6" d="M15206.97 1800.85c-386.89,240.77 -839.83,370.71 -1289.33,429.47 -428.18,55.97 -886.13,25.27 -1247.39,-233.62 -172.1,-123.33 -309.62,-294.48 -375.28,-496.99 -18.02,-55.5 -106,-31.75 -87.83,24.22 123.72,381.5 467.71,648.45 844.82,755.31 471.09,133.5 991.48,52.72 1454.26,-77.94 261.76,-73.92 515.44,-177.88 746.71,-321.79 49.67,-30.9 3.98,-109.75 -45.96,-78.66z"/>
   <path class="fil6" d="M15645.25 803.4c-221.41,-338.1 -723.22,-245.39 -1040.59,-129.09 -206.69,75.72 -402.41,177.96 -608.56,254.95 -214.8,80.24 -438.64,117.96 -665.21,147.08 -57.34,7.38 -58.06,98.54 0,91.08 205.63,-26.44 411.6,-56.07 608.95,-121.83 196.31,-65.37 381.4,-158.78 572.24,-237.73 187.02,-77.32 385.14,-143.59 589.41,-147.33 169.85,-3.13 365.64,36.94 465.09,188.82 31.99,48.85 110.89,3.26 78.67,-45.95z"/>
   <path class="fil6" d="M15573.48 1471.88c-83.24,-137.99 -237.52,-204.96 -389.17,-238.81 -174.5,-38.95 -354.76,-33.48 -529.95,-2.16 -381.19,68.1 -708.35,285.17 -1081.36,376.38 -187.56,45.83 -460.5,75.91 -612.38,-72.59 -41.95,-41 -106.39,23.34 -64.39,64.38 120,117.37 303.35,140.94 464.19,132.29 186.22,-10.01 364.93,-67.43 536.56,-137.14 347.63,-141.22 688.83,-311.51 1074.52,-297.1 181.44,6.79 421.46,51.84 523.34,220.73 30.25,50.14 109.02,4.42 78.64,-45.98z"/>
   <path class="fil6" d="M16016.58 2962.52c-175.51,-241.52 -274.26,-530.57 -280.27,-829.28 -1.19,-58.5 -92.28,-58.71 -91.09,0 6.33,313.66 108.18,621.29 292.72,875.23 34.13,46.96 113.18,1.58 78.64,-45.95z"/>
   <path class="fil6" d="M16237.99 1773.97c-20.99,-54.06 -109.11,-30.54 -87.83,24.22 130.06,334.69 174.11,698.38 122.19,1054.11 -8.37,57.32 79.36,82.08 87.83,24.22 54.32,-372.15 14.17,-751.62 -122.19,-1102.55z"/>
   <path class="fil7" d="M20088.68 14973.98c-4.55,30.05 -9.09,59.2 -13.66,88.32 -34.6,194.02 -94.73,380.73 -194.9,551.04 -323.33,547.35 -1073.81,794.19 -1658.52,546.45 16.39,96.56 31.88,193.99 47.35,290.55 35.52,228.61 67.41,457.19 96.55,686.71 3.65,29.15 7.29,59.2 10.93,88.35 66.48,532.81 112.95,1065.6 138.43,1602.06 0.93,30.95 2.73,62.84 3.64,93.79 11.85,269.61 17.32,540.1 17.32,812.42 -756.86,515.49 -1634.85,796.92 -2541.06,929.01 -905.31,132.05 -1826.1,118.39 -2740.52,81.04 -1127.54,-46.45 -2299.7,-141.17 -3272.41,-713.13 -71.96,-374.32 -130.25,-753.22 -175.79,-1133.92 -3.64,-30.98 -7.28,-61.93 -11.83,-93.82 -61.03,-530.98 -98.36,-1066.51 -112.95,-1601.13 -0.9,-31.88 -1.8,-62.84 -2.73,-93.82 0,-15.46 -0.91,-31.86 -0.91,-47.35 -8.18,-364.3 -5.47,-726.8 6.38,-1088.37 -470.88,118.39 -958.13,-233.16 -1218.62,-643.91 -10.93,-17.32 -20.94,-33.72 -30.96,-51.02 -16.39,-27.31 -31.88,-54.65 -45.54,-82.87 -200.37,-381.63 -268.68,-822.43 -333.35,-1252.31 -20.04,-131.16 -39.17,-262.31 -59.2,-393.46 -4.55,-29.15 -8.19,-59.2 -12.76,-88.35 -86.51,-571.98 -172.12,-1143.93 -257.73,-1715.89 -4.57,-30.98 -9.11,-61.03 -13.66,-92.01 -64.67,-433.52 -130.24,-866.14 -194.92,-1299.66 400.74,101.1 885.28,34.62 1215.89,-213.12 164.84,428.98 458.13,1046.47 622.97,1475.45 122.04,-409.85 268.68,-863.4 423.51,-1302.4l0 -0.9c11.85,-32.79 22.77,-64.68 34.62,-97.46 81.97,-229.52 165.74,-453.56 249.55,-664.88 112.92,-283.24 265.04,-566.5 450.82,-826.07 25.5,-37.33 51.92,-73.76 80.16,-109.28 213.12,-278.7 465.41,-525.51 745.01,-710.42 496.36,-326.97 1171.25,-449.91 1764.17,-489.08 125.67,423.51 474.52,781.44 888,935.36 413.49,153.02 882.54,128.42 1294.22,-29.15 411.66,-158.46 745.01,-458.1 1025.51,-798.73 832.45,0 1729.58,272.32 2335.25,843.37 49.18,47.35 96.53,96.53 140.24,147.55 21.86,24.57 42.8,49.18 62.86,74.69 228.59,284.14 390.72,622.04 525.51,963.6 65.58,167.58 125.68,336.06 180.34,507.28 9.11,29.15 18.2,58.3 27.31,88.35 153.02,498.19 261.4,1009.14 338.83,1526.47 4.54,33.69 10.01,66.47 13.65,100.17 77.4,541 121.14,1089.3 147.55,1637.58 1.81,31.89 3.64,62.84 4.54,94.73 10.92,231.32 19.13,462.67 25.51,693.09 7.28,256.82 10.02,520.96 -24.6,775.08z"/>
   <path class="fil8" d="M9547.38 13712.55c223.13,25.51 442.63,6.38 662.13,-39.16 222.23,-46.45 439.9,-113.86 663.06,-155.76 233.16,-43.71 459.94,-44.61 691.26,7.31 219.5,48.25 431.71,124.77 653.05,162.1 207.64,34.62 409.84,22.77 614.76,-22.77 211.28,-46.44 416.22,-118.4 628.44,-163.03 226.78,-46.45 441.7,-41.88 663.94,25.5 212.22,64.68 417.13,156.66 641.2,172.15 216.76,14.56 432.62,-33.71 643,-82.9 218.59,-51.89 440.8,-108.38 668.51,-97.43 229.52,10.92 448.08,91.06 672.15,131.15 224.95,40.07 438.07,18.2 659.4,-29.15 236.8,-51.01 466.31,-102.93 708.58,-62.84 219.5,36.43 432.62,113.83 657.59,122.95 230.42,9.11 455.36,-58.3 677.6,-111.12 211.31,-50.09 423.5,-67.38 635.72,-63.74 -0.9,-31.89 -2.73,-62.84 -4.54,-94.73 -78.33,-2.73 -157.56,-0.9 -235.89,4.55 -240.47,16.39 -467.24,82.9 -701.3,133.88 -118.4,25.51 -238.63,43.71 -359.77,40.07 -117.49,-2.73 -233.15,-28.22 -347.91,-54.63 -224.97,-52.82 -442.64,-103.83 -675.79,-74.69 -234.06,28.22 -460.86,108.39 -696.76,121.14 -235.89,13.66 -459.93,-59.2 -687.61,-109.31 -219.5,-48.25 -432.62,-55.53 -655.76,-17.3 -219.5,37.36 -432.62,104.74 -653.95,137.53 -241.34,36.43 -459.93,2.74 -689.45,-75.59 -213.12,-71.96 -421.7,-147.55 -649.38,-140.27 -211.31,6.38 -417.13,63.77 -618.42,121.14 -214.03,60.12 -431.69,122.96 -656.67,121.13 -228.61,-1.81 -449.01,-71.95 -668.51,-132.05 -216.76,-59.2 -436.26,-105.65 -663.03,-91.99 -225.88,12.75 -446.28,70.12 -664.87,125.68 -224.05,56.46 -449.92,112.95 -682.17,113.85 -247.72,2.74 -489.99,-54.65 -730.45,-109.28 -343.34,-78.33 -714.96,-153.93 -1061.97,-64.68 4.57,29.15 8.21,59.2 12.76,88.35 277.79,-71.05 588.37,-30.98 862.5,28.22 228.61,49.18 456.32,109.31 688.55,135.72zm9862.77 1335.19l0 0c-200.37,66.48 -390.72,161.2 -594.73,217.66 -213.12,60.13 -421.7,51.02 -637.53,5.48 -204.03,-42.81 -405.3,-104.74 -613.88,-122.94 -199.44,-17.33 -391.62,21.84 -579.24,86.51 -185.8,64.67 -365.23,147.55 -556.49,194.89 -96.53,23.7 -196.72,37.36 -296.92,32.79 -113.83,-5.45 -224.95,-32.79 -335.16,-57.36 -207.65,-45.55 -408.01,-60.11 -619.33,-30.98 -206.74,29.14 -408.92,85.63 -612.02,132.08 -204.03,48.25 -413.49,86.51 -623.9,71.02 -226.78,-15.47 -441.71,-97.43 -663.94,-136.6 -437.16,-75.59 -855.22,81.97 -1288.75,100.17 -219.49,10.02 -420.79,-38.23 -625.7,-112.02 -189.45,-68.31 -378.9,-145.71 -582,-163.04 -221.3,-19.1 -432.59,53.76 -647.55,87.45 -232.25,37.33 -459.93,-2.74 -684.9,-60.1 -340.63,-86.54 -711.32,-204.01 -1059.23,-98.37 13.66,28.22 29.15,55.56 45.54,82.87 261.4,-71.95 563.77,-8.18 818.79,59.2 214.03,55.56 428.96,117.5 652.12,122.97 215.83,6.38 419.87,-61.03 632.06,-92.92 215.86,-32.78 416.22,11.85 619.33,83.81 191.28,67.38 378.89,145.71 580.16,172.12 431.72,55.56 849.75,-115.66 1279.63,-114.76 224.07,0.93 435.36,68.32 652.12,117.5 201.3,45.54 398.93,56.46 602.94,29.15 406.2,-54.66 799.66,-225.88 1214.05,-205.85 215.86,10.02 419.89,91.09 634.82,103.84 190.35,11.85 376.16,-40.07 553.75,-104.74 184.88,-66.48 365.21,-148.45 558.3,-189.45 208.58,-44.61 415.32,-16.39 621.16,30.98 199.47,45.55 398,102.91 602.94,112.03 203.1,9.11 397.09,-44.64 585.61,-115.67 191.28,-72.88 378.89,-159.39 580.16,-200.39 148.45,-30.95 301.47,-39.16 452.66,-22.77 4.57,-29.12 9.11,-58.27 13.66,-88.32 -226.78,-22.77 -457.2,0.9 -678.53,73.76zm-10270.79 -3057.46l0 0c232.25,33.7 440.8,-3.66 657.56,-86.54 103.84,-39.16 207.68,-81.97 316.96,-103.83 113.86,-21.84 230.42,-12.73 343.37,9.11 214.03,42.81 419.87,125.7 639.36,135.72 219.5,9.09 404.38,-87.44 600.2,-171.24 222.24,-94.7 441.74,-100.17 676.7,-55.56 218.59,41.9 431.71,109.31 653.95,130.25 228.58,21.86 449.92,-27.32 667.58,-91.99 221.33,-65.58 443.57,-145.71 676.72,-156.66 238.63,-10.02 473.59,45.54 704.94,98.36 224.95,51.92 452.65,102.01 683.98,95.66 231.34,-5.48 459.03,-60.13 683.09,-112.05 226.78,-52.82 457.2,-105.64 691.29,-98.36 235.86,7.3 453.55,94.72 677.6,158.49 216.76,61 426.24,77.4 647.57,30.95 225.87,-46.44 442.63,-137.53 673.05,-158.46 252.29,-24.61 480.9,70.12 718.6,137.53 27.31,8.18 55.56,14.56 83.8,21.84 -3.64,-33.7 -9.11,-66.48 -13.65,-100.17 -171.25,-47.38 -338.83,-109.29 -513.69,-139.37 -223.14,-37.33 -438.09,7.31 -653.02,67.41 -227.71,63.75 -456.29,134.79 -694.92,102.01 -229.52,-31.89 -442.64,-129.32 -667.61,-178.5 -222.24,-49.19 -446.28,-35.53 -668.51,3.64 -232.25,41.87 -459.03,108.38 -692.19,146.61 -241.34,40.1 -476.32,30.08 -715.86,-17.29 -231.35,-46.45 -458.12,-112.03 -692.18,-138.44 -229.52,-26.41 -449.02,1.81 -669.42,63.75 -225.87,63.76 -449.01,150.28 -683.09,173.95 -235.9,24.61 -464.48,-33.69 -691.29,-87.41 -207.64,-48.28 -422.6,-93.82 -636.62,-63.77 -224.95,31.88 -410.76,165.77 -627.52,224.06 -225.87,61.01 -450.84,-11.85 -669.41,-69.21 -206.75,-54.66 -412.59,-89.28 -623.9,-32.79 -228.59,61.91 -431.69,182.14 -674.86,185.78 -252.29,4.57 -495.49,-79.23 -733.19,-153.92 -283.24,-89.25 -605.67,-172.12 -902.57,-107.48 4.55,30.98 9.09,61.03 13.66,92.01 228.61,-51.01 489.99,-8.21 707.68,55.54 234.06,68.31 463.57,155.75 705.84,190.37zm1214.96 -1656.71l0 0c185.8,42.8 367.97,106.57 559.22,128.41 189.45,21.87 371.59,-19.1 554.66,-66.48 183.07,-46.44 374.33,-96.53 561.97,-45.54 168.48,46.45 314.19,152.12 479.06,207.67 345.18,115.67 654.83,-87.44 973.62,-187.64 182.14,-57.36 361.57,-58.26 548.28,-21.84 184.88,36.43 365.21,95.63 551.92,122.95 179.43,26.41 352.48,10.94 527.34,-33.7 174.86,-45.54 343.37,-112.02 520.97,-146.64 185.8,-37.33 358.83,-18.2 532.79,58.3 158.49,70.12 310.58,157.56 486.37,176.69 360.67,39.16 688.54,-181.24 1047.38,-166.68 198.56,7.28 383.43,94.73 582.9,94.73 192.18,0 378.89,-54.66 559.23,-116.59 234.96,-80.14 489.08,-183.98 743.17,-190.35 -9.11,-30.05 -18.2,-59.2 -27.31,-88.35 -117.5,5.47 -234.99,27.34 -345.18,57.39 -186.71,51.92 -366.14,130.25 -552.85,183.98 -199.46,58.29 -396.19,81.06 -601.1,34.62 -96.56,-21.87 -191.28,-49.19 -290.55,-61.04 -88.35,-10.92 -177.6,-5.47 -265.94,7.28 -181.24,28.25 -353.39,91.99 -532.82,130.25 -188.52,40.97 -365.21,34.6 -543.71,-41.9 -163.04,-70.12 -316.05,-162.11 -494.55,-183.97 -369.78,-45.54 -702.21,171.22 -1061.97,205.84 -385.27,36.43 -741.37,-173.96 -1124.8,-160.3 -177.6,6.38 -343.37,69.22 -507.31,134.79 -159.4,63.74 -326.05,136.63 -501.84,137.53 -186.71,0.9 -342.44,-98.36 -506.38,-173.96 -163.94,-76.49 -326.07,-106.57 -506.4,-81.06 -190.35,26.41 -372.49,97.46 -562.87,122.03 -202.17,26.42 -397.09,-22.77 -590.18,-75.59 -185.78,-50.08 -369.75,-93.79 -562.84,-93.79 -63.77,0 -126.61,4.54 -190.35,13.66 -11.85,32.78 -22.77,64.67 -34.62,97.46 189.44,-29.15 384.34,-21.87 574.69,21.84zm649.4 -1581.1l0 0c152.09,54.65 297.81,131.15 457.2,162.1 153.92,30.08 310.58,20.06 464.51,-5.44 323.3,-53.75 648.45,-180.34 979.06,-114.76 319.7,63.74 607.51,250.45 942.67,232.25 331.51,-17.32 635.72,-188.54 969.97,-190.35 336.07,-2.74 653.93,132.06 984.54,175.76 156.66,20.04 311.49,16.4 465.41,-16.39 152.99,-31.88 299.64,-87.42 446.28,-141.17 147.54,-53.72 295.99,-108.38 450.82,-136.62 163.03,-30.05 318.79,-15.47 477.26,30.07 157.56,45.55 313.31,100.18 479.96,85.61 154.85,-13.65 299.66,-71.04 442.64,-131.15 94.72,-40.99 189.45,-81.97 286,-114.75 -20.06,-25.51 -41,-50.12 -62.86,-74.69 -296,105.64 -571.96,285.97 -898,211.28 -163.04,-38.23 -316.96,-103.81 -485.47,-113.82 -152.09,-8.21 -305.11,21.84 -449.92,65.57 -304.2,91.06 -597.46,248.65 -920.79,257.74 -338.8,10.01 -658.47,-124.78 -989.09,-171.22 -163.03,-23.68 -323.33,-21.87 -484.53,10.92 -165.78,33.71 -326.05,91.08 -491.82,129.34 -169.42,38.26 -336.99,45.54 -507.31,3.64 -161.2,-41 -313.29,-108.38 -471.78,-157.56 -153.93,-48.28 -309.66,-71.95 -470.86,-61.03 -163.94,11.85 -325.14,51.01 -485.44,86.54 -163.04,36.42 -328.81,71.95 -496.39,68.31 -168.48,-4.57 -320.57,-62.87 -474.49,-125.71 -148.48,-61 -300.57,-117.49 -463.6,-112.92 -34.6,0.9 -69.22,4.54 -102.91,10.02 -28.24,35.52 -54.66,71.95 -80.16,109.28 167.58,-45.54 327.88,-29.15 489.1,29.15zm7469.26 10087.74l0 0c-185.8,58.27 -371.61,128.42 -569.24,81.97 -175.79,-41 -331.52,-138.46 -502.74,-193.99 -380.7,-123.87 -766.88,30.96 -1118.43,173.03 -359.76,144.81 -767.8,282.34 -1133.01,81.06 -150.28,-82.87 -287.81,-179.43 -460.87,-205.84 -140.24,-21.84 -282.33,-2.73 -418.93,34.62 -296.93,81.07 -564.7,242.27 -863.43,319.67 -152.09,39.17 -308.75,52.83 -462.67,15.49 -172.13,-40.97 -329.69,-126.6 -491.82,-194.89 -161.2,-66.51 -326.05,-108.38 -500.93,-98.36 -172.13,10.92 -338.8,59.19 -502.74,110.18 -167.58,52.83 -336.99,111.12 -512.76,131.15 -185.8,20.97 -357.93,-17.29 -529.17,-87.41 -193.99,-80.16 -401.64,-184.91 -612.03,-204.04 4.55,31.89 8.19,62.84 11.83,93.82 159.39,20.04 325.14,89.25 456.29,146.65 161.23,71.02 325.17,137.52 502.77,147.54 167.58,9.09 334.25,-28.24 494.55,-73.78 331.52,-95.63 663.94,-239.54 1011.85,-134.8 165.78,50.09 318.77,135.7 480.9,198.56 149.35,58.27 305.11,89.25 465.41,75.6 301.47,-26.41 573.79,-173.06 851.58,-281.44 134.79,-52.82 275.96,-101.1 421.67,-113.85 159.4,-13.66 304.21,22.77 443.54,101.1 159.4,89.25 304.21,183.07 489.11,206.74 185.78,24.58 374.32,-8.21 551.92,-61.03 370.68,-110.19 721.33,-329.68 1117.52,-335.16 194.9,-2.73 361.58,70.15 536.44,146.64 161.22,71.05 324.23,126.59 502.76,104.75 132.96,-16.4 258.66,-62.84 386.15,-102.94 -0.91,-30.95 -2.71,-62.84 -3.64,-93.79 -13.66,3.64 -28.22,8.18 -41.88,12.75zm-8313.56 -1629.37l0 0c164.85,43.7 319.7,116.56 481.8,166.67 156.66,48.25 314.23,66.48 477.26,42.81 326.95,-46.47 632.06,-226.81 969.05,-204.94 334.26,21.87 628.44,219.5 960.87,255.93 331.52,35.52 654.85,-81.97 971.81,-160.3 163.01,-40.07 329.68,-71.96 499.1,-67.39 179.4,5.45 353.38,57.37 526.41,101.1 166.68,41.88 338.83,77.4 510.95,62.84 163.94,-13.65 318.76,-66.5 469.05,-128.41 154.82,-62.87 306.03,-135.72 466.31,-184.91 172.15,-51.91 351.58,-71.02 530.98,-55.55 183.97,15.49 352.48,73.78 519.16,148.47 144.81,64.65 288.71,116.57 449.01,110.19 131.15,-4.54 257.73,-38.26 385.25,-71.95 -3.64,-29.15 -7.28,-59.2 -10.93,-88.35 -33.69,9.11 -67.4,17.32 -100.19,25.51 -149.35,36.43 -306.92,63.74 -459.03,26.41 -170.32,-40.97 -321.5,-137.53 -489.08,-186.71 -346.08,-102.01 -699.47,-62.84 -1030.08,69.21 -158.47,62.84 -311.49,137.53 -473.62,189.45 -172.12,55.56 -345.18,71.95 -524.61,42.81 -178.5,-29.15 -350.62,-87.45 -528.24,-122.04 -166.65,-32.79 -332.43,-36.43 -500.91,-11.85 -338.82,49.18 -660.33,192.18 -1002.77,214.05 -173.95,10.92 -339.72,-20.06 -504.57,-74.69 -161.2,-52.82 -317.86,-120.23 -483.63,-157.56 -162.11,-36.43 -322.41,-35.53 -484.51,-0.93 -165.78,34.62 -324.24,94.72 -486.37,139.36 -168.49,45.54 -338.8,68.31 -510.95,30.95 -169.39,-35.5 -326.95,-109.28 -490.89,-163.94 -203.11,-68.28 -414.42,-88.34 -617.52,-49.18 0.93,30.98 1.83,61.94 2.73,93.82 155.76,-34.62 320.6,-32.79 478.16,9.12z"/>
   <path class="fil8" d="M10717.77 9464.77c-61.6,172.38 -113.62,347.68 -161.56,524.11 -48.56,-180.2 -61.86,-367.71 -37.88,-554.27 3.15,-24.6 -23.2,-45.31 -45.54,-45.54 -27.18,-0.28 -42.41,21.22 -45.54,45.54 -31.06,241.62 -1.42,489.21 85.41,716.82 0.05,0.1 0.12,0.15 0.15,0.25 -48.51,191.41 -92.53,384.04 -134.4,576.97 -92.97,428.2 -177.45,858.27 -253.4,1289.83 -151.93,863.43 -269.87,1732.93 -353.46,2605.65 -47.43,495.36 -83.6,991.74 -108.9,1488.72 -2.97,58.56 88.11,58.4 91.08,0 44.56,-875.28 123.23,-1748.72 236.54,-2617.78 113.23,-868.65 261.4,-1732.8 443.23,-2589.73 101.31,-477.51 207.54,-955.96 372.1,-1416.36 19.78,-55.3 -68.21,-79.1 -87.83,-24.21z"/>
   <path class="fil8" d="M9657.15 12443.48c-128.75,-423.76 -264.24,-845.46 -406.44,-1264.92 -18.72,-55.19 -106.7,-31.52 -87.83,24.22 142.2,419.45 277.69,841.15 406.47,1264.94 16.96,55.92 104.92,32.07 87.8,-24.24z"/>
   <path class="fil8" d="M18846.4 13958.8c-214.51,-158.37 -453.79,-276.3 -697.55,-382.31 -160.17,-69.65 -321.43,-136.91 -482.76,-203.9 -0.05,-0.39 0.13,-0.62 0.08,-1.01 -99.09,-788.53 -148.84,-1583.01 -147.6,-2377.74 0.34,-227.6 4.98,-455.13 13.48,-682.55 2.19,-58.63 -88.89,-58.53 -91.06,0 -5.58,148.37 -7.64,296.84 -9.71,445.32 -81.45,-173.83 -132.23,-361.11 -147.41,-553.19 -4.6,-58.06 -95.71,-58.55 -91.09,0 20.5,259.52 98.75,510.82 230.99,735.2 1.29,2.19 3.12,3.25 4.6,5.11 -2.43,583.75 21.58,1167.56 73.55,1749.09 19.13,213.74 42.31,427.07 68.65,640.04 -58.94,-24.48 -117.88,-48.9 -176.75,-73.53 -513.58,-214.85 -1027.6,-430.32 -1554.97,-609.65 -300.61,-102.21 -605.41,-192.05 -914.86,-263.52 -57.03,-13.16 -81.37,74.62 -24.21,87.84 538.62,124.36 1061.73,305.31 1575.85,506.92 520.94,204.26 1037.11,422.57 1551.9,641.81 269.59,114.84 536.2,239.97 772.89,414.7 47.2,34.83 92.69,-44.17 45.98,-78.63z"/>
   <path class="fil8" d="M18242 16092.67c-1019.09,-612.26 -2020.41,-1255.03 -2998.42,-1931.08 -261.73,-180.93 -519.34,-369.32 -740.18,-599.79 -40.61,-42.41 -104.94,22.05 -64.38,64.39 192.62,201.04 413.56,371.2 640.42,531.55 241.7,170.84 487.58,335.96 733.41,500.73 500.78,335.62 1006.9,663.27 1518.11,982.81 286.78,179.25 575.18,355.89 865.08,530.03 50.37,30.28 96.2,-48.46 45.96,-78.64z"/>
   <path class="fil8" d="M16704.43 7638.48c-143.73,288.1 -382.33,510.69 -643.4,692.86 -276.86,193.19 -579.62,357.39 -902.2,459.67 -318.8,101.08 -658.42,138.46 -988.78,75.88 -320.34,-60.64 -625.5,-206.02 -863.53,-430.42 -254.38,-239.82 -426.14,-558.17 -480.75,-903.79 -9.11,-57.72 -96.89,-33.22 -87.83,24.22 105.24,665.83 626.02,1192.6 1268.46,1365.86 700.24,188.85 1413.41,-62.56 2000.62,-445.43 312.03,-203.44 607.12,-454.3 776.04,-792.87 26.11,-52.3 -52.43,-98.49 -78.63,-45.98z"/>
   <path class="fil9" d="M18408.83 19129.6c-142.36,88.45 -288.69,170.08 -437.76,246.22 -36.14,-852.62 -108.85,-1703.5 -222.78,-2549.3 -36.89,-273.79 -77.91,-547.01 -122.81,-819.57 -9.5,-57.7 -97.28,-33.22 -87.8,24.19 158.31,961.13 266.27,1930.33 322.74,2902.79 9.39,161.92 16.91,323.95 23.46,486.01 -323.1,158.39 -660.14,287.83 -1007.33,384.57 -547.28,152.48 -1116.54,239.4 -1679.46,311.12 -1082.08,137.84 -2188.74,172.21 -3268.49,-4.69 -605,-99.14 -1199.73,-265.33 -1761.77,-511.39 -53.18,-23.29 -99.6,55.17 -45.98,78.64 1012.14,443.12 2114.07,627.64 3214.51,642.59 557.62,7.56 1115.35,-26.96 1669.18,-90.72 567.8,-65.37 1139.42,-150.11 1695.08,-285.36 409.98,-99.79 808.13,-243.41 1187.8,-426.06 3,81.09 6.38,162.15 8.7,243.25 1.65,58.5 92.74,58.73 91.06,0 -2.71,-95.5 -8.24,-190.92 -11.95,-286.39 163.57,-82 323.92,-170.58 479.55,-267.29 49.7,-30.85 4.03,-109.67 -45.95,-78.61z"/>
   <path class="fil8" d="M16469.72 18091.82c-854.55,-146.77 -1656.92,-514.64 -2358.14,-1020.01 -721.41,-519.93 -1329.33,-1185.17 -1835.14,-1913.65 -288.51,-415.53 -545.08,-852.48 -777.39,-1301.68 -26.92,-52.07 -105.54,-6.07 -78.64,45.98 415.87,804.16 912.13,1571.65 1523.3,2241.97 595.11,652.76 1302.81,1209.12 2103.4,1587.73 444.14,210.08 913.88,364.26 1398.39,447.49 57.34,9.86 81.97,-77.91 24.22,-87.83z"/>
   <path class="fil9" d="M14677.33 18361.82c-900.76,17.01 -1798.47,-248.88 -2549.19,-746.17 -214.46,-142.07 -415.45,-302.97 -601.57,-480.54 -42.39,-40.45 -106.9,23.86 -64.38,64.42 667.19,636.52 1530.8,1059.1 2441.76,1200.58 255.88,39.75 514.49,57.7 773.38,52.79 58.56,-1.08 58.74,-92.17 0,-91.08z"/>
   <path class="fil1" d="M14884.72 12412.42c63.8,201.12 60.03,427.46 -6.68,627.64 -66.69,200.16 -198.12,378.17 -369.76,500.86 -321.45,-108.72 -587.93,-368.23 -703.54,-687.28 -66.92,83.36 -164.48,143.59 -269.4,163.99 -6.51,40.69 0.18,80.39 -6.3,121.08 69.88,-1.13 152.14,34.52 197.73,87.5 45.62,52.97 66.2,126.63 54.68,195.56 -8.62,51.58 -60.54,77.3 -111.32,89.87 -85.33,-24.27 -164.95,-60.05 -242.76,-102.65 -77.82,-42.62 -147.68,-105.46 -182.04,-187.25 -32.84,-78.25 -37.77,-178.19 -37.98,-263.05 -17.06,66.45 -47.76,126.24 -64.82,192.67 -16.53,64.29 18.17,134.69 -10.02,194.77 -28.22,60.07 -89.23,108.33 -155.52,105.07 -69.89,-3.43 -127.13,-62.45 -150.65,-128.36 -23.52,-65.91 -20.29,-137.94 -16.78,-207.83 3.33,-66.38 1.65,-141.37 3.46,-207.78 26.1,54.68 -44.46,134.33 -104.15,144.79 -59.68,10.45 -120.02,-26.13 -154.1,-76.24 -34.08,-50.11 -46.73,-111.48 -55.51,-171.43 -35.31,-241.1 -19.69,-488.36 32.95,-726.29 34.49,-155.88 243.69,-212.65 398.69,-250.92 -96.19,-113.31 -177.18,-250.78 -224.5,-391.69 -155.5,-67.28 -277.15,-196.34 -344.77,-351.69 -156.42,-38.59 -294.34,-142.51 -377.37,-280.6 -19.93,-33.15 -37.07,-69.53 -38.26,-108.2 -1.16,-38.65 16.94,-79.96 51.84,-96.66 37.1,-17.74 80.91,-4.24 119.51,9.94 1029.93,378.48 1932.96,1091.63 2767.37,1804.18z"/>
   <path class="fil5" d="M13463.9 12256.85c-119.74,68.8 -239.17,148.11 -278.36,288.66 -21.2,75.9 -24.86,158.52 -27.55,236.87 -3.02,88.79 0.72,177.5 10.25,265.79 6.22,57.65 97.36,58.3 91.08,0 -15.87,-147.26 -23.34,-307.97 7.98,-453.76 28.06,-130.56 134.12,-196.63 242.58,-258.92 50.81,-29.2 4.98,-107.92 -45.98,-78.64z"/>
   <path class="fil5" d="M13095.82 12058.42c-70.92,29.76 -142.02,60.18 -201.01,110.8 -62.68,53.75 -97.15,128.99 -109.75,209.59 -13.84,88.42 -12.7,179.27 -14.22,268.52 -1.73,101.41 -1.6,202.82 0.12,304.23 1.01,58.53 92.07,58.74 91.09,0 -2.84,-167.96 -6.02,-338.2 6.43,-505.83 5.24,-70.82 20.65,-142.72 72.16,-194.9 48.95,-49.57 116.17,-78.07 179.4,-104.58 53.26,-22.34 29.87,-110.53 -24.22,-87.83z"/>
   <path class="fil5" d="M13247.73 11742.36c-6.97,-25.35 -31.75,-36.38 -56,-31.81 -170.8,32.2 -336.27,84.53 -495.4,154.21 -22.54,9.86 -27.73,42.83 -16.34,62.3 13.6,23.26 39.68,26.25 62.32,16.34 151.6,-66.38 311.04,-114.4 473.61,-145.02 24.2,-4.57 37.96,-33.71 31.81,-56.02z"/>
   <path class="fil10" d="M9452.11 9730.55l-1372.42 0c-162.7,0 -327.21,-131.87 -367.48,-294.57l-801.78 -3240.04c-40.27,-162.67 58.99,-294.57 221.67,-294.57l1372.44 0c162.67,0 327.21,131.9 367.46,294.57l801.8 3240.04c40.25,162.7 -58.99,294.57 -221.69,294.57z"/>
   <path class="fil11" d="M8322.04 6364.3c24.52,99.14 124.77,179.51 223.91,179.51 99.14,0 159.6,-80.37 135.08,-179.51 -24.53,-99.14 -124.78,-179.48 -223.92,-179.48 -99.13,0 -159.6,80.34 -135.07,179.48z"/>
   <path class="fil11" d="M7932.87 6364.3c17.17,69.34 87.29,125.55 156.61,125.55 69.34,0 111.63,-56.21 94.49,-125.55 -17.17,-69.35 -87.26,-125.55 -156.61,-125.55 -69.34,0 -111.66,56.2 -94.49,125.55z"/>
   <path class="fil1" d="M8859.76 9730.63c-18.23,141.17 -57.39,279.63 -126.61,408.95 -330.61,247.74 -815.15,314.22 -1215.89,213.12 -317.86,-555.56 -704.03,-1165.78 -821.5,-1696.76 279.6,-11.85 561.03,4.54 836.09,51.89l180.33 727.71c40.07,163.04 204.92,295.09 367.95,295.09l779.63 0z"/>
   <path class="fil1" d="M8397.84 8465.41c-65.32,-30.26 -137.48,-18.08 -204.86,-2.4 -88.48,20.6 -176.7,42.31 -265.04,63.48 -41.1,9.86 -82.2,19.7 -123.3,29.56 36.48,-15.33 72.98,-30.67 109.49,-46.01 101.28,-42.54 202.56,-85.04 303.81,-127.64 74.2,-31.21 151.94,-61.88 209.15,-120.79 49.13,-50.66 83.34,-122.2 71.49,-194.02 -11.8,-71.26 -66.2,-117.68 -139.03,-111.58 -94.98,7.97 -193.11,41.9 -284.81,67.07 -35.79,9.81 -70.9,22 -106.48,32.61 30.55,-14.36 60.93,-29.02 91.53,-43.27 86.17,-40.1 182.14,-73.17 261.68,-125.58 59.41,-39.16 106.5,-101.51 102.03,-175.86 -4.23,-70.69 -62.92,-121.06 -128.96,-135.34 -87.31,-18.9 -183.02,20.58 -266.15,43.14 -94.64,25.72 -189.11,52.23 -282.82,81.17 -59.2,18.28 -117.96,37.95 -176.36,58.63 87.98,-73.14 168.64,-157.22 270.49,-211.36 103.11,-54.81 211.15,-64.96 285.48,-164.43 62.69,-83.91 82.54,-193.04 53.96,-293.57 -6.92,-24.24 -31.88,-37.54 -56.02,-31.78 -235.82,56.2 -464.87,137.97 -682.77,244.28 -103.16,50.37 -208.08,104.2 -302.32,170.11 -96.71,67.64 -149.68,154.57 -197.65,260.5 -100.97,223.01 -204.99,450.66 -249.84,692.88 -21.42,115.74 -10.55,218.31 38.58,325.58 42.83,93.56 104.53,179.51 178.16,251.28 137.14,133.68 397.71,275.21 553.65,109.72 161.77,-50.62 323.54,-101.23 485.31,-151.85 149.1,-46.66 321.3,-87.89 448.73,-182.48 105.8,-78.56 144.53,-246.4 2.87,-312.05z"/>
   <path class="fil5" d="M7694.24 9035.22c-6.04,-21.92 -32.97,-40.72 -56.02,-31.83 -138.64,53.44 -281.18,95.78 -426.48,126.71 -24.06,5.11 -38.05,33.3 -31.8,56.02 6.84,24.89 31.88,36.92 56.02,31.78 145.3,-30.9 287.84,-73.24 426.45,-126.68 22.95,-8.83 38.8,-30.62 31.83,-56z"/>
   <path class="fil5" d="M7823.17 8499.98c-215.49,82.35 -431.61,163.11 -648.32,242.29 -54.6,19.96 -31.01,108.02 24.24,87.83 216.69,-79.18 432.8,-159.94 648.3,-242.29 54.19,-20.73 30.67,-108.8 -24.22,-87.83z"/>
   <path class="fil5" d="M7964.65 8026.46c-151.21,41.28 -305.86,76.58 -454.54,126.27 -143.98,48.15 -273.38,133.63 -403.99,209.2 -50.7,29.36 -4.9,108.1 45.99,78.67 127.89,-74.02 254.84,-159.48 396.52,-204.68 144.78,-46.22 293.65,-81.61 440.24,-121.63 56.46,-15.44 32.48,-103.32 -24.22,-87.83z"/>
   <path class="fil5" d="M7616.48 7744.38c-5.94,-21.68 -33.05,-41.02 -56.02,-31.8 -196.37,78.74 -429.68,111.32 -570.95,285.17 -15.49,19.08 -18.67,45.75 0,64.42 16,16 48.79,19.18 64.39,0 130.63,-160.79 349.12,-188.93 530.77,-261.79 22.82,-9.14 38.86,-30.39 31.81,-56z"/>
   <path class="fil12" d="M18518.5 18921.25c-0.91,-30.95 -2.71,-62.84 -3.64,-93.79 -25.48,-536.46 -71.95,-1069.25 -138.43,-1602.06 -3.64,-29.15 -7.28,-59.2 -10.93,-88.35 -29.14,-229.52 -61.03,-458.1 -96.55,-686.71 -472.69,355.19 -985.44,657.56 -1523.71,903.47 -624.8,286 -1284.2,494.56 -1958.18,622.97 -657.57,125.7 -1331.55,177.62 -1999.13,141.17 -627.54,-34.6 -1254.15,-148.45 -1845.24,-364.31 -453.55,-165.74 -885.27,-395.26 -1265.07,-693.09 0,15.49 0.91,31.89 0.91,47.35 0.93,30.98 1.83,61.94 2.73,93.82 14.59,534.62 51.92,1070.15 112.95,1601.13 4.55,31.89 8.19,62.84 11.83,93.82 45.54,380.7 103.83,759.6 175.79,1133.92 972.71,571.96 2144.87,666.68 3272.41,713.13 914.42,37.35 1835.21,51.01 2740.52,-81.04 906.21,-132.09 1784.2,-413.52 2541.06,-929.01 0,-272.32 -5.47,-542.81 -17.32,-812.42z"/>
   <g>
    <path class="fil0" d="M7484.3 4623.03l1471.68 0c518.85,0 943.36,-424.51 943.36,-943.36 0,-518.85 -424.51,-943.36 -943.36,-943.36l-1471.68 0c-518.85,0 -943.37,424.51 -943.37,943.36 0,518.85 424.52,943.36 943.37,943.36z"/>
    <polygon class="fil0" points="8955.98,4623.03 8500.93,5205 8500.93,4623.03 "/>
   </g>
  </g>
 </g>
</svg>
