<?xml version="1.0" encoding="UTF-8"?>
<!DOCTYPE svg PUBLIC "-//W3C//DTD SVG 1.0//EN" "http://www.w3.org/TR/2001/REC-SVG-20010904/DTD/svg10.dtd">
<!-- Creator: CorelDRAW 2021 (64 Bit) -->
<svg xmlns="http://www.w3.org/2000/svg" xml:space="preserve" width="297mm" height="210mm" version="1.0" style="shape-rendering:geometricPrecision; text-rendering:geometricPrecision; image-rendering:optimizeQuality; fill-rule:evenodd; clip-rule:evenodd"
viewBox="0 0 29700 21000"
 xmlns:xlink="http://www.w3.org/1999/xlink"
 xmlns:xodm="http://www.corel.com/coreldraw/odm/2003">
 <defs>
  <style type="text/css">
   <![CDATA[
    .str0 {stroke:#24262A;stroke-width:35.28;stroke-linecap:round;stroke-linejoin:round;stroke-miterlimit:10}
    .fil8 {fill:none;fill-rule:nonzero}
    .fil11 {fill:#4F2626;fill-rule:nonzero}
    .fil1 {fill:#663A3A;fill-rule:nonzero}
    .fil6 {fill:#AE2F2F;fill-rule:nonzero}
    .fil10 {fill:#BA644F;fill-rule:nonzero}
    .fil5 {fill:#D47E6B;fill-rule:nonzero}
    .fil7 {fill:#D87B7B;fill-rule:nonzero}
    .fil4 {fill:#DBBC7E;fill-rule:nonzero}
    .fil0 {fill:#EFEDEF;fill-rule:nonzero}
    .fil2 {fill:#F4DAA7;fill-rule:nonzero}
    .fil3 {fill:#FFEFCF;fill-rule:nonzero}
    .fil9 {fill:white;fill-rule:nonzero}
    .fil12 {fill:#52283F;fill-rule:nonzero;fill-opacity:0.149020}
   ]]>
  </style>
 </defs>
 <g id="Camada_x0020_1">
  <metadata id="CorelCorpID_0Corel-Layer"/>
  <g id="_2555913384208">
   <path class="fil0" d="M16837.92 1909.73c1285.66,-727.3 2959.76,-820.5 4229.27,-65.35 1269.52,755.12 1994.82,2405.68 1519.71,3804.31 -432.01,1271.71 -1708.41,2177.52 -1928.45,3502.44 -233.8,1407.66 803.99,2697.35 1048.52,4103.19 273.79,1574.14 -515.74,3212.1 -1753.27,4222.75 -1237.53,1010.65 -2857.07,1458.47 -4452.13,1551.41 -1638.46,95.5 -3315.91,-166.2 -4784.17,-899.61 -1468.26,-733.42 -2713.59,-1958.89 -3333.2,-3478.67 -619.58,-1519.81 -568.06,-3330.45 264.86,-4744.64 667.07,-1132.62 1765.46,-1944.9 2904.77,-2600.47 1080.89,-621.98 2257.31,-1113.62 3286.04,-1823.19 353.39,-243.74 471.16,-542.73 650.34,-925.25 239.18,-510.57 536.3,-993.28 898.9,-1425.79 407.96,-486.62 895.26,-908.01 1448.81,-1221.13z"/>
   <g>
    <path class="fil1" d="M12392.32 8311.88c-150.16,-649.6 254.76,-1293.87 303.22,-1958.83 73.82,-1012.33 -674.42,-1910.67 -781.65,-2919.99 -50.12,-471.8 46.24,-958.13 272.49,-1375.16 131.33,-242.11 310.69,-465.47 549.03,-603.54 238.36,-138.09 555.12,-215.79 806.52,-103.25 86.06,-331.49 331.23,-609.02 630.37,-775.76 299.11,-166.71 647.94,-229.82 990.37,-225.4 998.3,12.83 1965.82,624.27 2405.83,1520.47 435.68,887.33 357.12,1939.65 143.19,2904.74 -137.3,619.43 -326.68,1259.85 -177.73,1876.55 76.27,315.64 237.57,603.95 338.27,912.65 100.7,308.73 133.96,666.13 -36.19,942.7 -637.16,24.13 -1283.31,24.36 -1920.47,48.51 -1201.33,45.53 -2349.54,16.46 -3523.25,-243.69z"/>
    <g>
     <path class="fil2" d="M18317.48 18434.41c79.19,401.32 167.37,801.72 263.66,1201.26 -584.89,556.07 -1382.13,765.73 -2180.25,885.41 -861.13,129.57 -1738.46,194.36 -2604.97,95.39 -865.64,-98.09 -1722.26,-364.43 -2443.91,-853.04 114.27,-388.72 219.56,-781.93 314.03,-1178.76 8.11,-29.69 14.41,-58.49 21.61,-88.18 150.26,-634.37 274.45,-1277.73 369.82,-1922.89 4.49,-28.8 9,-58.51 13.49,-87.28 27.9,-192.58 53.11,-385.13 74.68,-578.59 52.19,-448.1 89.1,-897.12 110.68,-1345.22 1.81,-29.69 2.7,-60.3 4.51,-89.99l0 -6.3c-269.04,-293.35 -481.41,-689.27 -607.39,-1066.28 -583.08,40.48 -1157.15,-147.58 -1644.87,-470.6 29.72,-215.96 66.6,-434.63 109.78,-653.27 5.41,-28.8 10.82,-58.49 18.01,-88.18 115.16,-575.88 274.45,-1153.56 475.11,-1709.65 9.9,-27.91 19.8,-56.7 30.59,-84.58 114.26,-311.34 241.13,-615.48 379.71,-907.94 93.59,-197.03 193.47,-393.21 312.25,-575.86 18.88,-30.61 38.7,-60.3 59.38,-89.99 87.29,-125.97 184.47,-244.76 296.03,-351.83 295.14,-282.54 715.36,-506.59 1119.39,-451.7 32.39,260.04 73.79,533.6 143.95,796.34 7.22,30.58 16.2,60.27 25.21,89.96 57.59,196.17 133.17,386.05 234.86,555.21 331.13,551.58 944.79,915.1 1585.47,963.69 640.67,49.5 1293.95,-210.56 1742.94,-669.45 241.16,-246.55 426.52,-549.8 545.28,-876.43 10.81,-30.59 21.6,-61.19 30.61,-92.67 82.76,-255.55 124.16,-522.81 120.57,-788.25 449.01,0 912.42,169.16 1228.24,489.49 69.3,70.2 127.79,148.48 179.08,232.16 18.88,27.91 35.07,56.68 51.27,86.39 50.4,89.97 94.5,182.66 136.79,276.24 173.65,378.83 332.91,764.84 476.01,1156.27 9.89,28.79 20.68,56.67 30.58,85.47 201.55,560.58 371.63,1131.98 509.29,1711.47 7.19,29.69 14.41,59.38 20.71,88.17 65.68,284.35 124.17,569.59 173.65,856.62 -540.79,214.15 -1119.36,376.12 -1698.84,433.71 -82.8,328.45 -233.95,640.68 -435.53,913.32 -23.39,32.39 -46.78,63 -72.87,93.58 -8.11,10.79 -17.09,22.5 -26.09,33.29 36.88,608.28 91.77,1212.96 164.67,1815.84 3.59,29.69 7.19,59.38 10.79,89.07 63.89,521.89 142.17,1041.99 234.84,1560.28 26.12,143.07 52.21,287.06 80.09,430.12 5.4,28.8 11.7,58.49 17.09,88.18z"/>
     <g>
      <path class="fil3" d="M12952.77 8812.68c7.22,30.58 16.2,60.27 25.21,89.96 -547.99,1.81 -1095.97,4.52 -1643.96,7.22 18.88,-30.61 38.7,-60.3 59.38,-89.99 521,-2.7 1039.3,-4.49 1559.37,-7.19z"/>
      <path class="fil3" d="M18696.3 8802.78c-350.92,24.29 -701.84,43.19 -1052.78,55.79 -185.36,7.19 -371.61,12.6 -556.99,17.09 10.81,-30.59 21.6,-61.19 30.61,-92.67 509.29,-12.6 1018.58,-34.2 1527.89,-66.6 18.88,27.91 35.07,56.68 51.27,86.39z"/>
      <path class="fil3" d="M19339.68 10320.76c-504.8,93.58 -1013.2,162.88 -1524.3,212.37 -1221.95,120.57 -2451.98,135.87 -3679.33,134.06 -1172.46,-1.79 -2367.42,31.5 -3524.58,-188.95 9.9,-27.91 19.8,-56.7 30.59,-84.58 627.18,117.86 1265.15,157.45 1902.2,171.86 610.99,13.49 1221.95,11.68 1832.04,11.68 603.77,-0.89 1207.56,-6.3 1810.43,-27.88 1046.49,-38.69 2092.97,-125.08 3122.37,-314.03 9.89,28.79 20.68,56.67 30.58,85.47z"/>
      <path class="fil3" d="M19869.68 12120.4c-539,104.38 -1085.18,167.35 -1632.27,211.45 -1386.61,110.68 -2781.34,145.77 -4172.45,133.17 -1317.33,-11.68 -2634.67,-74.68 -3946.61,-188.95 5.41,-28.8 10.82,-58.49 18.01,-88.18 690.16,60.28 1383.02,105.27 2075.88,136.77 1390.21,62.98 2783.13,69.28 4174.23,18.9 689.27,-24.31 1380.32,-58.49 2066.88,-120.6 467.92,-42.29 934.92,-100.77 1395.62,-190.73 7.19,29.69 14.41,59.38 20.71,88.17z"/>
      <path class="fil3" d="M17908.96 14324.05c-23.39,32.39 -46.78,63 -72.87,93.58 -190.76,9.9 -381.53,18.9 -572.29,27.9 -943.9,44.08 -1888.71,75.58 -2834.42,94.48 -723.45,14.39 -1447.81,22.5 -2173.06,22.5 1.81,-29.69 2.7,-60.3 4.51,-89.99 307.74,0 616.37,-1.81 924.11,-4.49 945.7,-8.11 1891.41,-28.8 2836.23,-62.11 628.97,-21.58 1258.83,-48.59 1887.79,-81.87z"/>
      <path class="fil3" d="M17985.46 16355.83c-253.74,20.71 -507.51,39.61 -761.25,59.4 -508.39,39.59 -1016.79,79.17 -1525.19,118.76 -507.48,38.69 -1014.98,84.58 -1522.49,114.29 -508.4,28.78 -1011.39,6.3 -1517.97,-30.6 -200.66,-14.39 -400.43,-28.8 -601.09,-44.08 4.49,-28.8 9,-58.51 13.49,-87.28 262.74,18.87 525.49,37.77 788.23,55.78 507.51,35.1 1010.5,37.78 1518,2.7 508.4,-35.09 1015.9,-77.38 1523.38,-116.97 691.08,-53.1 1383.02,-107.1 2074.1,-161.07 3.59,29.69 7.19,59.38 10.79,89.07z"/>
      <path class="fil3" d="M18317.48 18434.41c-278.03,50.4 -557.88,94.48 -837.72,133.17 -1061.79,147.58 -2133.47,215.96 -3205.16,204.26 -872.81,-9.9 -1743.83,-71.98 -2608.56,-187.17 8.11,-29.69 14.41,-58.49 21.61,-88.18 397.72,54 797.23,95.4 1197.66,125.98 1060.87,80.09 2128.04,80.98 3188.94,3.6 746.86,-54 1490.09,-147.56 2226.14,-279.84 5.4,28.8 11.7,58.49 17.09,88.18z"/>
     </g>
     <g>
      <path class="fil4" d="M12088.53 9890.46c-14.71,-55.93 -101.51,-32.21 -86.74,23.93 121.82,463.04 -62.16,924.64 -222.09,1353.61 -158.22,424.4 -281.59,864.06 -294.98,1319.58 -7.3,249.05 20.22,498.73 89.14,738.42 15.97,55.55 102.85,31.93 86.78,-23.93 -127.33,-442.77 -102.23,-909.97 1.14,-1354.93 51.94,-223.44 124.65,-440.45 204.69,-655.22 81.09,-217.57 166.18,-434.99 216.99,-662.12 54.43,-243.31 68.99,-496.44 5.07,-739.34z"/>
      <path class="fil4" d="M18521.68 11979.73c-49.23,-225.93 -121.08,-446.26 -199.71,-663.5 -77.21,-213.26 -163.14,-425.88 -200.44,-650.75 -38.51,-232.26 -14.46,-480.9 122.33,-678.22 33.09,-47.72 -44.89,-92.74 -77.69,-45.43 -251.42,362.76 -139.93,821.06 -2.19,1203.46 158.73,440.8 323.12,885.92 334.24,1360.11 5.94,253.99 -32.55,506.64 -130.27,741.94 -22.19,53.41 64.84,76.72 86.75,23.92 169.98,-409.18 159.95,-864.98 66.98,-1291.53z"/>
      <path class="fil4" d="M16389.76 14781.61c-140.74,375 -350.53,718.77 -579.12,1046.02 -212.63,304.37 -441.01,597.7 -684.27,878.2 -483.58,557.6 -1026.56,1065.71 -1624.67,1498.87 -334.11,242 -685.08,460.29 -1050.46,651.84 -51.32,26.91 -5.87,104.61 45.4,77.7 660.34,-346.18 1272.22,-780.74 1825.99,-1279.47 555.03,-499.85 1051.23,-1063.7 1486.71,-1670.22 264.09,-367.88 507.42,-753.31 667.2,-1179.02 20.38,-54.27 -66.57,-77.71 -86.78,-23.92z"/>
      <path class="fil4" d="M17391.33 16917.33c-668.25,774.4 -1576.18,1288.59 -2520.87,1652.09 -279.45,107.51 -563.34,203.08 -849.24,291.89 -55.14,17.12 -31.6,104.02 23.93,86.78 997.87,-309.99 1985.66,-713.27 2802.79,-1379.07 218.79,-178.29 422.59,-374.33 607.01,-588.05 37.67,-43.65 -25.72,-107.56 -63.62,-63.64z"/>
      <path class="fil4" d="M17800.25 8220.01c-254.22,1021.64 -805.47,2079.27 -1829.69,2501.92 -479.88,198 -1020.57,234.35 -1526.13,122.68 -247.95,-54.78 -487.79,-144.29 -709.44,-268.35 -252.83,-141.46 -462.31,-326.95 -634.1,-560.13 -366.53,-497.6 -598.28,-1091.88 -668.19,-1705.72 -6.48,-56.88 -96.55,-57.55 -89.99,0 64.4,565.25 257.69,1113.05 568.85,1589.97 156.48,239.89 338.62,459.63 573.97,625.76 223.54,157.78 477.38,275.44 739.03,354.18 508.07,152.94 1064.36,158.32 1571.79,-0.15 507.41,-158.47 944.28,-485.47 1277.65,-895.49 409.61,-503.75 657.41,-1115.37 813.03,-1740.77 13.97,-56.19 -72.77,-80.17 -86.78,-23.9z"/>
     </g>
    </g>
    <g>
     <path class="fil5" d="M13271.63 2743.69c41.94,559.05 83.89,1118.13 125.83,1677.19 27.54,367.37 55.52,737.29 151.02,1093.08 95.5,355.82 263.74,700.67 534.16,950.86 254.28,235.28 594.1,376.58 940.35,388.85 346.23,12.27 695.87,-105.01 963.39,-325.18 263.23,-216.68 441.39,-523.3 550.81,-846.18 109.45,-322.92 154.6,-663.79 188.19,-1003.08 64.33,-649.73 88.53,-1303.46 72.41,-1956.17 -510.13,-361.02 -1133.66,-564.21 -1758.6,-566.28 -624.96,-2.04 -1255.05,229.23 -1767.56,586.91z"/>
     <path class="fil5" d="M17237.71 7994.74c9,642.48 -246.55,1297.54 -696.46,1757.35 -448.99,458.89 -1102.27,718.95 -1742.94,669.45 -640.68,-48.59 -1254.34,-412.11 -1585.47,-963.69 -251.95,-419.33 -342.83,-955.61 -404.02,-1441.51 351.83,-66.6 684.75,-139.47 1025.79,-249.25 69.28,-213.26 124.17,-431.9 163.76,-653.28 38.69,-218.64 62.08,-440.01 71.08,-662.25 4.49,4.49 9.01,9 13.5,13.49 253.76,234.84 593.89,376.12 940.32,388.72 339.22,12.6 682.05,-100.77 947.5,-314.03 5.4,-3.6 9.89,-7.2 15.3,-11.71 37.78,-30.58 73.79,-63.87 107.08,-98.07 31.5,440.9 109.78,878.21 232.13,1302.92 296.06,108 602.9,203.37 912.43,261.86z"/>
     <path class="fil5" d="M16629.3 5031.12c126.51,47.67 273.84,15.77 385.43,-60.6 111.59,-76.34 191.07,-192.09 248.25,-314.6 91.04,-194.97 131.16,-413.44 115.32,-628.02 -7.91,-107.59 -34.54,-222.83 -116.98,-292.44 -104.88,-88.58 -269.63,-70.83 -383.46,5.92 -113.84,76.73 -187.4,199.18 -252.41,320.08l3.85 969.66z"/>
     <path class="fil5" d="M13491.4 5064.31c-236.37,35.5 -473.12,-117.69 -589.51,-326.46 -116.36,-208.77 -130.26,-460.7 -99.76,-697.76 10.18,-79.12 25.46,-159.09 62.93,-229.51 37.47,-70.42 100.24,-130.87 177.91,-149.14 80.8,-19.02 166.99,9.98 234.17,58.75 67.21,48.76 118.71,115.64 168.68,181.96l45.58 1162.16z"/>
    </g>
    <g>
     <path class="fil5" d="M19742.15 14427.83c-978.03,-901.2 -2043.44,-1546 -3199.63,-2351.94 -296.69,-346.15 -607.23,-737.98 -1055.97,-818.45 -424.17,-76.04 -872.71,-17.42 -1264.77,161.48 -2.35,467.92 130.67,935.12 396.83,1319.99 421.06,121.72 854.14,201.84 1290.89,238.82 930.53,1221.74 1955.29,2181.07 3063.98,3243.78 470.55,-538.91 712.45,-1080.49 768.67,-1793.68z"/>
     <path class="fil5" d="M20274.6 15891.53c-115.19,219.56 -338.35,368.03 -575.89,440.91 -44.1,14.41 -89.09,25.2 -134.09,35.09 -343.73,73.79 -687.45,-121.49 -804.43,-452.61 -253.73,-722.55 -420.22,-1481.09 -496.69,-2242.34l0 -2.7c31.51,-84.58 58.49,-170.97 80.99,-259.15 485.9,-48.59 970.91,-170.05 1433.39,-334.72 63,63.89 110.68,143.06 140.39,232.13 198.85,609.2 376.12,1225.57 440.02,1860.84 25.17,244.73 29.69,503.88 -83.69,722.55z"/>
    </g>
    <path class="fil6" d="M15441.53 13318.47l-1173.25 0c-129.22,0 -233.95,-104.73 -233.95,-233.92l0 -2839.01c0,-129.22 104.73,-233.97 233.95,-233.97l1173.25 0c129.19,0 233.95,104.75 233.95,233.97l0 2839.01c0,129.19 -104.76,233.92 -233.95,233.92z"/>
    <g>
     <path class="fil5" d="M10353.55 14427.83c978.03,-901.2 2043.46,-1546 3199.65,-2351.94 296.69,-346.15 607.21,-737.98 1055.97,-818.45 424.18,-76.04 872.71,-17.42 1264.75,161.48 2.37,467.92 -130.67,935.12 -396.83,1319.99 -421.07,121.72 -854.12,201.84 -1290.87,238.82 -930.55,1221.74 -1955.31,2181.07 -3064,3243.78 -470.52,-538.91 -712.45,-1080.49 -768.67,-1793.68z"/>
     <path class="fil5" d="M11819.01 13802.16c-81.88,717.14 -243.85,1430.71 -484.09,2112.76 -116.08,331.12 -459.81,526.4 -803.54,452.61 -45.88,-9.89 -89.99,-20.68 -134.09,-35.09 -237.54,-72.88 -461.59,-221.35 -575.86,-440.91 -114.29,-218.67 -108.89,-477.82 -84.58,-722.55 64.79,-635.27 242.03,-1251.64 440.91,-1860.84 26.09,-79.17 66.57,-149.36 118.76,-209.64 419.33,216.86 885.43,333.83 1356.92,301.44 45,134.06 99.89,269.94 165.57,402.22z"/>
    </g>
    <g>
     <path class="fil7" d="M15191.97 10375.11c0,79.12 64.15,143.27 143.3,143.27 79.12,0 143.27,-64.15 143.27,-143.27 0,-79.14 -64.15,-143.29 -143.27,-143.29 -79.15,0 -143.3,64.15 -143.3,143.29z"/>
     <path class="fil7" d="M15249.72 10700.42c0,47.24 38.31,85.55 85.55,85.55 47.24,0 85.55,-38.31 85.55,-85.55 0,-47.23 -38.31,-85.54 -85.55,-85.54 -47.24,0 -85.55,38.31 -85.55,85.54z"/>
    </g>
    <path class="fil1" d="M16989.35 3199.62c-34.18,198.85 -104.38,400.43 -175.46,592.98 -10.79,10.79 -20.69,20.68 -30.58,31.5 -16.2,-304.14 -76.5,-621.77 -287.06,-839.52 -206.04,-213.27 -519.18,-289.76 -815.21,-291.55 -296.95,-2.7 -590.3,58.49 -886.33,75.58 -296.03,16.2 -619.07,-62.08 -862.02,-232.16 -36.91,468.81 -248.36,921.43 -580.38,1252.55 -22.5,-25.2 -47.7,-48.59 -75.6,-68.38 -20.69,-15.3 -44.08,-28.8 -68.38,-39.59 -73.79,-194.36 -153.86,-387.82 -174.57,-592.08 -26.09,-268.15 9,-549.8 149.37,-780.15 206.06,-339.23 603.79,-513.8 990.7,-601.98 536.3,-122.38 1100.48,-120.57 1634.97,7.2 233.95,55.8 464.3,135.87 666.77,266.36 201.55,130.47 374.31,314.01 463.4,538.09 84.58,214.15 89.07,453.51 50.38,681.15z"/>
    <g>
     <path class="fil8 str0" d="M15138.97 3805.28c6.56,242.92 13.14,485.85 19.72,728.77 -83.15,-38.31 -190.71,-13.65 -248.84,57.11 -58.13,70.73 -61.48,181.05 -7.78,255.17 53.71,74.15 159.59,105.34 244.91,72.13"/>
     <path class="fil8 str0" d="M16009.69 3847.21c-121.36,51.5 -215.22,163.55 -244.68,292.05 127.07,-92.95 304.11,-112.64 448.5,-49.89"/>
     <path class="fil8 str0" d="M14288.61 3864.5c77.05,73.38 137.43,164.16 175.3,263.59 -159.26,-62.42 -343.52,-58.03 -499.62,11.91"/>
     <path class="fil8 str0" d="M16429.99 3701.82c-40.63,-192.8 -218.39,-348.09 -414.89,-362.45 -196.51,-14.36 -394.97,113.43 -463.18,298.25"/>
     <path class="fil8 str0" d="M14566.58 3724.83c-13.32,-135.85 -98.48,-262.54 -219.26,-326.13 -120.75,-63.59 -273.43,-62.13 -392.95,3.75 -119.53,65.88 -202.27,194.21 -213.01,330.26"/>
    </g>
    <path class="fil9" d="M14446.9 5737.68c390.05,-306.05 950.76,-377.5 1405.08,-179.05 -59.3,303.73 -339.54,571.75 -645.88,615.78 -306.33,43.99 -616.77,-162 -759.2,-436.73z"/>
    <g>
     <path class="fil10" d="M17176.44 4412.28c-72.59,20.53 -141.46,52.78 -204.49,93.97 63.72,-120.37 151.84,-227.88 259.81,-311.21 19.21,-14.82 29.51,-38.67 16.15,-61.55 -11.05,-18.9 -42.19,-31.09 -61.55,-16.14 -172.5,133.12 -300.88,314.11 -367.52,521.53 -15.41,18.34 -17.4,45.1 0.43,62.93 12.86,12.83 34.87,16.4 51.55,8.44 9.74,-3.04 17.98,-9.67 23.67,-20.05 83.02,-91.18 187.68,-157.73 305.87,-191.14 55.63,-15.74 31.99,-102.57 -23.92,-86.78z"/>
     <path class="fil10" d="M13393.76 4634.39c-18.98,-119.75 -75.02,-229.91 -143.71,-328.6 -73.17,-105.14 -158.11,-202.65 -248.51,-293.22 -40.96,-41.04 -104.62,22.57 -63.64,63.61 131.64,131.9 272.64,287.82 338.07,468.2 -62.52,-33.06 -131.41,-53.51 -203.01,-55.78 -23.54,-0.74 -46.04,21.22 -44.97,44.99 1.13,25.02 19.77,44.2 44.97,45 11.94,0.38 23.8,1.19 35.66,2.52 0.89,0.08 1.45,0.18 2.14,0.28 2.68,0.41 5.36,0.82 8.01,1.28 5.87,1.02 11.73,2.14 17.55,3.41 11.63,2.5 23.19,5.54 34.56,9.06 5.69,1.76 11.38,3.62 16.96,5.61 2.81,1.02 5.62,2.04 8.4,3.09 0.66,0.25 6.14,2.39 7.62,2.96 5.18,2.14 19.97,9.15 28.47,13.64 10.53,5.56 20.84,11.56 30.89,17.98 8.29,5.33 22.01,14.98 26.4,18.44 -2.79,-2.19 3.59,2.99 4.15,3.47 2.3,1.92 4.57,3.83 6.84,5.77 5.07,4.39 10,8.93 14.87,13.52 14.49,13.69 37.62,16.42 54.69,6.12 19.15,-9.64 26.96,-30.07 23.59,-51.35z"/>
     <path class="fil10" d="M15970.77 6539.74c-188.96,279.83 -496.69,478.7 -825.14,569.58 -371.61,103.48 -767.55,82.77 -1147.26,4.49 38.69,-218.64 62.08,-440.01 71.08,-662.25 4.49,4.49 9.01,9 13.5,13.49 253.76,234.84 593.89,376.12 940.32,388.72 339.22,12.6 682.05,-100.77 947.5,-314.03z"/>
     <path class="fil10" d="M15344.5 8210.19c-23.31,120.31 -127.68,180.87 -244.78,180.1 -112.05,-0.74 -232.01,-53.94 -262.42,-170.48 -14.61,-55.99 -101.41,-32.24 -86.77,23.92 40.63,155.69 197.37,235.4 349.19,236.52 154.41,1.18 300.8,-87.41 331.56,-246.14 10.94,-56.57 -75.78,-80.8 -86.78,-23.92z"/>
     <path class="fil10" d="M11735.47 13285.11c-267.33,187.58 -534.67,375.15 -802,562.75 -246.5,172.94 -495.98,344.62 -709.72,558.24 -40.99,40.99 22.62,104.63 63.64,63.61 213.66,-213.54 463.32,-384.05 709.72,-556.96l783.79 -549.95c47.03,-33 2.14,-111.05 -45.43,-77.69z"/>
     <path class="fil10" d="M15900.9 11487.89c-19,-131.61 -150.43,-175.89 -262.59,-213.39 -55.04,-18.41 -78.66,68.46 -23.92,86.75 55.07,18.44 118.78,39.18 165.08,75.68 46.7,36.85 39.12,119.96 36.98,174.26 -4.77,120.42 -33.05,241.39 -65.78,357.01 -62.49,220.59 -160.33,428.64 -287.54,619.23 -32.24,48.28 45.66,93.38 77.7,45.4 149.42,-223.85 259.55,-473.66 321.23,-735.76 31.07,-131.95 58.41,-273.54 38.84,-409.18z"/>
     <path class="fil10" d="M19734.19 14391.89c-386.43,-391.14 -779.23,-785.29 -1255.38,-1067.68 -49.92,-29.61 -95.25,48.16 -45.41,77.7 469.63,278.53 856.06,667.86 1237.15,1053.62 40.76,41.27 104.37,-22.37 63.64,-63.64z"/>
     <g>
      <path class="fil10" d="M15718.23 4952.72c0,132.4 182.11,239.73 406.75,239.73 224.64,0 406.73,-107.33 406.73,-239.73 0,-132.38 -182.09,-239.72 -406.73,-239.72 -224.64,0 -406.75,107.34 -406.75,239.72z"/>
      <path class="fil10" d="M13650.43 4952.72c0,132.4 182.12,239.73 406.76,239.73 224.63,0 406.72,-107.33 406.72,-239.73 0,-132.38 -182.09,-239.72 -406.72,-239.72 -224.64,0 -406.76,107.34 -406.76,239.72z"/>
     </g>
    </g>
    <g>
     <path class="fil11" d="M13536.32 2412.51c-119.1,290.57 -302.62,551.89 -532.81,765.1 -42.57,39.43 21.17,102.94 63.61,63.64 242.26,-224.36 430.83,-499.55 555.97,-804.81 21.96,-53.54 -65.07,-76.85 -86.77,-23.93z"/>
     <path class="fil11" d="M13416.77 1740.67c-705.39,321.15 -1136.68,1057.66 -1150,1821.96 -7.47,428.97 112.46,834.71 307.77,1213.27 190.53,369.39 423.36,723.4 492.63,1140.84 86.09,518.75 -51.73,1045.23 -181.86,1544.37 -14.62,56.07 72.16,79.99 86.77,23.9 112.16,-430.17 225.3,-871.81 209.16,-1320.02 -7.63,-211.57 -46.68,-420.27 -120.85,-618.68 -70.73,-189.16 -165.69,-367.71 -262.29,-544.62 -97.74,-179.08 -198.51,-357.81 -274.91,-547.37 -78.94,-196 -132.17,-403.42 -154.24,-613.64 -42.72,-407.16 24.64,-825.52 217.58,-1188.48 193.46,-364.06 499.57,-662.61 875.64,-833.84 52.64,-23.95 6.94,-101.54 -45.4,-77.69z"/>
     <path class="fil11" d="M13593.4 6118.6c-9.36,-57.01 -96.08,-32.83 -86.75,23.9 59.23,360.25 24.79,729.74 -95.88,1074 -19.18,54.74 67.72,78.31 86.78,23.93 126.23,-360.15 157.73,-745.58 95.85,-1121.83z"/>
     <path class="fil11" d="M16412.8 2284.93c-178.78,-99.07 -374.11,-151.61 -577.35,-167.27 -255.55,-19.72 -510.87,13.13 -766.29,17.85 -260.58,4.82 -528.88,-20.74 -757.19,-156.63 -49.89,-29.67 -95.19,48.08 -45.43,77.71 404.21,240.58 884.01,154.34 1329.18,145.52 223.41,-4.41 447.21,14.64 654.65,103.07 171.3,73.05 326.05,184.01 449.91,323.02 139.42,156.48 232.29,348.49 262.31,556.17 8.27,57.08 94.99,32.8 86.77,-23.93 -54.2,-374.66 -310.1,-694.57 -636.56,-875.51z"/>
     <path class="fil11" d="M16594.43 1344.32c-447.23,-323.78 -1017.97,-440.5 -1558.07,-337.42 -336.38,64.17 -653.33,199.92 -966.8,333.52 -53.11,22.62 -7.32,100.16 45.4,77.69 519.01,-221.19 1057.73,-432.49 1631.83,-332.73 502.74,87.36 956.4,371.99 1245.21,793.76 155.72,227.45 260.93,484.94 309.24,756.22 10.15,56.94 96.88,32.81 86.78,-23.9 -89.89,-504.72 -378.19,-966.36 -793.59,-1267.14z"/>
     <path class="fil11" d="M17402.58 5092.24c23.7,-52.34 -53.84,-98.15 -77.69,-45.4 -279.2,617.2 -356.74,1315.47 -223.77,1979.64 37.95,189.51 93.71,374.87 165.74,554.16 21.32,53.07 108.38,29.91 86.77,-23.9 -244.83,-609.43 -292.17,-1290.79 -135.79,-1928.69 45.07,-183.85 106.74,-363.34 184.74,-535.81z"/>
     <path class="fil11" d="M16761.47 7489.55c-75.34,-151.97 -89.5,-331.33 -109.65,-497.38 -21.15,-173.93 -35.94,-348.49 -45.07,-523.44 -2.99,-57.62 -93,-57.98 -89.96,0 9.79,188.39 26.24,376.4 50.02,563.56 21.7,170.67 39.56,346.59 116.97,502.66 25.71,51.88 103.35,6.35 77.69,-45.4z"/>
    </g>
    <path class="fil12" d="M18317.48 18434.41c-5.39,-29.69 -11.69,-59.38 -17.09,-88.18 -27.88,-143.06 -53.97,-287.05 -80.09,-430.12 -814.33,324.83 -1708.74,432.83 -2580.66,338.32 -522.81,-55.78 -1038.4,-186.24 -1524.3,-385.09 -497.58,-203.37 -971.8,-474.22 -1338.02,-873.73 -286.14,-312.25 -502.1,-685.67 -631.68,-1087.88 -21.57,193.46 -46.78,386.01 -74.68,578.59 -4.49,28.77 -9,58.48 -13.49,87.28 -95.37,645.16 -219.56,1288.52 -369.82,1922.89 -7.2,29.69 -13.5,58.49 -21.61,88.18 -94.47,396.83 -199.76,790.04 -314.03,1178.76 721.65,488.61 1578.27,754.95 2443.91,853.04 866.51,98.97 1743.84,34.18 2604.97,-95.39 798.12,-119.68 1595.36,-329.34 2180.25,-885.41 -96.29,-399.54 -184.47,-799.94 -263.66,-1201.26z"/>
   </g>
   <g>
    <path class="fil0" d="M8266.96 5700.7l1264.72 0c593.89,0 1079.79,-485.9 1079.79,-1079.77l0 -226.76c0,-593.89 -485.9,-1079.79 -1079.79,-1079.79l-1264.72 0c-593.9,0 -1079.8,485.9 -1079.8,1079.79l0 226.76c0,593.87 485.9,1079.77 1079.8,1079.77z"/>
    <polygon class="fil0" points="9531.68,5700.7 8784.61,5700.7 9775.14,6549 "/>
   </g>
  </g>
 </g>
</svg>
