<?xml version="1.0" encoding="UTF-8"?>
<!DOCTYPE svg PUBLIC "-//W3C//DTD SVG 1.0//EN" "http://www.w3.org/TR/2001/REC-SVG-20010904/DTD/svg10.dtd">
<!-- Creator: CorelDRAW 2021 (64 Bit) -->
<svg xmlns="http://www.w3.org/2000/svg" xml:space="preserve" width="297mm" height="210mm" version="1.0" style="shape-rendering:geometricPrecision; text-rendering:geometricPrecision; image-rendering:optimizeQuality; fill-rule:evenodd; clip-rule:evenodd"
viewBox="0 0 29700 21000"
 xmlns:xlink="http://www.w3.org/1999/xlink"
 xmlns:xodm="http://www.corel.com/coreldraw/odm/2003">
 <defs>
  <style type="text/css">
   <![CDATA[
    .str0 {stroke:#24262A;stroke-width:37.48;stroke-linecap:round;stroke-linejoin:round;stroke-miterlimit:10}
    .fil2 {fill:none;fill-rule:nonzero}
    .fil8 {fill:#4277C3;fill-rule:nonzero}
    .fil11 {fill:#4D77BF;fill-rule:nonzero}
    .fil7 {fill:#678ED4;fill-rule:nonzero}
    .fil10 {fill:#83A7E8;fill-rule:nonzero}
    .fil4 {fill:#BA644F;fill-rule:nonzero}
    .fil6 {fill:#D18E18;fill-rule:nonzero}
    .fil1 {fill:#D47E6B;fill-rule:nonzero}
    .fil9 {fill:#DBD8DB;fill-rule:nonzero}
    .fil5 {fill:#E8A52D;fill-rule:nonzero}
    .fil0 {fill:#EFEDEF;fill-rule:nonzero}
    .fil3 {fill:white;fill-rule:nonzero}
    .fil12 {fill:#52283F;fill-rule:nonzero;fill-opacity:0.149020}
   ]]>
  </style>
 </defs>
 <g id="Camada_x0020_1">
  <metadata id="CorelCorpID_0Corel-Layer"/>
  <path class="fil0" d="M16842.23 7266.62c524.78,-312.84 949.53,-773.06 1473.61,-1087.13 1424.46,-853.6 3408.47,-399.5 4521.4,833 1112.91,1232.5 1404.46,3068.35 997.95,4678.42 -406.54,1610.1 -1435.69,3008.05 -2666.34,4123.01 -2443.58,2213.98 -5844.88,3429.67 -9107.91,2955.11 -3263.05,-474.56 -6277.47,-2745.78 -7358.46,-5860.9 -582.16,-1677.7 -588.94,-3601.76 234.42,-5175.2 823.37,-1573.44 2549.22,-2706.43 4320.85,-2584.04 1071.63,74.03 2045.23,570.09 2979.98,1060.09 933.59,489.4 1859.75,898.33 2863.44,1221.7 609.94,196.49 1181.16,169.74 1741.06,-164.06z"/>
  <g id="_2555995000528">
   <g>
    <path class="fil1" d="M12547.05 2707.67c19.76,862.27 39.5,1730.51 138.27,2584.88 23.72,213.33 54.32,425.7 89.9,637.08 39.5,238.03 87.89,475.09 145.18,710.16 53.34,219.3 115.57,438.56 225.22,636.11 108.64,196.55 269.63,372.36 476.09,463.23 299.25,131.37 648.92,70.12 954.12,-45.44 904.76,-341.76 1616.9,-1151.67 1839.14,-2092.01 166.93,-705.21 59.25,-1453.9 -55.31,-2169.01 -501.76,-451.4 -1130.93,-847.47 -1796.66,-961.06 -665.73,-113.58 -1392.68,-22.71 -2015.95,236.06z"/>
    <path class="fil1" d="M16221.38 6057.47c225.35,89.16 494.66,2.17 664.51,-170.69 169.88,-172.83 251.82,-416.16 277.72,-657.11 20.32,-188.93 7.91,-386.69 -75.63,-557.36 -83.54,-170.65 -247.78,-309.37 -437.11,-325.63 -189.3,-16.26 -390.86,114.56 -420.93,302.17 -72.13,450.1 -108.55,963.87 -8.56,1408.62z"/>
    <path class="fil1" d="M14322.99 8581.66c96.77,794.13 345.69,1459.86 766.46,2087.06 1036.13,-458.3 1901.36,-1313.67 2318.18,-2365.59 -364.48,-696.35 -632.13,-1481.6 -740.79,-2264.84 -129.4,56.29 -274.58,73.08 -407.93,31.6 -17.77,41.48 -36.56,81.96 -57.27,122.46 -327.92,679.57 -917.6,1233.66 -1625.81,1501.34 -48.38,18.77 -98.77,35.55 -149.14,50.36 7.91,189.67 -4.92,379.29 -39.5,565.01 -15.81,91.84 -37.55,182.71 -64.2,272.6z"/>
    <g>
     <path class="fil2 str0" d="M13724.33 4435.7c2.35,300.83 4.69,601.69 7.07,902.55 -86.39,-59.25 -218.48,-21.64 -271.71,68.57 -53.24,90.21 -29.86,214.15 43.32,289.08 73.19,74.92 186.96,102.38 290.03,83.83"/>
     <path class="fil2 str0" d="M13400.39 4750.89c-156.02,-109.84 -371.83,-128.29 -544.24,-46.51"/>
     <path class="fil2 str0" d="M14114.72 4798.54c193.78,-151.69 479.4,-174.38 694.69,-55.13"/>
     <path class="fil2 str0" d="M12718.5 4102.24c-10.8,-130.05 72.03,-259.32 189.96,-315.22 117.94,-55.92 263.1,-41.69 375.23,25.12 112.11,66.8 191.62,181.63 228.23,306.92"/>
     <path class="fil2 str0" d="M14004.66 4137.27c53.21,-251.68 309.32,-443.44 565.82,-423.64 256.48,19.81 480.12,248.62 494.06,505.47"/>
    </g>
    <path class="fil3" d="M13586.42 6562.63c8.04,-91.92 85.42,-153.88 172.67,-167.24 103.71,-15.87 195.71,36.47 278.91,92.16 51.71,-51.89 103.36,-103.84 155.28,-155.52 62.9,-62.64 137.33,-124.86 232.44,-109.5 87.02,14.05 135.25,93.56 124.73,178.21 -10.57,85.09 -71.13,165.63 -121.2,232.62 -51.36,68.73 -111.61,132.99 -187.96,174.18 -85.94,46.35 -183.95,56.84 -279.88,45.77 -156.7,-18.07 -392.57,-89.2 -374.99,-290.68z"/>
    <g>
     <g>
      <path class="fil4" d="M15395.23 5614.33c0,177.81 -235,322 -524.89,322 -289.92,0 -524.92,-144.19 -524.92,-322 0,-177.86 235,-322.02 524.92,-322.02 289.89,0 524.89,144.16 524.89,322.02z"/>
      <path class="fil4" d="M12685.32 5292.55c23.72,213.33 54.32,425.7 89.9,637.08 241.98,-28.65 423.72,-159.02 423.72,-315.09 0,-174.83 -228.15,-318.04 -513.62,-321.99z"/>
     </g>
     <g>
      <path class="fil4" d="M16174.13 5606.11c94.47,-310.95 314.77,-577.79 603.85,-726.98 56.39,-29.12 106.41,56.08 49.86,85.28 -209.33,108.03 -379.21,281.31 -485.31,489.61 86.1,-38.06 186.16,-49.89 281.14,-48.81 63.54,0.74 63.7,99.52 0,98.78 -130.74,-1.5 -285.89,16.21 -359.28,140.2 -28.04,47.33 -106.87,16.52 -90.26,-38.08z"/>
      <path class="fil4" d="M14426.69 7744.05c50.37,-14.81 100.76,-31.59 149.14,-50.36 708.21,-267.68 1297.89,-821.77 1625.81,-1501.34 -11.86,373.36 -145.21,750.67 -331.88,1064.76 -218.29,364.48 -537.33,665.73 -916.62,857.35 -178.78,89.89 -369.4,156.07 -565.95,194.6 34.58,-185.72 47.41,-375.34 39.5,-565.01z"/>
     </g>
    </g>
    <path class="fil5" d="M11446.74 1361.4c41.48,242.98 182.71,461.27 365.45,626.22 182.74,164.95 407.93,294.35 638.06,384.24 -113.59,26.65 -220.24,84.94 -294.33,174.81 -74.08,88.89 -111.6,211.38 -88.91,324.97 26.67,126.42 123.47,230.12 238.05,288.42 114.59,59.24 245.94,79.01 374.34,85.91 359.54,17.79 736.85,-47.41 1055.87,-214.33 -99.75,54.34 -127.4,194.59 -79.01,296.32 49.39,100.75 158.05,163.98 268.65,184.72 110.64,20.74 224.22,5.93 335.83,-11.86 423.75,-67.18 847.47,-179.76 1199.11,-426.7 -34.57,310.13 27.65,631.15 175.81,905.73 139.28,258.8 352.62,475.09 607.43,618.32 54.35,-159.99 236.08,-266.67 407.94,-251.86 52.36,4.93 103.73,19.76 152.11,41.48 207.44,-432.63 328.93,-905.74 354.6,-1384.8 11.86,-227.17 1.97,-461.25 -79.01,-675.59 -80.99,-213.36 -241.99,-404.98 -457.32,-480.04 -216.32,-75.05 -487.95,1.98 -612.39,193.6 92.84,-262.72 -17.79,-569.9 -226.2,-754.62 -209.38,-184.72 -498.78,-257.8 -777.34,-251.87 -278.53,6.91 -550.17,85.92 -813.86,176.81 -110.64,37.53 -242.99,82.97 -284.47,191.62 -63.22,-404.98 -294.35,-781.29 -627.2,-1021.32 -91.87,-66.18 -192.62,-123.44 -304.23,-144.21 -111.61,-21.72 -234.08,-2.95 -320.99,69.15 -121.49,99.75 -149.17,273.61 -141.26,430.65 14.81,294.33 122.47,587.7 313.11,811.92 -200.5,-252.87 -459.3,-459.3 -750.67,-597.58 -157.07,-75.08 -355.56,-126.44 -497.82,-25.69 -130.38,92.84 -158.02,277.56 -131.35,435.58z"/>
    <g>
     <path class="fil6" d="M15842.54 3001.28c26.72,213.89 80.69,424.27 159.39,624.9 39.24,100.1 85.36,197.5 137.14,291.69 51.34,93.4 105.16,197.02 193.15,260.9 50.95,37.01 1.69,122.74 -49.86,85.29 -89.29,-64.83 -147.53,-154.89 -202.03,-249.23 -59.88,-103.71 -111.95,-211.5 -157.52,-322.21 -91.13,-221.58 -149.37,-453.81 -179.05,-691.34 -7.88,-62.91 90.98,-62.33 98.78,0z"/>
     <path class="fil6" d="M16623.15 2371.68c174.96,497.75 194.54,1041.69 57.84,1551.14 -16.47,61.33 -111.77,35.32 -95.24,-26.24 132.43,-493.54 111.53,-1016.72 -57.85,-1498.65 -21.11,-60.09 74.27,-85.92 95.25,-26.25z"/>
     <path class="fil6" d="M14059.24 2564.46c43.33,-46.7 113.03,23.27 69.84,69.84 -51.05,55.02 -111.01,116.9 -119.28,195.39 -7.12,67.25 29.73,132.98 76.35,178.6 115.72,113.21 296.77,125.47 448.15,98.56 287.47,-51.1 606.67,-194.04 735.12,-472.42 26.59,-57.66 111.76,-7.54 85.28,49.83 -77.82,168.7 -221.93,294.27 -385.38,377.74 -167.9,85.73 -363.97,151.95 -553.75,155.46 -172.33,3.19 -357.07,-56.77 -454.47,-207.43 -106.47,-164.66 -19.53,-318.76 98.14,-445.57z"/>
     <path class="fil6" d="M12399.01 2700.73c53.03,-148.74 221.11,-220.05 358.34,-267.49 60.22,-20.79 86.07,74.58 26.28,95.24 -104.76,36.22 -263.15,94.4 -295.01,215.55 -36.69,139.39 185.9,178.08 278.35,189.83 258.61,32.87 518.83,-46.72 744.79,-168.19 56,-30.1 105.94,55.16 49.86,85.31 -286.23,153.85 -630.07,245.07 -950.75,150.9 -133,-39.05 -266.88,-146.9 -211.86,-301.15z"/>
     <path class="fil6" d="M12315.31 1718.78c101.81,-102.01 304.08,-47.01 421.43,-7.85 107.18,35.76 207.8,86.65 305.34,143.08 -23.61,-54.53 -46.33,-109.4 -67.84,-164.77 -39.87,-102.6 -89.26,-212.76 -88.15,-324.97 0.79,-80.86 31.73,-163.42 96.24,-214.71 74.98,-59.61 170.94,-50.54 254.29,-14.49 172.73,74.76 298.1,231.54 388.52,391.43 107.02,189.15 183.39,397.16 234.71,607.89 15.02,61.74 -80.2,88.1 -95.25,26.27 -42.72,-175.54 -102.94,-346.5 -184.13,-508.05 -68.02,-135.33 -152.59,-269.08 -274.61,-362.08 -59.35,-45.28 -154.57,-109.13 -232.5,-80.72 -82.46,30.09 -96.48,135.09 -83.88,209.75 15.39,91.03 54.89,179.89 88.6,265.31 35.81,90.81 75,180.15 116.64,268.44 19.56,41.53 -22.5,96.16 -67.57,67.57 -99.7,-63.22 -201.16,-124.76 -309.19,-172.83 -112.21,-49.94 -251.31,-101.07 -376.04,-81.33 -172.01,27.23 40.11,215 99.7,258.53 92.92,67.89 198.18,112.67 310.66,135.94 62.19,12.89 35.87,108.13 -26.28,95.27 -144.29,-29.86 -278.16,-94.96 -390.72,-190.15 -88.89,-75.13 -235.53,-231.75 -119.97,-347.53z"/>
     <path class="fil6" d="M14290.52 1651.11c258.33,-119.39 543.19,-182.16 827.47,-140.73 250.89,36.57 489.92,158.09 654.5,352.72 40.82,48.25 -28.73,118.46 -69.84,69.84 -340.1,-402.17 -914.62,-403.43 -1362.27,-196.55 -57.32,26.48 -107.55,-58.61 -49.86,-85.28z"/>
    </g>
   </g>
   <path class="fil7" d="M11401.3 20011.57c1492.43,494.85 3070.83,720.07 4638.34,667.7 38.53,-0.97 76.06,-1.97 113.59,-3.95 1160.58,-48.38 2314.22,-249.89 3421.46,-606.46 6.91,-390.14 52.34,-780.29 129.4,-1165.5 21.72,-111.61 45.43,-221.25 74.08,-330.91l0 -2.95c-280.51,-526.45 -500.78,-1083.54 -656.85,-1658.38 -59.27,-215.31 -109.63,-433.6 -150.14,-653.87 -161.97,1.98 -324.94,0.98 -487.91,-3.95 -40.51,-166.93 -78.04,-334.86 -111.61,-503.73 -9.89,-43.46 -17.79,-87.92 -25.7,-131.38 -31.6,-160.02 -59.24,-320.01 -82.96,-481.01 -14.81,-93.85 -27.65,-188.67 -39.51,-283.49 -11.86,-88.89 -21.71,-177.79 -31.59,-266.68 -10.89,-103.7 -20.77,-206.43 -28.65,-310.16 -6.91,-91.84 -13.84,-184.69 -18.77,-277.53 -2.97,-36.56 -4.95,-73.11 -6.93,-109.64 -8.88,-183.71 -12.83,-367.42 -12.83,-551.16 0,-79.01 0.97,-158.02 2.98,-237.03 0,-14.84 0,-29.65 0.97,-43.46 1.98,-81.99 4.93,-163 8.88,-244.96 1.98,-45.44 3.96,-90.87 6.93,-135.33 2.96,-49.39 5.91,-98.77 9.86,-147.19 3.95,-61.22 8.91,-121.46 14.84,-182.71 3.93,-39.5 6.9,-78.03 11.83,-117.54 2.98,-29.62 5.93,-58.27 8.91,-87.92 4.93,-47.41 10.86,-95.79 16.79,-143.2 9.88,-85.94 21.71,-171.86 35.55,-256.82 9.88,-70.13 20.74,-139.26 33.57,-209.39 17.79,-107.65 38.53,-215.31 61.25,-321.99 15.81,-77.06 32.6,-154.09 51.36,-231.12 0.98,-5.93 1.98,-11.86 3.96,-17.79 17.76,-77.04 37.53,-153.09 57.26,-229.15 -46.41,-16.79 -92.81,-33.58 -139.25,-50.39 -31.6,-11.83 -64.2,-23.69 -95.8,-34.55 -108.65,-40.51 -217.31,-82.99 -325.97,-125.45 -79.98,-31.62 -161,-64.19 -240.98,-97.77 -13.84,-5.93 -26.67,-10.88 -40.51,-16.81l-0.97 0c-42.49,-17.77 -84.94,-35.55 -127.42,-54.32 -12.84,-5.93 -26.67,-10.86 -39.54,-16.79 -31.59,-12.83 -63.19,-26.67 -94.82,-40.5 -47.38,-20.74 -93.82,-41.48 -140.25,-62.22 -49.39,-21.75 -97.78,-43.46 -146.16,-66.18 -59.27,-26.67 -118.54,-53.34 -176.81,-81.99 -28.65,-12.83 -57.3,-26.67 -84.94,-40.48 -72.11,-33.6 -143.24,-68.17 -214.34,-104.7 -75.08,-36.55 -150.14,-74.08 -224.22,-112.61 -371.38,348.66 -802.03,635.1 -1268.23,840.56 -420.77,-627.2 -669.69,-1292.93 -766.46,-2087.06 -577.84,198.53 -1145.77,475.09 -1642.59,838.56 -27.68,20.74 -55.32,40.51 -81.99,62.25 -23.69,17.76 -47.41,36.53 -71.1,54.32 -203.48,160.99 -344.71,387.19 -397.08,641.03 -91.87,445.47 -175.81,891.9 -251.87,1340.34 -6.9,34.55 -12.83,70.13 -17.78,104.68 -198.53,1170.46 -342.74,2348.81 -429.65,3531.13 -7.91,101.72 -14.82,202.47 -21.72,304.2l0 1c-3.95,41.48 -5.93,81.99 -7.91,123.47 -25.69,390.15 -43.48,779.32 -54.34,1169.46 -1.98,34.58 -2.95,68.15 -2.95,101.73 -29.62,1052.92 -10.88,2106.82 57.29,3157.74z"/>
   <g>
    <path class="fil1" d="M9900.76 12943.65c-21.8,-352.93 -119.23,-700.99 -283.78,-1013.94 -296.22,-184.85 -648.34,-297.17 -997.45,-302.92 158.97,616.74 666.57,1150.09 1281.23,1316.86z"/>
    <g>
     <path class="fil8" d="M9421.09 12925.63l-1488.4 0c-176.44,0 -427.12,-130.03 -559.92,-290.45l-2644.73 -3194.87c-132.8,-160.45 -97.43,-290.48 78.98,-290.48l1488.4 0c176.44,0 427.12,130.03 559.92,290.48l2644.73 3194.87c132.8,160.42 97.43,290.45 -78.98,290.45z"/>
     <path class="fil9" d="M6351.16 9606.31c80.91,97.75 233.65,176.99 341.15,176.99 107.53,0 129.08,-79.24 48.18,-176.99 -80.94,-97.75 -233.68,-176.99 -341.18,-176.99 -107.53,0 -129.08,79.24 -48.15,176.99z"/>
     <path class="fil9" d="M5929.1 9606.31c56.61,68.36 163.45,123.78 238.63,123.78 75.19,0 90.27,-55.42 33.68,-123.78 -56.6,-68.36 -163.44,-123.81 -238.63,-123.81 -75.22,0 -90.26,55.45 -33.68,123.81z"/>
    </g>
    <g>
     <path class="fil1" d="M6334.29 11839.16c12.84,67.17 51.34,126.44 91.85,181.76 215.31,299.25 482.01,556.07 747.71,810.91 261.75,252.84 508.66,528.43 817.82,721.02 429.68,267.68 945.27,345.72 1450.97,374.36 431.63,1097.36 1089.45,2097.92 1900.39,2953.29 23.7,-922.52 83.94,-1845.07 178.76,-2763.64 -476.08,-414.87 -987.72,-779.32 -1513.19,-1133.91 -455.32,-307.19 -1094.38,-346.69 -1580.35,-89.9 1.98,-331.85 3.95,-668.68 -76.06,-991.65 -16.78,-69.15 -38.53,-139.28 -83.96,-193.59 -45.43,-54.35 -120.49,-89.9 -188.64,-70.13 -57.3,16.79 -99.75,69.13 -119.52,126.42 -19.76,57.29 -20.74,118.51 -21.74,178.78 -2.95,236.06 -21.72,477.07 -24.69,712.14 -16.79,-331.87 -72.11,-661.77 -162.95,-980.81 -16.81,-60.25 -35.58,-120.5 -73.11,-169.88 -37.52,-50.39 -97.77,-86.92 -159.02,-80.99 -68.15,6.91 -122.49,65.17 -146.18,129.37 -23.7,64.23 -22.72,134.36 -20.74,202.51 3.95,205.43 14.81,434.58 18.76,640.03 -217.31,-210.38 -434.6,-421.77 -651.89,-633.13 -44.46,-42.48 -89.9,-85.94 -146.19,-111.61 -55.32,-25.67 -125.44,-29.62 -175.81,4.93 -56.32,38.53 -75.08,116.57 -62.22,183.72z"/>
     <g>
      <path class="fil4" d="M7889.26 12188.11c3.08,-63.28 101.88,-63.65 98.77,0 -10.38,213.97 -11.28,428.25 -2.66,642.3 2.53,63.57 -96.22,63.46 -98.77,0 -8.62,-214.05 -7.72,-428.33 2.66,-642.3z"/>
      <path class="fil4" d="M7368.29 12128.63c28.1,0 47.73,22.66 49.36,49.39 9.04,145.94 13.5,292.13 13.36,438.34 -0.07,63.57 -98.85,63.67 -98.77,0 0.13,-146.21 -4.32,-292.4 -13.34,-438.34 -1.66,-26.67 23.88,-49.39 49.39,-49.39z"/>
      <path class="fil4" d="M8385.64 12900.67c213.97,-159.63 481.78,-241.11 748.35,-229.57 63.3,2.74 63.64,101.54 0,98.77 -251.24,-10.88 -497.04,65.81 -698.49,216.08 -51,38.03 -100.28,-47.67 -49.86,-85.28z"/>
     </g>
    </g>
   </g>
   <g>
    <path class="fil1" d="M19778.17 18569.5c-183.71,742.76 -254.84,1506.29 -169.88,2266.84 612.39,167.91 1287.98,145.19 1877.65,-90.89 166.93,-1586.28 128.4,-3184.41 -139.28,-4754.87 -782.27,163.94 -1576.39,255.81 -2375.48,265.7 149.17,805.96 421.77,1589.22 806.99,2313.22z"/>
    <path class="fil4" d="M19737.8 18548.02c281.43,-159.68 608.96,-104.07 909.32,-39.76 62.11,13.3 35.81,108.55 -26.25,95.24 -272.95,-58.43 -576.65,-115.77 -833.21,29.81 -55.37,31.41 -105.21,-53.9 -49.86,-85.29z"/>
   </g>
   <g>
    <g>
     <path class="fil7" d="M16357.68 9828.16c91.87,47.41 182.74,93.84 275.59,138.28 54.31,27.67 108.63,53.34 162.97,79.03 28.65,13.81 56.29,27.65 84.94,40.48 58.27,28.65 117.54,55.32 176.81,81.99 49.38,22.72 97.77,44.43 146.16,66.18 46.43,21.74 92.87,41.48 140.25,62.22 44.46,19.76 88.92,39.5 134.36,57.29 11.85,5.93 23.69,10.86 35.55,15.81 44.46,18.77 88.89,37.53 133.35,55.32 188.64,78.01 377.28,152.09 566.95,223.22 31.6,10.86 64.2,22.72 95.8,34.55 46.44,16.81 92.84,33.6 139.25,50.39 -41.48,158.04 -79,318.04 -112.58,478.06 -21.74,106.68 -42.48,214.34 -61.25,321.99 -8.88,52.34 -17.76,103.71 -25.67,156.05 -2.97,16.81 -5.93,35.57 -7.9,53.34 -12.84,84.96 -24.7,171.88 -35.55,256.82 -1.98,11.86 -3.96,24.69 -4.93,36.55 -5.96,49.36 -11.86,99.75 -16.82,149.14 -11.85,109.63 -21.71,218.29 -29.62,327.92 -3.95,55.32 -7.9,110.64 -10.86,164.95 -24.69,402.98 -25.69,807.96 -6.93,1211.94 1.98,36.53 3.96,73.08 6.93,109.64 8.89,159.99 20.75,320.01 37.53,480.04 2.95,35.55 5.93,72.1 9.89,107.65 9.88,88.89 19.73,177.79 31.59,266.68 11.86,94.82 24.7,189.64 39.51,283.49 23.72,161 51.36,320.99 82.96,481.01 7.91,44.44 16.82,87.92 25.7,131.38 33.57,168.87 71.1,336.8 111.61,503.73 118.54,3.95 237.05,4.93 354.59,4.93 1017.34,-0.98 2026.81,-135.3 3015.51,-384.22 -13.84,-150.14 -28.65,-299.28 -46.41,-448.41 -3.96,-33.6 -7.91,-68.18 -11.86,-101.76 -178.79,-1478.62 -545.21,-2935.49 -1089.45,-4321.27 -123.47,-313.11 -257.82,-627.2 -429.68,-915.62 -16.78,-28.64 -34.57,-57.29 -52.34,-84.96 -82.96,-129.37 -173.83,-253.82 -275.58,-369.41 -375.33,-426.69 -864.25,-715.09 -1392.68,-935.35 -35.55,-15.82 -72.1,-30.63 -108.66,-44.46 -338.78,-136.31 -691.4,-246.91 -1039.08,-349.64 -229.15,578.79 -594.6,1099.33 -1049.95,1525.03z"/>
    </g>
    <g>
     <g>
      <path class="fil10" d="M11344.01 16853.83c186.67,60.24 359.52,163.97 498.8,302.25 120.49,119.49 212.36,262.73 269.63,422.75 68.18,193.59 98.78,401.98 200.53,581.76 80.01,142.24 208.41,273.61 371.38,311.14 201.5,46.41 389.14,-69.15 571.88,-136.3 398.05,-146.19 827.73,-213.37 1250.45,-167.93 716.12,76.06 1426.28,530.4 1663.33,1234.66 110.64,330.87 108.66,697.33 -8.88,1026.25 -31.6,88.89 -73.1,172.83 -121.49,250.86 38.53,-0.97 76.06,-1.97 113.59,-3.95 241.98,-438.53 259.77,-994.63 46.43,-1463.81 -319.04,-699.3 -1064.78,-1110.19 -1813.47,-1152.64 -435.58,-25.7 -876.12,63.19 -1279.1,229.14 -103.7,43.44 -211.38,96.8 -325.94,95.8 -96.8,0 -185.69,-44.43 -255.82,-109.63 -157.04,-145.21 -209.41,-353.62 -265.7,-552.14 -51.37,-182.72 -116.57,-354.6 -233.1,-505.71 -100.75,-132.35 -228.18,-243.96 -371.38,-329.9 -96.8,-57.3 -200.51,-102.73 -308.19,-134.33 -1.98,34.58 -2.95,68.15 -2.95,101.73z"/>
      <path class="fil10" d="M11401.3 15582.64c336.81,292.37 715.09,546.19 1148.72,658.8 259.77,68.15 546.22,79.04 792.15,-41.48 195.58,-96.8 361.5,-279.51 398.05,-499.78 76.06,-457.32 -448.44,-961.05 -32.6,-1356.15 201.51,-191.62 486.95,-231.13 753.62,-242.99 259.78,-10.85 518.57,-10.85 772.41,-75.05 220.27,-55.32 435.58,-155.07 594.6,-321.02 162.98,-169.88 246.94,-396.08 260.78,-630.15 26.67,-457.32 -202.48,-897.86 -554.12,-1181.32 -334.83,-270.66 -774.36,-416.82 -1205.01,-381.27 -238.06,19.74 -452.37,101.73 -665.73,203.48 -249.89,118.52 -501.76,244.94 -785.25,230.13 -376.31,-19.74 -690.42,-222.25 -1000.56,-427.68 -6.9,34.55 -12.83,70.13 -17.78,104.68 408.93,262.75 862.27,521.52 1363.05,382.27 251.87,-70.13 474.11,-212.36 717.1,-304.23 199.52,-75.06 409.91,-105.68 622.27,-91.85 415.84,28.65 819.82,226.2 1095.38,539.28 291.37,330.91 443.48,846.5 250.89,1264.29 -204.46,443.48 -725.98,562.02 -1169.49,580.79 -269.63,11.86 -554.09,-1 -809.91,99.77 -194.6,76.03 -374.36,215.32 -451.39,415.82 -172.86,452.36 350.64,895.85 108.65,1333.43 -277.56,502.73 -957.1,368.41 -1381.82,166.93 -293.37,-140.28 -554.12,-334.86 -796.1,-550.17 -3.95,41.48 -5.93,81.99 -7.91,123.47z"/>
      <path class="fil10" d="M14773.38 16531.83c94.82,229.15 245.94,430.66 448.42,575.84 221.26,158.05 486.94,238.06 742.78,321.99 269.63,88.9 530.41,190.65 751.65,375.34 212.36,177.81 364.47,401.03 480.04,650.92 106.65,232.1 190.62,478.06 335.83,689.42 143.2,206.43 339.75,358.54 582.74,427.7 507.68,147.16 1027.22,-69.16 1386.77,-431.66 74.08,-75.05 141.23,-154.06 202.48,-238.02 17.76,-89.9 36.55,-178.79 58.27,-267.68 -153.09,258.79 -346.69,490.89 -600.53,659.8 -407.93,270.63 -999.58,332.85 -1383.8,-15.79 -181.74,-164.98 -287.42,-392.15 -383.24,-613.39 -98.77,-228.17 -193.6,-458.3 -346.69,-656.82 -157.04,-204.48 -357.54,-373.39 -586.69,-490.92 -232.13,-117.54 -484.99,-183.72 -728.95,-270.63 -243.96,-86.92 -477.06,-201.48 -650.92,-398.06 -161,-183.71 -260.75,-416.81 -303.23,-655.84 -91.84,-521.52 120.52,-1045.99 447.44,-1446.02 620.29,-756.6 1699.89,-1155.63 2650.06,-854.37 91.87,28.62 181.76,64.2 268.67,105.68 -2.97,-36.56 -4.95,-73.11 -6.93,-109.64 -193.59,-85.94 -397.07,-146.18 -609.41,-174.83 -1025.25,-136.3 -2106.82,415.84 -2613.53,1313.67 -257.79,457.32 -344.71,1008.46 -141.23,1503.31z"/>
      <path class="fil10" d="M12598.41 9482.47c185.69,506.68 544.24,939.31 1069.71,1135.89 180.76,68.12 367.43,91.84 560.02,98.75 199.53,6.93 394.13,14.81 584.75,78.03 311.13,101.73 580.79,298.3 849.44,478.06 266.68,178.79 546.21,356.57 863.28,426.7 365.45,80.01 745.71,-3.95 1060.8,-198.52 317.07,-195.58 556.1,-486.95 724,-818.85 166.93,-330.88 264.7,-702.26 298.3,-1059.8 28.65,-309.16 10.86,-622.27 -53.34,-925.5 -35.55,-15.82 -72.1,-30.63 -108.66,-44.46 89.87,396.07 101.73,810.94 29.62,1209.96 -47.38,265.71 -134.3,537.34 -261.72,785.25 -206.43,403.98 -522.52,746.71 -955.15,902.78 -330.87,119.52 -675.58,99.75 -995.6,-41.5 -284.46,-125.45 -535.36,-315.07 -795.13,-483.97 -256.82,-167.93 -532.38,-325.95 -838.58,-378.31 -205.43,-34.58 -414.84,-17.76 -621.27,-44.44 -168.91,-21.74 -332.85,-76.05 -482.99,-155.09 -419.8,-221.24 -696.36,-597.55 -845.49,-1027.23 -27.68,20.74 -55.32,40.51 -81.99,62.25z"/>
      <path class="fil10" d="M19050.22 12007.08c10.86,275.56 137.3,518.55 296.3,737.81 155.09,214.36 337.8,409.91 474.11,639.09 67.17,114.56 121.49,237.02 148.16,368.4 33.58,169.88 19.77,344.71 12.83,516.59 -5.9,167.9 -5.9,339.76 44.46,501.76 43.46,136.3 120.52,258.79 217.29,362.5 211.39,225.19 508.69,348.66 811.92,382.23 260.77,28.65 513.61,-7.9 751.67,-89.86 -3.96,-33.6 -7.91,-68.18 -11.86,-101.76 -316.07,113.59 -654.85,144.21 -993.65,38.53 -272.61,-84.94 -526.45,-269.65 -647.94,-534.35 -138.28,-304.23 -41.49,-647.94 -71.13,-968.96 -47.41,-526.45 -468.18,-869.21 -735.86,-1288.98 -161,-250.89 -233.08,-522.52 -177.79,-820.79 53.34,-295.35 184.72,-578.82 341.76,-832.66 199.53,-322.97 461.28,-605.48 765.48,-829.68 -16.78,-28.64 -34.57,-57.29 -52.34,-84.96 -381.26,280.51 -698.33,649.94 -914.64,1071.69 -146.16,284.46 -270.63,608.43 -258.77,933.4z"/>
     </g>
     <g>
      <path class="fil11" d="M17789.57 11921.25c58.7,106.6 119.13,212.25 181.43,316.8 29.8,50.05 59.69,100.15 90.81,149.4 14.84,23.51 30.94,46.78 48.68,68.63 21.71,-273.06 53.42,-542.5 95.74,-807.12 4.3,-26.94 29.39,-44.78 56.58,-41.01 26.91,4.35 45.25,29.7 40.96,56.61 -228.62,1429.21 -152.96,2998.48 218.61,4540.46 925.89,22.66 1872.9,-64.73 2814.24,-262.49 26.43,-6.06 52.89,11.49 58.45,38.22 5.59,26.72 -11.49,52.86 -38.21,58.45 -849.05,178.26 -1702.47,268.26 -2541.88,268.26 -111.26,0 -222.37,-1.56 -333.11,-4.75 -22.24,-0.66 -41.3,-16.1 -46.59,-37.71 -301.89,-1236.93 -413.95,-2492.2 -333.59,-3681.32 -89.95,-72.79 -145.48,-177.99 -204.12,-275.9 -66.49,-111.03 -130.87,-223.29 -193.28,-336.67 -30.67,-55.71 54.58,-105.6 85.28,-49.86z"/>
      <path class="fil11" d="M13936.72 8856.17c77.14,458.77 204.43,908.4 380.82,1338.94 87.86,214.58 188.53,424.04 300.22,627.23 49.68,90.39 97.46,200.6 173.67,272.18 89.85,84.36 211.5,37.11 314.64,6.14 740.34,-222.29 1404.2,-674.61 1899.21,-1266.31 279.04,-333.56 503.2,-713.67 656.53,-1120.73 22.19,-58.93 117.7,-33.42 95.22,26.25 -285.86,758.99 -804.85,1417.63 -1465.34,1886.68 -330.06,234.34 -695.32,419.8 -1080.49,544.72 -97.25,31.54 -205.38,74.52 -309,70.99 -106.87,-3.63 -183.32,-68.28 -242.09,-152.32 -135.17,-193.36 -238.61,-419.19 -336.17,-633.24 -228.52,-501.38 -391.09,-1030.89 -482.46,-1574.26 -10.47,-62.17 84.7,-88.92 95.24,-26.27z"/>
      <path class="fil11" d="M12677.55 13228.94c470.37,731.08 1040.69,1395.42 1688.64,1974.84 645.27,577.04 1367.08,1068.31 2140.71,1456.82 438.42,220.16 893.32,406.12 1360.34,556.39 60.27,19.39 34.5,114.79 -26.25,95.24 -835.29,-268.78 -1632.97,-651.63 -2366.43,-1133.17 -733.3,-481.41 -1403.72,-1059.38 -1985.31,-1716.15 -328.63,-371.09 -628.8,-767.27 -896.98,-1184.11 -34.5,-53.61 50.94,-103.2 85.28,-49.86z"/>
      <path class="fil11" d="M12716.77 16613.22c765.87,695.14 1748.27,1079.83 2737.92,1332.03 283.86,72.35 570.22,134.33 857.66,190.75 62.3,12.23 35.92,107.45 -26.27,95.25 -1016.9,-199.61 -2046.97,-472.21 -2936.82,-1021.35 -249.47,-153.96 -485.23,-329.77 -702.33,-526.85 -47.18,-42.8 22.85,-112.48 69.84,-69.83z"/>
     </g>
    </g>
   </g>
   <path class="fil12" d="M11344.01 16853.83c0,-33.58 0.97,-67.15 2.95,-101.73 10.86,-390.14 28.65,-779.31 54.34,-1169.46 1.98,-41.48 3.96,-81.99 7.91,-123.47l0 -1c6.9,-101.73 13.81,-202.48 21.72,-304.2 600.52,669.68 1307.74,1243.54 2103.84,1665.28 1220.82,648.94 2654.01,912.67 4020.02,658.83 384.24,-71.13 762.55,-181.74 1121.07,-336.81 153.12,-66.2 303.23,-141.26 445.46,-230.15 156.07,574.84 376.34,1131.93 656.85,1658.38l0 2.95c-28.65,109.66 -52.36,219.3 -74.08,330.91 -77.06,385.21 -122.49,775.36 -129.4,1165.5 -1107.24,356.57 -2260.88,558.08 -3421.46,606.46 -37.53,1.98 -75.06,2.98 -113.59,3.95 -1567.51,52.37 -3145.91,-172.85 -4638.34,-667.7 -68.17,-1050.92 -86.91,-2104.82 -57.29,-3157.74z"/>
  </g>
 </g>
</svg>
