<?xml version="1.0" encoding="UTF-8"?>
<!DOCTYPE svg PUBLIC "-//W3C//DTD SVG 1.0//EN" "http://www.w3.org/TR/2001/REC-SVG-20010904/DTD/svg10.dtd">
<!-- Creator: CorelDRAW 2021 (64 Bit) -->
<svg xmlns="http://www.w3.org/2000/svg" xml:space="preserve" width="297mm" height="210mm" version="1.0" style="shape-rendering:geometricPrecision; text-rendering:geometricPrecision; image-rendering:optimizeQuality; fill-rule:evenodd; clip-rule:evenodd"
viewBox="0 0 29700 21000"
 xmlns:xlink="http://www.w3.org/1999/xlink"
 xmlns:xodm="http://www.corel.com/coreldraw/odm/2003">
 <defs>
  <style type="text/css">
   <![CDATA[
    .fil0 {fill:#2E2444}
    .fil9 {fill:#2F2545}
    .fil11 {fill:#312646}
    .fil7 {fill:#322649}
    .fil6 {fill:#352645}
    .fil10 {fill:#362847}
    .fil8 {fill:#CB777F}
    .fil1 {fill:#F96756}
    .fil5 {fill:#FBEDE5}
    .fil3 {fill:#FE9292}
    .fil2 {fill:#FEBDFD}
    .fil4 {fill:#FF9393}
   ]]>
  </style>
 </defs>
 <g id="Camada_x0020_1">
  <metadata id="CorelCorpID_0Corel-Layer"/>
  <g id="_2555624231264">
   <path class="fil0" d="M10732.17 4488.31l292.54 -0.92c46.52,-799.51 84.21,-914.47 311.94,-1586.97 5.96,613.15 -47.16,973.81 70.15,1587.25l4317.55 -8.78c91.99,-613.97 139.04,-1030.69 317.92,-1628.35 48.44,-161.9 85.38,-342.23 189.23,-476.76 -41.61,828 35.17,1436.75 345.08,2113.35 303.78,663.18 645.53,921.09 1053.72,1370.15 -109.66,417.51 -312.39,792.85 -401.2,1295.89 -647.76,164.16 -380.57,435.01 -619.71,543.2 -11.02,4.98 -25.29,11.57 -37.36,16.85 -438.31,191.14 -510.93,618.04 -392.09,1068.82 -1238.49,511.8 -1936.24,1533.89 -2041.75,1616.77 -32.85,115.71 -65.55,204 -105.98,322.64 -52.02,152.61 -30.59,142.46 -112.11,239.67 17.7,277.35 -70.54,584.61 -87.46,880.93 -17.89,313.81 -15.32,620.32 3.94,933.86l70.35 563.98 92.06 -25.99c-133.61,-2248.99 -95.05,-2994.96 1552.65,-4042.76 261.32,-166.18 1089.35,-536.46 1136.92,-760.75 -184.91,-9.25 -248.35,123.25 -403.94,208.14 -134.29,-1091.78 554.54,-1076.74 961.65,-424.82 118.47,189.73 82.73,187.18 197.17,241.47 70.93,-152.9 -109.79,-348.24 -212.07,-469.4 -182.98,-216.73 -194.37,-180.97 -378.74,-311.97l-60.65 -46.98c146.43,-400.94 375.06,-562.89 759.62,-255.17 388.54,310.91 353.04,629.32 583.93,733.55 98.21,-356.11 -604.59,-826.73 -684.77,-1013.77 550.39,-720.99 1154.18,814.7 1425.13,799.71 -6.88,-160.58 -252.03,-448.4 -344.16,-574.26 -77.07,-105.31 -105.16,-136.76 -231,-254.53 -92.93,-86.97 -199.06,-132.84 -273.44,-249.97 741.84,-77.58 1807.62,941.16 1482.49,2152.59 -56.35,209.98 -397.61,592.65 -531.59,731.47l-588.13 678.97c-166.9,205.13 -436.69,322.24 -678.07,586 -475.09,519.16 -874.68,671.49 -633.34,1857.45l101.69 4.63 1.35 -150.53c-106.13,-1006.29 49,-1128.09 868.5,-1859.12 165.12,-147.29 221.64,-173.76 499.69,-112.6 460.1,101.2 1203.03,285.9 1586.77,462 974.1,333.53 2157.15,1600.4 2574.79,2485.79 279.19,591.86 355.2,1357.05 454.76,2082.61 79.74,580.94 311.25,1776.85 303.71,2281.47 113.84,182.83 -18.11,-12.03 106.3,82.08 334.02,-190.1 537.93,-318.6 826.09,-539.56 375.83,-288.19 477.75,-497.5 761.82,-664.76 -18.69,-67.57 -31.33,-50.47 39.05,-50.47 33.69,-138.98 163.97,-266.11 244.35,-383.12 95.57,-139.11 162.9,-227.52 253.72,-378.2 146.01,-242.24 290.62,-525.61 407.77,-808.47 566.94,-1369.04 549.39,-2774.21 -4.88,-4135.97 -360.82,-886.53 -650.89,-1061.85 -910.22,-1529.43 -153.77,-87.24 -337.9,-349.06 -488.03,-480.02 -167.36,-145.97 -323.34,-278.36 -504.37,-420.64 -1412.5,-1110.12 -2751.09,-937.14 -3811.56,-1737.57 -1465.72,-1106.31 151.01,-2949.69 -465.85,-4399.77 -252.68,-593.95 -1566.13,-1243 -2168.57,-1533.01 -1517.13,-730.35 -2578.47,-1256.62 -4435.66,-885.16 -1192.41,238.51 -1659.59,792.11 -2276.3,1417.67 -810.1,821.71 -928.15,1687.25 -845.7,2840.67l534.3 0.92z"/>
   <path class="fil1" d="M18081.4 13691.66l-6694.3 940.42 -194.82 29.85 762.57 3166.82c418.97,-300.88 3042.65,-1843.44 3642.33,-1698.26 168.74,273.82 21.01,371.45 -140.32,540.93l-1285.41 1361.89c763.48,-301.34 2076.49,-1220.7 3075.39,-785.59 17.65,414.21 -628.73,1083.53 -709.5,1218.17 39.16,173.61 -437.74,626.35 -586.62,744.27 -234.04,185.37 -521.31,372.08 -808.37,554.84 -254.73,162.17 -1584.27,972.68 -1680.21,1099.3l1694.32 -12.82 220.92 0.18c163.17,-90.07 1007.87,-204.9 1201.68,-235.67 422.46,-67.12 838.3,-141.58 1256.83,-208.77 820.45,-131.75 1635.8,-274.11 2465.4,-406.47 3.72,-493.72 -1044.77,-3554.8 -1095.72,-4229.03l-65.27 -207.66 -527.62 -1944.26 -531.28 71.86z"/>
   <path class="fil2" d="M17181.69 12752.97l-1.35 150.53 750.92 91.05c101.16,178.03 118.82,469.58 150.14,697.11l531.28 -71.86 527.62 1944.26c653.57,346.48 953.99,1324.48 1194.91,2293.77 245.04,985.88 443,1923.57 634.31,2941.98 -109.12,119.67 -48.37,35.76 -163.88,45.14l255.08 33.53c5539.94,-393.8 -914.87,117.79 2892.7,-25.22 -120.4,-918.29 -313.96,-1884.04 -483.51,-2760.14 7.54,-504.62 -223.97,-1700.53 -303.71,-2281.47 -99.56,-725.56 -175.57,-1490.75 -454.76,-2082.61 -417.64,-885.39 -1600.69,-2152.26 -2574.79,-2485.79 -250.59,105.75 -404.42,315.25 -657.71,494.73 -200.71,142.24 -410.08,277.14 -650.63,418.65 -392.47,230.9 -1120.64,515.32 -1646.62,596.34z"/>
   <path class="fil3" d="M13222.49 8243.3c154.09,-63.2 208.86,103.28 542.85,93.36 213.03,-270.25 130.47,-241.61 238.16,-362.15 283.88,318.1 -539.89,770.65 -781.01,268.79zm-64.76 -731.16c-101.31,-201.76 -161.77,-1506.74 -46.17,-1681.55 175.37,134.9 10.36,1023.43 128.59,1542.37 223.28,62.7 110.36,-115.63 320.14,-6.83 -19.7,29.63 -4.3,93.55 -204.77,151.56 -112.31,32.49 -102.62,27.74 -197.79,-5.55zm1208.43 -1212.37c263.56,93.84 318.04,402.36 632.87,369.08 307.7,-32.52 294.18,-298.43 618.88,-433.64 -163.77,736.01 -1206.85,675.39 -1251.75,64.56zm-3043.23 8.26c215.28,40.1 321.98,416.35 653.43,358.6 347.89,-60.63 330.78,-374.84 601.57,-424.45 -30.51,177.06 -132.87,251.4 -241.74,349.96 -586.48,530.89 -997.57,-140 -1013.26,-284.11zm-141.8 -854.56c72.22,-294.53 507.33,-496.86 698.94,-326.28 -142.06,110.43 -212.03,29.67 -388.8,132.05 -176.38,102.15 -87.13,194.97 -310.14,194.23zm3871.55 -325.18c-172.64,-45.85 -239.7,3.5 -373.33,-42.28 24.31,-150.22 253,-122.98 403.53,-79.56 172.62,49.78 245.81,104.66 280.06,265.75 -163.17,-50.54 -172.03,-107.19 -310.26,-143.91zm-4320.51 -639.98l26.21 2075.78c124.12,894.14 329.26,1536.31 725.21,2186.66 282.69,464.33 968.33,1226.43 1442.94,1412.09l234.92 172.58c38.82,23.88 210.99,123.09 258.37,137.7 228.76,70.48 493.97,-15.25 718.37,-74.31 105.51,-82.88 803.26,-1104.97 2041.75,-1616.77 -118.84,-450.78 -46.22,-877.68 392.09,-1068.82 12.07,-5.28 26.34,-11.87 37.36,-16.85 239.14,-108.19 -28.05,-379.04 619.71,-543.2 88.81,-503.04 291.54,-878.38 401.2,-1295.89 -408.19,-449.06 -749.94,-706.97 -1053.72,-1370.15 -309.91,-676.6 -386.69,-1285.35 -345.08,-2113.35 -103.85,134.53 -140.79,314.86 -189.23,476.76 -178.88,597.66 -225.93,1014.38 -317.92,1628.35l-4317.55 8.78c-117.31,-613.44 -64.19,-974.1 -70.15,-1587.25 -227.73,672.5 -265.42,787.46 -311.94,1586.97l-292.54 0.92z"/>
   <path class="fil0" d="M5668.25 18219.8l58.49 -688.28 -1594.72 -4243.89 313.08 56.3 5.35 -694.07c807.6,-26.82 1619.62,65.16 2403.62,152.85 361.32,-559.9 2439.47,-1630.59 3499.3,-1784.19 243.31,-144.5 2088.05,-520.85 2415.89,-472.75l153.83 -113.21 3.44 -269.72c-474.61,-185.66 -1160.25,-947.76 -1442.94,-1412.09 -395.95,-650.35 -601.09,-1292.52 -725.21,-2186.66 -140.73,235.01 -243.2,568.96 -399.05,822.73 -602.2,980.69 -1226.51,1032.58 -2266.44,1240.17 -1352.21,269.9 -2108.09,852.26 -2963.09,1709.19 -2057.98,2062.66 -1173.51,5345.54 -1256.02,7882.18l1794.47 1.44z"/>
   <path class="fil1" d="M5726.74 17531.52c22.33,93.51 205.01,485.75 267.93,650.74 95.56,250.54 188.57,489.65 282.31,739.93 177.95,475.09 416.09,998.73 557.48,1468.99 300.09,-5.77 2435.1,-1142.71 2807.4,-1358.52 370.13,-214.52 400.92,-143.45 381.99,-666.93 -25.38,-702.44 -281.03,-2469.61 -249.06,-2752.27 1173.89,-330.45 1075.17,1807.64 1784.31,2387.07l311.2 -128.15 -802.89 -3216.37 -6622.31 -1312.08 -313.08 -56.3 1594.72 4243.89z"/>
   <path class="fil3" d="M6834.46 20391.18c-143.39,187.91 -411.03,222.69 -605.42,466.72l7233.1 6.4c95.94,-126.62 1425.48,-937.13 1680.21,-1099.3 287.06,-182.76 574.33,-369.47 808.37,-554.84 148.88,-117.92 625.78,-570.66 586.62,-744.27 -345.66,178.8 -1990.85,1401.82 -2341.96,1397.84 126.42,-361.83 2302.25,-1052.51 2820.69,-2333.96 -190.55,78.19 -578.6,377.65 -770.59,514.98 -272.74,195.06 -2146.8,1495.81 -2388.04,1343.55 76.38,-94.67 1277.73,-741.66 1634.79,-978.86 285.7,-189.79 511.17,-356.21 774.95,-537.37 232.02,-159.34 597.27,-376.22 783.21,-569.28 -624.31,-154.91 -1498.35,196.78 -1985.88,436.77l-1238.88 658.73c-82.31,48.87 -134.76,93.02 -212.02,134.46l-232.97 28.12c88.57,-133.17 237.37,-188.42 382.97,-273.7 142.59,-83.48 274.8,-147.44 407.84,-253.86l1285.41 -1361.89c161.33,-169.48 309.06,-267.11 140.32,-540.93 -599.68,-145.18 -3223.36,1397.38 -3642.33,1698.26l-84.55 43.63 -311.2 128.15c-709.14,-579.43 -610.42,-2717.52 -1784.31,-2387.07 -31.97,282.66 223.68,2049.83 249.06,2752.27 18.93,523.48 -11.86,452.41 -381.99,666.93 -372.3,215.81 -2507.31,1352.75 -2807.4,1358.52z"/>
   <path class="fil4" d="M13998.99 13313.9c816.08,-334.18 2128.51,-442.79 3079.66,-415.03 -241.34,-1185.96 158.25,-1338.29 633.34,-1857.45 241.38,-263.76 511.17,-380.87 678.07,-586l588.13 -678.97c133.98,-138.82 475.24,-521.49 531.59,-731.47 325.13,-1211.43 -740.65,-2230.17 -1482.49,-2152.59 74.38,117.13 180.51,163 273.44,249.97 125.84,117.77 153.93,149.22 231,254.53 92.13,125.86 337.28,413.68 344.16,574.26 -270.95,14.99 -874.74,-1520.7 -1425.13,-799.71 80.18,187.04 782.98,657.66 684.77,1013.77 -230.89,-104.23 -195.39,-422.64 -583.93,-733.55 -384.56,-307.72 -613.19,-145.77 -759.62,255.17l60.65 46.98c184.37,131 195.76,95.24 378.74,311.97 102.28,121.16 283,316.5 212.07,469.4 -114.44,-54.29 -78.7,-51.74 -197.17,-241.47 -407.11,-651.92 -1095.94,-666.96 -961.65,424.82 155.59,-84.89 219.03,-217.39 403.94,-208.14 -47.57,224.29 -875.6,594.57 -1136.92,760.75 -1647.7,1047.8 -1686.26,1793.77 -1552.65,4042.76z"/>
   <path class="fil2" d="M6854.07 12802.71c1204.57,206.35 2416.39,441.11 3431.85,1088.83 139.28,88.84 327.81,232.99 416.95,313.8 160.3,145.3 276.96,242.11 362.26,419.27 163.64,17.96 54.79,-22.49 127.15,37.32l194.82 -29.85c-281.44,37.63 -55.25,19.54 -147.27,-68.42 458.31,-176.71 1373.84,-888.15 2667.1,-1223.77l-70.35 -563.98c-773.21,-233.03 -1261.5,-248.28 -1996.35,-632.72 -328.14,-171.65 -538.25,-309.86 -806.47,-508.95 -242.18,-179.78 -440.04,-481.94 -680.39,-615.72 -1059.83,153.6 -3137.98,1224.29 -3499.3,1784.19z"/>
   <path class="fil5" d="M4445.1 13343.93l6622.31 1312.08 -2.28 -31.4c-85.3,-177.16 -201.96,-273.97 -362.26,-419.27 -89.14,-80.81 -277.67,-224.96 -416.95,-313.8 -1015.46,-647.72 -2227.28,-882.48 -3431.85,-1088.83 -784,-87.69 -1596.02,-179.67 -2403.62,-152.85l-5.35 694.07z"/>
   <path class="fil5" d="M13998.99 13313.9l-92.06 25.99c-1293.26,335.62 -2208.79,1047.06 -2667.1,1223.77 92.02,87.96 -134.17,106.05 147.27,68.42l6694.3 -940.42c-31.32,-227.53 -48.98,-519.08 -150.14,-697.11l-750.92 -91.05 -101.69 -4.63c-951.15,-27.76 -2263.58,80.85 -3079.66,415.03z"/>
   <path class="fil3" d="M10353.37 11018.52c240.35,133.78 438.21,435.94 680.39,615.72 268.22,199.09 478.33,337.3 806.47,508.95 734.85,384.44 1223.14,399.69 1996.35,632.72 -19.26,-313.54 -21.83,-620.05 -3.94,-933.86 16.92,-296.32 105.16,-603.58 87.46,-880.93 -148.08,-80.29 -475.49,-28.94 -687.08,-113.97 -249.77,-100.37 -271.6,-178.01 -463.76,-301.38 -327.84,-48.1 -2172.58,328.25 -2415.89,472.75z"/>
   <path class="fil2" d="M15377.38 20851.66l5455.89 -6.73c-153.15,-982.34 -693.62,-3744.63 -1229.24,-4638.85 -79.11,-132.08 -90.11,-139.75 -194.71,-244.39l-203.75 -189.97c50.95,674.23 1099.44,3735.31 1095.72,4229.03 -829.6,132.36 -1644.95,274.72 -2465.4,406.47 -418.53,67.19 -834.37,141.65 -1256.83,208.77 -193.81,30.77 -1038.51,145.6 -1201.68,235.67z"/>
   <path class="fil3" d="M17181.69 12752.97c525.98,-81.02 1254.15,-365.44 1646.62,-596.34 240.55,-141.51 449.92,-276.41 650.63,-418.65 253.29,-179.48 407.12,-388.98 657.71,-494.73 -383.74,-176.1 -1126.67,-360.8 -1586.77,-462 -278.05,-61.16 -334.57,-34.69 -499.69,112.6 -819.5,731.03 -974.63,852.83 -868.5,1859.12z"/>
   <path class="fil2" d="M5668.25 18219.8l-246.99 2633.46 -2249.39 0c408.04,124.77 2351.12,-23.02 2963.02,17.66 912.72,60.66 2031.43,15.1 2985.5,15.1 710.9,0 5836.61,66.57 6036.07,-34.54l-1694.32 12.82 -7233.1 -6.4c194.39,-244.03 462.03,-278.81 605.42,-466.72 -141.39,-470.26 -379.53,-993.9 -557.48,-1468.99 -93.74,-250.28 -186.75,-489.39 -282.31,-739.93 -62.92,-164.99 -245.6,-557.23 -267.93,-650.74l-58.49 688.28z"/>
   <path class="fil6" d="M14171.45 18033.31c-133.04,106.42 -265.25,170.38 -407.84,253.86 -145.6,85.28 -294.4,140.53 -382.97,273.7l232.97 -28.12c77.26,-41.44 129.71,-85.59 212.02,-134.46l1238.88 -658.73c487.53,-239.99 1361.57,-591.68 1985.88,-436.77 -185.94,193.06 -551.19,409.94 -783.21,569.28 -263.78,181.16 -489.25,347.58 -774.95,537.37 -357.06,237.2 -1558.41,884.19 -1634.79,978.86 241.24,152.26 2115.3,-1148.49 2388.04,-1343.55 191.99,-137.33 580.04,-436.79 770.59,-514.98 -518.44,1281.45 -2694.27,1972.13 -2820.69,2333.96 351.11,3.98 1996.3,-1219.04 2341.96,-1397.84 80.77,-134.64 727.15,-803.96 709.5,-1218.17 -998.9,-435.11 -2311.91,484.25 -3075.39,785.59z"/>
   <path class="fil7" d="M19205.57 15771.72l203.75 189.97c104.6,104.64 115.6,112.31 194.71,244.39 535.62,894.22 1076.09,3656.51 1229.24,4638.85l-27.63 0.02c115.51,-9.38 54.76,74.53 163.88,-45.14 -191.31,-1018.41 -389.27,-1956.1 -634.31,-2941.98 -240.92,-969.29 -541.34,-1947.29 -1194.91,-2293.77l65.27 207.66z"/>
   <path class="fil8" d="M12769.26 10545.77c192.16,123.37 213.99,201.01 463.76,301.38 211.59,85.03 539,33.68 687.08,113.97 81.52,-97.21 60.09,-87.06 112.11,-239.67 40.43,-118.64 73.13,-206.93 105.98,-322.64 -224.4,59.06 -489.61,144.79 -718.37,74.31 -47.38,-14.61 -219.55,-113.82 -258.37,-137.7l-234.92 -172.58 -3.44 269.72 -153.83 113.21z"/>
   <path class="fil9" d="M11870.3 17872.38l84.55 -43.63 -762.57 -3166.82c-72.36,-59.81 36.49,-19.36 -127.15,-37.32l2.28 31.4 802.89 3216.37z"/>
   <path class="fil10" d="M13157.73 7512.14c95.17,33.29 85.48,38.04 197.79,5.55 200.47,-58.01 185.07,-121.93 204.77,-151.56 -209.78,-108.8 -96.86,69.53 -320.14,6.83 -118.23,-518.94 46.78,-1407.47 -128.59,-1542.37 -115.6,174.81 -55.14,1479.79 46.17,1681.55z"/>
   <path class="fil11" d="M14366.16 6299.77c44.9,610.83 1087.98,671.45 1251.75,-64.56 -324.7,135.21 -311.18,401.12 -618.88,433.64 -314.83,33.28 -369.31,-275.24 -632.87,-369.08z"/>
   <path class="fil6" d="M11322.93 6308.03c15.69,144.11 426.78,815 1013.26,284.11 108.87,-98.56 211.23,-172.9 241.74,-349.96 -270.79,49.61 -253.68,363.82 -601.57,424.45 -331.45,57.75 -438.15,-318.5 -653.43,-358.6z"/>
   <path class="fil6" d="M13222.49 8243.3c241.12,501.86 1064.89,49.31 781.01,-268.79 -107.69,120.54 -25.13,91.9 -238.16,362.15 -333.99,9.92 -388.76,-156.56 -542.85,-93.36z"/>
   <path class="fil6" d="M11181.13 5453.47c223.01,0.74 133.76,-92.08 310.14,-194.23 176.77,-102.38 246.74,-21.62 388.8,-132.05 -191.61,-170.58 -626.72,31.75 -698.94,326.28z"/>
   <path class="fil10" d="M14679.35 5086.01c133.63,45.78 200.69,-3.57 373.33,42.28 138.23,36.72 147.09,93.37 310.26,143.91 -34.25,-161.09 -107.44,-215.97 -280.06,-265.75 -150.53,-43.42 -379.22,-70.66 -403.53,79.56z"/>
  </g>
 </g>
</svg>
