<?xml version="1.0" encoding="UTF-8"?>
<!DOCTYPE svg PUBLIC "-//W3C//DTD SVG 1.0//EN" "http://www.w3.org/TR/2001/REC-SVG-20010904/DTD/svg10.dtd">
<!-- Creator: CorelDRAW 2021 (64 Bit) -->
<svg xmlns="http://www.w3.org/2000/svg" xml:space="preserve" width="297mm" height="210mm" version="1.0" style="shape-rendering:geometricPrecision; text-rendering:geometricPrecision; image-rendering:optimizeQuality; fill-rule:evenodd; clip-rule:evenodd"
viewBox="0 0 29700 21000"
 xmlns:xlink="http://www.w3.org/1999/xlink"
 xmlns:xodm="http://www.corel.com/coreldraw/odm/2003">
 <defs>
  <style type="text/css">
   <![CDATA[
    .fil1 {fill:#2F2444}
    .fil13 {fill:#312646}
    .fil6 {fill:#322649}
    .fil12 {fill:#342645}
    .fil10 {fill:#34274A}
    .fil8 {fill:#352847}
    .fil11 {fill:#372847}
    .fil9 {fill:#F5E9E1}
    .fil7 {fill:#F8EAE2}
    .fil5 {fill:#F9EDE5}
    .fil2 {fill:#FE9292}
    .fil0 {fill:#FEBDFE}
    .fil4 {fill:#FEFCFE}
    .fil3 {fill:#FF9393}
   ]]>
  </style>
 </defs>
 <g id="Camada_x0020_1">
  <metadata id="CorelCorpID_0Corel-Layer"/>
  <g id="_2555624240960">
   <path class="fil0" d="M6067.26 17879.53c71.99,-121.38 96.91,-330.38 150.44,-481.7 535.83,-1514.97 1752.08,-1503.92 3182.06,-1124.57l-715.15 -919.8c-157.86,-182.18 -717.99,-647.32 -750.69,-837.69 155.23,16.38 169.88,69.65 276.4,174.62 387.82,382.18 1045.66,1153.56 1344.41,1618.47l97.85 14.01c52.34,-455.23 482.08,-3689.71 594.68,-3827.49 74.2,93.64 55.8,56.84 34.63,223.48l-106.62 704.32c-103.96,732.56 -369.71,2262.75 -397.58,2819.52 26.45,157.86 151.48,118.57 336.95,136.51 148.01,14.31 295.02,32.46 446.56,49.42 277.98,31.15 631.65,127.98 875.59,31.07 462.99,-183.91 954.01,-492.46 1495.69,-295.48l-564.81 -2320.35 2385.83 7.95 -57.23 -4857.88c-43.77,162.99 -486.14,1290.46 -567.95,1388.28 -108.74,-57.42 -2.85,15.46 -73,-59.27 -21.15,-22.56 -37.13,-46.58 -54.68,-73.84 -366.48,-569.1 -1000,-1743.01 -1393.86,-2395.76 -590.21,18.91 -2534.18,880.82 -3008.08,1156.09 -890.97,517.52 -1751.39,1130.26 -2225.4,1908.09 -783.82,1286.17 -1392.43,5149.47 -1306.04,6962z"/>
   <path class="fil0" d="M14857.77 13858.82l1940.87 -19.85 -154.55 731.65c312.7,-187.2 722.07,-465.23 1053.47,-86.24 346.48,396.23 233.15,1660.36 -468.74,2198.63 -178.06,136.56 -297.62,191.26 -549.71,217.11l-485.08 55.94c-134.39,55.93 -77.87,35.3 -137.69,100.45l58.46 7.15c6.27,-0.21 22.26,1.05 30.12,0.46l1067.03 -227.43c156.28,-24.95 865.61,-126.37 1006.28,-101.39 169.45,30.1 91.7,70.08 282.11,134.57l-124.41 -4176.35c23.2,-165.37 15.77,-83.17 55.29,-138.9 93.42,154.41 71.35,878.04 76.77,1067.06 23.77,829.43 124.4,2743.66 85.95,3346.05 198.15,172.45 440.79,342.59 684.78,532.59 238.01,185.34 449.13,350.67 699.75,522.96l715.77 -8.58c-162.62,-1800.01 -951.44,-5705 -1835.7,-7307.6 -120.09,-217.65 -229.68,-354.16 -386.05,-540.96 -704.26,-841.25 -1668.23,-1589.8 -2837.03,-1783.3l-300.47 1891.44c-61.41,166.75 2.76,39.74 -67.67,108.75 -184.32,-213.03 -306.8,-977.09 -452.77,-1281.5l43.22 4757.29z"/>
   <path class="fil1" d="M10818.19 20421.46c745.5,-108.6 1081.43,-304.19 2144.94,-369.44 764.89,-46.93 1710.94,-33.16 2457.34,44.96 -154.84,108.58 -891.2,114.51 -1122.93,130.38 -384.07,26.34 -769.16,50.27 -1151.08,76.43 -415.49,28.47 -2087.26,205.62 -2328.27,117.67zm163.19 -156.11c642.46,-122.75 1049.76,-614.36 3020.89,-481.52 184.62,12.43 889.78,67.55 1070.56,173.27 -744.9,17.87 -1446.45,-57.85 -2211.73,1.77 -660.63,51.48 -1722.69,301.4 -1879.72,306.48zm5102.93 -155.46c189.5,-38.88 693.43,-223.27 959.2,-284.07 827.34,-189.26 1447.62,-238.51 2301.92,-157.76 256.52,24.25 980.35,174.31 1094.11,172.27l-4355.23 269.56zm-5571.71 254.81c647.64,-792.85 1916.93,-934.33 2976.63,-832.19 353.65,34.1 853.94,174.66 1122.7,186.37 -586.72,45.93 -1096.17,-170.88 -2251.58,28.04 -1027.3,176.88 -1088.27,335.8 -1847.75,617.78zm6119.93 -559.19c383.13,-102.63 789.01,-402.71 1585.82,-453.42 890.32,-56.65 1464.73,251.96 1804.2,281.49 -972.26,26.29 -1153.62,-249.87 -2614.67,15.02 -240.9,43.68 -564.36,146.28 -775.35,156.91zm-228.61 -28.07c414.73,-424.84 1402.41,-977.67 2148.52,-1223.97 256.36,-84.64 441.51,-166.16 628.51,-28.73l916.13 772.64c121.55,106.51 356.07,273.07 449.22,391.07 -693.71,-189.98 -1306.13,-439.02 -2114,-443.65 -889.03,-5.1 -1334.16,311.75 -2028.38,532.64zm-3134.4 -1374.73c251.02,-211.53 432.8,-256.04 424.34,-706.37 173.46,27.71 317.07,62.81 483.64,93.47 383.2,70.51 376.76,195.32 821.55,826.49 159.11,225.78 791.46,1174.96 864.99,1369.02 -1365.02,-366.44 -2924.02,-929.09 -4487.63,-339.39 -433.19,163.38 -892.17,484.68 -1031.36,782.81 -160.73,-113.97 -966.11,-1399.6 -1037.64,-1528.63 -121.24,-97.28 -1487.14,-236.59 -1772.32,-289.31 -291.51,-53.87 -1088.43,-250.64 -1352.3,-416.58 -176.95,-111.29 -98.12,5.26 -118.73,-173.72l-1449.13 -9.95 21.69 2672.08 17886.57 0 98.41 0 4.19 -2672.39 -1931.55 4.46 -715.77 8.58 331.48 287.73c-1539.09,-144.27 -2761.43,376.12 -3897.31,1309.3 -182.8,150.19 -249.05,227.26 -445.9,345.3 -162.98,-456.08 -1260.08,-1874.47 -1362.43,-2103.51 429.16,17.08 806.85,1.49 690.52,-515.32 -385.42,-124.9 -771.49,-237.58 -1160.21,-356.01 -224.37,-68.34 -1038.33,-373.01 -1181.29,-287.81 189.07,218.65 1986.67,513.48 2264.84,759.34l-51.89 266.32c-796.15,204.28 -2316.24,-496.86 -2507.24,-444.68 112.2,200.21 676.35,297.78 919.56,377.03 38.61,344.66 -215.68,692.86 -456.83,601.04 -187.76,-71.5 -611.53,-373.35 -754.43,-293.49 110.3,144.41 668.77,391.07 902.18,434.19z"/>
   <path class="fil2" d="M15843.71 5965.2c113.35,43.25 74.23,24.36 148.2,102.68 59.08,62.57 29.44,51.38 116.5,117.73l332.42 -81.67 -117.83 169.33c-306.24,49.26 -428.51,-45.61 -479.29,-308.07zm586.23 -1767.65c116.86,41.59 86.68,138.44 97.74,312.75 19.77,311.2 111.64,1002.63 47.38,1189.11 -383.42,54.27 -260.08,-13.75 -304.33,-49 116.65,-69.76 97.85,-10.01 222.25,-84.38 -19.88,-291.23 -118.04,-1142.46 -63.04,-1368.48zm-3693.92 524.79c263.75,-150.88 513.87,24.9 640.4,161.78 91.48,98.96 192.65,329.16 203.76,435.69 24.64,236.46 -12.33,116.74 -42.46,150.54 -104.78,-156.74 -21.76,-201.32 -168.74,-380.41 -214.42,-3.57 -602.43,278.46 -403.36,38.44 75.05,-90.51 238.52,-129.28 344.92,-157.68 -318.63,-358.57 -408.88,-99.32 -574.52,-248.36zm4493.56 -22.15c68.01,-106.15 9.55,-57.21 104.82,-157.41 16.14,26.28 105.82,-89.43 24.92,156.03 -16.2,49.15 -42.57,70.3 -72.01,103.68 -281.41,319.19 -538.28,-76.93 -459.14,-247.75 125.49,77.62 196.98,464.58 401.41,145.45zm-1791.89 138.06c258.24,11.86 232.42,-220.65 399.21,-263.66 30.23,498.93 -896.05,481.04 -771.12,-89.91 134.79,85.38 136.37,342.75 371.91,353.57zm1564.47 -1158.64c39.07,-44.28 -83.92,-96.33 155.49,-61.25 146.18,21.43 241.72,109.21 244.23,243.37 -79.05,-9.07 -260.57,-129.89 -399.72,-182.12zm-1906.25 162.48c64.41,-269.14 428.17,-347.69 572.33,-216.58 -113.35,89.81 -177.77,14.76 -323.35,79.07 -190.11,83.98 -5.29,95.28 -248.98,137.51zm-2135.36 2910.6l-50.28 372.64c284.93,321.96 1557.74,1252.76 1774.36,1540.69l124.34 -23.14c177.85,-198.58 404.8,-381.64 570.15,-600.05 -567.88,-167.04 -1175.41,-578.08 -1335.31,-1099.3 155.2,82.92 250.72,260.08 668.96,485.49 215.1,115.93 638.61,264.64 775.14,352.62 329.31,28.51 300.34,158.34 560.06,-42.71 1332.2,-1031.24 1355.35,-1745.29 1650.23,-3349.06 72.23,-899.84 163.88,-1343.79 -230.4,-2119.42 -220.49,-433.78 -736.11,-1024.82 -1231.68,-1173.54 -48.48,374.81 -128.92,818.37 -276.81,1097.72 -240.6,12.66 -359,-28.7 -584.66,26.99 -146.01,322.74 253.59,766.72 -45,1003.48 -309.33,245.29 -596.81,-253.85 -919.33,-163.79 -189.19,404.68 412.59,646.33 326.71,1090.93 -41.86,216.75 -194.11,308.05 -403.47,351.6 -316.02,65.73 -250.72,126.24 -413.1,310.26 -126.36,-356.91 -873.54,-1000.38 -1246.88,-449.5 -355.42,524.47 -19.16,1258.1 447.2,1410.41l-160.23 977.68z"/>
   <path class="fil3" d="M6067.26 17879.53l-3.2 140.97c20.61,178.98 -58.22,62.43 118.73,173.72 263.87,165.94 1060.79,362.71 1352.3,416.58 285.18,52.72 1651.08,192.03 1772.32,289.31 127.81,-84.16 801.78,-1.04 1030.53,10.51 681.5,34.41 1591.92,51.12 2268.29,11.19 583.77,-34.45 455.47,-142.17 663.29,-519.1 -233.41,-43.12 -791.88,-289.78 -902.18,-434.19 142.9,-79.86 566.67,221.99 754.43,293.49 241.15,91.82 495.44,-256.38 456.83,-601.04 -243.21,-79.25 -807.36,-176.82 -919.56,-377.03 191,-52.18 1711.09,648.96 2507.24,444.68l51.89 -266.32c-278.17,-245.86 -2075.77,-540.69 -2264.84,-759.34 142.96,-85.2 956.92,219.47 1181.29,287.81 388.72,118.43 774.79,231.11 1160.21,356.01l121.4 -42.83c33.4,-377.47 -24.13,-383.59 -380.15,-495.46 -248.87,-78.18 -457.51,-140.57 -709.7,-219.93 -466.65,-146.86 -932.23,-286.22 -1393.9,-424.34 -541.68,-196.98 -1032.7,111.57 -1495.69,295.48 -243.94,96.91 -597.61,0.08 -875.59,-31.07 -151.54,-16.96 -298.55,-35.11 -446.56,-49.42 -185.47,-17.94 -310.5,21.35 -336.95,-136.51 -51.17,91.03 -13.78,53.42 -125.11,80.17l-97.85 -14.01 -154.97 -35.6c-1429.98,-379.35 -2646.23,-390.4 -3182.06,1124.57 -53.53,151.32 -78.45,360.32 -150.44,481.7z"/>
   <path class="fil1" d="M12136.94 3399.31c181.28,272.06 153.92,1485.6 161.4,1871.52 6.33,326.48 38.36,639.05 172.81,896.8 117.36,224.98 309.02,491.36 489.4,585.06l160.23 -977.68c-466.36,-152.31 -802.62,-885.94 -447.2,-1410.41 373.34,-550.88 1120.52,92.59 1246.88,449.5 162.38,-184.02 97.08,-244.53 413.1,-310.26 209.36,-43.55 361.61,-134.85 403.47,-351.6 85.88,-444.6 -515.9,-686.25 -326.71,-1090.93 322.52,-90.06 610,409.08 919.33,163.79 298.59,-236.76 -101.01,-680.74 45,-1003.48 225.66,-55.69 344.06,-14.33 584.66,-26.99 147.89,-279.35 228.33,-722.91 276.81,-1097.72 495.57,148.72 1011.19,739.76 1231.68,1173.54 394.28,775.63 302.63,1219.58 230.4,2119.42l174.81 -44.4c300.12,-75.34 589.93,-326.57 659.42,-620.92 122.5,-518.78 -230.41,-658.59 -391.13,-851.34 -36.54,-410.44 274.57,-477.11 345.83,-875.73 98.42,-550.52 -420.74,-488.35 -597.78,-569.88 -44.36,-290.68 286.75,-740.34 -95.39,-1004.06 -264.86,-182.79 -756.67,-45.93 -1074.02,10.15 -353.91,62.54 -730.49,149.3 -1078.15,191.93 -848.2,104 -2603.09,169.84 -3164.33,673.6 -566.71,508.68 -360.03,1292.52 -340.52,2100.09z"/>
   <path class="fil4" d="M16109.03 16846.18c90.12,-535.5 257.96,-1124.6 384.12,-1659.37 184.03,-780.12 870.23,-915.51 1116.66,-614.75 297.45,363.02 97.6,1272.57 -105.48,1627.77 -386,675.07 -913.69,544.37 -1395.3,646.35zm519.93 -2892.63c-8.69,7.33 -20.85,16.19 -27.29,20.51 -6.4,4.27 -19.5,14.7 -27.47,19.74l-402.21 154.55c-153.64,46.86 -302.26,89.44 -465.82,124.7 -907.05,195.58 -2559.66,141.49 -3135.75,-325.26l4058.54 5.76zm-3696.48 2210.67c461.67,138.12 927.25,277.48 1393.9,424.34 252.19,79.36 460.83,141.75 709.7,219.93 356.02,111.87 413.55,117.99 380.15,495.46 77.41,54.5 -76.76,76.39 141.33,-6.6 47.14,-17.94 121.06,-56.76 180.25,-79.03 135.49,-50.98 239.8,-53.16 318.53,-161.81 59.82,-65.15 3.3,-44.52 137.69,-100.45l485.08 -55.94c252.09,-25.85 371.65,-80.55 549.71,-217.11 701.89,-538.27 815.22,-1802.4 468.74,-2198.63 -331.4,-378.99 -740.77,-100.96 -1053.47,86.24l154.55 -731.65 -1940.87 19.85 -104.27 -7 -2385.83 -7.95 564.81 2320.35z"/>
   <path class="fil5" d="M16056.34 17056.51c-78.73,108.65 -183.04,110.83 -318.53,161.81 -59.19,22.27 -133.11,61.09 -180.25,79.03 -218.09,82.99 -63.92,61.1 -141.33,6.6l-121.4 42.83c116.33,516.81 -261.36,532.4 -690.52,515.32 102.35,229.04 1199.45,1647.43 1362.43,2103.51 196.85,-118.04 263.1,-195.11 445.9,-345.3 1135.88,-933.18 2358.22,-1453.57 3897.31,-1309.3l-331.48 -287.73c-250.62,-172.29 -461.74,-337.62 -699.75,-522.96 -243.99,-190 -486.63,-360.14 -684.78,-532.59 -80.77,-51.9 -21.59,66.9 -93.6,-97.86 -190.41,-64.49 -112.66,-104.47 -282.11,-134.57 -140.67,-24.98 -850,76.44 -1006.28,101.39l-1067.03 227.43c-7.86,0.59 -23.85,-0.67 -30.12,-0.46l-58.46 -7.15z"/>
   <path class="fil5" d="M13269.52 18402.71c-207.82,376.93 -79.52,484.65 -663.29,519.1 -676.37,39.93 -1586.79,23.22 -2268.29,-11.19 -228.75,-11.55 -902.72,-94.67 -1030.53,-10.51 71.53,129.03 876.91,1414.66 1037.64,1528.63 139.19,-298.13 598.17,-619.43 1031.36,-782.81 1563.61,-589.7 3122.61,-27.05 4487.63,339.39 -73.53,-194.06 -705.88,-1143.24 -864.99,-1369.02 -444.79,-631.17 -438.35,-755.98 -821.55,-826.49 -166.57,-30.66 -310.18,-65.76 -483.64,-93.47 8.46,450.33 -173.32,494.84 -424.34,706.37z"/>
   <path class="fil0" d="M16109.03 16846.18c481.61,-101.98 1009.3,28.72 1395.3,-646.35 203.08,-355.2 402.93,-1264.75 105.48,-1627.77 -246.43,-300.76 -932.63,-165.37 -1116.66,614.75 -126.16,534.77 -294,1123.87 -384.12,1659.37z"/>
   <path class="fil0" d="M12672.11 7789.26c175.4,185.8 544.34,913.87 707.23,1184.07 230.09,381.68 529.99,848.39 715.5,1224.62l589.79 -1531.93c-216.62,-287.93 -1489.43,-1218.73 -1774.36,-1540.69l-83.92 -15.78 -154.24 679.71z"/>
   <path class="fil5" d="M16403.92 19777.44c694.22,-220.89 1139.35,-537.74 2028.38,-532.64 807.87,4.63 1420.29,253.67 2114,443.65 -93.15,-118 -327.67,-284.56 -449.22,-391.07l-916.13 -772.64c-187,-137.43 -372.15,-55.91 -628.51,28.73 -746.11,246.3 -1733.79,799.13 -2148.52,1223.97z"/>
   <path class="fil6" d="M12606.78 7853.35c393.86,652.75 1027.38,1826.66 1393.86,2395.76 17.55,27.26 33.53,51.28 54.68,73.84 70.15,74.73 -35.74,1.85 73,59.27 81.81,-97.82 524.18,-1225.29 567.95,-1388.28l57.23 4857.88 104.27 7 -43.22 -4757.29c145.97,304.41 268.45,1068.47 452.77,1281.5 70.43,-69.01 6.26,58 67.67,-108.75l300.47 -1891.44 -62.15 -55.52c-126.58,212.6 -225.05,1376.16 -329.03,1748.39l-435.31 -1432.83 -124.34 23.14 -589.79 1531.93c-185.51,-376.23 -485.41,-842.94 -715.5,-1224.62 -162.89,-270.2 -531.83,-998.27 -707.23,-1184.07 -100.27,-11.76 -35.88,-39.64 -65.33,64.09z"/>
   <path class="fil1" d="M16628.96 13953.55l-4058.54 -5.76c576.09,466.75 2228.7,520.84 3135.75,325.26 163.56,-35.26 312.18,-77.84 465.82,-124.7l402.21 -154.55c7.97,-5.04 21.07,-15.47 27.47,-19.74 6.44,-4.32 18.6,-13.18 27.29,-20.51z"/>
   <path class="fil7" d="M20439.54 19840.33c-113.76,2.04 -837.59,-148.02 -1094.11,-172.27 -854.3,-80.75 -1474.58,-31.5 -2301.92,157.76 -265.77,60.8 -769.7,245.19 -959.2,284.07l4355.23 -269.56z"/>
   <path class="fil5" d="M10818.19 20421.46c241.01,87.95 1912.78,-89.2 2328.27,-117.67 381.92,-26.16 767.01,-50.09 1151.08,-76.43 231.73,-15.87 968.09,-21.8 1122.93,-130.38 -746.4,-78.12 -1692.45,-91.89 -2457.34,-44.96 -1063.51,65.25 -1399.44,260.84 -2144.94,369.44z"/>
   <path class="fil0" d="M15379.12 8042.83c-165.35,218.41 -392.3,401.47 -570.15,600.05l435.31 1432.83c103.98,-372.23 202.45,-1535.79 329.03,-1748.39 -2.16,-77.05 1.37,-158.43 -12.01,-235.26 -33.32,-191.4 7.34,-116.61 -85.62,-133.77l-96.56 84.54z"/>
   <path class="fil7" d="M10512.6 20364.7c759.48,-281.98 820.45,-440.9 1847.75,-617.78 1155.41,-198.92 1664.86,17.89 2251.58,-28.04 -268.76,-11.71 -769.05,-152.27 -1122.7,-186.37 -1059.7,-102.14 -2328.99,39.34 -2976.63,832.19z"/>
   <path class="fil7" d="M10981.38 20265.35c157.03,-5.08 1219.09,-255 1879.72,-306.48 765.28,-59.62 1466.83,16.1 2211.73,-1.77 -180.78,-105.72 -885.94,-160.84 -1070.56,-173.27 -1971.13,-132.84 -2378.43,358.77 -3020.89,481.52z"/>
   <path class="fil8" d="M18500.34 16869.87c72.01,164.76 12.83,45.96 93.6,97.86 38.45,-602.39 -62.18,-2516.62 -85.95,-3346.05 -5.42,-189.02 16.65,-912.65 -76.77,-1067.06 -39.52,55.73 -32.09,-26.47 -55.29,138.9l124.41 4176.35z"/>
   <path class="fil9" d="M16632.53 19805.51c210.99,-10.63 534.45,-113.23 775.35,-156.91 1461.05,-264.89 1642.41,11.27 2614.67,-15.02 -339.47,-29.53 -913.88,-338.14 -1804.2,-281.49 -796.81,50.71 -1202.69,350.79 -1585.82,453.42z"/>
   <path class="fil10" d="M9652.58 16322.87c111.33,-26.75 73.94,10.86 125.11,-80.17 27.87,-556.77 293.62,-2086.96 397.58,-2819.52l106.62 -704.32c21.17,-166.64 39.57,-129.84 -34.63,-223.48 -112.6,137.78 -542.34,3372.26 -594.68,3827.49z"/>
   <path class="fil1" d="M15379.12 8042.83l96.56 -84.54 12.23 -176.65c-136.53,-87.98 -560.04,-236.69 -775.14,-352.62 -418.24,-225.41 -513.76,-402.57 -668.96,-485.49 159.9,521.22 767.43,932.26 1335.31,1099.3z"/>
   <path class="fil8" d="M9399.76 16273.26l154.97 35.6c-298.75,-464.91 -956.59,-1236.29 -1344.41,-1618.47 -106.52,-104.97 -121.17,-158.24 -276.4,-174.62 32.7,190.37 592.83,655.51 750.69,837.69l715.15 919.8z"/>
   <path class="fil11" d="M16492.98 5566.03c-124.4,74.37 -105.6,14.62 -222.25,84.38 44.25,35.25 -79.09,103.27 304.33,49 64.26,-186.48 -27.61,-877.91 -47.38,-1189.11 -11.06,-174.31 19.12,-271.16 -97.74,-312.75 -55,226.02 43.16,1077.25 63.04,1368.48z"/>
   <path class="fil8" d="M12736.02 4722.34c165.64,149.04 255.89,-110.21 574.52,248.36 -106.4,28.4 -269.87,67.17 -344.92,157.68 -199.07,240.02 188.94,-42.01 403.36,-38.44 146.98,179.09 63.96,223.67 168.74,380.41 30.13,-33.8 67.1,85.92 42.46,-150.54 -11.11,-106.53 -112.28,-336.73 -203.76,-435.69 -126.53,-136.88 -376.65,-312.66 -640.4,-161.78z"/>
   <path class="fil12" d="M15836.9 4574.59c-166.79,43.01 -140.97,275.52 -399.21,263.66 -235.54,-10.82 -237.12,-268.19 -371.91,-353.57 -124.93,570.95 801.35,588.84 771.12,89.91z"/>
   <path class="fil12" d="M17334.4 4542.78c-95.27,100.2 -36.81,51.26 -104.82,157.41 -204.43,319.13 -275.92,-67.83 -401.41,-145.45 -79.14,170.82 177.73,566.94 459.14,247.75 29.44,-33.38 55.81,-54.53 72.01,-103.68 80.9,-245.46 -8.78,-129.75 -24.92,-156.03z"/>
   <path class="fil12" d="M15991.91 6067.88c-73.97,-78.32 -34.85,-59.43 -148.2,-102.68 50.78,262.46 173.05,357.33 479.29,308.07l117.83 -169.33 -332.42 81.67c-87.06,-66.35 -57.42,-55.16 -116.5,-117.73z"/>
   <path class="fil12" d="M15095.91 3842.09c243.69,-42.23 58.87,-53.53 248.98,-137.51 145.58,-64.31 210,10.74 323.35,-79.07 -144.16,-131.11 -507.92,-52.56 -572.33,216.58z"/>
   <path class="fil13" d="M17002.16 3679.61c139.15,52.23 320.67,173.05 399.72,182.12 -2.51,-134.16 -98.05,-221.94 -244.23,-243.37 -239.41,-35.08 -116.42,16.97 -155.49,61.25z"/>
  </g>
 </g>
</svg>
