<?xml version="1.0" encoding="UTF-8"?>
<!DOCTYPE svg PUBLIC "-//W3C//DTD SVG 1.0//EN" "http://www.w3.org/TR/2001/REC-SVG-20010904/DTD/svg10.dtd">
<!-- Creator: CorelDRAW 2021 (64 Bit) -->
<svg xmlns="http://www.w3.org/2000/svg" xml:space="preserve" width="297mm" height="210mm" version="1.0" style="shape-rendering:geometricPrecision; text-rendering:geometricPrecision; image-rendering:optimizeQuality; fill-rule:evenodd; clip-rule:evenodd"
viewBox="0 0 29700 21000"
 xmlns:xlink="http://www.w3.org/1999/xlink"
 xmlns:xodm="http://www.corel.com/coreldraw/odm/2003">
 <defs>
  <style type="text/css">
   <![CDATA[
    .fil0 {fill:#2F2444}
    .fil9 {fill:#312545}
    .fil8 {fill:#352645}
    .fil10 {fill:#362947}
    .fil11 {fill:#452D48}
    .fil5 {fill:#4F3C78}
    .fil2 {fill:#A27CFF}
    .fil1 {fill:#F86656}
    .fil6 {fill:#FBEDE5}
    .fil7 {fill:#FC8079}
    .fil3 {fill:#FF9292}
    .fil4 {fill:#FFC05D}
   ]]>
  </style>
 </defs>
 <g id="Camada_x0020_1">
  <metadata id="CorelCorpID_0Corel-Layer"/>
  <path class="fil0" d="M15239.49 3415.04l1216.35 244.23c570.96,325.5 1419.04,356.53 2300.06,1644.22 558.41,816.17 818.86,1877.31 724.68,3090.65 -199.79,-139.15 -353.77,-299.14 -597.51,-465.29 -230.91,-157.39 -445.33,-290.61 -710.95,-391.72 -287.72,-604.49 -766.55,-708.2 -1043.3,-978.33 -279.07,-272.36 -415.9,-588.62 -1167.37,-791.57 -586.02,-158.27 -1236.36,-68.01 -1776.87,99.68 -972.43,301.7 -874.71,534.9 -1149.86,792.69 -123.76,-131.31 -291.02,-380.81 -412.23,-539.84 -132.49,-173.79 -278.06,-363.22 -399.05,-531.7 367.68,-176.21 605.42,-270.68 687.38,-707.95 69.31,-369.78 -60.38,-833.15 -229.03,-1104.55 -469.92,-756.26 -1423.58,-259.71 -1346.32,785.73 -751.79,-138.77 -1034.05,-637.93 -1092.48,-1453.96 -1314.93,296.02 -1547.94,-280.56 -2113.53,-522.89 16.79,577.01 63.32,892.02 -147.93,1417.85 -156.59,389.81 -390.95,703.81 -695.96,875.91 -38.52,-389.27 -165.92,-704.23 -345.26,-953.45 101.15,828.79 11.3,1304.88 -622.18,1866.52 -82.35,73 -86,49.34 -166.7,144.5 175.13,382.63 383.9,582.33 643.89,834.23 263.54,255.36 430.67,555.82 726.02,767.39 84.95,121.65 480.15,430.3 652.76,559.3 186.22,139.17 568.12,335.05 727.9,497.9 -751.96,415.48 -1543.14,907.23 -2114.91,1489.3 -436.98,444.84 -410.62,1145.91 -450.02,1794.83l-125.11 27.53c-583.94,-42.46 -784.51,-25.78 -1349.48,55.27 -114.81,-30.13 -86.6,70.86 -210.67,-387.37 -135.38,-500.1 -192.6,-1100.47 -60.43,-1598.25 75.01,-487.49 264.65,-672.39 384.36,-1037.39l134.71 -208.24 412.25 -821.03c331.26,-1255.16 122.74,-1704.46 -136.62,-2950.07 -40.44,-194.16 -115.65,-340.8 -173.53,-526.02 -371.66,-1189.22 -54.87,-2269.97 732.77,-3073.34 255.59,-260.71 1155.08,-944.41 1671.42,-1080.42 282.49,-74.41 325.87,24.15 597.81,-8.55 915.8,-110.12 1969.19,-164.36 2655.72,649.76 386.74,458.62 1049.16,1522.62 1152.7,1601.15 977.99,741.67 1965.61,741.81 3216.52,893.29z"/>
  <path class="fil1" d="M16310.64 14053.48l234.03 35.66 2.32 6301.07 -3.56 382.59 -6915.76 -8.95 -231.3 -5689.1c189.5,-48.74 499.24,-214.51 722.53,-305.44 1863.7,-758.89 4225.71,-1069.97 6191.74,-715.83z"/>
  <path class="fil1" d="M9279.63 15054.3c-4.36,633.05 180.38,5545.96 279.1,5747.94l-4773.83 -7.95 -1254.36 -638.25 -6.82 -7842.11 411.13 7.46c1177.22,113.21 2219.36,479.12 3077.29,996.02 505.25,304.42 1983.8,1300.71 2267.49,1736.89z"/>
  <path class="fil2" d="M19480.58 8394.14c495.31,580.31 560.51,601.85 1047.55,1295.82 171.82,244.82 294.61,456.44 452.08,714.28 133.76,219.03 258.92,515.24 402.76,698.03 26.36,76.47 39.67,126.41 77.16,178.88 67.37,94.3 12.92,45.77 103.16,86.08 -28.51,59.74 966.02,2443.66 1073.25,2744.53 181.25,508.56 841.46,2537.61 854.32,3001.72l-1208.18 87.17 -4344.66 245.04 -53.53 -185.48 379.68 -5453.82c-403.46,-194.85 -796.95,-515.96 -1294.66,-658.17 -100.12,-120.78 -61.85,-40.73 -69.77,-263.34 -3.15,-88.9 3.81,-202.58 3.97,-294.96 1304.28,421.99 1862.33,-997.21 1075.61,-1346.66 159.13,-558.74 229.25,-1085.98 192.8,-1706.13 265.62,101.11 480.04,234.33 710.95,391.72 243.74,166.15 397.72,326.14 597.51,465.29z"/>
  <path class="fil2" d="M13067.91 9673.9c45.26,299.39 156.19,1027.14 302.37,1215.42 235.51,617.05 478.95,393.81 872.83,683.26 -397.14,173.42 -738.22,439.41 -1013.16,664.25 -318.36,260.34 -459.15,537.75 -574.49,1094.02 -1823.39,464.38 -1972.17,641.51 -3176.78,1508.99 -6.51,4.69 -19.73,14.51 -30.44,20.38 -191.27,-263.47 -365.39,-695.42 -566.74,-987.81 -399.25,-579.75 -932.26,-1166.28 -1543.54,-1534.64 -578.87,-348.86 -1008.74,-362.52 -1126,-431.52l125.11 -27.53c39.4,-648.92 13.04,-1349.99 450.02,-1794.83 571.77,-582.07 1362.95,-1073.82 2114.91,-1489.3l287.11 70.33c187.59,229.62 895.93,336.32 1250.87,364.21l101.6 549.21c79.1,400.7 307.49,910.67 682.01,924.81 391.58,14.77 650.2,-473.13 815.57,-764.36 279.1,-491.52 741.58,-1641.01 859.46,-2249.57l153.57 -21.44c-165.24,790.29 -73.24,1411.58 15.72,2206.12z"/>
  <path class="fil3" d="M9544.34 7713.32c283.25,-29.97 569.4,-627.55 323.72,-831.36 -85.48,127.6 -12.87,291.54 -103.55,490.63 -93.9,206.19 -160.5,149.66 -220.17,340.73zm-1665.31 -776.56c-334.99,128.7 -292.22,53.96 -456.64,42.01 -233.18,-16.94 -51.86,-13.56 -140.54,29.88 7.84,9.97 -2.33,106.49 264.57,126.09 110.64,8.13 204.42,-7.95 294.49,-51.46 93.89,-45.33 141.52,-77.03 184.37,-191.96 102.86,-276 -21.93,-303.73 -23.09,-305.48 -106.47,86.87 -82.6,209.72 -123.16,350.92zm3187.99 -1758.23c-594.34,-135.54 -1062.49,280.37 -1177.75,729.63 -156.84,611.17 261.72,1122.52 734.18,1234.12 1307.01,308.74 1795.18,-1655.51 443.57,-1963.75zm-3727.46 757.24c-147.7,-87.09 -248.87,26.65 -330.31,127 -299.85,369.54 -79.94,356.4 -79.94,356.42 128.54,-137.73 115.76,-218.34 185.69,-298.3 83.33,-95.28 51.09,-38.18 134.8,-97 124.31,-87.37 38.22,-14.18 89.76,-88.12zm1837.1 1110.6c-360.19,69.49 -25.12,244.59 -616.43,-503.26 -122.1,-154.45 -177.28,-214.31 -296.58,-354.4 -103.34,-121.35 -140.6,-267.47 -342.88,-288.64 22.72,200.55 128.63,211.3 257.28,373.2l803.72 1049.22c112.64,-56.67 164.78,-115.39 194.89,-276.12zm644.76 -1757.81c-180.11,105.31 -30.57,423.47 -265.62,520.39 -274.02,113 -387.28,-122.05 -557.48,-13.11 311.45,438.54 1116.37,-8.59 823.1,-507.28zm-449.49 -612.25c-126.45,-112.53 -240.8,-134.38 -428.64,-121 -179.77,12.8 -265.5,34.43 -332.75,182.65 262.41,41.54 33.92,-96.31 580.21,-25.69 350.44,45.31 61.02,40.02 181.18,-35.96zm3185.18 -886.29c-286.55,-277.67 -571.67,204.69 -643.29,416.28 -54.26,160.31 -64.97,339.49 -46.04,518.88 18.58,176.04 37.84,326.8 146.03,414.78 70,-168.37 -105.66,-264 -15.85,-523.83 127.01,-180.16 389.98,-7.46 527.51,-79.77 -148.13,-172.29 -352.06,-123.23 -563.63,-44.91 77.79,-753.91 453.21,-633.83 595.27,-701.43zm477.61 2869.58c-75.75,331.08 -149.24,426.47 -136.1,829.62 -117.88,608.56 -580.36,1758.05 -859.46,2249.57 -165.37,291.23 -423.99,779.13 -815.57,764.36 -374.52,-14.14 -602.91,-524.11 -682.01,-924.81 1133.21,-204.43 1593.81,-1235.64 1553.31,-2347.44 -359.96,724.5 -320.38,943.58 -930.87,1633.67 -165.15,186.68 -397.61,174.57 -724.04,164.56 -354.94,-27.89 -1063.28,-134.59 -1250.87,-364.21 284.1,-437.77 -13.36,-998.26 -303.77,-1231.49 -502.93,-403.96 -978.52,-123.98 -1364,103.96 -295.35,-211.57 -462.48,-512.03 -726.02,-767.39 -259.99,-251.9 -468.76,-451.6 -643.89,-834.23 80.7,-95.16 84.35,-71.5 166.7,-144.5 633.48,-561.64 723.33,-1037.73 622.18,-1866.52 179.34,249.22 306.74,564.18 345.26,953.45 305.01,-172.1 539.37,-486.1 695.96,-875.91 211.25,-525.83 164.72,-840.84 147.93,-1417.85 565.59,242.33 798.6,818.91 2113.53,522.89 58.43,816.03 340.69,1315.19 1092.48,1453.96 -77.26,-1045.44 876.4,-1541.99 1346.32,-785.73 168.65,271.4 298.34,734.77 229.03,1104.55 -81.96,437.27 -319.7,531.74 -687.38,707.95 120.99,168.48 266.56,357.91 399.05,531.7 121.21,159.03 288.47,408.53 412.23,539.84z"/>
  <path class="fil4" d="M17884.49 17260.21l-46.44 197.56 315.1 33.03c-123.66,274.89 -414.39,1169.22 -649.6,1371.22 149.08,-902.69 219.99,-2051.25 256.15,-2990.49l16.36 -932.02c-42.61,-134.17 3.93,-29.6 -71.36,-109.05 -83.82,164.1 -49.34,320.99 -56.3,574.74l-82.4 1725.75c-42.14,711.14 -125.24,1465.2 -271.08,2133.26 -120.38,294.93 -561.42,916.24 -747.93,1126l-2.32 -6301.07 -234.03 -35.66 7.51 -924.49c-1427.34,-100.99 -2308.72,12.53 -3662.69,201.86 115.34,-556.27 256.13,-833.68 574.49,-1094.02 274.94,-224.84 616.02,-490.83 1013.16,-664.25 128.4,1.64 246.42,29.44 331,52.49 71.37,190.35 54.5,167.75 203.47,268.44 456.86,623.62 1268.92,230.54 1735.07,-292.32l318.75 -383.48c86.08,-70.65 4.2,-41.95 138.11,-69.49 497.71,142.21 891.2,463.32 1294.66,658.17l-379.68 5453.82z"/>
  <path class="fil3" d="M20509.99 20792.83l-10896.55 12.72 14.23 -41.7 6915.76 8.95 3.56 -382.59c186.51,-209.76 627.55,-831.07 747.93,-1126 73.14,-109.82 160.56,-238.61 208.63,-402.19 235.21,-202 525.94,-1096.33 649.6,-1371.22l-315.1 -33.03 46.44 -197.56 53.53 185.48 4344.66 -245.04c-164.96,854.35 -1338.53,3200.5 -1772.69,3592.18z"/>
  <path class="fil3" d="M16109.03 9703.25c-824.95,-222.35 -1126.96,979.39 -363.36,1223.55 823.87,263.45 1216.83,-993.5 363.36,-1223.55zm-1777.36 512.55c-172.14,48.44 -146.56,-41.6 -340.06,-21.86 187.17,237.34 580.12,148.41 590.73,-190.59 -121.83,80.68 -131.08,178.82 -250.67,212.45zm3224.99 -416.23c186.56,-120.87 307.04,60.36 498.27,-106.08 -222.22,-103.37 -535.57,-3.3 -674.09,116.11 -68.04,58.69 -126.34,147.85 -169.68,251.87 -4.53,10.84 -45.32,134.08 -46.21,140.74 -29.35,223.31 -17.29,35.31 41.82,117.93l171.41 -310.92c191.26,27.73 192.71,84.77 263.2,185.81 35.82,51.35 35.89,49.77 63.32,77.9 89.83,-192.86 -83.87,-300.29 -254.35,-342.93 89.74,-146.28 -69.21,-16.71 106.31,-130.43zm-2172.75 -113.33c117.1,-445.31 -212.7,-566.63 -355.76,-361.31 -180.53,259.05 38.32,494.24 355.76,361.31zm-1780.02 -498.19c-314.18,-167.12 -430.24,328.1 -200.48,445.19 289.64,147.63 463.57,-305.25 200.48,-445.19zm1929.4 -195.36c-46.91,-176.8 -153.96,-329.67 -346.28,-258.12l346.28 258.12zm-2242.79 -176.31c94.56,-2.15 109.47,-9.66 198.49,-41.53 217.3,-77.74 60.55,7.3 163.2,-100.66 -226.61,-13.38 -277.59,-9.18 -361.69,142.19zm4688.82 426.88c786.72,349.45 228.67,1768.65 -1075.61,1346.66 -0.16,92.38 -7.12,206.06 -3.97,294.96 7.92,222.61 -30.35,142.56 69.77,263.34 -133.91,27.54 -52.03,-1.16 -138.11,69.49l-318.75 383.48c-466.15,522.86 -1278.21,915.94 -1735.07,292.32 478.7,25.28 616.03,-84.91 975.97,-224.7l-1179.44 -43.74c-84.58,-23.05 -202.6,-50.85 -331,-52.49 -393.88,-289.45 -637.32,-66.21 -872.83,-683.26 501.97,1.13 756.61,-1200.5 -302.37,-1215.42 -88.96,-794.54 -180.96,-1415.83 -15.72,-2206.12l1057.95 -232.91c-60.8,169.19 -159.62,239.54 -172.06,409.19 799.89,153.79 1062.44,-210.56 1476.78,-492.75 -84.54,989.78 293.08,1607.2 1080.34,2091.96 433.58,266.99 348.42,42.61 444.77,630.04 196.89,-377.8 442.93,-775.75 1039.35,-630.05z"/>
  <path class="fil5" d="M18172.12 7537.13c36.45,620.15 -33.67,1147.39 -192.8,1706.13 -596.42,-145.7 -842.46,252.25 -1039.35,630.05 -96.35,-587.43 -11.19,-363.05 -444.77,-630.04 -787.26,-484.76 -1164.88,-1102.18 -1080.34,-2091.96 -414.34,282.19 -676.89,646.54 -1476.78,492.75 12.44,-169.65 111.26,-240 172.06,-409.19l-1057.95 232.91 -153.57 21.44c-13.14,-403.15 60.35,-498.54 136.1,-829.62 275.15,-257.79 177.43,-490.99 1149.86,-792.69 540.51,-167.69 1190.85,-257.95 1776.87,-99.68 751.47,202.95 888.3,519.21 1167.37,791.57 276.75,270.13 755.58,373.84 1043.3,978.33z"/>
  <path class="fil6" d="M6211.96 11906.25c117.26,69 547.13,82.66 1126,431.52 611.28,368.36 1144.29,954.89 1543.54,1534.64 201.35,292.39 375.47,724.34 566.74,987.81 10.71,-5.87 23.93,-15.69 30.44,-20.38 1204.61,-867.48 1353.39,-1044.61 3176.78,-1508.99 1353.97,-189.33 2235.35,-302.85 3662.69,-201.86l-7.51 924.49c-1966.03,-354.14 -4328.04,-43.06 -6191.74,715.83 -223.29,90.93 -533.03,256.7 -722.53,305.44l-116.74 -20.45c-89.08,-136.95 -825.36,-748.19 -1038.56,-913.83 -371.09,-288.26 -773.97,-548.94 -1228.93,-823.06 -857.93,-516.9 -1900.07,-882.81 -3077.29,-996.02 276.66,-204.38 632.86,-221.74 927.63,-359.87 564.97,-81.05 765.54,-97.73 1349.48,-55.27z"/>
  <path class="fil7" d="M11067.02 5178.53c1351.61,308.24 863.44,2272.49 -443.57,1963.75 -472.46,-111.6 -891.02,-622.95 -734.18,-1234.12 115.26,-449.26 583.41,-865.17 1177.75,-729.63z"/>
  <path class="fil7" d="M9189.11 8664.92l-287.11 -70.33c-159.78,-162.85 -541.68,-358.73 -727.9,-497.9 -172.61,-129 -567.81,-437.65 -652.76,-559.3 385.48,-227.94 861.07,-507.92 1364,-103.96 290.41,233.23 587.87,793.72 303.77,1231.49z"/>
  <path class="fil7" d="M16109.03 9703.25c853.47,230.05 460.51,1487 -363.36,1223.55 -763.6,-244.16 -461.59,-1445.9 363.36,-1223.55z"/>
  <path class="fil0" d="M10541.58 9578.34l-101.6 -549.21c326.43,10.01 558.89,22.12 724.04,-164.56 610.49,-690.09 570.91,-909.17 930.87,-1633.67 40.5,1111.8 -420.1,2143.01 -1553.31,2347.44z"/>
  <path class="fil8" d="M9627.67 20763.85l-14.23 41.7 -54.71 -3.31c-98.72,-201.98 -283.46,-5114.89 -279.1,-5747.94l116.74 20.45 231.3 5689.1z"/>
  <path class="fil7" d="M13370.28 10889.32c-146.18,-188.28 -257.11,-916.03 -302.37,-1215.42 1058.98,14.92 804.34,1216.55 302.37,1215.42z"/>
  <path class="fil8" d="M17503.55 18862.02c-48.07,163.58 -135.49,292.37 -208.63,402.19 145.84,-668.06 228.94,-1422.12 271.08,-2133.26l82.4 -1725.75c6.96,-253.75 -27.52,-410.64 56.3,-574.74 75.29,79.45 28.75,-25.12 71.36,109.05l-16.36 932.02c-36.16,939.24 -107.07,2087.8 -256.15,2990.49z"/>
  <path class="fil9" d="M9176.66 7046.37c-30.11,160.73 -82.25,219.45 -194.89,276.12l-803.72 -1049.22c-128.65,-161.9 -234.56,-172.65 -257.28,-373.2 202.28,21.17 239.54,167.29 342.88,288.64 119.3,140.09 174.48,199.95 296.58,354.4 591.31,747.85 256.24,572.75 616.43,503.26z"/>
  <path class="fil10" d="M12557.11 3790.02c-142.06,67.6 -517.48,-52.48 -595.27,701.43 211.57,-78.32 415.5,-127.38 563.63,44.91 -137.53,72.31 -400.5,-100.39 -527.51,79.77 -89.81,259.83 85.85,355.46 15.85,523.83 -108.19,-87.98 -127.45,-238.74 -146.03,-414.78 -18.93,-179.39 -8.22,-358.57 46.04,-518.88 71.62,-211.59 356.74,-693.95 643.29,-416.28z"/>
  <path class="fil0" d="M14777.58 11893.51c-148.97,-100.69 -132.1,-78.09 -203.47,-268.44l1179.44 43.74c-359.94,139.79 -497.27,249.98 -975.97,224.7z"/>
  <path class="fil0" d="M13603.89 9188.05c263.09,139.94 89.16,592.82 -200.48,445.19 -229.76,-117.09 -113.7,-612.31 200.48,-445.19z"/>
  <path class="fil0" d="M15383.91 9686.24c-317.44,132.93 -536.29,-102.26 -355.76,-361.31 143.06,-205.32 472.86,-84 355.76,361.31z"/>
  <path class="fil8" d="M8998.32 5795.84c170.2,-108.94 283.46,126.11 557.48,13.11 235.05,-96.92 85.51,-415.08 265.62,-520.39 293.27,498.69 -511.65,945.82 -823.1,507.28z"/>
  <path class="fil10" d="M18054.93 9693.49c-191.23,166.44 -311.71,-14.79 -498.27,106.08 -175.52,113.72 -16.57,-15.85 -106.31,130.43 170.48,42.64 344.18,150.07 254.35,342.93 -27.43,-28.13 -27.5,-26.55 -63.32,-77.9 -70.49,-101.04 -71.94,-158.08 -263.2,-185.81l-171.41 310.92c-59.11,-82.62 -71.17,105.38 -41.82,-117.93 0.89,-6.66 41.68,-129.9 46.21,-140.74 43.34,-104.02 101.64,-193.18 169.68,-251.87 138.52,-119.41 451.87,-219.48 674.09,-116.11z"/>
  <path class="fil8" d="M7281.85 7008.65c88.68,-43.44 -92.64,-46.82 140.54,-29.88 164.42,11.95 121.65,86.69 456.64,-42.01 40.56,-141.2 16.69,-264.05 123.16,-350.92 1.16,1.75 125.95,29.48 23.09,305.48 -42.85,114.93 -90.48,146.63 -184.37,191.96 -90.07,43.51 -183.85,59.59 -294.49,51.46 -266.9,-19.6 -256.73,-116.12 -264.57,-126.09z"/>
  <path class="fil8" d="M9544.34 7713.32c59.67,-191.07 126.27,-134.54 220.17,-340.73 90.68,-199.09 18.07,-363.03 103.55,-490.63 245.68,203.81 -40.47,801.39 -323.72,831.36z"/>
  <path class="fil8" d="M9371.93 4676.31c-120.16,75.98 169.26,81.27 -181.18,35.96 -546.29,-70.62 -317.8,67.23 -580.21,25.69 67.25,-148.22 152.98,-169.85 332.75,-182.65 187.84,-13.38 302.19,8.47 428.64,121z"/>
  <path class="fil9" d="M7339.56 5935.77c-51.54,73.94 34.55,0.75 -89.76,88.12 -83.71,58.82 -51.47,1.72 -134.8,97 -69.93,79.96 -57.15,160.57 -185.69,298.3 0,-0.02 -219.91,13.12 79.94,-356.42 81.44,-100.35 182.61,-214.09 330.31,-127z"/>
  <path class="fil10" d="M13991.61 10193.94c193.5,-19.74 167.92,70.3 340.06,21.86 119.59,-33.63 128.84,-131.77 250.67,-212.45 -10.61,339 -403.56,427.93 -590.73,190.59z"/>
  <path class="fil10" d="M15533.29 8992.69l-346.28 -258.12c192.32,-71.55 299.37,81.32 346.28,258.12z"/>
  <path class="fil9" d="M13290.5 8816.38c84.1,-151.37 135.08,-155.57 361.69,-142.19 -102.65,107.96 54.1,22.92 -163.2,100.66 -89.02,31.87 -103.93,39.38 -198.49,41.53z"/>
  <path class="fil11" d="M7325.12 16023.39l-83.6 -89.6c9.14,7.95 19.97,18.79 28.18,26.55l55.42 63.05z"/>
 </g>
</svg>
