<?xml version="1.0" encoding="UTF-8"?>
<!DOCTYPE svg PUBLIC "-//W3C//DTD SVG 1.0//EN" "http://www.w3.org/TR/2001/REC-SVG-20010904/DTD/svg10.dtd">
<!-- Creator: CorelDRAW 2021 (64 Bit) -->
<svg xmlns="http://www.w3.org/2000/svg" xml:space="preserve" width="50.8mm" height="50.8mm" version="1.0" style="shape-rendering:geometricPrecision; text-rendering:geometricPrecision; image-rendering:optimizeQuality; fill-rule:evenodd; clip-rule:evenodd"
viewBox="0 0 5080 5080"
 xmlns:xlink="http://www.w3.org/1999/xlink"
 xmlns:xodm="http://www.corel.com/coreldraw/odm/2003">
 <defs>
  <style type="text/css">
   <![CDATA[
    .fil4 {fill:none}
    .fil2 {fill:black}
    .fil1 {fill:#33CC33}
    .fil3 {fill:#FEFEFE}
    .fil0 {fill:white}
   ]]>
  </style>
   <clipPath id="id0">
    <path d="M-0 0l5080 0 0 5080 -5080 0 0 -5080z"/>
   </clipPath>
 </defs>
 <g id="Camada_x0020_1">
  <metadata id="CorelCorpID_0Corel-Layer"/>
  <polygon class="fil0" points="-0,0 5080,0 5080,5080 -0,5080 "/>
  <g style="clip-path:url(#id0)">
   <g id="_1701040888368">
    <g>
     <path id="_1" class="fil1" d="M1715.87 4905.31l-3.64 -1562.66c-78.07,-45.25 -660.57,-172.48 -528.61,-815.56 61.25,-298.52 205.77,-284.65 256.56,-425.51 24.42,-67.72 97.77,-487.73 120.26,-592.83 -146.99,-128.67 -319.4,-253.73 -343.1,-538.62 -23.06,-276.98 124.33,-464.36 281.85,-584.23 413.59,-314.81 1016.71,-9.5 1082.36,426.94 285.52,-43.15 562.44,-5.79 793.27,113.84 175.85,91.11 495.66,294.78 360.7,538.91 -47.79,86.38 -61.85,-20.93 -19.96,157.52 18.19,77.55 35.79,125.07 44.75,213.34l-32.09 914.61c-9.93,142.52 -76.88,347.8 -1.33,450.53l-33.49 24.7c-195.54,205.47 73.18,1101.45 -473.47,1440.85l-4.59 280.39c1191.49,-352.67 1990.03,-1484.51 1824.04,-2692.9 -158.15,-1151.34 -1142.47,-2097.96 -2387.38,-2156.78 -1982.93,-93.67 -3353.47,2070.71 -2227.2,3805.44 271.52,418.25 701.87,784.74 1291.07,1002.02z"/>
     <path class="fil2" d="M1715.87 4905.31l176.08 49.51 41.32 -784.04 168.09 201.04c236.26,235.54 580.9,410.99 940.49,359.07l1.74 254.23 171.75 -37.59 4.59 -280.39c546.65,-339.4 277.93,-1235.38 473.47,-1440.85l33.49 -24.7c-75.55,-102.73 -8.6,-308.01 1.33,-450.53l32.09 -914.61c-8.96,-88.27 -26.56,-135.79 -44.75,-213.34 -41.89,-178.45 -27.83,-71.14 19.96,-157.52 134.96,-244.13 -184.85,-447.8 -360.7,-538.91 -230.83,-119.63 -507.75,-156.99 -793.27,-113.84 -65.65,-436.44 -668.77,-741.75 -1082.36,-426.94 -157.52,119.87 -304.91,307.25 -281.85,584.23 23.7,284.89 196.11,409.95 343.1,538.62 -22.49,105.1 -95.84,525.11 -120.26,592.83 -50.79,140.86 -195.31,126.99 -256.56,425.51 -131.96,643.08 450.54,770.31 528.61,815.56l3.64 1562.66z"/>
     <path class="fil3" d="M2311.7 2773.95c171.91,-1.93 337.27,16.36 509.78,16.49 202.14,0.17 274.42,38.06 354.57,167.29 175.18,-3.7 227.77,3.37 368.99,17.16l33.39 -492.19 -177.78 7.03c-32.92,-141.86 2.37,-257.69 167.55,-204.81l-4.5 -184.71c-233,-110.6 -112.86,29.32 -183.61,-83.61 62.15,-90.81 74.28,-58.05 178.55,-24.79l-55.92 -339.07c-411.28,91.34 -615.59,-37.73 -936.43,-142.9 -227.07,172.22 -165.15,342.74 -243.66,659.15 -156.36,630.12 -220.17,264.69 -10.93,604.96z"/>
     <path class="fil3" d="M1739.56 3164.87l85.64 -332.77c4.67,-241.16 -278.62,-83.84 -385.82,-194.81 5.73,-4.57 15.53,-17.13 19.03,-11.03l208.34 -20.16 -136.33 -201.21c95.9,-24.53 95.14,15.86 174.12,105.8 54.08,61.62 83.24,117.53 156.42,177.88 48.85,-62.14 86.47,-176.01 86.84,-276.98 -90.97,-70.48 -191.91,-180.62 -364.33,-145.76 -305.01,61.65 -427.64,795.47 156.09,899.04z"/>
     <path class="fil3" d="M2801.39 3229.79c82.17,158.58 442.44,276.12 506.32,22.26 -87.54,-17.4 -489.66,-113.24 -506.32,-22.26z"/>
     <path class="fil2" d="M2845.78 2438.48c250.59,22.43 264.52,-239.43 8.63,-216.01 -79.08,103.27 -74.02,103.41 -8.63,216.01z"/>
     <path class="fil2" d="M2791.02 2049.66c108.74,29.79 14.07,-13.97 123.17,-52.69 98.24,-34.85 90.54,12.43 185.08,-27.86 -2.77,-4.9 -12.03,-123.89 -213.11,-56.45 -50.71,17.03 -125.36,65.62 -95.14,137z"/>
    </g>
   </g>
  </g>
  <polygon class="fil4" points="-0,0 5080,0 5080,5080 -0,5080 "/>
 </g>
</svg>
