<?xml version="1.0" encoding="UTF-8"?>
<!DOCTYPE svg PUBLIC "-//W3C//DTD SVG 1.0//EN" "http://www.w3.org/TR/2001/REC-SVG-20010904/DTD/svg10.dtd">
<!-- Creator: CorelDRAW 2021 (64 Bit) -->
<svg xmlns="http://www.w3.org/2000/svg" xml:space="preserve" width="50.8mm" height="50.8mm" version="1.0" style="shape-rendering:geometricPrecision; text-rendering:geometricPrecision; image-rendering:optimizeQuality; fill-rule:evenodd; clip-rule:evenodd"
viewBox="0 0 5080 5080"
 xmlns:xlink="http://www.w3.org/1999/xlink"
 xmlns:xodm="http://www.corel.com/coreldraw/odm/2003">
 <defs>
  <style type="text/css">
   <![CDATA[
    .fil4 {fill:none}
    .fil1 {fill:black}
    .fil3 {fill:#33CC33}
    .fil2 {fill:#FEFEFE}
    .fil0 {fill:white}
   ]]>
  </style>
   <clipPath id="id0">
    <path d="M-0 0l5080 0 0 5080 -5080 0 0 -5080z"/>
   </clipPath>
 </defs>
 <g id="Camada_x0020_1">
  <metadata id="CorelCorpID_0Corel-Layer"/>
  <polygon class="fil0" points="-0,0 5080,0 5080,5080 -0,5080 "/>
  <g style="clip-path:url(#id0)">
   <g id="_1701778242416">
    <g>
     <path id="_1" class="fil1" d="M21.55 2452.71l17.12 338.58c386.91,46.94 733.94,-29.29 1106.32,-85.74 -60.44,311.28 -95.64,458.69 52.23,737.92 163.71,309.13 351.75,304.77 469.47,400.65l5.48 1051.84 183.46 62.87 13 -1073.82c195.08,238.94 681.24,701.09 966.85,845.98 183.92,93.26 284.79,85.11 381.27,187.51l186.51 -27.96 -0.5 -230.13c180.59,-105.99 749.13,-129.49 876.23,-1162.05 75.44,-612.59 -20.51,-1247.25 -128.13,-1824.87l144.79 -45.51c-82.39,-1335.06 -2196.13,-1989.31 -2940.34,-913.17 -237.41,343.27 -326.84,774.5 -371.33,1261.82 -169.92,76.1 -330.66,120.48 -502.34,201.44 -273.88,129.16 -344.5,217.96 -460.09,274.64z"/>
     <path class="fil2" d="M1414.39 2688.56c-18.09,14.83 -14.8,5.65 -42.33,42.22 -165.96,220.52 -134.28,956.62 615.15,909.58 332.53,773.86 2342.38,1679.28 2102.88,-945.25 -293.13,227.27 -467.51,-333.19 -11.94,-211.15 -73.21,-453.77 -53.89,-163.1 -234.02,-298.05 47.78,-130.85 99.28,-54.25 183.02,-123.07l-61.7 -303.24c-137.11,-26.86 -655.31,89.07 -774.57,170.42 30.56,132.38 231.89,57.08 179.7,238.21 -103.86,8.27 -59.35,-59.85 -237.64,-69.49 -67.66,62.31 -96.95,144.79 -157.36,209.68 -201.77,216.67 -424.78,353.97 -752.55,355.9l58.58 236.08c-124.64,-118.19 -652.95,-622.56 -867.22,-211.84z"/>
     <path class="fil3" d="M21.55 2452.71c115.59,-56.68 186.21,-145.48 460.09,-274.64 171.68,-80.96 332.42,-125.34 502.34,-201.44 44.49,-487.32 133.92,-918.55 371.33,-1261.82 744.21,-1076.14 2857.95,-421.89 2940.34,913.17l-144.79 45.51c107.62,577.62 203.57,1212.28 128.13,1824.87 -127.1,1032.56 -695.64,1056.06 -876.23,1162.05l0.5 230.13c203.36,-39.03 430.8,-187.81 573.19,-286.25 519.04,-358.82 894.75,-891.72 1034.08,-1559 228.07,-1092.1 -403.2,-2005.73 -945.91,-2413.69 -1138.91,-856.08 -2722.08,-611.73 -3588.2,556.44 -246.89,332.99 -386.29,768.08 -454.87,1264.67z"/>
     <path class="fil2" d="M1183.43 2130.16c973.34,-101.23 1950.07,-431.5 2881.49,-641.02 -73.54,-366.1 -361.45,-676.48 -591.71,-828.75 -305.13,-201.7 -718.75,-308.02 -1154.83,-274.78 -844.52,64.37 -1124.28,871.84 -1134.95,1744.55z"/>
     <path class="fil3" d="M38.67 2791.29c17.22,543.6 298.21,1010.38 539.71,1326.81 111.51,146.12 317.77,340.71 474.99,454.81 162.67,118.09 387.98,244.72 618.8,323.05l-5.48 -1051.84c-117.72,-95.88 -305.76,-91.52 -469.47,-400.65 -147.87,-279.23 -112.67,-426.64 -52.23,-737.92 -372.38,56.45 -719.41,132.68 -1106.32,85.74z"/>
     <path class="fil1" d="M1414.39 2688.56c25.79,114.7 155.85,249.44 269.25,297.08 -39.13,35.98 -18.85,39.93 -141.36,61.44 -104.62,18.39 -60.47,-17.18 -149.37,35.94 37.5,134.65 76.13,65.3 427.08,53.1 40.19,52.46 60.14,101.63 147.71,105.62 24.07,-105.69 -15.76,-105.82 -86.31,-172.68 -184.78,-175.17 -324.91,-408.59 -467,-380.5z"/>
     <path class="fil1" d="M3009.09 2424.69c-175.33,95.51 -16.52,355.89 147.62,263.04 172.84,-97.85 45.18,-368.07 -147.62,-263.04z"/>
     <path class="fil1" d="M3405.15 3729.32c-41.69,-97.14 36.81,-23.37 -83.41,-70.98 -240.7,-95.28 -145.62,-59.81 -292.37,-289 -145.71,55.62 -64.06,177.46 26.83,270.02 47.75,48.64 177.64,119.09 248.48,122.51 133.89,6.45 54.13,6.95 100.47,-32.55z"/>
     <path class="fil1" d="M3570.29 3231.03c0.2,0.07 23.27,109.61 97.81,-33.08 16.69,-31.91 21.51,-117.52 15.75,-161.14 -24.83,-188.14 -76,-220.02 -162.57,-234.08 16.46,101.66 46.08,119.68 63.17,199.94 18.35,86 -12.83,178.29 -14.16,228.36z"/>
    </g>
   </g>
  </g>
  <polygon class="fil4" points="-0,0 5080,0 5080,5080 -0,5080 "/>
 </g>
</svg>
