<?xml version="1.0" encoding="UTF-8"?>
<!DOCTYPE svg PUBLIC "-//W3C//DTD SVG 1.0//EN" "http://www.w3.org/TR/2001/REC-SVG-20010904/DTD/svg10.dtd">
<!-- Creator: CorelDRAW 2021 (64 Bit) -->
<svg xmlns="http://www.w3.org/2000/svg" xml:space="preserve" width="50.8mm" height="50.8mm" version="1.0" style="shape-rendering:geometricPrecision; text-rendering:geometricPrecision; image-rendering:optimizeQuality; fill-rule:evenodd; clip-rule:evenodd"
viewBox="0 0 5080 5080"
 xmlns:xlink="http://www.w3.org/1999/xlink"
 xmlns:xodm="http://www.corel.com/coreldraw/odm/2003">
 <defs>
  <style type="text/css">
   <![CDATA[
    .fil4 {fill:none}
    .fil1 {fill:#000001}
    .fil3 {fill:#33CC33}
    .fil2 {fill:#FEFEFE}
    .fil0 {fill:white}
   ]]>
  </style>
   <clipPath id="id0">
    <path d="M-0 0l5080 0 0 5080 -5080 0 0 -5080z"/>
   </clipPath>
 </defs>
 <g id="Camada_x0020_1">
  <metadata id="CorelCorpID_0Corel-Layer"/>
  <polygon class="fil0" points="-0,0 5080,0 5080,5080 -0,5080 "/>
  <g style="clip-path:url(#id0)">
   <g id="_1702322662448">
    <g>
     <path id="_1" class="fil1" d="M1730.15 285.38l-78.85 76.31c-33,27.12 -46.7,33.02 -83.96,59.53 -151.19,107.58 -282.29,293.6 -374.61,482.94 -202.01,414.37 -87.39,586.4 3.33,980.37 -205.57,123.56 -397.17,165.64 -411.77,667.92 -8.37,288.41 81.54,654.4 229.8,816.92 180.57,197.92 541.84,150.21 569.33,461.54 24.14,273.05 4.46,766.31 -3.25,1054.76l187.28 65.88 -1.3 -1033.46c96.67,50.1 185.33,109.19 300.68,164.23 431.34,205.87 319.22,180.12 591.03,319.76l247.09 92.39c138.19,48.46 -130.91,-55.21 42.72,16.67l37.63 516.95 179.04 -39.68 47.6 -478.61c170.76,-78.46 -91.78,33.95 41.35,-17.9 366.76,-142.87 519.04,-350.8 604.17,-800.6 196.43,-1037.75 139.32,-1546 -150.22,-2617.63 -132.77,-491.26 -314.73,-626.01 -621.19,-873.61 -264.94,-83.58 -367.12,-179.71 -715.73,-138.14 -266.2,31.76 -432.04,125.83 -640.17,223.46z"/>
     <path class="fil2" d="M1380.15 2620.62l-128.21 -529.71c-439.59,69.69 -310.41,845.29 -132.64,1111.59 98,146.74 174.06,162.93 374.44,156.69 54.68,164.27 359.81,435.98 545.83,503.27 -221.59,-401.04 -414.66,-704.41 -397.07,-1300.79l237.18 -54.9c110.72,158.68 369.44,969.71 679.36,1210.97 60.8,47.32 152.31,77.57 247.25,54.05 52.92,-13.14 61.7,-20.89 102.72,-70.89 24.33,-29.67 11.73,-19.41 34.5,-50.62 28.09,-38.44 9.61,-22.26 37.66,-48.05l140.78 31.31c41.26,126.62 6.88,242.84 148.69,280.29 721.38,190.41 565.64,-2275.64 307.72,-2446.63 -212.31,-106.14 -295.32,105.56 -311.04,-100.89 141.21,-76.14 169.3,-39.99 319.75,-42.08 -105.37,-333.07 -130.71,-650.4 -556.07,-917.1 -360.8,-226.24 -826.59,-204.74 -1175.26,21.7 -744.48,483.56 -628.33,952.36 -445.31,1541.92 56.45,181.82 48.57,473.4 -30.28,649.87z"/>
     <path class="fil3" d="M3164.34 4988.41c364.89,-61.04 788.72,-309.64 1052.33,-544.9 480.34,-428.78 856.67,-1203.87 834.34,-1890.27 -37.6,-1155.21 -988.78,-2185.31 -1964.96,-2353.18 306.46,247.6 488.42,382.35 621.19,873.61 289.54,1071.63 346.65,1579.88 150.22,2617.63 -85.13,449.8 -237.41,657.73 -604.17,800.6 -133.13,51.85 129.41,-60.56 -41.35,17.9l-47.6 478.61z"/>
     <path class="fil3" d="M1580.17 4885.67c7.71,-288.45 27.39,-781.71 3.25,-1054.76 -27.49,-311.33 -388.76,-263.62 -569.33,-461.54 -148.26,-162.52 -238.17,-528.51 -229.8,-816.92 14.6,-502.28 206.2,-544.36 411.77,-667.92 -90.72,-393.97 -205.34,-566 -3.33,-980.37 92.32,-189.34 223.42,-375.36 374.61,-482.94 37.26,-26.51 50.96,-32.41 83.96,-59.53l78.85 -76.31c-219.03,43.28 -498.46,208.37 -650.01,328.06 -584.29,461.36 -986.61,1082.02 -1046.31,1883.69 -84.67,1136.55 777.06,2131.33 1546.34,2388.54z"/>
     <path class="fil1" d="M1204.3 2757.12c-87.32,61.28 -105.87,8.95 -158.76,116.32 85.63,68.52 170.46,0.31 288.21,-29.15 96.06,161.36 283.71,108.27 28.75,-98.46 -108.97,-88.37 -377.16,-357.04 -338.87,-175.24 11.17,52.95 123.63,106.07 180.67,186.53z"/>
     <path class="fil1" d="M3485.72 2196.2c280.92,-14.06 216.1,-277.89 78.55,-305.91 -178.78,-36.45 -266.04,166.88 -78.55,305.91z"/>
     <path class="fil1" d="M2609.6 2094.1c95.24,36.9 143.47,37.62 237.68,0.11 127.58,-370.62 -365.2,-364.04 -237.68,-0.11z"/>
     <path class="fil1" d="M2868.22 3098.59c-14.03,25.68 -61.86,-50.83 -13.63,78.12 0.27,0.72 47.73,54.25 55.55,59.98 102.61,75.31 466.98,159.09 518.27,-43.28 -103.98,-74.08 -138.72,22.67 -305.73,1.65 -128.61,-16.19 -178.27,-112.52 -254.46,-96.47z"/>
     <path class="fil1" d="M2347.89 1464.15c136.22,30.73 83.3,-69.52 257.65,-115.16 159.16,-41.7 162.35,51.34 291.07,16.39 -23.24,-154.6 -180.61,-160.12 -314.57,-126.61 -133.23,33.3 -248.42,95.99 -234.15,225.38z"/>
     <path class="fil1" d="M3177.8 2733.93c5.52,-1.99 136.12,35.26 71.24,-255.28 -26.03,-116.47 -38.93,-172.16 -152.35,-184.34 122.49,418.57 51.12,120.34 62.03,380.81 2.49,60.05 -0.63,20.34 19.08,58.81z"/>
    </g>
   </g>
  </g>
  <polygon class="fil4" points="-0,0 5080,0 5080,5080 -0,5080 "/>
 </g>
</svg>
