<?xml version="1.0" encoding="UTF-8"?>
<!DOCTYPE svg PUBLIC "-//W3C//DTD SVG 1.0//EN" "http://www.w3.org/TR/2001/REC-SVG-20010904/DTD/svg10.dtd">
<!-- Creator: CorelDRAW 2021 (64 Bit) -->
<svg xmlns="http://www.w3.org/2000/svg" xml:space="preserve" width="50.8mm" height="50.8mm" version="1.0" style="shape-rendering:geometricPrecision; text-rendering:geometricPrecision; image-rendering:optimizeQuality; fill-rule:evenodd; clip-rule:evenodd"
viewBox="0 0 5080 5080"
 xmlns:xlink="http://www.w3.org/1999/xlink"
 xmlns:xodm="http://www.corel.com/coreldraw/odm/2003">
 <defs>
  <style type="text/css">
   <![CDATA[
    .str0 {stroke:black;stroke-width:16.93;stroke-miterlimit:22.9256}
    .str1 {stroke:black;stroke-width:16.93;stroke-miterlimit:22.9256}
    .fil0 {fill:none}
    .fil2 {fill:black}
    .fil5 {fill:black}
    .fil6 {fill:black}
    .fil3 {fill:#33CC33}
    .fil4 {fill:#FEFEFE}
    .fil1 {fill:white}
   ]]>
  </style>
   <clipPath id="id0">
    <path d="M-0 0l5080 0 0 5080 -5080 0 0 -5080z"/>
   </clipPath>
 </defs>
 <g id="Camada_x0020_1">
  <metadata id="CorelCorpID_0Corel-Layer"/>
  <rect class="fil0" width="5080" height="5080"/>
  <polygon class="fil1" points="-0,0 5080,0 5080,5080 -0,5080 "/>
  <g style="clip-path:url(#id0)">
   <g id="_1702316005888">
    <g>
     <path id="_1" class="fil2" d="M126.88 3242.06l-3.57 57.37c205.15,-128.38 377.06,-331.74 631.04,-426.06 -59.22,125.97 -181.08,177.41 -278.81,300.1 -202.44,254.11 -240.64,136.42 -281.22,332.9 188.99,417.95 389.77,695.9 666.83,955.14 197.43,184.76 695.03,493.2 1080.01,554.25l-6.36 -1393.89c137.16,139.24 77.9,243.95 234.45,402.06 215.35,217.47 633.5,228.36 898.57,-25.79 100.21,-96.1 131.49,-181.18 196.64,-279.33 35.72,-53.83 54.16,-69.62 83.33,-98.46l-3.15 1332.84c627.34,-132.19 1240.91,-803.59 1494.46,-1372.07 274.44,-615.35 201.41,-714.96 -356.84,-1448.44 -109.31,-143.6 -223.16,-262.52 -323.14,-403.78 151.56,125.21 760.46,870.8 836.96,1100.34 58.13,-45.18 18.21,8.58 33.7,-70.18 -184.39,-286.79 -346.51,-502.3 -540.57,-746.51l-302.91 -342.31c-119.47,-123.18 -146.82,-260.2 -236.04,-436.72 -254.08,-502.7 -834.97,-1032.9 -1678.28,-890.92 -431.52,72.67 -613,258.39 -815.38,474.53 -193.89,207.07 -397.49,553.45 -288.31,955.67 78.4,288.78 23.64,214.12 -95.04,455.43 -304.27,618.56 -183.1,496.93 -555.14,734.99 -142.81,91.37 -258.58,206.67 -391.23,278.84z"/>
     <path class="fil3" d="M126.88 3242.06c132.65,-72.17 248.42,-187.47 391.23,-278.84 372.04,-238.06 250.87,-116.43 555.14,-734.99 118.68,-241.31 173.44,-166.65 95.04,-455.43 -109.18,-402.22 94.42,-748.6 288.31,-955.67 202.38,-216.14 383.86,-401.86 815.38,-474.53 843.31,-141.98 1424.2,388.22 1678.28,890.92 89.22,176.52 116.57,313.54 236.04,436.72l302.91 342.31c194.06,244.21 356.18,459.72 540.57,746.51 118.68,-419.93 -146.65,-1195.85 -407.75,-1579.23 -164.9,-242.13 -156.09,-202.9 -324.23,-377.86 -185.16,-192.71 -131.29,-144.67 -365.84,-308.41 -152.48,-106.43 -274.01,-168.4 -458.37,-243.29 -1440.83,-585.06 -3023.94,267.52 -3385.31,1751.78 -73.13,300.4 -118.95,981.23 38.6,1240.01z"/>
     <path class="fil4" d="M3406.52 3296.59c331.34,-2.65 585.32,-111.87 549.8,-471.52 -30.09,-304.83 -444.8,-498.36 -599.53,-294.9 1.26,-483.59 147.12,-349.28 -214.68,-628.69 -799.55,-617.51 -1377.56,-470.75 -1366.64,721.09 16.65,1818.52 1448.57,1643.63 1631.05,674.02z"/>
     <path class="fil4" d="M1804.57 3273.81c-33.73,-237.16 -95.01,-315.03 -353.59,-299.04 59.35,-137.85 -7.29,-39.09 121.59,-99.94l-82.3 -152.88c-7.91,-43.9 -5.46,-25.75 3.71,-49.03 108.19,-30.45 114.64,139.28 252.62,285.17l-14.26 -408.25c-420.11,-93.62 -538.19,607.11 72.23,723.97z"/>
     <path class="fil3" d="M123.31 3299.43l71.01 206.94c40.58,-196.48 78.78,-78.79 281.22,-332.9 97.73,-122.69 219.59,-174.13 278.81,-300.1 -253.98,94.32 -425.89,297.68 -631.04,426.06z"/>
     <path class="fil2" d="M3446.14 2968.19c102.43,17.28 28.74,18.47 114.61,-62.14 99.02,38 131.83,99.08 220.38,93.82 2.78,-102.76 -46.41,-67.27 -130.86,-153.08 43.76,-76.24 15.79,-35.22 80.28,-93.26 89.84,-80.84 66.37,-2.41 58.63,-124.07 -94.68,20.89 -342.77,231.04 -343.04,338.73z"/>
     <path class="fil2" d="M2925.9 2780.22c150.3,-61.28 117.39,-152.82 67.73,-274.24 -93.82,2.05 -149.7,-4.67 -154.53,116.39 -4.14,102.59 38,121.66 86.8,157.85z"/>
     <path class="fil2" d="M2162.6 2721.65c124.18,-83.42 124.28,-189.42 11.29,-287.81 -163.47,47.04 -159.6,224.75 -11.29,287.81z"/>
     <path class="fil2" d="M2307.43 3398.42c-0.19,0.39 -109.81,14.89 26.65,93.82 74.92,43.3 220.05,40.02 311.62,-1.2 96.86,-43.63 76.07,-1.02 68.99,-94.28 -112.42,-23.77 -74.32,37.38 -209.75,41.52 -109.61,3.34 -128.65,-45.49 -197.51,-39.86z"/>
     <path class="fil5 str0" d="M2000.61 2261.86c13.8,-2.76 44.16,-16.56 96.61,-22.1 52.44,-5.5 126.99,-2.75 172.52,-5.51 45.55,-2.76 62.12,-11.04 35.89,-20.7 -26.23,-9.67 -95.23,-20.71 -154.59,-15.18 -59.34,5.52 -109.02,27.6 -135.25,42.78 -26.22,15.2 -28.99,23.46 -15.18,20.71z"/>
     <path class="fil5 str0" d="M3088.29 2255.81c-13.83,-2.75 -44.17,-16.56 -96.62,-22.08 -52.47,-5.52 -126.99,-2.76 -172.53,-5.53 -45.54,-2.76 -62.12,-11.03 -35.87,-20.71 26.22,-9.66 95.21,-20.69 154.55,-15.16 59.36,5.51 109.05,27.6 135.26,42.78 26.24,15.18 29,23.46 15.21,20.7z"/>
     <path class="fil6 str1" d="M2449.18 2822.22c12.42,-13.8 26.22,-24.85 38.65,-28.99 12.41,-4.14 23.46,-1.37 23.46,4.14 0,5.52 -11.05,13.8 -22.09,24.85 -11.04,11.04 -22.08,24.84 -31.76,41.4 -9.66,16.58 -17.93,35.9 -22.07,51.07 -4.14,15.18 -4.14,26.23 4.14,34.49 8.27,8.3 24.85,13.82 44.17,16.59 19.32,2.75 41.4,2.75 52.45,6.89 11.05,4.16 11.05,12.42 -11.05,13.8 -22.08,1.38 -66.24,-4.14 -91.08,-15.18 -24.86,-11.04 -30.37,-27.6 -30.37,-45.55 0,-17.93 5.51,-37.25 13.79,-55.2 8.29,-17.95 19.32,-34.51 31.76,-48.31z"/>
    </g>
   </g>
  </g>
  <polygon class="fil0" points="-0,0 5080,0 5080,5080 -0,5080 "/>
 </g>
</svg>
