<?xml version="1.0" encoding="UTF-8"?>
<!DOCTYPE svg PUBLIC "-//W3C//DTD SVG 1.0//EN" "http://www.w3.org/TR/2001/REC-SVG-20010904/DTD/svg10.dtd">
<!-- Creator: CorelDRAW 2021 (64 Bit) -->
<svg xmlns="http://www.w3.org/2000/svg" xml:space="preserve" width="50.8mm" height="50.8mm" version="1.0" style="shape-rendering:geometricPrecision; text-rendering:geometricPrecision; image-rendering:optimizeQuality; fill-rule:evenodd; clip-rule:evenodd"
viewBox="0 0 5080 5080"
 xmlns:xlink="http://www.w3.org/1999/xlink"
 xmlns:xodm="http://www.corel.com/coreldraw/odm/2003">
 <defs>
  <style type="text/css">
   <![CDATA[
    .fil4 {fill:none}
    .fil1 {fill:black}
    .fil2 {fill:#33CC33}
    .fil3 {fill:#FEFEFE}
    .fil0 {fill:white}
   ]]>
  </style>
   <clipPath id="id0">
    <path d="M-0 0l5080 0 0 5080 -5080 0 0 -5080z"/>
   </clipPath>
 </defs>
 <g id="Camada_x0020_1">
  <metadata id="CorelCorpID_0Corel-Layer"/>
  <polygon class="fil0" points="-0,0 5080,0 5080,5080 -0,5080 "/>
  <g style="clip-path:url(#id0)">
   <g id="_1702322611184">
    <g>
     <path id="_1" class="fil1" d="M1762.13 5031.58l159.31 46.91 0.57 -853.82c68.72,89.55 87.6,210.88 167.56,319.88 63.39,86.45 169.98,171.09 314.37,204.51 267.17,61.78 448.82,-58.54 592.24,-249.63 81.36,-108.37 -46.93,56.76 26.66,-35.16 37.5,-46.87 18.92,-23.35 46.38,-53.6l-2.18 685.17 168 -36.59c3.22,-253.01 -2.91,-506.72 -0.73,-759.18 2.18,-253.18 148,-265.2 201.03,-566.97 62.32,0.21 307.89,-44.32 380.2,-68.05 698.53,-229.35 286.73,-2244.01 -158.13,-2509.05 42.62,-138.72 133.68,-242.66 141.36,-429.85 8.52,-207.85 -55.71,-289.57 -123.02,-446.75 -272.31,-227.75 -210.63,-244.17 -683.13,-256.01 -248.39,130.67 -437.79,209.49 -486.25,564.28 -578.29,1.89 -911.74,262.74 -1145.31,587.74 -429.6,597.88 -603.3,1283.92 -360.48,2049.4 143.99,453.9 112.26,281.35 443.9,393.27 172.52,58.26 187.95,23.31 251.37,185.41 129.43,330.75 -6.03,806.19 66.28,1228.09z"/>
     <path class="fil2" d="M1762.13 5031.58c-72.31,-421.9 63.15,-897.34 -66.28,-1228.09 -63.42,-162.1 -78.85,-127.15 -251.37,-185.41 -331.64,-111.92 -299.91,60.63 -443.9,-393.27 -242.82,-765.48 -69.12,-1451.52 360.48,-2049.4 233.57,-325 567.02,-585.85 1145.31,-587.74 48.46,-354.79 237.86,-433.61 486.25,-564.28 -1478.52,-251.76 -2628.95,746.39 -2920.38,1914.13 -179.43,719.07 -6.3,1486.61 317.99,2007.69 291.06,467.66 737.9,872.84 1371.9,1086.37z"/>
     <path class="fil2" d="M3235.04 5059.25c1003.2,-352.04 1672.51,-1106.03 1824.04,-2170.21 115.04,-808.06 -258.89,-1726.28 -770.6,-2192.79 -100.65,-91.78 -438.83,-376.26 -612.73,-416.85 67.31,157.18 131.54,238.9 123.02,446.75 -7.68,187.19 -98.74,291.13 -141.36,429.85 444.86,265.04 856.66,2279.7 158.13,2509.05 -72.31,23.73 -317.88,68.26 -380.2,68.05 -53.03,301.77 -198.85,313.79 -201.03,566.97 -2.18,252.46 3.95,506.17 0.73,759.18z"/>
     <path class="fil3" d="M3461.54 2698.54c-2.32,5.86 -3.83,9.51 -4.06,18.54l-4.77 61.12c4.36,203.77 17.38,466.27 -294.24,589.06 -433.59,170.88 -604.31,-254.48 -658.88,-325.28 -105.38,136.56 -77.21,147.67 -101.82,277.51l-17.44 67.25c-63.43,-35.82 -18.22,22.34 -63.6,-111.78l-21.56 -71.68c-43.8,86.87 -150.26,163.67 -287.77,182.28 -163.74,22.12 -269.79,-49.66 -383.93,-91.58 80.6,492.33 234.68,1015.19 750.28,1161.78 546.12,155.28 952.35,-362.84 1038.55,-796.74 356.15,-22.61 603.84,-86.76 613.07,-481 7.17,-306.47 -252.86,-559.07 -563.83,-479.48z"/>
     <path class="fil3" d="M1604.26 2505.67c534.31,-282.66 856.19,25.61 801.82,528.78 176.12,-126.21 39.65,-87.63 122.86,-322.11 95.45,-268.97 307.45,-356.22 559.7,-302.28 135.2,28.88 207.48,113.7 279.62,170.81 37.4,-309.08 88.65,-280.75 -273.18,-556.94 -672.23,-513.2 -1399.39,-664.46 -1490.82,481.74z"/>
     <path class="fil3" d="M3020.59 2486.12c-35.78,9.48 -443.29,-31.08 -455.7,397.87 -16.63,575.72 820.98,591.64 830.4,28.02 3.43,-206.26 -190.53,-474.77 -374.7,-425.89z"/>
     <path class="fil3" d="M1785.67 2494.1c-115.68,40.56 -177.76,86.94 -189.13,239.84 -6.6,88.48 -4.29,330.76 21.94,407.03 58.29,169.53 371.55,239.74 546.56,109.98 164.47,-121.93 252.45,-344.59 135.39,-580.49 -117.38,-236.57 -285.05,-144.54 -403.31,-155.9 -149.28,-14.39 31.03,-70.42 -111.45,-20.46z"/>
     <path class="fil3" d="M1639.51 3625.15c-111.62,-532.09 -36.8,-30.17 -186.11,-357.13l-212.44 14.01c19.01,-92.2 -9.59,-38.44 45.18,-83.8 21.73,-17.98 4.49,-1.78 36.12,-19.38 182.79,-101.82 -46.35,55.41 56.18,-25.05 -53.43,-70.6 -111.96,-113.74 -102.13,-232.87 163.27,18.05 147.04,217.54 300.51,349.77 -52.82,-208.3 -140.53,-156.97 -117.32,-491.91 -460.46,88.96 -388.69,764.89 180.01,846.36z"/>
     <path class="fil1" d="M3456.87 3267.92c5,2.37 13.69,0.35 15.5,5.92 10.6,31.95 120.67,-59.45 131.44,-65.75 86.5,52.96 118.36,103.21 223.41,116.38 1.54,-138.79 18.04,-50.21 -153.92,-187.57 72.25,-68.93 180.85,-141.86 170.05,-233.12 -0.4,-0.1 2.95,-64.57 -123.33,40.49 -69.46,57.78 -274.72,267.72 -263.15,323.65z"/>
     <path class="fil1" d="M2927.15 3058.46c92.74,-101.61 106.19,-240.57 -34.68,-325.46 -169.71,62.38 -161.96,295.56 34.68,325.46z"/>
     <path class="fil1" d="M2010.42 2987.06c168.17,-69.2 169.61,-308.52 -28.44,-314.3 -100.05,115.58 -107.66,222.66 28.44,314.3z"/>
     <path class="fil1" d="M2158.19 3799.94c73.15,192.73 389.8,127.88 494.27,0 -82.64,-103.81 -62.75,1.36 -222.06,17.73 -144.49,14.81 -178.43,-80 -272.21,-17.73z"/>
     <path class="fil3" d="M3360.25 1538.05c-33.64,113.42 -36.36,52.09 5.8,145.23 262.11,135.83 204.19,-303.78 -5.8,-145.23z"/>
    </g>
   </g>
  </g>
  <polygon class="fil4" points="-0,0 5080,0 5080,5080 -0,5080 "/>
 </g>
</svg>
