<?xml version="1.0" encoding="UTF-8"?>
<!DOCTYPE svg PUBLIC "-//W3C//DTD SVG 1.0//EN" "http://www.w3.org/TR/2001/REC-SVG-20010904/DTD/svg10.dtd">
<!-- Creator: CorelDRAW 2021 (64 Bit) -->
<svg xmlns="http://www.w3.org/2000/svg" xml:space="preserve" width="50.8mm" height="50.8mm" version="1.0" style="shape-rendering:geometricPrecision; text-rendering:geometricPrecision; image-rendering:optimizeQuality; fill-rule:evenodd; clip-rule:evenodd"
viewBox="0 0 5080 5080"
 xmlns:xlink="http://www.w3.org/1999/xlink"
 xmlns:xodm="http://www.corel.com/coreldraw/odm/2003">
 <defs>
  <style type="text/css">
   <![CDATA[
    .str0 {stroke:black;stroke-width:16.93;stroke-miterlimit:22.9256}
    .fil0 {fill:none}
    .fil2 {fill:black}
    .fil5 {fill:black}
    .fil4 {fill:#33CC33}
    .fil3 {fill:#FEFEFE}
    .fil1 {fill:white}
   ]]>
  </style>
   <clipPath id="id0">
    <path d="M-0 0l5080 0 0 5080 -5080 0 0 -5080z"/>
   </clipPath>
 </defs>
 <g id="Camada_x0020_1">
  <metadata id="CorelCorpID_0Corel-Layer"/>
  <rect class="fil0" width="5080" height="5080"/>
  <polygon class="fil1" points="-0,0 5080,0 5080,5080 -0,5080 "/>
  <g style="clip-path:url(#id0)">
   <g id="_1702318318720">
    <g>
     <path id="_1" class="fil2" d="M1587.88 286.26c-58.78,100.01 -88.18,83.16 -179.94,172.49 -162.4,158.07 -326.15,310.58 -407.27,546.25 -106.91,310.58 -193.99,700.91 -241.96,1067.96 -80.75,617.85 -102.69,1733.33 664.25,1868.26l3.65 872.67 226.64 112.65c-74.12,-253.15 -46.84,-450.11 -46.64,-715.85 110.65,-89.01 469.39,-147.88 851.54,-474.16l379.85 -392.46c34.61,214.51 4.78,683.23 3.09,925.48 -3.35,487.74 23.04,438.72 -154.84,797.31 201.31,-7.69 247.69,30.49 287.63,-153.69 4.28,8.35 23.87,54.69 25.33,57.02l51.18 59.84c505.1,-128.17 791.71,-252.8 1124.66,-552.83 262.67,-236.78 561.98,-561.81 708.73,-1022.53 -83.24,-888.34 -393.95,-2034.87 -922.91,-2671.14 -121.99,-146.76 -140.82,-179.38 -276.9,-298.5 -140.51,-123.02 -261.78,-178.58 -323.5,-255.96 -304.74,-70.88 -510.86,-212.94 -900.67,-215.9 -163.85,-1.25 -328.47,29.62 -471.18,82.82 -153.61,57.29 -281.11,153.44 -400.74,190.27z"/>
     <path class="fil3" d="M1127.07 1290.83c-97.66,184.11 -164.19,331.47 -180.6,618.27 93.42,-14.55 107.54,-42.57 166.31,34.99 -70.61,60.5 -84.56,47.13 -192.76,63.95 -48.63,505.69 -174.17,1540.41 470.42,1763.27 439.86,152.08 1018.51,-177.68 1292.39,-504.97 167.27,-199.95 37.66,-118.56 277.43,-147.7l16.81 -262.02 -68.99 -27.01c-18.69,-4.53 -63.71,-7.07 -99.88,-13.62 24.83,-106.13 -43.26,-92.63 -110.75,-208.27 -81.02,-138.82 -38.95,-143.56 -136.61,-162.98 -1.49,-0.32 -61.46,-546.64 -65.86,-602.68 -114.7,55.35 -247.6,334.36 -403.56,105.51 -291.82,-428.28 576.5,-773.5 -320.62,-699.87 -227.38,18.62 -413.74,42.29 -643.73,43.13z"/>
     <path class="fil4" d="M1426.61 4813.89l-3.65 -872.67c-766.94,-134.93 -745,-1250.41 -664.25,-1868.26 47.97,-367.05 135.05,-757.38 241.96,-1067.96 81.12,-235.67 244.87,-388.18 407.27,-546.25 91.76,-89.33 121.16,-72.48 179.94,-172.49 -761.51,311.84 -1428.64,1089.4 -1546.25,2157.4 -120.6,1094.73 731.24,2122.03 1384.98,2370.23z"/>
     <path class="fil4" d="M4883.78 3454.67c313.83,-628.2 138.86,-1502.09 -159.81,-2055.96 -263.17,-487.98 -744.47,-967.67 -1363.5,-1169.64 61.72,77.38 182.99,132.94 323.5,255.96 136.08,119.12 154.91,151.74 276.9,298.5 528.96,636.27 839.67,1782.8 922.91,2671.14z"/>
     <path class="fil2" d="M1617.55 2444.56c253.75,-5.32 201.78,-341.18 73.95,-368.75 -132.46,-28.54 -237.88,224.01 -73.95,368.75z"/>
     <path class="fil2" d="M983.47 2520.1c205.82,45.57 189.94,-186.37 133.32,-311.31l-129.81 -6.34c-53.7,107.5 -93.35,188.92 -3.51,317.65z"/>
     <path class="fil2" d="M1370.15 1914.64c104.29,73.07 423.25,81.42 520.21,0 -49.19,-72.02 -114.03,-48.11 -244.6,-53.82 -78.14,-3.41 -275.77,-25.34 -275.61,53.82z"/>
     <path class="fil2" d="M1272.76 3298.16c90.3,63.88 193.76,35.19 294.4,-23.29 88.71,-51.59 158.25,-116.55 161.44,-238.66 -145.03,14.93 -77.37,68.57 -192.2,148.08 -112.25,77.73 -194.39,10.97 -263.64,113.87z"/>
     <path class="fil5 str0" d="M1330.34 2553.93c-22.57,33.48 -51.78,105.97 -66.39,146.41 -14.6,40.45 -14.6,48.81 1.34,48.81 15.92,0 47.78,-8.36 83.64,-15.34 35.85,-6.97 75.69,-12.55 95.62,-20.92 19.91,-8.36 19.91,-19.51 -11.96,-18.13 -31.86,1.4 -95.61,15.35 -120.83,11.17 -25.23,-4.19 -11.96,-26.49 6.64,-58.57 18.58,-32.07 42.48,-73.9 46.47,-97.61 3.98,-23.7 -11.96,-29.28 -34.53,4.18z"/>
    </g>
   </g>
  </g>
  <polygon class="fil0" points="-0,0 5080,0 5080,5080 -0,5080 "/>
 </g>
</svg>
