<?xml version="1.0" encoding="UTF-8"?>
<!DOCTYPE svg PUBLIC "-//W3C//DTD SVG 1.0//EN" "http://www.w3.org/TR/2001/REC-SVG-20010904/DTD/svg10.dtd">
<!-- Creator: CorelDRAW 2021 (64 Bit) -->
<svg xmlns="http://www.w3.org/2000/svg" xml:space="preserve" width="50.8mm" height="50.8mm" version="1.0" style="shape-rendering:geometricPrecision; text-rendering:geometricPrecision; image-rendering:optimizeQuality; fill-rule:evenodd; clip-rule:evenodd"
viewBox="0 0 5080 5080"
 xmlns:xlink="http://www.w3.org/1999/xlink"
 xmlns:xodm="http://www.corel.com/coreldraw/odm/2003">
 <defs>
  <style type="text/css">
   <![CDATA[
    .str0 {stroke:black;stroke-width:16.93;stroke-miterlimit:22.9256}
    .str1 {stroke:black;stroke-width:16.93;stroke-miterlimit:22.9256}
    .fil6 {fill:none}
    .fil1 {fill:black}
    .fil4 {fill:black}
    .fil5 {fill:black}
    .fil2 {fill:#33CC33}
    .fil3 {fill:#FEFEFE}
    .fil0 {fill:white}
   ]]>
  </style>
   <clipPath id="id0">
    <path d="M-0 0l5080 0 0 5080 -5080 0 0 -5080z"/>
   </clipPath>
 </defs>
 <g id="Camada_x0020_1">
  <metadata id="CorelCorpID_0Corel-Layer"/>
  <rect class="fil0" width="5080" height="5080"/>
  <polygon class="fil0" points="-0,0 5080,0 5080,5080 -0,5080 "/>
  <g style="clip-path:url(#id0)">
   <g id="_1702166137360">
    <g>
     <path id="_1" class="fil1" d="M732.08 4302.17l93.11 104c261.27,250.9 585.45,435.81 946.18,535.4l-21.91 -861.6c176.64,142.49 300.66,643.09 781.04,502.35 264.12,-77.36 626.63,-646.74 678.1,-698.84 -6.94,335.91 29.8,782.75 -33.15,1088.93 592.7,-77.71 1378.94,-735.75 1532.76,-1141.96 -115.06,-200.25 -439.38,-538.75 -670.38,-620.45 74.5,-623.49 50.71,-959.23 -195.63,-1467.96l54.97 -42.25c5.33,-3.96 12.38,-8.92 17.82,-12.99 29.02,-21.53 42.98,-29.46 66.44,-49.62 42.11,-36.18 62.21,-60.96 92.54,-107.65 382.51,-588.99 -311.9,-1211.47 -809.97,-858.16 -247.04,175.23 -172.11,273.65 -291.63,525.62 -316.8,-22.71 -530.99,19.16 -836.01,52.55 5.94,-530.89 -473.71,-872.49 -924.5,-579.23 -346.33,225.26 -328.18,924.42 106.1,1059.88l-30.67 453.32c-560.15,396.77 -764.74,1443.9 -453.97,2074.96l-101.24 43.7z"/>
     <path class="fil2" d="M732.08 4302.17l101.24 -43.7c-310.77,-631.06 -106.18,-1678.19 453.97,-2074.96l30.67 -453.32c-434.28,-135.46 -452.43,-834.62 -106.1,-1059.88 450.79,-293.26 930.44,48.34 924.5,579.23 305.02,-33.39 519.21,-75.26 836.01,-52.55 119.52,-251.97 44.59,-350.39 291.63,-525.62 498.07,-353.31 1192.48,269.17 809.97,858.16 -30.33,46.69 -50.43,71.47 -92.54,107.65 -23.46,20.16 -37.42,28.09 -66.44,49.62 -5.44,4.07 -12.49,9.03 -17.82,12.99l-54.97 42.25c246.34,508.73 270.13,844.47 195.63,1467.96 231,81.7 555.32,420.2 670.38,620.45 231.17,-244.05 397.61,-970.77 368.48,-1387.05 -99.36,-1419.26 -1470.65,-2536.83 -2931.54,-2305.29 -1428.47,226.4 -2425.65,1681.4 -2074.32,3028.23 61.34,235.15 152.2,450.28 258.85,638.5 98.11,173.16 279.05,415.31 402.4,497.33z"/>
     <path class="fil3" d="M1585 2849.27c0,1708.79 1074.76,1711.38 1448.24,1082.66 71.74,-120.78 81.1,-231.85 138.42,-353.39 293.51,-6.16 514.71,-43.66 525.45,-379.64 9.49,-297.6 -200.83,-441.26 -484.72,-395.36 -45.16,65.13 -17.45,32.05 -52.71,91.7l-78.99 107.82 22.24 -270.02 -528.33 -246.32c-1.04,4.13 -7.08,-13.68 -8.53,-16.54 -81.84,-162.17 -93.99,-115.34 -167.78,-227.44 -86.94,-132.08 -82.34,-291.77 -137.68,-379.92 -213.28,75.19 -675.61,609.18 -675.61,986.45z"/>
     <path class="fil3" d="M1536.21 3561.69l-83.99 -723.07c-297.14,-38.97 -459.21,36.12 -413.84,356.59 34.76,245.43 240.96,333.51 497.83,366.48z"/>
     <path class="fil1" d="M3217.69 3259.72c19.2,8.55 -44.12,98.56 146.81,-49.83 67.42,39.8 111.54,88.19 207.55,109.79 -30.74,-153.59 -56.51,-64.37 -141.68,-179.05 59.03,-56.69 119.46,-110.82 151.61,-216.17 -111.64,33.08 -360.76,266.58 -364.29,335.26z"/>
     <path class="fil1" d="M1808.25 2936.7c29.19,85.77 16.27,54.1 62.04,106.61 375.66,43.25 66.38,-447.94 -62.04,-106.61z"/>
     <path class="fil1" d="M2879.82 3044.11c52.58,-65.3 47.75,-38.25 59.83,-146.6 -233.58,-233.43 -375.22,179.88 -59.83,146.6z"/>
     <path class="fil1" d="M2058.37 3606.84c34.26,75.7 81.34,118.99 227.85,110.89 236.7,-13.13 201.77,-132.02 204.15,-144.7 -108.25,13.23 -134.79,57.82 -229.39,56.03 -126.84,-2.41 -101.77,-68.99 -202.61,-22.22z"/>
     <path class="fil1" d="M1286.52 3140.63c-45.57,39.08 12.58,0.34 -52.82,31.43l-41.61 17.78c-4.76,2.1 -14.76,5.3 -21.61,9.09 105.14,70.72 100.1,15.58 164.66,101.76 28.56,38.15 -0.33,16.44 42.89,70.3 22.25,-32.87 49.76,71.3 21.27,-100.93 -15.97,-96.35 -69.19,-267.03 -135.16,-301.11 -26.51,64.09 -3.19,98.62 22.38,171.68z"/>
     <g>
      <path class="fil4 str0" d="M1685.77 2583.24c17.68,-3.63 56.55,-21.77 123.7,-29.04 67.15,-7.25 162.58,-3.63 220.88,-7.26 58.32,-3.63 79.53,-14.51 45.95,-27.22 -33.58,-12.7 -121.92,-27.21 -197.91,-19.95 -75.99,7.26 -139.6,36.29 -173.18,56.24 -33.56,19.98 -37.11,30.86 -19.44,27.23z"/>
      <path class="fil4 str0" d="M2481.31 2577.9c17.68,-3.63 56.55,-21.77 123.69,-29.04 67.16,-7.25 162.58,-3.62 220.89,-7.26 58.32,-3.63 79.53,-14.51 45.95,-27.21 -33.58,-12.71 -121.92,-27.22 -197.91,-19.96 -75.99,7.26 -139.6,36.29 -173.18,56.25 -33.56,19.97 -37.11,30.85 -19.44,27.22z"/>
      <path class="fil5 str1" d="M2189.57 3109.5c24.8,-28.29 52.34,-50.93 77.15,-59.43 24.79,-8.48 46.84,-2.81 46.84,8.5 0,11.33 -22.05,28.29 -44.09,50.93 -22.04,22.64 -44.09,50.94 -63.38,84.89 -19.3,33.96 -35.81,73.57 -44.09,104.69 -8.26,31.14 -8.26,53.78 8.26,70.74 16.53,16.99 49.61,28.32 88.18,33.97 38.58,5.66 82.67,5.66 104.72,14.14 22.03,8.5 22.03,25.46 -22.05,28.29 -44.09,2.85 -132.25,-8.48 -181.85,-31.12 -49.59,-22.62 -60.63,-56.59 -60.63,-93.38 0,-36.78 11.04,-76.38 27.55,-113.18 16.55,-36.77 38.58,-70.74 63.39,-99.04z"/>
     </g>
    </g>
   </g>
  </g>
  <polygon class="fil6" points="-0,0 5080,0 5080,5080 -0,5080 "/>
 </g>
</svg>
